<?xml version="1.0" encoding="UTF-8"?>
<!DOCTYPE svg PUBLIC "-//W3C//DTD SVG 1.1//EN" "http://www.w3.org/Graphics/SVG/1.1/DTD/svg11.dtd">
<!-- Creator: CorelDRAW X6 -->
<svg xmlns="http://www.w3.org/2000/svg" xml:space="preserve" width="197.52mm" height="70.1mm" version="1.1" style="shape-rendering:geometricPrecision; text-rendering:geometricPrecision; image-rendering:optimizeQuality; fill-rule:evenodd; clip-rule:evenodd"
viewBox="0 0 20351 7223"
 xmlns:xlink="http://www.w3.org/1999/xlink">
 <defs>
  <style type="text/css">
   <![CDATA[
    .fil0 {fill:none}
    .fil31 {fill:#FEFEFE}
    .fil29 {fill:#FEFEFE}
    .fil30 {fill:#FF0033}
    .fil28 {fill:#FEFEFE;fill-rule:nonzero}
    .fil24 {fill:#CFEFFF;fill-rule:nonzero}
    .fil1 {fill:#E5E5E5;fill-rule:nonzero}
    .fil17 {fill:url(#id0)}
    .fil18 {fill:url(#id1)}
    .fil21 {fill:url(#id2)}
    .fil27 {fill:url(#id3)}
    .fil14 {fill:url(#id4)}
    .fil16 {fill:url(#id5)}
    .fil15 {fill:url(#id6)}
    .fil20 {fill:url(#id7)}
    .fil19 {fill:url(#id8)}
    .fil25 {fill:url(#id9)}
    .fil26 {fill:url(#id10)}
    .fil22 {fill:url(#id11)}
    .fil8 {fill:url(#id12)}
    .fil2 {fill:url(#id13)}
    .fil5 {fill:url(#id14)}
    .fil3 {fill:url(#id15)}
    .fil11 {fill:url(#id16)}
    .fil10 {fill:url(#id17)}
    .fil6 {fill:url(#id18)}
    .fil9 {fill:url(#id19)}
    .fil4 {fill:url(#id20)}
    .fil7 {fill:url(#id21)}
    .fil12 {fill:url(#id22)}
    .fil13 {fill:url(#id23)}
    .fil23 {fill:url(#id24)}
   ]]>
  </style>
  <linearGradient id="id0" gradientUnits="userSpaceOnUse" x1="1841.95" y1="5891.64" x2="1841.95" y2="7002.43">
   <stop offset="0" style="stop-color:black"/>
   <stop offset="0.478431" style="stop-color:#777777"/>
   <stop offset="1" style="stop-color:black"/>
  </linearGradient>
  <linearGradient id="id1" gradientUnits="userSpaceOnUse" xlink:href="#id0" x1="1463.1" y1="4477.34" x2="1463.1" y2="5586.22">
  </linearGradient>
  <linearGradient id="id2" gradientUnits="userSpaceOnUse" xlink:href="#id0" x1="18530.9" y1="5893.03" x2="18530.9" y2="7001.04">
  </linearGradient>
  <linearGradient id="id3" gradientUnits="objectBoundingBox" xlink:href="#id0" x1="50%" y1="0%" x2="50%" y2="100%">
  </linearGradient>
  <linearGradient id="id4" gradientUnits="userSpaceOnUse" xlink:href="#id0" x1="1099.66" y1="3082.68" x2="1099.66" y2="4191.55">
  </linearGradient>
  <linearGradient id="id5" gradientUnits="userSpaceOnUse" xlink:href="#id0" x1="19243.7" y1="3051.88" x2="19243.7" y2="4160.53">
  </linearGradient>
  <linearGradient id="id6" gradientUnits="userSpaceOnUse" xlink:href="#id0" x1="19233.4" y1="221.338" x2="19233.4" y2="1329.99">
  </linearGradient>
  <linearGradient id="id7" gradientUnits="userSpaceOnUse" xlink:href="#id0" x1="5107.35" y1="5892.79" x2="5107.35" y2="7001.28">
  </linearGradient>
  <linearGradient id="id8" gradientUnits="userSpaceOnUse" xlink:href="#id0" x1="18901.5" y1="4477.62" x2="18901.5" y2="5585.94">
  </linearGradient>
  <linearGradient id="id9" gradientUnits="objectBoundingBox" xlink:href="#id0" x1="50%" y1="0%" x2="50%" y2="100%">
  </linearGradient>
  <linearGradient id="id10" gradientUnits="objectBoundingBox" xlink:href="#id0" x1="50%" y1="0%" x2="50%" y2="100%">
  </linearGradient>
  <linearGradient id="id11" gradientUnits="userSpaceOnUse" xlink:href="#id0" x1="10179.9" y1="5892.79" x2="10179.9" y2="7001.28">
  </linearGradient>
  <linearGradient id="id12" gradientUnits="userSpaceOnUse" x1="731.163" y1="5741.52" x2="2195.02" y2="4322.03">
   <stop offset="0" style="stop-color:#ECC055"/>
   <stop offset="0.2" style="stop-color:#F8FB86"/>
   <stop offset="0.270588" style="stop-color:#6B2003"/>
   <stop offset="0.521569" style="stop-color:#ECC156"/>
   <stop offset="0.74902" style="stop-color:#FAF887"/>
   <stop offset="1" style="stop-color:#480900"/>
  </linearGradient>
  <linearGradient id="id13" gradientUnits="objectBoundingBox" xlink:href="#id12" x1="13.9993%" y1="85.9999%" x2="86.0007%" y2="14.0001%">
  </linearGradient>
  <linearGradient id="id14" gradientUnits="userSpaceOnUse" xlink:href="#id12" x1="505.579" y1="4220.72" x2="1693.73" y2="3053.51">
  </linearGradient>
  <linearGradient id="id15" gradientUnits="objectBoundingBox" xlink:href="#id12" x1="13.9993%" y1="86.0007%" x2="86.0007%" y2="13.9993%">
  </linearGradient>
  <linearGradient id="id16" gradientUnits="userSpaceOnUse" xlink:href="#id12" x1="17694.4" y1="7283.53" x2="19367.4" y2="5610.54">
  </linearGradient>
  <linearGradient id="id17" gradientUnits="userSpaceOnUse" xlink:href="#id12" x1="4382.64" y1="7180.47" x2="5812.77" y2="5713.61">
  </linearGradient>
  <linearGradient id="id18" gradientUnits="objectBoundingBox" xlink:href="#id12" x1="20.5456%" y1="96.2867%" x2="79.4544%" y2="3.71327%">
  </linearGradient>
  <linearGradient id="id19" gradientUnits="userSpaceOnUse" xlink:href="#id12" x1="18194.7" y1="5738.59" x2="19608.3" y2="4324.96">
  </linearGradient>
  <linearGradient id="id20" gradientUnits="userSpaceOnUse" xlink:href="#id12" x1="90.0314" y1="1093.87" x2="733.461" y2="448.313">
  </linearGradient>
  <linearGradient id="id21" gradientUnits="userSpaceOnUse" xlink:href="#id12" x1="1016.02" y1="7269.15" x2="2679.45" y2="5624.93">
  </linearGradient>
  <linearGradient id="id22" gradientUnits="userSpaceOnUse" xlink:href="#id12" x1="8750.62" y1="7848.01" x2="11607.8" y2="5046.07">
  </linearGradient>
  <linearGradient id="id23" gradientUnits="userSpaceOnUse" xlink:href="#id0" x1="411.756" y1="561.537" x2="411.756" y2="980.65">
  </linearGradient>
  <radialGradient id="id24" gradientUnits="objectBoundingBox" cx="35.9999%" cy="52.0001%" r="39.0001%" fx="35.9999%" fy="52.0001%">
   <stop offset="0" style="stop-color:#7B7B7B"/>
   <stop offset="0.988235" style="stop-color:black"/>
   <stop offset="1" style="stop-color:black"/>
  </radialGradient>
 </defs>
 <g id="Layer_x0020_1">
  <metadata id="CorelCorpID_0Corel-Layer"/>
  <rect class="fil0" width="20351" height="7223"/>
  <path class="fil1" d="M19530 110l0 -93 17 0 0 34c6,-6 12,-9 20,-9 8,0 15,2 20,8 5,6 8,15 8,26 0,11 -3,20 -8,27 -6,6 -12,9 -20,9 -4,0 -8,-1 -11,-3 -4,-2 -7,-5 -10,-9l0 10 -16 0zm17 -35c0,7 1,12 3,16 3,4 7,7 13,7 3,0 7,-2 10,-5 2,-4 4,-9 4,-16 0,-8 -2,-13 -4,-17 -3,-3 -7,-5 -11,-5 -4,0 -8,2 -11,5 -3,3 -4,8 -4,15z"/>
  <path id="1" class="fil1" d="M19601 43l19 0 16 48 16 -48 18 0 -24 65 -4 11c-2,4 -3,7 -5,9 -1,2 -3,4 -4,5 -2,2 -4,3 -7,3 -3,1 -6,1 -9,1 -4,0 -7,0 -10,-1l-2 -14c3,1 5,1 8,1 4,0 7,-1 9,-3 2,-3 3,-6 4,-10l-25 -67z"/>
  <path id="2" class="fil1" d="M19717 110l0 -93 30 0c12,0 19,1 23,2 5,1 9,4 13,9 4,5 5,11 5,18 0,6 -1,10 -3,14 -2,4 -4,7 -8,9 -3,3 -6,4 -9,5 -5,1 -11,1 -20,1l-12 0 0 35 -19 0zm19 -77l0 27 10 0c8,0 13,-1 15,-2 3,-1 5,-2 6,-5 1,-2 2,-4 2,-7 0,-3 -1,-6 -3,-8 -2,-2 -4,-4 -7,-4 -3,-1 -7,-1 -14,-1l-9 0z"/>
  <path id="3" class="fil1" d="M19817 64l-16 -3c2,-7 5,-12 9,-15 5,-3 11,-4 20,-4 8,0 14,0 18,2 3,2 6,5 8,7 1,3 2,9 2,16l0 21c0,6 0,10 1,13 0,3 1,6 3,9l-18 0c0,-1 -1,-3 -1,-5 -1,-1 -1,-2 -1,-2 -3,3 -6,5 -10,7 -3,1 -7,2 -11,2 -7,0 -12,-2 -16,-6 -4,-4 -6,-8 -6,-14 0,-4 1,-7 3,-10 2,-3 4,-5 7,-7 4,-2 8,-3 14,-4 9,-2 14,-3 18,-4l0 -2c0,-4 -1,-6 -3,-8 -2,-1 -5,-2 -9,-2 -4,0 -6,1 -8,2 -2,1 -3,3 -4,7zm24 14c-3,1 -6,2 -11,3 -5,1 -8,2 -10,3 -2,1 -3,4 -3,6 0,3 1,5 3,7 1,1 4,2 7,2 3,0 6,-1 9,-3 2,-2 3,-3 4,-6 0,-1 1,-4 1,-8l0 -4z"/>
  <path id="4" class="fil1" d="M19934 63l-17 3c-1,-3 -2,-6 -4,-8 -2,-2 -5,-2 -8,-2 -5,0 -8,1 -11,4 -3,3 -4,8 -4,15 0,8 1,14 4,17 3,4 6,5 11,5 3,0 6,-1 8,-3 2,-1 4,-5 5,-9l17 2c-2,9 -5,15 -10,19 -6,4 -12,6 -21,6 -10,0 -18,-3 -23,-9 -6,-7 -9,-15 -9,-26 0,-11 3,-20 9,-26 5,-6 13,-9 23,-9 8,0 15,1 20,5 5,3 8,9 10,16z"/>
  <path id="5" class="fil1" d="M19948 34l0 -17 17 0 0 17 -17 0zm0 76l0 -67 17 0 0 67 -17 0z"/>
  <path id="6" class="fil1" d="M19976 43l10 0 0 -5c0,-6 1,-10 2,-13 1,-3 3,-5 7,-7 3,-1 7,-2 12,-2 5,0 10,1 15,2l-2 13c-3,-1 -6,-2 -9,-2 -2,0 -4,1 -5,2 -2,1 -2,4 -2,7l0 5 13 0 0 14 -13 0 0 53 -18 0 0 -53 -10 0 0 -14zm50 -9l0 -17 18 0 0 17 -18 0zm0 76l0 -67 18 0 0 67 -18 0z"/>
  <path id="7" class="fil1" d="M20056 91l18 -2c1,3 2,6 5,7 2,2 5,3 10,3 4,0 8,-1 10,-3 1,-1 2,-2 2,-4 0,-2 0,-3 -1,-4 -1,0 -3,-1 -6,-2 -14,-3 -23,-6 -27,-9 -6,-3 -8,-8 -8,-15 0,-6 2,-11 7,-15 4,-3 11,-5 21,-5 9,0 16,1 21,4 4,3 7,8 9,13l-17 4c-1,-3 -2,-5 -4,-7 -2,-1 -5,-2 -9,-2 -4,0 -8,1 -10,2 -1,1 -2,2 -2,4 0,1 1,2 2,3 2,1 7,3 17,5 9,2 16,5 20,8 3,3 5,8 5,13 0,6 -2,12 -8,16 -5,5 -12,7 -22,7 -10,0 -17,-2 -22,-6 -6,-3 -9,-8 -11,-15z"/>
  <path id="8" class="fil1" d="M20165 43l0 14 -12 0 0 27c0,6 0,9 1,10 0,1 0,2 1,2 1,1 2,1 3,1 2,0 4,0 7,-2l2 14c-4,2 -9,3 -14,3 -3,0 -6,-1 -9,-2 -2,-1 -4,-2 -6,-4 -1,-2 -2,-4 -2,-7 0,-2 -1,-6 -1,-13l0 -29 -8 0 0 -14 8 0 0 -13 18 -11 0 24 12 0z"/>
  <g id="_694930568">
   <circle class="fil2" cx="14537" cy="6447" r="698"/>
   <circle class="fil3" cx="16017" cy="6447" r="698"/>
   <circle class="fil3" cx="1481" cy="776" r="698"/>
   <circle class="fil3" cx="2934" cy="776" r="698"/>
   <circle class="fil2" cx="4387" cy="776" r="698"/>
   <circle class="fil3" cx="5840" cy="776" r="698"/>
   <circle class="fil2" cx="7293" cy="776" r="698"/>
   <circle class="fil3" cx="8746" cy="776" r="698"/>
   <circle class="fil2" cx="10200" cy="776" r="698"/>
   <circle class="fil3" cx="11653" cy="776" r="698"/>
   <circle class="fil3" cx="13106" cy="776" r="698"/>
   <circle class="fil3" cx="14559" cy="776" r="698"/>
   <circle class="fil3" cx="16012" cy="776" r="698"/>
   <circle class="fil3" cx="17465" cy="776" r="698"/>
   <circle class="fil3" cx="758" cy="2201" r="698"/>
   <circle class="fil3" cx="2207" cy="2201" r="698"/>
   <circle class="fil3" cx="3656" cy="2201" r="698"/>
   <circle class="fil3" cx="5104" cy="2201" r="698"/>
   <circle class="fil3" cx="6553" cy="2201" r="698"/>
   <circle class="fil3" cx="8002" cy="2201" r="698"/>
   <circle class="fil3" cx="9451" cy="2201" r="698"/>
   <circle class="fil3" cx="10900" cy="2201" r="698"/>
   <circle class="fil3" cx="12349" cy="2201" r="698"/>
   <circle class="fil3" cx="13798" cy="2201" r="698"/>
   <circle class="fil3" cx="15247" cy="2201" r="698"/>
   <circle class="fil3" cx="16696" cy="2201" r="698"/>
   <circle class="fil3" cx="18145" cy="2201" r="698"/>
   <circle class="fil3" cx="19594" cy="2201" r="698"/>
   <circle class="fil3" cx="2925" cy="3609" r="698"/>
   <circle class="fil3" cx="4380" cy="3609" r="698"/>
   <circle class="fil3" cx="5834" cy="3609" r="698"/>
   <circle class="fil2" cx="7288" cy="3609" r="698"/>
   <circle class="fil3" cx="8742" cy="3609" r="698"/>
   <circle class="fil3" cx="10196" cy="3609" r="698"/>
   <circle class="fil3" cx="11650" cy="3609" r="698"/>
   <circle class="fil3" cx="13105" cy="3609" r="698"/>
   <circle class="fil2" cx="14559" cy="3609" r="698"/>
   <circle class="fil3" cx="16013" cy="3609" r="698"/>
   <circle class="fil2" cx="17467" cy="3609" r="698"/>
   <circle class="fil3" cx="3635" cy="5032" r="698"/>
   <circle class="fil3" cx="5091" cy="5032" r="698"/>
   <circle class="fil3" cx="6547" cy="5032" r="698"/>
   <circle class="fil3" cx="8004" cy="5032" r="698"/>
   <circle class="fil3" cx="9460" cy="5032" r="698"/>
   <circle class="fil3" cx="10917" cy="5032" r="698"/>
   <circle class="fil3" cx="12373" cy="5032" r="698"/>
   <circle class="fil3" cx="13830" cy="5032" r="698"/>
   <circle class="fil3" cx="15286" cy="5032" r="698"/>
   <circle class="fil3" cx="16743" cy="5032" r="698"/>
  </g>
  <rect class="fil4" x="146" y="141" width="531" height="1261" rx="204" ry="205"/>
  <path class="fil5" d="M455 3007l1289 0c200,0 364,161 364,357l0 546c0,197 -164,358 -364,358l-1289 0c-200,0 -364,-161 -364,-358l0 -546c0,-196 164,-357 364,-357z"/>
  <path class="fil6" d="M18600 145l1267 0c196,0 357,161 357,358l0 546c0,196 -161,357 -357,357l-1267 0c-196,0 -357,-161 -357,-357l0 -546c0,-197 161,-358 357,-358z"/>
  <path class="fil6" d="M18610 2976l1267 0c197,0 357,161 357,357l0 546c0,197 -160,358 -357,358l-1267 0c-196,0 -357,-161 -357,-358l0 -546c0,-196 161,-357 357,-357z"/>
  <path class="fil7" d="M471 5817l2754 0c199,0 361,160 361,357l0 546c0,197 -162,357 -361,357l-2754 0c-199,0 -362,-160 -362,-357l0 -546c0,-197 163,-357 362,-357z"/>
  <path class="fil8" d="M454 4401l2018 0c200,0 363,161 363,358l0 546c0,196 -163,357 -363,357l-2018 0c-199,0 -363,-161 -363,-357l0 -546c0,-197 164,-358 363,-358z"/>
  <path class="fil9" d="M17926 4401l1951 0c197,0 357,161 357,358l0 546c0,196 -160,357 -357,357l-1951 0c-197,0 -357,-161 -357,-357l0 -546c0,-197 160,-358 357,-358z"/>
  <path class="fil10" d="M4075 5817l2046 0c192,0 348,160 348,357l0 546c0,197 -156,357 -348,357l-2046 0c-192,0 -349,-160 -349,-357l0 -546c0,-197 157,-357 349,-357z"/>
  <path class="fil11" d="M17195 5817l2672 0c196,0 357,160 357,357l0 546c0,197 -161,357 -357,357l-2672 0c-196,0 -357,-160 -357,-357l0 -546c0,-197 161,-357 357,-357z"/>
  <path class="fil12" d="M6985 5817l6389 0c200,0 364,160 364,357l0 546c0,197 -164,357 -364,357l-6389 0c-201,0 -365,-160 -365,-357l0 -546c0,-197 164,-357 365,-357z"/>
  <rect class="fil13" x="222" y="220" width="379" height="1103" rx="147" ry="155"/>
  <path class="fil14" d="M478 3083l1244 0c163,0 297,131 297,292l0 524c0,161 -134,293 -297,293l-1244 0c-164,0 -298,-132 -298,-293l0 -524c0,-161 134,-292 298,-292z"/>
  <path class="fil15" d="M18632 221l1203 0c159,0 288,132 288,293l0 524c0,160 -129,292 -288,292l-1203 0c-159,0 -288,-132 -288,-292l0 -524c0,-161 129,-293 288,-293z"/>
  <path class="fil16" d="M18632 3052l1223 0c161,0 293,131 293,292l0 524c0,161 -132,293 -293,293l-1223 0c-161,0 -293,-132 -293,-293l0 -524c0,-161 132,-292 293,-292z"/>
  <path class="fil17" d="M497 5892l2689 0c165,0 300,131 300,293l0 524c0,162 -135,293 -300,293l-2689 0c-165,0 -300,-131 -300,-293l0 -524c0,-162 135,-293 300,-293z"/>
  <path class="fil18" d="M482 4477l1962 0c164,0 299,132 299,293l0 524c0,161 -135,292 -299,292l-1962 0c-164,0 -299,-131 -299,-292l0 -524c0,-161 135,-293 299,-293z"/>
  <path class="fil19" d="M17958 4478l1887 0c161,0 293,131 293,292l0 524c0,160 -132,292 -293,292l-1887 0c-161,0 -293,-132 -293,-292l0 -524c0,-161 132,-292 293,-292z"/>
  <path class="fil20" d="M4112 5893l1991 0c160,0 290,131 290,292l0 524c0,161 -130,292 -290,292l-1991 0c-160,0 -291,-131 -291,-292l0 -524c0,-161 131,-292 291,-292z"/>
  <path class="fil21" d="M17228 5893l2606 0c162,0 295,132 295,292l0 524c0,161 -133,292 -295,292l-2606 0c-162,0 -295,-131 -295,-292l0 -524c0,-160 133,-292 295,-292z"/>
  <path class="fil22" d="M7026 5893l6308 0c168,0 305,131 305,292l0 524c0,161 -137,292 -305,292l-6308 0c-168,0 -305,-131 -305,-292l0 -524c0,-161 137,-292 305,-292z"/>
  <circle class="fil23" cx="14537" cy="6447" r="618"/>
  <circle class="fil23" cx="16017" cy="6447" r="618"/>
  <path class="fil24" d="M448 667c-32,0 -56,8 -74,22 -18,14 -29,37 -35,68 19,-26 46,-39 79,-39 28,0 50,8 66,24 17,16 26,37 26,64 0,26 -9,47 -26,64 -16,16 -38,24 -66,24 -31,0 -56,-11 -75,-33 -19,-22 -29,-50 -29,-84 0,-39 12,-70 37,-94 25,-23 58,-35 100,-35 8,0 14,0 18,1l0 19c-4,0 -11,-1 -21,-1z"/>
  <circle class="fil25" cx="1481" cy="776" r="618"/>
  <polygon class="fil24" points="1395,1116 1205,1116 1205,663 1123,693 1117,669 1374,576 1395,576 "/>
  <path class="fil24" d="M1656 539l-21 0c-2,-19 -6,-37 -12,-54 -6,-17 -15,-36 -28,-57 -13,-21 -22,-39 -27,-52 -5,-14 -7,-28 -7,-44 0,-26 7,-48 23,-64 15,-16 36,-25 62,-25 25,0 46,9 62,25 15,16 23,38 23,64 0,15 -2,30 -7,44 -5,14 -14,31 -27,52 -14,22 -24,42 -29,58 -6,17 -10,34 -12,53zm-93 126c0,-24 8,-43 23,-58 15,-15 35,-22 59,-22 25,0 45,7 60,22 15,15 23,34 23,58 0,23 -7,43 -23,57 -15,15 -35,23 -60,23 -25,0 -45,-8 -60,-22 -14,-15 -22,-34 -22,-58z"/>
  <circle class="fil25" cx="2934" cy="776" r="618"/>
  <path class="fil24" d="M2543 1129l187 -305c16,-25 28,-46 37,-63 10,-17 17,-31 22,-43 4,-12 8,-23 9,-32 1,-9 2,-18 2,-28 0,-14 -5,-25 -15,-34 -10,-8 -26,-13 -47,-13 -20,0 -39,4 -57,10 -19,6 -35,15 -48,27 -14,12 -25,27 -33,44 -8,18 -12,38 -12,61 0,26 6,50 20,72l-15 19c-6,-10 -12,-22 -18,-37 -6,-15 -9,-32 -9,-50 0,-30 5,-55 15,-77 9,-21 22,-38 39,-52 16,-13 35,-23 56,-29 21,-6 43,-9 66,-9 34,0 64,5 89,15 24,11 45,24 61,40 16,16 28,34 35,54 8,20 11,40 11,59 0,19 -2,36 -6,52 -3,16 -12,37 -24,61 -12,24 -30,54 -53,91 -23,37 -54,84 -92,143l175 0 0 24 -395 0z"/>
  <path class="fil24" d="M3141 554c-16,26 -34,39 -57,39 -20,0 -37,-7 -49,-20 -12,-13 -18,-31 -18,-53 0,-16 3,-31 10,-45 6,-15 14,-28 25,-39 10,-11 22,-19 34,-25 13,-5 25,-8 37,-8 27,0 42,12 45,36l9 -31 47 0 -36 131c-1,7 -2,13 -2,19 0,13 4,20 13,20 4,0 10,-3 17,-7 8,-5 15,-10 21,-17 24,-25 36,-57 36,-97 0,-15 -2,-29 -5,-43 -4,-13 -9,-24 -17,-33 -11,-16 -27,-28 -47,-38 -20,-9 -42,-14 -65,-14 -20,0 -39,4 -57,10 -19,7 -36,17 -50,30 -20,17 -35,37 -45,61 -10,25 -16,52 -16,81 0,24 4,45 11,63 8,18 18,34 31,47 13,12 29,22 47,28 19,7 39,10 62,10 22,0 43,-3 63,-10 20,-7 42,-18 66,-33l9 14c-41,32 -86,47 -138,47 -26,0 -51,-3 -75,-10 -23,-8 -43,-18 -60,-33 -18,-14 -31,-32 -41,-53 -11,-22 -16,-47 -16,-75 0,-52 18,-96 53,-133 19,-20 42,-35 68,-46 26,-11 54,-16 83,-16 22,0 42,3 61,10 19,6 36,16 50,28 14,13 25,28 33,46 8,18 12,39 12,62 0,22 -3,42 -9,59 -7,17 -17,33 -31,48 -18,19 -39,29 -63,29 -13,0 -24,-4 -33,-12 -9,-8 -13,-18 -13,-27zm-5 -132c-13,0 -26,10 -36,29 -5,8 -9,16 -12,24 -4,8 -7,17 -9,25 -2,8 -4,16 -6,24 -1,8 -2,14 -2,21 0,19 8,29 23,29 7,0 15,-5 22,-15 7,-10 14,-22 19,-36 6,-13 11,-28 14,-43 3,-15 5,-27 5,-37 0,-14 -6,-21 -18,-21z"/>
  <circle class="fil25" cx="4387" cy="776" r="618"/>
  <path class="fil24" d="M4045 843l15 18c-24,31 -36,62 -36,94 0,27 5,50 15,71 10,20 22,36 36,50 15,13 30,23 47,30 16,7 31,10 44,10 4,0 8,0 14,0 5,-1 9,-1 11,-2l0 -380c-6,-1 -11,-2 -15,-2 -7,0 -12,1 -18,3 -5,3 -11,7 -16,14l-10 -23 153 -102 -213 0 0 -24 255 0 0 23 -134 89c27,0 52,4 75,12 24,8 45,21 62,38 18,17 32,38 42,64 11,25 16,55 16,89 0,35 -6,66 -17,93 -11,28 -26,52 -45,71 -19,20 -41,35 -65,45 -25,11 -51,16 -78,16 -23,0 -46,-4 -67,-12 -22,-9 -41,-21 -58,-37 -17,-16 -31,-35 -41,-58 -10,-23 -15,-49 -15,-78 0,-17 3,-35 10,-54 6,-19 17,-38 33,-58z"/>
  <path class="fil24" d="M4617 465l-62 0 -22 59 63 0 21 -59zm-89 -37l25 -71 40 0 -25 71 61 0 25 -71 40 0 -26 71 51 0 -14 38 -49 0 -21 57 51 0 -14 37 -50 0 -25 71 -41 0 26 -71 -60 0 -26 71 -40 0 26 -71 -51 0 14 -37 50 0 20 -57 -50 0 13 -38 50 0z"/>
  <circle class="fil25" cx="5840" cy="776" r="618"/>
  <path class="fil24" d="M5473 1015l132 0 0 -174 -132 174zm319 109l-187 0 0 -85 -156 0 -6 -24 346 -455 3 0 0 455 72 0 0 24 -72 0 0 85z"/>
  <path class="fil24" d="M5953 730l10 -34c-9,-6 -18,-13 -26,-22 -9,-8 -18,-18 -27,-29l12 -17c16,23 32,39 46,49l30 -103 -23 -33c-22,-33 -37,-60 -46,-82 -9,-22 -13,-43 -13,-64 0,-22 3,-41 11,-57 8,-15 17,-28 29,-39 12,-10 26,-18 41,-23 16,-5 31,-7 47,-7 6,0 13,0 20,1 6,2 13,3 19,5l7 -25 17 8 -6 23c19,9 35,22 48,39l-11 16c-13,-18 -27,-31 -42,-39l-27 93 51 72c33,46 49,89 49,128 0,22 -4,41 -12,57 -8,16 -18,29 -30,39 -13,10 -27,18 -43,22 -16,5 -32,7 -48,7 -22,0 -41,-3 -57,-10l-10 34 -16 -9zm69 -121l-11 -16 -27 93c13,7 26,10 39,10 17,0 26,-9 26,-28 0,-7 -2,-15 -6,-24 -4,-9 -11,-21 -21,-35zm8 -296c0,6 2,14 6,24 4,9 10,20 19,33l23 -79c-7,-2 -13,-3 -19,-3 -9,0 -16,2 -21,6 -5,5 -8,11 -8,19z"/>
  <circle class="fil25" cx="7293" cy="776" r="618"/>
  <path class="fil24" d="M7079 1110l0 -378c-13,-3 -23,-5 -29,-5 -17,0 -33,3 -46,9 -14,6 -28,17 -42,33l-17 -14 44 -159 239 0 0 24 -221 0 -30 105c24,-14 52,-22 84,-22 28,0 55,4 81,12 26,8 48,21 68,38 20,17 36,38 48,64 12,27 18,58 18,94 0,35 -6,66 -17,94 -11,28 -26,51 -45,71 -19,19 -41,34 -65,45 -25,10 -51,16 -78,16 -24,0 -46,-5 -68,-13 -21,-8 -40,-20 -57,-36 -17,-16 -31,-36 -41,-58 -10,-23 -15,-49 -15,-78 0,-18 3,-36 10,-55 6,-19 17,-38 33,-58l15 18c-24,31 -36,63 -36,95 0,27 4,50 14,70 10,20 23,37 37,50 15,14 30,24 47,30 16,7 31,11 44,11 3,0 8,-1 13,-1 6,0 10,-1 12,-2z"/>
  <path class="fil24" d="M7650 575c0,-27 -5,-48 -17,-64 -11,-17 -25,-25 -43,-25l0 178c18,0 32,-9 43,-25 12,-16 17,-37 17,-64zm-135 0c0,-14 2,-27 5,-40 3,-12 8,-23 15,-33 6,-9 14,-16 23,-22 9,-6 20,-8 31,-8 12,0 23,2 32,8 9,5 17,13 23,22 7,10 12,21 15,33 3,13 5,26 5,40 0,30 -7,55 -21,74 -13,20 -31,29 -54,29 -11,0 -21,-2 -30,-7 -9,-5 -17,-13 -23,-22 -7,-9 -12,-20 -15,-32 -4,-13 -6,-27 -6,-42zm71 -266l-150 378c-2,4 -5,6 -9,6 -4,0 -6,-3 -6,-9 0,-1 0,-2 1,-4l150 -379c1,-4 4,-5 9,-5 3,0 5,2 5,8 0,3 0,4 0,5zm-169 16l0 178c18,0 33,-8 44,-24 11,-16 17,-38 17,-65 0,-27 -6,-49 -17,-65 -11,-16 -26,-24 -44,-24zm-74 89c0,-15 2,-29 6,-42 3,-13 8,-23 15,-33 6,-9 14,-16 23,-21 9,-5 19,-8 30,-8 12,0 23,3 32,9 9,5 17,13 23,22 7,9 12,20 15,33 3,13 5,26 5,40 0,30 -7,55 -21,74 -13,20 -31,29 -54,29 -11,0 -21,-2 -30,-7 -9,-5 -17,-12 -23,-22 -7,-9 -12,-20 -15,-32 -4,-13 -6,-27 -6,-42z"/>
  <circle class="fil25" cx="8746" cy="776" r="618"/>
  <path class="fil24" d="M8534 611l0 198c10,-9 23,-17 39,-25 16,-8 32,-12 49,-12 34,0 62,14 84,43 22,28 32,66 32,113 0,33 -5,63 -15,90 -10,26 -24,48 -41,66 -18,18 -38,32 -61,41 -24,10 -48,15 -75,15 -32,0 -60,-7 -85,-21 -24,-15 -45,-34 -61,-59 -17,-25 -29,-54 -38,-88 -8,-33 -13,-69 -13,-108 0,-40 5,-78 15,-112 10,-34 24,-63 42,-88 18,-25 40,-44 67,-58 26,-14 56,-21 89,-21 31,0 57,6 77,20 20,14 40,34 59,60l-15 18c-10,-13 -19,-25 -27,-34 -8,-10 -17,-17 -26,-23 -9,-6 -19,-11 -30,-13 -11,-3 -24,-4 -38,-4 -5,0 -9,0 -14,0 -5,1 -10,2 -14,2zm0 232l0 271c4,1 9,2 12,2 22,0 43,-4 63,-12 20,-8 38,-20 54,-36 16,-15 28,-35 38,-58 9,-24 13,-51 13,-82 0,-40 -8,-72 -25,-96 -17,-24 -39,-36 -67,-36 -15,0 -30,4 -44,11 -15,7 -29,19 -44,36z"/>
  <polygon class="fil24" points="8807,587 8930,401 9007,401 9129,587 9092,587 8968,484 8844,587 "/>
  <circle class="fil25" cx="10200" cy="776" r="618"/>
  <path class="fil24" d="M10029 1125l-214 0c28,-87 59,-172 94,-257 34,-84 74,-166 120,-245l-247 0 0 -24 408 0c-33,85 -63,171 -91,259 -27,88 -51,176 -70,267z"/>
  <path class="fil24" d="M10404 343c3,13 7,27 13,41 6,14 14,32 25,53 21,-14 32,-30 32,-50 0,-14 -5,-25 -15,-33 -10,-8 -23,-12 -41,-12 -4,0 -7,0 -9,0 -2,0 -3,1 -5,1zm8 277c-11,-15 -22,-31 -31,-49 -10,-19 -20,-40 -31,-64 -29,19 -44,43 -44,71 0,10 1,19 4,27 3,8 7,15 12,21 5,6 10,11 17,14 7,4 14,5 21,5 10,0 19,-2 28,-6 8,-4 16,-10 24,-19zm162 34l-133 0c-5,-5 -9,-9 -12,-13 -4,-3 -7,-6 -9,-9 -18,19 -37,28 -59,28 -10,0 -19,-2 -28,-6 -8,-4 -15,-9 -22,-16 -6,-7 -11,-16 -14,-26 -4,-10 -5,-21 -5,-33 0,-34 17,-62 53,-85 -8,-18 -14,-33 -17,-45 -4,-13 -5,-24 -5,-34 0,-15 2,-28 8,-38 5,-11 13,-20 22,-28 9,-7 19,-12 30,-15 11,-4 22,-6 34,-6 21,0 38,6 52,17 13,11 19,25 19,42 0,11 -3,23 -10,34 -7,11 -17,20 -29,29 13,27 28,55 45,84 7,-12 13,-23 18,-33 5,-11 10,-21 13,-30l36 0 0 14 -27 0c-5,9 -10,19 -15,29 -5,11 -11,22 -18,33 11,19 22,37 35,55 12,18 24,35 38,52z"/>
  <circle class="fil25" cx="11653" cy="776" r="618"/>
  <path class="fil24" d="M11466 744l77 41c29,-20 43,-47 43,-79 0,-30 -11,-54 -34,-72 -22,-18 -53,-27 -92,-27 -28,0 -50,4 -66,12 -16,8 -24,19 -24,33 0,27 32,57 96,92zm-19 248c-29,-17 -53,-32 -73,-46 -20,-13 -35,-24 -45,-34 -33,20 -50,48 -50,83 0,38 14,67 40,89 27,22 63,33 109,33 29,0 53,-5 71,-14 17,-9 26,-21 26,-37 0,-4 -1,-9 -2,-13 -1,-4 -5,-9 -10,-14 -5,-5 -13,-12 -23,-20 -11,-7 -25,-16 -43,-27zm-133 -98c-32,-33 -48,-74 -48,-122 0,-32 5,-60 17,-83 11,-23 26,-42 45,-57 18,-16 40,-27 63,-34 24,-7 48,-11 72,-11 45,0 80,11 107,32 26,21 39,50 39,86 0,38 -16,69 -47,93 52,36 77,83 77,142 0,34 -6,64 -19,89 -13,25 -30,46 -50,63 -21,17 -45,29 -70,37 -26,8 -52,12 -78,12 -19,0 -38,-3 -58,-8 -19,-5 -37,-13 -54,-24 -16,-12 -29,-26 -39,-44 -10,-18 -16,-39 -16,-64 0,-46 20,-81 59,-107z"/>
  <path class="fil24" d="M11892 485c0,-5 -1,-11 -4,-18 -2,-7 -5,-14 -8,-22 -3,-8 -6,-15 -9,-22 -2,-7 -4,-12 -4,-16 0,-9 3,-15 8,-20 6,-5 13,-7 22,-7 9,0 16,3 22,8 6,6 8,12 8,19 0,4 -1,9 -3,16 -3,7 -6,14 -9,21 -3,8 -6,15 -8,23 -3,7 -4,13 -4,17 4,-3 9,-7 15,-14 6,-7 12,-14 18,-21 7,-7 13,-14 20,-19 6,-6 12,-9 17,-9 7,0 14,3 20,10 5,6 8,14 8,22 0,9 -3,15 -10,20 -8,4 -16,7 -27,9 -10,2 -20,4 -31,5 -10,2 -19,4 -25,7 7,3 16,5 27,6 11,1 21,2 31,4 10,1 18,4 25,9 7,4 10,11 10,22 0,9 -3,17 -8,24 -6,6 -13,9 -21,9 -5,0 -10,-3 -17,-9 -7,-5 -13,-12 -20,-19 -6,-8 -12,-15 -18,-22 -6,-8 -10,-12 -14,-14 0,4 2,10 4,17 3,8 6,15 9,22 3,8 5,15 8,22 2,6 3,12 3,16 0,8 -2,14 -8,19 -6,6 -13,8 -22,8 -19,0 -29,-9 -29,-27 0,-4 1,-9 4,-16 2,-7 5,-14 8,-22 3,-8 6,-16 8,-23 3,-7 4,-13 5,-16 -5,2 -9,6 -14,14 -5,7 -11,14 -16,22 -6,7 -12,14 -19,19 -7,6 -14,9 -23,9 -6,0 -13,-3 -18,-9 -6,-7 -9,-14 -9,-22 0,-11 3,-19 10,-24 6,-5 14,-8 24,-9 10,-2 20,-3 30,-4 11,0 21,-2 29,-6 -7,-3 -16,-5 -27,-5 -11,-1 -21,-3 -31,-4 -10,-2 -18,-5 -25,-10 -8,-4 -11,-11 -11,-21 0,-9 3,-17 9,-23 6,-7 13,-10 22,-10 5,0 10,3 17,9 6,5 12,12 19,19 6,8 12,15 18,22 5,7 10,12 14,14z"/>
  <circle class="fil25" cx="13106" cy="776" r="618"/>
  <path class="fil24" d="M12731 1052l15 -18c21,27 42,47 64,59 22,13 47,19 76,19 5,0 9,-1 14,-1 5,-1 10,-1 14,-2l0 -198c-10,9 -22,18 -38,25 -16,8 -32,12 -49,12 -35,0 -63,-14 -85,-42 -21,-29 -32,-66 -32,-113 0,-34 5,-64 15,-90 10,-27 24,-49 41,-67 18,-18 38,-32 62,-41 23,-10 48,-15 74,-15 32,0 61,7 85,22 24,14 45,34 61,59 17,25 29,54 38,87 8,34 13,70 13,108 0,41 -5,78 -15,112 -10,34 -24,64 -42,88 -18,25 -40,45 -66,59 -26,14 -56,21 -89,21 -32,0 -61,-7 -86,-20 -26,-13 -49,-34 -70,-64zm183 -175l0 -271c-4,-1 -8,-2 -12,-2 -21,0 -43,4 -63,12 -20,8 -38,20 -54,36 -16,16 -28,35 -38,59 -9,23 -13,50 -13,82 0,39 8,71 25,95 17,24 40,36 68,36 15,0 30,-3 44,-10 14,-7 28,-19 43,-37z"/>
  <path class="fil24" d="M13382 440l0 121c0,30 2,58 5,82 3,25 11,43 23,55 2,1 5,3 11,6 5,2 8,6 8,9 0,5 -3,8 -9,8 -18,0 -35,-5 -50,-17 -15,-11 -28,-26 -40,-46 -11,-20 -20,-43 -26,-71 -6,-28 -10,-59 -10,-93 0,-34 4,-65 10,-93 7,-28 16,-52 27,-72 11,-19 24,-35 40,-46 15,-10 31,-16 49,-16 6,0 9,3 9,8 0,2 -1,3 -3,5 -2,2 -5,4 -8,6 -2,2 -5,4 -7,6 -3,2 -4,3 -5,4 -10,15 -17,35 -20,60 -3,26 -4,54 -4,84z"/>
  <circle class="fil25" cx="14559" cy="776" r="618"/>
  <path class="fil24" d="M14345 606l-2 0 0 514 2 0c28,0 53,-7 74,-21 22,-14 40,-32 54,-56 14,-23 25,-50 32,-81 7,-32 11,-65 11,-100 0,-35 -4,-68 -11,-99 -7,-31 -18,-58 -32,-81 -14,-23 -32,-42 -54,-56 -21,-13 -46,-20 -74,-20zm-186 256c0,-84 19,-153 58,-206 34,-47 78,-70 133,-70 30,0 56,7 80,21 23,14 43,33 60,58 16,24 29,53 37,87 9,34 13,71 13,110 0,40 -4,77 -13,111 -8,34 -21,63 -37,88 -17,24 -37,44 -60,58 -24,14 -50,21 -80,21 -54,0 -98,-23 -133,-71 -39,-53 -58,-122 -58,-207z"/>
  <path class="fil24" d="M14806 440c0,-30 -2,-58 -4,-84 -3,-25 -10,-45 -20,-60 -1,-1 -3,-2 -5,-4 -3,-2 -5,-4 -8,-6 -3,-2 -5,-4 -7,-6 -2,-2 -3,-3 -3,-5 0,-2 1,-4 3,-5 1,-2 4,-3 6,-3 17,0 34,6 49,16 15,11 28,27 40,46 11,20 20,44 26,72 7,28 10,59 10,93 0,34 -3,65 -10,93 -6,28 -15,51 -26,71 -11,20 -24,35 -40,46 -15,12 -31,17 -49,17 -2,0 -5,-1 -6,-2 -2,-2 -3,-4 -3,-6 0,-3 3,-7 8,-9 6,-3 9,-5 11,-6 12,-12 20,-30 23,-55 3,-24 5,-52 5,-82l0 -121z"/>
  <circle class="fil25" cx="16012" cy="776" r="618"/>
  <polygon class="fil24" points="16026,944 15791,944 15791,782 16026,782 "/>
  <polygon class="fil24" points="16155,721 16155,628 16426,628 16426,721 "/>
  <circle class="fil25" cx="17465" cy="776" r="618"/>
  <path class="fil24" d="M17205 1014l0 -99 352 0 0 99 -352 0zm0 -171l0 -99 352 0 0 99 -352 0z"/>
  <polygon class="fil24" points="17717,449 17717,325 17792,325 17792,449 17913,449 17913,538 17792,538 17792,664 17717,664 17717,538 17597,538 17597,449 "/>
  <circle class="fil26" cx="758" cy="2201" r="618"/>
  <path class="fil24" d="M393 2172c0,-26 9,-47 25,-64 17,-17 39,-25 67,-25 27,0 49,8 66,25 17,16 25,38 25,64 0,26 -8,48 -24,64 -17,16 -39,24 -67,24 -28,0 -50,-8 -67,-24 -17,-16 -25,-38 -25,-64zm62 382c32,0 57,-7 74,-21 17,-15 29,-37 34,-68 -18,26 -44,40 -78,40 -28,0 -50,-8 -67,-25 -17,-16 -25,-37 -25,-64 0,-26 8,-48 25,-64 17,-16 39,-25 67,-25 31,0 56,11 75,33 19,22 29,51 29,85 0,39 -13,70 -37,93 -25,23 -58,35 -99,35l-19 0 0 -20c4,1 11,1 21,1z"/>
  <path class="fil24" d="M898 1871c0,-26 8,-47 25,-64 17,-17 39,-25 66,-25 28,0 50,8 67,25 17,16 25,38 25,64 0,26 -8,48 -25,64 -16,16 -38,24 -67,24 -27,0 -49,-8 -66,-24 -17,-16 -25,-38 -25,-64zm0 244c0,-26 8,-47 25,-64 17,-16 39,-25 66,-25 28,0 50,9 67,25 17,17 25,38 25,64 0,27 -8,48 -25,64 -16,17 -38,25 -67,25 -27,0 -49,-8 -66,-25 -17,-16 -25,-37 -25,-64z"/>
  <circle class="fil26" cx="2207" cy="2201" r="618"/>
  <circle class="fil26" cx="3656" cy="2201" r="618"/>
  <circle class="fil25" cx="5104" cy="2201" r="618"/>
  <circle class="fil26" cx="6553" cy="2201" r="618"/>
  <circle class="fil26" cx="8002" cy="2201" r="618"/>
  <circle class="fil26" cx="9451" cy="2201" r="618"/>
  <circle class="fil26" cx="10900" cy="2201" r="618"/>
  <circle class="fil25" cx="12349" cy="2201" r="618"/>
  <circle class="fil26" cx="13798" cy="2201" r="618"/>
  <circle class="fil27" cx="15247" cy="2201" r="618"/>
  <circle class="fil26" cx="16696" cy="2201" r="618"/>
  <circle class="fil26" cx="18145" cy="2201" r="618"/>
  <circle class="fil25" cx="19594" cy="2201" r="618"/>
  <path class="fil24" d="M19585 2245l-24 0 0 -345c-13,2 -26,5 -39,9 -13,5 -25,11 -37,20 -11,8 -20,19 -28,32 -7,12 -11,28 -11,45 0,14 1,26 3,35 1,9 5,19 10,29l-18 18c-7,-13 -12,-27 -16,-39 -3,-13 -5,-27 -5,-43 0,-18 4,-35 13,-51 9,-16 21,-30 36,-42 15,-12 33,-21 53,-28 20,-7 42,-11 66,-11 53,0 95,16 127,46 31,31 47,72 47,122 0,50 -16,89 -48,119 -31,29 -75,44 -131,44l2 0 0 40zm-116 144c0,-28 10,-52 28,-70 18,-18 43,-27 73,-27 31,0 55,9 73,27 19,18 28,42 28,70 0,29 -9,53 -28,71 -18,18 -42,27 -73,27 -31,0 -55,-9 -73,-27 -19,-18 -28,-41 -28,-71z"/>
  <circle class="fil25" cx="2925" cy="3609" r="618"/>
  <circle class="fil25" cx="4380" cy="3609" r="618"/>
  <circle class="fil25" cx="5834" cy="3609" r="618"/>
  <circle class="fil25" cx="7288" cy="3609" r="618"/>
  <circle class="fil27" cx="8742" cy="3609" r="618"/>
  <circle class="fil25" cx="10196" cy="3609" r="618"/>
  <circle class="fil27" cx="11650" cy="3609" r="618"/>
  <circle class="fil25" cx="13105" cy="3609" r="618"/>
  <circle class="fil25" cx="14559" cy="3609" r="618"/>
  <circle class="fil25" cx="16013" cy="3609" r="618"/>
  <circle class="fil25" cx="17467" cy="3609" r="618"/>
  <circle class="fil26" cx="3635" cy="5032" r="618"/>
  <circle class="fil26" cx="5091" cy="5032" r="618"/>
  <circle class="fil26" cx="6547" cy="5032" r="618"/>
  <circle class="fil26" cx="8004" cy="5032" r="618"/>
  <circle class="fil27" cx="9460" cy="5032" r="618"/>
  <circle class="fil26" cx="10917" cy="5032" r="618"/>
  <circle class="fil26" cx="12373" cy="5032" r="618"/>
  <circle class="fil26" cx="13830" cy="5032" r="618"/>
  <circle class="fil27" cx="15286" cy="5032" r="618"/>
  <circle class="fil26" cx="16743" cy="5032" r="618"/>
  <path class="fil24" d="M14428 6430c0,-34 11,-62 32,-83 22,-22 51,-33 86,-33 36,0 65,11 87,33 21,21 32,49 32,83 0,34 -11,62 -32,83 -22,21 -51,32 -87,32 -36,0 -65,-11 -86,-32 -22,-21 -32,-49 -32,-83z"/>
  <path class="fil24" d="M15971 6599c41,0 73,-9 96,-27 23,-19 37,-48 44,-89 -24,35 -58,52 -103,52 -35,0 -64,-10 -86,-31 -21,-22 -32,-49 -32,-84 0,-34 11,-62 33,-83 22,-22 50,-32 85,-32 41,0 73,14 98,43 25,28 38,65 38,110 0,50 -16,90 -48,121 -32,30 -75,45 -129,45l-24 0 -1 -25c6,0 15,0 29,0z"/>
  <path class="fil28" d="M4531 6447l92 0c16,0 30,-6 42,-19 12,-13 18,-29 18,-48l0 -67c0,-18 -5,-34 -17,-48 -12,-13 -27,-19 -43,-19l-92 0 0 201zm88 34l93 176c1,2 2,5 2,9 0,4 -2,7 -5,11 -3,3 -7,5 -11,5 -2,0 -5,-1 -7,-2 -2,-1 -4,-3 -5,-6l-102 -193 -53 0 0 184c0,6 -1,10 -4,13 -3,3 -6,4 -11,4 -2,0 -5,-1 -11,-4 -3,-3 -4,-7 -4,-13l0 -436c0,-11 5,-17 15,-17l107 0c24,0 46,10 64,29 18,20 27,44 27,72l0 67c0,28 -9,51 -27,71 -18,20 -39,30 -64,30l-4 0z"/>
  <path id="1" class="fil28" d="M4958 6665c0,11 -6,17 -16,17l-106 0c-17,0 -32,-7 -43,-20 -12,-13 -18,-28 -18,-47l0 -252c0,-3 1,-7 4,-11 4,-3 7,-5 11,-5 4,0 7,1 11,4 3,3 4,7 4,12l0 252c0,9 3,17 9,23 6,7 13,10 22,10l91 0 0 -285c0,-3 2,-7 5,-11 3,-3 6,-5 10,-5 4,0 7,1 11,4 3,3 5,7 5,12l0 302z"/>
  <path id="2" class="fil28" d="M5201 6531l-183 0c-4,0 -8,-2 -11,-5 -3,-4 -4,-8 -4,-12 0,-3 1,-6 4,-10 2,-5 6,-7 11,-7l183 0c4,0 7,2 10,5 4,4 5,8 5,12 0,4 -1,8 -4,11 -2,4 -6,6 -11,6z"/>
  <path id="3" class="fil28" d="M5293 6448l0 200 136 0c4,0 8,2 11,6 3,3 5,7 5,11 0,4 -2,8 -4,11 -3,4 -7,6 -12,6l-152 0c-10,0 -15,-6 -15,-17l0 -436c0,-11 5,-17 15,-17l152 0c4,0 8,2 11,5 3,4 5,8 5,12 0,4 -2,8 -4,11 -3,4 -7,6 -12,6l-136 0 0 168 75 0c4,0 7,2 11,5 3,4 5,8 5,12 0,4 -2,8 -4,11 -3,4 -7,6 -12,6l-75 0z"/>
  <path id="4" class="fil28" d="M5688 6665c0,5 -1,10 -4,13 -3,2 -7,4 -11,4 -2,0 -5,-2 -11,-4 -3,-3 -4,-7 -4,-13l0 -251c0,-10 -3,-18 -9,-24 -6,-7 -13,-10 -22,-10l-91 0 0 285c0,5 -1,10 -4,13 -3,2 -7,4 -11,4 -2,0 -6,-2 -11,-4 -3,-3 -4,-7 -4,-13l0 -302c0,-11 5,-16 15,-16l106 0c17,0 32,6 44,19 11,13 17,29 17,48l0 251z"/>
  <circle class="fil29" cx="1100" cy="3336" r="151"/>
  <circle class="fil30" cx="4137" cy="6447" r="151"/>
  <circle class="fil29" cx="6052" cy="6447" r="151"/>
  <path class="fil28" d="M396 3907l-62 0c-20,0 -38,-7 -53,-22 -15,-15 -23,-32 -23,-53l0 -201c0,-21 7,-38 22,-53 14,-15 32,-23 54,-23l62 0c3,0 6,2 9,4 2,3 4,6 4,9 0,3 -2,6 -4,8 -2,3 -5,4 -9,4l-62 0c-14,0 -26,5 -36,15 -10,10 -15,21 -15,36l0 201c0,13 5,25 15,35 10,10 22,15 36,15l62 0c3,0 6,1 9,4 2,3 4,5 4,8 0,3 -2,6 -4,9 -2,3 -5,4 -9,4z"/>
  <path id="1" class="fil28" d="M581 3857l0 -176 -75 0c-7,0 -13,3 -18,8 -5,4 -7,10 -7,17l0 151c0,7 2,13 7,18 5,4 11,7 18,7l50 0c7,0 13,-3 18,-7 5,-5 7,-11 7,-18zm43 26c6,2 9,6 9,12 0,3 -2,6 -4,9 -2,2 -5,4 -8,4l-5 -1c-4,-1 -8,-3 -12,-7 -1,-1 -5,-4 -10,-10 -10,11 -23,17 -38,17l-50 0c-14,0 -26,-5 -36,-15 -9,-9 -14,-21 -14,-35l0 -151c0,-12 5,-24 14,-34 10,-11 22,-16 36,-16l88 0c8,0 13,4 13,13l0 188c0,5 1,10 4,15 3,4 7,8 13,11z"/>
  <path id="2" class="fil28" d="M685 3882l75 0c7,0 13,-3 18,-8 5,-5 7,-11 7,-17l0 -151c0,-7 -2,-13 -7,-17 -5,-5 -11,-8 -18,-8l-75 0 0 201zm0 25l0 88c0,3 -1,6 -4,9 -3,2 -6,4 -9,4 -3,0 -5,-1 -8,-4 -3,-2 -4,-5 -4,-9l0 -326c0,-9 4,-13 12,-13l89 0c13,0 25,5 35,14 10,10 15,22 15,36l0 151c0,14 -5,25 -15,35 -10,10 -21,15 -35,15l-76 0z"/>
  <path id="3" class="fil28" d="M1011 3686l3 4 0 4c0,3 -2,6 -4,9 -3,2 -6,3 -9,3l-6 0c0,-1 -1,-1 -1,-1 -1,-1 -2,-2 -3,-4 -5,-6 -11,-11 -18,-14l-11 -4c-4,-1 -8,-2 -12,-2l-34 0c-9,0 -16,3 -21,9 -6,6 -8,12 -8,20 0,9 3,16 10,22l97 79c7,5 11,12 14,19 4,7 6,15 6,23 0,14 -5,27 -15,37 -10,11 -24,17 -39,17l-35 0c-12,0 -24,-2 -34,-7 -10,-5 -19,-13 -27,-23l-2 -4 -1 -4c0,-2 2,-4 4,-8 3,-3 6,-4 9,-4 2,0 4,0 6,1 1,0 3,2 4,4 3,4 9,9 18,15 7,3 15,5 23,5l34 0c9,0 16,-3 21,-9 6,-6 8,-13 8,-20 0,-7 -3,-15 -10,-22l-97 -79c-6,-6 -11,-12 -15,-19l-3 -13c-1,-3 -2,-7 -2,-10 0,-14 5,-27 15,-37 10,-11 24,-17 40,-17l34 0c13,0 24,3 35,8 10,5 19,12 26,22z"/>
  <path id="4" class="fil28" d="M1325 3907l-100 0c-8,0 -13,-4 -13,-13l0 -326c0,-3 2,-6 4,-9 3,-3 6,-4 9,-4 3,0 6,1 9,3 2,3 4,6 4,10l0 314 87 0c3,0 6,1 9,4 3,3 4,5 4,8 0,3 -1,6 -3,9 -3,3 -6,4 -10,4z"/>
  <path id="5" class="fil28" d="M1539 3857c0,14 -5,26 -15,35 -9,10 -21,15 -35,15l-51 0c-14,0 -25,-5 -35,-15 -10,-9 -15,-21 -15,-35l0 -151c0,-12 5,-24 15,-34 9,-11 21,-16 35,-16l51 0c14,0 25,5 35,14 10,10 15,22 15,36l0 151zm-25 0l0 -151c0,-7 -3,-13 -8,-17 -4,-5 -10,-8 -17,-8l-50 0c-7,0 -13,3 -18,8 -5,4 -8,10 -8,17l0 151c0,7 3,13 8,18 5,4 11,7 18,7l50 0c7,0 13,-3 17,-7 5,-5 8,-11 8,-18z"/>
  <path id="6" class="fil28" d="M1727 3907l-88 0c-14,0 -26,-5 -35,-15 -10,-9 -15,-21 -15,-35l0 -151c0,-12 5,-24 15,-34 9,-11 21,-16 35,-16l88 0c3,0 6,1 9,4 2,3 4,6 4,9 0,3 -1,6 -3,8 -3,3 -6,4 -10,4l-87 0c-8,0 -14,3 -18,8 -5,4 -8,10 -8,17l0 151c0,7 3,13 8,18 4,4 10,7 18,7l87 0c3,0 6,1 9,4 2,3 4,5 4,8 0,3 -1,6 -3,9 -3,3 -6,4 -10,4z"/>
  <path id="7" class="fil28" d="M1860 3763l79 125 2 7c0,3 -2,6 -4,9 -3,2 -6,3 -9,3 -2,0 -4,0 -6,-1 -1,-1 -3,-2 -4,-5l-75 -119 -28 31 0 82c0,4 -1,7 -3,9 -3,2 -6,3 -9,3 -2,0 -5,-1 -9,-3 -3,-2 -4,-5 -4,-9l0 -327c0,-3 1,-6 4,-9 2,-3 5,-4 9,-4 3,0 6,1 8,3 3,3 4,6 4,10l0 207 104 -115c3,-3 6,-5 9,-5 4,0 6,2 9,4 3,3 4,6 4,9 0,4 -1,6 -3,9l-78 86z"/>
  <path class="fil24" d="M2181 2459l-209 0 0 -579 209 0 0 516 224 -516 27 0 0 579 -27 0 0 -516 -224 516zm227 -739l20 0c-7,31 -20,58 -39,81 -30,34 -65,51 -107,51 -21,0 -40,-5 -58,-14 -18,-8 -35,-21 -49,-37 -20,-24 -33,-51 -39,-81l138 0 0 113 3 0c30,0 58,-10 82,-30 25,-20 41,-48 49,-83z"/>
  <polygon class="fil24" points="3609,1903 3609,2454 3823,2454 3823,1903 3849,1903 3849,2454 3911,2454 3911,2569 3884,2569 3884,2481 3400,2481 3400,1903 "/>
  <polygon class="fil24" points="5045,2500 5103,2386 4836,1903 5084,1903 5216,2160 5344,1903 5373,1903 5074,2500 "/>
  <polygon class="fil24" points="6530,2471 6322,2471 6322,1893 6530,1893 6530,2129 6735,1893 6770,1893 6589,2102 6800,2471 6773,2471 6571,2121 6530,2168 "/>
  <polygon class="fil24" points="8222,2468 7794,2468 7794,1890 8195,1890 8195,1916 8003,1916 8003,2105 8199,2105 8199,2132 8003,2132 8003,2441 8222,2441 "/>
  <polygon class="fil24" points="9427,2468 9218,2468 9218,1890 9427,1890 9427,2105 9640,2105 9640,1890 9667,1890 9667,2105 9716,2105 9716,2132 9667,2132 9667,2468 9640,2468 9640,2132 9427,2132 "/>
  <polygon class="fil24" points="10922,2468 10713,2468 10713,1890 11104,1890 11104,1916 10922,1916 "/>
  <polygon class="fil24" points="12256,1890 12256,2441 12426,2441 12426,1890 12452,1890 12452,2441 12621,2441 12621,1890 12647,1890 12647,2468 12048,2468 12048,1890 "/>
  <polygon class="fil24" points="13680,1889 13680,2441 13849,2441 13849,1889 13876,1889 13876,2441 14045,2441 14045,1889 14072,1889 14072,2441 14133,2441 14133,2556 14106,2556 14106,2467 13471,2467 13471,1889 "/>
  <path class="fil24" d="M15240 2457l0 -319c-4,-2 -9,-3 -14,-4 -5,-1 -10,-2 -17,-2 -16,0 -31,1 -44,2 -14,1 -24,3 -32,5l0 -40c8,3 18,5 32,5 13,1 28,2 44,2 12,0 22,-2 31,-6l0 -202c-18,0 -34,1 -48,4 -14,3 -27,8 -40,14 -13,6 -25,14 -36,24 -12,10 -24,22 -37,36l-15 -21c24,-28 51,-49 79,-63 29,-14 64,-21 105,-21 38,0 69,4 92,12 24,8 42,19 55,31 12,12 21,26 25,41 4,14 6,29 6,43 0,12 -2,25 -5,37 -3,13 -9,25 -17,36 -8,11 -19,21 -32,29 -14,9 -32,14 -54,17l0 1c44,7 79,27 103,59 25,32 38,73 38,123 0,25 -4,48 -13,71 -8,22 -21,42 -40,59 -19,17 -43,30 -74,40 -30,10 -67,16 -111,16 -95,0 -163,-40 -206,-119l18 -18c22,39 47,67 74,84 28,17 64,26 109,26 12,0 21,-1 24,-2z"/>
  <polygon class="fil24" points="16719,2468 16602,2237 16451,2474 16420,2474 16589,2212 16425,1890 16665,1890 16771,2099 16905,1890 16936,1890 16786,2125 16968,2468 "/>
  <path class="fil24" d="M18179 2441l72 0c49,0 85,-14 108,-43 24,-29 36,-68 36,-117 0,-49 -14,-88 -41,-116 -27,-29 -61,-43 -103,-43 -26,0 -50,6 -72,16l0 303zm0 -551l0 222c12,-5 23,-9 36,-12 12,-3 24,-4 36,-4 54,0 95,17 125,50 30,34 45,79 45,135 0,61 -15,108 -45,140 -30,31 -72,47 -125,47l-280 0 0 -552 -104 0 0 -26 312 0z"/>
  <path class="fil24" d="M2823 3880l0 -74c-14,2 -26,2 -38,2 -29,0 -58,-4 -85,-13 -27,-9 -51,-23 -72,-41 -20,-18 -37,-41 -49,-70 -12,-28 -18,-61 -18,-100 0,-69 21,-123 62,-162 40,-39 98,-59 171,-59l29 0 0 -62 205 0 0 62 28 0c74,0 131,20 172,59 41,39 61,93 61,162 0,39 -6,72 -18,100 -12,29 -28,52 -49,70 -20,18 -44,32 -71,41 -27,9 -56,13 -86,13 -11,0 -23,0 -37,-2l0 74 -205 0zm0 -100l0 -391 -29 0c-66,0 -118,17 -153,50 -35,34 -53,83 -53,146 0,62 17,110 52,145 34,35 83,52 145,52 14,0 27,-1 38,-2zm205 -391l0 391c11,1 23,2 37,2 63,0 111,-17 146,-52 34,-35 52,-83 52,-145 0,-63 -18,-112 -53,-146 -36,-33 -87,-50 -154,-50l-28 0z"/>
  <path class="fil24" d="M4334 3853l72 0c48,0 84,-14 108,-43 23,-29 35,-68 35,-117 0,-50 -13,-88 -40,-116 -27,-29 -62,-43 -103,-43 -27,0 -51,6 -72,16l0 303zm0 -552l0 223c11,-5 23,-9 35,-12 12,-3 25,-4 37,-4 53,0 95,17 125,50 29,34 44,79 44,135 0,61 -15,108 -45,139 -30,32 -71,48 -124,48l-281 0 0 -579 209 0zm300 579l-27 0 0 -579 27 0 0 579z"/>
  <path class="fil24" d="M5817 3328l0 189 83 0c28,0 50,-8 67,-26 17,-17 25,-40 25,-70 0,-34 -8,-58 -26,-72 -18,-14 -50,-21 -96,-21l-53 0zm0 216l0 309 72 0c46,0 81,-13 106,-40 25,-27 37,-65 37,-114 0,-21 -3,-42 -9,-63 -7,-20 -16,-38 -30,-51 -26,-28 -61,-41 -104,-41l-72 0zm-208 336l0 -579 261 0c54,0 92,11 115,31 22,21 34,51 34,89 0,12 -2,23 -5,34 -3,12 -7,23 -13,32 -6,10 -13,19 -22,27 -9,8 -19,13 -31,16 35,7 61,26 81,58 20,31 30,68 30,111 0,58 -15,103 -45,134 -31,31 -72,47 -125,47l-280 0z"/>
  <path class="fil24" d="M7188 3588l-48 101 92 0 -44 -101zm-155 332l-33 0 95 -204 -51 0 0 -27 63 0 180 -388 4 0 285 619 -243 0 -89 -204 -116 0 -95 204z"/>
  <polygon class="fil24" points="8726,3880 8518,3880 8518,3301 8966,3301 8966,3880 8940,3880 8940,3328 8726,3328 "/>
  <path class="fil24" d="M10180 3328l0 303c21,11 45,16 72,16 41,0 76,-14 103,-42 27,-29 40,-67 40,-116 0,-49 -12,-88 -35,-118 -24,-29 -60,-43 -108,-43l-72 0zm0 552l-209 0 0 -579 281 0c53,0 94,16 124,48 30,32 45,78 45,140 0,56 -15,100 -44,134 -30,34 -72,50 -125,50 -12,0 -25,-1 -37,-4 -12,-3 -24,-7 -35,-12l0 223z"/>
  <path class="fil24" d="M11630 3330l0 557c2,1 6,2 10,2 4,0 7,0 11,0 51,0 98,-21 141,-63 26,-27 46,-59 59,-97 14,-38 21,-78 21,-120 0,-42 -7,-82 -21,-120 -14,-39 -34,-71 -59,-97 -41,-43 -89,-64 -141,-64 -5,0 -9,0 -13,0 -3,1 -6,1 -8,2zm268 279c0,84 -24,157 -72,218 -23,29 -50,51 -80,66 -30,15 -62,23 -96,23 -34,0 -66,-8 -96,-25 -30,-16 -56,-38 -79,-66 -22,-28 -40,-61 -53,-98 -13,-37 -19,-76 -19,-118 0,-42 6,-81 19,-119 13,-37 31,-70 53,-97 23,-28 49,-50 79,-67 30,-16 62,-25 96,-25 34,0 66,8 96,24 30,16 57,38 80,66 23,30 41,64 54,101 12,37 18,76 18,117z"/>
  <path class="fil24" d="M13133 3880l0 -552 -150 0 0 449c0,41 -8,70 -23,86 -15,16 -34,24 -55,24 -7,0 -15,-1 -22,-3 -8,-2 -13,-4 -15,-6l9 -26c4,2 9,4 14,6 6,2 11,2 16,2 15,0 27,-6 36,-18 9,-12 13,-32 13,-61l0 -480 386 0 0 579 -209 0z"/>
  <path class="fil24" d="M14562 3853l0 -525 -170 0 0 442c0,20 -2,36 -5,50 -4,13 -9,24 -15,33l190 0zm-250 115l-26 0 0 -115 30 0c15,0 27,-7 36,-20 9,-14 14,-35 14,-63l0 -469 404 0 0 552 62 0 0 115 -27 0 0 -88 -493 0 0 88z"/>
  <polygon class="fil24" points="15909,3880 15909,3577 15867,3530 15667,3880 15639,3880 15851,3511 15669,3301 15704,3301 15909,3538 15909,3301 16118,3301 16118,3538 16322,3301 16358,3301 16176,3511 16387,3880 16360,3880 16159,3530 16118,3577 16118,3880 "/>
  <path class="fil24" d="M17484 3330c-3,0 -7,-1 -12,-1 -6,-1 -10,-1 -13,-1 -38,0 -74,11 -109,32 -34,22 -65,55 -91,101l-19 -19c11,-22 25,-41 41,-59 17,-18 34,-32 53,-44 20,-12 40,-22 61,-28 21,-6 42,-10 63,-10 36,0 69,8 99,23 30,15 56,38 80,67 24,30 42,64 54,101 13,37 19,76 19,117 0,84 -24,156 -72,217 -48,60 -109,90 -181,90 -24,0 -48,-5 -71,-14 -23,-9 -45,-22 -66,-38 -20,-16 -39,-36 -55,-58 -17,-22 -30,-47 -41,-74l20 -16c11,24 24,47 38,68 15,21 32,40 51,55 18,16 39,28 61,37 21,9 44,13 68,13 9,0 16,-1 22,-2l0 -325 -137 0 0 -26 137 0 0 -206z"/>
  <path class="fil24" d="M3667 5321l0 -203c-8,-1 -20,-2 -34,-3 -14,0 -27,0 -38,0 -44,0 -76,7 -96,23 -19,15 -29,43 -29,84l0 99 -76 0 0 -27 49 0 0 -72c0,-13 1,-25 4,-38 2,-13 6,-25 11,-36 6,-11 13,-21 23,-29 10,-9 22,-15 38,-18l0 -2c-30,-13 -53,-34 -70,-63 -16,-29 -24,-65 -24,-106 0,-61 15,-108 45,-140 30,-31 72,-47 125,-47l280 0 0 578 -208 0zm0 -552l-72 0c-49,0 -86,15 -109,44 -23,29 -35,68 -35,117 0,18 3,37 7,56 5,18 12,35 23,51 11,15 26,27 44,37 19,9 42,14 70,14 12,0 25,0 39,-1 14,-1 25,-2 33,-2l0 -316z"/>
  <path class="fil24" d="M4866 4743l26 0 0 187c0,49 14,88 41,116 26,28 61,42 103,42 11,0 24,-1 36,-4 13,-3 25,-7 35,-12l0 -329 209 0 0 578 -209 0 0 -222c-11,4 -23,8 -36,11 -12,3 -24,5 -36,5 -53,0 -94,-17 -124,-51 -30,-33 -45,-78 -45,-134l0 -187z"/>
  <path class="fil24" d="M6531 4736l0 556c5,2 12,2 21,2 24,0 48,-4 69,-13 22,-9 43,-21 61,-37 19,-15 36,-34 51,-55 14,-21 27,-44 38,-68l20 16c-11,27 -24,52 -41,74 -16,23 -35,42 -55,58 -21,17 -43,29 -66,38 -23,9 -47,14 -71,14 -72,0 -133,-30 -181,-90 -24,-30 -42,-63 -54,-99 -13,-37 -19,-76 -19,-118 0,-41 6,-80 19,-117 13,-37 31,-71 54,-101 50,-59 110,-89 180,-89 21,0 42,3 63,9 21,7 41,16 61,28 19,12 36,27 53,44 16,18 30,38 41,59l-19 19c-26,-45 -57,-79 -91,-101 -35,-21 -71,-32 -109,-32 -3,0 -7,0 -13,1 -6,0 -10,1 -12,2z"/>
  <polygon class="fil24" points="7911,5278 7770,5032 7701,5321 7673,5321 7822,4714 8011,5046 8188,4714 8335,5321 8123,5321 8057,5011 "/>
  <polygon class="fil24" points="9439,5321 9230,5321 9230,4743 9439,4743 9439,5258 9664,4743 9690,4743 9690,5321 9664,5321 9664,4805 "/>
  <polygon class="fil24" points="11021,5321 10812,5321 10812,4769 10692,4769 10692,4743 11142,4743 11142,4769 11021,4769 "/>
  <path class="fil24" d="M12357 5294l72 0c48,0 84,-14 108,-43 23,-29 35,-68 35,-117 0,-49 -14,-88 -40,-116 -27,-28 -62,-43 -103,-43 -27,0 -51,6 -72,16l0 303zm0 -551l0 222c11,-5 23,-9 35,-12 12,-3 25,-4 37,-4 53,0 95,17 125,50 29,34 44,79 44,135 0,62 -15,108 -45,140 -30,31 -71,47 -124,47l-281 0 0 -578 209 0z"/>
  <path class="fil24" d="M13813 5294l72 0c49,0 85,-14 108,-43 24,-29 35,-68 35,-117 0,-49 -13,-88 -40,-116 -27,-28 -61,-43 -103,-43 -26,0 -50,6 -72,16l0 303zm0 -525l0 196c11,-5 23,-9 35,-12 13,-3 25,-4 37,-4 54,0 95,17 125,50 30,34 45,79 45,135 0,62 -15,108 -45,140 -31,31 -72,47 -125,47l-280 0 0 -578 414 0 0 26 -206 0z"/>
  <path class="fil24" d="M15324 4736l0 556c2,1 6,2 10,2 4,0 7,0 10,0 53,0 100,-21 142,-63 26,-26 45,-59 59,-96 14,-38 21,-79 21,-121 0,-42 -7,-82 -21,-120 -14,-39 -34,-71 -59,-97 -42,-43 -89,-64 -141,-64 -10,0 -17,1 -21,3zm-271 567l-27 0 0 -336 -46 0 0 -26 46 0 0 -216 27 0 0 216 51 0c7,-33 18,-64 33,-92 15,-29 33,-54 54,-75 21,-21 45,-37 71,-49 26,-12 54,-18 83,-18 33,0 64,8 94,23 30,16 57,38 81,66 23,30 41,64 54,101 12,37 18,76 18,117 0,41 -6,81 -18,118 -13,37 -31,71 -54,100 -24,29 -50,51 -81,66 -30,15 -61,23 -94,23 -35,0 -67,-8 -97,-25 -30,-16 -56,-38 -78,-66 -22,-28 -40,-60 -53,-97 -13,-38 -20,-77 -20,-119 0,-8 1,-16 1,-24 1,-8 1,-15 3,-23l-48 0 0 336z"/>
  <path class="fil24" d="M16749 4640c0,-18 5,-32 17,-44 11,-11 25,-17 42,-17 16,0 30,6 41,17 11,12 16,26 16,44 0,17 -5,31 -16,43 -11,11 -25,17 -41,17 -17,0 -31,-6 -43,-17 -11,-12 -16,-26 -16,-43zm-153 0c0,-18 5,-32 17,-44 11,-11 25,-17 42,-17 17,0 31,6 42,17 12,12 17,26 17,44 0,17 -5,31 -17,43 -11,11 -25,17 -42,17 -17,0 -31,-6 -42,-17 -12,-12 -17,-26 -17,-43zm360 681l-427 0 0 -578 400 0 0 26 -192 0 0 190 196 0 0 26 -196 0 0 309 219 0 0 27z"/>
  <path class="fil28" d="M862 6623l-62 0c-20,0 -37,-7 -53,-22 -15,-15 -23,-32 -23,-53l0 -202c0,-20 7,-37 22,-52 15,-15 32,-23 54,-23l62 0c3,0 6,1 9,4 2,3 4,6 4,9 0,3 -1,6 -3,8 -3,3 -6,4 -10,4l-62 0c-14,0 -26,5 -36,15 -10,9 -15,21 -15,36l0 200c0,14 5,26 15,36 10,10 22,15 36,15l62 0c3,0 6,1 9,4 2,2 4,5 4,8 0,3 -1,6 -3,9 -3,3 -6,4 -10,4z"/>
  <path id="1" class="fil28" d="M1000 6296l-62 0c-4,0 -7,-1 -10,-3 -2,-3 -3,-6 -3,-9 0,-2 1,-5 3,-8 2,-3 6,-5 10,-5l151 0c3,0 5,1 8,4 3,3 4,6 4,9 0,3 -1,6 -3,8 -2,3 -6,4 -10,4l-63 0 0 315c0,4 -1,7 -3,9 -2,2 -5,3 -9,3 -2,0 -5,-1 -9,-3 -2,-2 -4,-5 -4,-9l0 -315z"/>
  <path id="2" class="fil28" d="M1176 6448l0 150 113 0c3,0 6,1 9,4 3,2 4,5 4,8 0,3 -1,6 -3,9 -3,3 -6,4 -10,4l-125 0c-9,0 -13,-4 -13,-13l0 -326c0,-9 4,-13 13,-13l125 0c3,0 6,1 9,4 3,3 4,6 4,9 0,3 -1,6 -3,8 -3,3 -6,4 -10,4l-113 0 0 126 63 0c3,0 6,2 8,4 3,3 4,6 4,9 0,3 -1,6 -3,9 -2,2 -5,4 -9,4l-63 0z"/>
  <path id="3" class="fil28" d="M1377 6447l76 0c13,0 25,-5 35,-14 10,-10 15,-22 15,-36l0 -50c0,-14 -5,-26 -15,-36 -10,-10 -22,-15 -35,-15l-76 0 0 151zm0 25l0 139c0,4 -1,7 -3,9 -3,2 -6,3 -9,3 -2,0 -5,-1 -9,-3 -3,-2 -4,-5 -4,-9l0 -327c0,-9 4,-13 13,-13l88 0c20,0 38,7 53,22 15,15 22,33 22,54l0 50c0,21 -7,38 -22,53 -15,15 -33,22 -53,22l-76 0z"/>
  <path id="4" class="fil28" d="M1603 6448l0 150 113 0c3,0 6,1 9,4 3,2 4,5 4,8 0,3 -1,6 -3,9 -3,3 -6,4 -10,4l-125 0c-9,0 -13,-4 -13,-13l0 -326c0,-9 4,-13 13,-13l125 0c3,0 6,1 9,4 3,3 4,6 4,9 0,3 -1,6 -3,8 -3,3 -6,4 -10,4l-113 0 0 126 63 0c3,0 6,2 8,4 3,3 4,6 4,9 0,3 -1,6 -3,9 -2,2 -5,4 -9,4l-63 0z"/>
  <path id="5" class="fil28" d="M1854 6296l-62 0c-4,0 -7,-1 -10,-3 -2,-3 -3,-6 -3,-9 0,-2 1,-5 3,-8 2,-3 6,-5 10,-5l151 0c3,0 5,1 8,4 3,3 4,6 4,9 0,3 -1,6 -3,8 -2,3 -6,4 -10,4l-63 0 0 315c0,4 -1,7 -3,9 -3,2 -6,3 -9,3 -2,0 -5,-1 -9,-3 -3,-2 -4,-5 -4,-9l0 -315z"/>
  <path id="6" class="fil28" d="M2030 6448l0 150 76 0c13,0 25,-5 35,-15 10,-9 15,-21 15,-35l0 -51c0,-13 -5,-24 -15,-34 -11,-10 -22,-15 -35,-15l-76 0zm0 -26l76 0c20,0 38,8 53,22 8,7 13,15 17,24l4 14 1 8 0 7 0 51c0,20 -7,38 -22,53 -15,15 -33,22 -53,22l-88 0c-9,0 -13,-4 -13,-13l0 -326c0,-3 1,-6 4,-9 3,-3 5,-4 9,-4 3,0 6,1 8,3 3,2 4,6 4,10l0 138z"/>
  <path id="7" class="fil28" d="M2407 6422l63 0c13,0 25,-5 35,-14 10,-10 15,-22 15,-36l0 -25c0,-14 -5,-26 -15,-36 -9,-10 -21,-15 -35,-15l-63 0 0 126zm0 176l75 0c14,0 26,-5 36,-15 10,-9 15,-21 15,-35l0 -51c0,-13 -5,-24 -16,-34 -10,-10 -21,-15 -35,-15l-75 0 0 150zm-13 25c-8,0 -12,-4 -12,-13l0 -326c0,-9 4,-13 13,-13l75 0c21,0 38,7 53,22 8,7 13,15 17,24l4 14 1 8 0 8 0 25c0,12 -2,23 -7,32 -4,10 -11,18 -21,27 12,6 22,15 29,28 8,12 12,25 12,38l0 51c0,20 -8,37 -24,52 -15,15 -33,23 -52,23l-88 0z"/>
  <path id="8" class="fil28" d="M2746 6623l-62 0c-20,0 -38,-7 -53,-22 -15,-15 -23,-32 -23,-53l0 -202c0,-20 7,-37 22,-52 14,-15 32,-23 54,-23l62 0c3,0 6,1 9,4 2,3 4,6 4,9 0,3 -2,6 -4,8 -2,3 -5,4 -9,4l-62 0c-14,0 -26,5 -36,15 -10,9 -15,21 -15,36l0 200c0,14 5,26 15,36 10,10 22,15 36,15l62 0c3,0 6,1 9,4 2,2 4,5 4,8 0,3 -2,6 -4,9 -2,3 -5,4 -9,4z"/>
  <path id="9" class="fil28" d="M2834 6448l0 150 113 0c3,0 6,1 9,4 2,2 4,5 4,8 0,3 -1,6 -4,9 -2,3 -5,4 -9,4l-125 0c-9,0 -13,-4 -13,-13l0 -326c0,-9 4,-13 13,-13l125 0c3,0 6,1 9,4 2,3 4,6 4,9 0,3 -1,6 -4,8 -2,3 -5,4 -9,4l-113 0 0 126 63 0c3,0 6,2 8,4 3,3 4,6 4,9 0,3 -1,6 -3,9 -2,2 -5,4 -9,4l-63 0z"/>
  <path class="fil28" d="M17263 6412l62 0c14,0 26,-5 35,-15 10,-10 15,-22 15,-35l0 -26c0,-14 -5,-25 -14,-35 -10,-10 -22,-15 -36,-15l-62 0 0 126zm0 175l75 0c13,0 25,-4 35,-14 10,-9 15,-21 15,-36l0 -50c0,-13 -5,-24 -15,-35 -10,-10 -22,-15 -35,-15l-75 0 0 150zm-13 26c-8,0 -13,-5 -13,-13l0 -327c0,-8 5,-12 13,-12l75 0c21,0 39,7 54,22 7,7 13,15 16,24l4 14 1 8 0 7 0 26c0,12 -2,23 -6,32 -5,9 -12,18 -22,26 12,6 22,16 30,28 7,13 11,26 11,39l0 50c0,20 -8,38 -23,53 -16,15 -33,23 -52,23l-88 0z"/>
  <path id="1" class="fil28" d="M17665 6600c0,4 -2,7 -4,10 -2,2 -5,3 -9,3 -2,0 -5,-1 -9,-3 -2,-2 -4,-5 -4,-10l0 -327c0,-2 2,-5 4,-8 3,-3 6,-4 9,-4 3,0 6,1 9,3 2,2 4,5 4,9l0 327zm-176 -163l0 151 50 0c13,0 25,-5 35,-15 10,-9 15,-21 15,-36l0 -50c0,-13 -5,-24 -15,-35 -11,-10 -22,-15 -35,-15l-50 0zm0 -25l50 0c21,0 38,7 54,22 7,7 12,15 16,24l4 13 1 8 0 8 0 50c0,21 -7,39 -22,54 -15,14 -32,22 -53,22l-63 0c-8,0 -13,-4 -13,-13l0 -327c0,-2 2,-5 4,-8 3,-3 6,-4 9,-4 3,0 6,1 9,3 2,2 4,5 4,9l0 139z"/>
  <path id="2" class="fil28" d="M17903 6587c9,0 13,5 13,13l0 25c0,3 -2,6 -4,8 -3,3 -6,4 -9,4 -3,0 -6,-1 -8,-3 -3,-2 -4,-5 -4,-9l0 -12 -151 0 0 12c0,3 -2,6 -4,8 -3,3 -6,4 -9,4 -3,0 -6,-1 -8,-3 -3,-2 -4,-5 -4,-9l0 -25c0,-8 4,-13 12,-13l14 0 24 -315c0,-3 1,-6 3,-8l3 -2 6 -1 101 0c8,0 13,4 13,12l0 314 12 0zm-137 0l99 0 0 -301 -76 0 -23 301z"/>
  <path id="3" class="fil28" d="M17991 6437l0 150 113 0c3,0 6,2 8,5 3,2 4,5 4,8 0,3 -1,6 -3,9 -2,2 -5,4 -9,4l-126 0c-8,0 -12,-5 -12,-13l0 -327c0,-8 4,-12 12,-12l126 0c3,0 6,1 8,4 3,3 4,5 4,8 0,3 -1,6 -3,9 -2,3 -5,4 -9,4l-113 0 0 126 63 0c3,0 5,1 8,4 3,3 4,6 4,9 0,3 -1,6 -3,8 -2,3 -5,4 -9,4l-63 0z"/>
  <path id="4" class="fil28" d="M18367 6600c0,4 -1,7 -3,10 -3,2 -6,3 -9,3 -2,0 -5,-1 -9,-3 -3,-2 -4,-6 -4,-10l0 -314 -53 0 -98 318c-2,6 -6,9 -12,9 -3,0 -6,-1 -9,-4 -2,-2 -4,-5 -4,-9l1 -4 101 -326c2,-6 6,-9 12,-9l75 0c8,0 12,4 12,12l0 327z"/>
  <path id="5" class="fil28" d="M18594 6598c0,4 -1,7 -4,9 -2,2 -5,3 -9,3 -1,0 -4,-1 -9,-3 -2,-2 -3,-5 -3,-9l0 -270 -127 275c-3,6 -7,9 -13,9 -3,0 -5,-1 -8,-4 -2,-2 -3,-6 -3,-10l0 -327c0,-3 1,-5 4,-8 2,-3 5,-4 9,-4 2,0 5,1 8,3 3,2 4,5 4,9l0 270 127 -275c3,-6 7,-9 12,-9 3,0 5,1 8,4 3,2 4,6 4,10l0 327z"/>
  <path id="6" class="fil28" d="M18719 6286l-63 0c-3,0 -6,-1 -9,-3 -2,-3 -3,-6 -3,-10 0,-1 1,-4 3,-7 2,-3 5,-5 9,-5l151 0c3,0 6,1 9,4 2,3 4,5 4,8 0,3 -1,6 -3,9 -3,3 -6,4 -10,4l-63 0 0 314c0,4 -1,7 -3,10 -3,2 -6,3 -9,3 -2,0 -5,-1 -9,-3 -3,-2 -4,-5 -4,-10l0 -314z"/>
  <path id="7" class="fil28" d="M18895 6437l0 150 75 0c14,0 26,-4 36,-14 10,-9 15,-21 15,-36l0 -50c0,-13 -5,-24 -16,-35 -10,-10 -21,-15 -35,-15l-75 0zm0 -25l76 0c20,0 38,7 53,22 8,7 13,15 17,24l4 13 1 8 0 8 0 50c0,21 -7,39 -22,53 -15,15 -33,23 -54,23l-87 0c-9,0 -13,-5 -13,-13l0 -327c0,-2 1,-5 4,-8 2,-3 5,-4 9,-4 3,0 6,1 8,3 3,2 4,5 4,9l0 139z"/>
  <path id="8" class="fil28" d="M19272 6412l63 0c13,0 25,-5 35,-15 10,-10 15,-22 15,-35l0 -26c0,-14 -5,-25 -15,-35 -9,-10 -21,-15 -35,-15l-63 0 0 126zm0 175l75 0c14,0 25,-4 35,-14 11,-9 15,-21 15,-36l0 -50c0,-13 -5,-24 -15,-35 -10,-10 -22,-15 -35,-15l-75 0 0 150zm-13 26c-8,0 -12,-5 -12,-13l0 -327c0,-8 4,-12 12,-12l76 0c20,0 38,7 53,22 8,7 13,15 17,24l4 14 1 8 0 7 0 26c0,12 -2,23 -7,32 -4,9 -12,18 -21,26 12,6 21,16 29,28 8,13 12,26 12,39l0 50c0,20 -8,38 -24,53 -15,15 -33,23 -52,23l-88 0z"/>
  <path id="9" class="fil28" d="M19611 6613l-63 0c-19,0 -37,-8 -52,-22 -15,-15 -23,-33 -23,-54l0 -201c0,-20 7,-37 22,-52 14,-16 32,-23 53,-23l63 0c3,0 6,1 8,4 3,3 4,5 4,8 0,3 -1,6 -3,9 -2,3 -5,4 -9,4l-63 0c-13,0 -25,5 -35,14 -10,10 -15,22 -15,36l0 201c0,14 5,26 15,36 10,10 22,14 35,14l63 0c3,0 6,2 8,5 3,2 4,5 4,8 0,3 -1,6 -3,9 -2,2 -5,4 -9,4z"/>
  <path id="10" class="fil28" d="M19699 6437l0 150 113 0c3,0 6,2 8,5 3,2 4,5 4,8 0,3 -1,6 -3,9 -2,2 -5,4 -9,4l-126 0c-8,0 -12,-5 -12,-13l0 -327c0,-8 4,-12 12,-12l126 0c3,0 6,1 8,4 3,3 4,5 4,8 0,3 -1,6 -3,9 -2,3 -5,4 -9,4l-113 0 0 126 63 0c3,0 5,1 8,4 3,3 4,6 4,9 0,3 -1,6 -3,8 -2,3 -5,4 -9,4l-63 0z"/>
  <path class="fil31" d="M19059 3769c3,4 4,8 4,13 0,5 -2,10 -6,14 -5,4 -9,7 -15,7 -7,0 -12,-3 -16,-9l-110 -147c-3,-3 -4,-8 -4,-12 0,-5 1,-9 4,-13l110 -146c4,-6 9,-9 16,-9 5,0 10,2 14,7 5,4 7,9 7,14 0,5 -1,9 -4,13l-101 134 101 134zm500 -114l9 0c32,0 61,-12 86,-35 24,-24 36,-53 36,-88l0 -102c0,-5 -2,-9 -6,-14 -4,-4 -9,-6 -14,-6 -5,0 -10,2 -14,5 -4,4 -7,9 -7,15l0 102c0,23 -7,42 -23,58 -16,16 -35,24 -58,24l-328 0 0 0 -222 0c-6,0 -11,3 -15,7 -4,4 -5,9 -5,14 0,5 2,10 7,14 4,4 9,7 13,7l536 0c1,0 3,-1 5,-1zm-615 114c3,4 4,8 4,13 0,5 -2,10 -6,14 -5,4 -10,7 -15,7 -7,0 -12,-3 -16,-9l-110 -147c-3,-3 -4,-8 -4,-12 0,-5 1,-9 4,-13l110 -146c4,-6 9,-9 16,-9 5,0 10,2 14,7 5,4 7,9 7,14 0,5 -1,9 -4,13l-101 134 101 134z"/>
  <path class="fil31" d="M1356 4931c-3,3 -6,4 -10,4 -4,0 -7,-2 -11,-6 -3,-3 -5,-7 -5,-11 0,-6 2,-10 7,-13l117 -88c2,-2 6,-3 9,-3 4,0 7,1 10,3l116 88c5,3 7,7 7,13 0,4 -1,7 -5,11 -3,4 -7,6 -11,6 -4,0 -7,-1 -10,-4l-107 -80 -107 80zm124 393c0,5 -2,10 -5,13 -3,2 -7,4 -12,4 -2,0 -6,-2 -11,-4 -4,-3 -5,-7 -5,-13l0 -425c0,-4 1,-7 5,-11 3,-4 7,-6 11,-6 4,0 8,2 11,5 4,3 6,7 6,12l0 425zm-124 -484c-3,2 -6,3 -10,3 -4,0 -7,-1 -11,-5 -3,-4 -5,-7 -5,-12 0,-5 2,-9 7,-13l117 -87c2,-2 6,-3 9,-3 4,0 7,1 10,3l116 87c5,4 7,8 7,13 0,4 -1,8 -5,12 -3,3 -7,5 -11,5 -4,0 -7,-1 -10,-3l-107 -80 -107 80z"/>
  <path class="fil29" d="M18858 773l117 150c27,36 82,70 128,70l437 0c39,0 72,-32 72,-72l0 -291c0,-39 -32,-72 -72,-72l-437 0c-46,0 -102,32 -130,68l-115 147zm245 -241l441 0c54,0 98,45 98,98l0 291c0,54 -44,98 -98,98l-441 0c-54,0 -116,-37 -149,-80l-129 -166 127 -163c34,-42 97,-78 151,-78z"/>
  <polygon class="fil29" points="19177,874 19210,906 19314,802 19424,912 19445,890 19336,781 19441,676 19408,643 19303,748 19194,640 19173,661 19282,769 "/>
  <path class="fil31" d="M18795 4931c-3,3 -7,4 -10,4 -4,0 -8,-2 -11,-6 -4,-3 -6,-7 -6,-11 0,-6 3,-10 7,-13l117 -88c3,-2 6,-3 10,-3 3,0 6,1 9,3l117 88c4,3 7,7 7,13 0,4 -2,7 -5,11 -4,4 -8,6 -12,6 -4,0 -7,-1 -10,-4l-106 -80 -107 80zm123 393c0,5 -2,10 -5,13 -3,2 -7,4 -12,4 -2,0 -5,-2 -11,-4 -3,-3 -5,-7 -5,-13l0 -425c0,-4 2,-7 5,-11 3,-4 7,-6 11,-6 4,0 8,2 12,5 3,3 5,7 5,12l0 425zm-123 -484c-3,2 -7,3 -10,3 -4,0 -8,-1 -11,-5 -4,-4 -6,-7 -6,-12 0,-5 3,-9 7,-13l117 -87c3,-2 6,-3 10,-3 3,0 6,1 9,3l117 87c4,4 7,8 7,13 0,4 -2,8 -5,12 -4,3 -8,5 -12,5 -4,0 -7,-1 -10,-3l-106 -80 -107 80z"/>
  <path class="fil31" d="M10580 6765l9 0c33,0 61,-12 86,-35 24,-24 37,-53 37,-88l0 -102c0,-5 -3,-9 -7,-14 -4,-4 -9,-6 -14,-6 -5,0 -9,2 -14,5 -4,4 -6,9 -6,15l0 102c0,23 -8,42 -24,58 -16,16 -35,24 -58,24l-328 0 0 0 -163 0 0 0 -327 0c-23,0 -43,-8 -58,-24 -16,-16 -24,-35 -24,-58l0 -102c0,-6 -2,-11 -7,-15 -4,-3 -9,-5 -13,-5 -5,0 -10,2 -14,6 -5,5 -7,9 -7,14l0 102c0,35 12,64 37,88 24,23 53,35 86,35l9 0c1,1 3,1 5,1l254 0 1 0 280 0 255 0c2,0 3,0 5,-1z"/>
 </g>
</svg>
