<?xml version="1.0" encoding="UTF-8"?>
<!DOCTYPE svg PUBLIC "-//W3C//DTD SVG 1.1//EN" "http://www.w3.org/Graphics/SVG/1.1/DTD/svg11.dtd">
<!-- Creator: CorelDRAW X6 -->
<svg xmlns="http://www.w3.org/2000/svg" xml:space="preserve" width="197.52mm" height="70.1mm" version="1.1" style="shape-rendering:geometricPrecision; text-rendering:geometricPrecision; image-rendering:optimizeQuality; fill-rule:evenodd; clip-rule:evenodd"
viewBox="0 0 201855 71639"
 xmlns:xlink="http://www.w3.org/1999/xlink">
 <defs>
  <style type="text/css">
   <![CDATA[
    .fil0 {fill:none}
    .fil19 {fill:black}
    .fil25 {fill:#9996FF}
    .fil27 {fill:#999FFF}
    .fil26 {fill:#ED1E92}
    .fil24 {fill:#FEFEFE}
    .fil23 {fill:#FF0033}
    .fil22 {fill:white}
    .fil20 {fill:#6399F1;fill-rule:nonzero}
    .fil1 {fill:#77A4FF;fill-rule:nonzero}
    .fil21 {fill:#9996FF;fill-rule:nonzero}
    .fil13 {fill:url(#id0)}
    .fil17 {fill:url(#id1)}
    .fil18 {fill:url(#id2)}
    .fil15 {fill:url(#id3)}
    .fil16 {fill:url(#id4)}
    .fil14 {fill:url(#id5)}
    .fil11 {fill:url(#id6)}
    .fil12 {fill:url(#id7)}
    .fil8 {fill:url(#id8)}
    .fil9 {fill:url(#id9)}
    .fil4 {fill:url(#id10)}
    .fil6 {fill:url(#id11)}
    .fil2 {fill:url(#id12)}
    .fil5 {fill:url(#id13)}
    .fil3 {fill:url(#id14)}
    .fil7 {fill:url(#id15)}
    .fil10 {fill:url(#id16)}
   ]]>
  </style>
  <linearGradient id="id0" gradientUnits="userSpaceOnUse" x1="2089.68" y1="58144.2" x2="34563.9" y2="69746">
   <stop offset="0" style="stop-color:#6196ED"/>
   <stop offset="0.301961" style="stop-color:#273F6F"/>
   <stop offset="0.439216" style="stop-color:#537ABF"/>
   <stop offset="0.470588" style="stop-color:#B4C7F6"/>
   <stop offset="0.768627" style="stop-color:#5E7DC7"/>
   <stop offset="0.890196" style="stop-color:#9896FF"/>
   <stop offset="1" style="stop-color:#7DA1FF"/>
  </linearGradient>
  <linearGradient id="id1" gradientUnits="userSpaceOnUse" xlink:href="#id0" x1="167958" y1="58219.7" x2="199641" y2="69670.4">
  </linearGradient>
  <linearGradient id="id2" gradientUnits="userSpaceOnUse" xlink:href="#id0" x1="69699.4" y1="52864.3" x2="132226" y2="75025.9">
  </linearGradient>
  <linearGradient id="id3" gradientUnits="userSpaceOnUse" xlink:href="#id0" x1="174878" y1="45354.9" x2="200071" y2="54460.7">
  </linearGradient>
  <linearGradient id="id4" gradientUnits="userSpaceOnUse" xlink:href="#id0" x1="37698.6" y1="59176.6" x2="63424.8" y2="68713.6">
  </linearGradient>
  <linearGradient id="id5" gradientUnits="userSpaceOnUse" xlink:href="#id0" x1="1572.06" y1="45302.5" x2="27451.4" y2="54513.1">
  </linearGradient>
  <linearGradient id="id6" gradientUnits="userSpaceOnUse" xlink:href="#id0" x1="896.045" y1="32520.3" x2="20917.9" y2="39629.2">
  </linearGradient>
  <linearGradient id="id7" gradientUnits="objectBoundingBox" xlink:href="#id0" x1="0%" y1="21.5776%" x2="100.043%" y2="78.4224%">
  </linearGradient>
  <linearGradient id="id8" gradientUnits="userSpaceOnUse" xlink:href="#id0" x1="187009" y1="19183.4" x2="201671" y2="24482.9">
  </linearGradient>
  <linearGradient id="id9" gradientUnits="objectBoundingBox" xlink:href="#id0" x1="0%" y1="30.8504%" x2="102.982%" y2="69.1496%">
  </linearGradient>
  <linearGradient id="id10" gradientUnits="objectBoundingBox" xlink:href="#id0" x1="0%" y1="30.8504%" x2="102.982%" y2="69.1496%">
  </linearGradient>
  <linearGradient id="id11" gradientUnits="objectBoundingBox" xlink:href="#id0" x1="0%" y1="30.8504%" x2="102.982%" y2="69.1496%">
  </linearGradient>
  <linearGradient id="id12" gradientUnits="objectBoundingBox" xlink:href="#id0" x1="0%" y1="30.8512%" x2="102.982%" y2="69.1488%">
  </linearGradient>
  <linearGradient id="id13" gradientUnits="objectBoundingBox" xlink:href="#id0" x1="0%" y1="30.8512%" x2="102.982%" y2="69.1488%">
  </linearGradient>
  <linearGradient id="id14" gradientUnits="userSpaceOnUse" xlink:href="#id0" x1="7355.27" y1="5043.83" x2="22017.3" y2="10342.9">
  </linearGradient>
  <linearGradient id="id15" gradientUnits="userSpaceOnUse" xlink:href="#id0" x1="43297.4" y1="19183.4" x2="57959.4" y2="24482.6">
  </linearGradient>
  <linearGradient id="id16" gradientUnits="userSpaceOnUse" xlink:href="#id0" x1="628.09" y1="6394.95" x2="7539.84" y2="8901.28">
  </linearGradient>
 </defs>
 <g id="Layer_x0020_1">
  <metadata id="CorelCorpID_0Corel-Layer"/>
  <rect class="fil0" width="201855" height="71639" rx="2844" ry="2964"/>
  <rect class="fil0" x="511" y="511" width="200833" height="70617" rx="3066" ry="3066"/>
  <path class="fil1" d="M176913 1504l-86 0 0 -139 114 0 38 -185 -152 0 0 -139 180 0 50 -243 142 0 -50 243 135 0 48 -243 147 0 -50 243 85 0 0 139 -113 0 -38 185 151 0 0 139 -179 0 -49 244 -142 0 49 -244 -138 0 -50 244 -142 0 50 -244zm208 -324l-38 185 137 0 36 -185 -135 0z"/>
  <path id="1" class="fil1" d="M177980 1732l0 -919 298 0c113,0 186,4 220,14 53,14 97,43 133,90 35,46 53,106 53,179 0,56 -10,104 -31,142 -20,39 -46,69 -78,91 -31,22 -63,36 -96,43 -44,9 -108,14 -192,14l-121 0 0 346 -186 0zm186 -764l0 262 102 0c73,0 121,-5 146,-14 24,-10 44,-25 58,-46 13,-20 21,-44 21,-71 0,-34 -10,-62 -30,-83 -20,-22 -44,-36 -74,-41 -22,-5 -67,-7 -133,-7l-90 0z"/>
  <path id="2" class="fil1" d="M178966 1271l-159 -28c18,-65 49,-113 93,-144 44,-32 109,-47 196,-47 78,0 137,9 175,28 38,18 66,42 81,70 16,29 24,81 24,158l-3 206c0,58 3,101 9,129 5,28 16,58 31,89l-175 0c-4,-11 -10,-29 -16,-51 -3,-11 -5,-17 -7,-21 -30,30 -62,52 -96,67 -34,14 -71,22 -109,22 -69,0 -122,-19 -162,-56 -39,-37 -59,-84 -59,-141 0,-37 9,-71 27,-101 18,-29 43,-52 76,-67 32,-16 79,-30 140,-41 82,-16 139,-30 171,-43l0 -18c0,-35 -9,-59 -25,-74 -17,-14 -49,-21 -95,-21 -32,0 -56,6 -74,18 -18,13 -32,35 -43,66zm237 143c-23,7 -59,16 -108,27 -48,10 -81,20 -95,30 -23,17 -35,37 -35,62 0,25 9,46 28,64 18,18 41,27 70,27 31,0 62,-10 91,-31 21,-16 35,-35 42,-58 4,-15 7,-44 7,-86l0 -35z"/>
  <path id="3" class="fil1" d="M180130 1264l-174 30c-5,-34 -19,-60 -39,-77 -21,-18 -48,-27 -81,-27 -44,0 -79,16 -105,46 -26,30 -39,81 -39,152 0,80 13,135 40,168 26,33 62,49 106,49 34,0 61,-10 82,-29 22,-19 37,-51 45,-98l174 29c-18,80 -53,140 -104,181 -51,41 -119,61 -205,61 -97,0 -174,-31 -232,-92 -58,-62 -87,-147 -87,-256 0,-110 29,-196 87,-257 58,-62 137,-92 236,-92 80,0 145,17 193,52 48,35 82,88 103,160z"/>
  <path id="4" class="fil1" d="M180263 976l0 -163 176 0 0 163 -176 0zm0 756l0 -666 176 0 0 666 -176 0z"/>
  <path id="5" class="fil1" d="M180547 1066l97 0 0 -50c0,-56 6,-98 18,-126 12,-28 34,-50 67,-68 32,-17 73,-26 122,-26 50,0 99,8 148,23l-23 124c-28,-8 -56,-12 -82,-12 -27,0 -45,6 -56,18 -12,12 -18,35 -18,69l0 48 133 0 0 139 -133 0 0 527 -176 0 0 -527 -97 0 0 -139zm498 -90l0 -163 176 0 0 163 -176 0zm0 756l0 -666 176 0 0 666 -176 0z"/>
  <path id="6" class="fil1" d="M181341 1545l178 -27c7,34 22,60 45,77 23,18 56,27 97,27 45,0 80,-9 103,-25 15,-12 23,-28 23,-48 0,-13 -4,-24 -13,-33 -8,-8 -28,-16 -59,-23 -142,-32 -232,-60 -270,-86 -53,-36 -79,-86 -79,-150 0,-58 23,-107 68,-146 46,-40 117,-59 212,-59 91,0 159,15 203,44 45,30 75,75 92,133l-166 31c-7,-26 -20,-46 -40,-60 -20,-14 -49,-21 -86,-21 -46,0 -80,6 -100,19 -14,10 -20,21 -20,36 0,13 6,23 17,32 16,12 71,28 166,50 94,21 159,47 197,78 37,32 55,75 55,131 0,61 -25,114 -77,158 -50,44 -126,66 -226,66 -91,0 -163,-19 -216,-55 -53,-37 -87,-86 -104,-149z"/>
  <path id="7" class="fil1" d="M182423 1066l0 140 -121 0 0 270c0,54 1,86 3,95 3,9 8,17 16,23 8,6 18,9 30,9 16,0 40,-6 71,-17l15 137c-41,17 -87,26 -139,26 -32,0 -60,-5 -86,-16 -25,-11 -44,-25 -56,-42 -12,-17 -20,-40 -24,-69 -4,-20 -6,-62 -6,-125l0 -291 -81 0 0 -140 81 0 0 -132 176 -104 0 236 121 0z"/>
  <g id="_530222088">
   <circle class="fil2" cx="144189" cy="63945" r="6918"/>
   <circle class="fil2" cx="158864" cy="63945" r="6918"/>
   <circle class="fil3" cx="14686" cy="7693" r="6918"/>
   <circle class="fil4" cx="29099" cy="7693" r="6918"/>
   <circle class="fil2" cx="43512" cy="7693" r="6918"/>
   <circle class="fil4" cx="57925" cy="7693" r="6918"/>
   <circle class="fil2" cx="72338" cy="7693" r="6918"/>
   <circle class="fil4" cx="86752" cy="7693" r="6918"/>
   <circle class="fil2" cx="101165" cy="7693" r="6918"/>
   <circle class="fil2" cx="115578" cy="7693" r="6918"/>
   <circle class="fil2" cx="129991" cy="7693" r="6918"/>
   <circle class="fil5" cx="144404" cy="7693" r="6918"/>
   <circle class="fil2" cx="158817" cy="7693" r="6918"/>
   <circle class="fil6" cx="173230" cy="7693" r="6918"/>
   <circle class="fil4" cx="7515" cy="21833" r="6918"/>
   <circle class="fil4" cx="21886" cy="21833" r="6918"/>
   <circle class="fil4" cx="36257" cy="21833" r="6918"/>
   <circle class="fil7" cx="50628" cy="21833" r="6918"/>
   <circle class="fil4" cx="65000" cy="21833" r="6918"/>
   <circle class="fil4" cx="79371" cy="21833" r="6918"/>
   <circle class="fil4" cx="93742" cy="21833" r="6918"/>
   <circle class="fil2" cx="108113" cy="21833" r="6918"/>
   <circle class="fil2" cx="122484" cy="21833" r="6918"/>
   <circle class="fil6" cx="136855" cy="21833" r="6918"/>
   <circle class="fil2" cx="151227" cy="21833" r="6918"/>
   <circle class="fil5" cx="165598" cy="21833" r="6918"/>
   <circle class="fil2" cx="179969" cy="21833" r="6918"/>
   <circle class="fil8" cx="194340" cy="21833" r="6919"/>
   <circle class="fil4" cx="29015" cy="35792" r="6918"/>
   <circle class="fil6" cx="43438" cy="35792" r="6918"/>
   <circle class="fil4" cx="57862" cy="35792" r="6918"/>
   <circle class="fil2" cx="72285" cy="35792" r="6918"/>
   <circle class="fil9" cx="86708" cy="35792" r="6918"/>
   <circle class="fil2" cx="101132" cy="35792" r="6918"/>
   <circle class="fil2" cx="115555" cy="35792" r="6918"/>
   <circle class="fil2" cx="129978" cy="35792" r="6918"/>
   <circle class="fil2" cx="144402" cy="35792" r="6918"/>
   <circle class="fil2" cx="158825" cy="35792" r="6918"/>
   <circle class="fil2" cx="173249" cy="35792" r="6918"/>
   <circle class="fil9" cx="36049" cy="49908" r="6918"/>
   <circle class="fil4" cx="50495" cy="49908" r="6918"/>
   <circle class="fil4" cx="64941" cy="49908" r="6918"/>
   <circle class="fil4" cx="79387" cy="49908" r="6918"/>
   <circle class="fil4" cx="93832" cy="49908" r="6918"/>
   <circle class="fil2" cx="108278" cy="49908" r="6918"/>
   <circle class="fil2" cx="122724" cy="49908" r="6918"/>
   <circle class="fil6" cx="137169" cy="49908" r="6918"/>
   <circle class="fil2" cx="151615" cy="49908" r="6918"/>
   <circle class="fil5" cx="166061" cy="49908" r="6918"/>
  </g>
  <rect class="fil10" x="1453" y="1395" width="5263" height="12506" rx="2026" ry="2032"/>
  <path class="fil11" d="M4513 29822l12788 0c1985,0 3608,1595 3608,3545l0 5416c0,1950 -1623,3545 -3608,3545l-12788 0c-1985,0 -3608,-1595 -3608,-3545l0 -5416c0,-1950 1623,-3545 3608,-3545z"/>
  <path class="fil12" d="M184486 1441l12562 0c1950,0 3545,1595 3545,3544l0 5416c0,1950 -1595,3545 -3545,3545l-12562 0c-1950,0 -3545,-1595 -3545,-3545l0 -5416c0,-1949 1595,-3544 3545,-3544z"/>
  <path class="fil12" d="M184588 29515l12562 0c1950,0 3545,1595 3545,3545l0 5416c0,1950 -1595,3545 -3545,3545l-12562 0c-1950,0 -3545,-1595 -3545,-3545l0 -5416c0,-1950 1595,-3545 3545,-3545z"/>
  <path class="fil13" d="M4670 57692l27314 0c1973,0 3587,1595 3587,3545l0 5416c0,1950 -1614,3545 -3587,3545l-27314 0c-1973,0 -3587,-1595 -3587,-3545l0 -5416c0,-1950 1614,-3545 3587,-3545z"/>
  <path class="fil14" d="M4505 43655l20014 0c1980,0 3600,1595 3600,3545l0 5416c0,1950 -1620,3545 -3600,3545l-20014 0c-1980,0 -3600,-1595 -3600,-3545l0 -5416c0,-1950 1620,-3545 3600,-3545z"/>
  <path class="fil15" d="M177799 43655l19351 0c1950,0 3545,1595 3545,3545l0 5416c0,1950 -1595,3545 -3545,3545l-19351 0c-1950,0 -3545,-1595 -3545,-3545l0 -5416c0,-1950 1595,-3545 3545,-3545z"/>
  <path class="fil16" d="M40413 57692l20297 0c1901,0 3456,1595 3456,3545l0 5416c0,1950 -1555,3545 -3456,3545l-20297 0c-1901,0 -3456,-1595 -3456,-3545l0 -5416c0,-1950 1555,-3545 3456,-3545z"/>
  <path class="fil17" d="M170551 57692l26497 0c1950,0 3545,1595 3545,3545l0 5416c0,1950 -1595,3545 -3545,3545l-26497 0c-1950,0 -3545,-1595 -3545,-3545l0 -5416c0,-1950 1595,-3545 3545,-3545z"/>
  <path class="fil18" d="M69279 57692l63368 0c1988,0 3615,1595 3615,3545l0 5416c0,1950 -1627,3545 -3615,3545l-63368 0c-1988,0 -3615,-1595 -3615,-3545l0 -5416c0,-1950 1627,-3545 3615,-3545z"/>
  <rect class="fil19" x="2207" y="2179" width="3755" height="10939" rx="1461" ry="1541"/>
  <path class="fil19" d="M4738 30576l12338 0c1624,0 2953,1305 2953,2901l0 5196c0,1595 -1329,2901 -2953,2901l-12338 0c-1624,0 -2953,-1306 -2953,-2901l0 -5196c0,-1596 1329,-2901 2953,-2901z"/>
  <path class="fil19" d="M184799 2195l11936 0c1572,0 2857,1306 2857,2901l0 5195c0,1595 -1285,2901 -2857,2901l-11936 0c-1572,0 -2857,-1306 -2857,-2901l0 -5195c0,-1595 1285,-2901 2857,-2901z"/>
  <path class="fil19" d="M184802 30270l12134 0c1598,0 2905,1305 2905,2901l0 5194c0,1596 -1307,2901 -2905,2901l-12134 0c-1598,0 -2905,-1305 -2905,-2901l0 -5194c0,-1596 1307,-2901 2905,-2901z"/>
  <path class="fil19" d="M4934 58436l26671 0c1637,0 2976,1308 2976,2907l0 5204c0,1599 -1339,2907 -2976,2907l-26671 0c-1637,0 -2976,-1308 -2976,-2907l0 -5204c0,-1599 1339,-2907 2976,-2907z"/>
  <path class="fil19" d="M4783 44409l19458 0c1630,0 2964,1305 2964,2901l0 5196c0,1595 -1334,2901 -2964,2901l-19458 0c-1631,0 -2965,-1306 -2965,-2901l0 -5196c0,-1596 1334,-2901 2965,-2901z"/>
  <path class="fil19" d="M178116 44411l18718 0c1597,0 2904,1305 2904,2900l0 5193c0,1595 -1307,2900 -2904,2900l-18718 0c-1598,0 -2905,-1305 -2905,-2900l0 -5193c0,-1595 1307,-2900 2905,-2900z"/>
  <path class="fil19" d="M40785 58448l19745 0c1586,0 2883,1305 2883,2900l0 5194c0,1595 -1297,2900 -2883,2900l-19745 0c-1586,0 -2883,-1305 -2883,-2900l0 -5194c0,-1595 1297,-2900 2883,-2900z"/>
  <path class="fil19" d="M170878 58450l25843 0c1610,0 2927,1305 2927,2899l0 5192c0,1594 -1317,2899 -2927,2899l-25843 0c-1610,0 -2927,-1305 -2927,-2899l0 -5192c0,-1594 1317,-2899 2927,-2899z"/>
  <path class="fil19" d="M69686 58448l62566 0c1663,0 3024,1305 3024,2900l0 5194c0,1595 -1361,2900 -3024,2900l-62566 0c-1663,0 -3024,-1305 -3024,-2900l0 -5194c0,-1595 1361,-2900 3024,-2900z"/>
  <circle class="fil19" cx="144189" cy="63945" r="6132"/>
  <circle class="fil19" cx="158864" cy="63945" r="6132"/>
  <polygon class="fil20" points="4353,6953 4653,8343 3815,8343 3515,6953 "/>
  <circle class="fil19" cx="14686" cy="7693" r="6132"/>
  <path class="fil20" d="M12609 10888c0,92 -25,156 -75,193 -50,36 -123,55 -219,55l-398 0c-77,0 -139,-29 -185,-87 -46,-58 -69,-121 -69,-190l0 -1416c0,-58 12,-106 37,-145 25,-38 67,-78 124,-121l81 -57c39,-27 77,-56 115,-87 39,-38 58,-84 58,-137l0 -1169c0,-166 90,-248 271,-248 96,0 164,17 202,51 38,35 58,98 58,191l0 3167z"/>
  <path class="fil20" d="M16466 6092c0,72 -24,136 -71,192 -47,56 -109,84 -185,84l-382 0c-98,0 -170,-20 -216,-58 -45,-38 -69,-106 -69,-201l0 -2263c0,-164 89,-247 266,-247 100,0 169,19 207,58 39,38 58,103 58,195l0 1042c0,81 79,177 236,288 48,34 86,73 114,118 28,44 42,93 42,147l0 645zm0 922c0,81 -28,141 -83,181 -56,41 -128,61 -217,61l-351 0c-89,0 -160,-20 -214,-61 -54,-40 -81,-99 -81,-175l0 -168c0,-77 27,-137 81,-181 54,-45 125,-67 214,-67l351 0c89,0 161,22 217,67 55,44 83,104 83,181l0 162z"/>
  <circle class="fil19" cx="29099" cy="7693" r="6132"/>
  <path class="fil20" d="M28087 10893c0,93 -23,156 -69,191 -47,34 -112,52 -196,52l-2365 0c-93,0 -167,-36 -223,-107 -55,-71 -83,-155 -83,-251l0 -1235c0,-76 29,-138 86,-184 58,-46 137,-69 237,-69l1857 0c66,0 119,-23 162,-69 42,-46 63,-98 63,-155l0 -908c0,-118 -77,-178 -231,-178l-1482 0c-108,0 -162,60 -162,179l0 185c0,188 -88,282 -265,282 -177,0 -265,-92 -265,-276l0 -566c0,-104 20,-181 60,-231 41,-50 111,-74 211,-74l2371 0c196,0 294,98 294,293l0 1703c0,92 -33,163 -98,213 -66,50 -154,75 -266,75l-1390 0c-61,0 -116,19 -164,57 -48,39 -72,81 -72,127l0 473c0,54 20,103 60,147 41,45 90,67 147,67l1518 0c88,0 154,18 199,55 44,36 66,104 66,204z"/>
  <path class="fil20" d="M32241 5090c0,508 -48,846 -144,1015 -96,169 -289,254 -577,254 -158,0 -275,-17 -352,-52 -111,-50 -181,-144 -208,-283 -54,131 -133,220 -239,266 -106,46 -239,69 -401,69 -300,0 -502,-86 -606,-259 -77,-127 -115,-354 -115,-681 0,-419 68,-700 204,-842 112,-116 286,-173 524,-173 151,0 270,17 357,52 88,34 164,109 230,225l0 -260 462 0 0 1217c0,115 9,196 28,242 35,81 100,121 197,121 111,0 186,-56 225,-170 38,-113 57,-358 57,-735 0,-519 -68,-833 -205,-940 -136,-108 -520,-162 -1150,-162 -639,0 -1035,69 -1189,208 -153,138 -230,505 -230,1102 0,649 52,1055 155,1217 139,219 485,328 1039,328 480,0 786,-10 917,-31 131,-21 234,-84 311,-188l341 156c-89,169 -237,281 -444,335 -208,53 -577,80 -1108,80 -665,0 -1094,-118 -1286,-354 -193,-237 -289,-744 -289,-1520 0,-712 127,-1175 381,-1391 227,-192 694,-288 1402,-288 723,0 1189,85 1398,254 210,169 315,565 315,1188zm-1327 358l0 -220c0,-169 -33,-290 -98,-363 -65,-73 -179,-109 -340,-109 -181,0 -300,46 -358,138 -42,65 -63,186 -63,363l0 248c0,177 19,298 57,364 54,88 166,132 335,132 204,0 336,-46 398,-138 46,-69 69,-208 69,-415z"/>
  <circle class="fil19" cx="43512" cy="7693" r="6132"/>
  <path class="fil20" d="M42558 10853c0,188 -98,283 -294,283l-2342 0c-184,0 -277,-99 -277,-295l0 -611c0,-165 89,-248 266,-248 100,0 169,19 207,58 39,38 58,103 58,196l0 219c0,119 52,179 156,179l1044 0c77,0 137,-20 181,-58 45,-38 67,-106 67,-202l0 -646c0,-54 -28,-102 -84,-144 -56,-42 -118,-64 -187,-64l-866 0c-69,0 -121,-5 -155,-17 -77,-27 -116,-98 -116,-213 0,-96 22,-161 67,-194 44,-32 112,-49 204,-49l918 0c69,0 123,-19 161,-57 39,-38 58,-86 58,-144l0 -688c0,-118 -77,-178 -231,-178l-1050 0c-61,0 -105,13 -130,38 -25,25 -37,72 -37,141l0 185c0,188 -89,282 -265,282 -177,0 -266,-92 -266,-276l0 -572c0,-100 21,-175 64,-225 42,-50 111,-74 207,-74l1956 0c188,0 282,99 282,299l0 1118c0,34 10,66 29,95 19,28 68,71 144,129l81 57c100,69 150,158 150,266l0 1410z"/>
  <path class="fil20" d="M46553 4795l-104 272 -664 0 -282 698 675 0 -116 271 -669 0 -288 715 -289 0 283 -715 -710 0 -294 715 -300 0 289 -715 -664 0 110 -271 675 0 277 -698 -675 0 109 -272 681 0 283 -703 294 0 -288 703 715 0 282 -703 300 0 -282 703 652 0zm-1062 272l-709 0 -289 698 715 0 283 -698z"/>
  <circle class="fil19" cx="57925" cy="7693" r="6132"/>
  <path class="fil20" d="M54230 7484c127,0 192,70 192,218l0 1661c0,57 22,109 66,157 44,49 101,73 170,73l1339 0c61,0 111,-18 150,-52 38,-35 57,-75 57,-121l0 -1718c0,-153 81,-219 191,-220l160 0c111,0 180,96 180,220l0 1746c0,54 11,92 32,113 21,21 64,32 129,32l145 0c77,0 135,22 176,66 40,44 60,103 60,176 0,69 -17,124 -52,164 -34,41 -94,61 -178,61l-185 0c-50,0 -84,16 -101,49 -17,33 -26,81 -26,147l0 617c0,177 -102,265 -306,265l-346 0c-107,0 -183,-19 -225,-57 -42,-39 -63,-102 -63,-191l0 -605c0,-66 -21,-119 -64,-162 -42,-42 -111,-63 -207,-63l-1281 0c-112,0 -198,-19 -259,-58 -62,-38 -93,-106 -93,-201l0 -2099c0,-150 65,-217 186,-217l153 -1z"/>
  <path class="fil20" d="M60922 6939c0,88 -25,159 -75,213 -50,54 -129,81 -236,81l-623 0c-62,0 -112,17 -150,52 -39,35 -58,79 -58,133l0 121c0,188 -89,282 -265,282 -177,0 -266,-92 -266,-276l0 -127c0,-46 -21,-89 -63,-127 -43,-39 -94,-58 -156,-58l-663 0c-220,0 -329,-85 -329,-254l0 -675c0,-165 88,-248 265,-248 100,0 169,20 208,58 38,38 58,104 58,196l0 260c0,46 20,84 60,115 40,31 91,46 153,46l998 0c58,0 106,-21 144,-63 39,-43 58,-87 58,-133l0 -715c0,-43 -24,-84 -72,-124 -48,-41 -103,-61 -165,-61l-1401 0c-173,0 -260,-90 -260,-270l0 -1490c0,-199 92,-299 277,-299l675 0c142,0 213,-49 213,-146l0 -151c0,-167 89,-251 266,-251 100,0 169,19 207,59 39,38 58,104 58,198l0 139c0,101 67,152 202,152l554 0c111,0 200,27 265,81 65,54 98,127 98,219l0 554c0,188 -88,282 -265,282 -177,0 -266,-91 -266,-274l0 -183c0,-53 -20,-96 -60,-128 -41,-33 -92,-49 -153,-49l-1292 0c-69,0 -128,20 -176,59 -48,41 -72,87 -72,141l0 696c0,57 21,108 63,155 42,45 98,68 167,68l1737 0c69,0 143,28 222,84 79,55 118,112 118,170l0 1488z"/>
  <circle class="fil19" cx="72338" cy="7693" r="6132"/>
  <path class="fil20" d="M71539 10818c0,89 -24,164 -70,225 -46,62 -111,93 -196,93l-2399 0c-185,0 -277,-99 -277,-295l0 -611c0,-165 88,-248 265,-248 100,0 169,19 208,58 38,38 57,103 57,196l0 219c0,119 52,179 156,179l1119 0c58,0 106,-21 144,-64 39,-42 58,-90 58,-144l0 -721c0,-46 -19,-88 -58,-127 -38,-38 -86,-58 -144,-58l-1540 0c-77,0 -140,-28 -190,-86 -50,-58 -75,-122 -75,-195l0 -1485c0,-183 100,-275 300,-275l2365 0c184,0 277,78 277,236 0,88 -21,155 -61,199 -40,44 -107,66 -199,66l-1909 0c-66,0 -122,21 -170,61 -49,39 -73,88 -73,146l0 636c0,58 27,110 81,155 54,46 117,69 190,69l1875 0c69,0 131,27 185,81 54,54 81,112 81,173l0 1517z"/>
  <path class="fil20" d="M75868 6956c0,196 -130,294 -392,294l-681 0c-96,0 -179,-28 -250,-83 -72,-56 -107,-124 -107,-205l0 -1211c0,-100 37,-180 112,-240 75,-59 174,-89 297,-89l618 0c134,0 235,28 302,83 68,56 101,128 101,217l0 1234zm-755 -3080c0,50 -14,96 -41,138l-1817 3109c-23,39 -52,70 -86,93 -35,23 -69,34 -104,34 -58,0 -107,-18 -147,-54 -40,-37 -61,-84 -61,-142 4,-15 8,-33 12,-55 4,-21 15,-47 34,-77l1817 -3110c54,-88 118,-132 191,-132 58,0 106,19 144,57 39,39 58,85 58,139zm-1610 1252c0,196 -130,294 -392,294l-681 0c-92,0 -174,-28 -245,-84 -71,-56 -106,-124 -106,-205l0 -1211c0,-96 36,-175 109,-236 73,-62 171,-93 294,-93l618 0c134,0 235,28 302,84 68,56 101,128 101,216l0 1235zm1990 1638l0 -814c0,-134 -55,-201 -167,-201l-317 0c-131,0 -196,65 -196,196l0 819c0,38 18,74 55,107 36,32 81,49 135,49l323 0c112,0 167,-52 167,-156zm-2365 -1829l0 -813c0,-135 -55,-202 -167,-202l-317 0c-127,0 -190,65 -190,196l0 819c0,39 17,74 51,107 35,33 79,49 133,49l323 0c112,0 167,-52 167,-156z"/>
  <circle class="fil19" cx="86752" cy="7693" r="6132"/>
  <path class="fil20" d="M86016 10778c0,88 -34,170 -101,245 -68,75 -145,113 -234,113l-2301 0c-196,0 -295,-97 -295,-289l0 -3103c0,-92 32,-160 96,-202 63,-42 151,-63 262,-63l2279 0c196,0 294,100 294,303l0 592c0,187 -89,281 -266,281 -177,0 -265,-91 -265,-275l0 -229c0,-114 -63,-171 -190,-171l-1437 0c-69,0 -126,18 -173,52 -46,35 -69,80 -69,138l0 659c0,58 26,109 78,152 52,44 113,66 182,66l1811 0c88,0 165,31 231,93 65,61 98,125 98,190l0 1448zm-941 -346l0 -744c0,-43 -17,-81 -51,-116 -35,-34 -81,-52 -139,-52l-1096 0c-115,0 -173,58 -173,173l0 716c0,150 62,225 185,225l1073 0c57,0 105,-21 144,-64 38,-42 57,-88 57,-138z"/>
  <path class="fil20" d="M88940 4790c0,81 -28,142 -84,182 -56,40 -128,60 -216,60l-352 0c-88,0 -160,-20 -213,-60 -54,-40 -81,-99 -81,-176l0 -167c0,-77 27,-138 81,-182 53,-44 125,-66 213,-66l352 0c88,0 160,22 216,66 56,44 84,105 84,182l0 161zm0 1436c0,81 -28,142 -84,182 -56,40 -128,61 -216,61l-352 0c-88,0 -160,-21 -213,-61 -54,-40 -81,-99 -81,-176l0 -167c0,-77 27,-137 81,-182 53,-44 125,-66 213,-66l352 0c88,0 160,22 216,66 56,45 84,105 84,182l0 161z"/>
  <circle class="fil19" cx="101165" cy="7693" r="6132"/>
  <path class="fil20" d="M100268 10893c0,93 -24,156 -72,191 -48,34 -122,52 -222,52l-393 0c-88,0 -153,-17 -196,-49 -42,-33 -63,-98 -63,-194l0 -1450c0,-58 12,-106 37,-145 25,-37 67,-77 124,-120l81 -58c39,-26 77,-55 115,-86 39,-39 58,-85 58,-138l0 -725c0,-58 -23,-104 -69,-139 -46,-34 -106,-52 -179,-52l-1425 0c-88,0 -152,-13 -190,-40 -50,-38 -75,-106 -75,-202 0,-100 21,-168 63,-205 43,-36 110,-54 202,-54l1910 0c196,0 294,82 294,248l0 3166z"/>
  <path class="fil20" d="M104636 5387c0,92 -23,156 -69,190 -46,35 -112,52 -196,52 -62,0 -106,20 -133,58 -27,39 -40,87 -40,144l0 1131c0,196 -93,294 -277,294l-2342 0c-196,0 -294,-94 -294,-283l0 -1410c0,-108 50,-196 150,-265l80 -58c39,-27 77,-56 116,-87 38,-37 57,-83 57,-137l0 -1117c0,-200 95,-300 283,-300l1955 0c181,0 272,79 272,236 0,93 -19,160 -55,202 -37,43 -103,64 -199,64l-1494 0c-154,0 -231,59 -231,178l0 653c0,54 20,100 61,138 40,38 93,58 158,58l998 0c62,0 116,-15 162,-44 46,-28 69,-67 69,-117l0 -291c0,-165 88,-246 265,-246 100,0 169,19 208,57 38,38 58,103 58,194l0 286c0,54 15,94 46,120 31,27 73,41 127,41 84,0 150,19 196,57 46,39 69,106 69,202zm-969 1165l0 -721c0,-134 -77,-202 -231,-202l-946 0c-69,0 -132,21 -187,61 -56,40 -84,89 -84,147l0 710c0,53 28,101 84,144 55,42 118,63 187,63l935 0c161,0 242,-67 242,-202z"/>
  <circle class="fil19" cx="115578" cy="7693" r="6132"/>
  <path class="fil20" d="M114999 10856c0,104 -24,176 -72,216 -48,40 -122,61 -222,61l-2301 0c-116,0 -206,-25 -271,-75 -66,-50 -99,-118 -99,-202l0 -1416c0,-104 52,-193 156,-266l81 -57c69,-54 106,-83 110,-87 34,-37 51,-83 51,-137l0 -1117c0,-89 28,-161 84,-217 56,-56 139,-83 251,-83l1454 0c246,0 369,96 369,288l0 1129c0,34 9,66 29,95 19,28 67,71 144,129l81 57c103,73 155,162 155,266l0 1416zm-940 -2047l0 -631c0,-57 -19,-105 -58,-143 -38,-38 -92,-58 -161,-58l-692 0c-62,0 -108,20 -139,58 -31,38 -46,84 -46,138l0 671c0,46 23,83 69,114 47,31 106,46 179,46l617 0c62,0 116,-17 162,-52 46,-34 69,-81 69,-143zm0 1620l0 -721c0,-54 -22,-101 -66,-141 -44,-41 -93,-61 -147,-61l-1096 0c-62,0 -108,19 -139,58 -30,38 -46,84 -46,138l0 762c0,42 24,80 72,115 48,35 105,52 170,52l1021 0c66,0 121,-18 165,-55 44,-36 66,-85 66,-147z"/>
  <polygon class="fil20" points="118425,5338 117756,5564 118154,6129 117866,6349 117462,5760 117024,6349 116730,6129 117145,5564 116481,5315 116608,4963 117272,5211 117272,4508 117635,4508 117635,5211 118304,4963 "/>
  <circle class="fil19" cx="129991" cy="7693" r="6132"/>
  <path class="fil20" d="M129471 10867c0,96 -23,166 -69,208 -47,42 -120,63 -220,63l-357 0c-112,0 -189,-19 -231,-57 -42,-39 -63,-102 -63,-191l0 -1147c0,-58 -24,-109 -73,-153 -48,-45 -104,-67 -170,-67l-1396 0c-107,0 -193,-21 -256,-63 -64,-42 -95,-110 -95,-201l0 -1496c0,-73 38,-137 115,-195 77,-58 156,-87 236,-87l2256 0c92,0 169,29 231,87 61,58 92,131 92,219l0 3080zm-531 -1989l0 -734c0,-46 -21,-84 -63,-115 -43,-30 -94,-46 -156,-46l-1431 0c-146,0 -219,54 -219,161l0 734c0,115 67,172 202,172l1454 0c57,0 107,-19 150,-57 42,-38 63,-76 63,-115z"/>
  <path class="fil20" d="M132544 7524c0,77 -25,139 -75,185 -50,46 -94,69 -133,69l-496 0c-161,0 -284,-47 -366,-141 -83,-94 -124,-205 -124,-333l0 -3765c0,-128 41,-238 124,-332 82,-94 205,-142 366,-142l496 0c39,0 79,22 121,64 58,58 87,125 87,202 0,50 -24,97 -72,141 -48,44 -99,66 -153,66l-254 0c-115,0 -173,62 -173,185l0 3398c0,53 15,98 46,132 31,35 73,52 127,52l254 0c50,0 100,23 150,69 50,46 75,96 75,150z"/>
  <circle class="fil19" cx="144404" cy="7693" r="6132"/>
  <path class="fil20" d="M143953 10847c0,92 -19,160 -57,202 -50,58 -129,87 -237,87l-2273 0c-250,0 -375,-97 -375,-289l0 -3080c0,-192 89,-288 266,-288l2353 0c216,0 323,96 323,288l0 3080zm-530 -1951l0 -731c0,-46 -20,-89 -58,-127 -38,-38 -86,-58 -143,-58l-1485 0c-61,0 -109,20 -143,58 -35,38 -52,85 -52,138l0 2262c0,57 18,104 55,141 37,36 86,55 152,55l1103 0c57,0 100,-25 129,-75 29,-50 44,-104 44,-161l0 -961c0,-104 49,-191 148,-260l79 -57c38,-27 75,-55 114,-86 37,-39 57,-85 57,-138z"/>
  <path class="fil20" d="M147038 7305c0,128 -42,238 -124,332 -83,95 -205,142 -367,142l-496 0c-38,0 -78,-20 -121,-58 -57,-54 -86,-119 -86,-196 0,-54 25,-104 75,-150 50,-46 100,-69 150,-69l254 0c115,0 173,-62 173,-185l0 -3398c0,-53 -16,-98 -47,-132 -30,-35 -73,-52 -126,-52l-254 0c-46,0 -95,-22 -147,-66 -52,-45 -78,-92 -78,-142 0,-80 24,-145 72,-193 48,-48 93,-72 135,-72l496 0c162,0 287,50 375,150 77,88 116,196 116,324l0 3765z"/>
  <circle class="fil19" cx="158817" cy="7693" r="6132"/>
  <path class="fil20" d="M158226 9324c0,181 -81,271 -243,271l-2030 0c-165,0 -248,-96 -248,-288 0,-196 81,-294 242,-294l2042 0c158,0 237,104 237,311z"/>
  <polygon class="fil20" points="162307,6685 159561,6685 159561,6281 162307,6281 "/>
  <circle class="fil19" cx="173230" cy="7693" r="6132"/>
  <path class="fil20" d="M172714 8765c0,181 -80,271 -242,271l-2024 0c-177,0 -266,-96 -266,-289 0,-196 85,-294 254,-294l2042 0c158,0 236,104 236,312zm0 1119c0,100 -20,170 -60,210 -40,41 -105,61 -193,61l-2025 0c-169,0 -254,-96 -254,-288 0,-197 81,-295 242,-295l2042 0c166,0 248,104 248,312z"/>
  <path class="fil20" d="M176688 5445c0,73 -10,127 -29,161 -35,62 -106,93 -214,93l-727 0 0 738c0,165 -90,248 -271,248 -200,0 -300,-81 -300,-242l0 -744 -732 0c-165,0 -248,-91 -248,-272 0,-196 81,-294 242,-294l738 0 0 -723c0,-160 99,-240 295,-240 184,0 276,82 276,246l0 717 733 0c158,0 237,104 237,312z"/>
  <circle class="fil19" cx="7515" cy="21833" r="6132"/>
  <circle class="fil19" cx="21886" cy="21833" r="6132"/>
  <circle class="fil19" cx="36257" cy="21833" r="6132"/>
  <circle class="fil19" cx="50628" cy="21833" r="6132"/>
  <circle class="fil19" cx="65000" cy="21833" r="6132"/>
  <circle class="fil19" cx="79371" cy="21833" r="6132"/>
  <circle class="fil19" cx="93742" cy="21833" r="6132"/>
  <circle class="fil19" cx="108113" cy="21833" r="6132"/>
  <circle class="fil19" cx="122484" cy="21833" r="6132"/>
  <circle class="fil19" cx="136855" cy="21833" r="6132"/>
  <circle class="fil19" cx="151227" cy="21833" r="6132"/>
  <circle class="fil19" cx="165598" cy="21833" r="6132"/>
  <circle class="fil19" cx="179969" cy="21833" r="6132"/>
  <circle class="fil19" cx="194340" cy="21833" r="6132"/>
  <circle class="fil19" cx="29015" cy="35792" r="6132"/>
  <circle class="fil19" cx="43438" cy="35792" r="6132"/>
  <circle class="fil19" cx="57862" cy="35792" r="6132"/>
  <circle class="fil19" cx="72285" cy="35792" r="6132"/>
  <circle class="fil19" cx="86708" cy="35792" r="6132"/>
  <circle class="fil19" cx="101132" cy="35792" r="6132"/>
  <circle class="fil19" cx="115555" cy="35792" r="6132"/>
  <circle class="fil19" cx="129978" cy="35792" r="6132"/>
  <circle class="fil19" cx="144402" cy="35792" r="6132"/>
  <circle class="fil19" cx="158825" cy="35792" r="6132"/>
  <circle class="fil19" cx="173249" cy="35792" r="6132"/>
  <circle class="fil19" cx="36049" cy="49908" r="6132"/>
  <circle class="fil19" cx="50495" cy="49908" r="6132"/>
  <circle class="fil19" cx="64941" cy="49908" r="6132"/>
  <circle class="fil19" cx="79387" cy="49908" r="6132"/>
  <circle class="fil19" cx="93832" cy="49908" r="6132"/>
  <circle class="fil19" cx="108278" cy="49908" r="6132"/>
  <circle class="fil19" cx="122724" cy="49908" r="6132"/>
  <circle class="fil19" cx="137169" cy="49908" r="6132"/>
  <circle class="fil19" cx="151615" cy="49908" r="6132"/>
  <circle class="fil19" cx="166061" cy="49908" r="6132"/>
  <path class="fil20" d="M144669 63948c0,139 -45,252 -136,341 -91,89 -205,133 -344,133 -143,0 -258,-43 -347,-130 -89,-86 -133,-201 -133,-344 0,-142 44,-258 133,-347 89,-88 204,-133 347,-133 143,0 259,45 347,133 89,89 133,205 133,347z"/>
  <polygon class="fil20" points="158390,65032 158390,63468 159338,63468 159338,65032 "/>
  <path class="fil20" d="M5541 22424c0,127 -40,229 -121,306 -81,77 -185,115 -311,115 -124,0 -225,-39 -306,-118 -81,-79 -121,-180 -121,-303 0,-127 40,-230 121,-308 81,-79 184,-119 311,-119 127,0 230,40 309,119 79,78 118,181 118,308zm-882 2452l0 -1488 842 0 0 1488 -842 0z"/>
  <path class="fil20" d="M10976 19440c0,127 -39,228 -118,305 -79,77 -181,116 -308,116 -123,0 -225,-40 -306,-118 -81,-79 -121,-180 -121,-303 0,-127 39,-230 118,-309 79,-79 182,-118 309,-118 127,0 229,39 308,118 79,79 118,182 118,309zm0 1892c0,127 -39,228 -118,305 -79,77 -181,116 -308,116 -123,0 -225,-40 -306,-119 -81,-78 -121,-179 -121,-302 0,-127 39,-230 118,-309 79,-79 182,-118 309,-118 127,0 229,39 308,118 79,79 118,182 118,309z"/>
  <path class="fil20" d="M35099 23693c-469,0 -859,-52 -1170,-155 -472,-158 -709,-422 -709,-791l0 -3316 842 0 0 3022c0,269 346,404 1037,404l2586 0 0 -3426 842 0 0 3426 767 0 0 1379 -842 0 0 -543 -3353 0z"/>
  <path class="fil20" d="M53256 23018c0,343 -240,599 -722,768 -338,119 -726,178 -1161,178l-2530 0 0 -836 2527 0c696,0 1044,-117 1044,-352l0 -144 -2535 0c-472,0 -870,-63 -1193,-190 -456,-181 -685,-468 -685,-860l0 -1880 842 0 0 1713c0,254 347,381 1041,381l2530 0 0 -2094 842 0 0 3316z"/>
  <polygon class="fil20" points="66289,23964 62892,22055 62892,23964 62050,23964 62050,19702 62892,19702 62892,21201 65903,19702 67766,19702 63836,21673 67950,23964 "/>
  <polygon class="fil20" points="76743,23964 76743,19702 81998,19702 81998,20538 77585,20538 77585,21040 81185,21040 81185,21876 77585,21876 77585,23128 81998,23128 81998,23964 "/>
  <polygon class="fil20" points="95530,23964 95530,21876 91954,21876 91954,23964 91112,23964 91112,19702 91954,19702 91954,21040 95530,21040 95530,19702 96372,19702 96372,23964 "/>
  <polygon class="fil20" points="105543,23964 105543,19702 110683,19702 110683,20538 106386,20538 106386,23964 "/>
  <path class="fil20" d="M126340 23018c0,408 -228,683 -686,825 -262,81 -659,121 -1194,121l-3951 0c-469,0 -860,-51 -1171,-155 -473,-158 -710,-421 -710,-791l0 -3316 842 0 0 3022c0,270 346,404 1037,404l1600 0 0 -3426 842 0 0 3426 1507 0c695,0 1042,-134 1042,-404l0 -3022 842 0 0 3316z"/>
  <path class="fil20" d="M134559 23693c-469,0 -860,-52 -1171,-155 -472,-158 -709,-421 -709,-791l0 -3316 842 0 0 3022c0,269 347,404 1039,404l1500 0 0 -3426 842 0 0 3426 2520 0 0 -3426 843 0 0 3426 767 0 0 1379 -842 0 0 -543 -5631 0z"/>
  <path class="fil20" d="M148619 20538l0 -836 3335 0c607,0 1019,29 1234,86 246,66 415,162 508,289 92,127 138,319 138,576l0 468c0,296 -171,502 -513,617 342,54 513,231 513,531l0 749c0,350 -246,608 -738,773 -343,116 -733,173 -1171,173l-3306 0 0 -836 3322 0c701,0 1051,-104 1051,-311l0 -416c0,-169 -241,-254 -722,-254l-2785 0 0 -836 2641 0c577,0 866,-94 866,-283l0 -242c0,-115 -102,-190 -306,-225 -88,-15 -241,-23 -457,-23l-3610 0z"/>
  <polygon class="fil20" points="166310,21853 169208,23967 167822,23967 165593,22367 163374,23967 161969,23967 164881,21849 161932,19699 163347,19699 165588,21330 167828,19699 169264,19699 "/>
  <path class="fil20" d="M178749 23128l2496 0c701,0 1052,-102 1052,-306l0 -467c0,-169 -240,-254 -720,-254l-2828 0 0 1027zm-842 836l0 -3426 -1108 0 0 -836 1950 0 0 1563 2742 0c653,0 1078,71 1273,213 250,181 375,429 375,744l0 796c0,373 -248,637 -744,791 -335,104 -723,155 -1166,155l-3322 0z"/>
  <path class="fil20" d="M192532 23552c0,123 -40,224 -121,303 -81,79 -183,118 -306,118 -127,0 -231,-38 -311,-115 -81,-77 -122,-179 -122,-306 0,-127 41,-230 122,-308 80,-79 184,-119 311,-119 127,0 230,40 309,119 79,78 118,181 118,308zm3524 -2769c0,-169 -330,-253 -992,-253l-3374 0 0 -837 3374 0c881,0 1477,217 1788,652 104,146 156,296 156,450 0,154 -50,300 -150,438 -303,423 -901,635 -1791,635l-2535 0 0 1084 -842 0 0 -1500c0,-115 41,-214 124,-297 82,-82 181,-124 297,-124l2953 0c662,0 992,-82 992,-248z"/>
  <path class="fil20" d="M27403 34589c-654,0 -981,112 -981,335l0 1742c0,215 327,323 981,323l1194 0 0 -2400 -1194 0zm1194 -1142l842 0 0 306 1152 0c1250,0 1876,317 1876,951l0 2175c0,358 -238,617 -714,779 -330,111 -717,167 -1162,167l-1152 0 0 312 -842 0 0 -312 -1154 0c-412,0 -796,-61 -1154,-184 -484,-166 -726,-420 -726,-762l0 -2175c0,-365 236,-626 709,-784 335,-112 725,-167 1171,-167l1154 0 0 -306zm2029 3542c666,0 999,-108 999,-323l0 -1742c0,-223 -333,-335 -999,-335l-1187 0 0 2400 1187 0z"/>
  <path class="fil20" d="M44001 35010c653,0 1077,71 1273,214 250,180 375,428 375,744l0 796c0,373 -248,636 -745,790 -334,104 -722,156 -1165,156l-3322 0 0 -4263 842 0 0 1563 2742 0zm805 1090c0,-169 -239,-253 -719,-253l-2828 0 0 1026 2496 0c700,0 1051,-102 1051,-305l0 -468zm1160 1610l0 -4263 842 0 0 4263 -842 0z"/>
  <path class="fil20" d="M60644 36770c0,349 -246,607 -738,773 -343,115 -733,173 -1171,173l-3346 0 0 -4269 3374 0c443,0 829,58 1160,173 481,169 721,429 721,779l0 617c0,288 -156,475 -467,559 134,24 246,84 334,182 89,98 133,215 133,349l0 664zm-860 -2169c0,-112 -140,-196 -420,-254 -203,-42 -403,-64 -599,-64l-2534 0 0 866 3168 0c257,0 385,-68 385,-202l0 -346zm0 1638c0,-169 -240,-254 -720,-254l-2833 0 0 894 2506 0c698,0 1047,-104 1047,-311l0 -329z"/>
  <path class="fil20" d="M74206 37710l0 -1333 -3571 0 0 1333 -842 0 0 -2913c0,-439 213,-783 640,-1033 362,-211 777,-317 1246,-317l1431 0c454,0 873,110 1257,329 454,257 681,598 681,1021l0 2913 -842 0zm0 -2734c0,-220 -135,-395 -403,-525 -230,-112 -462,-168 -695,-168l-1427 0c-199,0 -415,66 -649,196 -264,150 -397,316 -397,497l0 565 3571 0 0 -565z"/>
  <polygon class="fil20" points="89455,33447 89455,37710 88613,37710 88613,34283 85036,34283 85036,37710 84194,37710 84194,33447 "/>
  <path class="fil20" d="M103856 35431c0,350 -240,608 -720,773 -339,116 -724,173 -1158,173l-2535 0 0 1333 -842 0 0 -4263 3374 0c1254,0 1881,317 1881,952l0 1032zm-842 -796c0,-234 -347,-352 -1041,-352l-2530 0 0 1258 2530 0c219,0 420,-19 604,-58 292,-61 437,-161 437,-300l0 -548z"/>
  <path class="fil20" d="M118260 36764c0,357 -239,617 -715,778 -331,112 -720,168 -1166,168l-1494 0c-411,0 -796,-62 -1153,-185 -485,-165 -727,-419 -727,-761l0 -2365c0,-366 237,-627 709,-785 335,-111 725,-167 1171,-167l1494 0c1254,0 1881,317 1881,952l0 2365zm-842 -2146c0,-223 -334,-335 -1002,-335l-1573 0c-653,0 -978,112 -978,335l0 1932c0,216 325,323 978,323l1573 0c668,0 1002,-107 1002,-323l0 -1932z"/>
  <path class="fil20" d="M128750 36764c0,153 -58,302 -173,444 -227,277 -546,440 -957,490 -66,8 -241,12 -525,12l-185 0 0 -837 184 0c236,0 412,-19 527,-57 192,-66 287,-193 287,-381l0 -1638c0,-439 213,-783 640,-1033 362,-211 777,-317 1246,-317l3369 0 0 4263 -842 0 0 -3427 -2525 0c-199,0 -415,66 -649,196 -264,150 -397,316 -397,497l0 1788z"/>
  <path class="fil20" d="M141851 36873l0 -2076c0,-439 213,-783 640,-1033 361,-211 777,-317 1246,-317l3299 0 0 3426 767 0 0 1379 -842 0 0 -542 -5041 0 0 542 -842 0 0 -1379 773 0zm842 0l3501 0 0 -2590 -2455 0c-199,0 -416,66 -649,196 -265,150 -397,316 -397,497l0 1897z"/>
  <polygon class="fil20" points="161534,33447 163006,33447 160036,35541 163029,37710 161574,37710 159268,36039 159268,37710 158426,37710 158426,36040 156127,37710 154660,37710 157659,35541 154688,33447 156131,33447 158426,35065 158426,33447 159268,33447 159268,35058 "/>
  <path class="fil20" d="M175016 35616l-3397 0 0 -837 3397 0 0 -126c0,-247 -340,-370 -1020,-370l-3375 0 0 -836 3375 0c461,0 849,54 1165,161 477,162 715,424 715,785l0 2365c0,346 -240,604 -721,773 -338,119 -725,179 -1159,179l-3375 0 0 -837 3375 0c680,0 1020,-152 1020,-455l0 -802z"/>
  <path class="fil20" d="M33261 52039l2663 -1379 -976 0c-109,0 -192,-1 -250,-5 -286,-20 -531,-91 -732,-213 -248,-149 -372,-355 -372,-615l0 -1091c0,-394 229,-670 687,-828 257,-87 653,-132 1188,-132l3369 0 0 4263 -842 0 0 -1379 -502 0 -2613 1379 -1620 0zm1176 -2440c0,162 152,242 459,242l3100 0 0 -1228 -2524 0c-690,0 -1035,94 -1035,282l0 704z"/>
  <path class="fil20" d="M49745 50707c-472,0 -869,-64 -1192,-191 -457,-181 -686,-467 -686,-859l0 -1881 843 0 0 1714c0,253 347,380 1041,380l2529 0 0 -2094 842 0 0 4263 -842 0 0 -1332 -2535 0z"/>
  <path class="fil20" d="M64194 52039c-462,0 -850,-54 -1165,-161 -477,-162 -716,-423 -716,-785l0 -2365c0,-346 241,-604 721,-773 339,-119 725,-179 1160,-179l3374 0 0 837 -3374 0c-681,0 -1021,152 -1021,455l0 1765c0,247 340,370 1021,370l3374 0 0 836 -3374 0z"/>
  <path class="fil20" d="M82398 52056l0 -2838 -2735 2723c-76,77 -175,115 -294,115 -119,0 -219,-40 -300,-121l-2694 -2705 0 2826 -842 0 0 -3841c0,-123 33,-230 98,-320 67,-91 159,-136 279,-136 119,0 234,53 341,159l3118 3143 3162 -3139c108,-109 219,-163 334,-163 119,0 211,45 277,136 65,90 98,197 98,320l0 3841 -842 0z"/>
  <path class="fil20" d="M96460 52039l-843 0 0 -2985 -3733 2893c-101,73 -202,109 -302,109 -120,0 -215,-46 -284,-138 -63,-81 -93,-183 -93,-305l0 -3837 842 0 0 2988 3738 -2890c100,-77 202,-115 305,-115 116,0 206,43 271,130 66,86 99,189 99,307l0 3843z"/>
  <polygon class="fil20" points="108702,48613 108702,52039 107860,52039 107860,48613 105650,48613 105650,47776 110905,47776 110905,48613 "/>
  <path class="fil20" d="M123692 49339c653,0 1078,72 1273,214 250,181 375,429 375,744l0 796c0,373 -248,637 -745,790 -334,104 -722,156 -1165,156l-3322 0 0 -4263 842 0 0 1563 2742 0zm805 1091c0,-170 -239,-254 -719,-254l-2828 0 0 1027 2496 0c701,0 1051,-102 1051,-306l0 -467z"/>
  <path class="fil20" d="M137914 51203c694,0 1041,-108 1041,-323l0 -427c0,-212 -347,-318 -1041,-318l-2530 0 0 1068 2530 0zm-3372 -3427l5076 0 0 837 -4234 0 0 686 2535 0c1252,0 1878,314 1878,940l0 854c0,358 -239,617 -715,779 -331,111 -719,167 -1166,167l-3374 0 0 -4263z"/>
  <path class="fil20" d="M153316 51203c668,0 1002,-108 1002,-323l0 -1933c0,-223 -334,-334 -1002,-334l-1458 0c-652,0 -978,111 -978,334l0 1933c0,215 326,323 978,323l1458 0zm-1415 836c-412,0 -796,-61 -1154,-185 -484,-165 -727,-419 -727,-761l0 -888 -1107 0 0 1834 -842 0 0 -4263 842 0 0 1592 1107 0 0 -640c0,-365 237,-627 710,-784 334,-112 725,-168 1171,-168l1378 0c1254,0 1881,318 1881,952l0 2365c0,358 -239,617 -715,779 -331,111 -720,167 -1166,167l-1378 0z"/>
  <path class="fil20" d="M163308 52039l0 -4263 5255 0 0 837 -4413 0 0 502 3599 0 0 836 -3599 0 0 1252 4413 0 0 836 -5255 0zm2007 -4972c77,0 146,24 208,72 61,48 92,109 92,182 0,76 -31,138 -92,184 -62,46 -131,69 -208,69 -81,0 -152,-23 -213,-69 -62,-46 -93,-108 -93,-184 0,-77 31,-139 93,-185 61,-46 132,-69 213,-69zm981 0c77,0 146,24 207,72 62,48 93,109 93,182 0,76 -31,138 -93,184 -61,46 -130,69 -207,69 -81,0 -152,-23 -214,-69 -61,-46 -92,-108 -92,-184 0,-73 32,-134 95,-182 64,-48 134,-72 211,-72z"/>
  <path class="fil20" d="M24514 20596c0,-120 -33,-222 -99,-309 -65,-86 -155,-130 -271,-130 -103,0 -205,39 -305,116l-3744 2895 0 -2988 -836 0 0 3842c0,123 30,225 92,306 69,92 163,138 283,138 100,0 200,-38 300,-115l3743 -2902 0 2994 837 0 0 -3847zm-3917 -560l0 -836 2717 0 0 836 -2717 0z"/>
  <path class="fil21" d="M45863 65778c0,218 -94,327 -284,327 -190,0 -285,-107 -285,-320l0 -1370c0,-150 -80,-225 -241,-225l-1051 0c-99,0 -168,22 -207,65 -39,43 -59,119 -59,228l0 1329c0,77 -25,145 -74,204 -50,59 -114,89 -192,89l-427 0c-206,0 -309,-112 -309,-334l0 -3638c0,-232 114,-348 340,-348l1911 0c116,0 204,32 266,96 62,62 93,144 93,244l0 1249c0,162 84,244 253,244 71,0 132,23 186,68 54,46 80,102 80,171l0 1921zm-1088 -2377l0 -779c0,-68 -18,-126 -53,-172 -35,-48 -86,-72 -156,-72l-1029 0c-70,0 -126,24 -169,72 -43,46 -65,104 -65,172l0 745c0,153 78,231 234,231l1010 0c70,0 125,-18 166,-55 41,-36 62,-83 62,-142z"/>
  <path id="1" class="fil21" d="M48875 65771c0,82 -28,158 -83,228 -56,71 -129,106 -220,106l-1886 0c-95,0 -167,-32 -216,-96 -50,-63 -75,-147 -75,-252l0 -2480c0,-127 68,-190 204,-190l174 0c103,0 154,59 154,177l0 763c0,113 27,200 80,259l211 225c70,72 105,199 105,381l0 491c0,50 18,88 56,115 37,28 86,41 148,41l656 0c74,0 119,-17 136,-51 16,-34 24,-67 24,-99l0 -2112c0,-127 68,-190 204,-190l174 0c103,0 154,59 154,177l0 2507z"/>
  <path id="2" class="fil21" d="M52110 63877c0,213 -87,320 -260,320l-2177 0c-177,0 -266,-113 -266,-340 0,-232 87,-348 260,-348l2189 0c169,0 254,123 254,368z"/>
  <path id="3" class="fil21" d="M55394 65819c0,109 -25,184 -75,224 -49,41 -119,62 -210,62l-2134 0c-103,0 -180,-24 -231,-72 -52,-48 -78,-133 -78,-255l0 -3652c0,-227 134,-341 402,-341l1954 0c95,0 166,22 214,65 47,43 71,124 71,242 0,109 -25,184 -74,225 -50,41 -119,61 -210,61l-1541 0c-74,0 -133,23 -179,68 -45,45 -68,99 -68,163l0 819c0,69 15,113 43,136 29,22 81,34 154,34l1573 0c95,0 165,21 212,64 48,44 71,124 71,242 0,109 -24,184 -74,225 -49,41 -119,61 -210,61l-1058 0c-185,0 -278,96 -278,286l0 729c0,73 21,142 62,208 41,66 97,99 167,99l1212 0c95,0 166,22 213,65 48,43 72,124 72,242z"/>
  <path id="4" class="fil21" d="M58399 65928c0,118 -52,177 -155,177l-173 0c-136,0 -204,-64 -204,-191l0 -2112c0,-54 -10,-93 -31,-116 -20,-22 -64,-34 -130,-34l-1051 0c-136,0 -204,50 -204,150l0 211c0,114 27,200 80,259l211 225c70,73 105,200 105,381l0 1022c0,137 -64,205 -192,205l-544 0c-128,0 -192,-68 -192,-205l0 -2466c0,-100 26,-183 77,-249 52,-65 123,-98 214,-98l1886 0c87,0 159,34 216,102 58,68 87,145 87,232l0 2507z"/>
  <path class="fil21" d="M11136 34702c0,165 -109,248 -328,248l-1983 0c-94,0 -166,-25 -215,-74 -49,-48 -73,-110 -73,-184l0 -2710c0,-155 91,-233 273,-233l2089 0c158,0 237,78 237,232l0 829c0,64 -21,113 -63,148 -43,36 -93,53 -151,53 -68,0 -126,-15 -176,-45 -50,-30 -74,-77 -74,-141l0 -450c0,-51 -17,-95 -50,-131 -33,-37 -79,-55 -136,-55l-1299 0c-54,0 -98,14 -133,43 -35,28 -53,64 -53,108l0 650c0,30 9,58 26,83 16,25 58,63 123,113l70 50c44,30 77,65 103,103 24,39 37,82 37,129l0 846c0,50 12,95 38,136 25,40 64,60 117,60l946 0c57,0 106,-19 148,-58 42,-38 63,-83 63,-133l0 -434c0,-48 23,-87 69,-119 45,-32 103,-48 171,-48 58,0 110,17 155,50 47,34 69,78 69,132l0 802z"/>
  <path id="1" class="fil21" d="M13650 34793c0,104 -54,157 -162,157l-1695 0c-108,0 -162,-53 -162,-157l0 -994c0,-118 59,-177 177,-177l1246 0c108,0 162,-40 162,-121l0 -227c0,-41 -15,-74 -46,-101 -30,-27 -69,-41 -116,-41l-772 0c-145,0 -217,64 -217,192 0,95 -55,142 -166,142l-142 0c-84,0 -126,-44 -126,-132l0 -368c0,-74 22,-135 66,-182 43,-47 101,-70 171,-70l1540 0c161,0 242,85 242,257l0 1822zm-434 -429l0 -192c0,-57 -24,-101 -71,-131 -47,-30 -106,-45 -176,-45l-359 0c-70,0 -127,16 -169,48 -42,31 -63,76 -63,133l0 182c0,47 22,88 66,121 43,34 101,51 171,51l354 0c67,0 125,-17 174,-51 49,-33 73,-72 73,-116z"/>
  <path id="2" class="fil21" d="M16063 34697c0,64 -23,122 -69,174 -45,52 -105,79 -179,79l-1196 0c-98,0 -146,48 -146,145l0 708c0,94 -56,141 -167,141l-141 0c-84,0 -126,-44 -126,-131l0 -2818c0,-187 101,-281 302,-281l1464 0c54,0 103,11 146,35 75,40 112,96 112,166l0 1782zm-435 -343l0 -1030c0,-128 -72,-192 -217,-192l-777 0c-47,0 -86,14 -116,41 -30,27 -45,60 -45,101l0 131c0,84 22,148 65,192l172 166c57,54 86,148 86,283l0 313c0,44 22,83 68,119 45,35 95,53 149,53l404 0c47,0 94,-21 141,-61 47,-40 70,-79 70,-116z"/>
  <path id="3" class="fil21" d="M18526 34692c0,77 -22,140 -66,187 -44,47 -103,71 -177,71l-1544 0c-71,0 -128,-23 -172,-69 -43,-45 -65,-106 -65,-184l0 -368c0,-88 42,-132 126,-132l141 0c108,0 162,48 162,142 0,128 74,192 222,192l454 0c108,0 162,-54 162,-162l0 -177c0,-40 -16,-74 -46,-101 -30,-26 -69,-40 -116,-40l-757 0c-111,0 -197,-25 -257,-76 -61,-50 -91,-121 -91,-212l0 -792c0,-77 22,-140 65,-187 44,-47 103,-70 177,-70l1544 0c71,0 128,22 172,68 44,45 66,107 66,184l0 368c0,88 -42,132 -127,132l-141 0c-111,0 -166,-47 -166,-142 0,-128 -73,-192 -218,-192l-777 0c-47,0 -86,15 -118,43 -32,29 -48,62 -48,99l0 187c0,114 69,171 207,171l1095 0c81,0 150,22 207,66 57,44 86,99 86,166l0 828z"/>
  <path class="fil21" d="M10840 39694c0,81 -20,136 -60,166 -41,31 -98,46 -172,46l-1549 0c-84,0 -148,-17 -192,-51 -44,-33 -66,-94 -66,-181l0 -2751c0,-145 78,-217 232,-217 88,0 148,17 182,50 34,34 51,91 51,172l0 1017c0,71 72,153 217,247 94,61 141,137 141,232l0 851c0,54 15,99 45,136 31,37 76,56 137,56l802 0c78,0 136,16 174,48 39,32 58,91 58,179z"/>
  <path id="1" class="fil21" d="M13329 39653c0,64 -23,122 -69,174 -45,53 -105,79 -179,79l-1474 0c-87,0 -159,-25 -216,-76 -58,-50 -86,-111 -86,-182l0 -1696c0,-188 101,-282 302,-282l1464 0c54,0 103,12 147,35 74,41 111,96 111,167l0 1781zm-434 -343l0 -1029c0,-128 -73,-192 -217,-192l-778 0c-47,0 -86,13 -116,40 -30,27 -45,61 -45,101l0 131c0,84 22,148 65,192l172 167c57,53 86,148 86,282l0 313c0,44 23,83 68,119 45,35 95,53 149,53l404 0c47,0 94,-20 141,-61 47,-40 71,-79 71,-116z"/>
  <path id="2" class="fil21" d="M15812 39653c0,74 -22,135 -66,182 -43,47 -101,71 -171,71l-1631 0c-104,0 -156,-49 -156,-147l0 -1832c0,-77 22,-139 66,-187 43,-47 102,-70 176,-70l1545 0c70,0 128,23 171,68 44,45 66,107 66,184l0 424c0,88 -42,131 -126,131l-142 0c-111,0 -166,-47 -166,-141l0 -55c0,-128 -72,-192 -217,-192l-777 0c-48,0 -86,13 -117,40 -30,27 -45,61 -45,101l0 131c0,84 22,148 66,192l171 167c57,53 86,148 86,282l0 313c0,44 23,83 68,119 46,35 95,53 149,53l399 0c145,0 217,-64 217,-192l0 -55c0,-95 55,-142 166,-142l142 0c84,0 126,44 126,131l0 424z"/>
  <path id="3" class="fil21" d="M18315 39775c0,87 -42,131 -126,131l-141 0c-111,0 -167,-47 -167,-142l0 -726c0,-128 -69,-192 -207,-192l-383 0c-71,0 -127,19 -169,58 -42,39 -63,87 -63,144l0 711c0,98 -53,147 -157,147l-444 0c-104,0 -157,-49 -157,-147l0 -2927c0,-84 43,-126 127,-126l176 0c88,0 132,42 132,126l0 1504c0,51 14,87 42,109 29,21 65,32 109,32l429 0c121,0 182,-64 182,-191l0 -475c0,-94 55,-141 166,-141l142 0c84,0 126,44 126,131l0 717 25 0c111,0 199,25 262,75 64,51 96,122 96,212l0 970z"/>
  <path class="fil21" d="M7799 65478c0,141 -94,212 -281,212l-1700 0c-81,0 -142,-21 -184,-63 -42,-42 -63,-94 -63,-158l0 -2323c0,-133 78,-199 234,-199l1791 0c135,0 203,66 203,198l0 711c0,55 -18,97 -55,127 -36,30 -79,45 -129,45 -58,0 -108,-13 -151,-38 -42,-26 -63,-66 -63,-121l0 -386c0,-44 -14,-81 -43,-112 -28,-32 -67,-48 -116,-48l-1114 0c-46,0 -84,13 -114,37 -30,25 -45,56 -45,93l0 557c0,26 7,50 22,71 13,22 49,54 106,97l60 43c37,26 66,55 87,89 21,33 32,70 32,110l0 725c0,43 11,82 33,116 21,35 55,52 101,52l810 0c49,0 91,-16 127,-49 36,-34 54,-72 54,-115l0 -372c0,-40 19,-74 59,-102 39,-27 88,-41 146,-41 50,0 95,15 134,43 40,29 59,67 59,113l0 688z"/>
  <path id="1" class="fil21" d="M10382 63142c0,69 -18,116 -52,142 -35,26 -84,39 -147,39l-545 0c-55,0 -101,15 -139,44 -37,28 -56,64 -56,108l0 535c0,46 22,89 65,130 14,14 52,41 112,82 38,26 67,55 89,88 22,33 33,70 33,110l0 1084c0,52 -19,96 -55,132 -36,36 -83,54 -140,54l-286 0c-78,0 -133,-12 -166,-35 -33,-23 -50,-71 -50,-143l0 -2046c0,-43 -17,-78 -52,-104 -35,-26 -78,-39 -130,-39l-545 0c-66,0 -114,-10 -143,-30 -37,-29 -56,-79 -56,-151 0,-75 16,-127 48,-154 31,-27 82,-41 151,-41l1865 0c66,0 116,14 149,41 33,27 50,79 50,154z"/>
  <path id="2" class="fil21" d="M12618 65508c0,69 -17,117 -52,143 -34,26 -83,39 -147,39l-1492 0c-72,0 -126,-15 -162,-46 -36,-30 -54,-84 -54,-162l0 -2319c0,-144 93,-216 281,-216l1367 0c66,0 116,14 149,41 33,27 50,79 50,154 0,69 -17,116 -52,142 -35,26 -83,39 -146,39l-1079 0c-51,0 -93,15 -125,44 -32,28 -48,62 -48,103l0 520c0,44 11,72 31,86 20,14 56,22 107,22l1101 0c66,0 115,13 148,41 33,27 50,78 50,153 0,70 -17,117 -52,143 -35,26 -84,39 -147,39l-740 0c-130,0 -195,61 -195,182l0 463c0,46 15,90 44,132 28,41 67,62 116,62l848 0c67,0 116,14 150,41 33,28 49,79 49,154z"/>
  <path id="3" class="fil21" d="M14855 64259c0,63 -25,113 -76,152 -50,39 -117,59 -201,59l-688 0c-132,0 -199,62 -199,186l0 848c0,52 -18,96 -54,132 -36,36 -81,54 -136,54l-294 0c-145,0 -217,-71 -217,-212l0 -2310c0,-147 96,-221 286,-221l1332 0c84,0 146,22 186,65 41,43 61,97 61,163l0 1084zm-398 -316l0 -473c0,-41 -10,-75 -30,-103 -20,-29 -52,-44 -95,-44l-750 0c-52,0 -97,15 -135,46 -39,29 -59,65 -59,105l0 469c0,100 54,150 160,150l745 0c109,0 164,-50 164,-150z"/>
  <path id="4" class="fil21" d="M17139 65508c0,69 -17,117 -52,143 -34,26 -83,39 -147,39l-1492 0c-72,0 -127,-15 -163,-46 -36,-30 -54,-84 -54,-162l0 -2319c0,-144 94,-216 281,-216l1368 0c66,0 116,14 149,41 33,27 50,79 50,154 0,69 -18,116 -52,142 -35,26 -83,39 -147,39l-1078 0c-52,0 -93,15 -125,44 -32,28 -48,62 -48,103l0 520c0,44 10,72 31,86 20,14 56,22 107,22l1100 0c67,0 116,13 149,41 33,27 50,78 50,153 0,70 -18,117 -52,143 -35,26 -84,39 -147,39l-740 0c-130,0 -195,61 -195,182l0 463c0,46 15,90 43,132 29,41 68,62 117,62l848 0c66,0 116,14 149,41 34,28 50,79 50,154z"/>
  <path id="5" class="fil21" d="M19683 63142c0,69 -17,116 -52,142 -35,26 -84,39 -147,39l-545 0c-55,0 -101,15 -139,44 -37,28 -56,64 -56,108l0 535c0,46 22,89 65,130 14,14 52,41 112,82 38,26 68,55 89,88 22,33 33,70 33,110l0 1084c0,52 -18,96 -54,132 -36,36 -83,54 -141,54l-286 0c-77,0 -133,-12 -166,-35 -33,-23 -50,-71 -50,-143l0 -2046c0,-43 -17,-78 -52,-104 -34,-26 -78,-39 -130,-39l-545 0c-66,0 -114,-10 -142,-30 -38,-29 -57,-79 -57,-151 0,-75 16,-127 48,-154 32,-27 82,-41 151,-41l1865 0c66,0 116,14 149,41 33,27 50,79 50,154z"/>
  <path id="6" class="fil21" d="M22214 65486c0,61 -28,110 -82,148 -55,37 -126,56 -212,56l-1640 0c-144,0 -216,-69 -216,-208l0 -2349c0,-124 66,-186 199,-186 75,0 127,14 155,43 29,29 44,77 44,147l0 801c0,47 17,83 51,112 35,29 77,43 126,43l1384 0c49,0 93,17 132,50 39,33 59,73 59,119l0 1224zm-398 -315l0 -558c0,-96 -46,-143 -139,-143l-718 0c-127,0 -190,59 -190,177l0 511c0,43 13,80 41,110 27,30 65,45 115,45l718 0c43,0 83,-15 119,-45 36,-30 54,-63 54,-97z"/>
  <path id="7" class="fil21" d="M25995 65486c0,61 -26,110 -78,148 -52,37 -120,56 -203,56l-1727 0c-75,0 -130,-15 -166,-46 -36,-30 -54,-84 -54,-162l0 -2319c0,-144 92,-216 277,-216l1345 0c81,0 142,21 184,63 42,41 63,95 63,161l0 806c0,98 30,147 91,147l86 0c49,0 92,16 128,49 36,34 54,73 54,119l0 1194zm-757 -1513l0 -503c0,-41 -12,-75 -35,-103 -23,-29 -58,-44 -104,-44l-740 0c-51,0 -97,15 -136,44 -39,28 -58,64 -58,107l0 499c0,40 11,70 34,90 23,20 71,30 143,30l710 0c49,0 92,-11 129,-34 38,-23 57,-51 57,-86zm359 1215l0 -571c0,-41 -12,-75 -35,-104 -23,-29 -58,-43 -104,-43l-795 0c-52,0 -97,14 -135,43 -37,29 -56,65 -56,108l0 541c0,43 17,79 52,108 34,29 77,43 126,43l764 0c52,0 96,-11 131,-34 34,-23 52,-54 52,-91z"/>
  <path id="8" class="fil21" d="M28655 65478c0,141 -93,212 -281,212l-1700 0c-81,0 -142,-21 -184,-63 -42,-42 -63,-94 -63,-158l0 -2323c0,-133 78,-199 234,-199l1791 0c136,0 203,66 203,198l0 711c0,55 -18,97 -54,127 -37,30 -80,45 -130,45 -58,0 -108,-13 -150,-38 -43,-26 -64,-66 -64,-121l0 -386c0,-44 -14,-81 -43,-112 -28,-32 -67,-48 -116,-48l-1113 0c-46,0 -85,13 -114,37 -31,25 -46,56 -46,93l0 557c0,26 8,50 22,71 14,22 50,54 106,97l60 43c37,26 66,55 88,89 21,33 32,70 32,110l0 725c0,43 10,82 32,116 22,35 56,52 101,52l810 0c49,0 91,-16 127,-49 36,-34 54,-72 54,-115l0 -372c0,-40 20,-74 59,-102 39,-27 88,-41 147,-41 50,0 94,15 133,43 40,29 59,67 59,113l0 688z"/>
  <path id="9" class="fil21" d="M30974 65508c0,69 -17,117 -52,143 -34,26 -83,39 -147,39l-1492 0c-72,0 -126,-15 -163,-46 -36,-30 -54,-84 -54,-162l0 -2319c0,-144 94,-216 282,-216l1367 0c66,0 116,14 149,41 33,27 50,79 50,154 0,69 -18,116 -52,142 -35,26 -83,39 -147,39l-1078 0c-51,0 -93,15 -125,44 -32,28 -48,62 -48,103l0 520c0,44 10,72 31,86 20,14 56,22 107,22l1100 0c67,0 116,13 149,41 33,27 50,78 50,153 0,70 -18,117 -52,143 -35,26 -84,39 -147,39l-740 0c-130,0 -195,61 -195,182l0 463c0,46 15,90 43,132 29,41 68,62 117,62l848 0c66,0 116,14 149,41 34,28 50,79 50,154z"/>
  <path class="fil21" d="M172184 65385c0,60 -23,109 -69,147 -47,37 -108,56 -183,56l-1546 0c-67,0 -117,-15 -150,-45 -32,-31 -48,-85 -48,-163l0 -2318c0,-145 83,-217 248,-217l1206 0c72,0 127,21 164,63 38,41 57,95 57,162l0 806c0,97 27,146 81,146l78 0c44,0 82,17 114,50 32,33 48,73 48,119l0 1194zm-678 -1514l0 -503c0,-40 -10,-75 -31,-103 -21,-29 -52,-43 -93,-43l-663 0c-46,0 -87,14 -122,43 -35,28 -52,64 -52,107l0 499c0,41 10,70 31,91 20,20 63,30 128,30l635 0c44,0 83,-12 117,-35 33,-23 50,-51 50,-86zm322 1215l0 -571c0,-40 -11,-75 -31,-104 -21,-28 -52,-43 -94,-43l-712 0c-46,0 -87,15 -121,43 -33,29 -50,65 -50,109l0 540c0,44 15,80 46,109 31,28 70,43 113,43l685 0c47,0 86,-12 117,-35 31,-23 47,-53 47,-91z"/>
  <path id="1" class="fil21" d="M175638 65380c0,58 -14,107 -44,148 -30,40 -72,60 -126,60l-268 0c-67,0 -117,-13 -149,-39 -32,-26 -48,-75 -48,-147l0 -2375c0,-66 13,-113 38,-141 26,-27 71,-41 136,-41 65,0 111,15 140,44 28,28 42,76 42,142l0 877c0,26 7,50 20,72 13,20 45,53 97,96l54 43c34,26 60,56 79,89 20,33 29,70 29,110l0 1062zm-1093 0c0,61 -24,111 -71,150 -48,39 -111,58 -189,58l-1473 0c-129,0 -193,-69 -193,-208l0 -2349c0,-124 59,-186 178,-186 67,0 114,15 139,44 26,28 39,77 39,146l0 802c0,46 16,83 47,112 31,28 68,43 112,43l1245 0c41,0 79,16 114,50 35,33 52,71 52,114l0 1224zm-356 -315l0 -555c0,-94 -42,-142 -124,-142l-644 0c-114,0 -171,59 -171,177l0 507c0,106 47,160 140,160l643 0c39,0 75,-15 107,-46 32,-29 49,-63 49,-101z"/>
  <path id="2" class="fil21" d="M178305 65787c0,61 -16,105 -48,132 -32,28 -77,41 -134,41l-260 0c-126,0 -189,-65 -189,-194l0 -178 -997 0 0 178c0,129 -63,194 -190,194l-259 0c-122,0 -183,-57 -183,-173l0 -579c0,-42 9,-78 26,-107 16,-29 44,-59 83,-91l54 -43c49,-44 80,-75 93,-93 13,-19 20,-44 20,-76l0 -1741c0,-141 84,-212 252,-212l1256 0c69,0 120,20 153,59 32,39 48,93 48,162l0 1732c0,43 18,82 54,117 13,11 33,29 59,52l54 43c34,26 60,55 79,89 20,33 29,70 29,109l0 579zm-631 -722l0 -1701c0,-95 -44,-142 -132,-142l-721 0c-34,0 -62,7 -85,21 -39,26 -59,66 -59,121l0 1701c0,98 48,147 144,147l721 0c36,0 67,-15 93,-43 26,-29 39,-63 39,-104z"/>
  <path id="3" class="fil21" d="M180407 65406c0,70 -16,117 -47,143 -31,26 -75,39 -132,39l-1337 0c-65,0 -113,-15 -146,-45 -32,-31 -48,-85 -48,-163l0 -2318c0,-145 84,-217 252,-217l1225 0c59,0 104,14 134,41 29,28 44,79 44,154 0,69 -15,117 -46,143 -31,26 -75,39 -131,39l-967 0c-46,0 -83,14 -112,43 -28,28 -43,63 -43,103l0 521c0,43 10,71 28,86 18,14 50,21 96,21l986 0c59,0 103,14 133,41 30,28 45,79 45,154 0,69 -16,117 -47,143 -31,25 -75,38 -132,38l-663 0c-116,0 -174,61 -174,182l0 463c0,46 13,90 39,132 26,42 60,63 104,63l760 0c60,0 104,13 134,41 30,27 45,78 45,153z"/>
  <path id="4" class="fil21" d="M182732 65376c0,142 -59,212 -178,212 -119,0 -178,-69 -178,-207l0 -2012c0,-41 -10,-75 -29,-104 -20,-29 -50,-43 -91,-43l-745 0c-90,0 -135,49 -135,147l0 2024c0,130 -64,195 -190,195l-260 0c-122,0 -182,-57 -182,-173l0 -1097c0,-40 10,-76 29,-108 19,-32 47,-62 83,-91l54 -43c47,-40 71,-62 74,-65 23,-28 35,-62 35,-103l0 -833c0,-67 17,-122 50,-165 34,-43 87,-65 159,-65l1283 0c81,0 138,19 171,57 34,37 50,95 50,173l0 2301z"/>
  <path id="5" class="fil21" d="M185066 65368c0,63 -19,116 -56,157 -38,42 -94,63 -169,63l-1484 0c-171,0 -256,-70 -256,-212l0 -2340c0,-67 13,-115 40,-145 28,-31 73,-46 138,-46 67,0 114,13 140,39 25,26 38,75 38,147l0 2021c0,43 18,80 55,112 36,32 77,48 124,48l670 0c36,0 68,-17 95,-50 27,-33 41,-70 41,-110l0 -734c0,-78 35,-144 105,-199l54 -43c46,-40 71,-62 74,-65 23,-29 34,-63 34,-104l0 -871c0,-67 14,-115 41,-145 27,-31 73,-46 138,-46 67,0 113,13 139,39 26,26 39,75 39,147l0 2337z"/>
  <path id="6" class="fil21" d="M187400 63040c0,69 -16,117 -47,143 -31,26 -75,39 -132,39l-488 0c-49,0 -91,14 -124,43 -34,29 -51,65 -51,108l0 535c0,46 20,90 59,130 13,14 46,42 100,82 34,26 60,56 80,89 19,32 29,69 29,109l0 1084c0,52 -16,96 -49,132 -32,36 -74,54 -126,54l-255 0c-70,0 -120,-11 -150,-34 -29,-23 -44,-71 -44,-143l0 -2047c0,-43 -16,-77 -47,-103 -31,-26 -69,-39 -116,-39l-488 0c-60,0 -103,-10 -128,-31 -34,-28 -51,-79 -51,-151 0,-75 14,-126 43,-154 28,-27 73,-41 136,-41l1670 0c60,0 104,14 134,41 30,28 45,79 45,154z"/>
  <path id="7" class="fil21" d="M189667 65385c0,60 -24,109 -73,147 -49,37 -113,56 -190,56l-1469 0c-130,0 -194,-69 -194,-208l0 -2349c0,-124 59,-186 178,-186 67,0 114,15 140,44 25,28 38,77 38,146l0 802c0,46 16,83 47,112 31,28 68,43 112,43l1241 0c44,0 83,16 118,50 35,33 52,72 52,118l0 1225zm-356 -316l0 -558c0,-95 -42,-143 -124,-143l-644 0c-114,0 -170,59 -170,178l0 510c0,43 12,80 36,110 25,31 59,46 103,46l644 0c38,0 74,-15 106,-46 33,-30 49,-62 49,-97z"/>
  <path id="8" class="fil21" d="M193056 65385c0,60 -24,109 -70,147 -47,37 -107,56 -182,56l-1547 0c-67,0 -117,-15 -150,-45 -32,-31 -48,-85 -48,-163l0 -2318c0,-145 83,-217 248,-217l1206 0c72,0 127,21 164,63 38,41 57,95 57,162l0 806c0,97 27,146 81,146l78 0c44,0 82,17 114,50 32,33 49,73 49,119l0 1194zm-679 -1514l0 -503c0,-40 -10,-75 -31,-103 -21,-29 -52,-43 -93,-43l-663 0c-46,0 -87,14 -122,43 -35,28 -52,64 -52,107l0 499c0,41 10,70 31,91 20,20 63,30 128,30l635 0c44,0 83,-12 117,-35 33,-23 50,-51 50,-86zm322 1215l0 -571c0,-40 -11,-75 -31,-104 -21,-28 -52,-43 -94,-43l-712 0c-46,0 -87,15 -121,43 -33,29 -50,65 -50,109l0 540c0,44 15,80 47,109 30,28 69,43 112,43l685 0c47,0 86,-12 117,-35 31,-23 47,-53 47,-91z"/>
  <path id="9" class="fil21" d="M195440 65376c0,142 -84,212 -252,212l-1524 0c-72,0 -127,-21 -165,-63 -37,-41 -56,-94 -56,-157l0 -2324c0,-132 70,-199 209,-199l1605 0c122,0 183,67 183,199l0 711c0,54 -17,96 -50,127 -32,30 -71,45 -115,45 -53,0 -97,-13 -135,-39 -38,-25 -57,-66 -57,-120l0 -387c0,-43 -13,-81 -39,-112 -25,-31 -60,-47 -104,-47l-997 0c-42,0 -76,12 -103,37 -27,24 -40,55 -40,93l0 556c0,26 6,50 19,72 12,21 45,54 95,96l54 43c33,26 59,56 78,89 19,33 29,70 29,110l0 725c0,43 10,82 29,117 19,35 50,52 90,52l727 0c44,0 81,-17 113,-50 33,-33 49,-71 49,-115l0 -372c0,-40 17,-74 53,-101 35,-28 79,-41 131,-41 45,0 85,14 120,43 35,29 53,66 53,112l0 688z"/>
  <path id="10" class="fil21" d="M197517 65406c0,70 -15,117 -46,143 -31,26 -75,39 -132,39l-1337 0c-65,0 -113,-15 -146,-45 -32,-31 -48,-85 -48,-163l0 -2318c0,-145 84,-217 252,-217l1225 0c59,0 104,14 134,41 29,28 44,79 44,154 0,69 -15,117 -46,143 -31,26 -75,39 -132,39l-966 0c-46,0 -83,14 -112,43 -28,28 -43,63 -43,103l0 521c0,43 9,71 28,86 18,14 50,21 96,21l986 0c59,0 103,14 133,41 30,28 44,79 44,154 0,69 -15,117 -46,143 -31,25 -75,38 -132,38l-663 0c-116,0 -174,61 -174,182l0 463c0,46 13,90 39,132 25,42 60,63 104,63l760 0c59,0 104,13 134,41 29,27 44,78 44,153z"/>
  <circle class="fil22" cx="4490" cy="36075" r="1493"/>
  <circle class="fil23" cx="39974" cy="63945" r="1493"/>
  <circle class="fil24" cx="61131" cy="63945" r="1493"/>
  <path class="fil25" d="M187039 7664l1162 1494c276,353 816,694 1274,694l4331 0c393,0 718,-324 718,-718l0 -2881c0,-394 -324,-718 -718,-718l-4331 0c-459,0 -1015,319 -1295,675l-1141 1454zm2436 -2385l4370 0c536,0 974,439 974,974l0 2881c0,535 -439,973 -974,973l-4370 0c-534,0 -1147,-371 -1475,-793l-1285 -1651 1264 -1611c331,-421 961,-773 1496,-773z"/>
  <polygon class="fil25" points="190209,8667 190533,8991 191569,7955 192656,9042 192867,8831 191780,7744 192821,6703 192497,6379 191456,7420 190380,6345 190170,6556 191245,7631 "/>
  <g id="_530626096">
   <path class="fil26" d="M189833 34438c50,-33 103,-50 158,-50 101,0 194,63 280,188 87,125 130,242 130,348 0,111 -70,200 -209,267l-2205 1105 2171 1114c140,67 209,159 209,276 0,111 -43,229 -129,352 -86,122 -177,184 -272,184 -39,0 -94,-20 -167,-59l-2639 -1331c-111,-55 -194,-122 -247,-201 -52,-78 -79,-187 -79,-326 0,-234 120,-414 359,-536l2640 -1331z"/>
   <path class="fil26" d="M194553 33315c134,0 226,33 276,100 50,67 75,162 75,284l0 2564c0,139 -28,245 -83,318 -56,72 -156,108 -301,108l-6164 0c-239,0 -359,-128 -359,-384 0,-145 28,-245 84,-301 55,-55 150,-83 284,-83l3294 0c117,0 254,-120 409,-359 101,-156 227,-234 383,-234l1409 0c89,0 164,-25 225,-75 62,-51 92,-126 92,-226l0 -1328c0,-128 27,-224 80,-288 53,-64 151,-96 296,-96z"/>
  </g>
  <g id="_530626696">
   <path class="fil25" d="M189257 48918c32,48 48,99 48,152 0,96 -60,185 -180,267 -119,82 -231,124 -332,124 -106,0 -191,-67 -255,-200l-1055 -2105 -1064 2073c-63,133 -151,200 -263,200 -106,0 -219,-41 -336,-124 -117,-82 -175,-169 -175,-259 0,-37 18,-90 55,-160l1271 -2519c53,-107 117,-185 193,-236 74,-50 178,-75 311,-75 223,0 394,114 511,342l1271 2520z"/>
   <path class="fil25" d="M188407 53425c0,128 -32,215 -96,263 -64,48 -155,72 -271,72l-526 0c-132,0 -234,-27 -303,-80 -69,-53 -103,-117 -103,-255l0 -5916c0,-229 122,-343 367,-343 138,0 233,26 287,80 53,53 79,143 79,271l0 3145c0,111 114,242 343,391 149,96 223,216 223,365l0 1345 0 662z"/>
  </g>
  <g id="_530627296">
   <path class="fil25" d="M16294 48918c32,48 48,99 48,152 0,96 -60,185 -179,267 -120,82 -232,124 -333,124 -106,0 -191,-67 -255,-200l-1055 -2105 -1063 2073c-64,133 -152,200 -264,200 -106,0 -219,-41 -336,-124 -117,-82 -175,-169 -175,-259 0,-37 18,-90 56,-160l1270 -2519c53,-107 117,-185 193,-236 74,-50 178,-75 311,-75 223,0 395,114 512,342l1270 2520z"/>
   <path class="fil25" d="M15444 53425c0,128 -32,215 -96,263 -64,48 -154,72 -271,72l-525 0c-133,0 -234,-27 -304,-80 -69,-53 -103,-117 -103,-255l0 -5916c0,-229 122,-343 367,-343 138,0 234,26 287,80 53,53 79,143 79,271l0 3145c0,111 114,242 343,391 149,96 224,216 224,365l0 1345 -1 662z"/>
  </g>
  <path class="fil27" d="M96163 64360c68,0 132,33 192,98 60,66 90,135 90,208l0 1295 9095 0 0 -1083c0,-79 24,-149 71,-212 47,-63 118,-94 212,-94 209,0 313,102 313,306l0 1522c0,199 -68,298 -204,298l-9895 0c-62,0 -117,-31 -164,-94 -47,-63 -71,-136 -71,-220l0 -1742c0,-52 29,-107 86,-164 79,-79 170,-118 275,-118z"/>
 </g>
</svg>
