<?xml version="1.0" encoding="UTF-8"?>
<!DOCTYPE svg PUBLIC "-//W3C//DTD SVG 1.1//EN" "http://www.w3.org/Graphics/SVG/1.1/DTD/svg11.dtd">
<!-- Creator: CorelDRAW X6 -->
<svg xmlns="http://www.w3.org/2000/svg" xml:space="preserve" width="197.52mm" height="70.1mm" version="1.1" style="shape-rendering:geometricPrecision; text-rendering:geometricPrecision; image-rendering:optimizeQuality; fill-rule:evenodd; clip-rule:evenodd"
viewBox="0 0 20132 7145"
 xmlns:xlink="http://www.w3.org/1999/xlink">
 <defs>
  <style type="text/css">
   <![CDATA[
    .fil27 {fill:#FEFEFE}
    .fil1 {fill:black}
    .fil30 {fill:#9996FF}
    .fil26 {fill:#FF0033}
    .fil25 {fill:white}
    .fil23 {fill:#6399F1;fill-rule:nonzero}
    .fil24 {fill:#77A4FF;fill-rule:nonzero}
    .fil22 {fill:#9996FF;fill-rule:nonzero}
    .fil28 {fill:#999FFF;fill-rule:nonzero}
    .fil29 {fill:#ED1E92;fill-rule:nonzero}
    .fil3 {fill:url(#id0)}
    .fil6 {fill:url(#id1)}
    .fil4 {fill:url(#id2)}
    .fil5 {fill:url(#id3)}
    .fil8 {fill:url(#id4)}
    .fil9 {fill:url(#id5)}
    .fil7 {fill:url(#id6)}
    .fil2 {fill:url(#id7)}
    .fil19 {fill:url(#id8)}
    .fil18 {fill:url(#id9)}
    .fil20 {fill:url(#id10)}
    .fil15 {fill:url(#id11)}
    .fil13 {fill:url(#id12)}
    .fil10 {fill:url(#id13)}
    .fil12 {fill:url(#id14)}
    .fil11 {fill:url(#id15)}
    .fil16 {fill:url(#id16)}
    .fil14 {fill:url(#id17)}
    .fil0 {fill:url(#id18)}
    .fil17 {fill:url(#id19)}
    .fil21 {fill:url(#id20)}
   ]]>
  </style>
  <linearGradient id="id0" gradientUnits="userSpaceOnUse" x1="158.801" y1="5778.93" x2="3469.28" y2="6975.42">
   <stop offset="0" style="stop-color:#6399F1"/>
   <stop offset="0.301961" style="stop-color:#273F6F"/>
   <stop offset="0.439216" style="stop-color:#557CC1"/>
   <stop offset="0.470588" style="stop-color:#C0D1FD"/>
   <stop offset="0.768627" style="stop-color:#4E77B7"/>
   <stop offset="0.890196" style="stop-color:#9996FF"/>
   <stop offset="1" style="stop-color:#77A4FF"/>
  </linearGradient>
  <linearGradient id="id1" gradientUnits="userSpaceOnUse" xlink:href="#id0" x1="17354.6" y1="4490.05" x2="20037.3" y2="5459.63">
  </linearGradient>
  <linearGradient id="id2" gradientUnits="userSpaceOnUse" xlink:href="#id0" x1="16696.1" y1="5784.34" x2="19976.7" y2="6970">
  </linearGradient>
  <linearGradient id="id3" gradientUnits="objectBoundingBox" xlink:href="#id0" x1="1.18349%" y1="13.4203%" x2="98.8161%" y2="86.5797%">
  </linearGradient>
  <linearGradient id="id4" gradientUnits="userSpaceOnUse" xlink:href="#id0" x1="60.0651" y1="3198.49" x2="2129.74" y2="3946.53">
  </linearGradient>
  <linearGradient id="id5" gradientUnits="userSpaceOnUse" xlink:href="#id0" x1="18002.7" y1="393.832" x2="20072.4" y2="1141.87">
  </linearGradient>
  <linearGradient id="id6" gradientUnits="userSpaceOnUse" xlink:href="#id0" x1="18002.7" y1="3198.49" x2="20072.4" y2="3946.53">
  </linearGradient>
  <linearGradient id="id7" gradientUnits="userSpaceOnUse" xlink:href="#id0" x1="6968.65" y1="5257.64" x2="13163.8" y2="7496.71">
  </linearGradient>
  <linearGradient id="id8" gradientUnits="objectBoundingBox" xlink:href="#id0" x1="0%" y1="30.4164%" x2="104.186%" y2="69.5836%">
  </linearGradient>
  <linearGradient id="id9" gradientUnits="objectBoundingBox" xlink:href="#id0" x1="0%" y1="30.4164%" x2="104.186%" y2="69.5836%">
  </linearGradient>
  <linearGradient id="id10" gradientUnits="objectBoundingBox" xlink:href="#id0" x1="0%" y1="30.4171%" x2="104.186%" y2="69.5829%">
  </linearGradient>
  <linearGradient id="id11" gradientUnits="objectBoundingBox" xlink:href="#id0" x1="0%" y1="30.8514%" x2="102.982%" y2="69.1486%">
  </linearGradient>
  <linearGradient id="id12" gradientUnits="objectBoundingBox" xlink:href="#id0" x1="0%" y1="30.8514%" x2="102.982%" y2="69.1486%">
  </linearGradient>
  <linearGradient id="id13" gradientUnits="objectBoundingBox" xlink:href="#id0" x1="0%" y1="30.8514%" x2="102.982%" y2="69.1486%">
  </linearGradient>
  <linearGradient id="id14" gradientUnits="objectBoundingBox" xlink:href="#id0" x1="0%" y1="30.8514%" x2="102.982%" y2="69.1486%">
  </linearGradient>
  <linearGradient id="id15" gradientUnits="userSpaceOnUse" xlink:href="#id0" x1="10812.5" y1="3315.91" x2="12232.5" y2="3829.11">
  </linearGradient>
  <linearGradient id="id16" gradientUnits="userSpaceOnUse" xlink:href="#id0" x1="16565.7" y1="511.251" x2="17985.6" y2="1024.45">
  </linearGradient>
  <linearGradient id="id17" gradientUnits="userSpaceOnUse" xlink:href="#id0" x1="16565.7" y1="3315.91" x2="17985.6" y2="3829.11">
  </linearGradient>
  <linearGradient id="id18" gradientUnits="userSpaceOnUse" x1="4342.6" y1="-2501.39" x2="15789.8" y2="9646.4">
   <stop offset="0" style="stop-color:#6196ED"/>
   <stop offset="0.301961" style="stop-color:#273F6F"/>
   <stop offset="0.439216" style="stop-color:#537ABF"/>
   <stop offset="0.470588" style="stop-color:#B4C7F6"/>
   <stop offset="0.768627" style="stop-color:#5E7DC7"/>
   <stop offset="0.890196" style="stop-color:#9896FF"/>
   <stop offset="1" style="stop-color:#7DA1FF"/>
  </linearGradient>
  <linearGradient id="id19" gradientUnits="userSpaceOnUse" xlink:href="#id0" x1="760.624" y1="517.081" x2="2148.33" y2="1018.62">
  </linearGradient>
  <linearGradient id="id20" gradientUnits="userSpaceOnUse" xlink:href="#id0" x1="24.4113" y1="626.815" x2="803.433" y2="908.376">
  </linearGradient>
 </defs>
 <g id="Layer_x0020_1">
  <metadata id="CorelCorpID_0Corel-Layer"/>
  <g id="_655609008">
   <rect class="fil0" width="20132" height="7145" rx="245" ry="255"/>
   <rect class="fil1" x="51" y="51" width="20031" height="7043" rx="204" ry="204"/>
  </g>
  <g id="_655603296">
   <path class="fil2" d="M6502 5892c0,-107 78,-185 184,-185l6760 0c107,0 185,78 185,185l0 971c0,106 -78,184 -185,184l-6760 0c-106,0 -184,-78 -184,-184l0 -971z"/>
   <path class="fil3" d="M65 5892c0,-107 78,-185 185,-185l3128 0c107,0 185,78 185,185l0 971c0,106 -78,184 -185,184l-3128 0c-107,0 -185,-78 -185,-184l0 -971z"/>
   <path class="fil4" d="M16606 5892c0,-107 78,-185 184,-185l3093 0c106,0 184,78 184,185l0 971c0,106 -78,184 -184,184l-3093 0c-106,0 -184,-78 -184,-184l0 -971z"/>
   <path class="fil5" d="M3661 5892c0,-107 78,-185 185,-185l2409 0c106,0 184,78 184,185l0 971c0,106 -78,184 -184,184l-2409 0c-107,0 -185,-78 -185,-184l0 -971z"/>
   <path class="fil5" d="M65 4489c0,-106 78,-184 185,-184l2409 0c107,0 185,78 185,184l0 971c0,107 -78,185 -185,185l-2409 0c-107,0 -185,-78 -185,-185l0 -971z"/>
   <path class="fil6" d="M17325 4489c0,-106 78,-184 184,-184l2374 0c106,0 184,78 184,184l0 971c0,107 -78,185 -184,185l-2374 0c-106,0 -184,-78 -184,-185l0 -971z"/>
   <path class="fil7" d="M18008 3087c0,-107 78,-185 185,-185l1690 0c106,0 184,78 184,185l0 971c0,107 -78,185 -184,185l-1690 0c-107,0 -185,-78 -185,-185l0 -971z"/>
   <path class="fil8" d="M65 3087c0,-107 78,-185 185,-185l1690 0c107,0 184,78 184,185l0 971c0,107 -77,185 -184,185l-1690 0c-107,0 -185,-78 -185,-185l0 -971z"/>
   <path class="fil9" d="M18008 282c0,-106 78,-184 185,-184l1690 0c106,0 184,78 184,184l0 971c0,107 -78,185 -184,185l-1690 0c-107,0 -185,-78 -185,-185l0 -971z"/>
   <path class="fil10" d="M9414 3087c0,-107 78,-185 185,-185l971 0c106,0 184,78 184,185l0 971c0,107 -78,185 -184,185l-971 0c-107,0 -185,-78 -185,-185l0 -971z"/>
   <path class="fil11" d="M10852 3087c0,-107 78,-185 185,-185l971 0c107,0 185,78 185,185l0 971c0,107 -78,185 -185,185l-971 0c-107,0 -185,-78 -185,-185l0 -971z"/>
   <path class="fil12" d="M10852 282c0,-106 78,-184 185,-184l971 0c107,0 185,78 185,184l0 971c0,107 -78,185 -185,185l-971 0c-107,0 -185,-78 -185,-185l0 -971z"/>
   <path class="fil13" d="M9414 282c0,-106 78,-184 185,-184l971 0c106,0 184,78 184,184l0 971c0,107 -78,185 -184,185l-971 0c-107,0 -185,-78 -185,-185l0 -971z"/>
   <path class="fil14" d="M16606 3087c0,-107 78,-185 184,-185l971 0c107,0 185,78 185,185l0 971c0,107 -78,185 -185,185l-971 0c-106,0 -184,-78 -184,-185l0 -971z"/>
   <path class="fil10" d="M15167 3087c0,-107 78,-185 185,-185l971 0c106,0 184,78 184,185l0 971c0,107 -78,185 -184,185l-971 0c-107,0 -185,-78 -185,-185l0 -971z"/>
   <path class="fil10" d="M3661 3087c0,-107 78,-185 185,-185l970 0c107,0 185,78 185,185l0 971c0,107 -78,185 -185,185l-970 0c-107,0 -185,-78 -185,-185l0 -971z"/>
   <path class="fil10" d="M5099 3087c0,-107 78,-185 185,-185l971 0c106,0 184,78 184,185l0 971c0,107 -78,185 -184,185l-971 0c-107,0 -185,-78 -185,-185l0 -971z"/>
   <path class="fil10" d="M6538 3087c0,-107 78,-185 184,-185l971 0c107,0 185,78 185,185l0 971c0,107 -78,185 -185,185l-971 0c-106,0 -184,-78 -184,-185l0 -971z"/>
   <path class="fil15" d="M7252 1685c0,-107 78,-185 185,-185l970 0c107,0 185,78 185,185l0 971c0,106 -78,184 -185,184l-970 0c-107,0 -185,-78 -185,-184l0 -971z"/>
   <path class="fil15" d="M8690 1685c0,-107 78,-185 185,-185l971 0c106,0 184,78 184,185l0 971c0,106 -78,184 -184,184l-971 0c-107,0 -185,-78 -185,-184l0 -971z"/>
   <path class="fil12" d="M17325 1685c0,-107 78,-185 184,-185l971 0c107,0 185,78 185,185l0 971c0,106 -78,184 -185,184l-971 0c-106,0 -184,-78 -184,-184l0 -971z"/>
   <path class="fil13" d="M10144 4489c0,-106 78,-184 185,-184l971 0c106,0 184,78 184,184l0 971c0,107 -78,185 -184,185l-971 0c-107,0 -185,-78 -185,-185l0 -971z"/>
   <path class="fil15" d="M8690 4489c0,-106 78,-184 185,-184l971 0c106,0 184,78 184,184l0 971c0,107 -78,185 -184,185l-971 0c-107,0 -185,-78 -185,-185l0 -971z"/>
   <path class="fil15" d="M7262 4489c0,-106 78,-184 185,-184l971 0c106,0 184,78 184,184l0 971c0,107 -78,185 -184,185l-971 0c-107,0 -185,-78 -185,-185l0 -971z"/>
   <path class="fil10" d="M7976 3087c0,-107 78,-185 184,-185l971 0c107,0 185,78 185,185l0 971c0,107 -78,185 -185,185l-971 0c-106,0 -184,-78 -184,-185l0 -971z"/>
   <path class="fil10" d="M12291 3087c0,-107 78,-185 184,-185l971 0c107,0 185,78 185,185l0 971c0,107 -78,185 -185,185l-971 0c-106,0 -184,-78 -184,-185l0 -971z"/>
   <path class="fil10" d="M13729 3087c0,-107 78,-185 185,-185l970 0c107,0 185,78 185,185l0 971c0,107 -78,185 -185,185l-970 0c-107,0 -185,-78 -185,-185l0 -971z"/>
   <path class="fil10" d="M2223 3087c0,-107 78,-185 184,-185l971 0c107,0 185,78 185,185l0 971c0,107 -78,185 -185,185l-971 0c-106,0 -184,-78 -184,-185l0 -971z"/>
   <path class="fil13" d="M3661 282c0,-106 78,-184 185,-184l970 0c107,0 185,78 185,184l0 971c0,107 -78,185 -185,185l-970 0c-107,0 -185,-78 -185,-185l0 -971z"/>
   <path class="fil13" d="M5099 282c0,-106 78,-184 185,-184l971 0c106,0 184,78 184,184l0 971c0,107 -78,185 -184,185l-971 0c-107,0 -185,-78 -185,-185l0 -971z"/>
   <path class="fil13" d="M6538 282c0,-106 78,-184 184,-184l971 0c107,0 185,78 185,184l0 971c0,107 -78,185 -185,185l-971 0c-106,0 -184,-78 -184,-185l0 -971z"/>
   <path class="fil13" d="M15167 282c0,-106 78,-184 185,-184l971 0c106,0 184,78 184,184l0 971c0,107 -78,185 -184,185l-971 0c-107,0 -185,-78 -185,-185l0 -971z"/>
   <path class="fil16" d="M16606 282c0,-106 78,-184 184,-184l971 0c107,0 185,78 185,184l0 971c0,107 -78,185 -185,185l-971 0c-106,0 -184,-78 -184,-185l0 -971z"/>
   <path class="fil13" d="M15167 5892c0,-107 78,-185 185,-185l971 0c106,0 184,78 184,185l0 971c0,106 -78,184 -184,184l-971 0c-107,0 -185,-78 -185,-184l0 -971z"/>
   <path class="fil13" d="M13729 5892c0,-107 78,-185 185,-185l970 0c107,0 185,78 185,185l0 971c0,106 -78,184 -185,184l-970 0c-107,0 -185,-78 -185,-184l0 -971z"/>
   <path class="fil17" d="M784 282c0,-106 78,-184 185,-184l971 0c107,0 184,78 184,184l0 971c0,107 -77,185 -184,185l-971 0c-107,0 -185,-78 -185,-185l0 -971z"/>
   <path class="fil18" d="M2223 282c0,-106 78,-184 184,-184l971 0c107,0 185,78 185,184l0 971c0,107 -78,185 -185,185l-971 0c-106,0 -184,-78 -184,-185l0 -971z"/>
   <path class="fil18" d="M7976 282c0,-106 78,-184 184,-184l971 0c107,0 185,78 185,184l0 971c0,107 -78,185 -185,185l-971 0c-106,0 -184,-78 -184,-185l0 -971z"/>
   <path class="fil18" d="M12291 282c0,-106 78,-184 184,-184l971 0c107,0 185,78 185,184l0 971c0,107 -78,185 -185,185l-971 0c-106,0 -184,-78 -184,-185l0 -971z"/>
   <path class="fil18" d="M13729 282c0,-106 78,-184 185,-184l970 0c107,0 185,78 185,184l0 971c0,107 -78,185 -185,185l-970 0c-107,0 -185,-78 -185,-185l0 -971z"/>
   <path class="fil19" d="M2937 1685c0,-107 78,-185 185,-185l971 0c106,0 184,78 184,185l0 971c0,106 -78,184 -184,184l-971 0c-107,0 -185,-78 -185,-184l0 -971z"/>
   <path class="fil18" d="M11567 1685c0,-107 78,-185 184,-185l971 0c107,0 185,78 185,185l0 971c0,106 -78,184 -185,184l-971 0c-106,0 -184,-78 -184,-184l0 -971z"/>
   <path class="fil18" d="M101 1685c0,-107 78,-185 185,-185l971 0c106,0 184,78 184,185l0 971c0,106 -78,184 -184,184l-971 0c-107,0 -185,-78 -185,-184l0 -971z"/>
   <path class="fil18" d="M1499 1685c0,-107 78,-185 184,-185l971 0c107,0 185,78 185,185l0 971c0,106 -78,184 -185,184l-971 0c-106,0 -184,-78 -184,-184l0 -971z"/>
   <path class="fil18" d="M18727 1685c0,-107 78,-185 185,-185l971 0c106,0 184,78 184,185l0 971c0,106 -78,184 -184,184l-971 0c-107,0 -185,-78 -185,-184l0 -971z"/>
   <path class="fil18" d="M14443 1685c0,-107 78,-185 185,-185l971 0c107,0 184,78 184,185l0 971c0,106 -77,184 -184,184l-971 0c-107,0 -185,-78 -185,-184l0 -971z"/>
   <path class="fil18" d="M13005 1685c0,-107 78,-185 185,-185l971 0c106,0 184,78 184,185l0 971c0,106 -78,184 -184,184l-971 0c-107,0 -185,-78 -185,-184l0 -971z"/>
   <path class="fil18" d="M13015 4489c0,-106 78,-184 185,-184l971 0c106,0 184,78 184,184l0 971c0,107 -78,185 -184,185l-971 0c-107,0 -185,-78 -185,-185l0 -971z"/>
   <path class="fil18" d="M14454 4489c0,-106 77,-184 184,-184l971 0c107,0 185,78 185,184l0 971c0,107 -78,185 -185,185l-971 0c-107,0 -184,-78 -184,-185l0 -971z"/>
   <path class="fil18" d="M4375 1685c0,-107 78,-185 185,-185l971 0c106,0 184,78 184,185l0 971c0,106 -78,184 -184,184l-971 0c-107,0 -185,-78 -185,-184l0 -971z"/>
   <path class="fil18" d="M5814 1685c0,-107 78,-185 184,-185l971 0c107,0 185,78 185,185l0 971c0,106 -78,184 -185,184l-971 0c-106,0 -184,-78 -184,-184l0 -971z"/>
   <path class="fil20" d="M15882 1685c0,-107 78,-185 184,-185l971 0c107,0 185,78 185,185l0 971c0,106 -78,184 -185,184l-971 0c-106,0 -184,-78 -184,-184l0 -971z"/>
   <path class="fil20" d="M10129 1685c0,-107 77,-185 184,-185l971 0c107,0 185,78 185,185l0 971c0,106 -78,184 -185,184l-971 0c-107,0 -184,-78 -184,-184l0 -971z"/>
   <path class="fil18" d="M11572 4489c0,-106 78,-184 185,-184l971 0c106,0 184,78 184,184l0 971c0,107 -78,185 -184,185l-971 0c-107,0 -185,-78 -185,-185l0 -971z"/>
   <path class="fil20" d="M15892 4489c0,-106 78,-184 184,-184l971 0c107,0 185,78 185,184l0 971c0,107 -78,185 -185,185l-971 0c-106,0 -184,-78 -184,-185l0 -971z"/>
   <path class="fil19" d="M2942 4489c0,-106 78,-184 184,-184l971 0c107,0 185,78 185,184l0 971c0,107 -78,185 -185,185l-971 0c-106,0 -184,-78 -184,-185l0 -971z"/>
   <path class="fil18" d="M4375 4489c0,-106 78,-184 185,-184l971 0c106,0 184,78 184,184l0 971c0,107 -78,185 -184,185l-971 0c-107,0 -185,-78 -185,-185l0 -971z"/>
   <path class="fil18" d="M5814 4489c0,-106 78,-184 184,-184l971 0c107,0 185,78 185,184l0 971c0,107 -78,185 -185,185l-971 0c-106,0 -184,-78 -184,-185l0 -971z"/>
  </g>
  <path class="fil1" d="M8017 3087l0 971c0,84 59,144 143,144l971 0c85,0 144,-60 144,-144l0 -971c0,-84 -59,-144 -144,-144l-971 0c-84,0 -143,60 -143,144z"/>
  <path class="fil1" d="M6542 5892l0 971c0,84 60,143 144,143l6760 0c84,0 144,-59 144,-143l0 -971c0,-84 -60,-144 -144,-144l-6760 0c-84,0 -144,60 -144,144z"/>
  <path class="fil1" d="M106 5892l0 971c0,84 60,143 144,143l3128 0c84,0 144,-59 144,-143l0 -971c0,-84 -60,-144 -144,-144l-3128 0c-84,0 -144,60 -144,144z"/>
  <path class="fil1" d="M16646 5892l0 971c0,84 60,143 144,143l3093 0c84,0 143,-59 143,-143l0 -971c0,-84 -59,-144 -143,-144l-3093 0c-84,0 -144,60 -144,144z"/>
  <path class="fil1" d="M3702 5892l0 971c0,84 59,143 144,143l2409 0c84,0 144,-59 144,-143l0 -971c0,-84 -60,-144 -144,-144l-2409 0c-85,0 -144,60 -144,144z"/>
  <path class="fil1" d="M106 4489l0 971c0,84 60,144 144,144l2409 0c84,0 144,-60 144,-144l0 -971c0,-84 -60,-143 -144,-143l-2409 0c-84,0 -144,59 -144,143z"/>
  <path class="fil1" d="M17366 4489l0 971c0,84 59,144 143,144l2374 0c84,0 143,-60 143,-144l0 -971c0,-84 -59,-143 -143,-143l-2374 0c-84,0 -143,59 -143,143z"/>
  <path class="fil1" d="M18049 3087l0 971c0,84 59,144 144,144l1690 0c84,0 143,-60 143,-144l0 -971c0,-84 -59,-144 -143,-144l-1690 0c-85,0 -144,60 -144,144z"/>
  <path class="fil1" d="M106 3087l0 971c0,84 60,144 144,144l1690 0c84,0 144,-60 144,-144l0 -971c0,-84 -60,-144 -144,-144l-1690 0c-84,0 -144,60 -144,144z"/>
  <path class="fil1" d="M18049 282l0 971c0,84 59,144 144,144l1690 0c84,0 143,-60 143,-144l0 -971c0,-84 -59,-143 -143,-143l-1690 0c-85,0 -144,59 -144,143z"/>
  <path class="fil1" d="M9455 3087l0 971c0,84 60,144 144,144l971 0c84,0 143,-60 143,-144l0 -971c0,-84 -59,-144 -143,-144l-971 0c-84,0 -144,60 -144,144z"/>
  <path class="fil1" d="M10893 3087l0 971c0,84 60,144 144,144l971 0c84,0 144,-60 144,-144l0 -971c0,-84 -60,-144 -144,-144l-971 0c-84,0 -144,60 -144,144z"/>
  <path class="fil1" d="M10893 282l0 971c0,84 60,144 144,144l971 0c84,0 144,-60 144,-144l0 -971c0,-84 -60,-143 -144,-143l-971 0c-84,0 -144,59 -144,143z"/>
  <path class="fil1" d="M9455 282l0 971c0,84 60,144 144,144l971 0c84,0 143,-60 143,-144l0 -971c0,-84 -59,-143 -143,-143l-971 0c-84,0 -144,59 -144,143z"/>
  <path class="fil1" d="M16646 3087l0 971c0,84 60,144 144,144l971 0c84,0 144,-60 144,-144l0 -971c0,-84 -60,-144 -144,-144l-971 0c-84,0 -144,60 -144,144z"/>
  <path class="fil1" d="M15208 3087l0 971c0,84 60,144 144,144l971 0c84,0 144,-60 144,-144l0 -971c0,-84 -60,-144 -144,-144l-971 0c-84,0 -144,60 -144,144z"/>
  <path class="fil1" d="M3702 3087l0 971c0,84 59,144 144,144l970 0c85,0 144,-60 144,-144l0 -971c0,-84 -59,-144 -144,-144l-970 0c-85,0 -144,60 -144,144z"/>
  <path class="fil1" d="M5140 3087l0 971c0,84 60,144 144,144l971 0c84,0 144,-60 144,-144l0 -971c0,-84 -60,-144 -144,-144l-971 0c-84,0 -144,60 -144,144z"/>
  <path class="fil1" d="M6578 3087l0 971c0,84 60,144 144,144l971 0c84,0 144,-60 144,-144l0 -971c0,-84 -60,-144 -144,-144l-971 0c-84,0 -144,60 -144,144z"/>
  <path class="fil1" d="M7293 1685l0 971c0,84 59,143 144,143l970 0c85,0 144,-59 144,-143l0 -971c0,-84 -59,-144 -144,-144l-970 0c-85,0 -144,60 -144,144z"/>
  <path class="fil1" d="M8731 1685l0 971c0,84 60,143 144,143l971 0c84,0 144,-59 144,-143l0 -971c0,-84 -60,-144 -144,-144l-971 0c-84,0 -144,60 -144,144z"/>
  <path class="fil1" d="M17366 1685l0 971c0,84 59,143 143,143l971 0c84,0 144,-59 144,-143l0 -971c0,-84 -60,-144 -144,-144l-971 0c-84,0 -143,60 -143,144z"/>
  <path class="fil1" d="M10185 4489l0 971c0,84 60,144 144,144l971 0c84,0 143,-60 143,-144l0 -971c0,-84 -59,-143 -143,-143l-971 0c-84,0 -144,59 -144,143z"/>
  <path class="fil1" d="M8731 4489l0 971c0,84 60,144 144,144l971 0c84,0 144,-60 144,-144l0 -971c0,-84 -60,-143 -144,-143l-971 0c-84,0 -144,59 -144,143z"/>
  <path class="fil1" d="M7303 4489l0 971c0,84 60,144 144,144l971 0c84,0 143,-60 143,-144l0 -971c0,-84 -59,-143 -143,-143l-971 0c-84,0 -144,59 -144,143z"/>
  <path class="fil1" d="M12332 3087l0 971c0,84 59,144 143,144l971 0c84,0 144,-60 144,-144l0 -971c0,-84 -60,-144 -144,-144l-971 0c-84,0 -143,60 -143,144z"/>
  <path class="fil1" d="M13770 3087l0 971c0,84 59,144 144,144l970 0c85,0 144,-60 144,-144l0 -971c0,-84 -59,-144 -144,-144l-970 0c-85,0 -144,60 -144,144z"/>
  <path class="fil1" d="M2264 3087l0 971c0,84 59,144 143,144l971 0c84,0 144,-60 144,-144l0 -971c0,-84 -60,-144 -144,-144l-971 0c-84,0 -143,60 -143,144z"/>
  <path class="fil1" d="M3702 282l0 971c0,84 59,144 144,144l970 0c85,0 144,-60 144,-144l0 -971c0,-84 -59,-143 -144,-143l-970 0c-85,0 -144,59 -144,143z"/>
  <path class="fil1" d="M5140 282l0 971c0,84 60,144 144,144l971 0c84,0 144,-60 144,-144l0 -971c0,-84 -60,-143 -144,-143l-971 0c-84,0 -144,59 -144,143z"/>
  <path class="fil1" d="M6578 282l0 971c0,84 60,144 144,144l971 0c84,0 144,-60 144,-144l0 -971c0,-84 -60,-143 -144,-143l-971 0c-84,0 -144,59 -144,143z"/>
  <path class="fil1" d="M15208 282l0 971c0,84 60,144 144,144l971 0c84,0 144,-60 144,-144l0 -971c0,-84 -60,-143 -144,-143l-971 0c-84,0 -144,59 -144,143z"/>
  <path class="fil1" d="M16646 282l0 971c0,84 60,144 144,144l971 0c84,0 144,-60 144,-144l0 -971c0,-84 -60,-143 -144,-143l-971 0c-84,0 -144,59 -144,143z"/>
  <path class="fil1" d="M15208 5892l0 971c0,84 60,143 144,143l971 0c84,0 144,-59 144,-143l0 -971c0,-84 -60,-144 -144,-144l-971 0c-84,0 -144,60 -144,144z"/>
  <path class="fil1" d="M13770 5892l0 971c0,84 59,143 144,143l970 0c85,0 144,-59 144,-143l0 -971c0,-84 -59,-144 -144,-144l-970 0c-85,0 -144,60 -144,144z"/>
  <path class="fil1" d="M825 282l0 971c0,84 60,144 144,144l971 0c84,0 144,-60 144,-144l0 -971c0,-84 -60,-143 -144,-143l-971 0c-84,0 -144,59 -144,143z"/>
  <path class="fil1" d="M2264 282l0 971c0,84 59,144 143,144l971 0c84,0 144,-60 144,-144l0 -971c0,-84 -60,-143 -144,-143l-971 0c-84,0 -143,59 -143,143z"/>
  <path class="fil1" d="M8017 282l0 971c0,84 59,144 143,144l971 0c85,0 144,-60 144,-144l0 -971c0,-84 -59,-143 -144,-143l-971 0c-84,0 -143,59 -143,143z"/>
  <path class="fil1" d="M12332 282l0 971c0,84 59,144 143,144l971 0c84,0 144,-60 144,-144l0 -971c0,-84 -60,-143 -144,-143l-971 0c-84,0 -143,59 -143,143z"/>
  <path class="fil1" d="M13770 282l0 971c0,84 59,144 144,144l970 0c85,0 144,-60 144,-144l0 -971c0,-84 -59,-143 -144,-143l-970 0c-85,0 -144,59 -144,143z"/>
  <path class="fil1" d="M2978 1685l0 971c0,84 60,143 144,143l971 0c84,0 143,-59 143,-143l0 -971c0,-84 -59,-144 -143,-144l-971 0c-84,0 -144,60 -144,144z"/>
  <path class="fil1" d="M11608 1685l0 971c0,84 59,143 143,143l971 0c84,0 144,-59 144,-143l0 -971c0,-84 -60,-144 -144,-144l-971 0c-84,0 -143,60 -143,144z"/>
  <path class="fil1" d="M142 1685l0 971c0,84 60,143 144,143l971 0c84,0 144,-59 144,-143l0 -971c0,-84 -60,-144 -144,-144l-971 0c-84,0 -144,60 -144,144z"/>
  <path class="fil1" d="M1540 1685l0 971c0,84 59,143 143,143l971 0c84,0 144,-59 144,-143l0 -971c0,-84 -60,-144 -144,-144l-971 0c-84,0 -143,60 -143,144z"/>
  <path class="fil1" d="M18768 1685l0 971c0,84 60,143 144,143l971 0c84,0 143,-59 143,-143l0 -971c0,-84 -59,-144 -143,-144l-971 0c-84,0 -144,60 -144,144z"/>
  <path class="fil1" d="M14484 1685l0 971c0,84 60,143 144,143l971 0c84,0 144,-59 144,-143l0 -971c0,-84 -60,-144 -144,-144l-971 0c-84,0 -144,60 -144,144z"/>
  <path class="fil1" d="M13046 1685l0 971c0,84 60,143 144,143l971 0c84,0 143,-59 143,-143l0 -971c0,-84 -59,-144 -143,-144l-971 0c-84,0 -144,60 -144,144z"/>
  <path class="fil1" d="M13056 4489l0 971c0,84 60,144 144,144l971 0c84,0 144,-60 144,-144l0 -971c0,-84 -60,-143 -144,-143l-971 0c-84,0 -144,59 -144,143z"/>
  <path class="fil1" d="M14494 4489l0 971c0,84 60,144 144,144l971 0c84,0 144,-60 144,-144l0 -971c0,-84 -60,-143 -144,-143l-971 0c-84,0 -144,59 -144,143z"/>
  <path class="fil1" d="M4416 1685l0 971c0,84 60,143 144,143l971 0c84,0 144,-59 144,-143l0 -971c0,-84 -60,-144 -144,-144l-971 0c-84,0 -144,60 -144,144z"/>
  <path class="fil1" d="M5854 1685l0 971c0,84 60,143 144,143l971 0c84,0 144,-59 144,-143l0 -971c0,-84 -60,-144 -144,-144l-971 0c-84,0 -144,60 -144,144z"/>
  <path class="fil1" d="M15922 1685l0 971c0,84 60,143 144,143l971 0c84,0 144,-59 144,-143l0 -971c0,-84 -60,-144 -144,-144l-971 0c-84,0 -144,60 -144,144z"/>
  <path class="fil1" d="M10169 1685l0 971c0,84 60,143 144,143l971 0c84,0 144,-59 144,-143l0 -971c0,-84 -60,-144 -144,-144l-971 0c-84,0 -144,60 -144,144z"/>
  <path class="fil1" d="M11613 4489l0 971c0,84 60,144 144,144l971 0c84,0 143,-60 143,-144l0 -971c0,-84 -59,-143 -143,-143l-971 0c-84,0 -144,59 -144,143z"/>
  <path class="fil1" d="M15933 4489l0 971c0,84 59,144 143,144l971 0c84,0 144,-60 144,-144l0 -971c0,-84 -60,-143 -144,-143l-971 0c-84,0 -143,59 -143,143z"/>
  <path class="fil1" d="M2983 4489l0 971c0,84 59,144 143,144l971 0c84,0 144,-60 144,-144l0 -971c0,-84 -60,-143 -144,-143l-971 0c-84,0 -143,59 -143,143z"/>
  <path class="fil1" d="M4416 4489l0 971c0,84 60,144 144,144l971 0c84,0 144,-60 144,-144l0 -971c0,-84 -60,-143 -144,-143l-971 0c-84,0 -144,59 -144,143z"/>
  <path class="fil1" d="M5854 4489l0 971c0,84 60,144 144,144l971 0c84,0 144,-60 144,-144l0 -971c0,-84 -60,-143 -144,-143l-971 0c-84,0 -144,59 -144,143z"/>
  <rect class="fil21" x="106" y="97" width="616" height="1341" rx="212" ry="212"/>
  <rect class="fil1" x="146" y="138" width="535" height="1259" rx="171" ry="306"/>
  <path class="fil22" d="M278 584l173 0 90 321c3,11 5,20 5,26 0,9 -4,17 -12,24 -8,7 -17,11 -28,11 -17,0 -31,-11 -42,-31l-186 -351z"/>
  <path class="fil22" d="M1389 866l0 315 -108 0 0 -321 -81 81 -76 -81 73 -68c13,-12 27,-20 41,-26 14,-5 29,-8 45,-8 15,0 30,2 43,7 13,4 24,11 33,20 9,9 17,21 22,34 5,14 8,30 8,47z"/>
  <path class="fil22" d="M1992 312l-18 195c-1,10 -4,18 -10,24 -6,5 -13,8 -22,8 -9,0 -16,-3 -22,-8 -6,-6 -10,-14 -10,-24l-19 -195c-1,-10 -1,-17 -1,-20 0,-16 5,-29 15,-39 10,-10 22,-15 37,-15 14,0 26,5 37,15 10,10 15,23 15,38 0,3 -1,10 -2,21zm-11 321c0,10 -3,18 -10,24 -7,6 -17,10 -29,10 -12,0 -21,-4 -28,-10 -7,-6 -10,-14 -10,-24 0,-9 3,-16 10,-23 6,-6 16,-9 28,-9 13,0 22,3 29,9 7,6 10,14 10,23z"/>
  <path class="fil22" d="M2556 1073l374 0 0 109 -458 0 0 -150c0,-15 3,-30 9,-44 5,-14 13,-26 22,-37 10,-11 21,-19 34,-26 13,-6 27,-10 42,-10l281 0 0 -54 -391 0 0 -103 378 0c11,0 21,3 32,9 11,5 21,13 30,22 9,9 16,19 22,31 6,11 8,22 8,33l0 63c0,6 -1,14 -3,22 -2,7 -5,15 -9,23 -4,8 -9,15 -15,22 -5,7 -11,14 -18,19 -7,6 -14,10 -22,13 -7,4 -15,5 -23,5l-293 0 0 53z"/>
  <path class="fil22" d="M3331 341l0 -15c0,-17 -5,-30 -14,-40 -9,-9 -22,-14 -36,-14 -12,0 -23,3 -33,11 -11,8 -19,18 -24,30 -9,22 -14,44 -14,66l0 75c0,37 9,67 26,90 11,14 26,22 46,22 11,0 21,-2 30,-5 9,-2 16,-6 20,-11 5,-5 10,-7 14,-7 5,0 10,2 13,5 4,4 6,9 6,14 0,8 -6,16 -17,24 -17,11 -39,16 -67,16 -22,0 -40,-5 -54,-14 -18,-13 -32,-32 -41,-57 -9,-25 -13,-50 -13,-74l0 -81c0,-39 10,-73 29,-100 20,-28 46,-42 78,-42 15,0 28,3 41,9 13,6 24,17 34,32 9,15 13,32 13,50l0 134c7,4 11,9 11,17 0,6 -2,10 -6,14 -4,4 -11,5 -20,5l-22 0 0 -1c-8,1 -13,2 -17,2 -19,0 -37,-8 -51,-22 -15,-15 -22,-32 -22,-51 0,-21 8,-40 24,-56 16,-15 38,-24 66,-26zm0 38c-17,2 -31,7 -40,15 -9,9 -13,18 -13,29 0,9 3,17 11,24 8,7 18,10 30,10 2,0 6,0 12,0l0 -78z"/>
  <path class="fil22" d="M3952 758l445 0c19,0 37,3 55,9 17,6 33,14 46,25 13,11 23,24 31,40 8,16 12,33 12,53 0,14 -2,28 -6,42 -5,14 -11,28 -19,41 19,21 28,46 28,74 0,20 -3,38 -10,55 -7,17 -16,31 -28,44 -12,12 -26,22 -43,29 -17,7 -35,11 -55,11l-454 0 0 -108 480 0 0 -48 -482 0 0 -110 482 0 0 -49 -482 0 0 -108z"/>
  <path class="fil22" d="M4773 353l12 0c12,0 21,2 26,7 5,5 8,11 8,18 0,8 -3,14 -8,18 -5,5 -14,7 -26,7l-15 0 -4 55 9 0c12,0 20,3 26,7 5,5 7,11 7,18 0,8 -2,14 -7,19 -5,4 -14,7 -26,7l-13 0 -6 86c0,1 -1,7 -4,18 -1,4 -4,7 -9,10 -4,2 -8,4 -13,4 -7,0 -12,-3 -17,-8 -5,-5 -7,-11 -7,-18 0,-2 0,-5 0,-10l6 -82 -38 0 -6 86c0,9 -1,14 -2,15 -1,5 -5,9 -9,12 -4,3 -9,5 -14,5 -7,0 -13,-3 -18,-8 -5,-4 -7,-11 -7,-18 0,-2 0,-5 0,-10l6 -82 -12 0c-12,0 -21,-3 -26,-7 -5,-5 -8,-11 -8,-19 0,-7 3,-13 8,-18 5,-4 14,-7 26,-7l16 0 3 -55 -9 0c-12,0 -21,-2 -26,-7 -5,-4 -8,-10 -8,-18 0,-7 3,-13 8,-18 5,-5 14,-7 26,-7l13 0 6 -86c0,-9 1,-14 2,-16 2,-5 5,-9 9,-12 4,-3 9,-4 14,-4 7,0 13,2 18,7 5,5 7,12 7,20 0,2 0,5 0,8l-6 83 38 0 6 -86c0,-12 3,-20 8,-25 4,-5 10,-7 18,-7 7,0 13,2 18,7 5,5 7,11 7,18 0,2 0,3 0,5l-1 5 -6 83zm-54 50l-37 0 -4 55 37 0 4 -55z"/>
  <path class="fil22" d="M5850 958l0 -200 111 0 0 200 46 0 0 110 -46 0 0 116 -111 0 0 -116 -347 0c-26,0 -49,-3 -69,-8 -21,-5 -38,-13 -52,-24 -14,-12 -25,-27 -32,-46 -7,-19 -11,-43 -11,-71l0 -160 116 0 0 199 395 0z"/>
  <path class="fil22" d="M6142 272c12,1 24,5 35,10 2,-2 5,-3 7,-4 2,0 5,-1 7,-1 8,0 14,3 18,8 5,5 7,14 7,26l0 16c0,12 -2,21 -7,26 -4,5 -10,8 -18,8 -6,0 -12,-2 -17,-7 -4,-4 -7,-11 -8,-19 -12,-10 -26,-14 -44,-14 -19,0 -32,3 -41,10 -8,6 -13,13 -13,22 0,6 3,11 8,16 6,5 16,9 33,13l33 7c29,6 49,14 61,26 16,14 24,33 24,57 0,21 -7,40 -22,56 -15,17 -35,27 -63,33l0 42c0,13 -2,21 -7,26 -4,6 -10,8 -18,8 -7,0 -13,-2 -18,-8 -5,-5 -7,-13 -7,-26l0 -42c-13,-3 -26,-7 -39,-13 -7,6 -14,9 -20,9 -8,0 -14,-3 -19,-8 -5,-5 -7,-14 -7,-26l0 -31c0,-13 2,-21 7,-26 5,-5 11,-8 18,-8 6,0 11,2 15,5 5,3 8,8 9,15 2,7 5,12 8,15 5,5 12,10 22,13 10,4 21,5 31,5 19,0 35,-5 47,-14 8,-7 13,-15 13,-25 0,-8 -3,-15 -9,-21 -5,-5 -17,-9 -35,-13l-38 -7c-26,-6 -46,-15 -58,-29 -13,-14 -19,-31 -19,-50 0,-20 7,-37 20,-52 14,-15 32,-24 54,-28l0 -14c0,-12 2,-21 7,-26 5,-5 11,-8 18,-8 8,0 14,3 18,8 5,5 7,14 7,26l0 14z"/>
  <path class="fil22" d="M6810 1022l0 -264 585 0 0 106 -474 0 0 47 364 0c18,0 35,3 52,10 16,7 31,16 43,28 12,11 22,25 30,41 7,16 11,33 11,52 0,24 -5,45 -14,63 -10,17 -22,32 -39,43 -16,11 -34,20 -55,25 -20,5 -42,8 -64,8l-437 0 0 -111 499 0 0 -48 -501 0z"/>
  <path class="fil22" d="M7494 341c0,19 -7,36 -21,50 -14,14 -31,21 -50,21 -20,0 -37,-7 -51,-21 -14,-14 -21,-31 -21,-50 0,-20 7,-37 21,-51 14,-14 31,-21 51,-21 19,0 36,7 50,21 14,14 21,31 21,51zm-31 -1c0,-11 -4,-20 -12,-28 -8,-8 -17,-12 -28,-12 -12,0 -21,4 -29,12 -8,8 -11,17 -11,28 0,11 4,21 11,29 8,8 18,11 29,11 11,0 20,-3 28,-11 8,-8 12,-18 12,-29zm91 75l-187 60c-4,2 -7,3 -10,3 -3,0 -7,-2 -10,-5 -3,-3 -4,-7 -4,-12 0,-3 1,-6 3,-9 2,-2 6,-4 12,-6l186 -60c5,-2 8,-3 10,-3 4,0 8,2 11,5 2,3 4,7 4,12 0,3 -1,6 -4,9 -1,2 -5,4 -11,6zm4 106c0,20 -7,37 -21,51 -14,13 -30,20 -50,20 -20,0 -36,-7 -50,-21 -14,-13 -21,-30 -21,-50 0,-19 7,-36 21,-50 14,-14 30,-21 50,-21 20,0 36,7 50,21 14,14 21,30 21,50zm-31 0c0,-11 -4,-20 -12,-28 -8,-8 -17,-12 -28,-12 -11,0 -20,4 -28,12 -8,8 -12,17 -12,28 0,11 4,21 12,29 8,7 17,11 28,11 11,0 20,-4 28,-11 8,-8 12,-18 12,-29z"/>
  <path class="fil22" d="M8821 758l0 108 -477 0 0 48 371 0c17,0 34,3 50,10 15,7 29,17 41,29 11,12 20,26 27,42 7,16 10,33 10,50 0,19 -3,36 -11,53 -7,16 -17,30 -29,43 -13,12 -27,22 -44,29 -16,7 -34,10 -53,10l-344 0c-20,0 -37,-4 -53,-11 -16,-8 -30,-19 -41,-33 -12,-13 -21,-28 -27,-46 -7,-17 -10,-35 -10,-54l0 -142c0,-16 2,-31 6,-44 5,-13 11,-25 18,-35 8,-10 17,-19 27,-26 11,-7 23,-13 35,-18 13,-5 26,-8 40,-10 14,-2 29,-3 43,-3l421 0zm-477 265l0 45 389 0 0 -45 -389 0z"/>
  <path class="fil22" d="M8977 425l-77 92c-7,9 -12,14 -16,17 -5,3 -10,4 -15,4 -9,0 -17,-3 -23,-10 -7,-6 -10,-14 -10,-23 0,-8 5,-17 14,-29l127 -152 127 152c7,8 10,13 12,17 2,4 3,8 3,12 0,9 -3,17 -10,23 -6,7 -14,10 -22,10 -6,0 -11,-1 -16,-4 -4,-3 -9,-8 -16,-16l-78 -93z"/>
  <path class="fil22" d="M9701 758l479 0c15,0 30,3 44,8 14,6 26,14 37,24 11,9 19,21 26,34 6,14 10,28 10,44 0,19 -5,36 -13,50 -8,14 -21,27 -39,38l-341 226 -191 0 477 -314 -489 0 0 -110z"/>
  <path class="fil22" d="M10381 522l10 -36 22 0c9,0 15,1 19,3 7,4 10,11 10,19 0,6 -2,11 -5,15 -4,4 -9,6 -14,6 -3,15 -8,27 -13,36 12,0 19,1 22,3 7,4 10,10 10,18 0,7 -2,12 -6,16 -5,4 -12,6 -22,6l-26 0 -5 -7c-6,5 -12,8 -18,10 -8,2 -19,3 -31,3 -25,0 -45,-6 -59,-19 -14,-13 -21,-29 -21,-49 0,-14 3,-27 10,-39 7,-13 18,-23 32,-32 -6,-10 -10,-18 -12,-24 -2,-5 -3,-11 -3,-18 0,-18 7,-33 20,-46 13,-13 28,-20 47,-20 4,0 9,1 14,2 5,1 10,3 16,6 5,-3 9,-4 11,-4 6,0 11,2 15,6 4,5 7,10 7,16 0,5 -2,9 -4,12 -2,3 -7,7 -14,10l-18 10c-7,-6 -13,-10 -17,-12 -3,-2 -7,-3 -11,-3 -6,0 -12,3 -16,7 -5,5 -7,10 -7,15 0,5 4,14 13,26l44 64zm-60 -11c-16,8 -24,19 -24,34 0,8 3,15 8,19 6,5 15,7 29,7 9,0 17,-2 24,-6l-37 -54z"/>
  <path class="fil22" d="M11277 1181c-22,0 -43,-3 -63,-9 -19,-7 -35,-15 -50,-26 -14,-12 -25,-25 -33,-41 -8,-16 -12,-34 -12,-53 0,-14 2,-28 7,-41 5,-13 12,-26 21,-39 -5,-7 -8,-14 -12,-21 -3,-8 -6,-16 -8,-23 -3,-8 -5,-16 -6,-23 -1,-8 -2,-15 -2,-22 0,-19 4,-36 12,-51 8,-15 18,-29 31,-39 14,-11 29,-20 46,-26 17,-6 35,-9 53,-9l335 0c18,0 35,3 51,10 16,6 30,15 42,27 12,11 22,24 29,40 7,15 11,31 11,49 0,9 -1,18 -2,26 -2,8 -4,15 -6,22 -3,7 -6,13 -9,19 -3,5 -7,11 -11,17 19,24 28,50 28,79 0,21 -4,40 -12,57 -8,16 -19,30 -33,42 -14,11 -31,20 -49,26 -19,6 -39,9 -61,9l-297 0zm338 -320l-383 0 0 51 383 0 0 -51zm2 164l-385 0 0 45 385 0 0 -45z"/>
  <path class="fil22" d="M11823 528l-56 -18c-13,-5 -22,-9 -25,-14 -5,-6 -8,-13 -8,-20 0,-9 3,-17 10,-23 6,-7 13,-10 21,-10 5,0 12,2 22,5l56 18 0 -59c0,-15 3,-26 9,-33 6,-7 14,-10 24,-10 9,0 17,3 23,10 6,7 9,18 9,33l0 59 56 -18c10,-3 17,-5 22,-5 8,0 15,3 21,10 6,6 9,13 9,22 0,8 -2,15 -6,20 -4,5 -13,10 -26,15l-56 18 34 47c9,12 13,21 13,28 0,9 -3,17 -9,23 -7,6 -14,9 -23,9 -7,0 -12,-1 -16,-4 -5,-3 -10,-9 -17,-18l-34 -47 -35 47c-7,10 -12,16 -17,19 -4,3 -9,4 -16,4 -9,0 -16,-3 -23,-10 -6,-6 -9,-14 -9,-23 0,-7 4,-16 12,-28l35 -47z"/>
  <path class="fil22" d="M13029 758c24,0 45,3 64,11 18,7 34,17 48,29 13,13 23,28 30,45 7,16 11,34 11,53l0 149c0,19 -4,36 -12,52 -7,17 -18,31 -30,43 -13,13 -28,22 -44,30 -17,7 -35,10 -52,10l-457 0 0 -109 484 0 0 -49 -367 0c-19,0 -36,-4 -53,-10 -17,-7 -32,-16 -45,-27 -13,-12 -23,-26 -31,-42 -7,-16 -11,-33 -11,-52 0,-19 4,-37 12,-54 8,-16 19,-30 33,-42 13,-11 29,-21 47,-27 17,-7 35,-10 54,-10l319 0zm-359 108l0 49 401 0 0 -49 -401 0z"/>
  <path class="fil22" d="M13258 456c0,-28 5,-57 15,-87 7,-21 17,-45 32,-72 11,-19 19,-31 24,-35 5,-4 11,-6 17,-6 7,0 13,2 18,7 5,5 8,11 8,18 0,4 -2,10 -6,17 -18,29 -31,56 -39,81 -8,26 -12,51 -12,77 0,27 4,52 12,78 8,25 21,52 39,81 4,7 6,12 6,17 0,7 -3,13 -8,18 -5,5 -11,7 -18,7 -6,0 -11,-2 -16,-6 -7,-5 -15,-18 -26,-38 -16,-29 -26,-53 -32,-72 -9,-29 -14,-57 -14,-85z"/>
  <path class="fil22" d="M14419 758c22,0 42,4 60,11 18,7 32,18 45,30 12,13 21,28 28,45 7,17 10,35 10,54l0 143c0,19 -4,37 -11,54 -7,16 -16,31 -28,43 -12,13 -27,23 -43,30 -17,7 -34,11 -53,11l-308 0c-19,0 -37,-4 -55,-11 -17,-7 -33,-17 -46,-29 -14,-13 -24,-27 -33,-44 -8,-17 -12,-35 -12,-54l0 -161c0,-18 4,-35 13,-50 8,-15 19,-28 33,-38 14,-11 29,-19 46,-25 18,-6 35,-9 53,-9l301 0zm-339 109l0 201 378 0 0 -201 -378 0z"/>
  <path class="fil22" d="M14754 456c0,29 -5,58 -15,88 -7,21 -17,45 -32,72 -11,19 -19,30 -24,35 -5,4 -11,6 -17,6 -7,0 -13,-2 -18,-7 -5,-5 -8,-11 -8,-18 0,-5 2,-10 6,-17 18,-29 31,-56 39,-81 8,-26 12,-51 12,-78 0,-26 -4,-51 -12,-77 -8,-25 -21,-52 -39,-81 -4,-7 -6,-13 -6,-17 0,-7 3,-13 8,-18 5,-5 11,-7 18,-7 6,0 11,2 16,5 7,6 15,19 26,39 16,29 26,53 32,72 9,29 14,57 14,84z"/>
  <polygon class="fil22" points="15975,1008 15615,1008 15615,929 15975,929 "/>
  <path class="fil22" d="M16344 684l-356 0c-15,0 -26,-3 -33,-9 -6,-6 -10,-14 -10,-23 0,-10 4,-18 10,-24 7,-6 18,-9 33,-9l356 0c16,0 27,3 33,9 7,6 10,14 10,24 0,9 -3,17 -10,23 -6,6 -17,9 -33,9z"/>
  <path class="fil22" d="M17331 930l-369 0c-21,0 -36,-4 -45,-12 -8,-8 -13,-18 -13,-31 0,-13 5,-23 13,-31 9,-8 24,-12 45,-12l369 0c20,0 35,4 44,12 9,8 13,19 13,31 0,13 -4,23 -13,31 -9,8 -24,12 -44,12zm0 163l-369 0c-21,0 -36,-4 -45,-12 -8,-8 -13,-18 -13,-31 0,-13 5,-24 13,-32 9,-8 24,-12 45,-12l369 0c20,0 35,4 44,12 9,8 13,19 13,32 0,13 -4,23 -13,31 -9,8 -24,12 -44,12z"/>
  <path class="fil22" d="M17549 470l0 108c0,16 -3,27 -8,34 -6,6 -14,10 -24,10 -9,0 -17,-4 -23,-10 -6,-7 -9,-18 -9,-34l0 -108 -92 0c-16,0 -27,-3 -34,-9 -6,-6 -10,-14 -10,-23 0,-10 4,-18 10,-24 7,-6 18,-9 34,-8l92 0 0 -109c0,-15 3,-26 9,-33 6,-7 14,-10 24,-10 9,0 17,3 23,10 6,7 9,18 9,33l-1 109 93 0c15,0 27,2 33,8 7,6 10,14 10,24 0,9 -3,17 -10,23 -6,6 -18,9 -33,9l-93 0z"/>
  <path class="fil23" d="M379 2511l0 -102 155 0 0 144c0,20 -4,37 -12,52 -8,14 -19,26 -33,36 -13,10 -29,17 -48,22 -18,5 -38,7 -58,7l0 -106 43 0 0 -53 -47 0zm0 -155l0 -103 155 0 0 103 -155 0z"/>
  <path class="fil23" d="M1044 1861l0 -142 148 0 0 142 -148 0zm0 195l0 -140 148 0 0 140 -148 0z"/>
  <path class="fil23" d="M2521 2020l0 393 -128 0 0 -377 -344 335c-6,8 -14,14 -22,21 -8,6 -17,11 -27,15 -9,4 -19,8 -28,10 -10,2 -20,3 -29,3 -20,0 -38,-4 -53,-11 -16,-8 -29,-18 -40,-31 -11,-12 -19,-27 -25,-45 -5,-17 -8,-35 -8,-54l0 -369 128 0 0 376 344 -338c34,-33 69,-49 105,-49 17,0 32,2 47,7 16,5 29,13 41,23 11,10 21,22 28,38 7,15 11,32 11,53zm-531 -200l0 -114 381 0 0 114 -381 0z"/>
  <path class="fil23" d="M3983 2286l0 134 -591 0c-19,0 -39,-3 -58,-9 -19,-5 -36,-14 -51,-26 -16,-12 -28,-26 -37,-44 -10,-17 -14,-37 -14,-60l0 -361 130 0 0 366 439 0 0 -366 129 0 0 366 53 0z"/>
  <path class="fil23" d="M4799 2108l479 0 0 -189 134 0 0 342c0,22 -4,42 -13,62 -10,19 -22,36 -37,51 -15,14 -32,26 -52,34 -20,9 -41,13 -62,13l-542 0 0 -130 573 0 0 -58 -434 0c-22,0 -43,-4 -63,-12 -20,-8 -38,-19 -53,-32 -16,-14 -28,-30 -37,-49 -9,-19 -13,-40 -13,-62l0 -159 120 0 0 189z"/>
  <path class="fil23" d="M6578 1919l261 0 -434 252 437 251 -264 0 -229 -130c-10,-6 -20,-12 -29,-18 -8,-6 -16,-12 -22,-18 -7,-7 -13,-14 -18,-21 -5,-8 -10,-17 -14,-27l0 214 -141 0 0 -504 141 0 0 217c4,-9 9,-18 15,-26 5,-8 12,-15 20,-22 7,-7 16,-13 25,-19 9,-7 20,-13 32,-20l220 -129z"/>
  <path class="fil23" d="M7747 1916l529 0 0 130 -580 0 0 59 580 0 0 130 -580 0 0 55 580 0 0 134 -530 0c-23,0 -46,-4 -67,-12 -22,-8 -41,-19 -57,-34 -16,-14 -30,-31 -39,-51 -10,-20 -15,-42 -15,-65l0 -184c0,-25 5,-48 14,-68 9,-20 22,-37 38,-51 16,-14 35,-24 57,-32 22,-7 45,-11 70,-11z"/>
  <polygon class="fil23" points="9128,1918 9128,2103 9593,2103 9593,1918 9721,1918 9721,2422 9593,2422 9593,2232 9128,2232 9128,2422 9000,2422 9000,1918 "/>
  <path class="fil23" d="M11151 2049l-573 0 0 374 -132 0 0 -351c0,-20 4,-40 13,-58 9,-19 21,-35 35,-50 15,-14 31,-26 50,-34 19,-8 38,-13 58,-13l549 0 0 132z"/>
  <polygon class="fil23" points="12013,1875 12013,2253 12165,2253 12165,1875 12302,1875 12302,2253 12458,2253 12458,1875 12592,1875 12592,2381 11882,2381 11882,1875 "/>
  <polygon class="fil23" points="13415,1875 13415,2253 13568,2253 13568,1875 13703,1875 13703,2253 13860,2253 13860,1875 13994,1875 13994,2253 14067,2253 14067,2381 13283,2381 13283,1875 "/>
  <path class="fil23" d="M14762 1876l529 0c22,0 44,4 64,11 21,7 39,17 55,30 16,13 28,29 38,48 9,18 14,39 14,62 0,17 -3,34 -8,51 -6,16 -13,32 -22,48 22,25 33,54 33,88 0,23 -4,45 -12,65 -8,20 -19,38 -33,52 -15,15 -32,27 -51,35 -20,8 -42,13 -66,13l-539 0 0 -129 570 0 0 -56 -572 0 0 -130 572 0 0 -59 -572 0 0 -129z"/>
  <path class="fil23" d="M16902 1876l-215 253 219 251 -157 0 -141 -149c-11,-11 -20,-21 -27,-28 -6,-8 -12,-14 -16,-19 -4,-6 -7,-10 -9,-14 -2,-4 -4,-8 -6,-12 -1,5 -4,11 -7,17 -4,6 -8,12 -12,18 -5,5 -9,11 -13,16 -5,5 -8,9 -11,12l-132 159 -168 0 218 -253 -227 -251 170 0 143 167c7,9 13,15 16,20 4,4 8,8 10,12 2,3 5,6 6,10 2,3 5,8 7,14 2,-6 5,-12 9,-19 5,-7 10,-14 15,-21 6,-6 11,-13 17,-18 5,-6 10,-11 13,-15l132 -150 166 0z"/>
  <path class="fil23" d="M18215 2381l-557 0 0 -410 -63 0 0 -97 197 0 0 190 438 0c22,0 43,4 63,12 20,9 37,20 52,35 15,14 27,31 36,51 9,19 14,40 14,62 0,15 -3,30 -7,44 -5,13 -12,26 -20,38 -8,11 -18,22 -29,31 -12,10 -24,18 -37,24 -14,6 -28,11 -43,15 -15,4 -29,5 -44,5zm-423 -128l469 0 0 -64 -469 0 0 64z"/>
  <path class="fil23" d="M19593 1876c26,0 49,4 70,11 22,7 40,17 56,30 16,14 28,30 37,48 8,19 13,39 13,62 0,22 -5,43 -13,63 -9,20 -21,37 -36,51 -15,15 -33,26 -54,34 -20,8 -42,12 -65,12l-268 0 0 -126 304 0 0 -59 -612 0 0 -126 568 0zm-260 504l0 -130 132 0 0 130 -132 0z"/>
  <path class="fil23" d="M2819 3319l136 0 0 81 162 0c27,0 51,2 72,7 20,5 37,12 51,21 13,10 24,21 30,35 7,13 10,29 10,46l0 129c0,14 -3,27 -11,39 -7,13 -17,24 -32,34 -14,10 -32,18 -54,24 -22,6 -48,9 -78,9l-150 0 0 82 -136 0 0 -82 -138 0c-13,0 -26,-1 -39,-3 -13,-1 -27,-4 -40,-7 -13,-4 -25,-9 -37,-15 -11,-6 -22,-12 -31,-21 -8,-8 -16,-18 -21,-28 -5,-11 -8,-24 -8,-37l0 -132c0,-15 4,-29 10,-41 6,-13 15,-23 27,-32 12,-9 26,-16 42,-21 17,-5 35,-7 55,-7l180 0 0 -81zm347 182l-211 0 0 136 211 0 0 -136zm-347 0l-206 0 0 136 206 0 0 -136z"/>
  <path class="fil23" d="M4347 3825l-394 0 0 -506 136 0 0 188 273 0c22,0 43,4 63,13 20,8 38,20 53,34 15,15 27,32 36,51 9,20 13,41 13,63 0,23 -5,44 -15,63 -10,19 -23,36 -40,50 -17,14 -36,24 -57,32 -22,8 -44,12 -68,12zm362 -506l0 507 -124 0 0 -507 124 0zm-620 378l304 0 0 -65 -304 0 0 65z"/>
  <path class="fil23" d="M5942 3320c26,0 50,3 72,10 22,6 42,15 58,28 16,13 29,29 38,48 9,20 14,43 14,69 0,34 -10,65 -29,95 4,7 9,14 14,21 4,8 9,15 12,23 4,8 7,15 10,23 2,8 4,16 4,23 0,16 -3,30 -7,44 -4,14 -10,27 -18,39 -8,12 -17,24 -28,34 -11,10 -22,18 -35,25 -12,7 -26,13 -40,17 -14,4 -28,6 -43,6l-560 0 0 -505 538 0zm47 374l0 -58 -451 0 0 58 451 0zm0 -188l0 -57 -451 0 0 57 451 0z"/>
  <path class="fil23" d="M7012 3825l-144 0 196 -380c10,-19 20,-36 29,-52 9,-15 20,-28 31,-39 10,-11 23,-19 37,-25 13,-6 30,-9 49,-9 18,0 34,3 47,9 13,6 25,14 35,25 10,11 20,24 29,40 9,16 19,34 30,55l196 376 -139 0 -76 -132 -250 0 -70 132zm136 -261l119 0 -59 -108 -60 108z"/>
  <path class="fil23" d="M10274 3320c23,0 46,4 68,12 21,8 40,18 57,32 16,14 30,31 39,50 10,19 15,40 15,64 0,22 -4,43 -13,62 -9,20 -21,37 -36,51 -15,15 -33,26 -52,35 -20,8 -41,12 -63,12l-438 0 0 187 -136 0 0 -505 559 0zm-423 129l0 64 468 0 0 -64 -468 0z"/>
  <polygon class="fil24" points="8416,3826 8284,3826 8284,3319 9008,3319 9008,3826 8874,3826 8874,3448 8416,3448 "/>
  <path class="fil23" d="M11347 3322l372 0c21,0 41,5 60,14 19,8 36,20 51,35 14,15 26,32 34,51 9,20 13,40 13,61l0 186c0,14 -2,28 -6,41 -4,13 -9,25 -16,36 -8,12 -16,22 -26,31 -10,10 -21,18 -33,24 -12,7 -25,12 -38,16 -13,4 -27,6 -41,6l-389 0c-22,0 -43,-4 -63,-12 -20,-8 -37,-20 -51,-34 -15,-14 -26,-31 -34,-51 -8,-19 -12,-41 -12,-64l0 -191c0,-22 5,-42 15,-60 10,-18 24,-34 41,-47 17,-13 36,-23 57,-30 21,-8 43,-12 66,-12zm398 131l-447 0 0 243 447 0 0 -243z"/>
  <path class="fil23" d="M12731 3826l-132 0 0 -342c0,-13 2,-27 6,-40 4,-13 10,-26 17,-38 7,-12 16,-24 26,-34 9,-11 20,-20 32,-28 11,-7 23,-13 36,-18 13,-4 26,-7 39,-7l568 0 0 507 -134 0 0 -378 -458 0 0 378z"/>
  <path class="fil23" d="M14006 3823l0 -134 35 0 0 -214c0,-22 5,-43 13,-61 9,-19 21,-35 36,-49 15,-13 33,-24 53,-31 19,-8 40,-12 62,-12l366 0c22,0 43,4 63,12 20,7 38,17 54,30 15,14 28,29 37,48 10,19 14,39 14,61l0 216 53 0 0 134 -786 0zm608 -134l0 -237 -454 0 0 237 454 0z"/>
  <path class="fil23" d="M15585 3320l134 151c2,3 6,7 10,12 5,4 10,10 15,16 5,5 9,11 13,17 5,6 8,11 10,16l0 -212 141 0 0 216c2,-5 5,-11 10,-17 4,-6 9,-12 14,-18 5,-6 10,-12 15,-17 5,-5 8,-10 11,-13l132 -151 167 0 -216 254 219 251 -156 0 -142 -149c-9,-10 -16,-18 -22,-24 -6,-7 -10,-12 -14,-17 -3,-5 -7,-9 -9,-13 -3,-3 -6,-7 -9,-11l0 214 -141 0 0 -212c-3,6 -6,11 -9,14 -2,4 -5,8 -9,11 -3,4 -8,9 -13,14 -5,6 -13,14 -22,24l-142 149 -157 0 220 -251 -217 -254 167 0z"/>
  <path class="fil23" d="M17451 3319c25,0 48,3 70,11 22,7 41,18 57,32 16,13 28,30 38,51 9,20 14,42 14,68l0 183c0,24 -5,45 -15,65 -10,20 -23,37 -39,52 -17,14 -36,25 -57,33 -21,8 -44,12 -67,12l-530 0 0 -134 579 0 0 -53 -579 0 0 -132 579 0 0 -58 -579 0 0 -130 529 0z"/>
  <path class="fil23" d="M3967 4724l0 502 -133 0 0 -189 -447 0 0 189 -130 0 0 -172c0,-14 3,-28 9,-44 6,-15 14,-29 24,-41 -9,-13 -16,-28 -21,-43 -5,-15 -7,-30 -7,-45 0,-14 2,-27 6,-41 3,-13 9,-25 16,-37 7,-12 15,-22 24,-32 10,-10 20,-18 32,-25 11,-7 23,-13 36,-16 13,-4 26,-6 40,-6l551 0zm-133 187l0 -61 -447 0 0 61 447 0z"/>
  <path class="fil23" d="M5286 4960l0 -238 128 0 0 506 -128 0 0 -138 -415 0c-27,0 -53,-4 -76,-12 -24,-8 -45,-19 -62,-34 -18,-15 -32,-33 -42,-56 -10,-21 -15,-47 -15,-75l0 -191 138 0 0 238 472 0z"/>
  <path class="fil23" d="M6843 4723l0 126 -587 0 0 252 587 0 0 126 -552 0c-21,0 -42,-4 -62,-11 -19,-8 -37,-18 -53,-31 -15,-13 -28,-29 -37,-47 -10,-18 -14,-38 -14,-60l0 -169c0,-63 16,-110 48,-140 32,-31 80,-46 143,-46l527 0z"/>
  <path class="fil23" d="M7681 5220l-123 0 0 -378c0,-17 4,-34 10,-49 6,-15 15,-28 26,-39 11,-12 24,-21 39,-27 15,-7 31,-10 48,-10 17,0 32,3 46,8 14,6 27,14 38,24 11,9 21,21 30,34 8,13 16,27 22,42l114 281 125 -296c5,-14 12,-27 20,-38 8,-12 17,-22 27,-30 11,-8 23,-14 35,-19 13,-4 27,-6 42,-6 19,0 37,4 52,11 15,8 29,18 40,31 11,13 19,28 25,45 6,17 9,35 9,53l0 363 -122 0 0 -370 -121 265c-9,19 -18,37 -26,51 -7,15 -16,28 -25,37 -10,10 -20,18 -33,22 -12,5 -28,8 -46,8 -16,0 -31,-4 -44,-10 -14,-7 -26,-15 -37,-26 -11,-12 -21,-24 -29,-38 -9,-15 -17,-29 -24,-45l-118 -259 0 365z"/>
  <path class="fil23" d="M9712 4835l0 393 -128 0 0 -377 -343 335c-16,18 -33,30 -51,38 -18,8 -37,11 -56,11 -20,0 -37,-3 -53,-11 -15,-7 -29,-18 -39,-30 -11,-13 -19,-28 -25,-45 -6,-17 -9,-36 -9,-55l0 -368 129 0 0 375 344 -338c33,-32 68,-49 105,-49 16,0 32,2 47,7 15,5 29,12 40,22 12,10 21,23 28,38 8,15 11,33 11,54z"/>
  <polygon class="fil23" points="10456,4723 11173,4723 11173,4851 10879,4851 10879,5227 10749,5227 10749,4851 10456,4851 "/>
  <path class="fil23" d="M12431 5228l-557 0 0 -506 134 0 0 188 438 0c22,0 43,4 63,13 20,8 37,20 52,34 15,15 27,32 36,51 9,20 13,41 13,63 0,23 -5,44 -15,63 -10,19 -24,36 -40,50 -17,14 -36,24 -58,32 -21,8 -44,12 -66,12zm-423 -128l469 0 0 -65 -469 0 0 65z"/>
  <path class="fil23" d="M13499 5227l-180 -1 0 -341c0,-22 4,-42 13,-62 10,-20 22,-37 37,-52 15,-15 32,-26 52,-35 20,-9 40,-13 61,-13l542 0 0 132 -574 0 0 58 436 0c14,0 28,2 42,6 14,3 27,8 39,15 13,6 24,14 34,23 11,10 20,20 27,32 7,11 13,24 17,37 5,13 7,28 7,42 0,24 -5,45 -15,64 -9,20 -22,36 -38,50 -16,14 -35,25 -56,33 -21,8 -42,12 -65,12l-379 0zm432 -137l0 -58 -481 0 0 58 481 0z"/>
  <path class="fil23" d="M15152 4724l180 0c21,0 41,5 61,14 19,8 36,20 50,35 15,15 26,32 35,51 8,20 13,40 13,61l0 186c0,14 -2,28 -6,41 -4,13 -10,25 -17,36 -7,12 -16,22 -26,31 -10,10 -21,18 -33,24 -12,7 -24,12 -38,16 -13,4 -27,6 -41,6l-196 0c-10,0 -20,-2 -31,-6 -10,-3 -21,-8 -31,-15 -11,-6 -21,-14 -30,-22 -10,-9 -18,-19 -25,-30 -8,-10 -13,-22 -18,-33 -4,-12 -6,-25 -6,-37l0 -37 -105 0 0 180 -132 0 0 -496 132 0 0 175 105 0 0 -47c0,-11 2,-21 7,-32 5,-11 12,-21 20,-31 9,-10 18,-19 29,-27 11,-9 22,-16 34,-22 12,-7 24,-12 36,-15 12,-4 23,-6 33,-6zm206 131l-235 0 0 243 235 0 0 -243z"/>
  <path class="fil23" d="M16387 4721l529 0 0 130 -580 0 0 59 580 0 0 130 -580 0 0 55 580 0 0 134 -530 0c-24,0 -46,-4 -67,-12 -22,-8 -41,-20 -57,-34 -16,-14 -30,-31 -39,-51 -10,-20 -15,-42 -15,-66l0 -183c0,-25 5,-48 14,-68 9,-20 22,-37 38,-51 16,-14 35,-25 57,-32 22,-7 45,-11 70,-11z"/>
  <path class="fil23" d="M16567 4649l-142 0 0 -147 142 0 0 147zm195 0l-140 0 0 -147 140 0 0 147z"/>
  <polygon class="fil23" points="14283,6484 14283,6270 14515,6270 14515,6484 "/>
  <path class="fil23" d="M15739 6415l0 -145 197 0 0 208c0,21 -6,40 -18,58 -12,18 -27,34 -46,48 -18,13 -39,24 -62,32 -22,8 -45,12 -66,12l0 -144 48 0 0 -69 -53 0z"/>
  <path class="fil22" d="M3797 6240l400 1c15,0 29,3 42,10 13,7 25,16 36,28 10,11 18,25 24,40 6,15 9,31 9,47 0,13 -1,25 -5,37 -3,12 -9,23 -15,34 7,10 13,21 17,33 5,12 7,24 7,35l0 137 -94 0 0 -151 -325 0 0 151 -96 0 0 -402zm96 150l325 0 0 -48 -325 0 0 48z"/>
  <path id="1" class="fil22" d="M4457 6239l0 302 332 0 0 -302 97 0 0 286c0,9 -1,19 -4,29 -3,9 -7,18 -12,27 -5,9 -11,17 -18,24 -7,8 -15,14 -23,19 -8,6 -17,10 -25,13 -9,3 -18,5 -27,5l-302 0c-10,0 -19,-2 -28,-5 -10,-4 -18,-9 -27,-15 -8,-6 -16,-13 -23,-21 -7,-8 -14,-17 -19,-27 -5,-10 -9,-20 -12,-30 -3,-11 -5,-21 -5,-32l0 -273 96 0z"/>
  <polygon id="2" class="fil22" points="4936,6458 4936,6367 5169,6367 5169,6458 "/>
  <path id="3" class="fil22" d="M5348 6238l383 0 0 104 -420 0 0 47 420 0 0 104 -420 0 0 43 420 0 0 107 -384 0c-17,0 -33,-3 -49,-9 -15,-7 -29,-15 -41,-27 -12,-11 -21,-25 -28,-41 -7,-16 -11,-33 -11,-52l0 -147c0,-20 4,-38 10,-54 7,-16 16,-30 28,-41 12,-11 25,-19 41,-25 16,-6 33,-9 51,-9z"/>
  <path id="4" class="fil22" d="M5781 6328c0,-13 2,-25 8,-37 5,-12 11,-22 20,-31 9,-8 18,-15 29,-21 11,-5 23,-7 34,-7 27,0 52,13 77,39l249 270 0 -300 93 0 0 294c0,15 -2,30 -6,44 -4,13 -10,25 -18,35 -8,11 -18,19 -29,25 -11,6 -24,9 -38,9 -7,0 -14,-1 -20,-2 -6,-2 -11,-4 -17,-8 -6,-3 -12,-7 -19,-12 -6,-5 -14,-11 -21,-18l-250 -267 0 301 -92 0 0 -314z"/>
  <circle class="fil25" cx="1845" cy="3186" r="149"/>
  <circle class="fil26" cx="4597" cy="5985" r="149"/>
  <circle class="fil27" cx="5463" cy="5985" r="149"/>
  <path class="fil28" d="M692 3376c-2,30 -13,55 -33,72 -19,18 -45,26 -77,26 -39,0 -69,-14 -92,-42 -22,-28 -33,-69 -33,-120 0,-51 11,-90 33,-118 22,-27 52,-41 91,-41 31,0 55,8 74,23 19,15 30,36 34,62l32 0c-2,-34 -15,-62 -40,-83 -26,-21 -59,-32 -100,-32 -49,0 -87,17 -115,50 -29,33 -44,80 -44,140 0,60 15,106 43,141 28,34 67,51 115,51 43,0 77,-12 102,-35 25,-23 40,-54 42,-94l-32 0z"/>
  <path id="1" class="fil28" d="M964 3457l0 4c0,12 3,21 9,27 7,6 16,10 29,10 2,0 5,-1 8,-1 4,-1 9,-1 13,-2l0 -23 -11 0c-8,0 -14,-1 -16,-5 -2,-3 -3,-9 -3,-18l0 -143c0,-26 -8,-46 -24,-59 -16,-13 -40,-20 -71,-20 -32,0 -57,8 -76,23 -18,15 -27,36 -28,62l30 0c1,-19 8,-34 20,-44 12,-9 30,-14 54,-14 23,0 40,4 50,14 10,8 14,23 14,43 0,12 -4,20 -13,25 -6,4 -17,7 -32,8l-14 1c-19,1 -33,3 -42,5 -15,2 -27,6 -38,11 -14,6 -24,14 -31,25 -7,12 -11,25 -11,40 0,23 8,41 23,55 16,14 37,21 64,21 18,0 35,-4 51,-11 16,-8 31,-19 45,-34zm-2 -100l0 37c0,25 -8,45 -25,59 -17,15 -38,22 -65,22 -19,0 -33,-5 -44,-14 -10,-9 -16,-21 -16,-36 0,-14 5,-25 15,-35 11,-10 26,-16 45,-18l31 -4c15,-2 26,-3 33,-4 10,-2 19,-4 26,-7z"/>
  <path id="2" class="fil28" d="M1085 3566l30 0 0 -116c11,17 23,30 39,39 15,9 33,13 52,13 35,0 63,-14 84,-43 19,-26 28,-58 28,-95 0,-37 -9,-69 -28,-94 -21,-29 -49,-43 -84,-43 -19,0 -37,4 -53,13 -14,8 -27,21 -38,37l0 -44 -30 0 0 333zm115 -313c27,0 49,12 65,35 15,20 22,46 22,76 0,30 -7,55 -22,76 -16,23 -38,35 -65,35 -27,0 -49,-12 -66,-35 -14,-21 -21,-46 -21,-76 0,-30 7,-56 21,-76 17,-23 39,-35 66,-35z"/>
  <path id="3" class="fil28" d="M1377 3413c1,27 10,48 29,65 18,16 42,24 73,24 30,0 54,-7 72,-22 18,-14 27,-31 27,-53 0,-21 -6,-37 -19,-48 -12,-11 -32,-19 -60,-26l-12 -3c-28,-6 -46,-12 -54,-17 -13,-7 -19,-19 -19,-35 0,-13 5,-24 15,-32 11,-8 25,-13 43,-13 20,0 36,5 49,15 11,10 18,24 19,42l31 0c-2,-26 -11,-47 -29,-61 -17,-15 -40,-22 -70,-22 -26,0 -48,7 -65,21 -16,14 -24,32 -24,55 0,21 7,37 23,48 13,9 36,18 71,26l1 0c27,7 44,12 51,17 12,7 18,18 18,32 0,15 -6,26 -18,35 -13,9 -30,14 -51,14 -21,0 -37,-6 -50,-18 -13,-11 -19,-26 -19,-44l-32 0z"/>
  <polygon class="fil28" points="469,3977 688,3977 688,3947 502,3947 502,3614 469,3614 "/>
  <path id="1" class="fil28" d="M846 3710c-38,0 -68,14 -90,42 -20,26 -29,58 -29,95 0,37 9,69 29,94 22,29 52,43 90,43 38,0 68,-14 90,-43 20,-25 30,-57 30,-94 0,-37 -10,-69 -30,-95 -22,-28 -52,-42 -90,-42zm0 26c28,0 50,12 66,35 15,21 23,46 23,76 0,30 -8,55 -23,75 -16,24 -38,35 -66,35 -28,0 -50,-11 -66,-35 -15,-20 -22,-45 -22,-75 0,-30 7,-56 22,-76 16,-23 38,-35 66,-35z"/>
  <path id="2" class="fil28" d="M1219 3887c-3,22 -12,39 -25,52 -14,12 -31,18 -51,18 -26,0 -47,-9 -62,-29 -16,-20 -23,-47 -23,-82 0,-34 7,-62 23,-81 15,-19 36,-29 62,-29 19,0 36,6 49,17 14,11 22,26 25,46l29 0c-2,-27 -12,-49 -31,-65 -19,-16 -43,-24 -72,-24 -36,0 -65,12 -85,36 -21,25 -32,59 -32,103 0,42 11,75 32,99 20,24 48,36 83,36 31,0 56,-8 75,-26 19,-18 30,-41 33,-71l-30 0z"/>
  <polygon id="3" class="fil28" points="1318,3977 1348,3977 1347,3880 1396,3832 1490,3977 1525,3977 1416,3812 1513,3716 1474,3716 1348,3843 1348,3614 1318,3614 "/>
  <polygon class="fil29" points="18252,3737 18495,3737 18495,3707 18285,3707 18285,3566 18472,3566 18472,3536 18285,3536 18285,3405 18489,3405 18489,3374 18252,3374 "/>
  <polygon id="1" class="fil29" points="18577,3737 18601,3737 18601,3431 18789,3737 18825,3737 18825,3374 18793,3374 18793,3679 18605,3374 18569,3374 18569,3737 "/>
  <polygon id="2" class="fil29" points="18997,3737 19030,3737 19030,3405 19143,3405 19143,3374 18885,3374 18885,3405 18997,3405 "/>
  <polygon id="3" class="fil29" points="19213,3737 19456,3737 19456,3707 19246,3707 19246,3566 19433,3566 19433,3536 19246,3536 19246,3405 19450,3405 19450,3374 19213,3374 "/>
  <path id="4" class="fil29" d="M19530 3737l32 0 0 -161 106 0c29,0 49,5 58,14 9,10 14,31 17,62l3 48c1,9 2,16 3,22 2,6 3,11 5,15l37 0 0 -5c-3,-3 -6,-7 -7,-12 -3,-6 -4,-13 -5,-21l-4 -55c-2,-27 -6,-45 -10,-54 -6,-14 -18,-24 -35,-29 18,-7 33,-18 43,-33 10,-16 15,-35 15,-57 0,-18 -4,-35 -12,-49 -7,-14 -18,-25 -32,-33 -12,-6 -26,-11 -43,-13 -11,-1 -28,-2 -51,-2l-120 0 0 363zm32 -191l0 -141 95 0c17,0 31,0 39,1 12,2 22,6 31,11 8,6 15,14 19,23 5,10 8,20 8,32 0,26 -8,45 -23,57 -16,11 -40,17 -73,17l-96 0z"/>
  <path class="fil28" d="M1048 6219l0 0c-3,30 -14,53 -33,69 -20,17 -45,26 -77,26 -39,0 -70,-14 -92,-41 -22,-27 -33,-65 -33,-113 0,-48 11,-86 33,-112 22,-26 52,-40 91,-40 30,0 55,8 74,22 19,15 30,35 33,60l33 0c-2,-33 -16,-60 -41,-80 -25,-20 -58,-31 -99,-31 -49,0 -87,16 -115,48 -29,32 -44,77 -44,133 0,57 15,101 43,134 28,33 67,49 115,49 42,0 76,-11 102,-33 25,-22 39,-52 42,-91l-32 0z"/>
  <polygon id="1" class="fil28" points="1252,6333 1252,6333 1284,6333 1284,6102 1394,6102 1394,6071 1143,6071 1143,6102 1252,6102 "/>
  <path id="2" class="fil28" d="M1483 6184l0 0c2,-29 10,-51 25,-68 15,-16 34,-24 57,-24 22,0 41,8 55,24 14,16 22,39 23,68l-160 0zm0 24l0 0 192 0 0 -10c0,-42 -10,-75 -30,-98 -19,-23 -46,-35 -79,-35 -36,0 -63,12 -83,36 -21,25 -31,59 -31,103 0,43 10,77 30,101 20,24 47,36 82,36 29,0 53,-8 72,-25 20,-16 32,-37 35,-63l-30 0c-3,18 -11,33 -25,44 -14,11 -30,17 -49,17 -25,0 -45,-10 -61,-28 -15,-20 -23,-45 -23,-78z"/>
  <path id="3" class="fil28" d="M1756 6404l0 0 30 0 0 -113c10,16 23,29 38,37 16,9 33,14 52,14 36,0 64,-15 84,-44 19,-25 29,-57 29,-94 0,-38 -10,-70 -29,-96 -20,-28 -48,-43 -84,-43 -19,0 -36,5 -52,14 -15,8 -27,20 -38,37l0 -44 -30 0 0 332zm115 -312l0 0c27,0 49,12 65,34 14,21 22,47 22,77 0,31 -8,56 -22,77 -16,23 -38,35 -65,35 -28,0 -50,-12 -66,-35 -14,-21 -21,-46 -21,-77 0,-30 7,-56 21,-77 16,-22 38,-34 66,-34z"/>
  <path id="4" class="fil28" d="M2091 6184l0 0c2,-29 10,-51 25,-68 15,-16 34,-24 57,-24 22,0 41,8 55,24 14,16 22,39 23,68l-160 0zm0 24l0 0 192 0 0 -10c0,-42 -10,-75 -30,-98 -19,-23 -46,-35 -79,-35 -36,0 -63,12 -83,36 -21,25 -31,59 -31,103 0,43 10,77 30,101 20,24 48,36 82,36 29,0 53,-8 73,-25 19,-16 31,-37 34,-63l-30 0c-3,18 -11,33 -25,44 -14,11 -30,17 -49,17 -25,0 -45,-10 -61,-28 -15,-20 -23,-45 -23,-78z"/>
  <polygon id="5" class="fil28" points="2453,6333 2453,6333 2486,6333 2486,6102 2595,6102 2595,6071 2344,6071 2344,6102 2453,6102 "/>
  <path id="6" class="fil28" d="M2708 6181l0 0 39 0c22,0 39,6 52,17 13,12 19,26 19,44 0,19 -6,33 -19,44 -13,12 -30,18 -52,18l-39 0 0 -123zm-31 152l0 0 74 0c30,0 55,-9 73,-27 17,-17 26,-38 26,-63 0,-26 -9,-47 -26,-64 -18,-17 -42,-26 -73,-26l-43 0 0 -81 -31 0 0 261z"/>
  <path class="fil28" d="M1386 6751l0 0 103 0c29,0 51,0 65,-1 18,-1 31,-4 40,-7 17,-7 31,-18 41,-33 10,-16 15,-33 15,-52 0,-22 -6,-41 -19,-58 -12,-16 -29,-27 -51,-31 17,-7 30,-17 40,-31 9,-13 14,-27 14,-43 0,-17 -4,-31 -12,-44 -7,-13 -18,-23 -32,-31 -10,-6 -21,-10 -35,-12 -12,-2 -27,-2 -46,-2l-117 0 -6 0 0 30 0 315zm117 -315l0 0c34,0 59,4 73,12 16,9 24,26 24,49 0,23 -8,40 -25,49 -15,8 -40,12 -75,12l-81 0 0 -122 84 0zm-84 285l0 0 0 -133 104 0c30,0 54,6 70,17 15,12 23,30 23,52 0,24 -8,41 -23,50 -15,10 -39,14 -73,14l-101 0z"/>
  <path id="1" class="fil28" d="M1919 6663l0 0c-4,22 -12,39 -26,51 -13,13 -30,19 -50,19 -26,0 -47,-10 -63,-30 -15,-20 -23,-47 -23,-82 0,-35 8,-63 23,-82 16,-19 36,-29 62,-29 20,0 36,6 50,17 14,11 22,27 24,46l29 0c-1,-27 -12,-48 -30,-65 -20,-16 -44,-24 -73,-24 -36,0 -64,12 -85,36 -21,25 -32,59 -32,104 0,42 11,75 32,100 20,24 48,36 83,36 31,0 56,-9 76,-26 18,-18 30,-41 33,-71l-30 0z"/>
  <path id="2" class="fil28" d="M2050 6602l0 0c2,-29 10,-51 25,-68 15,-16 34,-24 57,-24 22,0 41,8 55,24 14,17 22,39 23,68l-160 0zm0 24l0 0 192 0 0 -10c0,-42 -10,-74 -30,-98 -19,-23 -46,-34 -79,-34 -36,0 -63,12 -83,35 -21,25 -31,59 -31,103 0,43 10,77 30,101 20,24 48,36 82,36 29,0 53,-8 73,-25 19,-16 31,-37 34,-63l-30 0c-3,18 -11,33 -25,45 -14,10 -30,16 -49,16 -25,0 -45,-10 -61,-28 -15,-19 -23,-45 -23,-78z"/>
  <path class="fil28" d="M17084 6306l0 0 103 0c29,0 51,-1 65,-2 18,-1 31,-3 39,-6 18,-7 32,-18 42,-34 10,-15 15,-32 15,-51 0,-22 -6,-42 -19,-58 -12,-17 -29,-27 -51,-32 17,-6 30,-16 40,-30 9,-13 14,-28 14,-44 0,-16 -4,-31 -12,-44 -7,-12 -18,-23 -32,-30 -10,-6 -22,-10 -35,-12 -12,-2 -27,-3 -46,-3l-117 0 -6 0 0 30 0 316zm117 -316l0 0c34,0 58,4 73,13 16,9 24,25 24,49 0,23 -8,39 -25,48 -15,9 -40,13 -75,13l-81 0 0 -123 84 0zm-84 286l0 0 0 -134 104 0c30,0 54,6 70,18 15,12 23,29 23,52 0,24 -8,40 -23,50 -15,9 -39,14 -73,14l-101 0z"/>
  <path id="1" class="fil28" d="M17447 6305l0 0 75 0c30,0 54,-8 72,-26 17,-16 26,-35 26,-58 0,-23 -9,-43 -26,-59 -18,-17 -42,-26 -72,-26l-44 0 0 -92 -31 0 0 261zm31 -142l0 0 39 0c22,0 39,6 53,18 13,10 20,24 20,40 0,15 -7,28 -20,39 -14,12 -31,18 -53,18l-39 0 0 -115zm220 -119l0 0 0 261 32 0 0 -261 -32 0z"/>
  <path id="2" class="fil28" d="M17881 6044l0 0 0 21c0,46 -6,88 -19,126 -14,48 -37,86 -69,115l-3 66 21 0c2,-21 6,-37 12,-47 8,-13 21,-19 39,-19l153 0c16,0 30,5 41,16 12,11 22,28 29,50l17 0 -6 -66c-13,0 -24,-4 -33,-11 -10,-7 -14,-15 -14,-25l0 -226 -168 0zm31 30l0 0 106 0 0 202 -164 0c18,-22 32,-55 44,-98 10,-37 14,-72 14,-104z"/>
  <path id="3" class="fil28" d="M18176 6156l0 0c2,-28 10,-50 25,-67 15,-16 33,-24 56,-24 23,0 41,8 56,24 14,16 22,39 23,67l-160 0zm0 25l0 0 192 0 0 -10c0,-42 -10,-75 -30,-98 -20,-23 -46,-35 -80,-35 -35,0 -63,12 -83,36 -20,25 -30,59 -30,103 0,43 10,76 30,101 20,23 47,35 82,35 29,0 53,-8 72,-24 20,-16 31,-37 35,-64l-30 0c-3,19 -12,34 -25,45 -14,11 -30,16 -50,16 -25,0 -45,-9 -60,-28 -15,-19 -23,-45 -23,-77z"/>
  <path id="4" class="fil28" d="M18679 6044l0 0 -184 0 0 141c0,33 -7,57 -21,71 -13,13 -35,20 -65,21l12 29c29,-1 53,-10 72,-29 21,-20 32,-48 32,-84l0 -119 122 0 0 232 32 0 0 -262z"/>
  <polygon id="5" class="fil28" points="18973,6044 18973,6044 18973,6068 18815,6240 18815,6044 18784,6044 18784,6306 18815,6306 18815,6281 18973,6110 18973,6306 19004,6306 19004,6044 "/>
  <polygon id="6" class="fil28" points="19192,6306 19192,6306 19225,6306 19225,6074 19335,6074 19335,6044 19083,6044 19083,6074 19192,6074 "/>
  <path id="7" class="fil28" d="M19447 6154l0 0 39 0c22,0 39,6 52,17 13,11 19,26 19,44 0,18 -6,33 -19,44 -13,12 -30,18 -52,18l-39 0 0 -123zm-31 152l0 0 74 0c30,0 55,-9 73,-27 17,-17 26,-38 26,-63 0,-26 -9,-47 -26,-64 -18,-17 -42,-26 -73,-26l-43 0 0 -81 -31 0 0 261z"/>
  <path class="fil28" d="M17909 6772l0 0 103 0c29,0 50,0 64,-1 18,-2 31,-4 40,-7 18,-7 31,-18 42,-34 10,-15 15,-32 15,-51 0,-22 -7,-42 -19,-58 -13,-16 -30,-27 -51,-31 16,-7 29,-17 39,-31 9,-13 14,-28 14,-44 0,-16 -4,-31 -12,-44 -7,-12 -18,-22 -31,-30 -10,-6 -22,-10 -36,-12 -12,-2 -27,-3 -46,-3l-117 0 -5 0 0 30 0 316zm117 -316l0 0c34,0 58,5 72,13 16,9 24,25 24,49 0,23 -8,39 -25,49 -14,8 -39,12 -75,12l-81 0 0 -123 85 0zm-85 286l0 0 0 -134 104 0c31,0 54,6 70,18 16,12 24,29 24,52 0,24 -8,40 -24,50 -14,9 -39,14 -72,14l-102 0z"/>
  <path id="1" class="fil28" d="M18441 6684l0 0c-3,22 -12,39 -25,51 -14,12 -31,18 -51,18 -26,0 -47,-9 -62,-29 -16,-20 -24,-47 -24,-83 0,-35 8,-62 24,-82 15,-19 36,-28 62,-28 19,0 36,5 49,17 14,11 22,26 25,46l29 0c-2,-27 -12,-49 -31,-65 -19,-17 -43,-25 -72,-25 -36,0 -65,12 -85,37 -22,25 -32,59 -32,103 0,43 10,76 31,100 21,24 49,37 84,37 30,0 55,-9 75,-27 19,-17 30,-41 33,-70l-30 0z"/>
  <path id="2" class="fil28" d="M18573 6623l0 0c1,-29 10,-51 25,-68 14,-16 33,-24 56,-24 23,0 41,8 55,24 15,16 23,39 24,68l-160 0zm0 24l0 0 191 0 0 -10c0,-42 -10,-75 -29,-98 -20,-23 -46,-35 -80,-35 -35,0 -63,12 -83,36 -20,25 -31,59 -31,103 0,43 10,76 31,101 20,24 47,36 82,36 29,0 53,-9 72,-25 20,-16 31,-37 34,-64l-30 0c-3,19 -11,34 -25,45 -13,11 -30,16 -49,16 -25,0 -45,-9 -60,-28 -16,-19 -23,-44 -23,-77z"/>
  <path class="fil30" d="M1454 4643l-191 221 176 0 0 -66 31 0 0 66 176 0 -192 -221zm63 251l-125 0 0 413 125 0 0 -413z"/>
  <path class="fil30" d="M18696 4643l-192 221 176 0 0 -66 32 0 0 66 176 0 -192 -221zm62 251l-124 0 0 413 124 0 0 -413z"/>
  <path class="fil30" d="M18688 768l233 -202 0 185 -69 0 0 33 69 0 0 186 -233 -202zm264 65l0 -131 435 0 0 131 -435 0z"/>
 </g>
</svg>
