<?xml version="1.0" encoding="UTF-8"?>
<!DOCTYPE svg PUBLIC "-//W3C//DTD SVG 1.1//EN" "http://www.w3.org/Graphics/SVG/1.1/DTD/svg11.dtd">
<!-- Creator: CorelDRAW X6 -->
<svg xmlns="http://www.w3.org/2000/svg" xml:space="preserve" width="195.968mm" height="67.9096mm" version="1.1" style="shape-rendering:geometricPrecision; text-rendering:geometricPrecision; image-rendering:optimizeQuality; fill-rule:evenodd; clip-rule:evenodd"
viewBox="0 0 19954 6915"
 xmlns:xlink="http://www.w3.org/1999/xlink">
 <defs>
  <style type="text/css">
   <![CDATA[
    .str0 {stroke:#69BEE7;stroke-width:53.8752;stroke-linejoin:round}
    .fil60 {fill:#FEFEFE}
    .fil61 {fill:#FF0033}
    .fil62 {fill:#FEFEFE;fill-rule:nonzero}
    .fil59 {fill:#FEFEFE;fill-rule:nonzero}
    .fil7 {fill:url(#id0)}
    .fil4 {fill:url(#id1)}
    .fil1 {fill:url(#id2)}
    .fil3 {fill:url(#id3)}
    .fil0 {fill:url(#id4)}
    .fil10 {fill:url(#id5)}
    .fil9 {fill:url(#id6)}
    .fil2 {fill:url(#id7)}
    .fil5 {fill:url(#id8)}
    .fil6 {fill:url(#id9)}
    .fil8 {fill:url(#id10)}
    .fil42 {fill:url(#id11)}
    .fil35 {fill:url(#id12)}
    .fil43 {fill:url(#id13)}
    .fil29 {fill:url(#id14)}
    .fil36 {fill:url(#id15)}
    .fil55 {fill:url(#id16)}
    .fil40 {fill:url(#id17)}
    .fil17 {fill:url(#id18)}
    .fil30 {fill:url(#id19)}
    .fil56 {fill:url(#id20)}
    .fil49 {fill:url(#id21)}
    .fil18 {fill:url(#id22)}
    .fil31 {fill:url(#id23)}
    .fil57 {fill:url(#id24)}
    .fil50 {fill:url(#id25)}
    .fil19 {fill:url(#id26)}
    .fil32 {fill:url(#id27)}
    .fil25 {fill:url(#id28)}
    .fil20 {fill:url(#id29)}
    .fil26 {fill:url(#id30)}
    .fil37 {fill:url(#id31)}
    .fil24 {fill:url(#id32)}
    .fil21 {fill:url(#id33)}
    .fil11 {fill:url(#id34)}
    .fil14 {fill:url(#id35)}
    .fil52 {fill:url(#id36)}
    .fil23 {fill:url(#id37)}
    .fil12 {fill:url(#id38)}
    .fil13 {fill:url(#id39)}
    .fil41 {fill:url(#id40)}
    .fil53 {fill:url(#id41)}
    .fil27 {fill:url(#id42)}
    .fil38 {fill:url(#id43)}
    .fil47 {fill:url(#id44)}
    .fil46 {fill:url(#id45)}
    .fil28 {fill:url(#id46)}
    .fil39 {fill:url(#id47)}
    .fil48 {fill:url(#id48)}
    .fil45 {fill:url(#id49)}
    .fil16 {fill:url(#id50)}
    .fil33 {fill:url(#id51)}
    .fil54 {fill:url(#id52)}
    .fil51 {fill:url(#id53)}
    .fil15 {fill:url(#id54)}
    .fil34 {fill:url(#id55)}
    .fil22 {fill:url(#id56)}
    .fil44 {fill:url(#id57)}
    .fil58 {fill:url(#id58)}
   ]]>
  </style>
  <linearGradient id="id0" gradientUnits="userSpaceOnUse" x1="1014.78" y1="4086.03" x2="1014.78" y2="2828.8">
   <stop offset="0" style="stop-color:black"/>
   <stop offset="0.509804" style="stop-color:#406A82"/>
   <stop offset="1" style="stop-color:black"/>
  </linearGradient>
  <linearGradient id="id1" gradientUnits="userSpaceOnUse" xlink:href="#id0" x1="1373.99" y1="5486.97" x2="1373.99" y2="4229.73">
  </linearGradient>
  <linearGradient id="id2" gradientUnits="userSpaceOnUse" xlink:href="#id0" x1="1733.2" y1="6887.9" x2="1733.2" y2="5630.65">
  </linearGradient>
  <linearGradient id="id3" gradientUnits="userSpaceOnUse" xlink:href="#id0" x1="4966.11" y1="6887.9" x2="4966.11" y2="5630.65">
  </linearGradient>
  <linearGradient id="id4" gradientUnits="userSpaceOnUse" xlink:href="#id0" x1="9977.13" y1="6887.9" x2="9977.13" y2="5630.65">
  </linearGradient>
  <linearGradient id="id5" gradientUnits="userSpaceOnUse" xlink:href="#id0" x1="14305.6" y1="6887.9" x2="14305.6" y2="5630.65">
  </linearGradient>
  <linearGradient id="id6" gradientUnits="userSpaceOnUse" xlink:href="#id0" x1="15742.5" y1="6887.9" x2="15742.5" y2="5630.65">
  </linearGradient>
  <linearGradient id="id7" gradientUnits="userSpaceOnUse" xlink:href="#id0" x1="18239" y1="6887.9" x2="18239" y2="5630.65">
  </linearGradient>
  <linearGradient id="id8" gradientUnits="userSpaceOnUse" xlink:href="#id0" x1="18598.2" y1="5486.97" x2="18598.2" y2="4229.73">
  </linearGradient>
  <linearGradient id="id9" gradientUnits="userSpaceOnUse" xlink:href="#id0" x1="18939.5" y1="4086.03" x2="18939.5" y2="2828.8">
  </linearGradient>
  <linearGradient id="id10" gradientUnits="userSpaceOnUse" xlink:href="#id0" x1="18939.5" y1="1284.19" x2="18939.5" y2="26.9427">
  </linearGradient>
  <linearGradient id="id11" gradientUnits="userSpaceOnUse" x1="691.488" y1="2685.11" x2="691.488" y2="1427.87">
   <stop offset="0" style="stop-color:#3A5777"/>
   <stop offset="0.501961" style="stop-color:#6CB4DD"/>
   <stop offset="1" style="stop-color:#3C5878"/>
  </linearGradient>
  <linearGradient id="id12" gradientUnits="userSpaceOnUse" xlink:href="#id11" x1="1374" y1="1284.19" x2="1374" y2="26.9427">
  </linearGradient>
  <linearGradient id="id13" gradientUnits="userSpaceOnUse" xlink:href="#id11" x1="2087.61" y1="2685.11" x2="2087.61" y2="1427.87">
  </linearGradient>
  <linearGradient id="id14" gradientUnits="userSpaceOnUse" xlink:href="#id11" x1="2810.85" y1="4086.03" x2="2810.85" y2="2828.8">
  </linearGradient>
  <linearGradient id="id15" gradientUnits="userSpaceOnUse" xlink:href="#id11" x1="2810.85" y1="1284.19" x2="2810.85" y2="26.9427">
  </linearGradient>
  <linearGradient id="id16" gradientUnits="userSpaceOnUse" xlink:href="#id11" x1="3529.26" y1="5486.97" x2="3529.26" y2="4229.73">
  </linearGradient>
  <linearGradient id="id17" gradientUnits="userSpaceOnUse" xlink:href="#id11" x1="3524.45" y1="2685.11" x2="3524.45" y2="1427.87">
  </linearGradient>
  <linearGradient id="id18" gradientUnits="userSpaceOnUse" xlink:href="#id11" x1="4247.69" y1="4086.03" x2="4247.69" y2="2828.8">
  </linearGradient>
  <linearGradient id="id19" gradientUnits="userSpaceOnUse" xlink:href="#id11" x1="4247.69" y1="1284.19" x2="4247.69" y2="26.9427">
  </linearGradient>
  <linearGradient id="id20" gradientUnits="userSpaceOnUse" xlink:href="#id11" x1="4961.3" y1="5486.97" x2="4961.3" y2="4229.73">
  </linearGradient>
  <linearGradient id="id21" gradientUnits="userSpaceOnUse" xlink:href="#id11" x1="4961.3" y1="2685.11" x2="4961.3" y2="1427.87">
  </linearGradient>
  <linearGradient id="id22" gradientUnits="userSpaceOnUse" xlink:href="#id11" x1="5684.54" y1="4086.03" x2="5684.54" y2="2828.8">
  </linearGradient>
  <linearGradient id="id23" gradientUnits="userSpaceOnUse" xlink:href="#id11" x1="5684.54" y1="1284.19" x2="5684.54" y2="26.9427">
  </linearGradient>
  <linearGradient id="id24" gradientUnits="userSpaceOnUse" xlink:href="#id11" x1="6398.15" y1="5486.97" x2="6398.15" y2="4229.73">
  </linearGradient>
  <linearGradient id="id25" gradientUnits="userSpaceOnUse" xlink:href="#id11" x1="6398.15" y1="2685.11" x2="6398.15" y2="1427.87">
  </linearGradient>
  <linearGradient id="id26" gradientUnits="userSpaceOnUse" xlink:href="#id11" x1="7121.39" y1="4086.03" x2="7121.39" y2="2828.8">
  </linearGradient>
  <linearGradient id="id27" gradientUnits="userSpaceOnUse" xlink:href="#id11" x1="7121.39" y1="1284.19" x2="7121.39" y2="26.9427">
  </linearGradient>
  <linearGradient id="id28" gradientUnits="userSpaceOnUse" xlink:href="#id11" x1="7845.19" y1="5486.97" x2="7845.19" y2="4229.73">
  </linearGradient>
  <linearGradient id="id29" gradientUnits="userSpaceOnUse" xlink:href="#id11" x1="7835.01" y1="2685.11" x2="7835.01" y2="1427.87">
  </linearGradient>
  <linearGradient id="id30" gradientUnits="userSpaceOnUse" xlink:href="#id11" x1="8558.24" y1="4086.03" x2="8558.24" y2="2828.8">
  </linearGradient>
  <linearGradient id="id31" gradientUnits="userSpaceOnUse" xlink:href="#id11" x1="8558.24" y1="1284.19" x2="8558.24" y2="26.9427">
  </linearGradient>
  <linearGradient id="id32" gradientUnits="userSpaceOnUse" xlink:href="#id11" x1="9271.86" y1="5486.97" x2="9271.86" y2="4229.73">
  </linearGradient>
  <linearGradient id="id33" gradientUnits="userSpaceOnUse" xlink:href="#id11" x1="9271.86" y1="2685.11" x2="9271.86" y2="1427.87">
  </linearGradient>
  <linearGradient id="id34" gradientUnits="userSpaceOnUse" xlink:href="#id11" x1="9995.09" y1="4086.03" x2="9995.09" y2="2828.8">
  </linearGradient>
  <linearGradient id="id35" gradientUnits="userSpaceOnUse" xlink:href="#id11" x1="9995.09" y1="1284.19" x2="9995.09" y2="26.9427">
  </linearGradient>
  <linearGradient id="id36" gradientUnits="userSpaceOnUse" xlink:href="#id11" x1="10708.7" y1="2685.11" x2="10708.7" y2="1427.87">
  </linearGradient>
  <linearGradient id="id37" gradientUnits="userSpaceOnUse" xlink:href="#id11" x1="10724.3" y1="5486.97" x2="10724.3" y2="4229.73">
  </linearGradient>
  <linearGradient id="id38" gradientUnits="userSpaceOnUse" xlink:href="#id11" x1="11431.9" y1="4086.03" x2="11431.9" y2="2828.8">
  </linearGradient>
  <linearGradient id="id39" gradientUnits="userSpaceOnUse" xlink:href="#id11" x1="11431.9" y1="1284.19" x2="11431.9" y2="26.9427">
  </linearGradient>
  <linearGradient id="id40" gradientUnits="userSpaceOnUse" xlink:href="#id11" x1="12145.6" y1="2685.11" x2="12145.6" y2="1427.87">
  </linearGradient>
  <linearGradient id="id41" gradientUnits="userSpaceOnUse" xlink:href="#id11" x1="12150.9" y1="5486.97" x2="12150.9" y2="4229.73">
  </linearGradient>
  <linearGradient id="id42" gradientUnits="userSpaceOnUse" xlink:href="#id11" x1="12868.8" y1="4086.03" x2="12868.8" y2="2828.8">
  </linearGradient>
  <linearGradient id="id43" gradientUnits="userSpaceOnUse" xlink:href="#id11" x1="12868.8" y1="1284.19" x2="12868.8" y2="26.9427">
  </linearGradient>
  <linearGradient id="id44" gradientUnits="userSpaceOnUse" xlink:href="#id11" x1="13592.6" y1="5486.97" x2="13592.6" y2="4229.73">
  </linearGradient>
  <linearGradient id="id45" gradientUnits="userSpaceOnUse" xlink:href="#id11" x1="13592.6" y1="2685.11" x2="13592.6" y2="1427.87">
  </linearGradient>
  <linearGradient id="id46" gradientUnits="userSpaceOnUse" xlink:href="#id11" x1="14305.6" y1="4086.03" x2="14305.6" y2="2828.8">
  </linearGradient>
  <linearGradient id="id47" gradientUnits="userSpaceOnUse" xlink:href="#id11" x1="14305.6" y1="1284.19" x2="14305.6" y2="26.9427">
  </linearGradient>
  <linearGradient id="id48" gradientUnits="userSpaceOnUse" xlink:href="#id11" x1="15029.4" y1="5486.97" x2="15029.4" y2="4229.73">
  </linearGradient>
  <linearGradient id="id49" gradientUnits="userSpaceOnUse" xlink:href="#id11" x1="15029.4" y1="2685.11" x2="15029.4" y2="1427.87">
  </linearGradient>
  <linearGradient id="id50" gradientUnits="userSpaceOnUse" xlink:href="#id11" x1="15742.5" y1="4086.03" x2="15742.5" y2="2828.8">
  </linearGradient>
  <linearGradient id="id51" gradientUnits="userSpaceOnUse" xlink:href="#id11" x1="15742.5" y1="1284.19" x2="15742.5" y2="26.9427">
  </linearGradient>
  <linearGradient id="id52" gradientUnits="userSpaceOnUse" xlink:href="#id11" x1="16466.3" y1="5486.97" x2="16466.3" y2="4229.73">
  </linearGradient>
  <linearGradient id="id53" gradientUnits="userSpaceOnUse" xlink:href="#id11" x1="16466.3" y1="2685.11" x2="16466.3" y2="1427.87">
  </linearGradient>
  <linearGradient id="id54" gradientUnits="userSpaceOnUse" xlink:href="#id11" x1="17179.3" y1="4086.03" x2="17179.3" y2="2828.8">
  </linearGradient>
  <linearGradient id="id55" gradientUnits="userSpaceOnUse" xlink:href="#id11" x1="17179.3" y1="1284.19" x2="17179.3" y2="26.9427">
  </linearGradient>
  <linearGradient id="id56" gradientUnits="userSpaceOnUse" xlink:href="#id11" x1="17897.8" y1="2685.11" x2="17897.8" y2="1427.87">
  </linearGradient>
  <linearGradient id="id57" gradientUnits="userSpaceOnUse" xlink:href="#id11" x1="19298.7" y1="2685.11" x2="19298.7" y2="1427.87">
  </linearGradient>
  <linearGradient id="id58" gradientUnits="userSpaceOnUse" xlink:href="#id11" x1="332.273" y1="1350.8" x2="332.273" y2="26.9427">
  </linearGradient>
 </defs>
 <g id="Layer_x0020_1">
  <metadata id="CorelCorpID_0Corel-Layer"/>
  <path class="fil0 str0" d="M6457 5774l0 970c0,84 59,144 144,144l6753 0c84,0 143,-60 143,-144l0 -970c0,-84 -59,-143 -143,-143l-6753 0c-85,0 -144,59 -144,143z"/>
  <path class="fil1 str0" d="M27 5774l0 970c0,84 60,144 144,144l3125 0c84,0 143,-60 143,-144l0 -970c0,-84 -59,-143 -143,-143l-3125 0c-84,0 -144,59 -144,143z"/>
  <path class="fil2 str0" d="M16551 5774l0 970c0,84 59,144 143,144l3090 0c84,0 143,-60 143,-144l0 -970c0,-84 -59,-143 -143,-143l-3090 0c-84,0 -143,59 -143,143z"/>
  <path class="fil3 str0" d="M3619 5774l0 970c0,84 60,144 144,144l2406 0c85,0 144,-60 144,-144l0 -970c0,-84 -59,-143 -144,-143l-2406 0c-84,0 -144,59 -144,143z"/>
  <path class="fil4 str0" d="M27 4373l0 970c0,84 60,144 144,144l2406 0c84,0 144,-60 144,-144l0 -970c0,-84 -60,-143 -144,-143l-2406 0c-84,0 -144,59 -144,143z"/>
  <path class="fil5 str0" d="M17269 4373l0 970c0,84 60,144 144,144l2371 0c84,0 143,-60 143,-144l0 -970c0,-84 -59,-143 -143,-143l-2371 0c-84,0 -144,59 -144,143z"/>
  <path class="fil6 str0" d="M17952 2972l0 970c0,84 59,144 143,144l1689 0c84,0 143,-60 143,-144l0 -970c0,-84 -59,-143 -143,-143l-1689 0c-84,0 -143,59 -143,143z"/>
  <path class="fil7 str0" d="M27 2972l0 970c0,84 60,144 144,144l1688 0c84,0 144,-60 144,-144l0 -970c0,-84 -60,-143 -144,-143l-1688 0c-84,0 -144,59 -144,143z"/>
  <path class="fil8 str0" d="M17952 171l0 970c0,84 59,143 143,143l1689 0c84,0 143,-59 143,-143l0 -970c0,-84 -59,-144 -143,-144l-1689 0c-84,0 -143,60 -143,144z"/>
  <path class="fil9 str0" d="M15114 5774l0 970c0,84 59,144 144,144l969 0c85,0 144,-60 144,-144l0 -970c0,-84 -59,-143 -144,-143l-969 0c-85,0 -144,59 -144,143z"/>
  <path class="fil10 str0" d="M13677 5774l0 970c0,84 60,144 144,144l970 0c84,0 143,-60 143,-144l0 -970c0,-84 -59,-143 -143,-143l-970 0c-84,0 -144,59 -144,143z"/>
  <g id="_653776848">
   <path class="fil11 str0" d="M9366 2972l0 970c0,84 60,144 144,144l970 0c84,0 144,-60 144,-144l0 -970c0,-84 -60,-143 -144,-143l-970 0c-84,0 -144,59 -144,143z"/>
   <path class="fil12 str0" d="M10803 2972l0 970c0,84 60,144 144,144l970 0c84,0 144,-60 144,-144l0 -970c0,-84 -60,-143 -144,-143l-970 0c-84,0 -144,59 -144,143z"/>
   <path class="fil13 str0" d="M10803 171l0 970c0,84 60,143 144,143l970 0c84,0 144,-59 144,-143l0 -970c0,-84 -60,-144 -144,-144l-970 0c-84,0 -144,60 -144,144z"/>
   <path class="fil14 str0" d="M9366 171l0 970c0,84 60,143 144,143l970 0c84,0 144,-59 144,-143l0 -970c0,-84 -60,-144 -144,-144l-970 0c-84,0 -144,60 -144,144z"/>
   <path class="fil15 str0" d="M16551 2972l0 970c0,84 59,144 143,144l970 0c84,0 144,-60 144,-144l0 -970c0,-84 -60,-143 -144,-143l-970 0c-84,0 -143,59 -143,143z"/>
   <path class="fil16 str0" d="M15114 2972l0 970c0,84 59,144 144,144l969 0c85,0 144,-60 144,-144l0 -970c0,-84 -59,-143 -144,-143l-969 0c-85,0 -144,59 -144,143z"/>
   <path class="fil17 str0" d="M3619 2972l0 970c0,84 60,144 144,144l970 0c84,0 143,-60 143,-144l0 -970c0,-84 -59,-143 -143,-143l-970 0c-84,0 -144,59 -144,143z"/>
   <path class="fil18 str0" d="M5056 2972l0 970c0,84 60,144 144,144l969 0c85,0 144,-60 144,-144l0 -970c0,-84 -59,-143 -144,-143l-969 0c-84,0 -144,59 -144,143z"/>
   <path class="fil19 str0" d="M6493 2972l0 970c0,84 59,144 143,144l970 0c84,0 144,-60 144,-144l0 -970c0,-84 -60,-143 -144,-143l-970 0c-84,0 -143,59 -143,143z"/>
   <path class="fil20 str0" d="M7206 1572l0 969c0,85 60,144 144,144l970 0c84,0 144,-59 144,-144l0 -969c0,-85 -60,-144 -144,-144l-970 0c-84,0 -144,59 -144,144z"/>
   <path class="fil21 str0" d="M8643 1572l0 969c0,85 60,144 144,144l970 0c84,0 143,-59 143,-144l0 -969c0,-85 -59,-144 -143,-144l-970 0c-84,0 -144,59 -144,144z"/>
   <path class="fil22 str0" d="M17269 1572l0 969c0,85 60,144 144,144l970 0c84,0 143,-59 143,-144l0 -969c0,-85 -59,-144 -143,-144l-970 0c-84,0 -144,59 -144,144z"/>
   <path class="fil23 str0" d="M10096 4373l0 970c0,84 59,144 143,144l970 0c84,0 144,-60 144,-144l0 -970c0,-84 -60,-143 -144,-143l-970 0c-84,0 -143,59 -143,143z"/>
   <path class="fil24 str0" d="M8643 4373l0 970c0,84 60,144 144,144l970 0c84,0 143,-60 143,-144l0 -970c0,-84 -59,-143 -143,-143l-970 0c-84,0 -144,59 -144,143z"/>
   <path class="fil25 str0" d="M7217 4373l0 970c0,84 59,144 143,144l970 0c84,0 144,-60 144,-144l0 -970c0,-84 -60,-143 -144,-143l-970 0c-84,0 -143,59 -143,143z"/>
   <path class="fil26 str0" d="M7930 2972l0 970c0,84 59,144 143,144l970 0c84,0 144,-60 144,-144l0 -970c0,-84 -60,-143 -144,-143l-970 0c-84,0 -143,59 -143,143z"/>
   <path class="fil27 str0" d="M12240 2972l0 970c0,84 60,144 144,144l970 0c84,0 143,-60 143,-144l0 -970c0,-84 -59,-143 -143,-143l-970 0c-84,0 -144,59 -144,143z"/>
   <path class="fil28 str0" d="M13677 2972l0 970c0,84 60,144 144,144l970 0c84,0 143,-60 143,-144l0 -970c0,-84 -59,-143 -143,-143l-970 0c-84,0 -144,59 -144,143z"/>
   <path class="fil29 str0" d="M2182 2972l0 970c0,84 60,144 144,144l970 0c84,0 143,-60 143,-144l0 -970c0,-84 -59,-143 -143,-143l-970 0c-84,0 -144,59 -144,143z"/>
   <path class="fil30 str0" d="M3619 171l0 970c0,84 60,143 144,143l970 0c84,0 143,-59 143,-143l0 -970c0,-84 -59,-144 -143,-144l-970 0c-84,0 -144,60 -144,144z"/>
   <path class="fil31 str0" d="M5056 171l0 970c0,84 60,143 144,143l969 0c85,0 144,-59 144,-143l0 -970c0,-84 -59,-144 -144,-144l-969 0c-84,0 -144,60 -144,144z"/>
   <path class="fil32 str0" d="M6493 171l0 970c0,84 59,143 143,143l970 0c84,0 144,-59 144,-143l0 -970c0,-84 -60,-144 -144,-144l-970 0c-84,0 -143,60 -143,144z"/>
   <path class="fil33 str0" d="M15114 171l0 970c0,84 59,143 144,143l969 0c85,0 144,-59 144,-143l0 -970c0,-84 -59,-144 -144,-144l-969 0c-85,0 -144,60 -144,144z"/>
   <path class="fil34 str0" d="M16551 171l0 970c0,84 59,143 143,143l970 0c84,0 144,-59 144,-143l0 -970c0,-84 -60,-144 -144,-144l-970 0c-84,0 -143,60 -143,144z"/>
   <path class="fil35 str0" d="M745 171l0 970c0,84 60,143 144,143l970 0c84,0 144,-59 144,-143l0 -970c0,-84 -60,-144 -144,-144l-970 0c-84,0 -144,60 -144,144z"/>
   <path class="fil36 str0" d="M2182 171l0 970c0,84 60,143 144,143l970 0c84,0 143,-59 143,-143l0 -970c0,-84 -59,-144 -143,-144l-970 0c-84,0 -144,60 -144,144z"/>
   <path class="fil37 str0" d="M7930 171l0 970c0,84 59,143 143,143l970 0c84,0 144,-59 144,-143l0 -970c0,-84 -60,-144 -144,-144l-970 0c-84,0 -143,60 -143,144z"/>
   <path class="fil38 str0" d="M12240 171l0 970c0,84 60,143 144,143l970 0c84,0 143,-59 143,-143l0 -970c0,-84 -59,-144 -143,-144l-970 0c-84,0 -144,60 -144,144z"/>
   <path class="fil39 str0" d="M13677 171l0 970c0,84 60,143 144,143l970 0c84,0 143,-59 143,-143l0 -970c0,-84 -59,-144 -143,-144l-970 0c-84,0 -144,60 -144,144z"/>
   <path class="fil40 str0" d="M2896 1572l0 969c0,85 59,144 144,144l969 0c84,0 144,-59 144,-144l0 -969c0,-85 -60,-144 -144,-144l-969 0c-85,0 -144,59 -144,144z"/>
   <path class="fil41 str0" d="M11517 1572l0 969c0,85 60,144 144,144l969 0c85,0 144,-59 144,-144l0 -969c0,-85 -59,-144 -144,-144l-969 0c-84,0 -144,59 -144,144z"/>
   <path class="fil42 str0" d="M63 1572l0 969c0,85 59,144 144,144l969 0c85,0 144,-59 144,-144l0 -969c0,-85 -59,-144 -144,-144l-969 0c-85,0 -144,59 -144,144z"/>
   <path class="fil43 str0" d="M1459 1572l0 969c0,85 60,144 144,144l970 0c84,0 143,-59 143,-144l0 -969c0,-85 -59,-144 -143,-144l-970 0c-84,0 -144,59 -144,144z"/>
   <path class="fil44 str0" d="M18670 1572l0 969c0,85 60,144 144,144l970 0c84,0 143,-59 143,-144l0 -969c0,-85 -59,-144 -143,-144l-970 0c-84,0 -144,59 -144,144z"/>
   <path class="fil45 str0" d="M14401 1572l0 969c0,85 59,144 144,144l969 0c84,0 144,-59 144,-144l0 -969c0,-85 -60,-144 -144,-144l-969 0c-85,0 -144,59 -144,144z"/>
   <path class="fil46 str0" d="M12964 1572l0 969c0,85 60,144 144,144l970 0c84,0 143,-59 143,-144l0 -969c0,-85 -59,-144 -143,-144l-970 0c-84,0 -144,59 -144,144z"/>
   <path class="fil47 str0" d="M12964 4373l0 970c0,84 60,144 144,144l970 0c84,0 143,-60 143,-144l0 -970c0,-84 -59,-143 -143,-143l-970 0c-84,0 -144,59 -144,143z"/>
   <path class="fil48 str0" d="M14401 4373l0 970c0,84 59,144 144,144l969 0c84,0 144,-60 144,-144l0 -970c0,-84 -60,-143 -144,-143l-969 0c-85,0 -144,59 -144,143z"/>
   <path class="fil49 str0" d="M4333 1572l0 969c0,85 59,144 143,144l970 0c84,0 144,-59 144,-144l0 -969c0,-85 -60,-144 -144,-144l-970 0c-84,0 -143,59 -143,144z"/>
   <path class="fil50 str0" d="M5770 1572l0 969c0,85 59,144 143,144l970 0c84,0 144,-59 144,-144l0 -969c0,-85 -60,-144 -144,-144l-970 0c-84,0 -143,59 -143,144z"/>
   <path class="fil51 str0" d="M15838 1572l0 969c0,85 59,144 143,144l970 0c84,0 144,-59 144,-144l0 -969c0,-85 -60,-144 -144,-144l-970 0c-84,0 -143,59 -143,144z"/>
   <path class="fil52 str0" d="M10080 1572l0 969c0,85 60,144 144,144l970 0c84,0 143,-59 143,-144l0 -969c0,-85 -59,-144 -143,-144l-970 0c-84,0 -144,59 -144,144z"/>
   <path class="fil53 str0" d="M11522 4373l0 970c0,84 60,144 144,144l970 0c84,0 144,-60 144,-144l0 -970c0,-84 -60,-143 -144,-143l-970 0c-84,0 -144,59 -144,143z"/>
   <path class="fil54 str0" d="M15838 4373l0 970c0,84 59,144 143,144l970 0c84,0 144,-60 144,-144l0 -970c0,-84 -60,-143 -144,-143l-970 0c-84,0 -143,59 -143,143z"/>
   <path class="fil55 str0" d="M2901 4373l0 970c0,84 59,144 143,144l970 0c84,0 144,-60 144,-144l0 -970c0,-84 -60,-143 -144,-143l-970 0c-84,0 -143,59 -143,143z"/>
   <path class="fil56 str0" d="M4333 4373l0 970c0,84 59,144 143,144l970 0c84,0 144,-60 144,-144l0 -970c0,-84 -60,-143 -144,-143l-970 0c-84,0 -143,59 -143,143z"/>
   <path class="fil57 str0" d="M5770 4373l0 970c0,84 59,144 143,144l970 0c84,0 144,-60 144,-144l0 -970c0,-84 -60,-143 -144,-143l-970 0c-84,0 -143,59 -143,143z"/>
   <path class="fil58 str0" d="M63 171l0 970c0,210 539,210 539,0l0 -970c0,-74 -67,-122 -153,-144l-233 0c-87,22 -153,70 -153,144z"/>
  </g>
  <path class="fil59" d="M243 846c-10,-34 -15,-66 -15,-96 0,-44 12,-83 36,-118 24,-36 65,-73 122,-112l51 54c-20,21 -34,45 -44,70 -9,26 -14,57 -14,91 0,20 1,38 3,56 2,17 5,36 8,55l-147 0z"/>
  <path class="fil59" d="M1449 1001c0,8 0,15 -1,20 -1,5 -2,10 -4,13 -1,3 -3,6 -5,7 -2,1 -4,2 -7,2l-301 0c-2,0 -4,-1 -6,-2 -2,-1 -4,-4 -6,-7 -1,-3 -2,-8 -3,-13 -1,-5 -2,-12 -2,-20 0,-8 1,-15 1,-20 1,-6 2,-10 4,-14 2,-3 3,-5 5,-7 2,-1 4,-2 7,-2l102 0 0 -355 -88 49c-6,3 -12,5 -16,6 -4,0 -7,-1 -9,-3 -3,-3 -4,-7 -5,-12 -1,-6 -1,-15 -1,-25 0,-7 0,-13 0,-17 0,-4 1,-8 2,-11 1,-3 3,-6 5,-8 2,-2 4,-4 8,-6l117 -76c1,-1 3,-2 5,-2 2,-1 5,-2 8,-2 3,-1 8,-1 13,-1 6,0 13,0 22,0 10,0 19,0 26,0 6,1 11,2 14,3 4,1 6,2 7,4 1,1 2,3 2,6l0 450 89 0c3,0 5,1 7,2 2,2 4,4 6,7 1,4 2,8 3,14 1,5 1,12 1,20z"/>
  <path class="fil59" d="M1804 426c0,2 -1,3 -2,5 -1,1 -2,3 -5,4 -2,1 -5,1 -9,2 -4,1 -9,1 -15,1 -6,0 -11,0 -15,-1 -4,-1 -7,-1 -9,-2 -3,-1 -4,-3 -5,-4 -1,-2 -2,-3 -2,-5l-7 -255c0,-3 0,-5 2,-7 1,-2 3,-3 6,-4 2,-1 6,-2 11,-3 5,0 12,-1 19,-1 8,0 14,1 19,1 4,1 8,2 11,3 3,1 5,3 6,5 2,1 2,3 2,6l-7 255zm9 82c0,7 -1,14 -2,19 -1,5 -3,10 -6,13 -3,3 -8,5 -13,7 -5,1 -11,2 -19,2 -7,0 -14,-1 -19,-2 -5,-2 -9,-4 -12,-7 -3,-3 -5,-8 -7,-13 -1,-5 -1,-12 -1,-19 0,-8 0,-15 1,-20 2,-5 4,-10 7,-13 3,-3 7,-5 12,-7 5,-1 12,-2 19,-2 8,0 14,1 19,2 5,2 10,4 13,7 3,3 5,8 6,13 1,5 2,12 2,20z"/>
  <path class="fil59" d="M2896 1001c0,8 -1,15 -1,21 -1,6 -2,10 -3,14 -2,4 -4,6 -6,8 -2,1 -5,2 -7,2l-314 0c-6,0 -11,0 -16,-2 -4,-1 -8,-3 -11,-6 -3,-3 -5,-8 -6,-14 -1,-6 -2,-14 -2,-24 0,-9 1,-17 2,-24 0,-7 2,-12 4,-18 2,-5 5,-10 9,-15 3,-5 8,-10 14,-16l94 -101c19,-19 34,-37 46,-54 11,-16 20,-30 27,-44 6,-13 10,-25 13,-37 2,-11 3,-22 3,-32 0,-9 -1,-18 -4,-26 -3,-8 -7,-15 -13,-21 -6,-7 -13,-11 -22,-15 -9,-3 -19,-5 -31,-5 -16,0 -31,2 -44,6 -12,4 -24,9 -33,14 -10,6 -18,10 -25,15 -6,4 -11,6 -15,6 -2,0 -4,-1 -6,-2 -2,-2 -4,-5 -5,-9 -1,-4 -2,-9 -2,-16 -1,-6 -1,-14 -1,-24 0,-6 0,-12 0,-16 1,-4 1,-8 2,-12 1,-3 2,-6 3,-8 2,-2 4,-5 8,-9 3,-3 10,-7 19,-12 10,-6 21,-11 35,-16 14,-5 29,-9 46,-12 16,-3 33,-5 51,-5 29,0 53,3 75,11 21,7 38,17 53,29 14,13 24,28 31,46 7,17 10,36 10,57 0,17 -1,35 -5,52 -3,17 -10,35 -21,55 -11,20 -26,42 -45,66 -19,24 -45,52 -77,83l-64 66 215 0c3,0 5,0 8,2 2,2 4,4 6,8 1,3 3,8 3,14 1,5 2,12 2,20z"/>
  <path class="fil59" d="M3316 277c0,10 -1,20 -2,31 -2,10 -4,20 -7,30 -3,10 -7,19 -12,27 -5,8 -11,16 -18,22 -7,6 -15,11 -24,15 -9,3 -19,5 -31,5 -7,0 -13,-1 -18,-2 -6,-1 -11,-3 -15,-6 -4,-3 -8,-6 -11,-10 -2,-4 -4,-8 -6,-13 -5,6 -11,10 -16,14 -5,4 -10,7 -16,10 -5,2 -10,4 -15,5 -5,1 -10,2 -15,2 -7,0 -13,-1 -18,-2 -5,-2 -9,-4 -13,-7 -4,-3 -7,-6 -9,-10 -3,-4 -5,-8 -6,-12 -2,-5 -3,-9 -4,-14 0,-5 0,-10 0,-15 0,-7 0,-14 1,-22 1,-9 3,-17 5,-25 3,-9 6,-17 10,-25 4,-8 9,-15 15,-21 7,-7 14,-12 22,-16 8,-3 17,-5 28,-5 5,0 9,0 13,1 4,1 8,3 12,5 4,2 7,5 11,8 4,4 7,8 11,13l4 -17c0,-2 2,-4 5,-5 3,-2 8,-2 15,-2 4,0 7,0 9,0 3,1 5,1 6,2 2,0 2,1 3,2 0,1 0,2 0,3l-18 95c-2,10 -2,18 1,22 3,5 8,8 15,8 5,0 10,-2 14,-4 4,-3 7,-7 10,-11 3,-5 6,-10 8,-16 2,-6 4,-12 5,-19 1,-6 2,-13 3,-20 1,-6 1,-13 1,-19 0,-11 -1,-22 -5,-32 -3,-10 -8,-19 -16,-26 -8,-8 -18,-14 -31,-19 -14,-4 -31,-6 -51,-6 -14,0 -27,1 -38,4 -11,3 -21,6 -30,11 -9,5 -17,11 -24,17 -7,7 -13,14 -19,22 -5,8 -9,16 -13,25 -3,9 -6,18 -8,27 -2,9 -4,18 -5,27 -1,9 -1,17 -1,26 0,15 1,29 5,41 3,12 9,22 17,31 8,8 20,15 33,19 14,4 31,7 52,7 11,0 21,-1 30,-2 9,-1 17,-3 23,-4 7,-2 12,-3 17,-4 4,-1 7,-2 8,-2 1,0 2,0 3,1 0,0 1,1 1,3 1,1 1,3 1,5 1,3 1,6 1,9 0,3 0,6 -1,8 0,2 0,4 0,6 -1,1 -1,2 -2,3 0,1 -1,2 -2,3 -1,1 -3,2 -8,3 -4,2 -10,3 -17,5 -8,1 -16,3 -26,4 -10,1 -21,1 -33,1 -27,0 -49,-3 -68,-9 -19,-6 -34,-15 -46,-26 -12,-12 -21,-26 -27,-42 -5,-17 -8,-36 -8,-56 0,-12 1,-24 3,-35 1,-12 4,-24 7,-36 3,-12 8,-23 13,-34 6,-11 12,-21 19,-31 8,-10 16,-19 26,-27 10,-8 21,-15 33,-21 12,-6 26,-11 40,-14 15,-3 31,-5 49,-5 25,0 47,3 66,9 18,6 33,14 45,24 11,11 20,23 26,38 5,15 8,32 8,50zm-141 18c-4,-7 -9,-13 -13,-17 -5,-4 -10,-6 -16,-6 -5,0 -9,1 -13,3 -4,3 -8,6 -11,10 -3,4 -5,8 -7,13 -2,5 -4,10 -5,15 -2,5 -2,10 -3,15 -1,4 -1,9 -1,12 0,9 2,15 5,20 3,5 8,8 15,8 3,0 6,-1 9,-2 3,-1 6,-2 9,-4 3,-2 7,-5 10,-8 4,-3 8,-7 12,-12l9 -47z"/>
  <path class="fil59" d="M4310 883c0,28 -5,52 -15,73 -11,21 -25,38 -44,53 -18,14 -40,25 -66,32 -26,7 -54,11 -85,11 -18,0 -35,-1 -52,-4 -16,-3 -30,-6 -43,-10 -12,-4 -23,-8 -31,-12 -8,-4 -13,-8 -16,-10 -2,-2 -4,-5 -6,-7 -1,-3 -2,-7 -3,-10 -1,-4 -2,-9 -2,-15 0,-5 -1,-12 -1,-20 0,-14 2,-23 4,-28 2,-5 5,-8 10,-8 3,0 8,2 14,6 7,3 16,7 27,12 10,4 23,8 37,12 15,4 31,5 49,5 15,0 29,-1 41,-5 12,-4 22,-9 30,-15 8,-7 14,-15 19,-24 4,-9 6,-20 6,-31 0,-13 -3,-24 -8,-34 -5,-10 -12,-19 -22,-26 -9,-7 -21,-13 -36,-16 -15,-4 -32,-6 -52,-6l-47 0c-4,0 -7,-1 -10,-2 -2,-1 -4,-3 -6,-6 -2,-3 -3,-7 -4,-13 0,-5 -1,-12 -1,-21 0,-8 1,-15 1,-20 1,-5 2,-9 4,-12 1,-3 3,-5 6,-6 2,-1 5,-1 8,-1l48 0c16,0 30,-2 43,-6 12,-4 23,-9 31,-16 9,-7 15,-16 20,-26 4,-10 7,-21 7,-33 0,-9 -2,-18 -5,-26 -3,-9 -8,-16 -14,-22 -6,-6 -13,-11 -23,-14 -9,-4 -21,-6 -34,-6 -14,0 -28,2 -41,7 -13,4 -24,9 -34,14 -11,5 -19,10 -26,15 -8,4 -13,7 -16,7 -2,0 -4,-1 -6,-2 -2,-1 -3,-3 -4,-6 -1,-2 -2,-7 -3,-12 0,-5 0,-12 0,-21 0,-7 0,-12 0,-17 0,-5 1,-9 2,-12 1,-3 2,-6 3,-8 1,-2 3,-4 6,-7 3,-3 8,-7 17,-12 9,-5 20,-11 33,-16 13,-5 28,-9 46,-12 17,-4 35,-6 56,-6 26,0 49,4 70,10 20,6 37,15 51,26 14,12 24,26 31,43 8,18 11,37 11,58 0,17 -2,32 -6,46 -4,15 -10,27 -19,39 -8,11 -18,20 -30,28 -12,8 -26,14 -42,18l0 1c19,3 36,7 51,15 15,7 28,17 39,28 10,11 18,24 24,38 5,14 8,29 8,45z"/>
  <path class="fil59" d="M4708 250c0,4 0,7 -1,10 0,3 -1,5 -2,7 -1,1 -2,2 -3,3 -1,1 -2,1 -4,1l-28 0 -8 71 24 0c3,0 5,1 7,5 1,3 2,8 2,16 0,4 0,7 -1,10 0,2 -1,5 -1,6 -1,2 -2,3 -4,4 -1,1 -2,1 -3,1l-29 0 -10 77c0,1 0,2 -1,3 -1,2 -2,2 -4,3 -2,1 -4,2 -7,2 -4,0 -8,0 -13,0 -5,0 -9,0 -12,0 -3,0 -6,-1 -7,-2 -2,-1 -3,-1 -4,-3 0,-1 0,-2 0,-3l9 -77 -55 0 -9 77c0,1 -1,2 -1,3 -1,1 -2,2 -4,3 -2,1 -5,2 -8,2 -3,0 -7,0 -13,0 -5,0 -9,0 -12,0 -3,0 -5,-1 -7,-2 -2,-1 -3,-1 -4,-3 0,-1 0,-2 0,-3l9 -77 -23 0c-3,0 -5,-2 -7,-5 -2,-3 -3,-8 -3,-16 0,-4 1,-7 1,-10 1,-3 1,-5 2,-7 1,-1 2,-2 3,-3 1,-1 3,-1 4,-1l28 0 9 -71 -25 0c-3,0 -5,-1 -7,-4 -2,-3 -2,-9 -2,-17 0,-8 0,-13 2,-16 2,-3 4,-5 7,-5l30 0 9 -71c0,-2 0,-3 1,-4 1,-1 2,-2 4,-3 2,-1 5,-1 8,-2 3,0 7,0 13,0 5,0 9,0 12,0 3,1 5,1 7,2 2,1 3,2 3,3 0,1 1,2 1,3l-10 72 55 0 9 -71c0,-2 1,-3 1,-4 1,-1 2,-2 4,-3 2,-1 5,-1 8,-2 3,0 8,0 13,0 5,0 9,0 12,0 3,1 6,1 7,2 2,1 3,2 3,3 1,1 1,2 1,3l-9 72 23 0c3,0 6,2 7,5 2,3 3,8 3,16zm-142 21l-8 71 55 0 9 -71 -56 0z"/>
  <path class="fil59" d="M5757 885c0,14 -1,25 -4,32 -3,8 -7,11 -12,11l-49 0 0 99c0,3 0,5 -2,8 -2,2 -5,3 -9,5 -4,1 -10,2 -16,3 -7,1 -16,1 -27,1 -10,0 -18,0 -25,-1 -7,-1 -13,-2 -17,-3 -4,-2 -7,-3 -8,-5 -2,-3 -3,-5 -3,-8l0 -99 -208 0c-4,0 -7,0 -10,-1 -4,-1 -6,-3 -8,-7 -2,-3 -4,-8 -5,-15 -1,-7 -1,-15 -1,-26 0,-9 0,-17 0,-24 1,-6 1,-12 2,-18 1,-5 3,-10 5,-15 1,-5 4,-10 7,-15l169 -298c1,-3 4,-5 7,-7 3,-2 8,-3 14,-4 6,-2 14,-3 23,-3 9,-1 21,-1 34,-1 14,0 26,0 36,1 11,1 19,2 25,3 6,2 10,4 13,6 3,2 4,5 4,8l0 328 49 0c4,0 8,3 11,10 3,7 5,18 5,35zm-172 -295l0 0 -143 250 143 0 0 -250z"/>
  <path class="fil59" d="M6130 377c0,12 -2,23 -6,33 -4,9 -10,18 -18,25 -8,7 -18,12 -29,17 -11,4 -23,6 -36,8l-5 45c0,1 0,2 -1,3 0,1 -1,1 -3,2 -1,0 -3,1 -5,1 -2,1 -5,1 -9,1 -4,0 -8,0 -11,-1 -2,0 -4,-1 -6,-2 -1,-1 -2,-2 -3,-3 0,-1 -1,-2 0,-4l4 -43c-6,-1 -12,-2 -17,-3 -5,-1 -10,-3 -14,-4 -5,-2 -8,-4 -12,-5 -3,-2 -5,-4 -7,-5 -1,-2 -3,-4 -3,-7 -1,-4 -1,-8 -1,-15 0,-4 0,-8 0,-11 0,-3 1,-6 2,-7 0,-2 1,-3 2,-4 1,-1 3,-1 4,-1 2,0 4,1 8,3 3,2 8,5 13,7 6,3 12,5 20,7 8,2 17,3 28,3 16,0 28,-3 36,-9 8,-6 12,-14 12,-24 0,-7 -2,-13 -5,-17 -3,-4 -8,-8 -14,-11 -5,-4 -12,-7 -19,-9 -7,-3 -15,-6 -22,-9 -8,-2 -15,-6 -23,-10 -7,-4 -13,-9 -19,-14 -6,-6 -10,-13 -14,-21 -3,-9 -5,-19 -5,-30 0,-11 2,-20 5,-29 4,-9 9,-16 15,-23 7,-6 15,-11 25,-15 10,-4 20,-7 33,-8l4 -43c0,-1 0,-2 1,-3 0,0 1,-1 3,-2 1,0 3,-1 5,-1 2,0 5,-1 9,-1 4,0 8,1 11,1 2,1 5,1 6,2 2,1 3,2 3,3 0,1 1,3 1,4l-5 40c4,1 9,1 13,2 4,1 8,3 12,4 4,1 7,3 10,4 3,2 6,3 7,4 1,1 2,3 3,4 0,1 1,2 1,4 0,2 1,4 1,6 0,3 0,6 0,9 0,4 0,8 0,11 -1,3 -1,5 -2,6 0,2 -1,3 -1,3 -1,1 -2,1 -3,1 -2,0 -4,-1 -8,-3 -3,-2 -8,-4 -13,-6 -5,-2 -11,-4 -18,-6 -6,-2 -14,-2 -22,-2 -7,0 -13,0 -18,2 -5,1 -10,3 -13,6 -3,2 -5,5 -7,9 -2,3 -2,7 -2,11 0,7 1,12 5,17 3,4 8,8 14,11 6,4 12,7 20,9 7,3 15,6 22,9 8,3 15,6 23,10 7,4 14,8 19,14 6,6 11,13 14,21 4,8 5,18 5,29z"/>
  <path class="fil59" d="M7137 862c0,30 -5,56 -15,79 -10,23 -25,43 -43,59 -19,16 -41,28 -68,36 -26,9 -55,13 -87,13 -17,0 -33,-1 -48,-3 -15,-3 -29,-5 -41,-8 -12,-4 -22,-7 -29,-10 -8,-4 -13,-6 -16,-8 -2,-2 -4,-5 -5,-7 -1,-3 -2,-6 -3,-9 0,-4 -1,-8 -1,-14 0,-5 0,-11 0,-19 0,-7 0,-14 0,-20 1,-5 2,-9 3,-13 1,-3 3,-6 5,-7 1,-1 3,-2 5,-2 3,0 8,2 13,5 6,3 14,7 23,10 9,4 21,8 34,11 14,3 30,5 49,5 16,0 31,-2 44,-5 14,-4 25,-9 34,-16 9,-8 17,-17 22,-28 5,-12 7,-25 7,-41 0,-13 -2,-25 -6,-36 -4,-10 -11,-19 -20,-26 -9,-8 -20,-13 -35,-17 -14,-3 -32,-5 -52,-5 -16,0 -31,1 -44,2 -14,2 -26,3 -38,3 -8,0 -14,-2 -18,-6 -3,-4 -5,-12 -5,-23l0 -236c0,-11 2,-19 7,-24 4,-5 11,-8 20,-8l258 0c3,0 5,1 8,3 2,2 4,4 5,8 2,4 3,8 4,15 0,6 1,13 1,21 0,17 -2,29 -5,37 -3,8 -7,11 -13,11l-194 0 0 117c10,-2 20,-2 30,-3 9,0 20,0 30,0 30,0 56,4 79,10 23,7 42,17 58,31 15,13 27,30 35,49 8,20 12,43 12,69z"/>
  <path class="fil59" d="M7379 233c0,13 -1,25 -4,35 -3,10 -7,19 -14,27 -6,7 -13,13 -23,17 -9,4 -20,6 -33,6 -14,0 -26,-2 -35,-6 -10,-4 -17,-10 -23,-17 -5,-8 -9,-16 -11,-26 -3,-11 -4,-22 -4,-34 0,-12 2,-24 5,-34 2,-10 7,-19 13,-26 6,-8 13,-14 23,-18 9,-4 20,-6 34,-6 14,0 26,2 36,7 9,4 16,10 22,17 5,8 9,17 11,27 2,10 3,20 3,31zm-49 2c0,-9 0,-17 -1,-23 -1,-7 -2,-12 -4,-16 -2,-4 -5,-6 -8,-8 -3,-2 -7,-3 -12,-3 -4,0 -7,1 -10,3 -3,1 -6,4 -8,8 -2,4 -3,9 -4,15 -1,6 -2,14 -2,22 0,10 1,19 2,25 1,7 3,12 5,15 2,4 4,7 7,8 4,1 7,2 11,2 5,0 9,-1 12,-3 3,-2 5,-4 7,-8 2,-4 3,-9 4,-15 1,-7 1,-14 1,-22zm241 157c0,13 -2,24 -5,35 -2,10 -7,19 -13,26 -6,8 -14,14 -23,18 -9,4 -21,6 -34,6 -14,0 -25,-2 -35,-6 -9,-4 -16,-10 -22,-17 -5,-8 -9,-16 -12,-27 -2,-10 -3,-21 -3,-33 0,-12 1,-24 4,-34 3,-10 7,-19 13,-26 6,-8 14,-14 23,-18 10,-4 21,-6 34,-6 15,0 27,2 36,6 10,5 17,11 22,18 6,8 9,17 12,26 2,10 3,21 3,32zm-49 2c0,-9 -1,-17 -1,-23 -1,-7 -3,-12 -5,-16 -2,-4 -4,-6 -8,-8 -3,-2 -7,-3 -11,-3 -4,0 -8,1 -11,3 -3,1 -5,4 -7,8 -2,4 -4,9 -5,15 -1,6 -1,13 -1,22 0,10 0,19 1,25 2,7 3,12 5,15 2,4 5,7 8,8 3,1 7,2 11,2 4,0 8,-1 11,-3 3,-2 6,-5 8,-8 2,-4 3,-9 4,-16 1,-6 1,-13 1,-21zm-210 77c-1,2 -3,4 -4,5 -2,1 -4,2 -6,3 -2,1 -5,1 -8,2 -4,0 -8,0 -12,0 -6,0 -10,0 -13,-1 -4,0 -6,-1 -7,-3 -2,-1 -2,-3 -2,-4 0,-2 1,-4 3,-6l226 -311c2,-1 3,-3 5,-4 1,-2 3,-3 6,-3 2,-1 5,-2 8,-2 3,0 7,-1 12,-1 6,0 10,1 13,1 3,1 5,2 7,3 1,2 2,3 2,5 -1,2 -2,4 -3,6l-227 310z"/>
  <path class="fil59" d="M8578 861c0,27 -4,53 -12,76 -9,24 -21,44 -37,61 -17,17 -37,30 -61,40 -24,9 -51,14 -82,14 -26,0 -48,-3 -67,-8 -18,-6 -35,-14 -48,-25 -14,-11 -25,-24 -34,-40 -9,-15 -16,-33 -21,-52 -5,-19 -9,-40 -11,-63 -2,-23 -3,-47 -3,-72 0,-22 1,-44 4,-67 2,-24 6,-47 12,-69 6,-23 14,-44 25,-64 11,-21 25,-38 43,-54 17,-15 38,-27 62,-36 25,-9 54,-14 88,-14 10,0 21,1 32,2 11,2 21,3 30,5 9,2 17,4 23,7 7,2 11,4 13,6 2,2 4,4 5,6 1,3 2,5 3,8 1,2 1,6 1,10 1,4 1,8 1,14 0,9 0,16 -1,22 0,5 -1,10 -2,13 -1,3 -3,6 -5,7 -2,1 -4,2 -7,2 -3,0 -8,-1 -13,-3 -5,-1 -12,-3 -19,-6 -8,-2 -17,-4 -27,-6 -10,-1 -22,-2 -36,-2 -22,0 -42,4 -57,13 -16,8 -29,19 -39,34 -9,15 -17,31 -21,50 -5,20 -7,40 -7,61 6,-4 13,-8 21,-12 8,-4 17,-7 26,-10 10,-3 20,-5 31,-7 11,-2 22,-2 35,-2 27,0 51,3 70,11 20,8 36,18 49,32 12,14 21,31 27,51 6,20 9,42 9,67zm-108 10c0,-14 -2,-26 -4,-37 -3,-11 -7,-20 -12,-28 -6,-7 -14,-12 -23,-16 -9,-4 -20,-6 -34,-6 -7,0 -15,1 -23,2 -7,2 -15,4 -22,6 -7,3 -14,6 -21,9 -7,3 -13,7 -19,11 0,30 2,55 5,75 3,20 8,36 15,48 6,11 15,20 25,25 10,4 21,7 35,7 13,0 24,-3 33,-7 10,-5 18,-12 25,-20 6,-9 11,-19 15,-31 3,-11 5,-24 5,-38z"/>
  <path class="fil59" d="M9002 451c3,6 5,11 5,15 1,3 0,6 -2,8 -2,2 -6,3 -12,3 -5,1 -12,1 -22,1 -8,0 -14,0 -20,-1 -5,0 -10,-1 -13,-2 -4,-1 -6,-3 -8,-5 -2,-1 -3,-3 -4,-6l-70 -171 -2 1 -67 170c-1,3 -2,5 -4,6 -2,2 -4,4 -8,5 -3,1 -7,2 -13,2 -5,1 -12,1 -20,1 -9,0 -17,0 -22,-1 -5,0 -9,-1 -11,-3 -2,-2 -3,-5 -2,-8 0,-4 2,-9 5,-15l91 -207c1,-2 3,-5 5,-7 3,-2 6,-3 11,-5 4,-1 9,-2 15,-3 6,-1 14,-1 22,-1 8,0 16,0 22,1 6,1 11,2 16,3 4,2 7,3 10,5 2,2 4,5 5,7l93 207z"/>
  <path class="fil59" d="M9986 544c0,8 0,15 -1,21 -1,6 -1,11 -2,17 -1,5 -3,10 -4,14 -2,5 -4,10 -6,15l-179 416c-2,4 -4,7 -7,9 -3,2 -6,4 -11,5 -5,2 -11,2 -18,3 -8,0 -17,0 -28,0 -15,0 -27,0 -35,-1 -9,-1 -15,-3 -19,-5 -4,-2 -7,-4 -7,-8 0,-3 1,-7 3,-12l192 -425 -229 0c-6,0 -10,-4 -13,-12 -3,-8 -4,-20 -4,-37 0,-8 0,-15 1,-21 1,-6 2,-11 4,-15 1,-4 3,-7 5,-8 2,-2 5,-3 7,-3l324 0c5,0 10,0 13,1 3,1 6,4 8,7 2,3 3,8 4,14 1,6 2,15 2,25z"/>
  <path class="fil59" d="M10238 376c0,-8 1,-15 4,-22 2,-7 5,-14 10,-20 5,-6 10,-12 17,-18 7,-5 15,-11 24,-16 -5,-7 -10,-13 -13,-18 -4,-6 -7,-12 -10,-17 -2,-5 -4,-10 -5,-15 -1,-4 -2,-9 -2,-14 0,-9 2,-19 5,-27 4,-9 9,-16 17,-23 7,-6 17,-11 28,-15 12,-4 25,-5 42,-5 14,0 27,1 38,4 10,3 19,7 26,12 7,5 12,11 15,19 4,7 5,16 5,25 0,9 -1,16 -4,23 -3,8 -7,14 -13,21 -6,6 -13,13 -22,19 -8,5 -19,12 -30,18 3,4 8,9 12,13 5,5 10,10 15,15 5,5 10,10 15,14 5,5 10,10 15,14 2,-3 3,-6 5,-10 1,-4 3,-8 4,-12 1,-4 2,-8 2,-12 1,-4 1,-9 1,-13l0 -6c0,-2 1,-3 1,-4 1,-1 2,-2 4,-3 1,-1 4,-1 7,-2 4,0 8,0 13,0 5,0 9,0 12,0 3,0 6,1 8,2 2,0 3,1 4,2 1,2 1,3 1,5l0 7c0,7 -1,13 -2,20 -1,7 -2,14 -4,20 -2,7 -4,13 -7,19 -3,6 -6,12 -9,17 5,4 9,7 12,9 4,3 7,5 10,6 2,2 4,3 6,3 2,1 3,1 4,1 2,0 3,0 4,0 2,0 3,1 4,2 1,1 1,2 2,5 0,2 0,6 0,11 0,5 0,9 0,12 0,3 -1,6 -1,7 -1,1 -2,3 -3,3 -1,1 -3,2 -6,3 -3,1 -6,1 -10,1 -3,0 -6,0 -9,-1 -4,-1 -8,-2 -12,-4 -4,-3 -9,-5 -15,-9 -6,-4 -12,-8 -20,-14 -7,5 -13,9 -20,12 -7,4 -15,7 -22,9 -8,3 -16,4 -24,6 -8,1 -17,2 -26,2 -9,0 -18,-1 -27,-3 -9,-1 -17,-3 -25,-6 -7,-3 -14,-6 -20,-11 -7,-4 -12,-9 -17,-15 -4,-6 -8,-13 -10,-21 -3,-7 -4,-16 -4,-25zm81 -142c0,3 0,6 1,9 1,3 2,6 4,10 2,3 4,7 7,11 3,4 6,8 9,12 8,-4 15,-8 21,-12 5,-4 10,-8 13,-11 3,-4 6,-8 7,-11 2,-4 2,-7 2,-11 0,-4 0,-7 -2,-10 -1,-3 -3,-5 -5,-7 -3,-3 -6,-4 -10,-6 -4,-1 -9,-1 -14,-1 -6,0 -11,0 -15,2 -4,1 -8,3 -11,5 -2,3 -4,6 -5,9 -2,3 -2,7 -2,11zm-24 139c0,6 2,12 4,17 2,5 5,9 9,13 5,3 10,6 16,8 6,2 13,3 22,3 4,0 8,0 12,-1 4,-1 8,-2 12,-3 4,-1 8,-3 12,-5 3,-2 7,-4 10,-6 -7,-5 -13,-11 -19,-16 -7,-6 -13,-12 -19,-17 -6,-6 -12,-12 -17,-18 -6,-5 -11,-11 -15,-16 -5,3 -9,7 -12,10 -4,3 -6,7 -9,10 -2,3 -3,7 -4,10 -1,4 -2,7 -2,11z"/>
  <path class="fil59" d="M11426 897c0,25 -4,47 -13,66 -8,20 -21,36 -38,49 -16,14 -37,24 -62,31 -25,7 -53,10 -85,10 -31,0 -58,-3 -81,-9 -24,-6 -43,-15 -59,-27 -16,-12 -28,-27 -35,-45 -8,-17 -12,-37 -12,-60 0,-15 2,-30 7,-43 4,-14 11,-27 20,-38 9,-12 21,-23 34,-33 14,-10 30,-20 47,-29 -14,-8 -27,-17 -38,-26 -12,-9 -22,-19 -30,-30 -8,-11 -14,-22 -18,-35 -5,-13 -7,-27 -7,-42 0,-22 4,-42 12,-60 8,-18 19,-33 34,-46 16,-13 35,-23 58,-30 23,-7 50,-11 80,-11 30,0 56,3 77,10 22,6 39,16 53,27 14,12 24,26 31,43 6,16 10,34 10,54 0,13 -3,26 -7,39 -4,12 -10,24 -18,35 -8,11 -18,22 -29,32 -12,10 -25,19 -39,27 17,9 32,18 45,29 14,10 25,21 35,32 9,12 16,24 21,37 5,14 7,28 7,43zm-122 -264c0,-10 -2,-18 -4,-26 -3,-8 -8,-15 -14,-20 -6,-6 -13,-10 -22,-13 -9,-2 -19,-4 -31,-4 -24,0 -41,6 -53,17 -11,10 -17,25 -17,44 0,9 2,17 5,25 3,8 7,15 13,21 6,7 14,14 24,20 10,7 22,13 35,21 20,-12 36,-25 47,-39 11,-14 17,-29 17,-46zm13 272c0,-11 -2,-20 -6,-29 -3,-8 -9,-16 -16,-24 -8,-7 -17,-15 -28,-22 -11,-7 -24,-14 -39,-21 -13,7 -25,14 -35,21 -10,7 -18,14 -24,22 -7,8 -12,16 -15,24 -3,9 -5,18 -5,28 0,22 7,38 22,50 14,11 35,17 63,17 28,0 48,-6 62,-18 14,-11 21,-28 21,-48z"/>
  <path class="fil59" d="M11863 364c4,2 6,5 6,10 -1,5 -4,13 -10,23 -6,11 -11,18 -16,20 -4,3 -8,3 -11,0l-63 -50 13 79c1,5 -1,8 -6,10 -4,3 -13,4 -25,4 -12,0 -21,-1 -25,-4 -5,-2 -7,-5 -6,-10l13 -79 -63 50c-3,3 -7,3 -11,0 -4,-3 -9,-9 -16,-20 -6,-10 -9,-18 -9,-23 0,-5 2,-8 6,-10l75 -29 -75 -29c-4,-1 -6,-5 -6,-10 0,-5 3,-12 9,-23 7,-10 12,-17 16,-20 4,-3 8,-3 11,1l63 50 -13 -80c-1,-4 1,-7 6,-9 4,-3 13,-4 25,-4 12,0 21,1 25,4 5,2 7,5 6,9l-13 80 63 -50c3,-4 7,-4 11,-1 4,3 10,10 16,20 6,11 9,18 10,23 0,5 -2,9 -6,10l-75 29 75 29z"/>
  <path class="fil59" d="M12847 741c0,22 -1,45 -3,69 -3,24 -7,47 -13,70 -6,22 -15,44 -26,64 -11,21 -26,39 -43,54 -18,15 -39,27 -64,36 -25,9 -55,14 -89,14 -13,0 -24,-1 -37,-3 -11,-1 -22,-3 -32,-6 -10,-2 -18,-5 -25,-8 -7,-3 -12,-6 -15,-9 -3,-3 -6,-7 -7,-12 -1,-6 -2,-14 -2,-24 0,-9 0,-17 1,-22 0,-6 1,-10 2,-13 1,-3 3,-5 5,-6 2,-1 4,-2 6,-2 4,0 9,1 15,3 6,2 13,4 22,7 9,2 19,5 30,7 12,2 24,3 38,3 24,0 44,-5 60,-13 16,-9 30,-20 40,-34 10,-15 17,-31 22,-50 5,-19 8,-39 8,-60 -13,9 -28,16 -47,22 -18,6 -39,9 -62,9 -29,0 -54,-4 -74,-12 -20,-7 -37,-18 -50,-32 -12,-15 -21,-32 -27,-53 -6,-20 -9,-43 -9,-69 0,-27 4,-52 12,-75 9,-23 21,-43 37,-59 16,-17 36,-30 59,-39 24,-9 52,-14 83,-14 26,0 48,3 67,9 19,6 35,14 48,25 14,11 25,24 34,40 10,15 17,33 22,52 5,19 9,40 11,62 2,22 3,45 3,69zm-109 -16c0,-29 -2,-54 -5,-74 -4,-21 -9,-37 -16,-49 -6,-11 -15,-20 -25,-25 -10,-5 -22,-8 -35,-8 -14,0 -25,3 -35,7 -9,5 -17,11 -23,20 -7,8 -11,18 -15,29 -3,12 -4,24 -4,38 0,15 1,28 4,39 2,12 7,21 12,28 6,8 14,13 23,17 9,3 21,5 34,5 16,0 32,-2 46,-7 14,-5 27,-11 39,-20z"/>
  <path class="fil59" d="M13164 131c-13,32 -24,65 -31,99 -7,34 -10,68 -10,104 0,36 3,71 10,104 8,34 18,67 31,100 1,2 2,5 2,6 0,2 -1,4 -3,5 -2,2 -4,3 -8,3 -4,1 -9,1 -15,1 -5,0 -9,0 -12,0 -4,-1 -6,-1 -9,-2 -2,0 -3,-1 -5,-2 -1,-1 -2,-2 -2,-3 -9,-17 -17,-34 -23,-51 -7,-18 -12,-35 -17,-53 -4,-17 -7,-35 -9,-53 -3,-18 -4,-36 -4,-54 0,-19 1,-37 4,-55 2,-18 5,-35 10,-53 4,-18 10,-35 16,-52 6,-18 14,-35 23,-52 0,-1 1,-2 2,-2 1,-1 2,-2 4,-2 2,-1 5,-1 8,-1 3,-1 8,-1 13,-1 6,0 11,0 14,1 4,1 7,1 9,3 2,1 3,2 3,4 1,2 0,4 -1,6z"/>
  <path class="fil59" d="M14273 768c0,44 -4,83 -11,118 -7,35 -18,65 -34,90 -16,24 -37,43 -62,56 -25,14 -57,20 -93,20 -38,0 -69,-6 -93,-19 -25,-13 -44,-31 -58,-55 -14,-24 -25,-53 -30,-88 -6,-35 -9,-74 -9,-118 0,-43 4,-82 11,-117 7,-35 19,-65 34,-90 16,-25 37,-44 62,-57 26,-13 57,-20 93,-20 38,0 68,7 93,19 25,13 44,32 58,56 15,24 25,53 30,88 6,34 9,73 9,117zm-111 6c0,-26 -1,-49 -3,-68 -1,-20 -3,-37 -6,-52 -3,-14 -7,-27 -11,-37 -4,-10 -10,-18 -16,-24 -6,-6 -13,-10 -21,-13 -8,-2 -17,-4 -27,-4 -16,0 -30,4 -41,12 -11,8 -19,20 -26,36 -6,16 -10,36 -13,60 -2,24 -4,52 -4,83 0,39 2,71 5,96 3,26 8,46 15,61 6,15 15,25 25,31 11,6 23,9 38,9 11,0 21,-1 29,-5 9,-3 16,-9 22,-16 7,-7 12,-16 16,-26 4,-11 8,-23 11,-37 2,-14 4,-30 5,-48 1,-17 2,-37 2,-58z"/>
  <path class="fil59" d="M14618 335c0,18 -1,36 -3,54 -2,18 -5,36 -10,53 -4,18 -10,35 -16,53 -7,17 -15,34 -24,51 0,1 -1,2 -2,3 -1,1 -3,2 -5,2 -3,1 -5,1 -9,2 -3,0 -7,0 -11,0 -7,0 -12,0 -16,-1 -4,0 -6,-1 -8,-3 -2,-1 -3,-3 -3,-5 0,-1 1,-4 2,-6 13,-32 24,-65 31,-99 7,-34 11,-69 11,-105 0,-36 -4,-70 -11,-104 -7,-34 -17,-67 -31,-99 -1,-2 -1,-4 -1,-6 0,-2 1,-3 3,-4 2,-2 5,-2 9,-3 3,-1 8,-1 14,-1 5,0 9,0 13,1 3,0 6,0 8,1 2,0 3,1 4,2 1,0 2,1 2,2 18,34 31,69 40,104 9,35 13,71 13,108z"/>
  <path class="fil59" d="M15540 798c-46,0 -69,-20 -69,-60 0,-40 23,-60 70,-60l179 0c46,0 70,20 70,61 0,39 -24,59 -71,59l-179 0z"/>
  <path class="fil59" d="M16200 463c0,11 -1,18 -3,23 -2,4 -5,7 -10,7l-300 0c-4,0 -8,-3 -10,-7 -2,-4 -3,-12 -3,-22 0,-11 1,-18 3,-23 2,-5 6,-7 10,-7l300 0c5,0 8,2 10,7 2,4 3,12 3,22z"/>
  <path class="fil59" d="M16900 644c0,-12 4,-22 12,-31 8,-8 17,-13 29,-13l438 0c11,0 21,5 28,13 8,9 11,19 11,31 0,11 -3,21 -11,30 -7,8 -17,13 -28,13l-438 0c-12,0 -21,-5 -29,-13 -8,-9 -12,-19 -12,-30zm0 186c0,-12 4,-22 12,-31 8,-8 17,-12 29,-12l438 0c12,0 22,4 29,12 7,9 10,19 10,31 0,12 -3,22 -10,30 -7,8 -17,12 -29,12l-438 0c-12,0 -21,-4 -29,-12 -8,-9 -12,-19 -12,-30z"/>
  <path class="fil59" d="M17533 328c0,6 0,11 -1,15 -1,4 -2,7 -3,10 -1,2 -3,4 -4,5 -2,1 -4,2 -6,2l-98 0 0 107c0,2 -1,4 -2,5 -1,2 -2,3 -5,4 -2,1 -6,2 -10,3 -4,0 -10,1 -16,1 -6,0 -11,-1 -16,-1 -4,-1 -7,-2 -10,-3 -2,-1 -4,-2 -5,-4 -1,-1 -2,-3 -2,-5l0 -107 -98 0c-2,0 -3,-1 -5,-2 -1,-1 -3,-3 -4,-5 -1,-3 -2,-6 -3,-10 -1,-4 -1,-9 -1,-15 0,-6 0,-10 1,-15 0,-4 1,-7 2,-9 2,-3 3,-4 4,-6 2,-1 3,-1 5,-1l99 0 0 -107c0,-2 1,-4 2,-6 1,-2 3,-3 5,-4 3,-2 6,-2 10,-3 5,-1 10,-1 16,-1 6,0 12,0 16,1 4,1 8,1 10,3 3,1 4,2 5,4 1,2 2,4 2,6l0 107 99 0c2,0 3,0 5,1 2,2 3,3 4,6 1,2 2,5 3,9 1,5 1,9 1,15z"/>
  <path class="fil59" d="M400 1999l0 127 -113 0 0 -127 113 0zm-8 266c2,11 4,24 6,38 1,14 2,27 2,38 0,24 -4,44 -11,62 -8,18 -20,36 -37,53 -16,18 -40,37 -70,59l-33 -37c12,-11 22,-22 29,-34 7,-11 11,-25 14,-39 3,-14 5,-32 5,-54 0,-25 -2,-54 -5,-86l100 0z"/>
  <path class="fil59" d="M1098 1602l0 127 -113 0 0 -127 113 0zm0 266l0 127 -113 0 0 -127 113 0z"/>
  <path class="fil59" d="M2321 2329c0,2 -1,5 -3,7 -2,2 -5,4 -9,5 -4,1 -10,3 -17,3 -7,1 -16,1 -27,1 -10,0 -19,0 -26,-1 -8,0 -13,-2 -17,-3 -4,-1 -7,-3 -9,-5 -2,-2 -2,-5 -2,-7l0 -288c0,-11 0,-21 0,-32 0,-10 1,-20 1,-28l-1 0c-2,4 -4,9 -8,14 -3,5 -6,10 -9,16 -4,6 -8,12 -12,18 -4,6 -8,12 -11,17l-190 283c-2,3 -4,6 -7,8 -2,2 -5,4 -9,5 -4,2 -8,2 -14,3 -5,0 -12,0 -21,0 -11,0 -20,0 -26,-1 -7,0 -13,-2 -16,-3 -4,-1 -7,-3 -8,-5 -1,-3 -2,-5 -2,-8l0 -516c0,-3 1,-5 3,-7 1,-2 4,-4 9,-5 4,-2 10,-3 17,-4 7,0 16,-1 26,-1 11,0 20,1 27,1 7,1 13,2 17,4 4,1 7,3 9,5 1,2 2,4 2,7l0 289c0,9 0,19 0,29 -1,10 -1,20 -2,29l1 0c5,-8 11,-18 19,-30 7,-12 15,-23 22,-35l190 -282c2,-3 4,-5 6,-8 2,-2 5,-3 9,-5 4,-1 9,-2 14,-3 6,0 13,-1 22,-1 10,0 19,1 26,1 6,1 11,2 15,4 4,1 7,3 9,5 1,2 2,5 2,8l0 516zm-64 -678c0,16 -3,31 -8,45 -5,14 -14,27 -26,38 -12,11 -27,19 -47,26 -20,6 -43,9 -72,9 -27,0 -51,-3 -70,-8 -20,-6 -35,-15 -48,-25 -12,-10 -21,-22 -26,-37 -6,-15 -9,-30 -9,-48 0,-4 1,-7 2,-10 2,-3 5,-5 8,-7 4,-1 9,-2 15,-3 6,-1 14,-1 24,-1 9,0 16,0 22,1 6,1 11,2 14,4 3,2 5,4 6,6 2,3 2,6 2,10 0,7 2,13 4,19 3,6 7,11 12,15 5,5 12,8 19,11 8,3 17,5 26,5 9,0 17,-2 24,-5 8,-2 14,-6 19,-10 5,-4 9,-10 12,-16 3,-6 4,-13 4,-20 0,-3 1,-6 2,-9 1,-2 3,-4 6,-6 3,-2 8,-3 13,-4 6,-1 13,-1 21,-1 10,0 18,0 25,1 6,1 12,2 16,3 4,2 6,4 8,7 1,3 2,6 2,10z"/>
  <path class="fil59" d="M3793 2461c0,3 0,5 -2,7 -1,2 -4,4 -7,5 -4,1 -8,2 -15,3 -6,1 -14,1 -23,1 -10,0 -18,0 -24,-1 -6,-1 -11,-2 -15,-3 -4,-1 -6,-3 -8,-5 -1,-2 -2,-4 -2,-7l0 -128 -360 0c-10,0 -18,-3 -24,-8 -6,-6 -8,-15 -8,-27l0 -495c0,-3 0,-6 2,-8 2,-2 5,-4 9,-5 4,-1 10,-3 17,-3 7,-1 16,-1 27,-1 11,0 20,0 27,1 7,0 12,2 17,3 4,1 7,3 8,5 2,2 3,5 3,8l0 439 202 0 0 -439c0,-3 0,-6 2,-8 2,-2 5,-4 9,-5 5,-1 10,-3 17,-3 8,-1 16,-1 27,-1 11,0 20,0 27,1 7,0 12,2 17,3 4,1 7,3 8,5 2,2 3,5 3,8l0 439 48 0c7,0 12,1 14,5 3,3 4,9 4,17l0 197z"/>
  <path class="fil59" d="M5051 2183c-12,31 -24,57 -36,78 -12,20 -25,37 -38,49 -14,12 -29,20 -45,24 -16,5 -34,7 -55,7 -8,0 -15,0 -22,-1 -8,-1 -14,-2 -21,-4 -6,-2 -12,-4 -17,-6 -4,-2 -8,-4 -10,-6 -2,-2 -4,-5 -5,-7 -2,-2 -3,-5 -3,-9 -1,-4 -2,-9 -2,-15 -1,-6 -1,-14 -1,-23 0,-16 1,-28 4,-35 2,-7 6,-10 11,-10 2,0 5,1 8,3 3,2 7,4 11,6 4,2 9,4 15,6 6,2 13,3 20,3 6,0 12,-1 17,-2 5,-1 10,-4 14,-7 5,-4 9,-9 13,-16 5,-6 10,-15 15,-25l-179 -365c-4,-9 -7,-16 -7,-21 -1,-6 0,-10 4,-13 3,-3 9,-5 17,-6 8,-1 19,-2 32,-2 13,0 24,0 32,1 8,1 14,2 19,4 4,1 8,4 11,7 2,4 5,9 7,14l76 165c9,18 17,36 24,53 8,18 15,35 22,53l1 0c6,-19 12,-37 18,-55 7,-17 14,-36 21,-56l63 -167c2,-4 3,-7 6,-10 2,-2 5,-4 10,-6 4,-1 10,-2 18,-2 8,-1 18,-1 31,-1 13,0 23,1 30,1 8,1 14,3 17,5 3,3 5,6 4,10 0,4 -1,10 -4,17l-146 364z"/>
  <path class="fil59" d="M6614 2327c0,3 -1,5 -2,7 -2,3 -5,4 -9,6 -5,1 -11,2 -18,3 -7,1 -17,1 -28,1 -12,0 -22,0 -29,-1 -8,-1 -14,-2 -18,-4 -5,-1 -8,-3 -11,-6 -2,-2 -3,-6 -5,-10l-43 -121c-7,-18 -13,-33 -20,-45 -7,-12 -14,-21 -22,-29 -8,-7 -18,-13 -28,-16 -10,-3 -22,-4 -35,-4l-25 0 0 218c0,3 -1,6 -2,8 -2,2 -5,4 -9,5 -4,2 -10,3 -17,4 -7,1 -16,1 -27,1 -10,0 -19,0 -26,-1 -8,-1 -13,-2 -17,-4 -5,-1 -8,-3 -9,-5 -2,-2 -3,-5 -3,-8l0 -515c0,-3 1,-6 3,-8 1,-2 4,-4 9,-5 4,-1 9,-2 17,-3 7,-1 16,-1 26,-1 11,0 20,0 27,1 7,1 13,2 17,3 4,1 7,3 9,5 1,2 2,5 2,8l0 204 25 0c13,0 24,-1 33,-5 10,-3 19,-8 26,-16 8,-7 15,-16 21,-28 7,-12 13,-26 19,-43l36 -109c2,-3 4,-7 6,-9 2,-3 5,-5 9,-7 4,-1 10,-2 17,-3 7,-1 17,-1 29,-1 11,0 20,0 27,1 7,1 13,2 17,3 4,1 7,3 8,5 1,2 2,5 2,8 0,3 0,8 -2,13 -1,5 -3,13 -6,21l-37 97c-7,18 -13,33 -20,46 -7,12 -14,23 -21,32 -8,9 -16,16 -24,22 -8,5 -17,10 -27,13l0 1c11,5 21,10 30,16 9,6 18,14 26,23 8,9 16,21 23,34 7,14 15,30 22,50l45 113c5,11 7,19 8,24 1,4 1,8 1,11z"/>
  <path class="fil59" d="M8016 2295c0,8 0,15 -1,20 -1,6 -2,10 -3,13 -2,4 -3,6 -5,8 -3,1 -5,2 -7,2l-274 0c-9,0 -17,-3 -23,-8 -6,-5 -9,-14 -9,-27l0 -475c0,-12 3,-21 9,-26 6,-6 14,-9 23,-9l272 0c3,0 5,1 7,2 2,2 4,4 5,8 1,3 3,8 3,13 1,6 1,13 1,21 0,8 0,15 -1,20 0,6 -1,10 -3,14 -1,3 -3,6 -5,7 -2,2 -4,2 -7,2l-194 0 0 133 164 0c2,0 5,1 7,2 2,2 3,4 5,8 1,3 2,7 3,13 1,5 1,12 1,20 0,8 0,14 -1,20 -1,5 -2,9 -3,13 -2,3 -3,5 -5,7 -2,1 -5,2 -7,2l-164 0 0 153 196 0c2,0 4,1 7,2 2,2 3,4 5,8 1,3 2,8 3,13 1,6 1,12 1,21z"/>
  <path class="fil59" d="M9496 2323c0,3 -1,5 -3,8 -1,2 -5,4 -9,5 -4,1 -9,3 -16,3 -7,1 -16,2 -27,2 -11,0 -20,-1 -27,-2 -7,0 -13,-2 -17,-3 -4,-1 -7,-3 -9,-5 -1,-3 -2,-5 -2,-8l0 -220 -205 0 0 220c0,3 0,5 -2,8 -2,2 -5,4 -9,5 -4,1 -10,3 -17,3 -7,1 -16,2 -26,2 -11,0 -20,-1 -27,-2 -7,0 -13,-2 -17,-3 -4,-1 -7,-3 -9,-5 -2,-3 -3,-5 -3,-8l0 -515c0,-2 1,-5 3,-7 2,-2 5,-4 9,-6 4,-1 10,-2 17,-3 7,-1 16,-1 27,-1 10,0 19,0 26,1 7,1 13,2 17,3 4,2 7,4 9,6 2,2 2,5 2,7l0 201 205 0 0 -201c0,-2 1,-5 2,-7 2,-2 5,-4 9,-6 4,-1 10,-2 17,-3 7,-1 16,-1 27,-1 11,0 20,0 27,1 7,1 12,2 16,3 4,2 8,4 9,6 2,2 3,5 3,7l0 515z"/>
  <path class="fil59" d="M10894 1839c0,8 0,15 -1,21 0,6 -2,10 -3,14 -1,4 -3,6 -5,8 -2,1 -5,2 -8,2l-180 0 0 440c0,3 -1,5 -3,7 -2,2 -5,4 -9,6 -4,1 -10,2 -17,3 -7,0 -16,1 -27,1 -10,0 -19,-1 -26,-1 -8,-1 -13,-2 -18,-3 -4,-2 -7,-4 -9,-6 -1,-2 -2,-4 -2,-7l0 -496c0,-12 3,-20 9,-26 6,-6 14,-9 24,-9l258 0c6,0 10,4 13,11 3,7 4,19 4,35z"/>
  <path class="fil59" d="M12484 2303c0,12 -2,21 -8,27 -6,5 -13,8 -24,8l-589 0c-10,0 -18,-3 -24,-8 -6,-6 -9,-15 -9,-27l0 -496c0,-3 1,-5 3,-7 2,-2 5,-4 9,-5 4,-2 10,-3 17,-3 7,-1 15,-1 25,-1 11,0 19,0 26,1 7,0 13,1 17,3 4,1 7,3 9,5 2,2 3,4 3,7l0 441 164 0 0 -441c0,-3 1,-5 3,-7 2,-2 5,-4 9,-5 4,-2 10,-3 16,-3 8,-1 16,-1 26,-1 10,0 19,0 26,1 7,0 12,1 16,3 4,1 8,3 9,5 2,2 3,4 3,7l0 441 165 0 0 -441c0,-3 1,-5 2,-7 2,-2 5,-4 10,-5 4,-2 9,-3 16,-3 7,-1 16,-1 26,-1 10,0 19,0 26,1 6,0 12,1 16,3 4,1 8,3 9,5 2,2 3,4 3,7l0 496z"/>
  <path class="fil59" d="M13976 2459c0,3 0,6 -2,7 -2,2 -4,4 -8,6 -3,1 -9,2 -15,3 -6,0 -15,0 -24,0 -10,0 -17,0 -24,-1 -6,0 -11,-1 -14,-3 -4,-1 -6,-3 -8,-4 -1,-2 -2,-5 -2,-8l0 -128 -591 0c-10,0 -18,-2 -24,-8 -6,-6 -8,-15 -8,-27l0 -496c0,-3 0,-5 2,-7 2,-2 5,-4 9,-5 5,-1 10,-2 17,-3 7,-1 16,-1 26,-1 10,0 19,0 26,1 7,1 12,2 16,3 5,1 8,3 9,5 2,2 3,4 3,7l0 441 165 0 0 -441c0,-3 1,-5 3,-7 1,-2 4,-4 9,-5 4,-1 9,-2 16,-3 7,-1 16,-1 26,-1 10,0 18,0 25,1 7,1 13,2 17,3 4,1 7,3 9,5 2,2 3,4 3,7l0 441 164 0 0 -441c0,-3 1,-5 3,-7 2,-2 5,-4 9,-5 4,-1 10,-2 17,-3 7,-1 15,-1 26,-1 10,0 18,0 25,1 7,1 13,2 17,3 4,1 7,3 9,5 2,2 3,4 3,7l0 441 46 0c7,0 12,2 15,5 4,3 5,9 5,18l0 195z"/>
  <path class="fil59" d="M15219 2180c0,28 -5,52 -15,73 -10,21 -25,38 -45,52 -19,15 -42,25 -68,32 -27,7 -57,11 -89,11 -18,0 -35,-1 -50,-4 -15,-2 -28,-6 -39,-9 -11,-4 -20,-8 -27,-12 -6,-3 -11,-6 -14,-9 -3,-2 -5,-5 -6,-7 -2,-3 -3,-6 -3,-11 -1,-4 -2,-10 -3,-17 0,-7 0,-16 0,-26 0,-12 1,-20 3,-24 2,-4 5,-6 10,-6 3,0 8,2 14,5 6,3 14,7 23,12 10,4 21,8 35,12 13,3 29,5 47,5 15,0 29,-2 41,-5 13,-4 23,-9 32,-16 8,-6 15,-14 20,-24 4,-9 7,-20 7,-31 0,-13 -2,-24 -7,-34 -4,-10 -11,-19 -20,-26 -9,-7 -21,-12 -35,-16 -14,-4 -31,-5 -51,-5l-58 0c-4,0 -7,-1 -10,-2 -3,-1 -5,-3 -6,-6 -2,-3 -3,-8 -3,-13 -1,-6 -1,-13 -1,-22 0,-8 1,-15 1,-20 1,-5 2,-10 3,-13 2,-3 4,-5 6,-6 3,-1 6,-2 9,-2l58 0c18,0 33,-2 46,-5 13,-3 24,-8 33,-15 9,-7 15,-15 20,-24 5,-9 7,-20 7,-32 0,-10 -2,-19 -5,-28 -3,-8 -8,-15 -15,-21 -7,-6 -15,-10 -25,-13 -11,-4 -23,-5 -37,-5 -17,0 -32,2 -46,5 -13,4 -25,8 -35,12 -10,4 -18,8 -25,12 -7,3 -12,5 -16,5 -2,0 -3,0 -5,-1 -1,-2 -2,-4 -3,-6 -2,-3 -2,-7 -3,-13 0,-5 0,-11 0,-19 0,-6 0,-11 0,-16 0,-5 1,-9 2,-13 1,-4 2,-7 3,-10 1,-3 4,-6 6,-9 3,-3 10,-6 19,-11 9,-4 20,-8 33,-12 13,-4 28,-7 45,-9 16,-3 34,-4 52,-4 29,0 55,3 77,9 21,6 40,15 54,27 15,12 26,26 33,43 7,17 11,36 11,58 0,17 -3,33 -7,48 -5,14 -12,27 -21,37 -8,11 -19,21 -31,28 -12,7 -26,13 -41,16l0 1c17,2 33,7 47,14 14,8 26,17 36,29 11,11 18,24 24,39 6,15 8,30 8,47z"/>
  <path class="fil59" d="M16688 2297c5,9 9,17 10,23 2,6 1,11 -3,14 -3,3 -9,5 -18,5 -9,1 -21,2 -37,2 -13,0 -23,-1 -31,-1 -7,-1 -13,-2 -18,-3 -4,-1 -7,-3 -9,-5 -2,-2 -4,-5 -5,-8l-103 -197 -101 197c-2,3 -4,6 -6,8 -2,2 -5,4 -9,5 -5,1 -11,2 -19,3 -7,0 -18,1 -30,1 -15,0 -26,-1 -34,-2 -8,0 -14,-2 -16,-5 -3,-3 -4,-8 -2,-14 2,-6 5,-14 10,-23l131 -238 -121 -224c-6,-10 -9,-18 -11,-24 -2,-6 -1,-11 2,-14 3,-3 10,-5 18,-5 9,-1 21,-1 37,-1 13,0 24,0 32,1 7,0 13,1 18,2 5,2 8,3 9,6 2,2 4,5 6,8l96 180 93 -180c1,-3 3,-6 5,-8 2,-3 5,-4 9,-6 4,-1 9,-2 16,-2 8,-1 18,-1 30,-1 14,0 25,0 33,1 8,0 14,2 17,5 3,4 4,8 2,14 -1,6 -4,14 -9,24l-121 222 129 240z"/>
  <path class="fil59" d="M17882 1993l72 0c42,0 74,4 99,11 24,7 45,18 62,32 17,14 30,31 39,52 10,20 14,43 14,70 0,25 -4,49 -12,71 -7,21 -20,40 -37,56 -17,17 -40,29 -68,39 -27,9 -65,14 -114,14l-132 0c-4,0 -9,0 -13,-2 -4,-1 -7,-3 -10,-6 -3,-3 -6,-7 -8,-11 -2,-4 -2,-10 -2,-16l0 -419 -116 0c-2,0 -5,-1 -7,-2 -2,-2 -3,-4 -5,-8 -1,-4 -3,-8 -3,-14 -1,-5 -1,-13 -1,-21 0,-17 1,-29 4,-36 3,-6 7,-10 12,-10l189 0c11,0 20,4 27,10 7,7 10,17 10,30l0 160zm172 174c0,-14 -2,-26 -5,-37 -4,-10 -10,-19 -18,-27 -8,-7 -19,-13 -32,-17 -12,-4 -31,-6 -57,-6l-60 0 0 172 62 0c27,0 46,-3 59,-8 13,-5 23,-12 31,-20 7,-8 12,-17 15,-27 4,-10 5,-20 5,-30z"/>
  <path class="fil59" d="M19471 1925c0,23 -3,44 -10,63 -6,18 -16,34 -28,48 -12,13 -26,24 -43,32 -16,8 -35,13 -55,16l-3 82c-1,5 -5,9 -12,11 -8,3 -19,4 -34,4 -9,0 -17,0 -23,-1 -6,0 -11,-1 -15,-2 -4,-1 -6,-3 -8,-5 -2,-2 -3,-4 -3,-7l-4 -100c0,-8 0,-16 2,-21 1,-6 3,-10 6,-14 3,-3 6,-6 11,-7 4,-1 10,-2 16,-2l6 0c15,0 27,-2 38,-7 11,-5 20,-11 27,-19 7,-8 12,-17 15,-28 4,-10 5,-22 5,-34 0,-13 -2,-25 -6,-37 -3,-11 -9,-21 -17,-29 -7,-8 -17,-14 -29,-19 -12,-4 -25,-6 -41,-6 -14,0 -27,1 -38,4 -11,3 -20,6 -28,9 -8,4 -14,7 -20,10 -5,2 -9,4 -12,4 -2,0 -4,-1 -5,-2 -2,-1 -3,-4 -4,-7 -1,-4 -2,-8 -3,-14 -1,-7 -1,-15 -1,-24 0,-10 0,-17 1,-22 1,-4 3,-8 6,-10 2,-3 8,-7 16,-10 7,-4 17,-8 28,-11 11,-3 23,-6 36,-8 14,-2 28,-4 43,-4 33,0 61,5 85,14 23,9 43,22 58,37 15,15 26,33 33,53 7,20 10,41 10,63zm-125 361c0,11 -1,21 -3,29 -1,8 -5,14 -9,19 -5,5 -11,8 -19,10 -7,2 -17,3 -28,3 -12,0 -22,-1 -29,-3 -8,-2 -14,-5 -18,-10 -5,-5 -8,-11 -10,-19 -2,-8 -3,-18 -3,-29 0,-12 1,-22 3,-30 2,-8 5,-14 10,-19 4,-5 10,-9 18,-11 7,-2 17,-3 29,-3 11,0 21,1 28,3 8,2 14,6 19,11 4,5 8,11 9,19 2,8 3,18 3,30z"/>
  <path class="fil59" d="M3103 3456c0,30 -5,58 -15,83 -10,25 -24,46 -43,64 -19,18 -43,33 -71,44 -28,11 -60,18 -97,21l0 63c0,3 -1,5 -3,7 -2,2 -5,4 -9,5 -4,2 -10,3 -17,3 -7,1 -16,1 -26,1 -11,0 -19,0 -26,-1 -7,0 -13,-1 -17,-3 -4,-1 -7,-2 -9,-4 -2,-2 -3,-5 -3,-8l0 -63c-37,-2 -69,-7 -98,-16 -28,-10 -51,-23 -70,-40 -19,-17 -33,-38 -43,-63 -10,-26 -15,-55 -15,-89 0,-29 5,-56 15,-80 10,-24 24,-45 43,-64 19,-18 42,-32 71,-44 28,-11 60,-18 97,-21l0 -60c0,-3 1,-5 3,-7 2,-2 5,-4 9,-5 4,-1 10,-2 17,-2 7,-1 16,-1 26,-1 10,0 19,0 26,1 7,0 13,1 17,2 4,1 7,3 9,5 2,2 3,4 3,7l0 60c37,2 69,7 97,17 29,9 52,22 71,39 19,17 33,38 43,62 10,25 15,54 15,87zm-112 4c0,-18 -2,-34 -5,-48 -4,-14 -11,-27 -20,-38 -9,-11 -21,-19 -36,-26 -14,-7 -33,-11 -55,-14l0 250c21,-2 40,-7 54,-14 15,-8 27,-17 36,-28 10,-11 16,-23 20,-37 4,-14 6,-29 6,-45zm-222 -126c-22,2 -40,7 -55,15 -15,7 -27,16 -36,27 -9,10 -15,22 -19,36 -4,14 -6,28 -6,43 0,19 2,35 6,50 4,15 10,28 19,38 9,11 21,20 36,27 15,7 33,12 55,14l0 -250z"/>
  <path class="fil59" d="M4546 3719c0,2 -1,5 -2,7 -2,2 -5,4 -9,5 -5,2 -10,3 -18,3 -7,1 -16,2 -26,2 -11,0 -20,-1 -27,-2 -7,0 -12,-1 -17,-3 -4,-1 -7,-3 -9,-5 -2,-2 -3,-5 -3,-7l0 -517c0,-2 1,-5 3,-7 2,-2 5,-4 9,-5 5,-2 10,-3 17,-4 8,0 16,-1 27,-1 10,0 19,1 26,1 8,1 13,2 18,4 4,1 7,3 9,5 1,2 2,5 2,7l0 517zm-177 -166c0,26 -4,50 -12,71 -8,22 -21,40 -38,56 -17,16 -39,29 -67,39 -28,9 -65,14 -113,14l-128 0c-5,0 -10,-1 -14,-2 -4,-1 -7,-3 -10,-6 -3,-3 -6,-7 -8,-11 -2,-5 -3,-10 -3,-16l0 -496c0,-2 1,-5 3,-7 2,-2 5,-4 9,-5 5,-2 10,-3 18,-4 7,0 15,-1 26,-1 11,0 20,1 27,1 7,1 12,2 16,4 5,1 8,3 9,5 2,2 3,5 3,7l0 189 69 0c40,0 73,3 97,10 24,7 45,18 62,31 17,14 30,31 40,52 9,20 14,43 14,69zm-114 9c0,-13 -2,-25 -6,-36 -4,-10 -10,-19 -18,-27 -8,-7 -19,-13 -31,-18 -13,-4 -32,-6 -56,-6l-57 0 0 173 58 0c26,0 46,-3 59,-8 13,-5 23,-12 30,-20 8,-9 13,-18 16,-28 3,-10 5,-20 5,-30z"/>
  <path class="fil59" d="M5907 3569c0,20 -3,37 -8,53 -6,16 -13,30 -22,42 -10,12 -21,22 -34,31 -13,9 -27,16 -43,22 -16,5 -33,9 -50,12 -18,3 -38,4 -60,4l-145 0c-9,0 -16,-3 -23,-8 -6,-6 -9,-15 -9,-27l0 -475c0,-12 3,-21 9,-27 7,-5 14,-8 23,-8l137 0c33,0 61,3 85,9 23,5 42,14 58,25 16,11 28,26 36,43 9,17 13,38 13,61 0,14 -2,26 -5,38 -3,11 -8,22 -15,31 -6,10 -14,18 -24,26 -9,7 -20,13 -32,17 16,3 30,8 43,15 13,7 25,16 34,27 10,11 18,24 23,39 6,15 9,32 9,50zm-143 -229c0,-11 -2,-21 -5,-30 -4,-8 -9,-16 -16,-21 -6,-6 -15,-10 -25,-14 -10,-3 -24,-4 -41,-4l-56 0 0 141 62 0c16,0 29,-2 38,-6 10,-3 18,-8 24,-15 6,-7 11,-14 14,-23 3,-9 5,-18 5,-28zm28 233c0,-12 -2,-24 -6,-34 -4,-10 -11,-18 -19,-25 -8,-6 -18,-12 -31,-15 -13,-4 -29,-6 -49,-6l-66 0 0 155 80 0c16,0 29,-1 39,-4 11,-4 20,-8 27,-15 8,-6 14,-14 19,-23 4,-10 6,-21 6,-33z"/>
  <path class="fil59" d="M7383 3694c3,10 5,19 6,24 1,6 0,11 -3,14 -3,3 -9,5 -17,5 -7,1 -18,1 -32,1 -14,0 -26,0 -34,0 -8,-1 -14,-2 -18,-3 -4,-1 -7,-3 -9,-5 -1,-2 -3,-5 -4,-9l-36 -109 -205 0 -34 106c-2,4 -3,7 -5,10 -2,3 -5,5 -9,6 -4,2 -9,3 -17,3 -7,1 -17,1 -29,1 -13,0 -23,0 -31,-1 -7,-1 -12,-3 -15,-6 -2,-3 -3,-8 -3,-14 1,-6 3,-14 7,-23l168 -484c1,-5 3,-9 5,-11 3,-3 6,-6 11,-7 5,-2 12,-3 21,-3 8,-1 20,-1 34,-1 17,0 30,0 40,1 10,0 17,1 23,3 5,1 9,4 11,7 3,3 5,7 6,12l169 483zm-250 -400l-1 0 -76 232 153 0 -76 -232z"/>
  <path class="fil59" d="M8782 3719c0,2 -1,5 -3,7 -1,2 -4,4 -8,5 -4,2 -10,3 -17,3 -7,1 -16,2 -27,2 -10,0 -19,-1 -27,-2 -7,0 -12,-1 -17,-3 -4,-1 -7,-3 -9,-5 -1,-2 -2,-5 -2,-7l0 -439 -204 0 0 439c0,2 -1,5 -2,7 -2,2 -5,4 -10,5 -4,2 -9,3 -16,3 -7,1 -16,2 -27,2 -11,0 -20,-1 -27,-2 -7,0 -13,-1 -17,-3 -4,-1 -7,-3 -9,-5 -1,-2 -2,-5 -2,-7l0 -496c0,-12 3,-21 9,-26 6,-6 13,-9 23,-9l360 0c10,0 18,3 24,9 5,5 8,14 8,26l0 496z"/>
  <path class="fil59" d="M10206 3354c0,30 -5,57 -14,81 -10,24 -24,43 -42,60 -19,16 -41,28 -68,36 -26,9 -57,13 -93,13l-46 0 0 174c0,3 -1,5 -3,7 -2,3 -5,4 -9,6 -4,1 -10,2 -17,3 -7,1 -16,2 -26,2 -11,0 -20,-1 -27,-2 -7,-1 -13,-2 -17,-3 -4,-2 -7,-3 -9,-6 -2,-2 -2,-4 -2,-7l0 -490c0,-14 3,-23 10,-30 7,-7 16,-10 27,-10l129 0c12,0 25,0 36,2 12,0 26,3 42,6 17,3 33,9 50,18 17,8 31,19 43,33 11,13 21,29 27,47 6,17 9,37 9,60zm-116 8c0,-19 -3,-35 -10,-48 -7,-12 -15,-21 -25,-27 -10,-6 -20,-10 -31,-11 -11,-2 -22,-3 -34,-3l-47 0 0 186 50 0c18,0 33,-3 45,-7 12,-5 21,-12 29,-21 8,-8 13,-18 17,-30 4,-12 6,-25 6,-39z"/>
  <path class="fil59" d="M11701 3460c0,45 -6,86 -17,121 -11,36 -28,66 -50,91 -22,25 -50,44 -82,57 -33,13 -71,20 -114,20 -42,0 -79,-6 -110,-17 -32,-11 -58,-28 -79,-51 -21,-22 -37,-51 -48,-86 -10,-36 -16,-77 -16,-125 0,-44 6,-84 17,-119 12,-35 28,-65 50,-90 23,-24 50,-43 83,-56 32,-14 70,-20 114,-20 41,0 77,5 109,16 31,11 58,28 79,51 21,22 37,51 48,86 11,34 16,75 16,122zm-116 6c0,-29 -3,-55 -7,-78 -5,-23 -12,-44 -23,-60 -11,-17 -25,-30 -43,-39 -18,-9 -40,-14 -67,-14 -27,0 -50,5 -68,16 -19,10 -33,24 -45,41 -11,17 -19,37 -23,60 -5,23 -7,47 -7,72 0,30 2,57 7,81 4,23 12,44 22,60 11,17 25,30 43,39 18,9 41,13 68,13 27,0 50,-5 68,-15 18,-10 33,-24 44,-41 11,-18 19,-38 24,-61 4,-23 7,-48 7,-74z"/>
  <path class="fil59" d="M13109 3719c0,2 -1,5 -3,7 -1,2 -4,4 -9,5 -4,2 -9,3 -17,3 -7,1 -16,2 -26,2 -11,0 -20,-1 -27,-2 -7,0 -13,-1 -17,-3 -4,-1 -7,-3 -9,-5 -2,-2 -3,-5 -3,-7l0 -440 -116 0c-8,64 -16,120 -24,168 -8,48 -17,89 -26,124 -9,34 -20,62 -31,84 -11,22 -24,39 -38,52 -14,13 -30,22 -48,26 -18,5 -38,8 -61,8 -4,0 -8,-1 -11,-2 -3,-1 -6,-3 -7,-6 -2,-3 -4,-8 -4,-13 -1,-6 -2,-13 -2,-22 0,-12 1,-22 1,-29 1,-7 2,-13 3,-17 1,-4 3,-7 6,-8 2,-2 5,-2 8,-2 8,0 17,-2 25,-6 8,-3 15,-10 23,-21 7,-10 15,-25 22,-43 6,-19 13,-44 20,-75 6,-31 13,-68 20,-112 6,-45 13,-97 20,-158 1,-15 5,-25 10,-30 5,-6 12,-9 22,-9l267 0c10,0 18,3 24,9 5,5 8,14 8,26l0 496z"/>
  <path class="fil59" d="M14597 3861c0,3 0,5 -2,7 -1,2 -4,4 -7,5 -4,1 -9,2 -15,3 -6,1 -14,1 -24,1 -9,0 -17,0 -23,-1 -6,-1 -11,-2 -15,-3 -4,-1 -6,-3 -8,-5 -1,-2 -2,-4 -2,-7l0 -128 -363 0 0 128c0,3 -1,5 -2,7 -2,2 -5,4 -8,5 -4,1 -9,2 -15,3 -7,1 -14,1 -24,1 -10,0 -17,0 -24,-1 -6,-1 -11,-2 -15,-3 -3,-1 -6,-3 -7,-5 -2,-2 -2,-4 -2,-7l0 -196c-1,-8 0,-14 4,-17 3,-4 9,-6 16,-6l25 0c7,-9 13,-19 19,-29 6,-10 12,-22 18,-36 5,-14 11,-30 16,-50 6,-19 11,-42 16,-70 6,-28 11,-61 17,-99 5,-38 11,-82 17,-134 2,-12 5,-22 9,-27 5,-6 13,-9 22,-9l279 0c10,0 17,3 23,9 6,5 9,14 9,26l0 419 46 0c7,0 13,2 16,6 3,5 4,10 4,18l0 195zm-177 -583l-127 0c-5,42 -10,80 -15,112 -5,32 -10,61 -15,85 -5,25 -10,46 -15,63 -5,18 -10,33 -15,46 -6,13 -11,24 -17,33 -5,9 -11,18 -17,25l221 0 0 -364z"/>
  <path class="fil59" d="M16088 3724c0,3 -1,6 -2,8 -2,2 -5,4 -9,6 -5,1 -11,2 -18,3 -8,0 -17,1 -29,1 -11,0 -21,-1 -29,-1 -7,-1 -13,-2 -18,-4 -4,-1 -7,-3 -9,-6 -2,-3 -4,-6 -6,-10l-39 -124c-5,-17 -11,-32 -17,-43 -6,-12 -13,-21 -21,-29 -8,-7 -17,-12 -27,-15 -10,-3 -22,-5 -35,-5l-21 0 0 219c0,3 -1,6 -3,8 -1,2 -4,4 -8,5 -4,2 -10,3 -17,4 -7,0 -15,1 -26,1 -11,0 -20,-1 -26,-1 -7,-1 -13,-2 -17,-4 -4,-1 -7,-3 -8,-5 -2,-2 -3,-5 -3,-8l0 -219 -21 0c-14,0 -26,2 -36,6 -11,3 -20,9 -27,16 -8,8 -15,17 -21,29 -6,11 -11,25 -16,41l-39 124c-2,4 -3,7 -5,10 -2,3 -6,5 -10,6 -5,2 -11,3 -18,4 -8,0 -17,1 -29,1 -12,0 -21,-1 -29,-1 -7,-1 -13,-2 -17,-3 -5,-2 -8,-4 -9,-6 -2,-2 -3,-5 -3,-8 0,-1 0,-3 0,-5 0,-2 1,-4 2,-7 0,-2 1,-6 2,-9 1,-4 3,-8 5,-13l38 -109c7,-20 14,-37 21,-51 7,-14 14,-26 22,-35 8,-10 17,-17 26,-23 9,-6 20,-12 31,-16l0 -1c-10,-3 -19,-7 -27,-12 -8,-6 -16,-13 -23,-21 -7,-9 -14,-20 -21,-33 -6,-14 -13,-30 -19,-48l-32 -98c-4,-9 -6,-16 -7,-21 -1,-5 -2,-10 -2,-14 0,-3 1,-5 3,-7 1,-2 4,-4 8,-5 4,-2 10,-3 17,-3 7,-1 16,-1 28,-1 12,0 21,0 28,1 8,0 13,2 18,3 4,2 7,4 9,6 2,3 3,6 4,10l34 115c5,16 10,30 16,41 5,11 12,20 19,26 7,7 15,12 25,15 9,3 21,4 34,4l21 0 0 -204c0,-3 1,-6 3,-8 1,-2 4,-4 8,-5 4,-2 10,-3 17,-3 6,-1 15,-1 26,-1 11,0 19,0 26,1 7,0 13,1 17,3 4,1 7,3 8,5 2,2 3,5 3,8l0 204 21 0c13,0 24,-1 34,-5 9,-3 18,-8 25,-15 8,-7 14,-16 20,-27 5,-10 10,-24 15,-39l34 -115c1,-4 3,-7 5,-10 2,-2 5,-4 9,-6 4,-1 10,-3 17,-3 7,-1 17,-1 29,-1 11,0 20,0 27,1 7,0 13,1 17,3 4,1 7,3 9,5 1,2 2,4 2,7 0,4 -1,9 -2,14 -1,5 -3,12 -6,21l-33 96c-6,18 -12,33 -18,46 -6,13 -13,23 -20,32 -7,9 -15,16 -24,22 -8,6 -17,10 -28,14l0 1c12,5 23,10 32,17 9,6 18,14 26,24 7,9 15,21 21,35 7,14 14,31 22,51l37 109c2,5 3,9 5,13 1,3 2,7 2,9 1,3 2,5 2,7 0,2 0,4 0,5z"/>
  <path class="fil59" d="M17397 3463c0,48 -6,90 -17,126 -11,36 -27,66 -48,89 -21,24 -48,41 -78,53 -31,12 -66,18 -107,18 -13,0 -27,-1 -42,-4 -14,-2 -28,-4 -41,-8 -13,-3 -24,-8 -34,-12 -10,-5 -17,-9 -21,-13 -4,-4 -6,-7 -7,-9 -2,-3 -3,-6 -4,-10 0,-4 -1,-9 -2,-15 0,-6 0,-13 0,-22 0,-14 1,-24 4,-30 2,-6 6,-9 11,-9 3,0 8,2 13,6 6,5 14,9 25,15 10,5 22,9 38,14 15,4 34,6 56,6 20,0 38,-3 54,-9 16,-7 30,-16 41,-29 12,-13 21,-29 28,-49 7,-19 11,-42 12,-68l-227 0c-3,0 -5,-1 -7,-2 -2,-2 -4,-4 -5,-8 -1,-3 -3,-8 -3,-13 -1,-6 -1,-12 -1,-20 0,-8 0,-15 1,-20 0,-6 2,-11 3,-14 1,-3 3,-5 5,-7 2,-2 4,-2 7,-2l225 0c-1,-23 -6,-43 -13,-61 -8,-17 -17,-32 -29,-44 -12,-13 -26,-22 -43,-28 -16,-6 -35,-9 -55,-9 -18,0 -34,2 -48,7 -14,4 -26,8 -37,13 -10,5 -18,10 -25,14 -6,5 -11,7 -14,7 -2,0 -3,-1 -5,-2 -1,-1 -3,-4 -4,-6 -1,-3 -2,-7 -3,-12 0,-5 -1,-12 -1,-19 0,-9 0,-16 1,-22 0,-6 1,-10 2,-14 1,-4 2,-7 3,-10 1,-3 3,-5 6,-8 3,-2 8,-6 16,-10 8,-5 19,-9 31,-13 13,-4 27,-8 43,-11 16,-3 33,-4 52,-4 37,0 71,6 101,17 30,12 56,29 77,53 21,23 37,52 49,87 11,34 17,75 17,121z"/>
  <path class="fil59" d="M3743 5139c0,2 -1,5 -2,7 -2,2 -5,4 -9,5 -4,2 -10,3 -17,3 -7,1 -16,1 -27,1 -10,0 -20,0 -27,-1 -7,0 -12,-1 -17,-3 -4,-1 -7,-3 -9,-5 -1,-2 -2,-5 -2,-7l0 -204 -41 0c-17,0 -30,1 -39,5 -9,3 -16,8 -23,15 -7,7 -13,16 -19,27 -5,10 -10,23 -15,37l-42 118c-1,3 -3,6 -5,8 -2,3 -6,5 -10,6 -5,2 -11,3 -19,4 -7,0 -17,0 -29,0 -13,0 -23,0 -30,-1 -8,-1 -13,-2 -17,-4 -4,-1 -7,-3 -8,-5 -1,-2 -1,-4 -1,-6 0,-3 0,-6 1,-10 1,-5 3,-11 6,-19l41 -107c5,-14 11,-26 16,-36 6,-11 12,-20 19,-28 7,-9 14,-16 22,-21 8,-6 16,-10 25,-14 -17,-5 -32,-11 -46,-18 -13,-8 -24,-18 -34,-29 -9,-11 -16,-23 -20,-38 -5,-14 -7,-31 -7,-49 0,-24 4,-47 13,-67 8,-20 21,-37 38,-51 17,-14 38,-25 63,-32 25,-8 60,-12 105,-12l134 0c9,0 16,3 23,8 6,6 9,14 9,27l0 496zm-110 -446l-57 0c-24,0 -42,2 -54,6 -12,3 -21,9 -29,16 -7,6 -13,15 -16,24 -4,10 -5,21 -5,33 0,11 2,22 5,31 4,10 9,18 17,25 8,8 17,13 29,17 12,4 29,6 51,6l59 0 0 -158z"/>
  <path class="fil59" d="M5131 5138c0,3 -1,5 -3,7 -2,3 -5,4 -9,6 -4,1 -9,2 -16,3 -7,1 -16,1 -27,1 -10,0 -19,0 -26,-1 -7,-1 -13,-2 -17,-3 -5,-2 -8,-3 -10,-6 -2,-2 -3,-4 -3,-7l0 -186c-15,2 -29,3 -44,4 -14,1 -28,1 -43,1 -30,0 -57,-3 -82,-8 -25,-5 -46,-15 -64,-28 -17,-13 -31,-32 -41,-55 -10,-23 -15,-52 -15,-88l0 -155c0,-3 1,-6 3,-8 2,-2 5,-4 9,-5 4,-1 9,-2 16,-3 7,-1 16,-2 26,-2 11,0 20,1 27,2 7,1 13,2 17,3 5,1 8,3 10,5 2,2 3,5 3,8l0 144c0,17 2,32 5,44 4,12 9,23 18,31 8,8 18,14 32,18 13,4 30,7 50,7 13,0 25,-1 37,-2 12,-1 24,-2 36,-3l0 -239c0,-3 1,-6 3,-8 2,-2 5,-4 10,-5 4,-1 10,-2 17,-3 7,-1 16,-2 26,-2 11,0 20,1 27,2 7,1 12,2 16,3 4,1 7,3 9,5 2,2 3,5 3,8l0 515z"/>
  <path class="fil59" d="M6586 5064c0,7 0,13 0,18 -1,5 -1,9 -2,13 -1,3 -2,6 -4,9 -1,3 -3,5 -6,9 -3,3 -9,7 -18,12 -9,5 -20,10 -33,14 -12,5 -27,9 -43,12 -17,3 -35,4 -54,4 -37,0 -71,-6 -101,-17 -30,-12 -55,-29 -76,-52 -21,-22 -37,-51 -49,-85 -11,-34 -16,-74 -16,-120 0,-46 6,-87 18,-123 13,-36 30,-66 52,-90 22,-25 49,-43 80,-56 31,-13 65,-19 102,-19 15,0 30,1 44,4 14,2 27,6 39,10 12,4 22,9 32,14 9,5 16,10 20,14 4,4 6,7 8,9 1,3 2,6 3,10 1,4 2,9 2,14 0,5 1,12 1,20 0,8 -1,15 -1,21 -1,6 -2,11 -3,14 -2,4 -3,6 -5,8 -2,2 -5,3 -7,3 -4,0 -9,-3 -16,-8 -6,-5 -15,-10 -25,-16 -10,-6 -22,-12 -37,-16 -14,-5 -30,-8 -50,-8 -22,0 -41,5 -58,13 -17,9 -31,22 -43,38 -12,17 -21,37 -27,60 -7,23 -10,49 -10,78 0,32 4,60 10,84 7,23 16,42 29,57 12,15 26,27 44,34 17,8 36,11 58,11 19,0 36,-2 51,-7 14,-4 26,-9 36,-15 11,-5 19,-11 26,-15 6,-4 11,-7 15,-7 3,0 5,1 7,2 1,1 3,3 4,7 1,3 2,8 2,14 1,6 1,14 1,24z"/>
  <path class="fil59" d="M8151 5138c0,2 -1,5 -3,7 -1,2 -4,4 -8,6 -4,1 -10,2 -16,3 -7,1 -16,1 -26,1 -10,0 -19,0 -25,-1 -7,-1 -12,-2 -17,-3 -3,-2 -6,-4 -8,-6 -2,-2 -2,-5 -2,-7l0 -444 -1 0 -158 443c-1,4 -3,7 -5,9 -3,3 -6,5 -10,6 -5,1 -10,2 -17,3 -7,0 -15,0 -24,0 -10,0 -18,0 -25,-1 -7,0 -12,-1 -16,-3 -5,-2 -8,-4 -11,-6 -2,-2 -4,-5 -5,-8l-152 -443 -1 0 0 444c0,2 0,5 -2,7 -1,2 -4,4 -9,6 -4,1 -9,2 -16,3 -7,1 -15,1 -25,1 -11,0 -19,0 -26,-1 -7,-1 -12,-2 -16,-3 -4,-2 -7,-4 -8,-6 -2,-2 -3,-5 -3,-7l0 -486c0,-14 4,-25 12,-33 7,-7 17,-11 30,-11l72 0c13,0 25,1 34,3 9,2 17,6 24,11 7,4 12,11 17,19 4,8 8,18 12,30l117 324 2 0 121 -324c4,-11 8,-21 12,-29 5,-8 10,-15 15,-20 6,-5 13,-9 21,-11 8,-2 17,-3 27,-3l75 0c8,0 14,1 19,3 6,2 11,5 14,9 4,3 6,8 8,13 2,6 3,12 3,19l0 486z"/>
  <path class="fil59" d="M9485 5139c0,2 -1,5 -2,7 -2,2 -5,4 -10,5 -4,2 -9,3 -17,3 -7,1 -16,1 -26,1 -11,0 -20,0 -27,-1 -7,0 -13,-1 -17,-3 -4,-1 -7,-3 -9,-5 -1,-2 -2,-5 -2,-7l0 -288c0,-11 0,-21 0,-32 1,-10 1,-20 2,-28l-1 0c-3,4 -5,9 -8,14 -3,5 -7,10 -10,16 -4,6 -8,12 -11,18 -4,6 -8,12 -12,17l-189 283c-3,3 -5,6 -7,8 -3,2 -6,4 -10,5 -3,2 -8,2 -13,3 -6,0 -13,0 -22,0 -11,0 -20,0 -26,-1 -7,0 -12,-1 -16,-3 -4,-1 -6,-3 -8,-5 -1,-3 -2,-5 -2,-8l0 -516c0,-3 1,-5 3,-7 2,-2 5,-4 9,-5 4,-2 10,-3 17,-4 7,0 16,-1 27,-1 10,0 19,1 26,1 7,1 13,2 17,4 4,1 7,3 9,5 2,2 2,4 2,7l0 289c0,9 0,19 0,29 0,10 -1,20 -1,29l1 0c4,-8 11,-18 18,-30 7,-12 15,-23 23,-35l189 -282c2,-3 4,-5 6,-8 3,-2 6,-3 9,-5 4,-1 9,-2 15,-3 5,0 12,-1 21,-1 11,0 19,1 26,1 7,1 12,2 16,4 4,1 6,3 8,5 2,2 2,5 2,8l0 516z"/>
  <path class="fil59" d="M10892 4653c0,9 0,15 -1,21 -1,6 -2,11 -3,14 -2,4 -3,6 -6,8 -2,2 -4,2 -6,2l-137 0 0 440c0,2 0,5 -2,7 -2,2 -5,4 -9,6 -5,1 -10,2 -18,3 -7,1 -16,1 -26,1 -11,0 -20,0 -27,-1 -7,-1 -13,-2 -17,-3 -4,-2 -7,-4 -9,-6 -2,-2 -3,-5 -3,-7l0 -440 -136 0c-3,0 -5,0 -7,-2 -2,-2 -4,-4 -5,-8 -2,-3 -3,-8 -3,-14 -1,-6 -1,-12 -1,-21 0,-8 0,-15 1,-21 0,-6 1,-11 3,-14 1,-4 3,-6 5,-8 2,-1 4,-2 7,-2l384 0c2,0 4,1 6,2 3,2 4,4 6,8 1,3 2,8 3,14 1,6 1,13 1,21z"/>
  <path class="fil59" d="M12331 4972c0,26 -3,50 -11,71 -8,22 -20,41 -38,57 -17,16 -39,29 -67,38 -28,10 -66,15 -114,15l-136 0c-5,0 -10,-1 -14,-2 -4,-1 -7,-4 -10,-6 -3,-3 -6,-7 -8,-11 -2,-5 -2,-10 -2,-16l0 -496c0,-3 0,-5 2,-7 2,-2 5,-4 9,-5 5,-2 11,-3 18,-4 7,0 15,-1 26,-1 11,0 20,1 27,1 7,1 12,2 17,4 4,1 7,3 8,5 2,2 3,4 3,7l0 186 76 0c42,0 74,4 99,11 24,7 45,17 62,31 17,15 30,32 39,52 10,21 14,44 14,70zm-113 9c0,-13 -2,-25 -6,-36 -4,-11 -10,-20 -18,-27 -9,-8 -19,-14 -32,-18 -13,-4 -32,-6 -57,-6l-64 0 0 173 66 0c27,0 46,-3 59,-8 13,-5 24,-12 31,-20 7,-9 13,-18 16,-28 3,-10 5,-20 5,-30z"/>
  <path class="fil59" d="M13807 4984c0,25 -4,47 -13,68 -8,20 -21,38 -38,53 -17,15 -39,27 -65,35 -26,9 -60,13 -101,13l-144 0c-10,0 -18,-3 -25,-8 -6,-6 -9,-15 -9,-28l0 -474c0,-13 3,-21 9,-27 7,-5 14,-8 24,-8l308 0c3,0 5,1 8,2 2,1 4,4 5,7 2,4 3,8 4,14 0,5 1,12 1,21 0,8 -1,14 -1,20 -1,5 -2,10 -4,13 -1,4 -3,6 -5,8 -3,1 -5,2 -7,2l-232 0 0 135 91 0c35,0 64,4 87,10 23,7 42,17 58,30 16,14 28,30 36,49 9,19 13,41 13,65zm-112 7c0,-12 -2,-23 -6,-33 -4,-9 -10,-18 -18,-24 -7,-7 -17,-13 -29,-16 -12,-4 -28,-6 -48,-6l-72 0 0 157 73 0c18,0 33,-2 45,-5 12,-3 21,-8 29,-15 8,-7 14,-15 19,-25 4,-10 7,-21 7,-33z"/>
  <path class="fil59" d="M15399 4870c0,45 -5,85 -15,121 -11,36 -27,66 -49,90 -21,25 -48,43 -80,56 -32,13 -69,19 -111,19 -39,0 -73,-5 -103,-15 -29,-11 -54,-26 -74,-47 -21,-21 -37,-46 -48,-77 -11,-31 -17,-66 -20,-107l-83 0 0 222c0,3 -1,6 -3,8 -2,2 -5,4 -9,5 -4,1 -10,2 -17,3 -7,1 -16,1 -27,1 -10,0 -19,0 -27,-1 -7,-1 -12,-2 -17,-3 -4,-1 -7,-3 -9,-5 -2,-2 -2,-5 -2,-8l0 -516c0,-3 0,-5 2,-7 2,-3 5,-4 10,-6 4,-1 10,-2 17,-3 7,-1 16,-1 26,-1 11,0 20,0 27,1 7,1 13,2 17,3 4,2 7,3 9,6 2,2 3,4 3,7l0 204 86 0c3,-35 12,-66 24,-95 12,-28 28,-52 49,-71 21,-20 46,-35 75,-46 29,-10 63,-16 100,-16 40,0 75,6 106,17 31,11 57,28 78,51 22,23 38,52 49,87 11,35 16,75 16,123zm-116 5c0,-28 -2,-54 -7,-78 -5,-23 -12,-44 -23,-60 -10,-18 -24,-31 -42,-40 -17,-9 -39,-14 -65,-14 -27,0 -49,5 -66,15 -18,10 -31,24 -42,41 -10,17 -17,37 -21,60 -4,22 -6,46 -6,72 0,18 1,36 2,52 2,17 5,33 9,47 4,14 10,27 17,39 6,12 15,22 25,30 10,8 22,14 36,19 13,4 29,7 47,7 26,0 48,-5 65,-15 18,-10 32,-23 42,-40 10,-18 18,-38 22,-61 5,-23 7,-47 7,-74z"/>
  <path class="fil59" d="M16647 5109c0,8 0,15 -1,21 0,5 -1,10 -3,13 -1,3 -3,6 -5,7 -2,2 -5,3 -7,3l-273 0c-10,0 -17,-3 -24,-8 -6,-6 -9,-15 -9,-27l0 -475c0,-13 3,-21 9,-27 7,-5 14,-8 24,-8l272 0c2,0 4,1 6,2 2,2 4,4 5,7 2,4 3,8 4,14 0,6 1,12 1,21 0,8 -1,14 -1,20 -1,5 -2,10 -4,13 -1,4 -3,6 -5,8 -2,1 -4,2 -6,2l-195 0 0 133 164 0c3,0 5,0 7,2 2,2 4,4 5,7 2,3 3,8 3,13 1,6 1,12 1,20 0,8 0,15 -1,20 0,6 -1,10 -3,13 -1,4 -3,6 -5,7 -2,2 -4,2 -7,2l-164 0 0 154 196 0c2,0 5,0 7,2 2,2 4,4 5,7 2,4 3,8 3,14 1,5 1,12 1,20zm-196 -602c0,19 -4,33 -12,41 -8,8 -22,12 -44,12 -21,0 -36,-4 -43,-12 -8,-7 -12,-21 -12,-40 0,-20 4,-33 12,-41 8,-8 23,-12 44,-12 22,0 36,4 44,12 7,7 11,20 11,40zm183 0c0,19 -4,33 -11,41 -8,8 -23,12 -44,12 -22,0 -36,-4 -44,-12 -7,-7 -11,-21 -11,-40 0,-20 4,-33 11,-41 8,-8 23,-12 44,-12 22,0 37,4 44,12 8,7 11,20 11,40z"/>
  <path class="fil59" d="M14399 6276c0,32 -5,54 -17,66 -11,11 -31,16 -61,16 -29,0 -50,-5 -61,-16 -11,-11 -17,-32 -17,-63 0,-33 6,-55 17,-66 12,-12 32,-17 62,-17 29,0 49,5 61,16 11,11 16,33 16,64z"/>
  <path class="fil59" d="M15875 6240c0,14 -1,27 -3,38 -1,12 -3,23 -6,33 -4,10 -8,20 -13,30 -5,9 -11,19 -18,29l-71 101c-2,4 -5,7 -8,9 -3,3 -7,5 -11,6 -4,2 -9,3 -15,4 -6,1 -14,1 -23,1 -10,0 -18,0 -25,-1 -6,-1 -11,-3 -13,-4 -3,-2 -5,-4 -5,-7 0,-3 1,-6 3,-10l64 -146 0 -83c0,-12 2,-21 4,-29 3,-7 8,-13 14,-17 6,-4 13,-6 22,-7 9,-2 20,-2 33,-2 13,0 23,0 32,2 9,1 16,3 22,7 6,4 10,10 13,17 2,8 4,17 4,29z"/>
  <path class="fil59" d="M4067 6511l0 -486 227 0c42,0 75,4 97,12 22,8 40,23 54,44 13,22 20,48 20,79 0,27 -5,51 -16,70 -10,20 -24,36 -43,48 -11,8 -27,14 -48,19 17,6 28,12 36,18 5,4 12,13 22,26 9,13 15,23 19,30l66 140 -154 0 -73 -148c-9,-19 -18,-32 -25,-38 -10,-7 -21,-11 -33,-11l-12 0 0 197 -137 0zm137 -288l57 0c7,0 19,-3 37,-7 9,-2 16,-7 22,-15 5,-9 8,-18 8,-29 0,-15 -4,-27 -13,-36 -9,-8 -26,-12 -51,-12l-60 0 0 99z"/>
  <path id="1" class="fil59" d="M4862 6511l-114 0 0 -57c-17,24 -34,40 -52,50 -17,10 -38,15 -64,15 -33,0 -60,-11 -79,-33 -19,-22 -28,-57 -28,-103l0 -224 123 0 0 194c0,22 4,38 11,47 7,9 18,14 31,14 15,0 26,-6 36,-18 9,-13 14,-35 14,-67l0 -170 122 0 0 352z"/>
  <polygon id="2" class="fil59" points="4913,6282 5092,6282 5092,6386 4913,6386 "/>
  <polygon id="3" class="fil59" points="5150,6025 5515,6025 5515,6129 5287,6129 5287,6206 5498,6206 5498,6305 5287,6305 5287,6401 5522,6401 5522,6511 5150,6511 "/>
  <path id="4" class="fil59" d="M5587 6159l114 0 0 57c17,-23 34,-40 52,-50 17,-10 39,-15 64,-15 33,0 60,11 79,33 19,22 29,57 29,103l0 224 -124 0 0 -194c0,-22 -3,-37 -11,-47 -7,-9 -17,-13 -31,-13 -14,0 -26,6 -36,18 -9,13 -13,35 -13,67l0 169 -123 0 0 -352z"/>
  <circle class="fil60" cx="1723" cy="3082" r="149"/>
  <circle class="fil61" cx="3836" cy="5860" r="149"/>
  <circle class="fil60" cx="6077" cy="5860" r="149"/>
  <path class="fil59" d="M517 3370c0,4 0,8 0,11 0,2 -1,5 -1,7 -1,2 -1,4 -2,5 -1,2 -2,3 -4,5 -2,2 -5,5 -10,8 -6,2 -12,5 -19,8 -8,2 -16,5 -26,6 -9,2 -20,3 -31,3 -22,0 -41,-3 -59,-10 -17,-7 -32,-17 -44,-30 -13,-13 -22,-30 -29,-50 -6,-20 -9,-43 -9,-70 0,-27 3,-51 10,-71 8,-21 18,-39 30,-53 13,-15 29,-25 47,-33 18,-7 38,-11 60,-11 9,0 17,1 25,3 8,1 16,3 23,5 7,3 13,5 19,9 5,3 9,5 11,8 3,2 4,4 5,5 1,2 1,3 2,6 0,2 1,5 1,8 0,3 0,7 0,11 0,5 0,9 0,13 0,3 -1,6 -2,8 -1,2 -2,4 -3,5 -1,1 -2,1 -4,1 -2,0 -5,-1 -9,-4 -4,-3 -9,-6 -15,-10 -6,-3 -13,-6 -21,-9 -8,-3 -18,-4 -29,-4 -13,0 -24,2 -34,7 -10,6 -18,13 -25,22 -7,10 -13,22 -16,35 -4,14 -6,29 -6,46 0,19 2,35 6,48 4,14 10,25 17,34 7,9 15,16 25,20 10,4 22,6 34,6 12,0 22,-1 30,-4 8,-2 15,-5 21,-9 6,-3 11,-6 15,-8 4,-3 7,-4 9,-4 2,0 3,0 4,1 1,0 2,2 2,4 1,2 2,4 2,8 0,3 0,8 0,14z"/>
  <path id="1" class="fil59" d="M844 3394c2,6 3,11 3,14 1,4 0,6 -2,8 -1,2 -5,3 -9,3 -5,1 -11,1 -19,1 -8,0 -15,0 -20,-1 -4,0 -8,0 -10,-1 -3,-1 -4,-2 -5,-3 -1,-2 -2,-3 -3,-5l-21 -64 -120 0 -20 62c0,2 -1,4 -2,6 -1,1 -3,2 -5,3 -3,1 -6,2 -10,2 -5,1 -10,1 -18,1 -7,0 -13,-1 -17,-1 -4,-1 -7,-2 -9,-4 -2,-2 -2,-4 -2,-8 1,-3 2,-8 4,-13l98 -282c1,-3 2,-5 3,-7 2,-2 4,-3 6,-4 3,-1 7,-2 12,-2 5,0 12,0 21,0 9,0 17,0 23,0 5,0 10,1 13,2 3,1 5,2 7,4 1,2 3,4 3,7l99 282zm-146 -233l0 0 -45 135 89 0 -44 -135z"/>
  <path id="2" class="fil59" d="M1126 3197c0,18 -3,34 -9,47 -5,14 -14,26 -24,35 -11,10 -24,17 -39,22 -16,5 -34,7 -55,7l-27 0 0 101c0,2 0,3 -1,5 -2,1 -3,2 -6,3 -2,1 -5,1 -10,2 -4,0 -9,1 -15,1 -6,0 -12,-1 -16,-1 -4,-1 -7,-1 -10,-2 -2,-1 -4,-2 -5,-3 -1,-2 -1,-3 -1,-5l0 -286c0,-7 2,-13 6,-17 4,-4 9,-6 16,-6l75 0c7,0 14,1 21,1 7,1 15,2 25,4 9,2 19,5 28,10 10,5 19,12 25,20 7,7 13,16 16,27 4,10 6,22 6,35zm-68 5c0,-12 -2,-21 -6,-28 -4,-7 -9,-13 -14,-16 -6,-3 -12,-6 -18,-7 -7,0 -13,-1 -20,-1l-28 0 0 108 29 0c11,0 19,-1 26,-4 7,-3 13,-7 18,-12 4,-5 7,-11 10,-18 2,-7 3,-14 3,-22z"/>
  <path id="3" class="fil59" d="M1384 3323c0,17 -3,31 -10,44 -6,12 -14,23 -25,31 -11,9 -23,15 -37,19 -15,5 -30,7 -46,7 -11,0 -21,-1 -31,-3 -9,-2 -17,-4 -25,-7 -7,-2 -13,-5 -18,-8 -5,-3 -8,-5 -10,-7 -2,-2 -4,-5 -5,-10 -1,-4 -1,-9 -1,-17 0,-5 0,-9 0,-13 1,-3 1,-6 2,-8 1,-2 2,-3 3,-4 1,-1 3,-2 4,-2 3,0 6,2 10,4 4,3 10,6 16,9 7,4 15,7 24,9 9,3 19,4 31,4 8,0 15,-1 21,-2 7,-2 12,-5 16,-8 5,-4 8,-8 10,-13 3,-5 4,-11 4,-17 0,-7 -2,-13 -6,-18 -4,-6 -9,-10 -15,-14 -7,-4 -14,-8 -22,-11 -8,-4 -16,-8 -25,-12 -8,-4 -17,-8 -25,-13 -8,-5 -15,-11 -21,-18 -7,-7 -12,-15 -16,-25 -4,-9 -5,-20 -5,-34 0,-15 2,-28 8,-40 6,-11 13,-21 23,-28 9,-8 21,-14 34,-18 13,-3 26,-5 41,-5 8,0 15,0 23,2 7,1 14,2 21,4 6,2 12,4 17,7 5,2 9,4 10,6 2,2 3,3 3,4 1,1 2,3 2,5 0,2 1,4 1,7 0,3 0,6 0,10 0,5 0,9 0,12 0,4 -1,6 -2,9 0,2 -1,3 -2,4 -1,1 -2,2 -4,2 -2,0 -5,-1 -9,-4 -4,-2 -9,-5 -14,-7 -6,-3 -13,-5 -20,-8 -8,-2 -16,-3 -25,-3 -7,0 -13,1 -19,3 -5,1 -9,4 -13,7 -3,3 -6,6 -7,11 -2,4 -3,9 -3,13 0,7 2,13 6,18 4,6 9,10 15,14 7,4 14,8 22,12 8,3 17,7 25,11 9,4 17,8 25,13 9,5 16,11 22,18 7,7 12,15 16,25 4,9 6,20 6,33z"/>
  <path class="fil59" d="M457 3799c0,4 0,9 -1,12 0,3 -1,6 -1,8 -1,3 -2,4 -4,5 -1,1 -2,2 -4,2l-145 0c-6,0 -10,-2 -14,-5 -4,-3 -5,-9 -5,-16l0 -288c0,-2 0,-4 1,-5 1,-1 3,-2 5,-3 3,-1 6,-2 10,-2 5,-1 10,-1 16,-1 6,0 12,0 16,1 4,0 7,1 10,2 2,1 4,2 5,3 1,1 1,3 1,5l0 255 100 0c2,0 3,1 4,2 2,1 3,2 4,4 0,2 1,5 1,8 1,4 1,8 1,13z"/>
  <path id="1" class="fil59" d="M792 3663c0,26 -4,50 -10,71 -7,20 -16,38 -29,53 -13,14 -29,25 -48,33 -19,7 -42,11 -67,11 -24,0 -46,-3 -64,-10 -19,-6 -34,-16 -46,-29 -13,-13 -22,-30 -28,-51 -6,-20 -9,-44 -9,-72 0,-26 3,-49 10,-70 6,-20 16,-38 29,-52 13,-15 29,-26 48,-33 19,-8 41,-12 66,-12 24,0 46,3 64,10 18,6 34,16 46,29 13,13 22,30 28,50 6,21 10,44 10,72zm-68 3c0,-16 -2,-32 -4,-45 -3,-14 -7,-26 -14,-35 -6,-10 -14,-18 -25,-23 -10,-5 -23,-8 -39,-8 -16,0 -29,3 -40,9 -10,6 -19,14 -25,24 -7,10 -12,22 -14,35 -3,13 -4,27 -4,42 0,18 1,33 4,47 2,14 7,26 13,36 6,9 14,17 25,22 10,5 24,8 39,8 16,0 29,-3 40,-9 11,-6 19,-14 26,-24 6,-10 11,-22 14,-36 2,-13 4,-28 4,-43z"/>
  <path id="2" class="fil59" d="M1085 3778c0,4 0,7 0,10 0,3 -1,5 -1,7 0,2 -1,4 -2,6 -1,1 -2,3 -4,5 -2,2 -5,4 -10,7 -5,3 -12,6 -19,8 -8,3 -16,5 -26,7 -9,2 -20,3 -31,3 -22,0 -41,-4 -59,-10 -17,-7 -32,-17 -44,-31 -13,-13 -22,-29 -29,-50 -6,-19 -9,-43 -9,-69 0,-27 3,-51 10,-72 8,-21 18,-39 31,-53 13,-14 28,-25 46,-32 18,-8 38,-11 60,-11 9,0 17,0 25,2 9,1 16,3 23,6 7,2 13,5 19,8 5,3 9,6 12,8 2,2 3,4 4,6 1,1 2,3 2,5 0,3 1,5 1,8 0,3 0,7 0,12 0,5 0,9 0,12 0,4 -1,6 -2,9 -1,2 -2,3 -3,4 -1,1 -2,2 -4,2 -2,0 -5,-2 -9,-5 -4,-2 -9,-6 -14,-9 -6,-4 -14,-7 -22,-10 -8,-3 -18,-4 -29,-4 -13,0 -24,3 -34,8 -10,5 -18,12 -25,22 -7,9 -13,21 -16,35 -4,13 -5,28 -5,45 0,19 1,35 5,49 4,13 10,25 17,34 7,8 15,15 25,19 11,5 22,7 34,7 12,0 22,-2 30,-4 8,-3 16,-6 21,-9 6,-3 11,-6 15,-9 4,-3 7,-4 9,-4 2,0 3,0 4,1 1,1 2,2 3,4 0,2 1,5 1,8 0,4 0,9 0,15z"/>
  <path id="3" class="fil59" d="M1383 3816c0,2 0,3 -1,5 -1,1 -3,2 -5,3 -3,1 -6,2 -11,2 -4,1 -10,1 -16,1 -11,0 -19,0 -23,-1 -5,-1 -8,-2 -10,-4 -2,-1 -4,-3 -5,-6l-96 -151 0 151c0,2 -1,4 -2,5 -1,1 -2,2 -5,3 -2,1 -5,2 -10,2 -4,1 -9,1 -15,1 -6,0 -12,0 -16,-1 -4,0 -7,-1 -10,-2 -2,-1 -4,-2 -5,-3 -1,-1 -1,-3 -1,-5l0 -299c0,-2 0,-4 1,-5 1,-1 3,-2 5,-3 3,-1 6,-2 10,-2 4,-1 10,-1 16,-1 6,0 11,0 15,1 5,0 8,1 10,2 3,1 4,2 5,3 1,1 2,3 2,5l0 135 93 -135c1,-2 2,-4 4,-5 2,-2 4,-3 6,-4 3,0 6,-1 11,-1 4,-1 9,-1 15,-1 7,0 12,0 16,1 5,0 8,1 11,2 2,1 4,2 5,3 1,2 1,3 1,5 0,3 0,5 -2,8 -1,3 -4,8 -8,14l-87 115 95 143c3,7 6,12 6,14 1,2 1,4 1,5z"/>
  <path class="fil59" d="M18435 3613c0,5 0,9 -1,12 0,3 -1,6 -2,8 0,2 -1,3 -3,4 -1,1 -2,1 -4,1l-159 0c-5,0 -10,-1 -14,-5 -3,-3 -5,-8 -5,-15l0 -277c0,-7 2,-13 5,-16 4,-3 9,-5 14,-5l159 0c1,0 2,1 4,2 1,0 2,2 2,4 1,2 2,5 2,8 1,3 1,7 1,12 0,5 0,8 -1,12 0,3 -1,6 -2,7 0,2 -1,4 -2,5 -2,1 -3,1 -4,1l-114 0 0 78 96 0c1,0 3,0 4,1 1,1 2,2 3,4 1,2 1,5 2,8 0,3 0,7 0,11 0,5 0,9 0,12 -1,3 -1,6 -2,8 -1,2 -2,3 -3,4 -1,0 -3,1 -4,1l-96 0 0 89 114 0c2,0 3,1 4,2 2,1 3,2 3,4 1,2 2,5 2,8 1,3 1,7 1,12z"/>
  <path id="1" class="fil59" d="M18774 3616c0,3 -1,7 -2,10 -1,3 -3,5 -6,7 -2,2 -4,3 -7,4 -3,1 -6,2 -10,2l-27 0c-6,0 -11,-1 -15,-2 -4,-1 -8,-3 -11,-6 -4,-3 -7,-7 -11,-13 -3,-5 -7,-11 -11,-20l-79 -148c-4,-9 -9,-19 -14,-29 -4,-10 -9,-20 -12,-30l-1 0c1,12 1,24 2,36 0,11 0,23 0,36l0 166c0,2 0,3 -1,5 -1,1 -3,2 -5,3 -2,1 -5,1 -9,2 -4,0 -9,1 -14,1 -6,0 -11,-1 -15,-1 -3,-1 -6,-1 -9,-2 -2,-1 -3,-2 -4,-3 -1,-2 -1,-3 -1,-5l0 -285c0,-8 2,-14 7,-18 4,-4 10,-6 16,-6l35 0c6,0 11,1 16,2 4,1 8,3 11,5 3,3 6,6 9,10 3,5 6,10 9,17l62 116c4,7 7,14 11,21 3,6 7,13 10,20 3,7 6,13 10,20 3,7 6,13 9,20l0 0c-1,-12 -1,-24 -1,-36 0,-13 -1,-25 -1,-36l0 -149c0,-2 1,-3 2,-5 1,-1 3,-2 5,-3 2,-1 5,-2 9,-2 4,0 9,-1 14,-1 6,0 11,1 15,1 3,0 6,1 8,2 2,1 4,2 5,3 0,2 1,3 1,5l0 286z"/>
  <path id="2" class="fil59" d="M19074 3347c0,5 0,9 -1,12 0,3 -1,6 -2,8 0,2 -1,4 -3,5 -1,1 -2,1 -4,1l-79 0 0 256c0,2 -1,4 -2,5 -1,1 -3,2 -5,3 -2,1 -6,1 -10,2 -4,0 -9,1 -16,1 -6,0 -11,-1 -15,-1 -4,-1 -8,-1 -10,-2 -3,-1 -4,-2 -5,-3 -1,-1 -2,-3 -2,-5l0 -256 -79 0c-2,0 -3,0 -5,-1 -1,-1 -2,-3 -3,-5 0,-2 -1,-5 -1,-8 -1,-3 -1,-7 -1,-12 0,-5 0,-9 1,-13 0,-3 1,-6 1,-8 1,-2 2,-3 3,-4 2,-1 3,-2 5,-2l223 0c2,0 3,1 4,2 2,1 3,2 3,4 1,2 2,5 2,8 1,4 1,8 1,13z"/>
  <path id="3" class="fil59" d="M19319 3613c0,5 0,9 0,12 -1,3 -1,6 -2,8 -1,2 -2,3 -3,4 -1,1 -3,1 -4,1l-160 0c-5,0 -9,-1 -13,-5 -4,-3 -6,-8 -6,-15l0 -277c0,-7 2,-13 6,-16 4,-3 8,-5 13,-5l159 0c2,0 3,1 4,2 1,0 2,2 3,4 1,2 1,5 2,8 0,3 0,7 0,12 0,5 0,8 0,12 -1,3 -1,6 -2,7 -1,2 -2,4 -3,5 -1,1 -2,1 -4,1l-113 0 0 78 95 0c2,0 3,0 4,1 2,1 3,2 3,4 1,2 2,5 2,8 1,3 1,7 1,11 0,5 0,9 -1,12 0,3 -1,6 -2,8 0,2 -1,3 -3,4 -1,0 -2,1 -4,1l-95 0 0 89 114 0c1,0 3,1 4,2 1,1 2,2 3,4 1,2 1,5 2,8 0,3 0,7 0,12z"/>
  <path id="4" class="fil59" d="M19632 3630c0,2 0,3 -1,4 -1,2 -2,3 -4,4 -3,0 -7,1 -11,1 -5,1 -12,1 -20,1 -7,0 -12,0 -16,-1 -4,0 -7,-1 -10,-2 -2,-1 -4,-2 -5,-3 -1,-1 -2,-3 -2,-5l-29 -71c-3,-8 -7,-16 -10,-22 -3,-6 -7,-11 -11,-15 -4,-5 -9,-8 -14,-10 -5,-2 -11,-3 -18,-3l-20 0 0 121c0,2 -1,4 -2,5 -1,1 -3,2 -5,3 -3,1 -6,1 -10,2 -4,0 -9,1 -16,1 -6,0 -11,-1 -15,-1 -4,-1 -8,-1 -10,-2 -3,-1 -4,-2 -5,-3 -1,-1 -2,-3 -2,-5l0 -288c0,-7 2,-13 6,-16 3,-3 8,-5 13,-5l83 0c8,0 15,1 20,1 6,0 11,1 15,1 13,2 24,5 35,9 10,5 18,11 26,18 7,7 12,15 16,25 4,10 6,21 6,33 0,11 -2,21 -4,29 -3,9 -7,17 -12,24 -6,7 -12,13 -20,18 -8,5 -16,9 -26,12 5,2 9,5 13,8 4,4 8,8 12,12 4,5 7,10 11,16 3,6 6,13 9,21l27 62c2,7 4,11 5,14 1,3 1,5 1,7zm-83 -216c0,-10 -3,-19 -7,-26 -5,-8 -13,-13 -24,-16 -3,0 -7,-1 -11,-2 -4,0 -10,0 -17,0l-29 0 0 90 33 0c9,0 17,-1 24,-4 7,-2 12,-5 17,-9 5,-4 8,-9 10,-14 2,-6 4,-12 4,-19z"/>
  <path class="fil59" d="M18192 4943c0,17 -4,31 -10,44 -6,13 -14,23 -25,32 -11,8 -23,14 -37,19 -15,4 -30,6 -46,6 -11,0 -21,-1 -31,-3 -9,-2 -17,-4 -25,-6 -7,-3 -13,-6 -18,-9 -5,-2 -8,-5 -10,-7 -2,-2 -4,-5 -5,-9 -1,-4 -1,-10 -1,-18 0,-5 0,-9 0,-12 1,-4 1,-6 2,-9 1,-2 2,-3 3,-4 1,-1 3,-2 4,-2 3,0 6,2 10,5 4,2 10,5 16,9 7,3 14,6 24,9 9,2 19,4 31,4 8,0 15,-1 21,-3 7,-2 12,-5 16,-8 5,-4 8,-8 10,-13 3,-5 4,-10 4,-17 0,-7 -2,-13 -6,-18 -4,-5 -9,-10 -16,-14 -6,-4 -13,-8 -21,-11 -8,-4 -16,-7 -25,-11 -9,-4 -17,-9 -25,-14 -8,-5 -15,-11 -21,-18 -7,-7 -12,-15 -16,-24 -4,-10 -6,-21 -6,-34 0,-16 3,-29 9,-41 5,-11 13,-21 23,-28 9,-8 21,-14 34,-17 13,-4 26,-6 41,-6 7,0 15,1 22,2 8,1 15,2 22,4 6,2 12,5 17,7 5,3 8,5 10,6 2,2 3,3 3,4 1,1 1,3 2,5 0,2 1,4 1,7 0,3 0,6 0,11 0,4 0,8 0,12 -1,3 -1,6 -2,8 0,2 -1,4 -2,4 -1,1 -3,2 -4,2 -2,0 -5,-1 -9,-3 -4,-3 -9,-5 -14,-8 -6,-3 -13,-5 -20,-7 -8,-3 -16,-4 -25,-4 -7,0 -13,1 -19,3 -5,2 -9,4 -13,7 -3,3 -6,7 -8,11 -1,4 -2,9 -2,13 0,7 2,14 6,19 3,5 9,10 15,14 7,3 14,7 22,11 8,3 17,7 25,11 9,4 17,8 25,13 8,5 16,11 22,18 7,7 12,15 16,25 4,9 6,20 6,33z"/>
  <path id="1" class="fil59" d="M18508 5030c0,1 0,3 -1,4 -1,1 -3,2 -6,3 -2,1 -5,2 -9,2 -4,1 -10,1 -16,1 -6,0 -11,0 -16,-1 -4,0 -7,-1 -9,-2 -3,-1 -4,-2 -6,-3 -1,-1 -1,-3 -1,-4l0 -129 -119 0 0 129c0,1 -1,3 -2,4 -1,1 -3,2 -5,3 -2,1 -6,2 -10,2 -4,1 -9,1 -15,1 -7,0 -12,0 -16,-1 -4,0 -7,-1 -10,-2 -2,-1 -4,-2 -5,-3 -1,-1 -2,-3 -2,-4l0 -301c0,-1 1,-3 2,-4 1,-1 3,-2 5,-3 3,-1 6,-2 10,-2 4,-1 9,-1 16,-1 6,0 11,0 15,1 4,0 8,1 10,2 2,1 4,2 5,3 1,1 2,3 2,4l0 117 119 0 0 -117c0,-1 0,-3 1,-4 2,-1 3,-2 6,-3 2,-1 5,-2 9,-2 5,-1 10,-1 16,-1 6,0 12,0 16,1 4,0 7,1 9,2 3,1 5,2 6,3 1,1 1,3 1,4l0 301z"/>
  <path id="2" class="fil59" d="M18662 5030c0,1 0,3 -1,4 -2,1 -3,2 -6,3 -2,1 -6,2 -10,2 -4,1 -9,1 -15,1 -7,0 -12,0 -16,-1 -4,0 -7,-1 -10,-2 -2,-1 -4,-2 -5,-3 -1,-1 -2,-3 -2,-4l0 -301c0,-1 1,-3 2,-4 1,-1 3,-2 5,-3 3,-1 6,-2 10,-2 4,-1 9,-1 16,-1 6,0 11,0 15,1 4,0 8,1 10,2 3,1 4,2 6,3 1,1 1,3 1,4l0 301z"/>
  <path id="3" class="fil59" d="M18929 4747c0,5 0,9 0,12 -1,4 -1,6 -2,8 -1,2 -2,4 -3,5 -1,1 -3,1 -4,1l-104 0 0 86 97 0c2,0 3,0 4,1 2,1 3,2 4,4 0,2 1,5 1,8 1,3 1,7 1,12 0,5 0,9 -1,13 0,3 -1,6 -1,8 -1,2 -2,3 -4,4 -1,1 -2,2 -4,2l-97 0 0 118c0,2 -1,3 -2,5 -1,1 -2,2 -5,3 -2,1 -6,2 -10,2 -4,1 -9,1 -16,1 -6,0 -11,0 -15,-1 -4,0 -8,-1 -10,-2 -3,-1 -4,-2 -5,-3 -2,-2 -2,-3 -2,-5l0 -288c0,-7 2,-12 5,-16 4,-3 9,-4 14,-4l150 0c1,0 3,0 4,1 1,1 2,2 3,4 1,2 1,5 2,9 0,3 0,7 0,12z"/>
  <path id="4" class="fil59" d="M19213 4747c0,5 -1,9 -1,12 0,4 -1,6 -2,8 -1,2 -2,4 -3,5 -1,1 -3,1 -4,1l-79 0 0 257c0,1 -1,3 -2,4 -1,1 -3,2 -5,3 -3,1 -6,2 -10,2 -4,1 -10,1 -16,1 -6,0 -11,0 -15,-1 -5,0 -8,-1 -10,-2 -3,-1 -5,-2 -6,-3 -1,-1 -1,-3 -1,-4l0 -257 -80 0c-1,0 -3,0 -4,-1 -1,-1 -2,-3 -3,-5 -1,-2 -1,-4 -2,-8 0,-3 0,-7 0,-12 0,-5 0,-9 0,-12 1,-4 1,-7 2,-9 1,-2 2,-3 3,-4 1,-1 3,-1 4,-1l224 0c1,0 3,0 4,1 1,1 2,2 3,4 1,2 2,5 2,9 0,3 1,7 1,12z"/>
  <path class="fil59" d="M967 4943c0,17 -3,31 -9,44 -6,13 -15,23 -25,32 -11,8 -23,14 -38,19 -14,4 -29,6 -45,6 -11,0 -22,-1 -31,-3 -9,-2 -18,-4 -25,-6 -7,-3 -13,-6 -18,-9 -5,-2 -8,-5 -11,-7 -2,-2 -3,-5 -4,-9 -1,-4 -1,-10 -1,-18 0,-5 0,-9 0,-12 0,-4 1,-6 2,-9 0,-2 1,-3 3,-4 1,-1 2,-2 4,-2 2,0 6,2 10,5 4,2 9,5 16,9 6,3 14,6 23,9 9,2 20,4 32,4 8,0 15,-1 21,-3 6,-2 12,-5 16,-8 4,-4 8,-8 10,-13 2,-5 3,-10 3,-17 0,-7 -2,-13 -5,-18 -4,-5 -9,-10 -16,-14 -6,-4 -13,-8 -21,-11 -8,-4 -17,-7 -25,-11 -9,-4 -17,-9 -25,-14 -8,-5 -15,-11 -22,-18 -6,-7 -11,-15 -15,-24 -4,-10 -6,-21 -6,-34 0,-16 3,-29 9,-41 5,-11 13,-21 22,-28 10,-8 21,-14 34,-17 13,-4 27,-6 42,-6 7,0 15,1 22,2 8,1 15,2 21,4 7,2 13,5 18,7 5,3 8,5 10,6 1,2 3,3 3,4 1,1 1,3 2,5 0,2 0,4 0,7 1,3 1,6 1,11 0,4 0,8 -1,12 0,3 0,6 -1,8 0,2 -1,4 -2,4 -1,1 -3,2 -5,2 -1,0 -4,-1 -8,-4 -4,-2 -9,-4 -15,-7 -6,-3 -12,-5 -20,-7 -7,-3 -15,-4 -24,-4 -8,0 -14,1 -19,3 -5,2 -9,4 -13,7 -4,3 -6,7 -8,11 -2,4 -2,9 -2,13 0,7 1,14 5,19 4,5 9,10 16,14 6,3 14,7 22,11 8,3 16,7 25,11 8,4 17,8 25,13 8,5 15,11 22,18 6,7 12,15 15,25 4,9 6,20 6,33z"/>
  <path id="1" class="fil59" d="M1284 5030c0,1 -1,3 -2,4 -1,1 -2,2 -5,3 -2,1 -6,2 -10,2 -4,1 -9,1 -15,1 -6,0 -12,0 -16,-1 -4,0 -7,-1 -10,-2 -2,-1 -4,-2 -5,-3 -1,-1 -1,-3 -1,-4l0 -129 -120 0 0 129c0,1 0,3 -1,4 -1,1 -3,2 -5,3 -3,1 -6,2 -10,2 -4,1 -9,1 -16,1 -6,0 -11,0 -15,-1 -4,0 -8,-1 -10,-2 -3,-1 -4,-2 -5,-3 -1,-1 -2,-3 -2,-4l0 -301c0,-1 1,-3 2,-4 1,-1 2,-2 5,-3 2,-1 6,-2 10,-2 4,-1 9,-1 15,-1 7,0 12,0 16,1 4,0 7,1 10,2 2,1 4,2 5,3 1,1 1,3 1,4l0 117 120 0 0 -117c0,-1 0,-3 1,-4 1,-1 3,-2 5,-3 3,-1 6,-2 10,-2 4,-1 10,-1 16,-1 6,0 11,0 15,1 4,0 8,1 10,2 3,1 4,2 5,3 1,1 2,3 2,4l0 301z"/>
  <path id="2" class="fil59" d="M1438 5030c0,1 -1,3 -2,4 -1,1 -3,2 -5,3 -2,1 -6,2 -10,2 -4,1 -9,1 -16,1 -6,0 -11,0 -15,-1 -4,0 -8,-1 -10,-2 -3,-1 -4,-2 -5,-3 -2,-1 -2,-3 -2,-4l0 -301c0,-1 0,-3 2,-4 1,-1 2,-2 5,-3 3,-1 6,-2 10,-2 4,-1 9,-1 15,-1 7,0 12,0 16,1 4,0 8,1 10,2 2,1 4,2 5,3 1,1 2,3 2,4l0 301z"/>
  <path id="3" class="fil59" d="M1705 4747c0,5 0,9 0,12 -1,4 -1,6 -2,8 -1,2 -2,4 -3,5 -2,1 -3,1 -4,1l-104 0 0 86 97 0c2,0 3,0 4,1 1,1 2,2 3,4 1,2 2,5 2,8 1,3 1,7 1,12 0,5 0,9 -1,13 0,3 -1,6 -2,8 -1,2 -2,3 -3,4 -1,1 -2,2 -4,2l-97 0 0 118c0,2 -1,3 -2,5 -1,1 -3,2 -5,3 -3,1 -6,2 -10,2 -4,1 -9,1 -16,1 -6,0 -11,0 -15,-1 -5,0 -8,-1 -10,-2 -3,-1 -5,-2 -6,-3 -1,-2 -1,-3 -1,-5l0 -288c0,-7 2,-12 5,-16 4,-3 8,-4 14,-4l150 0c1,0 2,0 4,1 1,1 2,2 3,4 1,2 1,5 2,9 0,3 0,7 0,12z"/>
  <path id="4" class="fil59" d="M1988 4747c0,5 0,9 0,12 -1,4 -1,6 -2,8 -1,2 -2,4 -3,5 -1,1 -3,1 -4,1l-80 0 0 257c0,1 0,3 -1,4 -1,1 -3,2 -6,3 -2,1 -5,2 -9,2 -5,1 -10,1 -16,1 -6,0 -11,0 -16,-1 -4,0 -7,-1 -10,-2 -2,-1 -4,-2 -5,-3 -1,-1 -2,-3 -2,-4l0 -257 -79 0c-2,0 -3,0 -4,-1 -1,-1 -2,-3 -3,-5 -1,-2 -2,-4 -2,-8 0,-3 -1,-7 -1,-12 0,-5 1,-9 1,-12 0,-4 1,-7 2,-9 1,-2 2,-3 3,-4 1,-1 2,-1 4,-1l224 0c1,0 3,0 4,1 1,1 2,2 3,4 1,2 1,5 2,9 0,3 0,7 0,12z"/>
  <path class="fil59" d="M850 6174c0,4 0,7 -1,10 0,3 0,5 -1,7 0,3 -1,4 -2,6 -1,1 -2,3 -4,5 -2,2 -5,4 -10,7 -5,3 -12,6 -19,8 -8,3 -16,5 -26,7 -9,2 -20,3 -31,3 -21,0 -41,-4 -59,-10 -17,-7 -32,-17 -44,-30 -13,-14 -22,-30 -28,-50 -7,-20 -10,-44 -10,-70 0,-27 3,-51 11,-72 7,-21 17,-39 30,-53 13,-14 28,-25 46,-32 18,-8 38,-11 60,-11 9,0 17,1 26,2 8,1 15,3 22,6 7,2 13,5 19,8 6,3 9,6 12,8 2,2 3,4 4,6 1,1 2,3 2,5 1,3 1,5 1,8 1,3 1,7 1,12 0,5 -1,9 -1,12 0,4 -1,7 -2,9 0,2 -1,3 -2,4 -2,1 -3,2 -4,2 -3,0 -6,-2 -10,-5 -4,-2 -8,-6 -14,-9 -6,-4 -13,-7 -22,-10 -8,-3 -18,-4 -29,-4 -13,0 -24,3 -34,8 -10,5 -18,12 -25,22 -7,9 -12,21 -16,35 -4,13 -5,28 -5,45 0,19 2,35 5,49 4,13 10,25 17,34 7,8 16,15 26,19 10,5 21,7 34,7 11,0 21,-2 29,-4 9,-3 16,-6 22,-9 6,-3 10,-6 14,-9 4,-2 7,-4 9,-4 2,0 3,1 4,1 1,1 2,2 3,4 0,2 1,5 1,8 0,4 1,9 1,15z"/>
  <path id="1" class="fil59" d="M1127 5930c0,5 0,9 -1,13 0,3 -1,6 -2,8 0,2 -1,3 -3,4 -1,1 -2,2 -4,2l-79 0 0 256c0,1 -1,3 -2,4 -1,2 -3,3 -5,3 -2,1 -6,2 -10,2 -4,1 -9,1 -16,1 -6,0 -11,0 -15,-1 -4,0 -8,-1 -10,-2 -3,0 -4,-1 -5,-3 -1,-1 -2,-3 -2,-4l0 -256 -79 0c-2,0 -3,-1 -5,-2 -1,-1 -2,-2 -3,-4 0,-2 -1,-5 -1,-8 -1,-4 -1,-8 -1,-13 0,-5 0,-9 1,-12 0,-4 1,-6 1,-8 1,-3 2,-4 3,-5 2,-1 3,-1 5,-1l223 0c2,0 3,0 4,1 2,1 3,2 3,5 1,2 2,4 2,8 1,3 1,7 1,12z"/>
  <path id="2" class="fil59" d="M1372 6196c0,5 0,9 0,12 -1,3 -1,6 -2,8 -1,2 -2,3 -3,4 -1,1 -3,2 -4,2l-160 0c-5,0 -9,-2 -13,-5 -4,-3 -6,-9 -6,-16l0 -277c0,-7 2,-12 6,-15 4,-4 8,-5 13,-5l159 0c1,0 3,0 4,1 1,1 2,2 3,4 1,2 1,5 2,8 0,3 0,7 0,12 0,5 0,9 0,12 -1,3 -1,6 -2,8 -1,2 -2,3 -3,4 -1,1 -3,2 -4,2l-113 0 0 77 95 0c2,0 3,0 4,1 1,1 3,3 3,5 1,1 2,4 2,7 1,3 1,7 1,12 0,5 0,8 -1,12 0,3 -1,5 -2,7 0,2 -2,3 -3,4 -1,1 -2,1 -4,1l-95 0 0 90 114 0c1,0 3,0 4,1 1,1 2,3 3,5 1,1 1,4 2,7 0,4 0,7 0,12z"/>
  <path id="3" class="fil59" d="M1667 6000c0,18 -3,34 -8,48 -6,14 -14,25 -25,35 -10,9 -23,16 -39,21 -16,5 -34,7 -55,7l-26 0 0 102c0,1 -1,3 -2,4 -1,2 -3,3 -5,3 -3,1 -6,2 -10,2 -4,1 -9,1 -16,1 -6,0 -11,0 -15,-1 -4,0 -8,-1 -10,-2 -3,0 -4,-1 -5,-3 -1,-1 -2,-3 -2,-4l0 -286c0,-8 2,-14 6,-17 4,-4 10,-6 16,-6l75 0c8,0 15,0 22,1 6,0 15,1 24,3 10,2 19,6 29,11 10,5 18,11 25,19 7,8 12,17 16,27 3,11 5,22 5,35zm-67 5c0,-11 -2,-20 -6,-28 -4,-7 -9,-12 -15,-16 -6,-3 -12,-5 -18,-6 -6,-1 -13,-1 -20,-1l-27 0 0 108 29 0c10,0 19,-2 26,-4 7,-3 13,-7 17,-12 4,-5 8,-11 10,-18 2,-7 4,-15 4,-23z"/>
  <path id="4" class="fil59" d="M1925 6196c0,5 -1,9 -1,12 0,3 -1,6 -2,8 -1,2 -2,3 -3,4 -1,1 -2,2 -4,2l-159 0c-6,0 -10,-2 -14,-5 -4,-3 -5,-9 -5,-16l0 -277c0,-7 1,-12 5,-15 4,-4 8,-5 14,-5l158 0c2,0 3,0 4,1 1,1 2,2 3,4 1,2 2,5 2,8 0,3 1,7 1,12 0,5 -1,9 -1,12 0,3 -1,6 -2,8 -1,2 -2,3 -3,4 -1,1 -2,2 -4,2l-113 0 0 77 95 0c2,0 3,0 5,1 1,1 2,3 3,5 0,1 1,4 1,7 1,3 1,7 1,12 0,5 0,8 -1,12 0,3 -1,5 -1,7 -1,2 -2,3 -3,4 -2,1 -3,1 -5,1l-95 0 0 90 114 0c2,0 3,0 4,1 1,1 2,3 3,5 1,1 2,4 2,7 0,4 1,7 1,12z"/>
  <path id="5" class="fil59" d="M2191 5930c0,5 0,9 0,13 -1,3 -1,6 -2,8 -1,2 -2,3 -3,4 -1,1 -3,2 -4,2l-80 0 0 256c0,1 0,3 -1,4 -1,2 -3,3 -6,3 -2,1 -5,2 -9,2 -5,1 -10,1 -16,1 -6,0 -11,0 -16,-1 -4,0 -7,-1 -10,-2 -2,0 -4,-1 -5,-3 -1,-1 -2,-3 -2,-4l0 -256 -79 0c-2,0 -3,-1 -4,-2 -1,-1 -2,-2 -3,-4 -1,-2 -2,-5 -2,-8 0,-4 -1,-8 -1,-13 0,-5 1,-9 1,-12 0,-4 1,-6 2,-8 1,-3 2,-4 3,-5 1,-1 2,-1 4,-1l224 0c1,0 3,0 4,1 1,1 2,2 3,5 1,2 1,4 2,8 0,3 0,7 0,12z"/>
  <path id="6" class="fil59" d="M2483 6116c0,15 -3,29 -7,42 -5,12 -12,23 -22,33 -10,9 -23,17 -39,22 -17,6 -39,9 -67,9l-79 0c-3,0 -6,-1 -8,-1 -2,-1 -5,-2 -6,-4 -2,-2 -4,-4 -5,-7 -1,-2 -1,-5 -1,-9l0 -289c0,-2 0,-3 1,-4 1,-1 3,-2 6,-3 2,-1 6,-2 10,-2 4,-1 9,-1 15,-1 6,0 12,0 16,1 4,0 7,1 10,2 2,1 4,2 5,3 1,1 1,2 1,4l0 108 45 0c24,0 43,3 57,7 14,4 27,10 37,18 9,8 17,19 22,30 6,12 9,26 9,41zm-67 6c0,-8 -1,-15 -3,-22 -3,-6 -6,-11 -11,-16 -5,-4 -11,-7 -18,-10 -8,-2 -19,-3 -33,-3l-38 0 0 100 39 0c15,0 27,-1 34,-4 8,-3 14,-7 18,-12 4,-5 8,-10 9,-16 2,-6 3,-12 3,-17z"/>
  <path class="fil59" d="M1473 6544c0,11 -1,22 -4,31 -3,9 -8,17 -13,24 -6,7 -12,13 -20,18 -7,5 -16,9 -25,13 -9,3 -19,6 -29,7 -11,2 -22,2 -35,2l-84 0c-6,0 -10,-1 -14,-4 -4,-4 -5,-9 -5,-16l0 -277c0,-7 1,-12 5,-16 4,-3 8,-4 14,-4l79 0c20,0 36,1 50,5 13,3 24,8 34,14 9,7 16,15 21,25 5,11 7,23 7,36 0,8 -1,15 -3,22 -2,7 -4,13 -8,19 -4,5 -9,10 -14,14 -6,5 -12,8 -19,11 9,1 18,4 25,8 8,4 14,10 20,16 6,7 10,14 13,23 4,8 5,18 5,29zm-83 -134c0,-6 -1,-12 -3,-17 -2,-5 -5,-9 -9,-13 -4,-3 -9,-6 -15,-7 -6,-2 -14,-3 -24,-3l-32 0 0 82 36 0c9,0 17,-1 22,-3 6,-2 10,-5 14,-9 4,-4 6,-8 8,-14 2,-5 3,-10 3,-16zm17 136c0,-7 -2,-14 -4,-20 -3,-5 -6,-10 -11,-14 -5,-4 -11,-7 -18,-9 -7,-2 -17,-3 -29,-3l-38 0 0 90 47 0c9,0 16,-1 22,-3 6,-2 12,-4 16,-8 5,-4 8,-8 11,-14 2,-5 4,-12 4,-19z"/>
  <path id="1" class="fil59" d="M1744 6591c0,4 0,8 0,11 -1,3 -1,5 -2,7 0,2 -1,4 -1,6 -1,1 -3,3 -4,5 -2,1 -6,4 -11,7 -5,3 -11,5 -19,8 -7,3 -16,5 -25,7 -10,1 -20,2 -31,2 -22,0 -42,-3 -59,-10 -18,-6 -33,-16 -45,-30 -12,-13 -22,-30 -28,-50 -7,-20 -10,-43 -10,-69 0,-27 4,-51 11,-72 7,-21 17,-39 30,-53 13,-14 29,-25 47,-32 18,-8 38,-11 59,-11 9,0 18,0 26,2 8,1 16,3 23,6 7,2 13,5 18,8 6,3 10,6 12,8 2,2 4,4 5,5 0,2 1,4 1,6 1,2 1,5 2,8 0,3 0,7 0,12 0,4 0,9 -1,12 0,4 0,6 -1,8 -1,2 -2,4 -3,5 -1,1 -3,2 -4,2 -3,0 -6,-2 -9,-5 -4,-3 -9,-6 -15,-9 -6,-4 -13,-7 -21,-10 -9,-3 -18,-4 -30,-4 -12,0 -24,2 -34,8 -9,5 -18,12 -25,22 -7,9 -12,21 -16,34 -3,14 -5,29 -5,46 0,19 2,35 6,49 4,13 9,25 16,33 7,9 16,16 26,20 10,4 21,7 34,7 11,0 21,-2 30,-4 8,-3 15,-6 21,-9 6,-4 11,-6 15,-9 4,-3 7,-4 9,-4 1,0 3,0 4,1 1,1 1,2 2,4 1,2 1,5 1,8 1,4 1,8 1,14z"/>
  <path id="2" class="fil59" d="M1998 6614c0,5 0,9 0,12 -1,3 -1,6 -2,8 -1,2 -2,3 -3,4 -2,1 -3,1 -4,1l-160 0c-5,0 -10,-1 -13,-4 -4,-4 -6,-9 -6,-16l0 -277c0,-7 2,-12 6,-16 3,-3 8,-4 13,-4l159 0c1,0 3,0 4,1 1,1 2,2 3,4 0,2 1,5 2,8 0,3 0,7 0,12 0,5 0,9 0,12 -1,3 -1,6 -2,8 -1,2 -2,3 -3,4 -1,1 -3,1 -4,1l-114 0 0 78 96 0c1,0 3,0 4,1 1,1 2,2 3,4 1,2 1,5 2,8 0,3 1,7 1,12 0,4 -1,8 -1,11 -1,3 -1,6 -2,8 -1,2 -2,3 -3,4 -1,1 -3,1 -4,1l-96 0 0 90 115 0c1,0 2,0 4,1 1,1 2,2 3,4 1,2 1,5 2,8 0,3 0,7 0,12z"/>
  <path class="fil59" d="M17216 6098c0,12 -2,22 -5,31 -3,9 -7,17 -13,24 -5,7 -12,13 -19,19 -8,5 -16,9 -26,12 -9,3 -18,6 -29,7 -10,2 -22,3 -35,3l-84 0c-5,0 -10,-2 -14,-5 -3,-3 -5,-9 -5,-16l0 -277c0,-7 2,-12 5,-15 4,-4 9,-5 14,-5l80 0c19,0 36,1 49,5 14,3 25,8 34,15 9,6 16,15 21,25 5,10 8,22 8,36 0,7 -1,14 -3,21 -2,7 -5,13 -9,19 -4,5 -8,10 -14,15 -5,4 -11,7 -18,10 9,2 17,4 25,8 7,5 14,10 19,16 6,7 11,14 14,23 3,9 5,18 5,29zm-84 -134c0,-6 -1,-12 -3,-17 -2,-5 -5,-9 -8,-13 -4,-3 -9,-5 -15,-7 -6,-2 -14,-3 -24,-3l-33 0 0 83 36 0c10,0 17,-2 23,-4 5,-2 10,-5 13,-9 4,-4 7,-8 9,-13 1,-6 2,-11 2,-17zm17 137c0,-8 -1,-14 -4,-20 -2,-6 -6,-11 -11,-15 -4,-4 -10,-7 -18,-9 -7,-2 -17,-3 -29,-3l-38 0 0 90 47 0c9,0 16,-1 23,-2 6,-2 11,-5 16,-9 4,-4 7,-8 10,-14 3,-5 4,-11 4,-18z"/>
  <path id="1" class="fil59" d="M17620 6185c0,2 -1,3 -2,5 -1,1 -3,2 -5,3 -2,0 -6,1 -10,2 -4,0 -9,0 -16,0 -6,0 -11,0 -15,0 -4,-1 -7,-2 -10,-2 -3,-1 -4,-2 -5,-3 -1,-2 -2,-3 -2,-5l0 -301c0,-1 1,-3 2,-4 1,-1 2,-2 5,-3 3,-1 6,-2 10,-2 4,-1 9,-1 15,-1 7,0 12,0 16,1 4,0 8,1 10,2 2,1 4,2 5,3 1,1 2,3 2,4l0 301zm-104 -96c0,15 -2,29 -7,41 -4,13 -12,24 -22,33 -10,9 -23,17 -39,22 -16,6 -38,9 -66,9l-75 0c-2,0 -5,-1 -7,-1 -3,-1 -5,-2 -7,-4 -1,-2 -3,-4 -4,-6 -1,-3 -2,-6 -2,-10l0 -289c0,-1 1,-3 2,-4 1,-1 3,-2 5,-3 3,-1 6,-2 10,-2 5,-1 10,-1 16,-1 6,0 11,0 15,1 5,0 8,1 10,2 3,1 4,2 5,3 1,1 2,3 2,4l0 110 40 0c24,0 43,2 57,6 14,4 26,10 36,18 10,8 18,18 23,30 6,12 8,26 8,41zm-66 5c0,-8 -1,-15 -4,-21 -2,-6 -5,-11 -10,-16 -5,-4 -11,-8 -18,-10 -8,-2 -19,-4 -33,-4l-33 0 0 101 34 0c15,0 26,-2 34,-5 8,-3 14,-7 18,-11 4,-5 7,-11 9,-16 2,-6 3,-12 3,-18z"/>
  <path id="2" class="fil59" d="M18002 6268c0,2 -1,3 -2,4 0,2 -2,3 -4,3 -2,1 -5,2 -8,2 -4,0 -9,1 -14,1 -6,0 -10,-1 -14,-1 -4,0 -6,-1 -9,-2 -2,0 -3,-1 -4,-2 -1,-2 -2,-3 -2,-5l0 -74 -211 0 0 74c0,2 -1,3 -2,5 -1,1 -2,2 -4,2 -3,1 -5,2 -9,2 -4,0 -8,1 -14,1 -5,0 -10,-1 -14,-1 -3,0 -6,-1 -8,-2 -3,0 -4,-1 -5,-3 -1,-1 -1,-2 -1,-4l0 -114c0,-5 0,-8 2,-10 2,-2 6,-3 10,-3l14 0c4,-6 8,-11 12,-17 3,-6 7,-13 10,-21 3,-8 6,-18 10,-29 3,-11 6,-25 9,-41 3,-17 6,-36 9,-58 4,-22 7,-48 10,-78 1,-7 3,-13 6,-16 3,-4 7,-5 13,-5l162 0c6,0 10,1 14,5 3,3 5,8 5,15l0 245 27 0c4,0 7,1 9,3 2,3 3,6 3,10l0 114zm-104 -340l-74 0c-3,25 -6,47 -9,66 -2,19 -5,35 -8,49 -3,15 -6,27 -9,37 -3,10 -6,19 -9,27 -3,7 -6,14 -10,19 -3,6 -6,10 -10,15l129 0 0 -213z"/>
  <path id="3" class="fil59" d="M18255 6168c0,5 -1,9 -1,12 0,3 -1,6 -2,8 -1,2 -2,3 -3,4 -1,1 -3,2 -4,2l-159 0c-6,0 -10,-2 -14,-5 -4,-3 -5,-9 -5,-16l0 -277c0,-7 1,-12 5,-15 4,-4 8,-5 14,-5l158 0c2,0 3,0 4,1 1,1 2,2 3,4 1,2 2,5 2,8 0,4 1,8 1,12 0,5 -1,9 -1,12 0,3 -1,6 -2,8 -1,2 -2,3 -3,4 -1,1 -2,2 -4,2l-113 0 0 77 95 0c2,0 3,0 4,1 2,1 3,3 4,5 0,1 1,4 1,7 1,3 1,7 1,12 0,5 0,9 -1,12 0,3 -1,5 -1,7 -1,2 -2,3 -4,4 -1,1 -2,1 -4,1l-95 0 0 90 114 0c2,0 3,0 4,1 1,1 2,3 3,5 1,1 2,4 2,7 0,4 1,7 1,12z"/>
  <path id="4" class="fil59" d="M18553 6185c0,2 0,3 -1,5 -1,1 -3,2 -5,3 -3,0 -6,1 -10,2 -5,0 -10,0 -16,0 -6,0 -12,0 -16,0 -4,-1 -7,-2 -10,-2 -2,-1 -4,-2 -5,-3 -1,-2 -1,-3 -1,-5l0 -256 -68 0c-5,37 -9,70 -14,98 -5,28 -10,52 -15,72 -6,20 -12,36 -18,49 -7,13 -14,23 -22,31 -9,7 -18,12 -29,15 -10,3 -22,4 -35,4 -3,0 -5,0 -7,-1 -1,0 -3,-2 -4,-4 -1,-1 -2,-4 -2,-7 -1,-3 -1,-8 -1,-13 0,-7 0,-12 1,-17 0,-4 0,-7 1,-10 1,-2 2,-4 4,-4 1,-1 2,-2 4,-2 5,0 10,-1 15,-3 4,-2 9,-6 13,-12 5,-6 9,-14 13,-25 4,-11 8,-26 12,-44 4,-18 7,-40 11,-66 4,-25 8,-56 12,-92 1,-8 3,-14 6,-17 3,-4 7,-5 13,-5l156 0c6,0 10,1 13,5 4,3 5,8 5,15l0 289z"/>
  <path id="5" class="fil59" d="M18901 6185c0,2 -1,3 -2,5 -1,1 -3,2 -5,3 -3,0 -6,1 -10,2 -4,0 -10,0 -16,0 -6,0 -11,0 -15,0 -5,-1 -8,-2 -10,-2 -3,-1 -4,-2 -5,-3 -1,-2 -2,-3 -2,-5l0 -167c0,-7 0,-13 1,-19 0,-6 0,-12 0,-16l0 0c-2,2 -3,5 -5,8 -2,3 -4,6 -6,9 -2,4 -4,7 -6,11 -3,3 -5,6 -7,10l-110 165c-2,1 -3,3 -5,4 -1,2 -3,3 -5,3 -2,1 -5,2 -8,2 -3,0 -7,0 -12,0 -7,0 -12,0 -16,0 -4,-1 -7,-2 -9,-2 -2,-1 -4,-2 -5,-3 0,-2 -1,-3 -1,-5l0 -301c0,-1 1,-3 2,-4 1,-1 3,-2 5,-3 3,-1 6,-2 10,-2 4,-1 9,-1 16,-1 6,0 11,0 15,1 4,0 7,1 10,2 2,1 4,2 5,3 1,1 2,3 2,4l0 169c0,5 -1,10 -1,16 0,6 0,12 0,18l0 0c3,-5 6,-11 11,-18 4,-7 8,-14 13,-20l110 -165c2,-2 3,-3 4,-4 2,-2 3,-3 5,-4 3,0 5,-1 9,-1 3,-1 7,-1 12,-1 6,0 11,0 15,1 4,0 7,1 10,2 2,1 3,2 4,3 1,1 2,3 2,4l0 301z"/>
  <path id="6" class="fil59" d="M19201 5902c0,5 0,9 -1,13 0,3 -1,6 -2,8 0,2 -1,3 -3,4 -1,1 -2,2 -4,2l-79 0 0 256c0,1 -1,3 -2,4 -1,2 -3,3 -5,3 -2,1 -6,2 -10,2 -4,1 -9,1 -16,1 -6,0 -11,0 -15,-1 -4,0 -8,-1 -10,-2 -3,0 -4,-1 -5,-3 -2,-1 -2,-3 -2,-4l0 -256 -79 0c-2,0 -3,-1 -5,-2 -1,-1 -2,-2 -3,-4 0,-2 -1,-5 -1,-8 -1,-4 -1,-8 -1,-13 0,-5 0,-9 1,-12 0,-4 1,-6 1,-8 1,-2 2,-4 3,-5 2,-1 3,-1 5,-1l223 0c2,0 3,0 4,1 2,1 3,3 3,5 1,2 2,4 2,8 1,3 1,7 1,12z"/>
  <path id="7" class="fil59" d="M19492 6088c0,15 -2,29 -7,42 -4,12 -11,23 -21,33 -11,9 -24,17 -40,22 -16,6 -38,9 -66,9l-80 0c-3,0 -5,-1 -8,-1 -2,-1 -4,-2 -6,-4 -2,-2 -3,-4 -4,-6 -1,-3 -2,-6 -2,-10l0 -289c0,-1 1,-3 2,-4 1,-1 3,-2 5,-3 3,-1 6,-2 10,-2 4,-1 10,-1 16,-1 6,0 11,0 15,1 4,0 8,1 10,2 2,1 4,2 5,3 1,1 2,3 2,4l0 108 44 0c24,0 44,3 58,7 14,4 26,10 36,18 10,9 18,19 23,30 5,12 8,26 8,41zm-66 6c0,-8 -1,-15 -4,-22 -2,-6 -6,-11 -10,-16 -5,-4 -11,-7 -19,-10 -7,-2 -18,-3 -33,-3l-37 0 0 100 38 0c16,0 27,-1 35,-4 7,-3 13,-7 18,-12 4,-5 7,-10 9,-16 2,-6 3,-12 3,-17z"/>
  <path class="fil59" d="M18092 6564c0,11 -2,21 -5,31 -3,9 -7,17 -13,24 -5,7 -12,13 -20,18 -7,5 -16,9 -25,13 -9,3 -19,5 -29,7 -10,2 -22,2 -35,2l-84 0c-5,0 -10,-1 -14,-4 -3,-4 -5,-9 -5,-16l0 -277c0,-7 2,-13 5,-16 4,-3 9,-5 14,-5l80 0c19,0 35,2 49,5 13,4 25,9 34,15 9,7 16,15 21,25 5,11 7,22 7,36 0,8 -1,15 -2,22 -2,7 -5,13 -9,18 -4,6 -8,11 -14,15 -5,4 -12,8 -19,10 9,2 18,5 25,9 8,4 15,10 20,16 6,6 10,14 14,23 3,8 5,18 5,29zm-84 -134c0,-6 -1,-12 -3,-17 -2,-5 -5,-9 -9,-13 -4,-3 -9,-6 -14,-8 -6,-1 -14,-2 -24,-2l-33 0 0 82 36 0c9,0 17,-1 22,-3 6,-2 11,-5 14,-9 4,-4 7,-9 8,-14 2,-5 3,-10 3,-16zm17 136c0,-7 -2,-14 -4,-20 -2,-5 -6,-10 -11,-14 -4,-4 -11,-7 -18,-9 -7,-2 -17,-3 -29,-3l-38 0 0 90 47 0c9,0 16,-1 22,-3 7,-2 12,-5 16,-8 5,-4 8,-8 11,-14 2,-5 4,-12 4,-19z"/>
  <path id="1" class="fil59" d="M18362 6611c0,4 0,8 0,11 0,3 -1,5 -1,7 -1,2 -1,4 -2,6 -1,1 -2,3 -4,4 -2,2 -6,5 -11,8 -5,3 -11,5 -19,8 -7,3 -15,5 -25,7 -10,1 -20,2 -31,2 -22,0 -41,-3 -59,-10 -17,-6 -32,-16 -45,-30 -12,-13 -21,-30 -28,-50 -6,-20 -10,-43 -10,-69 0,-27 4,-51 11,-72 7,-21 17,-39 30,-53 13,-14 29,-25 47,-32 18,-8 38,-12 60,-12 8,0 17,1 25,3 8,1 16,3 23,6 7,2 13,5 19,8 5,3 9,6 11,8 2,2 4,4 5,5 1,2 1,4 2,6 0,2 1,5 1,8 0,3 0,7 0,12 0,4 0,9 0,12 -1,3 -1,6 -2,8 -1,2 -2,4 -3,5 -1,1 -2,1 -4,1 -2,0 -5,-1 -9,-4 -4,-3 -9,-6 -15,-9 -6,-4 -13,-7 -21,-10 -8,-3 -18,-4 -30,-4 -12,0 -23,2 -33,7 -10,6 -19,13 -26,23 -7,9 -12,21 -15,34 -4,14 -6,29 -6,46 0,19 2,35 6,49 4,13 9,24 16,33 7,9 16,16 26,20 10,4 22,7 34,7 11,0 21,-2 30,-5 8,-2 15,-5 21,-8 6,-4 11,-7 15,-9 4,-3 7,-4 9,-4 1,0 3,0 4,1 1,1 2,2 2,4 1,2 1,5 2,8 0,4 0,8 0,14z"/>
  <path id="2" class="fil59" d="M18616 6634c0,5 0,9 0,12 -1,3 -1,6 -2,8 -1,2 -2,3 -3,4 -1,1 -3,1 -4,1l-160 0c-5,0 -10,-1 -13,-4 -4,-4 -6,-9 -6,-16l0 -277c0,-7 2,-13 6,-16 3,-3 8,-5 13,-5l159 0c1,0 3,1 4,2 1,1 2,2 3,4 1,2 1,5 2,8 0,3 0,7 0,12 0,5 0,9 0,12 -1,3 -1,6 -2,8 -1,2 -2,3 -3,4 -1,1 -3,1 -4,1l-113 0 0 78 95 0c2,0 3,0 4,1 1,1 2,2 3,4 1,2 2,5 2,8 1,3 1,7 1,11 0,5 0,9 -1,12 0,3 -1,6 -2,8 -1,2 -2,3 -3,4 -1,1 -2,1 -4,1l-95 0 0 90 114 0c1,0 3,0 4,1 1,1 2,2 3,4 1,2 1,5 2,8 0,3 0,7 0,12z"/>
  <path class="fil62" d="M19710 705l-1045 0 20 90c-157,-66 -328,-114 -516,-139 182,-22 355,-67 516,-140l-20 90 1045 0 0 99z"/>
 </g>
</svg>
