<?xml version="1.0" encoding="UTF-8"?>
<!DOCTYPE svg PUBLIC "-//W3C//DTD SVG 1.1//EN" "http://www.w3.org/Graphics/SVG/1.1/DTD/svg11.dtd">
<!-- Creator: CorelDRAW X6 -->
<svg xmlns="http://www.w3.org/2000/svg" xml:space="preserve" width="195.439mm" height="67.3804mm" version="1.1" style="shape-rendering:geometricPrecision; text-rendering:geometricPrecision; image-rendering:optimizeQuality; fill-rule:evenodd; clip-rule:evenodd"
viewBox="0 0 19924 6869"
 xmlns:xlink="http://www.w3.org/1999/xlink">
 <defs>
  <style type="text/css">
   <![CDATA[
    .fil6 {fill:#FEFEFE}
    .fil0 {fill:#182633}
    .fil5 {fill:#6DE769}
    .fil4 {fill:#FEFEFE}
    .fil1 {fill:#FF0033}
    .fil7 {fill:#F4F4F4;fill-rule:nonzero}
    .fil3 {fill:#FEFEFE;fill-rule:nonzero}
    .fil2 {fill:black;fill-rule:nonzero}
   ]]>
  </style>
 </defs>
 <g id="Layer_x0020_1">
  <metadata id="CorelCorpID_0Corel-Layer"/>
  <path class="fil0" d="M6438 5754l0 971c0,85 59,144 144,144l6761 0c84,0 144,-59 144,-144l0 -971c0,-84 -60,-144 -144,-144l-6761 0c-85,0 -144,60 -144,144z"/>
  <path class="fil0" d="M0 5754l0 971c0,85 60,144 144,144l3129 0c84,0 144,-59 144,-144l0 -971c0,-84 -60,-144 -144,-144l-3129 0c-84,0 -144,60 -144,144z"/>
  <path class="fil0" d="M16544 5754l0 971c0,85 59,144 144,144l3093 0c84,0 143,-59 143,-144l0 -971c0,-84 -59,-144 -143,-144l-3093 0c-85,0 -144,60 -144,144z"/>
  <path class="fil0" d="M3596 5754l0 971c0,85 60,144 144,144l2410 0c84,0 144,-59 144,-144l0 -971c0,-84 -60,-144 -144,-144l-2410 0c-84,0 -144,60 -144,144z"/>
  <path class="fil0" d="M0 4352l0 971c0,84 60,144 144,144l2409 0c85,0 144,-60 144,-144l0 -971c0,-84 -59,-144 -144,-144l-2409 0c-84,0 -144,60 -144,144z"/>
  <path class="fil0" d="M17263 4352l0 971c0,84 60,144 144,144l2374 0c84,0 143,-60 143,-144l0 -971c0,-84 -59,-144 -143,-144l-2374 0c-84,0 -144,60 -144,144z"/>
  <path class="fil0" d="M17946 2949l0 971c0,84 60,144 144,144l1691 0c84,0 143,-60 143,-144l0 -971c0,-84 -59,-144 -143,-144l-1691 0c-84,0 -144,60 -144,144z"/>
  <path class="fil0" d="M0 2949l0 971c0,84 60,144 144,144l1690 0c84,0 144,-60 144,-144l0 -971c0,-84 -60,-144 -144,-144l-1690 0c-84,0 -144,60 -144,144z"/>
  <path class="fil0" d="M17946 144l0 971c0,84 60,144 144,144l1691 0c84,0 143,-60 143,-144l0 -971c0,-84 -59,-144 -143,-144l-1691 0c-84,0 -144,60 -144,144z"/>
  <path class="fil1" d="M9351 2949l0 971c0,84 59,144 144,144l971 0c84,0 144,-60 144,-144l0 -971c0,-84 -60,-144 -144,-144l-971 0c-85,0 -144,60 -144,144z"/>
  <path class="fil1" d="M10789 2949l0 971c0,84 60,144 144,144l971 0c84,0 144,-60 144,-144l0 -971c0,-84 -60,-144 -144,-144l-971 0c-84,0 -144,60 -144,144z"/>
  <path class="fil1" d="M10789 144l0 971c0,84 60,144 144,144l971 0c84,0 144,-60 144,-144l0 -971c0,-84 -60,-144 -144,-144l-971 0c-84,0 -144,60 -144,144z"/>
  <path class="fil1" d="M9351 144l0 971c0,84 59,144 144,144l971 0c84,0 144,-60 144,-144l0 -971c0,-84 -60,-144 -144,-144l-971 0c-85,0 -144,60 -144,144z"/>
  <path class="fil1" d="M16544 2949l0 971c0,84 59,144 144,144l971 0c84,0 143,-60 143,-144l0 -971c0,-84 -59,-144 -143,-144l-971 0c-85,0 -144,60 -144,144z"/>
  <path class="fil1" d="M15105 2949l0 971c0,84 60,144 144,144l971 0c84,0 144,-60 144,-144l0 -971c0,-84 -60,-144 -144,-144l-971 0c-84,0 -144,60 -144,144z"/>
  <path class="fil1" d="M3596 2949l0 971c0,84 60,144 144,144l971 0c85,0 144,-60 144,-144l0 -971c0,-84 -59,-144 -144,-144l-971 0c-84,0 -144,60 -144,144z"/>
  <path class="fil1" d="M5035 2949l0 971c0,84 60,144 144,144l971 0c84,0 144,-60 144,-144l0 -971c0,-84 -60,-144 -144,-144l-971 0c-84,0 -144,60 -144,144z"/>
  <path class="fil1" d="M6474 2949l0 971c0,84 59,144 143,144l972 0c84,0 143,-60 143,-144l0 -971c0,-84 -59,-144 -143,-144l-972 0c-84,0 -143,60 -143,144z"/>
  <path class="fil1" d="M7188 1546l0 972c0,84 60,143 144,143l971 0c84,0 144,-59 144,-143l0 -972c0,-84 -60,-143 -144,-143l-971 0c-84,0 -144,59 -144,143z"/>
  <path class="fil1" d="M8627 1546l0 972c0,84 59,143 144,143l971 0c84,0 143,-59 143,-143l0 -972c0,-84 -59,-143 -143,-143l-971 0c-85,0 -144,59 -144,143z"/>
  <path class="fil1" d="M17263 1546l0 972c0,84 60,143 144,143l971 0c84,0 144,-59 144,-143l0 -972c0,-84 -60,-143 -144,-143l-971 0c-84,0 -144,59 -144,143z"/>
  <path class="fil1" d="M10081 4352l0 971c0,84 60,144 144,144l971 0c84,0 144,-60 144,-144l0 -971c0,-84 -60,-144 -144,-144l-971 0c-84,0 -144,60 -144,144z"/>
  <path class="fil1" d="M8627 4352l0 971c0,84 59,144 144,144l971 0c84,0 143,-60 143,-144l0 -971c0,-84 -59,-144 -143,-144l-971 0c-85,0 -144,60 -144,144z"/>
  <path class="fil1" d="M7198 4352l0 971c0,84 60,144 144,144l971 0c84,0 144,-60 144,-144l0 -971c0,-84 -60,-144 -144,-144l-971 0c-84,0 -144,60 -144,144z"/>
  <path class="fil1" d="M7912 2949l0 971c0,84 60,144 144,144l971 0c84,0 144,-60 144,-144l0 -971c0,-84 -60,-144 -144,-144l-971 0c-84,0 -144,60 -144,144z"/>
  <path class="fil1" d="M12228 2949l0 971c0,84 60,144 144,144l971 0c84,0 144,-60 144,-144l0 -971c0,-84 -60,-144 -144,-144l-971 0c-84,0 -144,60 -144,144z"/>
  <path class="fil1" d="M13667 2949l0 971c0,84 59,144 143,144l971 0c85,0 144,-60 144,-144l0 -971c0,-84 -59,-144 -144,-144l-971 0c-84,0 -143,60 -143,144z"/>
  <path class="fil1" d="M2158 2949l0 971c0,84 60,144 144,144l971 0c84,0 144,-60 144,-144l0 -971c0,-84 -60,-144 -144,-144l-971 0c-84,0 -144,60 -144,144z"/>
  <path class="fil1" d="M3596 144l0 971c0,84 60,144 144,144l971 0c85,0 144,-60 144,-144l0 -971c0,-84 -59,-144 -144,-144l-971 0c-84,0 -144,60 -144,144z"/>
  <path class="fil1" d="M5035 144l0 971c0,84 60,144 144,144l971 0c84,0 144,-60 144,-144l0 -971c0,-84 -60,-144 -144,-144l-971 0c-84,0 -144,60 -144,144z"/>
  <path class="fil1" d="M6474 144l0 971c0,84 59,144 143,144l972 0c84,0 143,-60 143,-144l0 -971c0,-84 -59,-144 -143,-144l-972 0c-84,0 -143,60 -143,144z"/>
  <path class="fil1" d="M15105 144l0 971c0,84 60,144 144,144l971 0c84,0 144,-60 144,-144l0 -971c0,-84 -60,-144 -144,-144l-971 0c-84,0 -144,60 -144,144z"/>
  <path class="fil1" d="M16544 144l0 971c0,84 59,144 144,144l971 0c84,0 143,-60 143,-144l0 -971c0,-84 -59,-144 -143,-144l-971 0c-85,0 -144,60 -144,144z"/>
  <path class="fil1" d="M15105 5754l0 971c0,85 60,144 144,144l971 0c84,0 144,-59 144,-144l0 -971c0,-84 -60,-144 -144,-144l-971 0c-84,0 -144,60 -144,144z"/>
  <path class="fil1" d="M13667 5754l0 971c0,85 59,144 143,144l971 0c85,0 144,-59 144,-144l0 -971c0,-84 -59,-144 -144,-144l-971 0c-84,0 -143,60 -143,144z"/>
  <path class="fil1" d="M719 144l0 971c0,84 60,144 144,144l971 0c84,0 144,-60 144,-144l0 -971c0,-84 -60,-144 -144,-144l-971 0c-84,0 -144,60 -144,144z"/>
  <path class="fil1" d="M2158 144l0 971c0,84 60,144 144,144l971 0c84,0 144,-60 144,-144l0 -971c0,-84 -60,-144 -144,-144l-971 0c-84,0 -144,60 -144,144z"/>
  <path class="fil1" d="M7912 144l0 971c0,84 60,144 144,144l971 0c84,0 144,-60 144,-144l0 -971c0,-84 -60,-144 -144,-144l-971 0c-84,0 -144,60 -144,144z"/>
  <path class="fil1" d="M12228 144l0 971c0,84 60,144 144,144l971 0c84,0 144,-60 144,-144l0 -971c0,-84 -60,-144 -144,-144l-971 0c-84,0 -144,60 -144,144z"/>
  <path class="fil1" d="M13667 144l0 971c0,84 59,144 143,144l971 0c85,0 144,-60 144,-144l0 -971c0,-84 -59,-144 -144,-144l-971 0c-84,0 -143,60 -143,144z"/>
  <path class="fil1" d="M2872 1546l0 972c0,84 60,143 144,143l971 0c84,0 144,-59 144,-143l0 -972c0,-84 -60,-143 -144,-143l-971 0c-84,0 -144,59 -144,143z"/>
  <path class="fil1" d="M11504 1546l0 972c0,84 60,143 144,143l971 0c84,0 144,-59 144,-143l0 -972c0,-84 -60,-143 -144,-143l-971 0c-84,0 -144,59 -144,143z"/>
  <path class="fil1" d="M36 1546l0 972c0,84 60,143 144,143l971 0c84,0 144,-59 144,-143l0 -972c0,-84 -60,-143 -144,-143l-971 0c-84,0 -144,59 -144,143z"/>
  <path class="fil1" d="M1434 1546l0 972c0,84 59,143 144,143l971 0c84,0 144,-59 144,-143l0 -972c0,-84 -60,-143 -144,-143l-971 0c-85,0 -144,59 -144,143z"/>
  <path class="fil1" d="M18666 1546l0 972c0,84 59,143 143,143l972 0c84,0 143,-59 143,-143l0 -972c0,-84 -59,-143 -143,-143l-972 0c-84,0 -143,59 -143,143z"/>
  <path class="fil1" d="M14381 1546l0 972c0,84 60,143 144,143l971 0c84,0 144,-59 144,-143l0 -972c0,-84 -60,-143 -144,-143l-971 0c-84,0 -144,59 -144,143z"/>
  <path class="fil1" d="M12942 1546l0 972c0,84 60,143 144,143l971 0c85,0 144,-59 144,-143l0 -972c0,-84 -59,-143 -144,-143l-971 0c-84,0 -144,59 -144,143z"/>
  <path class="fil1" d="M12953 4352l0 971c0,84 59,144 143,144l972 0c84,0 143,-60 143,-144l0 -971c0,-84 -59,-144 -143,-144l-972 0c-84,0 -143,60 -143,144z"/>
  <path class="fil1" d="M14391 4352l0 971c0,84 60,144 144,144l971 0c84,0 144,-60 144,-144l0 -971c0,-84 -60,-144 -144,-144l-971 0c-84,0 -144,60 -144,144z"/>
  <path class="fil1" d="M4311 1546l0 972c0,84 60,143 144,143l971 0c84,0 144,-59 144,-143l0 -972c0,-84 -60,-143 -144,-143l-971 0c-84,0 -144,59 -144,143z"/>
  <path class="fil1" d="M5750 1546l0 972c0,84 59,143 143,143l971 0c85,0 144,-59 144,-143l0 -972c0,-84 -59,-143 -144,-143l-971 0c-84,0 -143,59 -143,143z"/>
  <path class="fil1" d="M15820 1546l0 972c0,84 59,143 143,143l972 0c84,0 143,-59 143,-143l0 -972c0,-84 -59,-143 -143,-143l-972 0c-84,0 -143,59 -143,143z"/>
  <path class="fil1" d="M10065 1546l0 972c0,84 60,143 144,143l971 0c84,0 144,-59 144,-143l0 -972c0,-84 -60,-143 -144,-143l-971 0c-84,0 -144,59 -144,143z"/>
  <path class="fil1" d="M11509 4352l0 971c0,84 60,144 144,144l971 0c84,0 144,-60 144,-144l0 -971c0,-84 -60,-144 -144,-144l-971 0c-84,0 -144,60 -144,144z"/>
  <path class="fil1" d="M15830 4352l0 971c0,84 59,144 144,144l971 0c84,0 144,-60 144,-144l0 -971c0,-84 -60,-144 -144,-144l-971 0c-85,0 -144,60 -144,144z"/>
  <path class="fil1" d="M2877 4352l0 971c0,84 60,144 144,144l971 0c84,0 144,-60 144,-144l0 -971c0,-84 -60,-144 -144,-144l-971 0c-84,0 -144,60 -144,144z"/>
  <path class="fil1" d="M4311 4352l0 971c0,84 60,144 144,144l971 0c84,0 144,-60 144,-144l0 -971c0,-84 -60,-144 -144,-144l-971 0c-84,0 -144,60 -144,144z"/>
  <path class="fil1" d="M5750 4352l0 971c0,84 59,144 143,144l971 0c85,0 144,-60 144,-144l0 -971c0,-84 -59,-144 -144,-144l-971 0c-84,0 -143,60 -143,144z"/>
  <path class="fil1" d="M36 144l0 971c0,210 539,210 539,0l0 -971c0,-74 -66,-122 -152,-144l-234 0c-87,22 -153,70 -153,144z"/>
  <path class="fil2" d="M172 445l173 0 90 322c3,11 5,19 5,26 0,8 -4,16 -12,24 -8,7 -17,10 -28,10 -17,0 -31,-10 -42,-30l-186 -352z"/>
  <path class="fil2" d="M1329 458l0 473 87 0c21,0 37,4 45,12 9,8 14,18 14,31 0,13 -5,24 -14,32 -8,7 -24,11 -45,11l-261 0c-21,0 -36,-4 -45,-12 -9,-8 -13,-18 -13,-31 0,-13 4,-23 13,-31 9,-8 24,-12 45,-12l87 0 0 -360 -76 20c-13,3 -22,5 -28,5 -11,0 -21,-4 -29,-13 -7,-9 -12,-19 -12,-32 0,-11 3,-21 9,-27 6,-7 19,-13 37,-18l186 -48z"/>
  <path class="fil2" d="M1886 173l-18 196c-1,10 -4,18 -10,23 -6,6 -13,9 -22,9 -9,0 -16,-3 -22,-9 -6,-5 -9,-13 -10,-23l-18 -196c-1,-10 -2,-16 -2,-19 0,-17 5,-30 15,-40 10,-10 22,-15 37,-15 15,0 27,5 37,15 10,10 15,23 15,38 0,4 -1,11 -2,21zm-10 322c0,9 -4,17 -11,24 -7,6 -16,9 -28,9 -12,0 -22,-3 -29,-9 -7,-7 -10,-15 -10,-24 0,-9 3,-17 10,-23 7,-7 16,-10 29,-10 12,0 22,3 28,10 7,6 11,14 11,23z"/>
  <path class="fil2" d="M2648 934l188 0c10,-8 20,-13 29,-13 14,0 24,5 32,13 8,9 12,24 12,45l0 41 -393 0 0 -91c155,-129 249,-211 281,-248 16,-19 24,-37 24,-53 0,-22 -9,-40 -27,-56 -18,-16 -43,-25 -73,-25 -31,0 -56,10 -77,27 -11,10 -19,24 -25,43 -4,12 -10,21 -17,26 -7,5 -15,7 -25,7 -12,0 -22,-4 -31,-12 -9,-9 -13,-19 -13,-30 0,-17 8,-38 23,-63 16,-26 39,-46 69,-61 29,-15 62,-23 97,-23 54,0 99,17 134,50 34,33 52,73 52,120 0,24 -5,46 -15,66 -10,20 -34,49 -72,85 -29,28 -87,79 -173,152z"/>
  <path class="fil2" d="M3151 203l0 -16c0,-16 -5,-29 -14,-39 -10,-10 -22,-15 -36,-15 -12,0 -23,4 -34,12 -10,8 -18,18 -23,30 -9,22 -14,44 -14,65l0 75c0,38 9,68 26,90 11,15 26,22 46,22 11,0 21,-1 30,-4 8,-3 15,-6 20,-11 5,-5 10,-7 14,-7 5,0 10,1 13,5 4,4 6,8 6,14 0,8 -6,16 -17,23 -17,11 -39,17 -67,17 -22,0 -40,-5 -54,-15 -18,-13 -32,-31 -41,-56 -9,-25 -13,-50 -13,-75l0 -80c0,-40 10,-73 29,-101 20,-27 46,-41 78,-41 15,0 28,3 41,9 13,6 24,17 33,32 10,15 14,31 14,50l0 134c7,3 11,9 11,17 0,5 -2,10 -6,14 -4,3 -11,5 -20,5l-22 0 0 -2c-8,2 -13,2 -17,2 -20,0 -37,-7 -51,-22 -15,-14 -22,-31 -22,-51 0,-21 8,-39 24,-55 16,-16 38,-25 66,-26zm0 38c-17,1 -31,7 -40,15 -9,8 -13,18 -13,29 0,9 3,17 11,24 8,7 18,10 30,10 2,0 6,0 12,-1l0 -77z"/>
  <path class="fil2" d="M4270 729c26,17 45,37 57,60 13,23 19,48 19,77 0,30 -8,58 -25,84 -16,26 -41,46 -72,59 -32,13 -74,20 -125,20 -67,0 -117,-10 -151,-31 -19,-12 -28,-26 -28,-42 0,-13 4,-23 12,-31 9,-9 19,-13 31,-13 8,0 16,2 25,8 12,9 24,14 35,17 17,4 40,6 69,6 50,0 87,-7 109,-20 23,-13 34,-31 34,-55 0,-18 -6,-35 -20,-51 -13,-17 -30,-29 -52,-38 -13,-5 -34,-9 -64,-11 -14,0 -25,-5 -33,-13 -8,-8 -11,-18 -11,-29 0,-13 4,-23 12,-31 9,-9 19,-13 32,-13 29,0 44,0 46,0 11,-1 22,-5 34,-11 11,-6 20,-15 27,-26 7,-11 10,-22 10,-33 0,-19 -8,-35 -24,-48 -16,-13 -41,-20 -73,-20 -41,0 -73,12 -95,36 -6,7 -12,12 -15,14 -6,3 -13,4 -20,4 -12,0 -22,-4 -31,-12 -8,-9 -12,-19 -12,-31 0,-20 13,-39 39,-57 37,-27 84,-40 141,-40 53,0 96,15 128,45 32,31 48,67 48,110 0,22 -4,43 -14,62 -10,19 -24,37 -43,54z"/>
  <path class="fil2" d="M4668 214l12 0c12,0 21,3 26,7 5,5 8,11 8,19 0,7 -3,13 -8,18 -5,4 -14,7 -26,7l-16 0 -3 55 8 0c13,0 21,2 26,7 6,4 8,10 8,18 0,7 -2,13 -8,18 -5,5 -13,7 -25,7l-13 0 -6 87c0,1 -2,7 -4,17 -2,4 -4,7 -9,10 -4,3 -8,4 -13,4 -7,0 -13,-2 -17,-7 -5,-5 -8,-11 -8,-19 0,-1 1,-4 1,-9l6 -83 -38 0 -6 86c-1,9 -1,14 -2,16 -2,5 -5,9 -9,12 -4,3 -9,4 -14,4 -7,0 -13,-2 -18,-7 -5,-5 -7,-11 -7,-19 0,-2 0,-5 0,-9l6 -83 -12 0c-12,0 -21,-2 -26,-7 -5,-5 -8,-11 -8,-18 0,-8 3,-14 8,-18 5,-5 14,-7 26,-7l15 0 4 -55 -9 0c-12,0 -21,-3 -26,-7 -5,-5 -8,-11 -8,-19 0,-7 3,-13 8,-18 5,-4 14,-7 26,-7l13 0 5 -86c1,-8 2,-14 3,-16 1,-5 5,-8 9,-11 4,-3 9,-5 14,-5 7,0 13,3 18,8 5,4 7,11 7,19 0,2 0,5 0,9l-6 82 38 0 6 -86c0,-12 3,-20 8,-25 4,-5 10,-7 17,-7 8,0 14,3 19,8 4,5 7,11 7,18 0,2 0,3 0,4l-1 6 -6 82zm-54 51l-38 0 -3 55 37 0 4 -55z"/>
  <path class="fil2" d="M5702 470l0 339c22,0 37,3 46,11 9,8 13,18 13,31 0,13 -4,24 -13,32 -9,8 -24,12 -46,12l0 34c22,0 37,4 46,12 9,8 13,19 13,32 0,13 -4,23 -13,31 -9,8 -24,12 -46,12l-119 0c-22,0 -37,-4 -46,-12 -9,-8 -13,-19 -13,-32 0,-13 4,-23 13,-31 9,-8 24,-12 46,-12l33 0 0 -34 -235 0 0 -72 207 -353 114 0zm-86 339l0 -216 -126 216 126 0z"/>
  <path class="fil2" d="M6038 133c11,2 23,5 34,10 2,-1 5,-2 7,-3 3,-1 5,-1 7,-1 8,0 14,2 19,7 4,6 7,14 7,26l0 17c0,12 -3,20 -7,26 -5,5 -11,7 -18,7 -7,0 -13,-2 -18,-6 -4,-5 -7,-11 -8,-20 -11,-9 -26,-14 -44,-14 -18,0 -32,3 -40,10 -9,7 -13,14 -13,22 0,6 2,12 7,17 6,5 17,9 33,12l34 7c28,6 48,15 60,26 16,15 24,34 24,58 0,21 -7,39 -22,56 -14,16 -35,27 -62,32l0 43c0,12 -3,21 -7,26 -5,5 -11,8 -19,8 -7,0 -13,-3 -18,-8 -4,-5 -7,-14 -7,-26l0 -43c-13,-3 -26,-7 -39,-13 -7,6 -14,9 -20,9 -8,0 -14,-2 -19,-8 -5,-5 -7,-13 -7,-25l0 -32c0,-12 2,-21 7,-26 5,-5 11,-8 18,-8 6,0 11,2 16,5 4,4 7,9 8,15 2,7 5,12 8,16 5,5 12,9 23,13 10,3 20,5 31,5 18,0 34,-5 46,-15 9,-6 13,-14 13,-24 0,-9 -3,-16 -8,-21 -6,-5 -18,-10 -36,-13l-37 -8c-27,-5 -47,-15 -59,-29 -13,-14 -19,-30 -19,-50 0,-19 7,-36 20,-51 14,-15 32,-25 54,-29l0 -14c0,-12 3,-20 7,-25 5,-6 11,-8 19,-8 7,0 13,2 18,8 4,5 7,13 7,25l0 14z"/>
  <path class="fil2" d="M6907 554l0 103c32,-10 61,-15 87,-15 53,0 98,18 133,54 35,36 53,83 53,140 0,59 -18,106 -54,139 -35,34 -90,51 -163,51 -65,0 -116,-13 -154,-37 -22,-14 -33,-30 -33,-48 0,-12 5,-22 13,-30 9,-9 19,-13 31,-13 10,0 20,4 32,14 11,9 24,16 36,19 18,6 41,8 69,8 53,0 88,-8 108,-25 19,-17 28,-42 28,-77 0,-34 -9,-61 -27,-80 -19,-20 -43,-29 -72,-29 -31,0 -66,10 -106,31 -9,4 -17,7 -24,7 -12,0 -23,-5 -31,-14 -8,-9 -13,-20 -13,-35l0 -249 265 0c21,0 36,4 45,12 9,8 13,19 13,31 0,13 -4,23 -13,31 -9,8 -24,12 -45,12l-178 0z"/>
  <path class="fil2" d="M7389 202c0,20 -7,36 -21,50 -13,14 -30,21 -50,21 -20,0 -36,-7 -50,-21 -14,-14 -21,-30 -21,-50 0,-20 7,-37 21,-50 14,-14 30,-21 50,-21 20,0 37,7 50,20 14,14 21,31 21,51zm-31 0c0,-11 -4,-21 -12,-28 -8,-8 -17,-12 -28,-12 -11,0 -21,4 -28,12 -8,7 -12,17 -12,28 0,11 4,20 12,28 8,8 17,12 28,12 11,0 20,-4 28,-12 8,-8 12,-17 12,-28zm91 75l-186 60c-5,1 -8,2 -10,2 -4,0 -7,-2 -10,-5 -3,-3 -5,-7 -5,-11 0,-4 1,-7 4,-10 1,-2 5,-4 11,-6l187 -60c4,-1 8,-2 10,-2 4,0 7,2 10,5 3,3 4,7 4,11 0,4 -1,7 -3,10 -2,2 -6,4 -12,6zm5 106c0,19 -7,36 -21,50 -14,14 -31,21 -51,21 -19,0 -36,-7 -50,-21 -14,-14 -21,-31 -21,-50 0,-20 7,-37 21,-51 14,-14 31,-21 50,-21 20,0 37,7 51,21 14,14 21,31 21,51zm-31 0c0,-11 -4,-21 -12,-29 -8,-8 -18,-11 -29,-11 -11,0 -20,3 -28,11 -8,8 -12,18 -12,29 0,11 4,20 12,28 8,8 17,12 28,12 11,0 21,-4 29,-12 8,-8 12,-17 12,-28z"/>
  <path class="fil2" d="M8327 722c21,-18 41,-30 59,-38 19,-8 39,-12 61,-12 45,0 85,18 119,54 34,36 51,81 51,135 0,50 -16,91 -48,122 -31,31 -74,46 -128,46 -46,0 -83,-10 -112,-32 -29,-21 -51,-53 -66,-97 -15,-44 -22,-92 -22,-146 0,-65 14,-119 44,-161 29,-43 64,-76 104,-100 40,-24 82,-35 126,-35 35,0 63,7 82,20 13,10 19,22 19,36 0,13 -4,23 -13,32 -8,8 -18,13 -30,13 -7,0 -17,-4 -29,-11 -8,-4 -15,-6 -22,-6 -28,0 -56,8 -86,24 -29,15 -55,39 -77,72 -15,22 -25,50 -32,84zm13 133c9,34 21,57 36,69 16,13 37,19 66,19 28,0 50,-8 66,-23 15,-14 23,-35 23,-60 0,-29 -9,-54 -27,-73 -17,-19 -37,-29 -59,-29 -18,0 -36,9 -56,26 -20,17 -36,41 -49,71z"/>
  <path class="fil2" d="M8872 287l-76 92c-7,8 -12,14 -17,16 -4,3 -9,4 -14,4 -9,0 -17,-3 -24,-9 -6,-7 -9,-15 -9,-24 0,-7 5,-17 14,-28l127 -153 127 153c6,7 10,13 12,17 2,3 3,7 3,11 0,10 -3,17 -10,24 -6,6 -14,9 -23,9 -6,0 -11,-1 -15,-3 -4,-3 -10,-9 -17,-17l-78 -92z"/>
  <path class="fil2" d="M9917 557l-199 0c0,21 -4,36 -12,45 -7,9 -18,14 -31,14 -13,0 -23,-5 -31,-14 -8,-9 -12,-24 -12,-45l0 -86 375 0 0 86 -140 416c-6,17 -12,29 -20,35 -7,5 -15,8 -25,8 -13,0 -23,-4 -32,-12 -8,-9 -12,-18 -12,-29 0,-6 2,-16 6,-30l133 -388z"/>
  <path class="fil2" d="M10277 384l10 -37 22 0c9,0 16,1 19,4 7,4 10,10 10,18 0,6 -2,11 -5,15 -4,4 -8,6 -14,7 -3,14 -8,26 -13,35 12,0 19,1 22,4 7,4 10,10 10,18 0,6 -2,11 -6,16 -5,3 -12,5 -22,5l-26 0 -5 -6c-6,4 -12,7 -18,9 -8,3 -19,4 -31,4 -25,0 -45,-7 -59,-20 -14,-12 -21,-29 -21,-49 0,-14 3,-27 10,-39 7,-12 18,-23 32,-31 -6,-10 -10,-19 -12,-24 -2,-6 -3,-12 -3,-19 0,-17 7,-32 20,-46 13,-13 28,-19 47,-19 4,0 9,0 14,1 5,2 10,3 16,6 5,-3 9,-4 11,-4 6,0 11,2 15,7 4,4 7,9 7,15 0,5 -2,9 -4,12 -2,4 -7,7 -14,11l-18 10c-7,-7 -13,-11 -17,-13 -3,-1 -7,-2 -11,-2 -6,0 -12,2 -16,7 -5,4 -7,9 -7,15 0,5 4,13 13,26l44 64zm-60 -11c-16,7 -24,19 -24,34 0,8 3,14 8,19 6,5 15,7 29,7 9,0 17,-2 24,-7l-37 -53z"/>
  <path class="fil2" d="M11382 741c22,17 39,37 50,58 11,22 16,46 16,72 0,29 -7,56 -21,80 -14,25 -36,44 -66,58 -31,14 -64,21 -101,21 -37,0 -70,-7 -100,-21 -30,-14 -52,-33 -66,-58 -14,-24 -21,-51 -21,-80 0,-26 5,-50 17,-72 11,-21 27,-41 49,-58 -19,-18 -34,-37 -44,-57 -9,-20 -14,-42 -14,-64 0,-44 16,-82 50,-114 34,-31 77,-47 130,-47 52,0 95,16 129,47 34,32 51,70 51,114 0,23 -5,44 -15,64 -10,21 -24,39 -44,57zm-30 -119c0,-21 -9,-40 -25,-55 -17,-15 -39,-22 -67,-22 -29,0 -51,7 -68,22 -17,15 -25,34 -25,55 0,22 8,40 25,55 17,15 39,22 68,22 28,0 50,-7 67,-22 16,-15 25,-33 25,-55zm10 253c0,-22 -10,-43 -29,-62 -19,-18 -44,-27 -72,-27 -29,0 -53,9 -73,27 -19,19 -29,40 -29,63 0,18 9,34 25,47 17,14 43,21 77,21 34,0 59,-7 76,-21 17,-13 25,-29 25,-48z"/>
  <path class="fil2" d="M11719 389l-56 -18c-13,-4 -21,-9 -25,-13 -5,-7 -7,-13 -7,-21 0,-9 3,-16 9,-23 6,-6 13,-9 21,-9 5,0 13,1 22,5l56 18 0 -59c0,-16 3,-27 9,-34 6,-6 14,-9 24,-9 10,0 17,3 23,9 6,7 9,18 9,34l0 59 56 -18c10,-4 18,-5 22,-5 8,0 15,3 22,9 6,6 9,14 9,23 0,8 -2,14 -7,19 -4,6 -13,11 -26,15l-56 18 35 48c8,11 12,21 12,27 0,9 -3,17 -9,23 -6,7 -14,10 -23,10 -6,0 -12,-2 -16,-4 -4,-3 -10,-9 -17,-18l-34 -48 -35 48c-6,9 -12,15 -16,18 -5,3 -10,4 -16,4 -9,0 -17,-3 -23,-9 -7,-7 -10,-15 -10,-24 0,-6 4,-15 13,-27l34 -48z"/>
  <path class="fil2" d="M12812 786c-21,18 -41,31 -59,39 -18,8 -37,12 -57,12 -46,0 -87,-19 -122,-56 -34,-37 -52,-83 -52,-138 0,-43 12,-82 36,-117 33,-48 78,-73 137,-73 43,0 80,13 112,38 31,26 54,62 69,110 15,48 23,98 23,150 0,88 -34,159 -103,212 -52,41 -110,62 -173,62 -35,0 -61,-7 -81,-21 -12,-10 -19,-22 -19,-37 0,-12 4,-23 13,-31 8,-8 18,-12 30,-12 7,0 15,2 23,6 11,6 22,8 34,8 44,0 84,-14 121,-44 37,-29 60,-66 68,-108zm-12 -136c-9,-40 -23,-69 -41,-85 -18,-17 -39,-25 -62,-25 -25,0 -46,9 -63,28 -17,18 -25,43 -25,74 0,32 8,59 25,78 18,20 38,30 60,30 39,0 74,-33 106,-100z"/>
  <path class="fil2" d="M13155 318c0,-29 5,-58 14,-87 7,-22 18,-46 33,-72 11,-19 19,-31 24,-35 5,-5 10,-7 17,-7 7,0 13,2 18,7 5,5 7,11 7,18 0,5 -2,11 -6,17 -17,29 -30,56 -39,82 -8,25 -12,51 -12,77 0,26 4,52 12,77 9,26 22,53 39,82 4,6 6,12 6,17 0,7 -2,13 -7,17 -5,5 -11,8 -18,8 -7,0 -12,-2 -16,-6 -7,-6 -16,-19 -27,-39 -15,-29 -26,-53 -32,-71 -9,-29 -13,-58 -13,-85z"/>
  <path class="fil2" d="M14296 696l0 95c0,56 -16,110 -49,161 -32,51 -79,77 -139,77 -35,0 -65,-8 -89,-23 -24,-15 -47,-43 -68,-85 -22,-41 -32,-84 -32,-130l0 -95c0,-56 16,-110 48,-161 32,-52 79,-77 139,-77 35,0 64,7 88,22 24,16 47,44 69,85 22,41 33,85 33,131zm-87 0c0,-47 -13,-88 -39,-123 -15,-19 -36,-29 -63,-29 -26,0 -48,11 -64,32 -26,32 -38,72 -38,120l0 95c0,47 13,88 40,123 14,19 35,29 63,29 26,0 47,-11 64,-32 25,-33 37,-73 37,-120l0 -95z"/>
  <path class="fil2" d="M14651 318c0,28 -5,58 -15,87 -7,22 -18,46 -32,72 -11,19 -19,31 -24,35 -5,5 -11,7 -17,7 -7,0 -13,-3 -18,-8 -5,-4 -8,-10 -8,-17 0,-5 2,-11 6,-17 18,-29 31,-56 39,-82 8,-25 12,-51 12,-77 0,-26 -4,-52 -12,-77 -8,-26 -21,-53 -39,-82 -4,-6 -6,-12 -6,-17 0,-7 3,-13 8,-18 5,-5 11,-7 18,-7 6,0 11,2 16,6 7,6 15,18 26,39 16,29 26,52 32,71 9,29 14,57 14,85z"/>
  <polygon class="fil2" points="15872,752 15512,752 15512,674 15872,674 "/>
  <path class="fil2" d="M16242 545l-356 0c-16,0 -27,-3 -34,-9 -6,-5 -10,-13 -10,-23 0,-10 4,-17 10,-23 7,-6 18,-9 34,-9l356 0c15,0 26,3 33,9 6,6 10,13 10,23 0,10 -4,17 -10,23 -7,6 -18,9 -33,9z"/>
  <path class="fil2" d="M17228 691l-369 0c-21,0 -35,-4 -44,-12 -9,-8 -14,-19 -14,-32 0,-12 5,-23 14,-31 9,-8 23,-12 44,-12l369 0c21,0 35,4 44,12 9,8 14,19 14,32 0,12 -5,23 -14,31 -9,8 -23,12 -44,12zm0 162l-369 0c-21,0 -35,-4 -44,-12 -9,-8 -14,-18 -14,-31 0,-13 5,-23 14,-31 9,-8 23,-12 44,-12l369 0c21,0 35,4 44,12 9,8 14,18 14,31 0,13 -5,23 -14,31 -9,8 -23,12 -44,12z"/>
  <path class="fil2" d="M17447 332l0 108c0,16 -3,27 -9,33 -6,7 -14,10 -23,10 -10,0 -17,-3 -23,-10 -6,-6 -9,-17 -9,-33l0 -108 -93 0c-16,0 -27,-3 -33,-9 -7,-6 -10,-14 -10,-24 0,-9 3,-17 10,-23 6,-6 17,-9 33,-9l93 0 0 -108c0,-16 3,-27 9,-33 6,-7 13,-11 23,-11 10,0 18,4 23,10 6,7 9,18 9,34l0 108 92 0c16,0 27,3 34,9 6,6 10,14 10,23 0,10 -4,18 -10,24 -7,6 -18,9 -34,9l-92 0z"/>
  <path class="fil2" d="M560 2045c0,16 -5,30 -17,41 -11,11 -27,16 -48,16 -20,0 -35,-5 -47,-16 -11,-11 -17,-25 -17,-41 0,-16 6,-30 17,-41 11,-11 27,-17 47,-17 21,0 37,6 48,17 12,11 17,24 17,41zm-132 197l109 0 -122 198c-8,13 -16,20 -23,20 -7,0 -13,-3 -18,-7 -5,-4 -7,-9 -7,-13 0,-4 1,-9 3,-15l58 -183z"/>
  <path class="fil2" d="M1033 1724c0,16 -6,30 -17,41 -12,11 -28,16 -48,16 -20,0 -36,-5 -47,-16 -12,-11 -17,-25 -17,-41 0,-17 5,-30 17,-41 11,-11 27,-17 47,-17 20,0 36,6 48,17 11,11 17,24 17,41zm1 283c0,16 -6,30 -17,41 -12,11 -28,16 -48,16 -20,0 -36,-5 -47,-16 -12,-11 -18,-25 -18,-41 0,-17 6,-30 18,-41 11,-11 27,-17 47,-17 20,0 36,6 48,17 11,11 17,24 17,41z"/>
  <path class="fil2" d="M1846 2222l0 -381c-41,0 -61,-16 -61,-49 0,-32 22,-48 65,-48l128 0c43,0 65,16 65,48 0,33 -22,49 -65,49l-35 0 0 293 248 -390 113 0c43,0 65,16 65,48 0,33 -22,49 -65,49l-16 0 0 381c26,0 44,3 55,11 12,7 17,19 17,37 0,32 -21,49 -65,49l-127 0c-43,0 -65,-17 -65,-49 0,-32 22,-48 65,-48l23 0 0 -293 -248 390 -97 0c-44,0 -65,-17 -65,-49 0,-32 21,-48 65,-48zm106 -689c8,0 15,2 20,6 4,4 8,13 12,27 3,14 12,26 26,35 18,12 40,18 64,18 24,0 45,-5 61,-16 16,-10 25,-23 29,-37 4,-14 8,-23 13,-27 4,-4 11,-6 19,-6 9,0 17,3 23,9 5,6 8,15 8,24 0,27 -14,53 -43,78 -29,25 -65,38 -110,38 -45,0 -82,-13 -111,-38 -28,-25 -43,-51 -43,-78 0,-9 3,-18 9,-24 6,-6 14,-9 23,-9z"/>
  <path class="fil2" d="M3694 1831l0 381 97 0 0 158c0,44 -16,65 -48,65 -33,0 -49,-21 -49,-65l0 -61 -388 0c-44,0 -65,-16 -65,-49 0,-29 17,-46 51,-48l0 -381c-25,0 -44,-3 -55,-11 -11,-7 -17,-20 -17,-38 0,-32 22,-48 65,-48l120 0c43,0 65,16 65,49 0,32 -22,48 -65,48l-16 0 0 381 208 0 0 -381 -16 0c-43,0 -65,-16 -65,-48 0,-33 22,-49 65,-49l120 0c43,0 65,16 65,48 0,18 -6,30 -17,38 -11,7 -29,11 -55,11z"/>
  <path class="fil2" d="M4841 1832l114 204 114 -204c-32,-5 -48,-22 -48,-49 0,-18 5,-30 16,-37 11,-8 33,-11 65,-11l63 0c31,0 53,3 64,10 11,8 17,20 17,38 0,32 -22,49 -65,49l-218 388c-22,40 -44,67 -64,82 -21,15 -43,23 -68,23 -76,0 -113,-19 -113,-56l0 -51c0,-34 4,-55 12,-64 8,-10 20,-15 35,-15 16,0 28,5 37,16 8,10 12,29 12,58l0 11c4,1 7,1 10,1 17,0 35,-17 54,-51l22 -39 -170 -303c-46,0 -69,-17 -69,-49 0,-18 6,-30 17,-37 11,-8 32,-11 64,-11l67 0c31,0 53,3 64,10 11,8 17,20 17,38 0,27 -16,44 -49,49z"/>
  <path class="fil2" d="M6537 1842c-2,1 -20,28 -53,79 -24,36 -40,59 -48,70l-6 12c31,25 57,60 80,105l57 112 18 0c32,0 54,4 65,11 11,7 17,20 17,37 0,18 -6,31 -17,38 -11,7 -32,11 -65,11l-10 0c-34,0 -54,-2 -61,-7 -6,-5 -16,-21 -30,-48l-57 -112c-32,-60 -65,-90 -100,-90l-27 0 0 160c4,0 9,0 13,0 45,0 67,16 67,48 0,18 -5,31 -16,38 -11,7 -32,11 -64,11l-97 0c-31,0 -53,-4 -64,-11 -11,-7 -17,-20 -17,-37 0,-18 6,-31 17,-38 11,-7 33,-11 64,-11l0 -381c-5,1 -9,1 -14,1 -44,0 -67,-16 -67,-49 0,-18 6,-30 17,-38 11,-7 32,-11 64,-11l97 0c31,0 53,4 64,11 11,7 16,20 16,37 0,18 -5,31 -16,38 -11,8 -33,11 -64,11l0 124 13 0c11,0 20,-3 27,-7 6,-4 17,-16 29,-36l70 -107c15,-23 32,-40 51,-52 19,-13 45,-19 79,-19 21,0 36,3 45,10 9,6 14,13 17,22 2,8 3,25 3,50l0 9c0,31 -4,52 -11,63 -7,11 -19,16 -36,16 -33,0 -49,-23 -50,-70z"/>
  <path class="fil2" d="M7727 2074l0 143 247 0 0 -53c0,-24 5,-41 14,-51 9,-10 21,-15 35,-15 15,0 27,5 35,15 9,10 13,27 13,51l0 150 -457 0c-24,0 -41,-5 -51,-14 -10,-9 -15,-20 -15,-35 0,-15 5,-26 15,-35 10,-9 27,-13 51,-13l16 0 0 -381 -16 0c-24,0 -41,-4 -51,-13 -10,-9 -15,-21 -15,-35 0,-15 5,-26 15,-35 10,-9 27,-14 51,-14l437 1 0 147c0,24 -4,41 -13,51 -9,10 -20,15 -35,15 -15,0 -26,-5 -35,-15 -9,-10 -14,-27 -14,-51l0 -51 -227 0 0 141 85 0c0,-24 3,-39 9,-46 12,-13 26,-20 40,-20 15,0 26,5 35,15 9,10 13,27 13,51l0 97c0,24 -3,40 -8,46 -12,14 -25,20 -40,20 -14,0 -28,-7 -40,-20 -6,-6 -9,-22 -9,-46l-85 0z"/>
  <path class="fil2" d="M9374 2076l-207 0 0 141 15 0c21,0 36,4 46,13 10,9 15,21 15,35 0,15 -5,27 -15,36 -10,8 -25,13 -46,13l-112 0c-21,0 -37,-5 -47,-14 -10,-9 -15,-20 -15,-35 0,-15 7,-28 20,-39 7,-6 21,-9 42,-9l0 -381c-21,0 -37,-4 -47,-13 -10,-9 -15,-21 -15,-35 0,-15 5,-26 15,-35 10,-9 26,-14 47,-14l112 0c21,0 36,5 46,13 10,9 15,21 15,35 0,15 -5,27 -15,36 -10,9 -25,13 -46,13l-15 0 0 143 207 0 0 -143 -15 0c-21,0 -36,-4 -46,-13 -10,-9 -15,-21 -15,-35 0,-15 5,-26 15,-35 10,-9 25,-14 46,-14l113 0c20,0 36,5 46,13 10,9 15,21 15,35 0,15 -5,27 -15,36 -10,9 -26,13 -46,13l0 381c20,0 34,3 40,9 14,12 21,25 21,39 0,15 -5,27 -15,36 -10,8 -26,13 -46,13l-113 0c-21,0 -36,-5 -46,-14 -10,-9 -15,-20 -15,-35 0,-15 5,-26 15,-35 10,-9 25,-13 46,-13l15 0 0 -141z"/>
  <path class="fil2" d="M10658 2217l57 0c43,0 65,16 65,48 0,33 -22,49 -65,49l-211 0c-43,0 -65,-16 -65,-49 0,-32 22,-48 65,-48l56 0 0 -381 -56 0c-43,0 -65,-16 -65,-49 0,-32 22,-48 65,-48l460 0 0 189c0,43 -16,65 -48,65 -32,0 -49,-22 -49,-65l0 -92 -209 0 0 381z"/>
  <path class="fil2" d="M12096 2217l0 -381c-32,-3 -48,-19 -48,-49 0,-32 19,-48 57,-48l77 0c41,0 61,16 61,48 0,31 -17,48 -50,49l0 381 85 0 0 -478 103 0c44,0 66,16 66,48 0,17 -6,30 -17,38 -11,7 -30,11 -55,11l0 381c40,0 60,16 60,48 0,15 -5,27 -15,36 -10,9 -23,13 -39,13l-453 0c-43,0 -65,-16 -65,-49 0,-29 17,-45 52,-48l0 -381c-26,0 -44,-3 -55,-11 -12,-7 -17,-20 -17,-38 0,-32 22,-48 65,-48l104 0 0 478 84 0z"/>
  <path class="fil2" d="M13516 2210l0 -381c-33,-2 -49,-19 -49,-49 0,-32 19,-48 57,-48l77 0c41,0 61,16 61,48 0,15 -4,26 -14,35 -9,9 -21,14 -35,14l0 381 84 0 0 -478 104 0c43,0 65,16 65,48 0,18 -6,30 -17,38 -11,8 -29,11 -55,11l0 381 97 0 0 159c0,43 -16,64 -48,64 -33,0 -49,-21 -49,-65l0 -61 -446 0c-44,0 -66,-16 -66,-48 0,-30 18,-46 52,-49l0 -381c-25,0 -44,-3 -55,-11 -11,-7 -17,-20 -17,-38 0,-32 22,-48 65,-48l104 0 0 478 85 0z"/>
  <path class="fil2" d="M14906 1757c41,-21 85,-32 132,-32 59,0 108,15 146,46 38,30 57,70 57,119 0,45 -18,84 -56,117 51,32 77,78 77,138 0,53 -21,97 -62,132 -41,35 -102,53 -182,53 -74,0 -135,-12 -183,-36 -49,-24 -79,-42 -91,-53 -11,-12 -17,-25 -17,-40 0,-16 5,-28 16,-38 10,-9 21,-14 32,-14 12,0 29,8 53,22 30,20 59,35 87,45 28,10 63,15 104,15 94,0 141,-31 141,-91 0,-25 -10,-43 -29,-56 -19,-12 -52,-18 -99,-18l-32 0c-37,0 -61,-5 -71,-13 -10,-9 -15,-21 -15,-36 0,-18 5,-30 16,-37 11,-8 33,-11 65,-11l19 0c38,0 69,-7 91,-21 23,-13 34,-32 34,-55 0,-23 -11,-41 -33,-53 -22,-12 -48,-18 -78,-18 -71,0 -116,33 -132,98 -6,20 -12,34 -19,41 -7,8 -17,11 -30,11 -14,0 -25,-4 -34,-14 -8,-9 -13,-19 -13,-29 0,-6 3,-28 10,-68 2,-13 3,-35 3,-63 0,-23 0,-39 -1,-50l0 -11c0,-14 5,-25 14,-34 9,-10 20,-14 33,-14 13,0 24,5 33,14 10,9 14,20 14,33l0 15c0,1 0,3 0,6z"/>
  <path class="fil2" d="M16524 2021l163 196c24,0 41,4 51,13 10,9 15,21 15,35 0,15 -5,27 -15,36 -10,8 -27,13 -51,13l-126 0c-25,0 -42,-5 -52,-14 -10,-9 -15,-20 -15,-35 0,-15 5,-26 15,-35 10,-9 27,-13 52,-13l-100 -120 -98 120c24,0 41,4 51,13 10,9 15,21 15,35 0,15 -5,27 -15,36 -10,8 -27,13 -51,13l-126 0c-24,0 -41,-5 -51,-14 -10,-9 -15,-20 -15,-35 0,-15 5,-26 15,-35 10,-9 27,-13 51,-13l161 -196 -153 -185c-24,0 -41,-4 -51,-13 -10,-9 -15,-21 -15,-35 0,-15 5,-26 15,-35 10,-9 27,-14 51,-14l126 0c24,0 41,5 51,13 10,9 15,21 15,35 0,15 -6,28 -18,39 -8,7 -24,10 -48,10l90 109 89 -109c-24,0 -40,-3 -48,-10 -12,-11 -18,-24 -18,-38 0,-15 5,-26 15,-35 10,-9 27,-14 51,-14l126 0c24,0 41,5 51,13 10,9 15,21 15,35 0,15 -5,27 -15,36 -10,9 -27,13 -51,13l-152 185z"/>
  <path class="fil2" d="M17598 1739l361 0c43,0 65,16 65,48 0,33 -22,49 -65,49l-44 0 0 142 38 0c91,0 154,17 189,52 36,34 54,77 54,127 0,105 -69,157 -207,157l-186 0c-44,0 -65,-16 -65,-49 0,-32 21,-48 65,-48l15 0 0 -381 -123 0 0 24c0,43 -16,65 -49,65 -32,0 -48,-22 -48,-65l0 -121zm317 478l82 0c68,0 102,-21 102,-63 0,-23 -11,-41 -33,-56 -22,-15 -58,-23 -109,-23l-42 0 0 142z"/>
  <path class="fil2" d="M19352 2092c-2,19 -7,32 -16,41 -9,8 -19,12 -33,12 -14,0 -26,-5 -35,-15 -9,-10 -13,-26 -13,-50l0 -55c76,-29 123,-51 138,-67 16,-16 24,-32 24,-48 0,-24 -9,-43 -28,-60 -18,-17 -44,-25 -78,-25 -35,0 -70,8 -103,24l0 14c0,23 -4,40 -13,50 -9,10 -21,15 -35,15 -15,0 -26,-5 -35,-15 -9,-10 -14,-26 -14,-49l0 -78c50,-24 88,-39 116,-47 27,-7 55,-11 85,-11 61,0 110,17 147,53 37,35 55,80 55,133 0,38 -11,70 -33,97 -22,26 -65,53 -129,81zm20 188c0,15 -5,27 -15,37 -11,9 -29,14 -54,14 -24,0 -42,-5 -53,-14 -10,-10 -15,-22 -15,-37 0,-15 5,-27 15,-36 11,-10 28,-14 53,-14 25,0 43,4 54,14 10,9 15,21 15,36z"/>
  <path class="fil2" d="M2847 3236l0 37c57,1 99,6 128,15 28,8 51,25 68,50 18,25 27,55 27,92 0,109 -68,164 -204,164l-19 0 0 40 31 0c38,0 57,14 57,43 0,30 -20,45 -60,45l-152 0c-39,0 -58,-14 -58,-43 0,-30 19,-45 58,-45l27 0 0 -40 -36 0c-65,0 -113,-15 -142,-45 -30,-30 -44,-69 -44,-117 0,-40 9,-72 28,-97 19,-24 42,-40 68,-48 27,-8 69,-12 126,-14l0 -37 -27 0c-38,0 -57,-16 -57,-46 0,-29 20,-43 62,-43l143 0c42,0 63,15 63,45 0,29 -20,44 -59,44l-28 0zm-97 125l-30 0c-64,0 -95,23 -95,70 0,50 35,75 106,75l19 0 0 -145zm97 0l0 145 13 0c75,0 112,-24 112,-74 0,-47 -32,-71 -97,-71l-28 0z"/>
  <path class="fil2" d="M4317 3648c-32,42 -90,62 -174,62l-139 0c-43,0 -65,-16 -65,-49 0,-32 18,-48 54,-48l15 0 0 -380 -15 0c-44,0 -65,-16 -65,-49 0,-32 21,-48 65,-48l156 0c43,0 65,16 65,48 0,33 -22,49 -65,49l-44 0 0 141 22 0c67,0 120,16 160,49 39,32 59,75 59,131 0,32 -10,63 -29,94zm-212 -35l55 0c59,0 89,-21 89,-65 0,-51 -39,-76 -117,-76l-27 0 0 141zm291 0l0 -380c-41,0 -61,-17 -61,-49 0,-32 19,-48 58,-48l100 0c40,0 60,16 60,48 0,32 -20,49 -60,49l0 380c45,0 68,17 68,49 0,32 -22,48 -65,48l-98 0c-42,0 -64,-15 -64,-47 0,-15 6,-27 16,-36 10,-10 25,-14 46,-14z"/>
  <path class="fil2" d="M5477 3613l0 -380 -16 0c-24,0 -41,-5 -51,-14 -10,-9 -15,-20 -15,-35 0,-14 5,-26 15,-35 10,-9 27,-13 51,-13l244 0c58,0 105,16 141,48 35,33 53,71 53,116 0,21 -4,41 -13,59 -8,19 -21,36 -38,52 31,18 54,40 70,64 15,25 23,52 23,83 0,25 -6,48 -17,69 -8,16 -18,29 -30,38 -16,14 -36,25 -60,33 -23,8 -52,12 -87,12l-286 0c-24,0 -41,-4 -51,-13 -10,-9 -15,-21 -15,-36 0,-14 5,-26 15,-35 10,-8 27,-13 51,-13l16 0zm97 -239l107 0c38,0 70,-9 95,-29 17,-13 26,-29 26,-48 0,-17 -8,-32 -24,-45 -17,-13 -42,-19 -77,-19l-127 0 0 141zm0 239l168 0c39,0 67,-5 83,-17 12,-9 19,-22 19,-38 0,-20 -13,-39 -37,-58 -24,-19 -59,-28 -105,-28l-128 0 0 141z"/>
  <path class="fil2" d="M7238 3557l-235 0 -24 59 23 0c24,0 42,5 52,14 9,8 14,20 14,35 0,14 -5,26 -14,35 -10,9 -28,13 -52,13l-128 0c-24,0 -41,-4 -51,-13 -10,-9 -15,-21 -15,-36 0,-14 5,-26 15,-35 10,-9 27,-13 51,-13l154 -381 -63 0c-25,0 -42,-4 -52,-13 -9,-9 -14,-21 -14,-35 0,-15 5,-26 14,-35 10,-9 27,-14 52,-14l208 0 194 478c24,0 39,3 46,9 13,12 20,25 20,40 0,14 -5,26 -15,35 -10,9 -27,13 -51,13l-128 0c-25,0 -42,-4 -52,-13 -10,-9 -15,-21 -15,-36 0,-14 5,-26 15,-35 10,-9 27,-13 52,-13l23 0 -24 -59zm-39 -97l-79 -193 -78 193 157 0z"/>
  <path class="fil2" d="M8660 3233l-208 0 0 380 16 0c43,0 65,16 65,48 0,33 -22,49 -65,49l-120 0c-43,0 -65,-16 -65,-49 0,-17 6,-29 17,-36 11,-8 29,-12 55,-12l0 -380c-34,-3 -51,-20 -51,-49 0,-32 21,-48 65,-48l375 0c43,0 65,16 65,48 0,29 -18,46 -52,49l0 380c26,0 44,4 55,11 11,8 17,20 17,37 0,33 -22,49 -65,49l-120 0c-43,0 -65,-16 -65,-49 0,-32 22,-48 65,-48l16 0 0 -380z"/>
  <path class="fil2" d="M9931 3513l0 100 98 0c24,0 41,5 51,14 10,9 15,20 15,35 0,14 -5,26 -15,35 -10,9 -27,13 -51,13l-210 0c-25,0 -42,-4 -52,-13 -9,-9 -14,-21 -14,-36 0,-14 5,-26 14,-35 10,-8 27,-13 52,-13l15 0 0 -380 -15 0c-25,0 -42,-5 -52,-14 -9,-9 -14,-20 -14,-35 0,-14 5,-26 14,-35 10,-9 27,-13 52,-13l224 0c65,0 117,18 156,53 38,36 58,80 58,132 0,28 -7,55 -20,80 -10,19 -26,38 -49,56 -23,19 -46,33 -70,42 -24,10 -56,14 -95,14l-92 0zm0 -97l90 0c43,0 76,-9 101,-29 25,-19 37,-42 37,-69 0,-23 -10,-43 -30,-60 -20,-17 -49,-25 -86,-25l-112 0 0 183z"/>
  <path class="fil2" d="M11703 3429c0,87 -27,159 -82,216 -55,58 -119,86 -191,86 -65,0 -123,-24 -176,-71 -64,-60 -97,-136 -97,-231 0,-94 33,-171 97,-230 53,-48 111,-72 176,-72 72,0 136,29 191,86 55,58 82,130 82,216zm-97 0c0,-59 -18,-108 -54,-147 -36,-38 -76,-58 -122,-58 -45,0 -86,20 -122,59 -36,39 -54,88 -54,146 0,59 18,108 54,147 36,39 77,58 122,58 46,0 86,-19 122,-58 36,-39 54,-87 54,-147z"/>
  <path class="fil2" d="M13086 3233l0 380c27,0 45,4 56,13 10,8 15,20 15,35 0,18 -5,31 -17,38 -11,8 -32,11 -64,11l-78 0c-32,0 -53,-3 -64,-11 -12,-7 -17,-19 -17,-38 0,-16 5,-28 16,-36 11,-8 29,-12 55,-12l0 -380 -133 0 0 270c0,72 -13,127 -40,165 -26,39 -65,58 -117,58 -68,0 -102,-17 -102,-50l0 -59c0,-30 4,-50 12,-60 9,-10 21,-16 37,-16 32,0 48,24 48,70l0 15c4,0 8,0 10,0 17,0 30,-9 40,-29 10,-19 15,-50 15,-94l0 -270c-5,0 -10,0 -15,0 -46,0 -68,-16 -68,-49 0,-17 5,-30 17,-37 11,-8 32,-11 64,-11l320 0c31,0 53,3 64,10 12,8 17,20 17,38 0,15 -5,27 -15,36 -11,8 -29,13 -56,13z"/>
  <path class="fil2" d="M14488 3710l-346 0 -3 50c-2,30 -6,51 -13,61 -7,11 -19,16 -36,16 -17,0 -29,-6 -37,-17 -7,-10 -10,-31 -10,-62l0 -145c11,1 19,1 25,1 33,0 62,-13 85,-38 24,-26 35,-75 35,-148l0 -196c-5,1 -11,1 -17,1 -45,0 -67,-17 -67,-49 0,-18 5,-30 16,-38 11,-7 33,-10 66,-10l321 0c32,0 53,3 64,10 12,8 17,20 17,38 0,32 -23,49 -70,49l0 380c25,0 41,3 50,9 9,6 14,13 17,21 2,8 3,26 3,51l0 64c0,30 -3,51 -10,62 -7,11 -19,17 -37,17 -16,0 -28,-5 -35,-15 -7,-10 -12,-30 -15,-60l-3 -52zm-202 -477l0 195c0,76 -13,137 -39,182l174 3 0 -380 -135 0z"/>
  <path class="fil2" d="M15697 3620l0 -167c-20,18 -38,49 -54,94l-40 110c-7,22 -15,37 -23,46 -8,9 -22,14 -42,14l-32 0c-14,0 -26,-5 -34,-14 -9,-9 -14,-20 -14,-34 0,-31 19,-47 56,-49l39 -111c15,-42 39,-79 73,-112 -6,-9 -12,-18 -18,-27l-58 -108c-5,32 -20,49 -44,49 -15,0 -27,-5 -33,-15 -7,-11 -11,-30 -11,-60l0 -13c0,-33 3,-55 9,-66 6,-10 20,-15 41,-15 21,0 40,5 57,17 17,11 36,35 57,73l71 132 0 -125c-31,-5 -47,-21 -47,-49 0,-17 5,-30 16,-37 11,-7 33,-11 65,-11l33 0c30,0 51,3 62,11 11,7 17,20 17,37 0,27 -16,44 -49,49l0 122c53,-101 89,-162 109,-185 19,-23 45,-34 78,-34 20,0 33,5 39,16 6,10 9,32 9,65l0 14c0,29 -3,48 -10,58 -6,11 -17,16 -33,16 -25,0 -40,-17 -44,-51l-58 108c-8,14 -15,24 -21,29 33,29 58,67 74,112l40 111c38,3 56,20 56,51 0,13 -4,24 -13,33 -8,8 -20,13 -34,13l-31 0c-18,0 -31,-4 -40,-11 -9,-7 -18,-23 -27,-49l-40 -110c-19,-49 -36,-80 -54,-94l0 167c35,4 52,20 52,48 0,18 -6,30 -17,37 -11,8 -32,12 -62,12l-43 0c-31,0 -52,-4 -63,-11 -12,-7 -17,-20 -17,-38 0,-29 18,-45 53,-48z"/>
  <path class="fil2" d="M17354 3380l-227 0c-40,0 -61,16 -61,48 0,32 21,49 61,49l229 0c-3,48 -21,87 -57,115 -36,28 -81,42 -136,42 -36,0 -64,-4 -84,-12 -19,-7 -37,-20 -54,-36 -16,-17 -30,-25 -43,-25 -13,0 -24,5 -34,15 -10,9 -15,21 -15,35 0,26 22,53 66,80 44,27 99,40 165,40 88,0 158,-25 210,-76 52,-50 79,-111 79,-183l0 -66c0,-80 -26,-146 -78,-199 -51,-53 -114,-80 -188,-80 -56,0 -105,13 -147,39 -11,-16 -26,-24 -43,-24 -32,0 -48,21 -48,65l0 82c0,44 16,65 48,65 26,0 43,-17 49,-52 4,-26 21,-45 51,-58 30,-13 59,-20 86,-20 44,0 82,15 114,44 32,28 51,66 57,112z"/>
  <path class="fil2" d="M3633 4913l0 122 -35 0c-24,0 -41,4 -52,13 -9,9 -14,21 -14,35 0,15 5,27 14,36 11,8 28,13 52,13l147 0c24,0 41,-5 51,-14 10,-9 15,-20 15,-35 0,-15 -5,-26 -15,-35 -10,-9 -27,-13 -51,-13l-15 0 0 -381 15 0c24,0 41,-4 51,-13 10,-9 15,-21 15,-35 0,-15 -5,-26 -15,-35 -10,-9 -27,-14 -51,-14l-220 0c-68,0 -121,17 -159,51 -38,34 -57,76 -57,124 0,31 9,58 27,83 18,25 45,47 81,66 -21,18 -43,41 -66,70 -14,18 -34,46 -58,84 -24,0 -40,3 -47,9 -13,12 -19,25 -19,39 0,15 5,27 15,36 10,8 27,13 51,13l49 0c78,-122 143,-195 195,-219l96 0zm0 -98l-76 0c-28,0 -53,-4 -75,-12 -30,-12 -50,-24 -60,-37 -10,-12 -16,-25 -16,-37 0,-18 10,-36 30,-51 19,-16 48,-24 85,-24l112 0 0 161z"/>
  <path class="fil2" d="M5022 5035l0 -122c-46,31 -95,46 -146,46 -104,0 -156,-60 -156,-179l0 -126c-27,0 -46,-4 -56,-12 -11,-8 -16,-20 -16,-37 0,-17 6,-29 17,-37 11,-7 32,-11 64,-11l88 0c32,0 53,4 65,11 11,7 17,20 17,37 0,18 -6,31 -17,38 -12,8 -33,11 -65,11l0 121c0,35 5,57 14,68 10,12 26,17 50,17 40,0 87,-20 141,-61l0 -145 -10 0c-44,0 -66,-16 -66,-48 0,-18 6,-30 17,-38 11,-7 33,-11 64,-11l84 0c32,0 53,4 65,11 11,7 17,20 17,37 0,17 -6,30 -16,38 -11,7 -30,11 -58,11l0 381c28,0 47,4 58,12 11,8 16,20 16,36 0,18 -6,30 -17,38 -11,7 -33,11 -65,11l-147 0c-32,0 -53,-4 -65,-11 -11,-7 -17,-20 -17,-38 0,-17 6,-30 17,-37 11,-7 33,-11 65,-11l58 0z"/>
  <path class="fil2" d="M6510 4576c6,-8 13,-15 20,-19 7,-4 15,-6 23,-6 14,0 26,5 35,15 9,9 14,26 14,49l0 83c0,23 -5,40 -14,50 -9,10 -21,15 -35,15 -13,0 -23,-4 -31,-11 -8,-7 -14,-21 -18,-41 -2,-13 -6,-23 -13,-31 -13,-14 -31,-25 -54,-34 -23,-8 -46,-12 -70,-12 -29,0 -56,6 -80,18 -24,13 -46,34 -64,62 -19,29 -28,63 -28,102l0 63c0,47 17,86 51,117 34,32 81,47 141,47 36,0 67,-5 92,-14 14,-6 30,-17 46,-34 10,-10 18,-17 24,-20 5,-3 12,-5 19,-5 13,0 25,5 34,15 10,10 15,22 15,35 0,13 -7,27 -20,43 -19,22 -44,39 -74,52 -41,17 -86,25 -135,25 -58,0 -110,-11 -156,-35 -37,-19 -69,-49 -95,-90 -26,-41 -39,-86 -39,-134l0 -66c0,-51 11,-98 35,-142 23,-44 56,-77 98,-101 41,-24 85,-36 132,-36 28,0 54,4 79,10 24,7 47,17 68,30z"/>
  <path class="fil2" d="M7663 4745l0 290 35 0c24,0 41,4 52,13 9,9 14,21 14,35 0,15 -5,27 -14,36 -11,8 -28,13 -52,13l-132 0c-24,0 -41,-5 -51,-14 -10,-9 -15,-20 -15,-35 0,-15 5,-26 15,-35 10,-9 27,-13 51,-13l0 -381c-24,0 -41,-4 -51,-13 -10,-9 -15,-21 -15,-35 0,-15 5,-26 15,-35 10,-9 27,-14 51,-14l120 0 133 292 131 -292 120 0c24,0 41,5 51,13 10,9 15,21 15,35 0,15 -5,27 -15,36 -10,9 -27,13 -51,13l0 381c24,0 41,4 51,13 10,9 15,21 15,35 0,15 -5,27 -15,36 -10,8 -27,13 -51,13l-133 0c-24,0 -41,-5 -51,-14 -10,-9 -15,-20 -15,-35 0,-15 5,-26 15,-35 10,-9 27,-13 51,-13l36 0 0 -290 -112 250 -83 0 -115 -250z"/>
  <path class="fil2" d="M9019 5035l0 -381c-41,0 -61,-16 -61,-49 0,-32 22,-48 65,-48l128 0c43,0 65,16 65,48 0,33 -22,49 -65,49l-35 0 0 293 248 -390 113 0c43,0 65,16 65,48 0,33 -22,49 -65,49l-16 0 0 381c26,0 44,4 55,11 12,8 17,20 17,37 0,33 -21,49 -65,49l-127 0c-43,0 -65,-16 -65,-49 0,-32 22,-48 65,-48l23 0 0 -293 -248 390 -97 0c-44,0 -66,-16 -66,-49 0,-32 22,-48 66,-48z"/>
  <path class="fil2" d="M10717 4654l0 381 65 0c24,0 41,4 51,13 10,9 15,21 15,35 0,15 -5,27 -15,36 -10,8 -27,13 -51,13l-227 0c-24,0 -41,-5 -51,-14 -10,-9 -15,-20 -15,-35 0,-15 5,-26 15,-35 10,-9 27,-13 51,-13l65 0 0 -381 -106 0 0 93c0,24 -4,41 -13,51 -9,10 -21,15 -35,15 -15,0 -26,-5 -35,-15 -9,-10 -14,-27 -14,-51l0 -190 504 0 0 190c0,24 -4,41 -13,51 -9,10 -21,15 -35,15 -15,0 -27,-5 -36,-15 -8,-10 -13,-27 -13,-51l0 -93 -107 0z"/>
  <path class="fil2" d="M11996 4654l0 142 124 0c83,0 144,16 183,47 40,31 60,75 60,132 0,105 -69,157 -207,157l-273 0c-43,0 -65,-16 -65,-49 0,-32 22,-48 65,-48l16 0 0 -381 -16 0c-43,0 -65,-16 -65,-48 0,-33 22,-49 65,-49l141 0c44,0 65,16 65,49 0,32 -21,48 -65,48l-28 0zm0 381l168 0c68,0 102,-21 102,-64 0,-52 -47,-78 -141,-78l-129 0 0 142z"/>
  <path class="fil2" d="M13825 4557l0 121c0,43 -16,65 -48,65 -33,0 -49,-22 -49,-65l0 -24 -248 0 0 142 125 0c82,0 143,16 183,47 39,31 59,75 59,132 0,105 -69,157 -206,157l-273 0c-44,0 -65,-16 -65,-49 0,-32 21,-48 65,-48l15 0 0 -381 -15 0c-44,0 -65,-16 -65,-48 0,-33 21,-49 65,-49l457 0zm-345 478l168 0c68,0 102,-21 102,-64 0,-52 -47,-78 -141,-78l-129 0 0 142z"/>
  <path class="fil2" d="M14935 4888l-45 0 0 141 10 0c43,0 65,16 65,48 0,32 -22,49 -65,49l-114 0c-43,0 -65,-17 -65,-49 0,-17 6,-29 17,-37 11,-8 29,-11 55,-11l0 -381c-34,-3 -51,-19 -51,-49 0,-32 21,-48 65,-48l93 0c43,0 65,16 65,49 0,32 -22,48 -65,48l-10 0 0 143 45 0c2,-79 22,-141 60,-187 38,-45 86,-68 144,-68 59,0 107,23 144,68 37,46 56,122 56,230 0,204 -68,306 -202,306 -60,0 -108,-22 -142,-66 -35,-45 -55,-107 -60,-186zm202 -254c-33,0 -59,14 -78,44 -19,29 -28,83 -28,161 0,81 10,136 30,163 20,28 45,41 76,41 32,0 57,-14 76,-44 19,-29 29,-82 29,-160 0,-137 -35,-205 -105,-205z"/>
  <path class="fil2" d="M16368 4892l0 143 248 0 0 -53c0,-24 5,-41 14,-51 9,-10 21,-15 35,-15 15,0 26,5 35,15 9,10 13,27 13,51l0 150 -457 0c-24,0 -41,-5 -51,-14 -10,-9 -15,-20 -15,-35 0,-15 5,-26 15,-35 10,-9 27,-13 51,-13l15 0 0 -381 -15 0c-24,0 -41,-4 -51,-13 -10,-9 -15,-21 -15,-35 0,-15 5,-26 15,-35 10,-9 27,-14 51,-14l437 1 0 147c0,24 -5,41 -13,51 -9,10 -21,15 -35,15 -15,0 -27,-5 -36,-15 -9,-10 -13,-27 -13,-51l0 -51 -228 0 0 141 86 0c0,-24 3,-39 9,-46 12,-13 25,-20 40,-20 15,0 26,5 35,15 9,10 13,27 13,51l0 97c0,24 -3,40 -9,46 -11,14 -24,20 -39,20 -15,0 -28,-7 -40,-20 -6,-6 -9,-22 -9,-46l-86 0zm51 -449c0,15 -5,27 -15,37 -10,10 -22,15 -36,15 -14,0 -27,-5 -37,-15 -10,-10 -15,-23 -15,-37 0,-14 5,-26 15,-36 10,-10 23,-15 37,-15 14,0 26,5 36,15 10,10 15,22 15,36zm203 0c0,15 -5,27 -15,37 -10,10 -23,15 -37,15 -14,0 -26,-5 -36,-15 -10,-10 -15,-23 -15,-37 0,-14 5,-26 15,-36 10,-10 22,-15 36,-15 14,0 27,5 37,15 10,10 15,22 15,36z"/>
  <path class="fil2" d="M14377 6240c0,20 -7,37 -22,51 -14,14 -34,21 -59,21 -25,0 -45,-7 -59,-21 -15,-14 -22,-31 -22,-51 0,-20 7,-38 22,-51 14,-14 34,-21 59,-21 25,0 45,7 59,21 15,13 22,31 22,51z"/>
  <path class="fil2" d="M15702 6163l144 0 -155 292c-9,17 -21,26 -35,26 -9,0 -17,-3 -23,-9 -7,-6 -10,-13 -10,-20 0,-5 1,-12 4,-22l75 -267z"/>
  <path class="fil3" d="M4045 6492l0 -487 227 0c43,0 75,4 97,12 22,8 40,23 54,45 14,21 20,48 20,79 0,27 -5,50 -15,70 -11,19 -25,35 -43,47 -12,8 -28,15 -48,20 16,6 28,12 35,18 5,4 12,12 22,25 9,13 16,23 19,30l66 141 -154 0 -73 -148c-9,-20 -17,-32 -25,-38 -9,-7 -21,-11 -33,-11l-12 0 0 197 -137 0zm137 -289l58 0c6,0 18,-2 36,-6 9,-2 16,-8 22,-16 6,-8 9,-17 9,-28 0,-16 -5,-28 -14,-36 -9,-9 -26,-13 -51,-13l-60 0 0 99z"/>
  <path id="1" class="fil3" d="M4841 6492l-114 0 0 -57c-18,24 -35,40 -52,50 -17,10 -39,15 -64,15 -34,0 -60,-11 -79,-33 -19,-22 -29,-57 -29,-103l0 -225 123 0 0 195c0,22 4,38 12,47 7,9 17,14 31,14 14,0 26,-6 36,-19 9,-12 13,-35 13,-67l0 -170 123 0 0 353z"/>
  <polygon id="2" class="fil3" points="4892,6262 5071,6262 5071,6367 4892,6367 "/>
  <polygon id="3" class="fil3" points="5129,6005 5495,6005 5495,6109 5266,6109 5266,6187 5478,6187 5478,6286 5266,6286 5266,6382 5501,6382 5501,6492 5129,6492 "/>
  <path id="4" class="fil3" d="M5567 6139l114 0 0 58c17,-24 34,-41 52,-51 17,-10 39,-15 64,-15 34,0 60,11 79,34 19,22 29,56 29,103l0 224 -124 0 0 -194c0,-22 -3,-38 -11,-47 -7,-9 -17,-14 -31,-14 -14,0 -26,6 -36,19 -9,12 -13,34 -13,67l0 169 -123 0 0 -353z"/>
  <circle class="fil4" cx="1698" cy="3059" r="149"/>
  <circle class="fil5" cx="3814" cy="5840" r="149"/>
  <circle class="fil6" cx="6058" cy="5840" r="149"/>
  <g id="_459264576">
   <path class="fil7" d="M468 3111c-17,0 -32,3 -46,8 -14,5 -26,13 -35,24 -10,10 -18,23 -24,38 -5,15 -8,32 -8,52 0,19 2,36 8,51 5,15 12,27 21,37 10,10 22,17 35,22 14,5 29,7 47,7 12,0 25,0 38,-2 13,-2 25,-5 36,-9l0 52c-11,3 -24,6 -37,8 -13,1 -27,2 -41,2 -28,0 -53,-4 -74,-12 -21,-8 -38,-19 -53,-33 -14,-15 -25,-32 -32,-52 -7,-21 -11,-43 -11,-67 0,-26 4,-49 12,-70 8,-22 19,-40 33,-56 14,-16 32,-28 54,-37 21,-9 46,-14 73,-14 14,0 27,1 40,3 12,2 23,4 33,8l0 50c-13,-4 -25,-6 -36,-8 -12,-1 -23,-2 -33,-2z"/>
   <path id="1" class="fil7" d="M810 3312l-125 0 -32 83 -64 0 131 -328 55 0 130 328 -63 0 -32 -83zm-63 -166c-12,34 -22,63 -31,86l-11 29 85 0 -11 -29c-9,-24 -19,-52 -31,-86l-1 0z"/>
   <path id="2" class="fil7" d="M1063 3268c-6,0 -11,0 -16,0 -5,-1 -10,-1 -15,-1l0 128 -60 0 0 -328 95 0c15,0 29,0 41,2 12,1 23,3 32,6 23,7 40,18 52,33 12,15 18,34 18,57 0,16 -3,30 -10,43 -6,13 -16,24 -28,32 -13,9 -28,16 -47,21 -18,5 -39,7 -62,7zm-31 -52c4,1 8,1 13,1 6,0 11,1 17,1 16,0 30,-2 40,-4 11,-3 20,-7 27,-11 7,-5 11,-11 14,-17 3,-7 5,-14 5,-22 0,-10 -2,-18 -7,-25 -4,-7 -12,-13 -23,-17 -6,-1 -13,-3 -21,-4 -8,-1 -19,-1 -31,-1l-34 0 0 99z"/>
   <path id="3" class="fil7" d="M1455 3301c0,-9 -2,-15 -6,-20 -4,-6 -9,-10 -16,-13 -8,-4 -15,-6 -24,-8 -9,-2 -18,-4 -28,-6 -12,-3 -25,-6 -36,-10 -12,-4 -22,-9 -31,-16 -9,-7 -16,-16 -21,-26 -5,-11 -8,-24 -8,-39 0,-18 3,-33 9,-46 6,-13 15,-23 25,-32 11,-8 23,-15 37,-19 14,-4 30,-6 47,-6 18,0 35,2 53,5 18,4 33,8 46,13l0 52c-17,-7 -34,-12 -49,-15 -16,-3 -31,-4 -44,-4 -20,0 -36,3 -46,11 -11,7 -16,18 -16,32 0,9 1,15 5,21 3,5 8,10 14,13 6,4 13,7 21,9 8,2 16,4 25,6 14,3 27,6 40,10 12,4 24,9 33,16 10,7 18,16 24,27 5,11 8,25 8,42 0,18 -3,33 -10,46 -6,13 -15,24 -27,32 -12,9 -27,15 -44,19 -18,4 -36,6 -57,6 -18,0 -35,-1 -53,-5 -17,-3 -31,-8 -43,-15l0 -51c16,7 32,13 48,16 15,3 31,4 47,4 10,0 19,0 28,-2 10,-1 18,-4 25,-8 7,-4 13,-9 18,-15 4,-7 6,-15 6,-24z"/>
   <polygon class="fil3" points="341,3474 341,3753 495,3753 495,3803 281,3803 281,3474 "/>
   <path id="1" class="fil3" d="M795 3639c0,-21 -2,-38 -7,-53 -5,-15 -12,-27 -21,-37 -8,-10 -19,-18 -30,-23 -12,-5 -25,-7 -40,-7 -14,0 -27,2 -39,7 -12,5 -22,13 -31,23 -9,10 -15,22 -20,37 -5,15 -8,32 -8,53 0,20 3,37 8,52 5,15 11,28 20,38 9,9 19,17 31,22 12,5 25,7 39,7 15,0 28,-2 40,-7 11,-5 22,-13 30,-22 9,-10 16,-23 21,-38 5,-15 7,-32 7,-52zm63 0c0,25 -4,48 -11,69 -7,20 -18,38 -31,53 -14,16 -31,27 -51,36 -20,8 -42,12 -68,12 -25,0 -48,-4 -68,-12 -20,-9 -36,-20 -50,-36 -14,-15 -24,-33 -31,-53 -7,-21 -11,-44 -11,-69 0,-26 4,-49 11,-69 7,-21 17,-39 31,-54 14,-15 30,-27 50,-36 20,-8 43,-12 68,-12 26,0 48,4 68,12 20,9 37,21 51,36 13,15 24,33 31,54 7,20 11,43 11,69z"/>
   <path id="2" class="fil3" d="M1101 3519c-16,0 -31,2 -45,8 -14,5 -26,13 -36,23 -10,11 -17,24 -23,39 -5,15 -8,32 -8,52 0,19 2,36 7,51 5,15 13,27 22,37 10,9 21,17 35,22 14,5 29,7 47,7 12,0 25,-1 38,-2 13,-2 25,-5 36,-9l0 52c-11,3 -24,6 -37,7 -13,2 -27,3 -41,3 -28,0 -53,-4 -74,-12 -21,-8 -39,-19 -53,-33 -14,-15 -25,-32 -32,-53 -7,-20 -11,-42 -11,-67 0,-25 4,-48 12,-69 8,-22 18,-40 33,-56 14,-16 32,-28 54,-37 21,-9 46,-14 73,-14 14,0 27,1 40,3 12,2 23,4 33,8l0 50c-13,-4 -25,-6 -36,-8 -12,-2 -23,-2 -34,-2z"/>
   <polygon id="3" class="fil3" points="1255,3803 1255,3474 1315,3474 1315,3624 1316,3624 1440,3474 1515,3474 1378,3637 1526,3803 1449,3803 1316,3655 1315,3655 1315,3803 "/>
  </g>
  <polygon class="fil3" points="18212,3549 18374,3549 18374,3599 18151,3599 18151,3270 18365,3270 18365,3321 18212,3321 18212,3406 18343,3406 18343,3456 18212,3456 "/>
  <path id="1" class="fil3" d="M18629 3423c23,34 42,63 57,89l2 0c-2,-42 -3,-73 -3,-93l0 -149 60 0 0 329 -63 0 -107 -151c-19,-27 -39,-57 -59,-92l-1 0c1,41 2,72 2,94l0 149 -60 0 0 -329 63 0 109 153z"/>
  <polygon id="2" class="fil3" points="18978,3599 18918,3599 18918,3321 18811,3321 18811,3270 19084,3270 19084,3321 18978,3321 "/>
  <polygon id="3" class="fil3" points="19210,3549 19372,3549 19372,3599 19150,3599 19150,3270 19363,3270 19363,3321 19210,3321 19210,3406 19342,3406 19342,3456 19210,3456 "/>
  <path id="4" class="fil3" d="M19699 3369c0,23 -7,42 -19,58 -13,16 -33,28 -59,36l0 1 98 135 -72 0 -90 -127 -41 0 0 127 -61 0 0 -329 100 0c17,0 32,1 47,3 14,2 26,5 36,9 20,7 34,18 45,32 10,15 16,33 16,55zm-153 52c13,0 25,0 35,-2 9,-1 17,-3 24,-5 12,-5 20,-11 25,-19 4,-8 7,-17 7,-27 0,-9 -2,-17 -6,-24 -4,-7 -10,-12 -19,-16 -5,-2 -12,-4 -21,-6 -9,-1 -19,-1 -32,-1l-43 0 0 100 30 0z"/>
  <path class="fil3" d="M18079 4907c0,-8 -2,-15 -6,-20 -4,-5 -10,-9 -17,-13 -7,-3 -15,-6 -23,-8 -9,-2 -18,-4 -28,-6 -13,-2 -25,-6 -37,-10 -11,-3 -21,-9 -30,-16 -9,-6 -16,-15 -21,-26 -5,-10 -8,-23 -8,-39 0,-17 3,-32 9,-45 6,-13 14,-24 25,-32 10,-9 22,-15 37,-19 14,-4 29,-6 47,-6 17,0 35,1 53,5 17,3 33,8 46,13l0 52c-18,-7 -34,-12 -50,-15 -15,-3 -30,-5 -44,-5 -20,0 -35,4 -46,11 -10,7 -16,18 -16,33 0,8 2,15 6,20 3,6 8,10 14,14 6,3 13,6 21,8 8,2 16,4 25,6 14,3 27,7 39,10 13,4 24,10 34,16 10,7 18,16 23,27 6,11 9,26 9,43 0,18 -3,33 -10,46 -6,13 -16,24 -28,32 -12,8 -26,15 -44,19 -17,4 -36,6 -56,6 -18,0 -36,-2 -53,-5 -17,-4 -32,-9 -43,-15l0 -51c16,7 32,12 47,15 16,3 32,5 48,5 10,0 19,-1 28,-2 9,-2 18,-4 25,-8 7,-4 13,-9 17,-16 5,-6 7,-14 7,-24z"/>
  <polygon id="1" class="fil3" points="18288,4809 18440,4809 18440,4673 18501,4673 18501,5002 18440,5002 18440,4859 18288,4859 18288,5002 18228,5002 18228,4673 18288,4673 "/>
  <polygon id="2" class="fil3" points="18599,5002 18599,4673 18659,4673 18659,5002 "/>
  <polygon id="3" class="fil3" points="18818,5002 18758,5002 18758,4673 18967,4673 18967,4723 18818,4723 18818,4809 18946,4809 18946,4859 18818,4859 "/>
  <polygon id="4" class="fil3" points="19174,5002 19114,5002 19114,4723 19008,4723 19008,4673 19280,4673 19280,4723 19174,4723 "/>
  <path class="fil7" d="M834 4907c0,-8 -2,-15 -6,-20 -4,-5 -10,-9 -17,-13 -7,-3 -15,-6 -23,-8 -9,-2 -18,-4 -28,-6 -13,-2 -25,-6 -37,-10 -11,-3 -21,-9 -30,-16 -9,-6 -16,-15 -21,-26 -6,-10 -8,-23 -8,-39 0,-17 3,-32 9,-45 6,-13 14,-24 25,-32 10,-9 22,-15 37,-19 14,-4 29,-6 47,-6 17,0 35,1 53,5 17,3 33,8 45,13l0 52c-17,-7 -33,-12 -49,-15 -15,-3 -30,-5 -44,-5 -20,0 -35,4 -46,11 -10,7 -16,18 -16,33 0,8 2,15 6,20 3,6 8,10 14,14 6,3 13,6 21,8 8,2 16,4 25,6 14,3 27,7 39,10 13,4 24,10 34,16 10,7 18,16 23,27 6,11 9,26 9,43 0,18 -3,33 -10,46 -6,13 -16,24 -28,32 -12,8 -26,15 -44,19 -17,4 -36,6 -56,6 -18,0 -36,-2 -53,-5 -17,-4 -32,-9 -43,-15l0 -51c16,7 32,12 47,15 16,3 32,5 48,5 10,0 19,-1 28,-2 9,-2 17,-4 25,-8 7,-4 13,-9 17,-16 5,-6 7,-14 7,-24z"/>
  <polygon id="1" class="fil7" points="1043,4809 1195,4809 1195,4673 1256,4673 1256,5002 1195,5002 1195,4859 1043,4859 1043,5002 983,5002 983,4673 1043,4673 "/>
  <polygon id="2" class="fil7" points="1354,5002 1354,4673 1414,4673 1414,5002 "/>
  <polygon id="3" class="fil7" points="1573,5002 1513,5002 1513,4673 1722,4673 1722,4723 1573,4723 1573,4809 1701,4809 1701,4859 1573,4859 "/>
  <polygon id="4" class="fil7" points="1929,5002 1869,5002 1869,4723 1763,4723 1763,4673 2035,4673 2035,4723 1929,4723 "/>
  <g id="_646388656">
   <path class="fil3" d="M820 5911c-17,0 -32,3 -46,8 -14,5 -26,13 -35,24 -10,10 -18,23 -24,38 -5,15 -8,32 -8,52 0,19 2,36 8,51 5,15 12,27 21,37 10,10 22,17 35,22 14,5 29,8 47,8 12,0 25,-1 38,-3 13,-2 25,-5 36,-9l0 52c-11,3 -24,6 -37,8 -13,1 -27,2 -41,2 -28,0 -53,-4 -74,-12 -21,-7 -38,-19 -53,-33 -14,-15 -25,-32 -32,-52 -7,-21 -11,-43 -11,-67 0,-26 4,-49 12,-70 8,-22 19,-40 33,-56 14,-16 32,-28 54,-37 21,-9 46,-14 73,-14 14,0 27,1 40,3 12,2 23,4 33,8l0 50c-13,-3 -25,-6 -36,-8 -12,-1 -23,-2 -33,-2z"/>
   <polygon id="1" class="fil3" points="1108,6195 1048,6195 1048,5917 941,5917 941,5867 1214,5867 1214,5917 1108,5917 "/>
   <polygon id="2" class="fil3" points="1340,6145 1502,6145 1502,6195 1280,6195 1280,5867 1493,5867 1493,5917 1340,5917 1340,6002 1472,6002 1472,6052 1340,6052 "/>
   <path id="3" class="fil3" d="M1677 6068c-6,0 -11,0 -16,0 -6,0 -11,-1 -15,-1l0 128 -61 0 0 -328 95 0c16,0 30,0 42,2 12,1 23,3 32,6 22,7 40,18 52,33 12,15 18,34 18,57 0,16 -3,30 -10,43 -6,13 -16,24 -29,32 -12,9 -28,16 -46,21 -18,5 -39,7 -62,7zm-31 -52c3,1 8,1 13,1 5,1 11,1 17,1 16,0 29,-2 40,-4 11,-3 20,-7 27,-11 6,-5 11,-11 14,-17 3,-7 5,-14 5,-22 0,-10 -3,-18 -7,-25 -4,-7 -12,-13 -23,-16 -6,-2 -13,-4 -21,-5 -9,-1 -19,-1 -31,-1l-34 0 0 99z"/>
   <polygon id="4" class="fil3" points="1968,6145 2130,6145 2130,6195 1908,6195 1908,5867 2121,5867 2121,5917 1968,5917 1968,6002 2099,6002 2099,6052 1968,6052 "/>
   <polygon id="5" class="fil3" points="2348,6195 2288,6195 2288,5917 2181,5917 2181,5867 2454,5867 2454,5917 2348,5917 "/>
   <path id="6" class="fil3" d="M2580 5994c14,-1 28,-2 41,-2 25,0 47,2 65,7 29,6 51,17 65,33 14,15 21,35 21,58 0,20 -5,38 -16,54 -11,16 -28,28 -50,37 -12,5 -26,8 -42,11 -16,2 -36,3 -59,3l-85 0 0 -328 60 0 0 127zm0 151l29 0c11,0 20,0 29,-1 9,-1 17,-2 25,-4 14,-3 25,-9 34,-17 8,-8 13,-18 13,-32 0,-11 -4,-20 -10,-27 -7,-7 -18,-13 -32,-16 -7,-2 -14,-3 -23,-4 -8,0 -17,-1 -27,-1 -14,0 -26,1 -38,2l0 100z"/>
   <path class="fil3" d="M1512 6372c0,15 -3,28 -10,40 -6,11 -17,21 -32,29l0 1c9,3 16,6 23,11 7,4 13,9 17,15 5,6 9,13 12,21 3,7 4,16 4,25 0,8 -1,17 -4,26 -2,9 -7,18 -13,26 -6,9 -15,17 -26,24 -10,7 -24,13 -40,17 -4,1 -9,2 -13,3 -5,1 -11,1 -17,2 -5,1 -12,1 -19,1 -7,1 -16,1 -25,1l-95 0 0 -329 114 0c24,0 44,2 59,7 11,4 21,9 29,14 8,6 15,13 20,20 5,7 9,14 12,22 2,8 4,16 4,24zm-178 99l0 92 39 0c11,0 20,0 27,-1 8,0 14,-1 20,-2 8,-2 15,-5 21,-8 5,-3 10,-6 13,-10 4,-4 6,-8 8,-13 1,-4 2,-9 2,-15 0,-9 -3,-17 -8,-24 -5,-7 -13,-12 -24,-15 -4,-2 -10,-3 -16,-3 -7,-1 -15,-1 -25,-1l-57 0zm54 -51c17,0 29,-1 37,-5 9,-3 15,-9 19,-15 4,-7 6,-14 6,-23 0,-8 -2,-16 -7,-23 -4,-7 -12,-12 -22,-15 -5,-1 -10,-2 -16,-3 -6,-1 -13,-1 -22,-1l-49 0 0 85 54 0z"/>
   <path id="1" class="fil3" d="M1767 6329c-16,0 -31,3 -45,8 -14,6 -26,14 -36,24 -10,10 -17,23 -23,38 -5,15 -8,33 -8,52 0,20 2,37 7,51 5,15 13,27 22,37 10,10 21,17 35,22 14,5 29,8 47,8 12,0 25,-1 38,-3 13,-2 25,-5 36,-8l0 51c-11,3 -24,6 -37,8 -13,2 -27,3 -41,3 -28,0 -53,-4 -74,-12 -21,-8 -39,-19 -53,-34 -14,-14 -25,-32 -32,-52 -7,-20 -11,-43 -11,-67 0,-25 4,-48 12,-70 7,-21 18,-40 33,-56 14,-16 32,-28 54,-37 21,-9 46,-14 73,-14 14,0 27,1 40,3 12,2 23,5 33,8l0 51c-13,-4 -25,-7 -36,-8 -12,-2 -23,-3 -34,-3z"/>
   <polygon id="2" class="fil3" points="1981,6563 2143,6563 2143,6614 1921,6614 1921,6285 2134,6285 2134,6335 1981,6335 1981,6420 2113,6420 2113,6471 1981,6471 "/>
  </g>
  <g id="_458908000">
   <path class="fil3" d="M17081 5927c0,14 -3,27 -9,39 -7,12 -17,22 -32,30l0 1c8,2 16,6 23,10 6,5 12,10 17,16 5,6 9,13 12,20 3,8 4,16 4,25 0,8 -1,17 -4,26 -2,9 -7,18 -13,27 -7,8 -15,16 -26,24 -11,7 -24,12 -40,17 -4,1 -9,2 -14,2 -5,1 -10,2 -16,3 -6,0 -12,1 -19,1 -8,0 -16,0 -25,0l-96 0 0 -329 115 0c24,0 44,3 59,8 11,3 20,8 29,14 8,6 15,12 20,19 5,7 9,15 12,23 2,8 3,16 3,24zm-177 98l0 93 39 0c11,0 20,0 27,-1 8,-1 14,-2 20,-3 8,-2 15,-4 20,-7 6,-3 11,-7 14,-10 3,-4 6,-9 7,-13 2,-5 3,-10 3,-15 0,-9 -3,-17 -8,-24 -5,-7 -13,-12 -24,-16 -5,-1 -10,-2 -17,-3 -6,-1 -14,-1 -24,-1l-57 0zm54 -50c16,0 28,-2 36,-5 9,-4 16,-9 20,-16 4,-6 5,-14 5,-22 0,-9 -2,-17 -6,-24 -5,-6 -12,-11 -23,-15 -4,-1 -9,-2 -15,-2 -6,-1 -13,-1 -22,-1l-49 0 0 85 54 0z"/>
   <path id="1" class="fil3" d="M17459 6168l0 -329 61 0 0 329 -61 0zm-222 -329l0 128c12,-1 24,-2 38,-2 11,0 22,1 32,1 10,1 20,3 29,4 15,4 29,8 40,13 11,6 21,13 28,21 7,8 13,17 17,27 3,10 5,21 5,32 0,11 -2,22 -5,32 -4,10 -9,19 -16,27 -7,9 -15,16 -26,22 -10,7 -22,12 -36,16 -10,3 -21,5 -34,6 -13,1 -29,2 -46,2l-86 0 0 -329 60 0zm0 279l31 0c12,0 23,-1 33,-2 10,-1 18,-3 26,-5 11,-4 20,-9 27,-17 6,-7 9,-17 9,-28 0,-12 -3,-22 -10,-30 -8,-7 -19,-13 -36,-17 -6,-1 -13,-2 -20,-2 -8,-1 -16,-1 -24,-1 -13,0 -25,1 -36,2l0 100z"/>
   <path id="2" class="fil3" d="M17618 6118c13,-17 25,-34 36,-53 11,-18 21,-39 29,-62 9,-22 17,-47 23,-74 6,-27 11,-57 15,-90l170 0 0 279 39 0 0 159 -60 0 0 -109 -212 0 0 109 -60 0 0 -159 20 0zm154 -228c-4,25 -8,48 -13,69 -5,21 -11,40 -18,58 -7,18 -15,36 -24,52 -9,16 -19,32 -30,48l0 1 144 0 0 -228 -59 0z"/>
   <polygon id="3" class="fil3" points="18079,6118 18241,6118 18241,6168 18019,6168 18019,5839 18232,5839 18232,5890 18079,5890 18079,5975 18211,5975 18211,6025 18079,6025 "/>
   <path id="4" class="fil3" d="M18456 5890c-6,39 -11,73 -17,102 -6,29 -12,54 -18,75 -6,20 -13,38 -20,51 -8,14 -16,24 -24,32 -8,8 -17,14 -27,17 -10,3 -20,5 -32,5 -9,0 -18,-1 -25,-3l0 -54c6,1 12,2 17,2 7,0 12,-1 17,-3 5,-2 10,-6 15,-11 5,-6 10,-14 15,-26 5,-12 11,-28 16,-48 6,-21 11,-47 17,-77 5,-31 11,-69 16,-113l176 0 0 329 -61 0 0 -278 -65 0z"/>
   <path id="5" class="fil3" d="M18905 5839l63 0 0 329 -61 0 0 -151c0,-19 1,-49 3,-91l-1 0c-11,19 -31,48 -59,88l-107 154 -63 0 0 -329 60 0 0 152c0,24 -1,54 -3,91l1 0c11,-18 30,-47 58,-87l109 -156z"/>
   <polygon id="6" class="fil3" points="19201,6168 19140,6168 19140,5890 19034,5890 19034,5839 19307,5839 19307,5890 19201,5890 "/>
   <path id="7" class="fil3" d="M19433 5967c14,-1 27,-2 40,-2 25,0 47,2 66,6 29,7 50,18 65,34 14,15 21,35 21,58 0,20 -6,38 -17,54 -10,15 -27,28 -49,37 -12,4 -26,8 -42,10 -17,3 -36,4 -59,4l-85 0 0 -329 60 0 0 128zm0 151l29 0c10,0 20,-1 29,-1 9,-1 17,-2 24,-4 14,-4 26,-9 34,-17 9,-8 13,-18 13,-32 0,-11 -3,-20 -10,-27 -6,-8 -17,-13 -32,-17 -6,-1 -14,-2 -22,-3 -8,-1 -18,-1 -28,-1 -13,0 -25,1 -37,2l0 100z"/>
   <path class="fil3" d="M18037 6393c0,14 -3,27 -9,39 -6,12 -17,22 -32,30l0 1c8,3 16,6 23,11 6,4 12,9 17,15 5,6 9,13 12,20 3,8 4,16 4,26 0,8 -1,16 -4,25 -2,10 -7,18 -13,27 -7,9 -15,17 -26,24 -10,7 -24,13 -40,17 -4,1 -9,2 -14,3 -4,0 -10,1 -16,2 -6,0 -12,1 -19,1 -8,0 -16,0 -25,0l-96 0 0 -328 115 0c24,0 44,2 59,7 11,4 20,8 29,14 8,6 15,12 20,19 5,8 9,15 12,23 2,8 3,16 3,24zm-177 98l0 93 39 0c11,0 20,0 27,-1 8,0 14,-1 20,-3 8,-1 15,-4 20,-7 6,-3 11,-6 14,-10 3,-4 6,-8 7,-13 2,-5 3,-10 3,-15 0,-9 -3,-17 -8,-24 -5,-7 -13,-12 -24,-15 -5,-2 -10,-3 -17,-4 -6,0 -14,-1 -24,-1l-57 0zm54 -50c16,0 28,-2 37,-5 8,-4 15,-9 19,-16 4,-6 6,-14 6,-22 0,-9 -3,-17 -7,-23 -5,-7 -12,-12 -23,-15 -4,-2 -9,-3 -15,-3 -6,-1 -13,-1 -22,-1l-49 0 0 85 54 0z"/>
   <path id="1" class="fil3" d="M18293 6350c-16,0 -31,3 -45,8 -14,5 -26,13 -36,24 -10,10 -18,23 -23,38 -6,15 -8,32 -8,52 0,19 2,36 7,51 5,15 12,27 22,37 10,10 21,17 35,22 13,5 29,8 46,8 13,0 26,-1 38,-3 13,-2 26,-5 37,-9l0 52c-12,3 -24,6 -37,8 -14,1 -27,2 -42,2 -27,0 -52,-4 -73,-12 -21,-8 -39,-19 -53,-33 -14,-15 -25,-32 -32,-52 -7,-21 -11,-43 -11,-67 0,-26 4,-49 12,-70 7,-22 18,-40 33,-56 14,-16 32,-28 54,-37 21,-9 46,-14 73,-14 14,0 27,1 39,3 13,2 24,4 34,8l0 50c-13,-4 -25,-6 -37,-8 -11,-1 -22,-2 -33,-2z"/>
   <polygon id="2" class="fil3" points="18507,6584 18669,6584 18669,6634 18447,6634 18447,6306 18660,6306 18660,6356 18507,6356 18507,6441 18638,6441 18638,6491 18507,6491 "/>
  </g>
  <path class="fil3" d="M19707 679l-1047 0 20 90c-157,-67 -328,-114 -516,-140 182,-21 355,-66 516,-140l-20 91 1047 0 0 99z"/>
 </g>
</svg>
