<?xml version="1.0" encoding="UTF-8"?>
<!DOCTYPE svg PUBLIC "-//W3C//DTD SVG 1.1//EN" "http://www.w3.org/Graphics/SVG/1.1/DTD/svg11.dtd">
<!-- Creator: CorelDRAW 2020 (64-Bit) -->
<svg xmlns="http://www.w3.org/2000/svg" xml:space="preserve" width="195.968mm" height="67.9096mm" style="shape-rendering:geometricPrecision; text-rendering:geometricPrecision; image-rendering:optimizeQuality; fill-rule:evenodd; clip-rule:evenodd" viewBox="0 0 20010 6934"> <defs>  

//glass
<style type="text/css">    
.str0 {stroke:#FEFEFE;stroke-width:54.0255;stroke-linejoin:round}  
.fil0 {fill:#00000077}    
 

.fil2 {fill:#FEFEFE00}    
.fil3 {fill:#00000066}    
.fil4 {fill:#FEFEFE;fill-rule:nonzero}    
.fil1 {fill:#FEFEFE;fill-rule:nonzero}    
.lang-en .ru, .lang-ru .en {display: none}    
.lang-en .act-en, .lang-ru .act-ru {fill:#FF0033}    
.caps #caps-pipka {fill:#FF0033}  


               
              
                g[data-code]:hover > path:nth-child(1), 
                g[data-code]:hover > circle:nth-child(1){
                fill: #7799aa55!important;
                }
                g[data-code]:active > path:nth-child(1),
                g[data-code]:hover > rect:nth-child(1){
                fill: #00ffff66!important;
                }     

      
                g[data-code]:active > path:nth-child(2), 
                g[data-code]:active > circle:nth-child(2){
                fill: #33ffff66!important; 
                }
                g[data-code]:active > path:nth-child(2), 
                g[data-code]:active > rect:nth-child(2){
                fill: #ffffff!important; 



</style>



 </defs>    <g id="wrapper" class="lang-en">  <g data-code="Backquote">   <path class="fil0 str0" d="M63 171l0 973c0,211 540,211 540,0l0 -973c0,-74 -66,-122 -153,-144l-234 0c-86,22 -153,70 -153,144z"/>    <path class="fil1" d="M310 666c18,-7 34,-10 48,-10 29,0 53,10 70,29 17,19 26,43 26,72 0,31 -11,57 -33,77 -21,20 -48,29 -80,29 -40,0 -72,-16 -96,-47 -22,-30 -32,-65 -32,-107 0,-47 11,-91 34,-132 23,-42 54,-73 94,-93 23,-13 46,-19 67,-19 27,0 41,12 41,37 0,15 -7,26 -21,33 -41,21 -68,37 -81,48 -24,22 -36,50 -37,83z"/>  </g>      <g data-code="Digit1">   <path class="fil0 str0" d="M747 171l0 973c0,84 60,144 145,144l972 0c84,0 144,-60 144,-144l0 -973c0,-84 -60,-144 -144,-144l-972 0c-85,0 -145,60 -145,144z"/>        <path class="fil1" d="M1399 914l75 0c42,0 64,22 64,66 0,44 -22,66 -64,66l-299 0c-43,0 -64,-22 -64,-66 0,-44 21,-66 64,-66l79 0 0 -372c-36,0 -58,-1 -67,-4 -23,-6 -35,-23 -35,-49 0,-14 7,-27 19,-38 35,-29 91,-44 169,-44 14,0 25,1 31,3 14,4 23,19 27,47 1,7 1,27 1,60l0 397z"/>        <path class="fil1" d="M1710 507c0,-15 5,-27 15,-37 10,-10 22,-15 36,-15 14,0 26,5 36,15 10,10 15,22 15,37 0,14 -5,26 -15,36 -10,11 -22,16 -36,16 -14,0 -26,-5 -36,-16 -10,-10 -15,-22 -15,-36zm97 -152c0,45 -16,68 -46,68 -31,0 -46,-23 -46,-68l0 -174c0,-45 15,-68 46,-68 30,0 46,23 46,68l0 174z"/>  </g>      <g data-code="Digit2">   <path class="fil0 str0" d="M2188 171l0 973c0,84 60,144 144,144l973 0c84,0 144,-60 144,-144l0 -973c0,-84 -60,-144 -144,-144l-973 0c-84,0 -144,60 -144,144z"/>        <path class="fil1" d="M2988 983c0,44 -34,66 -102,66l-255 0c-58,0 -87,-22 -87,-66 0,-18 11,-39 31,-63 35,-38 69,-76 103,-114 42,-46 75,-85 100,-118 27,-37 41,-68 41,-94 0,-17 -5,-31 -14,-42 -10,-12 -23,-17 -40,-17 -18,0 -33,7 -46,22 -8,10 -16,27 -26,50 -10,23 -18,39 -24,47 -10,12 -24,18 -43,18 -21,0 -38,-7 -51,-21 -13,-14 -20,-32 -20,-53 0,-17 4,-36 12,-57 14,-42 40,-76 78,-102 38,-26 79,-39 124,-39 58,0 106,16 144,49 39,35 58,81 58,139 0,52 -26,112 -78,180 -27,33 -73,83 -140,149l133 0c68,0 102,22 102,66z"/>        <path class="fil1" d="M3184 219c20,0 36,5 48,14 5,-9 13,-14 22,-14 7,0 12,2 16,6 5,3 7,9 7,15l0 104c0,21 8,32 25,32 18,0 30,-8 37,-24 6,-14 9,-38 9,-70 0,-43 -16,-76 -48,-98 -28,-19 -65,-28 -111,-28 -52,0 -92,13 -121,40 -30,28 -44,67 -44,119 0,51 14,90 44,117 28,26 68,40 120,40 24,0 47,-4 71,-11 6,-2 13,-5 19,-7 8,-3 15,-4 20,-4 11,0 16,7 16,19 0,9 -12,17 -38,26 -17,5 -33,8 -50,11 -14,2 -27,3 -37,3 -60,0 -109,-17 -147,-52 -39,-35 -59,-83 -59,-142 0,-60 20,-108 59,-144 37,-35 87,-52 147,-52 31,0 59,4 83,11 36,11 65,30 85,55 21,27 32,58 32,96 0,86 -32,129 -96,129 -9,0 -19,-2 -30,-7 -10,-5 -17,-12 -21,-20 -18,18 -40,27 -67,27 -25,0 -45,-10 -60,-30 -15,-18 -22,-40 -22,-65 0,-26 9,-49 26,-68 18,-19 39,-28 65,-28zm-40 96c0,15 3,27 9,37 7,13 18,19 31,19 30,0 45,-20 45,-58 0,-37 -14,-55 -42,-55 -15,0 -26,6 -34,18 -6,10 -9,23 -9,39z"/>  </g>      <g data-code="Digit3">   <path class="fil0 str0" d="M3629 171l0 973c0,84 60,144 144,144l973 0c84,0 144,-60 144,-144l0 -973c0,-84 -60,-144 -144,-144l-973 0c-84,0 -144,60 -144,144z"/>        <path class="fil1" d="M4302 699c70,36 105,89 105,161 0,60 -23,110 -68,149 -44,37 -96,56 -158,56 -54,0 -103,-16 -147,-46 -48,-34 -72,-77 -72,-130 0,-17 6,-32 19,-47 12,-14 27,-21 44,-21 18,0 35,9 51,28 13,18 27,35 41,53 18,19 40,29 66,29 23,0 41,-8 55,-24 14,-16 21,-35 21,-58 0,-26 -9,-44 -28,-56 -12,-7 -33,-13 -63,-18 -40,-7 -60,-28 -60,-64 0,-20 5,-34 15,-44 9,-8 24,-14 45,-19 44,-10 66,-32 66,-65 0,-36 -17,-54 -52,-54 -25,0 -46,7 -64,20 -1,1 -13,14 -37,38 -13,14 -27,21 -41,21 -16,0 -30,-6 -42,-18 -11,-11 -17,-26 -17,-42 0,-18 5,-35 16,-54 18,-30 45,-54 81,-72 35,-17 71,-26 107,-26 51,0 95,17 133,49 37,32 56,74 56,124 0,52 -24,95 -72,130z"/>        <path class="fil1" d="M4774 270l-11 48c22,0 35,1 39,2 14,4 21,13 21,28 0,20 -13,29 -39,29l-34 0 -13 56c-6,28 -18,41 -37,41 -24,0 -36,-12 -36,-36 0,-8 4,-29 12,-61l-65 0 -13 56c-6,28 -18,41 -37,41 -24,0 -36,-12 -36,-36 0,-8 4,-29 11,-61 -20,0 -33,0 -38,-2 -14,-3 -21,-12 -21,-27 0,-20 13,-30 39,-30l33 0 12 -48 -31 0c-26,0 -39,-10 -39,-30 0,-19 13,-29 39,-29l44 0 16 -72c6,-27 17,-40 36,-40 9,0 18,2 25,6 9,5 13,12 13,20 0,7 -1,16 -3,29l-13 57 65 0 16 -72c6,-27 18,-40 36,-40 9,0 17,2 25,6 8,5 13,12 13,20 0,9 -1,19 -3,29l-12 57c21,0 34,1 38,2 14,3 22,12 22,27 0,20 -13,30 -39,30l-35 0zm-74 0l-65 0 -11 48 65 0 11 -48z"/>  </g>      <g data-code="Digit4">   <path class="fil0 str0" d="M5070 171l0 973c0,84 60,144 144,144l973 0c84,0 144,-60 144,-144l0 -973c0,-84 -60,-144 -144,-144l-973 0c-84,0 -144,60 -144,144z"/>        <path class="fil1" d="M5782 903l0 72c0,51 -24,76 -70,76 -41,0 -62,-27 -62,-81l0 -67 -187 0c-26,0 -47,-7 -64,-21 -18,-13 -26,-32 -26,-57 0,-34 14,-73 43,-120l146 -232c29,-46 65,-68 107,-68 40,0 69,15 89,45 16,26 24,59 24,100l0 231c46,0 69,20 69,61 0,40 -23,61 -69,61zm-280 -122l148 0 0 -240 -148 240z"/>        <path class="fil1" d="M6059 470c-30,-3 -52,-10 -68,-20 -15,-9 -23,-20 -23,-32 0,-10 3,-18 10,-23 6,-6 15,-8 25,-8 6,0 18,2 34,7 16,5 31,8 43,8 10,0 18,-3 25,-9 7,-6 11,-13 11,-23 0,-13 -5,-22 -15,-28 -9,-5 -22,-10 -40,-16 -29,-8 -50,-18 -63,-29 -18,-15 -27,-35 -27,-60 0,-26 9,-47 25,-65 16,-17 37,-28 63,-33l0 -23c0,-16 6,-23 18,-23 7,0 12,2 14,6 2,4 3,9 3,17l0 21c20,2 36,5 49,11 20,8 29,20 29,35 0,21 -11,31 -32,31 -7,0 -16,-2 -29,-5 -12,-4 -21,-6 -28,-6 -9,0 -17,2 -24,7 -7,5 -11,12 -11,20 0,6 1,11 4,14 4,5 12,10 25,14 9,3 19,6 29,10 58,19 87,51 87,95 0,29 -10,52 -28,71 -19,19 -42,30 -71,34l0 29c0,17 -5,25 -17,25 -12,0 -18,-8 -18,-25l0 -27z"/>  </g>      <g data-code="Digit5">   <path class="fil0 str0" d="M6511 171l0 973c0,84 60,144 144,144l973 0c84,0 144,-60 144,-144l0 -973c0,-84 -60,-144 -144,-144l-973 0c-84,0 -144,60 -144,144z"/>        <path class="fil1" d="M6993 619c22,-5 43,-7 62,-7 57,0 103,21 139,63 34,40 51,88 51,146 0,69 -23,126 -68,172 -45,45 -103,68 -172,68 -27,0 -53,-4 -78,-11 -32,-9 -58,-23 -81,-41 -28,-22 -42,-46 -42,-74 0,-18 5,-33 17,-45 11,-13 25,-19 42,-19 14,0 35,9 64,27 29,18 55,27 77,27 25,0 47,-10 64,-28 17,-19 25,-42 25,-67 0,-27 -6,-48 -20,-65 -13,-16 -33,-25 -59,-25 -13,0 -31,4 -54,12 -22,7 -40,11 -52,11 -37,0 -56,-21 -56,-62 0,-10 2,-27 5,-50l20 -164c4,-31 13,-52 27,-62 12,-9 34,-14 67,-14l175 0c61,0 92,22 92,67 0,43 -29,65 -87,65l-148 0 -10 76z"/>        <path class="fil1" d="M7243 184c0,-23 8,-42 23,-58 16,-16 34,-25 57,-25 22,0 41,8 56,24 15,16 23,36 23,59 0,22 -8,41 -23,58 -15,16 -34,24 -56,24 -23,0 -41,-8 -57,-24 -15,-17 -23,-36 -23,-58zm53 0c0,7 3,13 8,18 5,6 12,9 19,9 7,0 13,-3 19,-8 5,-6 8,-12 8,-19 0,-8 -3,-15 -8,-20 -5,-5 -12,-8 -19,-8 -8,0 -14,3 -19,8 -5,6 -8,12 -8,20zm141 212c0,-22 7,-41 23,-57 15,-17 34,-25 56,-25 22,0 41,8 56,24 15,16 23,35 23,58 0,23 -8,42 -23,58 -15,16 -34,24 -56,24 -22,0 -41,-8 -56,-24 -16,-16 -23,-35 -23,-58zm53 0c0,7 2,13 7,19 6,5 12,8 19,8 7,0 14,-2 19,-8 5,-5 7,-11 7,-19 0,-8 -2,-14 -7,-19 -5,-5 -11,-8 -19,-8 -8,0 -14,3 -19,8 -5,6 -7,12 -7,19zm-164 87c-8,0 -15,-3 -21,-9 -6,-6 -9,-13 -9,-21 0,-8 5,-20 13,-34l166 -291c11,-20 24,-29 37,-29 20,0 30,8 30,26 0,8 -3,18 -10,30l-170 298c-11,20 -23,30 -36,30z"/>  </g>      <g data-code="Digit6">   <path class="fil0 str0" d="M7952 171l0 973c0,84 60,144 144,144l972 0c85,0 145,-60 145,-144l0 -973c0,-84 -60,-144 -145,-144l-972 0c-84,0 -144,60 -144,144z"/>        <path class="fil1" d="M8454 643c26,-3 42,-5 50,-5 54,0 97,21 132,64 33,39 49,85 49,140 0,64 -23,117 -69,159 -46,42 -102,64 -167,64 -65,0 -118,-22 -160,-65 -41,-43 -62,-98 -62,-164 0,-90 49,-197 148,-320 64,-81 112,-121 142,-121 18,0 34,6 48,19 14,13 21,29 21,47 0,16 -11,37 -33,63 -17,19 -33,37 -50,56 -16,18 -33,39 -49,63zm-80 201c0,23 8,43 23,61 16,18 35,27 58,27 23,0 43,-9 58,-27 16,-18 23,-38 23,-61 0,-24 -7,-44 -22,-61 -16,-18 -35,-26 -59,-26 -23,0 -43,8 -58,26 -15,17 -23,37 -23,61z"/>        <path class="fil1" d="M8920 272l-69 42c-14,8 -27,12 -37,12 -11,0 -20,-4 -27,-12 -7,-8 -11,-18 -11,-29 0,-16 8,-31 24,-43l87 -68c10,-8 21,-12 33,-12 12,0 22,4 32,12l88 68c16,12 24,27 24,43 0,12 -4,21 -11,29 -6,8 -16,12 -27,12 -11,0 -23,-4 -37,-12l-69 -42z"/>  </g>      <g data-code="Digit7">   <path class="fil0 str0" d="M9393 171l0 973c0,84 59,144 144,144l972 0c85,0 144,-60 144,-144l0 -973c0,-84 -59,-144 -144,-144l-972 0c-85,0 -144,60 -144,144z"/>        <path class="fil1" d="M9935 546l-196 0c-57,0 -86,-22 -86,-67 0,-43 29,-65 87,-65l257 0c70,0 105,26 105,78 0,15 -5,33 -15,54l-208 450c-21,45 -46,68 -75,68 -21,0 -38,-7 -53,-21 -14,-13 -22,-30 -22,-50 0,-16 7,-36 19,-62l187 -385z"/>        <path class="fil1" d="M10464 427c-26,24 -60,36 -100,36 -29,0 -54,-9 -74,-27 -21,-19 -32,-42 -32,-71 0,-41 25,-74 73,-97 -20,-22 -30,-44 -30,-65 0,-24 9,-42 29,-56 17,-12 38,-19 62,-19 25,0 46,7 64,20 18,14 28,34 28,58 0,32 -18,59 -54,80l43 52c11,-14 21,-25 28,-32 8,-7 16,-11 24,-11 7,0 14,3 19,9 5,6 7,13 7,21 0,13 -13,32 -39,58 9,11 15,18 17,21 7,10 10,18 10,26 0,8 -3,15 -9,21 -5,6 -13,9 -21,9 -11,0 -26,-11 -45,-33zm-37 -46l-58 -67c-27,12 -40,29 -40,50 0,12 4,22 12,29 8,8 18,12 31,12 18,0 37,-8 55,-24zm-35 -137c23,-10 35,-22 35,-38 0,-8 -4,-14 -10,-19 -7,-6 -14,-8 -22,-8 -7,0 -14,2 -20,7 -6,5 -9,11 -9,19 0,11 9,24 26,39z"/>  </g>      <g data-code="Digit8">   <path class="fil0 str0" d="M10833 171l0 973c0,84 60,144 145,144l972 0c84,0 144,-60 144,-144l0 -973c0,-84 -60,-144 -144,-144l-972 0c-85,0 -145,60 -145,144z"/>        <path class="fil1" d="M11168 702c-39,-34 -58,-77 -58,-127 0,-53 20,-96 62,-130 39,-32 86,-48 140,-48 55,0 101,16 140,47 41,34 62,78 62,131 0,51 -19,93 -58,127 57,36 85,88 85,157 0,62 -23,112 -69,151 -44,37 -97,56 -160,56 -63,0 -116,-19 -160,-56 -46,-39 -69,-89 -69,-151 0,-69 28,-122 85,-157zm58 144c0,24 9,45 25,63 17,18 37,28 61,28 25,0 45,-9 61,-27 16,-18 25,-39 25,-64 0,-25 -9,-47 -25,-65 -16,-18 -36,-27 -61,-27 -24,0 -45,9 -61,28 -16,18 -25,39 -25,64zm21 -258c0,18 7,33 19,47 13,13 28,20 45,20 19,0 34,-7 47,-20 12,-13 19,-28 19,-47 0,-18 -7,-34 -19,-47 -13,-13 -28,-20 -47,-20 -18,0 -33,7 -45,20 -13,13 -19,29 -19,47z"/>        <path class="fil1" d="M11797 348c-9,7 -18,14 -26,22 -12,8 -22,13 -31,13 -9,0 -16,-4 -22,-11 -6,-7 -10,-15 -10,-23 0,-20 22,-35 64,-46 -42,-12 -64,-27 -64,-46 0,-8 4,-15 10,-23 6,-7 13,-10 22,-10 9,0 20,4 31,12 8,7 17,15 26,22 0,-4 -1,-12 -4,-23 -1,-10 -2,-17 -2,-23 0,-24 11,-36 32,-36 22,0 33,12 33,35 0,6 -1,14 -3,24 -2,11 -3,19 -4,23 9,-7 18,-15 27,-22 11,-8 21,-12 31,-12 8,0 16,3 22,10 6,7 9,15 9,23 0,19 -21,34 -64,46 43,12 64,27 64,46 0,9 -3,16 -9,23 -6,7 -14,11 -22,11 -9,0 -19,-5 -31,-13 -9,-8 -18,-15 -27,-22 1,4 2,12 4,23 2,9 3,17 3,23 0,24 -11,37 -33,37 -21,0 -32,-13 -32,-37 0,-5 1,-13 2,-23 3,-12 4,-20 4,-23z"/>  </g>      <g data-code="Digit9">   <path class="fil0 str0" d="M12274 171l0 973c0,84 60,144 144,144l973 0c84,0 144,-60 144,-144l0 -973c0,-84 -60,-144 -144,-144l-973 0c-84,0 -144,60 -144,144z"/>        <path class="fil1" d="M12827 611c0,-24 -8,-44 -24,-61 -15,-18 -34,-27 -58,-27 -23,0 -42,9 -57,27 -16,17 -24,37 -24,61 0,24 8,45 24,62 15,17 34,26 57,26 24,0 43,-9 58,-26 16,-17 24,-38 24,-62zm-81 201c-27,3 -43,5 -45,5 -54,0 -98,-21 -134,-61 -34,-39 -51,-85 -51,-139 0,-65 22,-119 68,-162 46,-42 102,-64 168,-64 65,0 119,22 159,64 41,43 62,97 62,164 0,91 -49,198 -148,321 -65,81 -112,121 -141,121 -18,0 -34,-7 -48,-20 -14,-14 -21,-29 -21,-47 0,-17 14,-41 41,-72 22,-23 52,-60 90,-110z"/>        <path class="fil1" d="M13177 300c0,42 6,85 18,130 4,11 7,23 11,34 5,17 7,28 7,34 0,21 -10,32 -31,32 -16,0 -29,-13 -40,-37 -24,-58 -36,-122 -36,-193 0,-33 3,-65 8,-96 12,-61 26,-101 43,-122 7,-8 15,-12 25,-12 21,0 31,10 31,32 0,6 -2,17 -7,33 -4,12 -7,23 -11,34 -12,45 -18,89 -18,131z"/>  </g>      <g data-code="Digit0">   <path class="fil0 str0" d="M13715 171l0 973c0,84 60,144 144,144l973 0c84,0 144,-60 144,-144l0 -973c0,-84 -60,-144 -144,-144l-973 0c-84,0 -144,60 -144,144z"/>        <path class="fil1" d="M13916 731c0,-93 17,-169 52,-227 42,-72 107,-108 195,-108 88,0 154,36 196,107 35,58 53,134 53,228 0,94 -18,170 -53,227 -42,71 -108,107 -196,107 -87,0 -152,-36 -194,-107 -36,-58 -53,-134 -53,-227zm248 -202c-41,0 -70,24 -88,74 -12,34 -18,76 -18,127 0,51 6,93 18,127 17,50 46,75 88,75 41,0 71,-25 88,-75 12,-34 18,-76 18,-127 0,-134 -35,-201 -106,-201z"/>        <path class="fil1" d="M14589 300c0,-44 -6,-87 -18,-131 -4,-11 -8,-23 -11,-34 -5,-17 -8,-28 -8,-33 0,-22 11,-32 32,-32 16,0 29,12 39,36 11,25 20,54 27,88 7,34 10,69 10,106 0,32 -3,64 -9,95 -11,61 -25,102 -42,122 -7,8 -15,13 -25,13 -21,0 -32,-11 -32,-32 0,-6 3,-17 8,-34 3,-11 7,-23 11,-35 12,-43 18,-86 18,-129z"/>  </g>      <g data-code="Minus">   <path class="fil0 str0" d="M15156 171l0 973c0,84 60,144 144,144l973 0c84,0 144,-60 144,-144l0 -973c0,-84 -60,-144 -144,-144l-973 0c-84,0 -144,60 -144,144z"/>        <path class="fil1" d="M15583 801c-46,0 -69,-21 -69,-61 0,-40 23,-60 70,-60l180 0c46,0 70,20 70,61 0,40 -24,60 -71,60l-180 0z"/>        <polygon class="fil1" points="15920,469 16261,469 16261,536 15920,536 "/>  </g>      <g data-code="Equal">   <path class="fil0 str0" d="M16597 171l0 973c0,84 60,144 144,144l973 0c84,0 144,-60 144,-144l0 -973c0,-84 -60,-144 -144,-144l-973 0c-84,0 -144,60 -144,144z"/>        <path class="fil1" d="M16948 645c0,-11 3,-21 11,-30 8,-9 18,-13 29,-13l439 0c12,0 21,4 29,13 7,9 11,19 11,30 0,12 -4,22 -11,31 -8,8 -17,13 -29,13l-439 0c-11,0 -21,-5 -29,-13 -8,-9 -11,-19 -11,-31zm0 187c0,-12 3,-22 11,-31 8,-8 18,-12 29,-12l439 0c12,0 22,4 29,12 8,9 11,19 11,31 0,12 -3,22 -11,30 -7,8 -17,12 -29,12l-439 0c-11,0 -21,-4 -29,-12 -8,-8 -11,-18 -11,-30z"/>        <path class="fil1" d="M17520 280l0 -137c0,-19 10,-29 32,-29 22,0 33,10 33,29l0 137 134 0c19,0 28,11 28,33 0,21 -9,31 -28,31l-134 0 0 138c0,19 -11,29 -33,29 -22,0 -32,-10 -32,-29l0 -138 -134 0c-19,0 -29,-10 -29,-31 0,-22 10,-33 29,-33l134 0z"/>  </g>      <g data-code="Backspace">   <path class="fil0 str0" d="M18002 171l0 973c0,84 60,144 144,144l1693 0c84,0 144,-60 144,-144l0 -973c0,-84 -60,-144 -144,-144l-1693 0c-84,0 -144,60 -144,144z"/>        <path class="fil4" d="M19765 707l-1048 0 20 91c-157,-67 -329,-115 -518,-141 183,-21 356,-66 518,-140l-20 91 1048 0 0 99z"/>  </g>      <g data-code="Semicolon">   <path class="fil0 str0" d="M63 1576l0 973c0,84 60,144 144,144l973 0c84,0 144,-60 144,-144l0 -973c0,-84 -60,-144 -144,-144l-973 0c-84,0 -144,60 -144,144z"/>        <path class="fil1" d="M296 2057c0,-21 8,-40 24,-56 16,-16 34,-24 56,-24 23,0 42,8 57,23 16,16 24,35 24,57 0,23 -8,42 -24,57 -15,16 -34,24 -57,24 -22,0 -41,-8 -57,-24 -15,-15 -23,-34 -23,-57zm5 477c-15,0 -29,-6 -41,-17 -12,-11 -18,-24 -18,-40 0,-12 5,-27 14,-44l71 -128c18,-32 38,-48 61,-48 17,0 31,5 42,15 12,10 17,23 17,40 0,13 -4,29 -14,45l-70 128c-17,33 -38,49 -62,49z"/>        <path class="fil1" d="M971 1980c0,-22 8,-41 23,-57 16,-16 35,-24 57,-24 23,0 43,8 58,23 15,16 23,35 23,58 0,23 -8,42 -24,57 -15,16 -34,24 -57,24 -22,0 -41,-8 -57,-24 -15,-15 -23,-34 -23,-57zm0 -269c0,-22 8,-41 24,-57 16,-16 34,-24 56,-24 23,0 42,8 57,24 16,15 24,34 24,57 0,22 -8,41 -24,57 -15,15 -34,23 -57,23 -22,0 -41,-8 -57,-23 -15,-16 -23,-35 -23,-57z"/>  </g>      <g data-code="KeyQ">   <path class="fil0 str0" d="M1463 1576l0 973c0,84 60,144 144,144l973 0c84,0 144,-60 144,-144l0 -973c0,-84 -60,-144 -144,-144l-973 0c-84,0 -144,60 -144,144z"/>        <path class="fil1 en" d="M2104 1710c94,0 169,31 223,93 53,59 80,137 80,232 0,75 -19,141 -55,198l43 39c20,19 30,39 30,61 0,17 -6,31 -17,43 -12,11 -26,17 -43,17 -17,0 -37,-8 -59,-26 -1,-1 -18,-16 -49,-45 -39,23 -90,34 -153,34 -93,0 -167,-31 -222,-92 -53,-59 -79,-135 -79,-230 0,-94 26,-171 79,-230 55,-62 129,-94 222,-94zm48 507c-27,-24 -40,-45 -40,-64 0,-16 5,-30 15,-41 10,-11 23,-17 39,-17 18,0 41,14 70,42 12,-33 19,-66 19,-101 0,-53 -12,-97 -34,-132 -27,-41 -66,-61 -117,-61 -50,0 -89,20 -116,61 -22,35 -33,79 -33,132 0,53 12,96 35,130 27,39 66,58 116,58 18,0 33,-2 46,-7z"/>        <path class="fil1 ru" d="M2231 2020l-259 343c-24,32 -52,48 -83,48 -43,0 -65,-29 -65,-86l0 -457c0,-67 24,-101 72,-101 48,0 71,34 71,101l0 295 265 -350c24,-31 49,-46 76,-46 44,0 66,32 66,96l0 446c0,68 -24,102 -71,102 -48,0 -72,-34 -72,-102l0 -289zm-132 -284c-43,0 -78,-11 -105,-32 -27,-22 -40,-45 -40,-71 0,-33 15,-49 45,-49 18,0 32,10 45,29 13,19 31,29 55,29 24,0 43,-10 55,-29 13,-19 28,-29 44,-29 31,0 47,16 47,49 0,33 -17,59 -51,79 -28,16 -60,24 -95,24z"/>  </g>      <g data-code="KeyW">   <path class="fil0 str0" d="M2904 1576l0 973c0,84 60,144 144,144l973 0c84,0 144,-60 144,-144l0 -973c0,-84 -60,-144 -144,-144l-973 0c-84,0 -144,60 -144,144z"/>        <path class="fil1 en" d="M3344 2347c-52,0 -84,-32 -99,-95l-101 -441c-3,-15 -5,-29 -5,-44 0,-20 7,-36 21,-48 14,-12 31,-18 52,-18 38,0 61,21 69,62l76 401 104 -403c11,-40 37,-60 80,-60 42,0 68,21 79,62l103 401 75 -391c9,-48 33,-72 72,-72 21,0 38,6 51,18 14,12 20,28 20,48 0,15 -1,29 -5,43l-110 442c-8,34 -18,57 -30,70 -14,16 -37,25 -69,25 -50,0 -82,-27 -96,-80l-94 -362 -90 354c-15,58 -49,88 -103,88z"/>        <path class="fil1 ru" d="M3393 2213l250 0 0 -415c0,-68 24,-102 72,-102 47,0 71,34 71,102l0 415c50,0 74,21 74,62l0 114c0,43 -21,64 -63,64 -20,0 -35,-6 -47,-17 -11,-12 -17,-27 -17,-47l0 -56 -385 0c-65,0 -98,-34 -98,-102l0 -433c0,-68 24,-102 72,-102 47,0 71,34 71,102l0 415z"/>  </g>      <g data-code="KeyE">   <path class="fil0 str0" d="M4355 1576l0 973c0,84 60,144 144,144l973 0c84,0 144,-60 144,-144l0 -973c0,-84 -60,-144 -144,-144l-973 0c-84,0 -144,60 -144,144z"/>        <path class="fil1 en" d="M5086 1709c68,0 102,22 102,67 0,45 -34,67 -102,67l-117 0 0 112 101 0c68,0 102,22 102,67 0,44 -34,66 -102,66l-101 0 0 120 122 0c68,0 102,22 102,66 0,44 -34,66 -102,66l-168 0c-36,0 -62,-6 -76,-19 -14,-12 -22,-36 -22,-72l0 -439c0,-37 8,-64 22,-79 14,-15 40,-22 78,-22l161 0z"/>        <path class="fil1 ru" d="M4920 2458c-43,0 -64,-23 -64,-68 0,-15 3,-29 8,-42l40 -100 -177 -440c-5,-13 -8,-26 -8,-41 0,-21 6,-38 18,-52 12,-13 29,-19 50,-19 27,0 49,20 66,62l123 305 3 0 113 -300c9,-23 17,-38 25,-47 11,-13 27,-20 46,-20 44,0 66,22 66,66 0,17 -3,33 -9,49l-229 588c-9,20 -17,35 -26,43 -10,11 -26,16 -45,16z"/>  </g>      <g data-code="KeyR">   <path class="fil0 str0" d="M5786 1576l0 973c0,84 59,144 144,144l972 0c85,0 144,-60 144,-144l0 -973c0,-84 -59,-144 -144,-144l-972 0c-85,0 -144,60 -144,144z"/>        <path class="fil1 en" d="M6347 2003l66 0c61,0 92,-26 92,-79 0,-50 -30,-75 -90,-75l-68 0 0 154zm0 95l0 155c0,68 -24,102 -72,102 -48,0 -72,-34 -72,-102l0 -435c0,-38 7,-64 22,-79 14,-15 40,-22 77,-22l112 0c69,0 125,15 168,45 48,34 72,85 72,152 0,47 -13,85 -40,114 -27,30 -63,49 -110,56l113 126c28,32 43,59 43,82 0,20 -7,36 -20,49 -13,13 -29,19 -49,19 -24,0 -50,-17 -77,-51l-167 -211z"/>        <path class="fil1 ru" d="M6175 2247l0 -441c0,-68 24,-102 72,-102 47,0 71,34 71,102l0 137 183 -188c33,-34 59,-51 78,-51 19,0 35,7 49,20 15,13 22,29 22,47 0,14 -7,28 -21,45 0,0 -12,12 -36,36l-144 143 192 217c24,27 36,50 36,70 0,17 -7,33 -20,46 -14,13 -29,20 -47,20 -23,0 -48,-17 -77,-50l-190 -220 -25 21 0 148c0,67 -24,101 -71,101 -48,0 -72,-34 -72,-101z"/>  </g>      <g data-code="KeyT">   <path class="fil0 str0" d="M7226 1576l0 973c0,84 60,144 145,144l972 0c84,0 144,-60 144,-144l0 -973c0,-84 -60,-144 -144,-144l-972 0c-85,0 -145,60 -145,144z"/>        <path class="fil1 en" d="M7794 1848c-52,0 -84,-2 -97,-5 -39,-8 -59,-29 -59,-62 0,-45 35,-67 103,-67l250 0c68,0 102,22 102,67 0,33 -19,54 -59,62 -12,3 -45,5 -96,5l0 402c0,68 -24,102 -72,102 -48,0 -72,-34 -72,-102l0 -402z"/>        <path class="fil1 ru" d="M7937 1709c68,0 102,22 102,67 0,44 -34,66 -102,66l-117 0 0 113 101 0c68,0 102,22 102,65 0,44 -34,66 -102,66l-101 0 0 120 122 0c68,0 102,22 102,66 0,44 -34,66 -102,66l-167 0c-37,0 -62,-6 -76,-18 -15,-13 -22,-37 -22,-72l0 -438c0,-38 7,-64 22,-79 14,-15 40,-22 77,-22l161 0z"/>  </g>      <g data-code="KeyY">   <path class="fil0 str0" d="M8667 1576l0 973c0,84 60,144 144,144l973 0c84,0 144,-60 144,-144l0 -973c0,-84 -60,-144 -144,-144l-973 0c-84,0 -144,60 -144,144z"/>        <path class="fil1 en" d="M9501 1706c16,0 31,6 44,19 12,13 19,28 19,45 0,17 -12,41 -34,72l-145 206 0 203c0,67 -24,101 -72,101 -48,0 -72,-34 -72,-101l0 -203 -146 -206c-21,-30 -32,-54 -32,-72 0,-19 7,-34 21,-46 14,-12 30,-18 49,-18 23,0 48,18 74,55l107 154 109 -155c25,-36 51,-54 78,-54z"/>        <path class="fil1 ru" d="M9152 2083l0 160c0,68 -24,102 -72,102 -48,0 -72,-34 -72,-102l0 -440c0,-68 24,-102 72,-102 48,0 72,34 72,102l0 148 263 0 0 -148c0,-68 24,-102 72,-102 48,0 72,34 72,102l0 440c0,68 -24,102 -72,102 -48,0 -72,-34 -72,-102l0 -160 -263 0z"/>  </g>      <g data-code="KeyU">   <path class="fil0 str0" d="M10108 1576l0 973c0,84 60,144 144,144l973 0c84,0 144,-60 144,-144l0 -973c0,-84 -60,-144 -144,-144l-973 0c-84,0 -144,60 -144,144z"/>        <path class="fil1 en" d="M10472 2062l0 -254c0,-68 24,-102 72,-102 47,0 71,34 71,102l0 238c0,112 43,167 127,167 85,0 127,-55 127,-167l0 -238c0,-68 24,-102 72,-102 48,0 72,34 72,102l0 254c0,89 -23,159 -68,209 -48,54 -115,81 -203,81 -87,0 -155,-27 -202,-81 -45,-50 -68,-120 -68,-209z"/>        <path class="fil1 ru" d="M10554 2243l0 -433c0,-38 7,-64 22,-79 14,-15 40,-22 77,-22l162 0c67,0 101,22 101,67 0,44 -34,66 -101,66l-118 0 0 401c0,68 -23,102 -71,102 -48,0 -72,-34 -72,-102z"/>  </g>      <g data-code="KeyI">   <path class="fil0 str0" d="M11549 1576l0 973c0,84 60,144 144,144l973 0c84,0 144,-60 144,-144l0 -973c0,-84 -60,-144 -144,-144l-973 0c-84,0 -144,60 -144,144z"/>        <path class="fil1 en" d="M12263 2250c0,68 -24,102 -72,102 -48,0 -72,-34 -72,-102l0 -442c0,-68 24,-102 72,-102 48,0 72,34 72,102l0 442z"/>        <path class="fil1 ru" d="M12428 2218l0 -415c0,-68 24,-102 72,-102 48,0 71,34 71,102l0 433c0,68 -32,102 -98,102l-552 0c-65,0 -98,-34 -98,-102l0 -433c0,-68 24,-102 72,-102 47,0 71,34 71,102l0 415 167 0 0 -415c0,-31 4,-54 10,-68 10,-23 28,-34 54,-34 27,0 45,11 55,34 6,14 9,37 9,68l0 415 167 0z"/>  </g>      <g data-code="KeyO">   <path class="fil0 str0" d="M13000 1576l0 973c0,84 60,144 144,144l973 0c84,0 144,-60 144,-144l0 -973c0,-84 -60,-144 -144,-144l-973 0c-84,0 -144,60 -144,144z"/>        <path class="fil1 en" d="M13331 2023c0,-95 27,-171 80,-231 55,-62 129,-93 222,-93 94,0 168,31 223,92 53,60 80,137 80,232 0,94 -27,171 -80,230 -55,61 -130,92 -223,92 -93,0 -167,-31 -222,-93 -53,-58 -80,-135 -80,-229zm153 2c0,51 11,94 35,128 27,40 65,60 114,60 50,0 88,-20 115,-59 24,-35 36,-78 36,-129 0,-54 -12,-98 -34,-132 -27,-41 -66,-62 -117,-62 -51,0 -89,21 -116,62 -22,34 -33,78 -33,132z"/>        <path class="fil1 ru" d="M13843 2212l0 -416c0,-68 24,-102 72,-102 48,0 71,34 71,102l0 416 12 0c42,0 63,20 63,61l0 114c0,20 -5,35 -17,47 -11,11 -27,17 -46,17 -20,0 -35,-6 -47,-17 -11,-12 -17,-27 -17,-47l0 -56 -598 0c-65,0 -98,-34 -98,-101l0 -434c0,-68 24,-102 72,-102 47,0 71,34 71,102l0 416 167 0 0 -416c0,-31 4,-54 10,-68 10,-22 28,-34 54,-34 27,0 45,12 55,34 6,14 9,37 9,68l0 416 167 0z"/>  </g>      <g data-code="KeyP">   <path class="fil0 str0" d="M14441 1576l0 973c0,84 60,144 144,144l973 0c84,0 144,-60 144,-144l0 -973c0,-84 -60,-144 -144,-144l-973 0c-84,0 -144,60 -144,144z"/>        <path class="fil1 en" d="M15015 2012l62 0c66,0 98,-28 98,-84 0,-55 -32,-82 -98,-82l-62 0 0 166zm-72 340c-48,0 -72,-34 -72,-102l0 -435c0,-38 7,-64 22,-79 14,-15 40,-22 78,-22l129 0c70,0 125,18 166,54 43,38 65,92 65,160 0,68 -20,121 -59,158 -39,38 -93,57 -161,57l-96 0 0 107c0,68 -24,102 -72,102z"/>        <path class="fil1 ru" d="M15195 2002l0 2c67,27 101,75 101,144 0,132 -82,197 -247,197 -53,0 -97,-6 -133,-18 -54,-18 -80,-47 -80,-88 0,-36 19,-54 59,-54 17,0 33,3 50,10 25,10 40,16 47,18 13,3 33,5 59,5 64,0 96,-25 96,-74 0,-21 -8,-39 -23,-54 -11,-12 -28,-19 -50,-21 -5,-1 -23,-1 -55,-1 -60,0 -89,-20 -89,-60 0,-18 8,-32 25,-44 12,-8 29,-14 50,-15 4,-1 21,-1 53,-1 22,0 40,-4 54,-13 18,-11 27,-26 27,-46 0,-45 -29,-68 -86,-68 -18,0 -41,4 -70,12 -28,8 -49,11 -64,11 -39,0 -59,-18 -59,-54 0,-12 5,-24 16,-35 34,-36 94,-54 180,-54 150,0 224,58 224,173 0,61 -28,103 -85,128z"/>  </g>      <g data-code="BracketLeftSquare">   <path class="fil0 str0" d="M15882 1576l0 973c0,84 60,144 144,144l973 0c84,0 144,-60 144,-144l0 -973c0,-84 -60,-144 -144,-144l-973 0c-84,0 -144,60 -144,144z"/>        <path class="fil1 en" d="M16594 1677c46,0 69,16 69,47 0,25 -13,40 -41,46 -8,2 -32,2 -70,2l0 609c37,0 60,1 69,3 28,6 42,21 42,45 0,32 -23,47 -70,47l-63 0c-36,0 -61,-6 -75,-18 -16,-13 -23,-38 -23,-73l0 -607c0,-37 7,-63 21,-78 15,-15 41,-23 78,-23l63 0z"/>        <path class="fil1 ru" d="M16310 2345c-16,0 -31,-6 -44,-19 -14,-12 -20,-27 -20,-43 0,-19 10,-43 32,-72l152 -207 -114 -167c-22,-31 -32,-54 -32,-71 0,-19 6,-35 19,-47 14,-12 30,-18 50,-18 25,0 50,18 74,55l87 132 91 -133c24,-36 50,-54 77,-54 17,0 31,6 44,19 12,12 19,26 19,43 0,18 -11,43 -33,74l-115 168 153 207c22,29 33,53 33,72 0,17 -7,31 -20,43 -13,12 -29,18 -46,18 -27,0 -53,-17 -78,-52l-127 -180 -127 179c-25,36 -50,53 -75,53z"/>  </g>      <g data-code="BracketRightSquare">   <path class="fil0 str0" d="M17317 1576l0 973c0,84 60,144 144,144l973 0c84,0 144,-60 144,-144l0 -973c0,-84 -60,-144 -144,-144l-973 0c-84,0 -144,60 -144,144z"/>        <path class="fil1 en" d="M17890 1677l64 0c38,0 64,8 78,22 14,15 21,41 21,79l0 607c0,36 -7,60 -22,73 -14,12 -39,18 -76,18l-65 0c-46,0 -69,-15 -69,-47 0,-24 14,-39 42,-45 10,-2 33,-3 69,-3l0 -609c-38,0 -61,0 -70,-2 -27,-6 -41,-21 -41,-46 0,-31 23,-47 69,-47z"/>        <path class="fil1 ru" d="M17921 2041l0 165 62 0c65,0 98,-27 98,-82 0,-55 -33,-83 -98,-83l-62 0zm-144 -205l-81 0c-43,0 -64,-21 -64,-63 0,-43 21,-64 64,-64l164 0c26,0 43,7 50,20 7,14 11,38 11,74l0 108 96 0c69,0 122,18 161,56 38,37 57,90 57,157 0,68 -21,121 -63,158 -42,38 -98,56 -166,56l-129 0c-38,0 -64,-7 -78,-22 -14,-15 -22,-41 -22,-79l0 -401z"/>  </g>      <g data-code="QuestionMark">   <path class="fil0 str0" d="M18722 1576l0 973c0,84 60,144 144,144l973 0c84,0 144,-60 144,-144l0 -973c0,-84 -60,-144 -144,-144l-973 0c-84,0 -144,60 -144,144z"/>        <path class="fil1" d="M19262 2288c0,-21 8,-39 23,-54 15,-15 34,-23 55,-23 21,0 39,8 54,23 15,15 23,33 23,54 0,21 -8,40 -23,55 -15,16 -33,24 -54,24 -21,0 -40,-8 -55,-24 -15,-15 -23,-34 -23,-55zm10 -194l0 -55c0,-16 2,-29 6,-37 6,-11 21,-20 45,-27 32,-9 51,-16 60,-22 20,-13 29,-33 29,-61 0,-17 -5,-31 -17,-42 -12,-10 -27,-16 -45,-16 -27,0 -55,15 -84,46 -28,30 -51,45 -69,45 -17,0 -31,-6 -42,-19 -10,-13 -16,-28 -16,-46 0,-32 14,-62 41,-89 23,-23 51,-41 85,-54 26,-10 55,-15 85,-15 60,0 110,18 151,54 42,37 63,85 63,144 0,48 -14,89 -42,123 -28,33 -66,54 -114,63 0,60 -23,90 -69,90 -45,0 -67,-27 -67,-82z"/>  </g>      <g data-code="CapsLock">   <path class="fil0 str0" d="M27 2981l0 972c0,85 60,144 144,144l1693 0c84,0 144,-59 144,-144l0 -972c0,-85 -60,-144 -144,-144l-1693 0c-84,0 -144,59 -144,144z"/>        <g>   <path class="fil1" d="M519 3309c-3,31 -14,55 -34,72 -19,18 -45,27 -77,27 -39,0 -69,-14 -92,-42 -22,-29 -33,-69 -33,-121 0,-51 11,-90 33,-118 22,-27 52,-41 91,-41 31,0 55,8 74,23 20,15 31,36 34,63l33 0c-2,-35 -16,-63 -41,-84 -25,-21 -59,-32 -100,-32 -49,0 -87,17 -115,50 -29,33 -44,80 -44,140 0,60 15,107 43,141 28,34 67,51 115,51 43,0 77,-11 102,-34 26,-23 40,-55 43,-95l-32 0z"/>          <path  class="fil1" d="M582 3428l35 0 42 -110 163 0 41 110 35 0 -138 -363 -40 0 -138 363zm88 -140l69 -188 71 188 -140 0z"/>          <path  class="fil1" d="M961 3428l33 0 0 -157 77 0c45,0 79,-8 102,-26 22,-17 33,-43 33,-78 0,-34 -10,-60 -30,-77 -19,-17 -49,-25 -89,-25l-126 0 0 363zm33 -187l0 -146 92 0c29,0 51,6 65,17 14,12 21,30 21,54 0,27 -8,46 -25,58 -15,11 -41,17 -75,17l-78 0z"/>          <path  class="fil1" d="M1270 3317l0 3c0,38 11,67 35,87 23,21 56,31 100,31 39,0 69,-9 91,-28 23,-19 34,-45 34,-77 0,-29 -9,-52 -28,-68 -17,-16 -46,-28 -86,-38l-42 -10c-22,-6 -38,-13 -47,-23 -10,-10 -15,-23 -15,-40 0,-21 7,-38 22,-50 14,-12 35,-18 62,-18 28,0 49,7 65,21 15,14 23,34 24,60l34 0c0,-35 -11,-62 -33,-82 -21,-19 -51,-29 -89,-29 -37,0 -66,9 -88,27 -20,18 -31,41 -31,70 0,28 8,50 24,65 15,13 40,24 75,33l34 9c32,8 53,16 65,26 13,11 20,28 20,51 0,21 -8,39 -24,51 -16,13 -39,20 -67,20 -32,0 -57,-8 -75,-24 -17,-16 -26,-38 -26,-67l-34 0z"/>          <polygon class="fil1" points="235,3837 454,3837 454,3806 268,3806 268,3473 235,3473 "/>          <path  class="fil1" d="M491 3655c0,59 15,105 44,140 28,35 66,52 112,52 49,0 87,-17 116,-52 30,-34 44,-81 44,-140 0,-59 -14,-105 -44,-140 -29,-34 -67,-50 -116,-50 -47,0 -84,16 -112,50 -29,35 -44,82 -44,140zm33 0c0,-49 12,-89 35,-118 22,-29 52,-43 88,-43 39,0 69,14 92,43 24,28 36,68 36,118 0,51 -12,90 -36,119 -23,29 -53,43 -92,43 -37,0 -66,-14 -88,-43 -24,-29 -35,-69 -35,-119z"/>          <path  class="fil1" d="M1143 3718c-2,30 -13,55 -33,72 -19,18 -45,27 -77,27 -39,0 -70,-15 -92,-43 -23,-28 -34,-69 -34,-120 0,-51 11,-91 33,-118 22,-28 53,-41 92,-41 30,0 55,7 74,23 19,15 30,35 34,62l33 0c-3,-35 -16,-63 -41,-84 -26,-21 -59,-31 -100,-31 -49,0 -87,16 -116,49 -29,34 -43,81 -43,140 0,60 14,108 43,142 28,34 66,51 115,51 43,0 77,-12 102,-35 25,-23 40,-54 43,-94l-33 0z"/>          <polygon  class="fil1" points="1249,3837 1282,3837 1282,3709 1342,3647 1488,3837 1529,3837 1364,3624 1512,3473 1469,3473 1282,3665 1282,3473 1249,3473 "/>  </g>        <circle id="caps-pipka" class="fil2" cx="1728" cy="3090" r="149"/>  </g>      <g data-code="KeyA">   <path class="fil0 str0" d="M2188 2981l0 972c0,85 60,144 144,144l973 0c84,0 144,-59 144,-144l0 -972c0,-85 -60,-144 -144,-144l-973 0c-84,0 -144,59 -144,144z"/>        <path class="fil1 en" d="M2834 3115c51,0 86,28 106,83l159 453c7,20 10,35 10,45 0,20 -6,36 -20,48 -14,12 -31,18 -50,18 -37,0 -62,-23 -77,-68l-23 -74 -223 0 -26 79c-14,42 -37,63 -69,63 -20,0 -37,-6 -49,-19 -13,-12 -19,-28 -19,-48 0,-15 2,-29 7,-42l164 -445c23,-62 59,-93 110,-93zm-5 157l-71 221 142 0 -69 -221 -2 0z"/>        <path class="fil1 ru" d="M2822 3751c-32,0 -52,-12 -61,-36 -6,-14 -9,-39 -9,-76 -65,0 -111,-6 -140,-16 -43,-16 -77,-42 -102,-77 -24,-36 -36,-77 -36,-123 0,-47 11,-88 35,-123 24,-35 58,-61 102,-77 27,-11 74,-16 141,-16 0,-32 3,-56 10,-69 11,-21 31,-31 60,-31 30,0 50,10 60,31 7,13 11,37 11,69 66,0 113,5 141,16 44,16 77,42 101,77 24,35 36,76 36,123 0,46 -12,87 -37,123 -24,35 -58,61 -102,77 -28,10 -74,16 -139,16 0,37 -3,62 -9,76 -10,24 -31,36 -62,36zm68 -428l0 198 40 0c63,0 95,-33 95,-98 0,-67 -32,-100 -95,-100l-40 0zm-135 198l0 -198 -40 0c-64,0 -96,33 -96,100 0,65 32,98 96,98l40 0z"/>  </g>      <g data-code="KeyS">   <path class="fil0 str0" d="M3629 2981l0 972c0,85 60,144 144,144l973 0c84,0 144,-59 144,-144l0 -972c0,-85 -60,-144 -144,-144l-973 0c-84,0 -144,59 -144,144z"/>        <path class="fil1 en" d="M4493 3545c0,65 -24,116 -72,154 -44,34 -99,51 -166,51 -35,0 -68,-4 -100,-13 -39,-11 -67,-27 -84,-49 -10,-12 -15,-24 -15,-36 0,-19 7,-34 20,-45 13,-11 30,-17 49,-17 11,0 32,5 66,15 36,10 64,15 84,15 19,0 36,-6 49,-17 14,-11 21,-27 21,-45 0,-25 -10,-43 -29,-54 -16,-10 -43,-20 -79,-31 -56,-17 -96,-36 -121,-57 -35,-29 -53,-68 -53,-117 0,-61 22,-109 67,-145 42,-33 94,-50 156,-50 52,0 93,9 123,27 30,18 46,39 46,63 0,40 -22,60 -64,60 -13,0 -31,-4 -54,-11 -22,-7 -41,-11 -55,-11 -19,0 -34,4 -47,13 -14,9 -22,22 -22,40 0,10 3,19 8,27 7,10 23,19 48,28 18,6 37,12 55,18 54,18 93,40 119,64 34,32 50,73 50,123z"/>        <path class="fil1 ru" d="M4074 3435l0 166 46 0c66,0 98,-27 98,-82 0,-56 -32,-84 -98,-84l-46 0zm0 -130l75 0c69,0 122,19 161,56 39,37 58,90 58,158 0,68 -21,121 -64,160 -42,36 -97,54 -166,54l-107 0c-38,0 -64,-8 -78,-22 -14,-15 -22,-42 -22,-79l0 -434c0,-68 24,-102 72,-102 48,0 71,34 71,102l0 107zm518 333c0,68 -24,102 -73,102 -47,0 -71,-34 -71,-102l0 -441c0,-67 24,-101 71,-101 49,0 73,34 73,101l0 441z"/>  </g>      <g data-code="KeyD">   <path class="fil0 str0" d="M5070 2981l0 972c0,85 60,144 144,144l973 0c84,0 144,-59 144,-144l0 -972c0,-85 -60,-144 -144,-144l-973 0c-84,0 -144,59 -144,144z"/>        <path class="fil1 en" d="M5672 3112c79,0 142,15 188,44 44,28 77,66 101,115 22,46 33,96 33,150 0,97 -27,174 -80,232 -55,60 -131,90 -227,90l-132 0c-36,0 -62,-6 -76,-18 -14,-13 -22,-37 -22,-72l0 -440c0,-37 8,-63 22,-78 14,-15 40,-23 78,-23l115 0zm-71 499l66 0c114,0 171,-63 171,-191 0,-116 -58,-174 -174,-174l-63 0 0 365z"/>        <path class="fil1 ru" d="M5576 3733c-36,0 -62,-6 -76,-19 -14,-12 -22,-36 -22,-72l0 -438c0,-37 8,-63 22,-78 14,-15 40,-22 78,-22l117 0c57,0 105,11 145,35 48,28 72,69 72,121 0,69 -25,115 -74,139l0 3c37,11 63,28 79,50 16,22 24,53 24,91 0,64 -22,113 -66,146 -39,29 -92,44 -158,44l-141 0zm46 -272l0 149 71 0c31,0 53,-4 68,-12 20,-11 30,-31 30,-59 0,-33 -10,-55 -29,-66 -14,-8 -38,-12 -71,-12l-69 0zm0 -235l0 123 62 0c28,0 48,-3 59,-10 16,-9 24,-27 24,-52 0,-41 -28,-61 -83,-61l-62 0z"/>  </g>      <g data-code="KeyF">   <path class="fil0 str0" d="M6511 2981l0 972c0,85 60,144 144,144l973 0c84,0 144,-59 144,-144l0 -972c0,-85 -60,-144 -144,-144l-973 0c-84,0 -144,59 -144,144z"/>        <path class="fil1 en" d="M7259 3115c68,0 102,22 102,67 0,45 -34,67 -102,67l-118 0 0 112 102 0c68,0 102,22 102,67 0,44 -34,66 -102,66l-102 0 0 157c0,68 -23,102 -71,102 -48,0 -72,-34 -72,-102l0 -435c0,-37 7,-64 22,-79 14,-15 40,-22 77,-22l162 0z"/>        <path class="fil1 ru" d="M7142 3098c51,0 86,27 106,82l159 452c6,20 10,35 10,45 0,20 -7,35 -21,47 -14,13 -30,19 -50,19 -36,0 -61,-23 -76,-68l-23 -74 -222 0 -26 79c-14,42 -37,63 -69,63 -20,0 -37,-7 -49,-19 -13,-12 -19,-29 -19,-49 0,-14 2,-28 7,-41l163 -443c23,-62 60,-93 110,-93zm-4 156l-72 220 142 0 -69 -220 -1 0z"/>  </g>      <g data-code="KeyG">   <path class="fil0 str0" d="M7952 2981l0 972c0,85 60,144 144,144l972 0c85,0 145,-59 145,-144l0 -972c0,-85 -60,-144 -145,-144l-972 0c-84,0 -144,59 -144,144z"/>        <path class="fil1 en" d="M8686 3366l104 0c34,0 59,7 74,21 16,14 24,37 24,71 0,87 -26,157 -79,211 -52,54 -122,81 -208,81 -91,0 -163,-32 -217,-96 -52,-60 -78,-136 -78,-228 0,-96 28,-174 83,-233 55,-59 131,-89 227,-89 41,0 80,6 116,18 45,14 76,35 95,63 11,15 16,30 16,45 0,17 -6,32 -17,46 -12,13 -26,20 -43,20 -10,0 -33,-10 -69,-30 -36,-19 -70,-29 -102,-29 -51,0 -91,19 -118,57 -25,33 -37,76 -37,130 0,54 12,98 36,133 27,41 67,61 118,61 38,0 68,-11 90,-33 23,-22 35,-51 35,-89 -50,0 -81,-1 -93,-4 -37,-8 -55,-28 -55,-61 0,-44 33,-65 98,-65z"/>        <path class="fil1 ru" d="M8438 3230l0 408c0,68 -24,102 -72,102 -47,0 -71,-34 -71,-102l0 -433c0,-68 33,-101 98,-101l354 0c65,0 98,33 98,101l0 433c0,68 -24,102 -72,102 -47,0 -71,-34 -71,-102l0 -408 -264 0z"/>  </g>      <g data-code="KeyH">   <path class="fil0 str0" d="M9393 2981l0 972c0,85 59,144 144,144l972 0c85,0 144,-59 144,-144l0 -972c0,-85 -59,-144 -144,-144l-972 0c-85,0 -144,59 -144,144z"/>        <path class="fil1 en" d="M9898 3487l0 161c0,68 -24,102 -72,102 -47,0 -71,-34 -71,-102l0 -442c0,-68 24,-102 71,-102 48,0 72,34 72,102l0 149 265 0 0 -149c0,-68 24,-102 71,-102 48,0 72,34 72,102l0 442c0,68 -24,102 -72,102 -47,0 -71,-34 -71,-102l0 -161 -265 0z"/>        <path class="fil1 ru" d="M9934 3401l62 0c65,0 98,-28 98,-84 0,-54 -33,-82 -98,-82l-62 0 0 166zm-72 339c-48,0 -72,-34 -72,-102l0 -434c0,-37 8,-63 22,-78 14,-15 40,-22 78,-22l129 0c69,0 125,18 165,54 44,38 65,91 65,159 0,68 -19,121 -59,158 -39,37 -92,56 -160,56l-96 0 0 108c0,67 -24,101 -72,101z"/>  </g>      <g data-code="KeyJ">   <path class="fil0 str0" d="M10833 2981l0 972c0,85 60,144 145,144l972 0c84,0 144,-59 144,-144l0 -972c0,-85 -60,-144 -144,-144l-972 0c-85,0 -145,59 -145,144z"/>        <path class="fil1 en" d="M11555 3739c0,39 -14,72 -42,99 -29,26 -63,39 -103,39 -76,0 -114,-22 -114,-66 0,-21 5,-36 14,-47 8,-8 24,-13 48,-14 24,-1 39,-4 44,-10 6,-5 8,-18 8,-38l0 -489c0,-68 24,-102 71,-102 49,0 74,34 74,102l0 526z"/>        <path class="fil1 ru" d="M11142 3425c0,-94 27,-171 79,-230 55,-62 129,-93 222,-93 94,0 168,31 222,92 53,59 80,136 80,231 0,94 -27,171 -80,230 -55,61 -129,91 -222,91 -93,0 -167,-31 -222,-92 -52,-59 -79,-135 -79,-229zm152 2c0,51 12,94 35,128 27,39 65,59 114,59 49,0 88,-19 115,-58 23,-35 35,-78 35,-129 0,-54 -11,-98 -34,-132 -27,-41 -65,-61 -116,-61 -51,0 -89,20 -116,61 -22,34 -33,78 -33,132z"/>  </g>      <g data-code="KeyK">   <path class="fil0 str0" d="M12274 2981l0 972c0,85 60,144 144,144l973 0c84,0 144,-59 144,-144l0 -972c0,-85 -60,-144 -144,-144l-973 0c-84,0 -144,59 -144,144z"/>        <path class="fil1 en" d="M12713 3648l0 -442c0,-68 24,-102 72,-102 48,0 72,34 72,102l0 138 183 -189c33,-34 59,-51 79,-51 18,0 35,7 49,20 15,14 22,29 22,48 0,13 -7,28 -21,44 -1,1 -13,13 -36,36l-145 144 193 217c24,27 36,51 36,71 0,17 -7,33 -21,46 -13,13 -29,20 -46,20 -23,0 -49,-16 -78,-50l-190 -220 -25 20 0 149c0,67 -24,101 -72,101 -48,0 -72,-34 -72,-102z"/>        <path class="fil1 ru" d="M13027 3223l-153 0c-21,0 -32,12 -32,38l0 351c0,85 -42,128 -127,128 -76,0 -114,-22 -114,-66 0,-27 8,-44 22,-53 9,-5 24,-8 46,-9 19,0 32,-3 38,-9 5,-6 8,-19 8,-38l0 -304c0,-61 11,-104 34,-129 22,-24 64,-36 125,-36l225 0c47,0 71,34 71,101l0 441c0,68 -24,102 -71,102 -30,0 -50,-10 -61,-30 -7,-15 -11,-38 -11,-72l0 -415z"/>  </g>      <g data-code="KeyL">   <path class="fil0 str0" d="M13715 2981l0 972c0,85 60,144 144,144l973 0c84,0 144,-59 144,-144l0 -972c0,-85 -60,-144 -144,-144l-973 0c-84,0 -144,59 -144,144z"/>        <path class="fil1 en" d="M14217 3206c0,-68 24,-102 72,-102 48,0 72,34 72,103l0 404 122 0c68,0 102,22 102,66 0,44 -34,66 -102,66l-168 0c-37,0 -62,-6 -76,-18 -15,-13 -22,-37 -22,-72l0 -447z"/>        <path class="fil1 ru" d="M14505 3733l-365 0 0 56c0,19 -6,35 -18,47 -11,11 -27,17 -47,17 -20,0 -35,-6 -46,-17 -11,-12 -17,-28 -17,-47l0 -115c0,-41 19,-61 56,-61 11,0 19,-9 25,-27 7,-17 10,-48 10,-92l0 -231c0,-49 13,-88 41,-116 28,-29 66,-43 115,-43l219 0c31,0 52,9 65,29 10,15 15,40 15,72l0 408c50,0 75,20 75,61l0 115c0,42 -22,64 -64,64 -20,0 -35,-6 -47,-17 -11,-12 -17,-28 -17,-47l0 -56zm-294 -120l203 0 0 -383 -152 0c-21,0 -32,12 -32,35l0 229c0,44 -6,83 -19,119z"/>  </g>      <g data-code="BracketLeft">   <path class="fil0 str0" d="M15156 2981l0 972c0,85 60,144 144,144l973 0c84,0 144,-59 144,-144l0 -972c0,-85 -60,-144 -144,-144l-973 0c-84,0 -144,59 -144,144z"/>        <path class="fil1 en" d="M15789 3518l0 3c30,10 51,26 62,49 8,17 12,43 12,78l0 105c0,36 4,59 11,70 6,9 17,14 32,16 19,2 31,5 35,7 11,6 16,19 16,38 0,30 -14,45 -44,45 -31,0 -57,-2 -77,-6 -33,-7 -56,-24 -67,-52 -8,-19 -11,-48 -11,-89l0 -109c0,-39 -6,-68 -18,-84 -11,-17 -26,-25 -45,-25 -34,0 -51,-15 -51,-44 0,-30 17,-45 51,-45 19,0 34,-8 45,-25 12,-18 18,-46 18,-85l0 -108c0,-40 4,-69 12,-88 11,-28 34,-46 66,-53 19,-4 44,-6 77,-6 30,0 44,15 44,45 0,19 -5,32 -16,38 -5,3 -16,5 -35,7 -15,1 -26,6 -32,14 -7,11 -11,35 -11,72l0 104c0,35 -4,62 -13,79 -11,23 -31,40 -61,49z"/>        <path class="fil1 ru" d="M15720 3482l-12 -9 -186 224c-28,33 -53,49 -77,49 -17,0 -32,-7 -46,-20 -14,-14 -20,-29 -20,-46 0,-19 12,-42 36,-70l189 -221 -142 -140c-23,-22 -35,-34 -36,-36 -14,-16 -21,-31 -21,-44 0,-18 8,-33 22,-47 15,-13 31,-20 49,-20 19,0 45,17 79,51l165 169 0 -118c0,-68 22,-102 67,-102 27,0 45,11 56,33 6,15 10,37 10,68l0 119 165 -169c34,-34 60,-51 80,-51 18,0 35,7 49,20 14,13 21,29 21,47 0,13 -6,28 -20,44 -1,2 -13,14 -36,36l-142 140 189 221c24,28 36,51 36,70 0,17 -7,32 -20,46 -14,13 -29,20 -47,20 -24,0 -50,-16 -78,-48l-185 -225 -12 10 0 162c0,67 -22,101 -66,101 -45,0 -67,-34 -67,-101l0 -163z"/>  </g>      <g data-code="BracketRight">   <path class="fil0 str0" d="M16597 2981l0 972c0,85 60,144 144,144l973 0c84,0 144,-59 144,-144l0 -972c0,-85 -60,-144 -144,-144l-973 0c-84,0 -144,59 -144,144z"/>        <path class="fil1 en" d="M17256 3518c-31,-9 -52,-26 -63,-49 -7,-17 -11,-43 -11,-79l0 -104c0,-38 -4,-62 -11,-72 -6,-8 -16,-13 -32,-14 -19,-2 -31,-4 -35,-7 -11,-6 -17,-19 -17,-38 0,-30 15,-45 44,-45 33,0 59,2 77,6 33,7 55,25 67,53 8,19 12,48 12,88l0 108c0,39 6,67 18,85 12,17 27,25 46,25 33,0 50,15 50,45 0,29 -17,44 -50,44 -19,0 -35,8 -46,25 -12,17 -18,45 -18,84l0 109c0,60 -11,100 -31,119 -21,19 -63,28 -125,28 -29,0 -44,-15 -44,-45 0,-19 6,-32 17,-38 4,-2 15,-5 34,-7 16,-2 27,-8 34,-17 7,-10 10,-33 10,-69l0 -105c0,-36 4,-62 12,-79 11,-23 31,-38 62,-48l0 -3z"/>        <path class="fil1 ru" d="M17086 3413c0,-38 23,-57 68,-57l165 0c-5,-37 -21,-66 -49,-88 -28,-21 -61,-32 -100,-32 -24,0 -47,5 -69,13 -21,8 -39,12 -54,12 -17,0 -31,-6 -42,-18 -12,-12 -17,-27 -17,-44 0,-12 4,-24 13,-36 32,-41 88,-61 170,-61 92,0 166,31 222,94 54,60 81,136 81,229 0,94 -26,170 -79,229 -55,61 -129,92 -222,92 -29,0 -55,-3 -78,-9 -29,-6 -54,-17 -75,-31 -27,-18 -40,-39 -40,-63 0,-16 5,-30 16,-43 11,-12 24,-19 40,-19 10,0 28,5 56,15 28,10 52,16 74,16 42,0 77,-13 104,-38 28,-25 44,-59 49,-100l-166 0c-45,0 -67,-21 -67,-61z"/>  </g>      <g data-code="Enter">   <path class="fil0 str0" d="M18002 2981l0 972c0,85 60,144 144,144l1693 0c84,0 144,-59 144,-144l0 -972c0,-85 -60,-144 -144,-144l-1693 0c-84,0 -144,59 -144,144z"/>        <polygon class="fil1" points="18221,3649 18465,3649 18465,3619 18254,3619 18254,3477 18441,3477 18441,3447 18254,3447 18254,3316 18459,3316 18459,3285 18221,3285 "/>        <polygon  class="fil1" points="18547,3649 18571,3649 18571,3342 18760,3649 18796,3649 18796,3285 18763,3285 18763,3591 18576,3285 18539,3285 18539,3649 "/>        <polygon  class="fil1" points="18968,3649 19001,3649 19001,3316 19114,3316 19114,3285 18855,3285 18855,3316 18968,3316 "/>        <polygon  class="fil1" points="19184,3649 19428,3649 19428,3619 19217,3619 19217,3477 19404,3477 19404,3447 19217,3447 19217,3316 19422,3316 19422,3285 19184,3285 "/>        <path  class="fil1" d="M19501 3649l33 0 0 -162 106 0c29,0 49,5 58,15 9,9 14,30 17,62l4 47c0,9 1,17 2,22 2,7 3,12 5,16l37 0 0 -5c-3,-3 -6,-7 -7,-13 -3,-5 -4,-12 -5,-21l-4 -54c-2,-27 -6,-46 -10,-55 -6,-14 -18,-24 -35,-29 18,-7 33,-18 43,-33 10,-16 15,-35 15,-57 0,-18 -4,-35 -12,-49 -7,-14 -18,-25 -32,-33 -12,-6 -26,-11 -43,-13 -11,-1 -28,-2 -51,-2l-121 0 0 364zm33 -192l0 -141 95 0c17,0 31,0 39,1 12,2 22,6 31,11 8,6 15,13 19,23 5,10 8,20 8,32 0,27 -8,45 -23,57 -15,11 -40,17 -73,17l-96 0z"/>  </g>      <g data-code="ShiftLeft">   <path class="fil0 str0" d="M27 4386l0 972c0,85 60,144 144,144l2414 0c84,0 144,-59 144,-144l0 -972c0,-85 -60,-144 -144,-144l-2414 0c-84,0 -144,59 -144,144z"/>        <path class="fil1" d="M699 4942l0 3c0,37 11,66 35,87 23,21 57,31 100,31 39,0 69,-9 91,-28 23,-19 34,-45 34,-77 0,-29 -9,-52 -28,-68 -17,-16 -46,-28 -86,-38l-42 -11c-22,-5 -38,-13 -47,-22 -10,-10 -14,-23 -14,-40 0,-22 7,-38 21,-50 14,-12 35,-18 62,-18 28,0 49,7 65,21 15,13 24,33 24,59l34 0c0,-34 -11,-62 -33,-81 -21,-19 -51,-29 -89,-29 -37,0 -66,9 -87,27 -21,18 -32,41 -32,70 0,28 8,50 24,65 15,13 40,24 75,33l34 9c32,7 53,16 65,26 13,11 20,28 20,51 0,21 -8,38 -24,51 -16,13 -38,20 -67,20 -32,0 -57,-8 -75,-24 -17,-16 -26,-38 -26,-67l-34 0z"/>        <polygon  class="fil1" points="1036,5053 1069,5053 1069,4877 1276,4877 1276,5053 1309,5053 1309,4689 1276,4689 1276,4847 1069,4847 1069,4689 1036,4689 "/>        <polygon  class="fil1" points="1405,5053 1438,5053 1438,4689 1405,4689 "/>        <polygon  class="fil1" points="1531,5053 1564,5053 1564,4881 1742,4881 1742,4851 1564,4851 1564,4720 1760,4720 1760,4689 1531,4689 "/>        <polygon  class="fil1" points="1911,5053 1944,5053 1944,4720 2057,4720 2057,4689 1798,4689 1798,4720 1911,4720 "/>  </g>      <g data-code="KeyZ">   <path class="fil0 str0" d="M2909 4386l0 972c0,85 60,144 144,144l972 0c85,0 144,-59 144,-144l0 -972c0,-85 -59,-144 -144,-144l-972 0c-84,0 -144,59 -144,144z"/>        <path class="fil1 en" d="M3816 5101c0,44 -34,66 -102,66l-291 0c-66,0 -99,-24 -99,-72 0,-23 13,-52 40,-87l257 -341 -185 0c-68,0 -102,-22 -102,-65 0,-44 34,-66 102,-66l254 0c34,0 59,3 75,10 25,9 38,29 38,57 0,23 -14,54 -42,91l-252 341 205 0c68,0 102,22 102,66z"/>        <path class="fil1 ru" d="M3657 4809l0 -154 -68 0c-60,0 -90,25 -90,75 0,53 30,79 91,79l67 0zm143 -185l0 434c0,68 -24,102 -72,102 -48,0 -71,-34 -71,-102l0 -154 -168 209c-24,31 -50,47 -75,47 -19,0 -36,-6 -49,-18 -14,-12 -20,-27 -20,-45 0,-23 14,-50 42,-82l113 -126c-46,-7 -83,-26 -110,-56 -27,-30 -40,-67 -40,-113 0,-58 20,-105 61,-142 41,-36 101,-55 178,-55l112 0c38,0 64,8 78,22 14,15 21,41 21,79z"/>  </g>      <g data-code="KeyX">   <path class="fil0 str0" d="M4345 4386l0 972c0,85 60,144 144,144l972 0c85,0 145,-59 145,-144l0 -972c0,-85 -60,-144 -145,-144l-972 0c-84,0 -144,59 -144,144z"/>        <path class="fil1 en" d="M4754 5174c-16,0 -31,-6 -45,-19 -13,-12 -20,-27 -20,-43 0,-19 11,-43 32,-72l153 -208 -115 -167c-21,-31 -32,-55 -32,-71 0,-20 7,-35 20,-48 13,-12 30,-18 49,-18 26,0 50,19 75,56l87 132 92 -134c24,-36 49,-54 77,-54 16,0 31,6 44,19 12,12 19,27 19,44 0,18 -11,42 -33,74l-116 168 154 208c22,29 33,53 33,72 0,17 -7,31 -20,43 -13,12 -29,18 -46,18 -27,0 -53,-17 -78,-52l-128 -180 -127 179c-26,36 -50,53 -75,53z"/>        <path class="fil1 ru" d="M4970 4813l73 0 0 -196c0,-68 24,-101 71,-101 48,0 72,33 72,100l0 442c0,68 -24,102 -72,102 -47,0 -71,-34 -71,-102l0 -117 -97 0c-67,0 -118,-19 -154,-55 -35,-37 -53,-89 -53,-157l0 -112c0,-68 24,-101 72,-101 48,0 71,33 71,101l0 112c0,34 7,56 19,67 12,12 35,17 69,17z"/>  </g>      <g data-code="KeyC">   <path class="fil0 str0" d="M5786 4386l0 972c0,85 59,144 144,144l972 0c85,0 144,-59 144,-144l0 -972c0,-85 -59,-144 -144,-144l-972 0c-85,0 -144,59 -144,144z"/>        <path class="fil1 en" d="M6454 5177c-95,0 -171,-32 -227,-96 -55,-60 -82,-138 -82,-235 0,-94 28,-172 84,-235 58,-65 133,-98 227,-98 33,0 65,5 95,14 37,12 64,28 80,50 9,12 14,24 14,37 0,16 -6,31 -18,44 -12,13 -27,20 -43,20 -16,0 -35,-5 -57,-13 -22,-9 -45,-13 -70,-13 -52,0 -92,21 -120,62 -24,36 -36,81 -36,136 0,53 13,97 39,131 28,38 68,57 121,57 23,0 49,-5 77,-15 28,-11 47,-16 57,-16 16,0 30,7 41,20 11,12 17,27 17,43 0,14 -5,27 -14,40 -32,44 -94,67 -185,67z"/>        <path class="fil1 ru" d="M6456 5162c-95,0 -170,-31 -227,-95 -54,-60 -81,-138 -81,-234 0,-94 28,-172 84,-235 57,-65 133,-97 226,-97 33,0 65,4 95,14 37,11 64,28 80,49 9,12 13,24 13,37 0,17 -6,31 -18,44 -12,13 -26,20 -43,20 -15,0 -34,-5 -56,-13 -22,-9 -45,-13 -70,-13 -52,0 -92,21 -119,62 -25,36 -37,81 -37,135 0,54 13,97 39,131 28,38 69,57 121,57 23,0 48,-5 77,-15 28,-11 47,-16 56,-16 17,0 30,7 41,20 12,12 17,27 17,43 0,14 -4,27 -14,40 -32,44 -93,66 -184,66z"/>  </g>      <g data-code="KeyV">   <path class="fil0 str0" d="M7237 4386l0 972c0,85 59,144 144,144l972 0c85,0 144,-59 144,-144l0 -972c0,-85 -59,-144 -144,-144l-972 0c-85,0 -144,59 -144,144z"/>        <path class="fil1 en" d="M7589 4600c0,-21 6,-39 20,-52 13,-13 30,-20 51,-20 30,0 53,21 69,63l133 357 123 -352c16,-45 41,-68 74,-68 45,0 67,22 67,67 0,17 -3,33 -9,49l-187 475c-15,39 -40,59 -72,59 -32,0 -54,-18 -69,-54l-193 -483c-5,-14 -7,-27 -7,-41z"/>        <path class="fil1 ru" d="M7865 4954l4 0 83 -354c5,-25 18,-45 36,-61 19,-15 41,-23 66,-23 29,0 53,9 74,27 21,19 33,42 38,71l69 429c3,21 5,37 5,48 0,46 -21,69 -64,69 -25,0 -44,-10 -55,-29 -8,-13 -14,-34 -19,-63l-54 -344 -3 0 -81 318c-8,33 -18,56 -29,71 -16,20 -39,29 -68,29 -29,0 -52,-9 -68,-29 -11,-14 -21,-38 -29,-71l-82 -318 -2 0 -53 344c-5,30 -11,51 -19,64 -12,18 -31,28 -56,28 -44,0 -65,-23 -65,-69 0,-7 2,-23 6,-48l69 -429c4,-29 17,-52 37,-71 21,-18 45,-27 74,-27 26,0 48,7 66,23 18,15 30,36 36,61l84 354z"/>  </g>      <g data-code="KeyB">   <path class="fil0 str0" d="M8667 4386l0 972c0,85 60,144 144,144l973 0c84,0 144,-59 144,-144l0 -972c0,-85 -60,-144 -144,-144l-973 0c-84,0 -144,59 -144,144z"/>        <path class="fil1 en" d="M9170 5167c-36,0 -62,-6 -76,-18 -14,-13 -22,-37 -22,-73l0 -439c0,-37 8,-63 22,-78 14,-15 40,-23 78,-23l117 0c58,0 106,12 146,36 48,28 72,68 72,121 0,69 -24,115 -74,140l0 2c37,12 63,29 80,51 16,22 24,52 24,91 0,64 -22,113 -67,146 -39,29 -92,44 -158,44l-142 0zm46 -272l0 149 72 0c30,0 53,-4 68,-13 20,-11 29,-30 29,-58 0,-33 -9,-55 -28,-66 -14,-8 -38,-12 -72,-12l-69 0zm0 -236l0 123 62 0c28,0 48,-3 60,-10 16,-9 24,-26 24,-52 0,-41 -28,-61 -84,-61l-62 0z"/>        <path class="fil1 ru" d="M9425 4769l-260 343c-24,32 -52,48 -83,48 -43,0 -64,-29 -64,-86l0 -457c0,-67 23,-101 71,-101 48,0 72,34 72,101l0 295 264 -350c24,-31 49,-46 76,-46 44,0 67,32 67,96l0 446c0,68 -24,102 -72,102 -48,0 -71,-34 -71,-102l0 -289z"/>  </g>      <g data-code="KeyN">   <path class="fil0 str0" d="M10124 4386l0 972c0,85 60,144 144,144l972 0c85,0 145,-59 145,-144l0 -972c0,-85 -60,-144 -145,-144l-972 0c-84,0 -144,59 -144,144z"/>        <path class="fil1 en" d="M10510 5174c-48,0 -72,-34 -72,-102l0 -447c0,-64 22,-97 66,-97 28,0 53,16 77,47l265 351 0 -296c0,-68 24,-102 72,-102 48,0 71,34 71,102l0 459c0,60 -21,89 -65,89 -29,0 -56,-17 -82,-51l-261 -345 0 290c0,68 -24,102 -71,102z"/>        <path class="fil1 ru" d="M10662 4657c-52,0 -84,-1 -97,-4 -38,-8 -57,-29 -57,-62 0,-45 33,-68 101,-68l249 0c68,0 102,23 102,68 0,33 -19,54 -58,62 -12,3 -44,4 -96,4l0 401c0,68 -24,102 -72,102 -48,0 -72,-34 -72,-102l0 -401z"/>  </g>      <g data-code="KeyM">   <path class="fil0 str0" d="M11554 4386l0 972c0,85 60,144 145,144l972 0c84,0 144,-59 144,-144l0 -972c0,-85 -60,-144 -144,-144l-972 0c-85,0 -145,59 -145,144z"/>        <path class="fil1 en" d="M12142 4967l3 0 84 -354c5,-25 18,-45 36,-61 19,-16 41,-24 66,-24 29,0 54,10 75,28 20,18 33,42 38,71l69 430c3,22 5,38 5,48 0,46 -21,69 -65,69 -25,0 -43,-10 -55,-29 -8,-13 -14,-33 -19,-63l-54 -345 -2 1 -82 319c-8,32 -18,56 -29,70 -16,20 -39,30 -68,30 -30,0 -52,-10 -69,-30 -11,-14 -20,-37 -29,-70l-82 -319 -1 0 -54 344c-5,30 -11,51 -19,64 -12,19 -31,28 -57,28 -43,0 -64,-23 -64,-69 0,-6 2,-22 6,-48l69 -430c4,-29 17,-53 37,-71 21,-18 45,-28 74,-28 26,0 48,8 66,24 18,15 30,36 37,61l84 354z"/>        <path class="fil1 ru" d="M12105 4855l0 166 62 0c65,0 98,-27 98,-82 0,-56 -33,-84 -98,-84l-62 0zm0 -130l96 0c68,0 122,19 161,56 39,37 58,90 58,158 0,68 -22,121 -65,159 -41,37 -96,55 -165,55l-129 0c-38,0 -64,-8 -78,-23 -14,-15 -22,-41 -22,-78l0 -435c0,-67 24,-101 72,-101 48,0 72,34 72,101l0 108z"/>  </g>      <g data-code="LessThan">   <path class="fil0 str0" d="M13000 4386l0 972c0,85 60,144 144,144l973 0c84,0 144,-59 144,-144l0 -972c0,-85 -60,-144 -144,-144l-973 0c-84,0 -144,59 -144,144z"/>        <path class="fil1 en" d="M13487 4901l0 4 358 145c11,4 18,10 20,16 3,6 5,16 5,29 0,25 -13,38 -38,38 -12,0 -24,-3 -37,-8l-381 -158c-36,-15 -54,-36 -54,-64 0,-29 18,-51 54,-66l381 -157c14,-5 27,-8 39,-8 24,0 36,12 36,36 0,25 -9,41 -25,48l-358 145z"/>        <path class="fil1 ru" d="M13523 4855l0 166 62 0c66,0 98,-27 98,-82 0,-56 -32,-84 -98,-84l-62 0zm0 -130l97 0c68,0 122,19 160,56 39,37 59,90 59,158 0,68 -22,121 -65,159 -42,37 -97,55 -166,55l-129 0c-37,0 -63,-8 -78,-23 -14,-15 -21,-41 -21,-78l0 -428c0,-37 7,-63 21,-78 15,-15 41,-23 78,-23l224 0c69,0 103,23 103,68 0,44 -34,66 -103,66l-180 0 0 68z"/>  </g>      <g data-code="GreaterThan">   <path class="fil0 str0" d="M14441 4386l0 972c0,85 60,144 144,144l973 0c84,0 144,-59 144,-144l0 -972c0,-85 -60,-144 -144,-144l-973 0c-84,0 -144,59 -144,144z"/>        <path class="fil1 en" d="M15225 4898l0 -4 -357 -144c-18,-7 -26,-23 -26,-48 0,-24 12,-36 35,-36 12,0 25,2 39,8l382 157c19,7 32,15 39,23 10,10 15,25 15,42 0,18 -5,32 -15,42 -7,8 -20,16 -39,23l-382 158c-13,5 -25,7 -36,7 -26,0 -38,-12 -38,-37 0,-24 8,-39 26,-46l357 -145z"/>        <path class="fil1 ru" d="M14860 4762l94 0c10,-76 36,-137 78,-181 45,-48 105,-72 180,-72 89,0 157,34 203,100 40,56 60,131 60,223 0,155 -52,255 -156,300 -33,14 -68,21 -107,21 -79,0 -141,-26 -187,-79 -42,-47 -66,-111 -73,-192l-92 0 0 170c0,68 -23,101 -71,101 -48,0 -72,-33 -72,-101l0 -441c0,-68 24,-102 72,-102 48,0 71,34 71,102l0 151zm353 -131c-31,0 -56,14 -76,43 -16,22 -27,51 -33,85 -3,21 -5,45 -5,72 0,49 7,91 22,127 19,49 50,74 92,74 42,0 73,-25 92,-74 14,-35 21,-78 21,-127 0,-66 -10,-115 -31,-149 -21,-34 -49,-51 -82,-51z"/>  </g>      <g data-code="Slash">   <path class="fil0 str0" d="M15882 4386l0 972c0,85 60,144 144,144l973 0c84,0 144,-59 144,-144l0 -972c0,-85 -60,-144 -144,-144l-973 0c-84,0 -144,59 -144,144z"/>        <path class="fil1 en" d="M16377 5188c-17,0 -31,-5 -42,-16 -12,-11 -17,-24 -17,-40 0,-14 4,-28 12,-43l275 -521c19,-35 40,-52 63,-52 16,0 30,5 41,16 12,10 18,23 18,40 0,12 -5,27 -13,43l-276 521c-19,35 -39,52 -61,52z"/>        <path class="fil1 ru" d="M16589 4563c68,0 101,23 101,68 0,44 -33,66 -101,66l-117 0 0 113 100 0c68,0 102,22 102,66 0,44 -34,66 -102,66l-100 0 0 119 121 0c68,0 102,22 102,66 0,44 -34,66 -102,66l-167 0c-36,0 -62,-6 -76,-19 -14,-12 -22,-36 -22,-72l0 -438c0,-37 8,-63 22,-78 14,-15 40,-23 78,-23l161 0zm45 -125c0,47 -20,70 -62,70 -20,0 -35,-6 -46,-20 -10,-13 -16,-30 -16,-50 0,-21 6,-38 16,-52 11,-13 26,-20 46,-20 42,0 62,24 62,72zm-152 0c0,47 -21,70 -62,70 -41,0 -61,-23 -61,-70 0,-48 20,-72 61,-72 41,0 62,24 62,72z"/>  </g>      <g data-code="ShiftRight">   <path class="fil0 str0" d="M17317 4386l0 972c0,85 60,144 144,144l2378 0c84,0 144,-59 144,-144l0 -972c0,-85 -60,-144 -144,-144l-2378 0c-84,0 -144,59 -144,144z"/>        <path class="fil1" d="M17971 4942l0 3c0,37 12,66 35,87 23,21 57,31 101,31 38,0 68,-9 91,-28 22,-19 33,-45 33,-77 0,-29 -9,-52 -27,-68 -18,-16 -47,-28 -87,-38l-42 -11c-22,-5 -37,-13 -47,-22 -9,-10 -14,-23 -14,-40 0,-22 7,-38 21,-50 14,-12 35,-18 62,-18 28,0 50,7 65,21 16,13 24,33 24,59l35 0c-1,-34 -12,-62 -33,-81 -22,-19 -51,-29 -89,-29 -37,0 -66,9 -88,27 -21,18 -31,41 -31,70 0,28 8,50 24,65 14,13 39,24 75,33l34 9c31,7 53,16 64,26 14,11 20,28 20,51 0,21 -8,38 -24,51 -16,13 -38,20 -66,20 -33,0 -58,-8 -76,-24 -17,-16 -26,-38 -26,-67l-34 0z"/>        <polygon  class="fil1" points="18309,5053 18341,5053 18341,4877 18549,4877 18549,5053 18582,5053 18582,4689 18549,4689 18549,4847 18341,4847 18341,4689 18309,4689 "/>        <polygon  class="fil1" points="18678,5053 18710,5053 18710,4689 18678,4689 "/>        <polygon  class="fil1" points="18803,5053 18836,5053 18836,4881 19015,4881 19015,4851 18836,4851 18836,4720 19032,4720 19032,4689 18803,4689 "/>        <polygon  class="fil1" points="19183,5053 19216,5053 19216,4720 19329,4720 19329,4689 19070,4689 19070,4720 19183,4720 "/>  </g>      <g data-code="ControlLeft">   <path class="fil0 str0" d="M27 5790l0 973c0,84 60,144 144,144l3134 0c84,0 144,-60 144,-144l0 -973c0,-84 -60,-144 -144,-144l-3134 0c-84,0 -144,60 -144,144z"/>        <g class="en">    <path class="fil1" d="M690 6339c-2,30 -13,55 -33,72 -19,18 -45,27 -77,27 -39,0 -70,-14 -92,-43 -23,-28 -34,-69 -34,-120 0,-51 11,-91 33,-118 22,-28 53,-41 92,-41 30,0 55,7 74,23 19,15 30,35 34,62l32 0c-2,-35 -16,-63 -40,-84 -26,-21 -59,-31 -100,-31 -49,0 -87,16 -116,49 -29,34 -43,81 -43,140 0,61 14,108 43,142 28,34 66,51 115,51 43,0 77,-12 102,-35 25,-23 40,-54 42,-94l-32 0z"/>          <polygon  class="fil1" points="796,6458 1015,6458 1015,6428 829,6428 829,6094 796,6094 "/>          <polygon  class="fil1" points="1069,6458 1313,6458 1313,6428 1102,6428 1102,6286 1289,6286 1289,6256 1102,6256 1102,6124 1307,6124 1307,6094 1069,6094 "/>          <path  class="fil1" d="M1344 6458l35 0 41 -111 164 0 40 111 35 0 -138 -364 -39 0 -138 364zm88 -141l69 -188 71 188 -140 0z"/>          <path  class="fil1" d="M1723 6458l33 0 0 -162 106 0c29,0 48,5 57,15 9,9 15,30 17,62l4 47c1,9 2,17 3,22 1,7 3,12 5,16l37 0 0 -5c-4,-3 -6,-7 -8,-13 -2,-5 -4,-12 -4,-21l-4 -55c-3,-26 -6,-45 -10,-54 -7,-14 -19,-24 -36,-29 19,-7 33,-18 43,-33 10,-16 15,-35 15,-57 0,-19 -3,-35 -11,-49 -8,-14 -19,-25 -33,-33 -12,-7 -26,-11 -42,-13 -11,-1 -28,-2 -52,-2l-120 0 0 364zm33 -192l0 -142 94 0c18,0 31,1 40,2 12,2 22,6 30,11 9,6 15,13 20,23 5,9 7,20 7,32 0,26 -8,45 -23,57 -15,11 -39,17 -72,17l-96 0z"/>          <path  class="fil1" d="M2186 6458l35 0 41 -111 163 0 41 111 35 0 -138 -364 -40 0 -137 364zm87 -141l70 -188 71 188 -141 0z"/>          <polygon  class="fil1" points="2564,6458 2783,6458 2783,6428 2597,6428 2597,6094 2564,6094 "/>          <polygon  class="fil1" points="2837,6458 3056,6458 3056,6428 2870,6428 2870,6094 2837,6094 "/>   </g>        <g class="ru">   <path class="fil1" d="M889 6108l0 0c-3,30 -14,53 -33,69 -20,17 -45,26 -78,26 -38,0 -69,-14 -91,-41 -22,-27 -33,-65 -33,-113 0,-48 11,-85 33,-112 22,-26 52,-39 91,-39 30,0 55,7 74,21 19,15 30,35 33,60l33 0c-2,-33 -16,-60 -41,-80 -25,-20 -58,-30 -99,-30 -49,0 -87,16 -115,47 -29,33 -43,77 -43,133 0,57 14,101 42,134 28,33 67,49 115,49 42,0 76,-11 102,-33 25,-22 39,-52 42,-91l-32 0z"/>          <polygon id="1" class="fil1" points="1120,6222 1120,6222 1120,5907 1233,5907 1233,5877 975,5877 975,5907 1087,5907 1087,6222 "/>          <polygon id="2" class="fil1" points="1303,6222 1303,6222 1546,6222 1546,6192 1336,6192 1336,6061 1522,6061 1522,6032 1336,6032 1336,5907 1540,5907 1540,5877 1303,5877 "/>          <path id="3" class="fil1" d="M1638 6222l0 0 33 0 0 -150 77 0c45,0 79,-8 101,-24 23,-17 34,-41 34,-74 0,-32 -10,-56 -30,-73 -20,-16 -50,-24 -89,-24l-126 0 0 345zm33 -178l0 0 0 -138 92 0c29,0 51,5 65,16 14,11 21,28 21,52 0,25 -8,42 -25,53 -16,11 -41,17 -75,17l-78 0z"/>          <polygon id="4" class="fil1" points="1974,6222 1974,6222 2217,6222 2217,6192 2007,6192 2007,6061 2193,6061 2193,6032 2007,6032 2007,5907 2211,5907 2211,5877 1974,5877 "/>          <polygon id="5" class="fil1" points="2419,6222 2419,6222 2419,5907 2532,5907 2532,5877 2274,5877 2274,5907 2387,5907 2387,6222 "/>          <path id="6" class="fil1" d="M2634 6193l0 0 0 -140 89 0c29,0 52,6 67,18 15,12 23,28 23,50 0,25 -8,43 -23,55 -15,11 -37,17 -67,17l-89 0zm-32 29l0 0 123 0c40,0 70,-9 91,-27 21,-17 31,-42 31,-74 0,-29 -10,-52 -31,-70 -22,-19 -52,-28 -91,-28l-90 0 0 -146 -33 0 0 345z"/>          <path class="fil1" d="M1246 6640l0 0 103 0c29,0 51,-1 65,-2 18,-1 31,-3 39,-6 18,-7 32,-19 42,-34 10,-15 15,-32 15,-51 0,-22 -6,-42 -19,-58 -12,-16 -29,-27 -51,-31 17,-7 30,-17 40,-31 9,-13 14,-28 14,-44 0,-16 -4,-31 -12,-43 -7,-13 -18,-23 -32,-31 -10,-6 -22,-10 -35,-12 -12,-2 -27,-3 -46,-3l-117 0 -6 0 0 31 0 315zm117 -315l0 0c34,0 59,4 73,12 16,9 24,25 24,49 0,23 -8,39 -25,49 -15,8 -40,12 -75,12l-81 0 0 -122 84 0zm-84 285l0 0 0 -134 104 0c30,0 54,6 70,18 15,12 23,29 23,52 0,24 -8,40 -23,50 -15,9 -39,14 -73,14l-101 0z"/>          <path id="1" class="fil1" d="M1858 6526l0 0c-2,30 -13,53 -33,69 -19,17 -45,26 -77,26 -38,0 -69,-14 -91,-41 -22,-27 -33,-65 -33,-113 0,-48 11,-86 32,-112 22,-26 53,-39 92,-39 30,0 54,7 73,21 19,15 31,35 34,60l33 0c-3,-33 -16,-60 -41,-80 -26,-20 -59,-31 -99,-31 -49,0 -88,16 -116,48 -28,32 -43,77 -43,133 0,56 14,101 43,134 28,33 66,49 115,49 42,0 76,-11 101,-34 26,-22 40,-52 43,-90l-33 0z"/>          <polygon id="2" class="fil1" points="1980,6640 1980,6640 2222,6640 2222,6610 2012,6610 2012,6479 2199,6479 2199,6449 2012,6449 2012,6325 2217,6325 2217,6294 1980,6294 "/>  </g>  </g>      <g data-code="LangSwitch">   <path class="fil0 str0" d="M3629 5790l0 973c0,84 60,144 144,144l2414 0c84,0 144,-60 144,-144l0 -973c0,-84 -60,-144 -144,-144l-2414 0c-84,0 -144,60 -144,144z"/>        <path class="fil1" d="M4078 6529l0 -487 228 0c42,0 75,4 97,12 22,8 40,23 54,44 14,22 21,48 21,80 0,27 -6,50 -16,70 -11,19 -25,35 -43,47 -12,8 -28,15 -48,20 16,6 28,12 35,18 5,4 12,12 22,25 9,13 16,23 19,31l66 140 -154 0 -73 -148c-9,-20 -18,-32 -25,-38 -10,-7 -21,-11 -33,-11l-12 0 0 197 -138 0zm138 -289l57 0c6,0 19,-2 37,-7 9,-2 16,-7 22,-15 5,-8 8,-18 8,-28 0,-16 -4,-28 -13,-37 -9,-8 -26,-12 -51,-12l-60 0 0 99z"/>        <path  class="fil1" d="M4876 6529l-115 0 0 -57c-17,24 -34,41 -52,51 -17,9 -38,14 -64,14 -33,0 -60,-11 -79,-33 -19,-22 -29,-57 -29,-103l0 -225 124 0 0 195c0,22 4,38 11,47 7,9 18,14 31,14 15,0 27,-6 36,-19 9,-12 14,-34 14,-67l0 -170 123 0 0 353z"/>        <polygon  class="fil1" points="4927,6299 5106,6299 5106,6404 4927,6404 "/>        <polygon  class="fil1" points="5164,6042 5530,6042 5530,6146 5302,6146 5302,6224 5514,6224 5514,6323 5302,6323 5302,6419 5537,6419 5537,6529 5164,6529 "/>        <path  class="fil1" d="M5603 6176l114 0 0 58c17,-24 34,-41 52,-51 17,-10 39,-15 64,-15 34,0 60,11 80,33 19,23 28,57 28,104l0 224 -123 0 0 -194c0,-22 -4,-38 -11,-47 -8,-9 -18,-14 -32,-14 -14,0 -26,6 -36,19 -9,12 -13,34 -13,67l0 169 -123 0 0 -353z"/>        <circle class="fil2 act-ru" cx="3847" cy="5876" r="149"/>        <circle class="fil2 act-en" cx="6094" cy="5876" r="149"/>  </g>      <g data-code="Space">   <path class="fil0 str0" d="M6475 5790l0 973c0,84 60,144 144,144l6772 0c84,0 144,-60 144,-144l0 -973c0,-84 -60,-144 -144,-144l-6772 0c-84,0 -144,60 -144,144z"/>  </g>      <g data-code="Period">   <path class="fil0 str0" d="M13715 5790l0 973c0,84 60,144 144,144l973 0c84,0 144,-60 144,-144l0 -973c0,-84 -60,-144 -144,-144l-973 0c-84,0 -144,60 -144,144z"/>        <path class="fil1" d="M14245 6277c0,-28 10,-52 29,-72 20,-20 43,-30 72,-30 28,0 52,10 71,30 20,19 29,43 29,72 0,29 -10,53 -29,72 -20,20 -43,29 -71,29 -29,0 -52,-9 -72,-29 -19,-19 -29,-43 -29,-72z"/>  </g>      <g data-code="Comma">   <path class="fil0 str0" d="M15156 5790l0 973c0,84 60,144 144,144l973 0c84,0 144,-60 144,-144l0 -973c0,-84 -60,-144 -144,-144l-973 0c-84,0 -144,60 -144,144z"/>        <path class="fil1" d="M15732 6521c-20,0 -37,-7 -51,-21 -15,-13 -23,-30 -23,-49 0,-16 6,-35 17,-56l89 -160c22,-40 48,-60 77,-60 21,0 38,6 52,19 14,13 21,29 21,49 0,18 -5,37 -17,58l-87 159c-23,41 -49,61 -78,61z"/>  </g>      <g data-code="ControlRight">   <path class="fil0 str0" d="M16597 5790l0 973c0,84 60,144 144,144l3098 0c84,0 144,-60 144,-144l0 -973c0,-84 -60,-144 -144,-144l-3098 0c-84,0 -144,60 -144,144z"/>        <g class="en">    <path class="fil1" d="M16841 6300l0 3c0,37 11,66 35,87 23,21 56,31 100,31 39,0 69,-10 91,-29 23,-19 34,-44 34,-76 0,-29 -9,-52 -28,-69 -17,-15 -46,-28 -86,-37l-42 -11c-22,-5 -38,-13 -47,-22 -10,-10 -15,-23 -15,-40 0,-22 7,-39 22,-50 14,-12 35,-18 62,-18 28,0 49,7 65,21 15,13 23,33 24,59l34 0c0,-35 -11,-62 -33,-81 -21,-20 -51,-29 -89,-29 -37,0 -66,9 -88,27 -20,17 -31,41 -31,70 0,28 8,50 24,65 15,13 40,24 75,33l34 8c32,8 53,17 65,27 13,11 20,28 20,50 0,22 -8,39 -24,52 -16,13 -39,20 -67,20 -32,0 -57,-8 -75,-24 -17,-16 -26,-38 -26,-67l-34 0z"/>          <polygon  class="fil1" points="17178,6411 17422,6411 17422,6381 17211,6381 17211,6239 17398,6239 17398,6209 17211,6209 17211,6078 17416,6078 17416,6047 17178,6047 "/>          <polygon  class="fil1" points="17495,6411 17714,6411 17714,6381 17528,6381 17528,6047 17495,6047 "/>          <polygon  class="fil1" points="17768,6411 18012,6411 18012,6381 17801,6381 17801,6239 17988,6239 17988,6209 17801,6209 17801,6078 18006,6078 18006,6047 17768,6047 "/>          <path  class="fil1" d="M18343 6292c-3,31 -14,55 -34,72 -19,18 -45,27 -77,27 -39,0 -70,-14 -92,-43 -22,-28 -34,-69 -34,-120 0,-51 12,-90 34,-118 22,-27 52,-41 91,-41 31,0 55,8 74,23 20,15 31,36 34,62l33 0c-3,-35 -16,-63 -41,-84 -25,-21 -59,-31 -100,-31 -49,0 -87,16 -115,49 -29,34 -44,81 -44,141 0,60 14,107 43,141 28,34 66,51 115,51 43,0 77,-12 102,-35 26,-23 40,-54 43,-94l-32 0z"/>          <polygon  class="fil1" points="18526,6411 18559,6411 18559,6078 18672,6078 18672,6047 18414,6047 18414,6078 18526,6078 "/>          <path  class="fil1" d="M18869 6411l35 0 41 -111 164 0 40 111 35 0 -138 -364 -39 0 -138 364zm87 -141l70 -187 71 187 -141 0z"/>          <polygon  class="fil1" points="19248,6411 19466,6411 19466,6381 19280,6381 19280,6047 19248,6047 "/>          <polygon  class="fil1" points="19520,6411 19739,6411 19739,6381 19553,6381 19553,6047 19520,6047 "/>   </g>        <g class="ru">   <path class="fil1" d="M16844 6194l0 0 103 0c29,0 51,0 65,-1 18,-2 31,-4 40,-7 17,-7 31,-18 41,-34 10,-15 15,-32 15,-51 0,-22 -6,-41 -19,-58 -12,-16 -29,-27 -51,-31 17,-7 30,-17 40,-31 9,-13 14,-27 14,-43 0,-17 -4,-31 -12,-44 -7,-13 -18,-23 -32,-31 -10,-5 -21,-10 -35,-12 -12,-1 -27,-2 -46,-2l-117 0 -6 0 0 30 0 315zm117 -315l0 0c34,0 59,4 73,12 16,9 24,26 24,49 0,23 -8,40 -25,49 -15,8 -40,12 -75,12l-81 0 0 -122 84 0zm-84 285l0 0 0 -133 104 0c30,0 54,6 70,17 15,12 23,29 23,52 0,24 -8,40 -23,50 -15,9 -39,14 -73,14l-101 0z"/>          <path id="1" class="fil1" d="M17230 6165l0 0 0 -140 90 0c29,0 51,6 67,18 15,12 22,28 22,50 0,25 -7,43 -22,55 -15,11 -38,17 -67,17l-90 0zm-32 29l0 0 123 0c40,0 70,-9 91,-27 21,-17 31,-42 31,-74 0,-29 -10,-52 -31,-70 -22,-19 -52,-28 -91,-28l-90 0 0 -146 -33 0 0 345zm292 0l0 0 33 0 0 -345 -33 0 0 345z"/>          <path id="2" class="fil1" d="M17704 5849l0 0 0 20c0,53 -5,103 -17,150 -18,72 -48,130 -91,175l-3 71 22 0c1,-22 5,-38 11,-49 9,-15 21,-22 39,-22l202 0c16,0 29,6 41,17 12,12 21,30 29,54l18 0 -6 -71c-14,0 -25,-3 -35,-11 -9,-7 -13,-15 -13,-25l0 -309 -197 0zm34 29l0 0 129 0 0 286 -209 0c28,-40 49,-93 64,-158 10,-46 15,-89 16,-128z"/>          <polygon id="3" class="fil1" points="18024,6194 18024,6194 18267,6194 18267,6164 18057,6164 18057,6033 18243,6033 18243,6004 18057,6004 18057,5879 18261,5879 18261,5849 18024,5849 "/>          <path id="4" class="fil1" d="M18443 5849l0 0 0 137c0,55 -9,96 -27,123 -20,29 -54,48 -102,56l16 30c49,-13 85,-36 108,-68 25,-32 37,-77 37,-133l0 -114 122 0 0 314 34 0 0 -314 0 0 0 -31 -188 0z"/>          <polygon id="5" class="fil1" points="18950,5849 18950,5849 18950,5870 18760,6123 18760,5849 18726,5849 18726,6194 18760,6194 18760,6172 18950,5918 18950,6194 18983,6194 18983,5849 "/>          <polygon id="6" class="fil1" points="19206,6194 19206,6194 19206,5879 19319,5879 19319,5849 19061,5849 19061,5879 19174,5879 19174,6194 "/>          <path id="7" class="fil1" d="M19421 6165l0 0 0 -140 89 0c29,0 51,6 67,18 15,12 22,28 22,50 0,25 -7,43 -22,55 -15,11 -37,17 -67,17l-89 0zm-32 29l0 0 122 0c40,0 71,-9 92,-27 20,-17 31,-42 31,-74 0,-29 -11,-52 -31,-70 -22,-19 -52,-28 -92,-28l-89 0 0 -146 -33 0 0 345z"/>          <path class="fil1" d="M17799 6660l0 0 103 0c29,0 51,-1 65,-2 18,-1 31,-3 39,-6 18,-7 32,-19 42,-34 10,-15 15,-32 15,-51 0,-22 -6,-42 -19,-58 -13,-16 -30,-27 -51,-31 17,-7 30,-17 39,-31 10,-13 15,-28 15,-44 0,-16 -4,-31 -12,-43 -8,-13 -18,-23 -32,-31 -10,-6 -22,-10 -35,-12 -12,-2 -27,-3 -46,-3l-117 0 -6 0 0 31 0 315zm117 -315l0 0c34,0 58,4 73,12 16,9 24,25 24,49 0,23 -8,39 -25,48 -15,9 -40,13 -75,13l-81 0 0 -122 84 0zm-84 285l0 0 0 -134 104 0c30,0 53,6 69,18 16,12 24,29 24,52 0,23 -8,40 -24,50 -14,9 -38,14 -72,14l-101 0z"/>          <path id="1" class="fil1" d="M18411 6546l0 0c-2,30 -13,53 -33,69 -19,17 -45,26 -77,26 -38,0 -69,-14 -91,-41 -22,-28 -34,-65 -34,-113 0,-48 11,-86 33,-112 22,-26 53,-40 92,-40 30,0 54,8 73,22 19,15 30,35 34,60l33 0c-3,-33 -16,-60 -41,-80 -26,-20 -59,-31 -99,-31 -49,0 -88,16 -116,48 -28,32 -43,77 -43,133 0,56 14,101 43,134 28,33 66,49 115,49 42,0 76,-11 101,-34 26,-22 40,-52 43,-90l-33 0z"/>          <polygon id="2" class="fil1" points="18532,6660 18532,6660 18775,6660 18775,6630 18565,6630 18565,6499 18752,6499 18752,6469 18565,6469 18565,6345 18770,6345 18770,6314 18532,6314 "/>  </g>  </g> </g></svg>