<?xml version="1.0" encoding="iso-8859-1"?>
<!-- Generator: Adobe Illustrator 19.0.0, SVG Export Plug-In . SVG Version: 6.00 Build 0)  -->
<svg version="1.1" id="Capa_1" xmlns="http://www.w3.org/2000/svg" xmlns:xlink="http://www.w3.org/1999/xlink" x="0px" y="0px"
	 viewBox="0 0 512 512" style="enable-background:new 0 0 512 512;" xml:space="preserve">
<g>
	<g>
		<path d="M256,0c-53.574,0-97.164,43.59-97.164,97.164v164.079c0,53.574,43.59,97.158,97.164,97.158
			c53.58,0,97.164-43.852,97.164-97.745V97.164C353.164,43.59,309.58,0,256,0z M318.255,260.655
			c0,34.647-27.927,62.836-62.255,62.836s-62.255-27.927-62.255-62.255V97.164c0-34.327,27.927-62.255,62.255-62.255
			s62.255,27.927,62.255,62.255V260.655z"/>
	</g>
</g>
<g>
	<g>
		<rect x="238.545" y="402.036" width="34.909" height="92.509"/>
	</g>
</g>
<g>
	<g>
		<path d="M325.236,477.091H186.764c-9.641,0-17.455,7.814-17.455,17.455S177.123,512,186.764,512h138.467
			c9.647,0,17.46-7.814,17.46-17.455S334.877,477.091,325.236,477.091z"/>
	</g>
</g>
<g>
	<g>
		<path d="M396.8,201.315h-61.673v34.909h44.218v48.291c0,45.324-55.023,100.067-123.345,100.067
			c-68.015,0-123.345-55.331-123.345-123.34v-25.018h43.636v-34.909H115.2c-9.641,0-17.455,7.814-17.455,17.455v42.473
			c0,87.261,70.993,158.249,158.255,158.249c89.123,0,158.255-72.559,158.255-134.976v-65.745
			C414.255,209.129,406.441,201.315,396.8,201.315z"/>
	</g>
</g>
<g>
</g>
<g>
</g>
<g>
</g>
<g>
</g>
<g>
</g>
<g>
</g>
<g>
</g>
<g>
</g>
<g>
</g>
<g>
</g>
<g>
</g>
<g>
</g>
<g>
</g>
<g>
</g>
<g>
</g>
</svg>
