<svg xmlns="http://www.w3.org/2000/svg" xml:space="preserve" width="195.968mm" height="67.9096mm" version="1.1" style="shape-rendering:geometricPrecision; text-rendering:geometricPrecision; image-rendering:optimizeQuality; fill-rule:evenodd; clip-rule:evenodd" viewBox="0 0 20010 6934"  xmlns:xlink="http://www.w3.org/1999/xlink">
 <defs>
  <style type="text/css"> 
     .str0 {stroke:#69BEE7;stroke-width:53.9816;stroke-linejoin:round}
    .fil23 {fill:#FEFEFE}
    .fil16 {fill:black}
    .fil26 {fill:#9996FF}
    .fil21 {fill:#FEFEFE}
    .fil22 {fill:#FF0033}
    .fil19 {fill:#6399F1;fill-rule:nonzero}
    .fil20 {fill:#77A4FF;fill-rule:nonzero}
    .fil18 {fill:#9996FF;fill-rule:nonzero}
    .fil24 {fill:#999FFF;fill-rule:nonzero}
    .fil25 {fill:#ED1E92;fill-rule:nonzero}
    .fil4 {fill:url(#id0)}
    .fil3 {fill:url(#id1)}
    .fil2 {fill:url(#id2)}
    .fil1 {fill:url(#id3)}
    .fil6 {fill:url(#id4)}
    .fil5 {fill:url(#id5)}
    .fil0 {fill:url(#id6)}
    .fil15 {fill:url(#id7)}
    .fil14 {fill:url(#id8)}
    .fil12 {fill:url(#id9)}
    .fil11 {fill:url(#id10)}
    .fil10 {fill:url(#id11)}
    .fil7 {fill:url(#id12)}
    .fil9 {fill:url(#id13)}
    .fil8 {fill:url(#id14)}
    .fil13 {fill:url(#id15)}
    .fil17 {fill:url(#id16)}
    .lang-en .ru, .lang-ru .en {display: none}
    .lang-en .act-en, .lang-ru .act-ru {fill:#FF0033}
    .caps #caps-pipka {fill:#FF0033}
                g[data-code]:hover > path:nth-child(1), 
                g[data-code]:hover > circle:nth-child(1){
                fill: #FFA500!important;
                }
                g[data-code]:hover > path:nth-child(1), 
                g[data-code]:hover > rect:nth-child(1){
                fill: #FFA500!important;
                }                
                g[data-code]:hover > path:nth-child(2), 
                g[data-code]:hover > circle:nth-child(2){
                fill: #4B0082!important;
                }
                g[data-code]:hover > path:nth-child(2), 
                g[data-code]:hover > rect:nth-child(2){
                fill: #4B0082!important;
                }
  </style>
  <linearGradient id="id0" gradientUnits="userSpaceOnUse" x1="17291.5" y1="4393.28" x2="19974.5" y2="5362.99">
   <stop offset="0" style="stop-color:#6399F1"/>
   <stop offset="0.301961" style="stop-color:#273F6F"/>
   <stop offset="0.439216" style="stop-color:#557CC1"/>
   <stop offset="0.470588" style="stop-color:#C0D1FD"/>
   <stop offset="0.768627" style="stop-color:#4E77B7"/>
   <stop offset="0.890196" style="stop-color:#9996FF"/>
   <stop offset="1" style="stop-color:#77A4FF"/>
  </linearGradient>
  <linearGradient id="id1" gradientUnits="objectBoundingBox" xlink:href="#id0" x1="1.18349%" y1="13.4203%" x2="98.8161%" y2="86.5797%">
  </linearGradient>
  <linearGradient id="id2" gradientUnits="userSpaceOnUse" xlink:href="#id0" x1="16632.9" y1="5687.73" x2="19913.9" y2="6873.55">
  </linearGradient>
  <linearGradient id="id3" gradientUnits="userSpaceOnUse" xlink:href="#id0" x1="93.5086" y1="5682.33" x2="3404.4" y2="6878.95">
  </linearGradient>
  <linearGradient id="id4" gradientUnits="userSpaceOnUse" xlink:href="#id0" x1="17939.7" y1="296.551" x2="20009.6" y2="1044.68">
  </linearGradient>
  <linearGradient id="id5" gradientUnits="objectBoundingBox" xlink:href="#id0" x1="0%" y1="22.0891%" x2="100.254%" y2="77.9109%">
  </linearGradient>
  <linearGradient id="id6" gradientUnits="userSpaceOnUse" xlink:href="#id0" x1="6904.21" y1="5160.98" x2="13100.1" y2="7400.31">
  </linearGradient>
  <linearGradient id="id7" gradientUnits="objectBoundingBox" xlink:href="#id0" x1="0%" y1="30.4164%" x2="104.186%" y2="69.5836%">
  </linearGradient>
  <linearGradient id="id8" gradientUnits="objectBoundingBox" xlink:href="#id0" x1="0%" y1="30.4164%" x2="104.186%" y2="69.5836%">
  </linearGradient>
  <linearGradient id="id9" gradientUnits="userSpaceOnUse" xlink:href="#id0" x1="16502.4" y1="413.984" x2="17922.6" y2="927.247">
  </linearGradient>
  <linearGradient id="id10" gradientUnits="userSpaceOnUse" xlink:href="#id0" x1="16502.4" y1="3219" x2="17922.6" y2="3732.26">
  </linearGradient>
  <linearGradient id="id11" gradientUnits="objectBoundingBox" xlink:href="#id0" x1="0%" y1="30.8514%" x2="102.982%" y2="69.1486%">
  </linearGradient>
  <linearGradient id="id12" gradientUnits="objectBoundingBox" xlink:href="#id0" x1="0%" y1="30.8514%" x2="102.982%" y2="69.1486%">
  </linearGradient>
  <linearGradient id="id13" gradientUnits="objectBoundingBox" xlink:href="#id0" x1="0%" y1="30.8507%" x2="102.982%" y2="69.1493%">
  </linearGradient>
  <linearGradient id="id14" gradientUnits="userSpaceOnUse" xlink:href="#id0" x1="10748.5" y1="3218.99" x2="12168.7" y2="3732.27">
  </linearGradient>
  <linearGradient id="id15" gradientUnits="userSpaceOnUse" xlink:href="#id0" x1="695.417" y1="419.815" x2="2083.28" y2="921.416">
  </linearGradient>
  <linearGradient id="id16" gradientUnits="userSpaceOnUse" xlink:href="#id0" x1="-40.8979" y1="529.563" x2="738.222" y2="811.159">
  </linearGradient>
 </defs>
 <g id="wrapper" class="lang-en">
  <g data-code="Backquote">
   <rect class="fil17" x="40" width="617" height="1341" rx="212" ry="212"/>
   <rect class="fil16" x="97" y="78" width="504" height="1186" rx="161" ry="288"/>
   <path class="fil18" d="M446 709l0 146 -199 0 0 -208c0,-15 3,-29 9,-42 6,-13 14,-25 25,-36 10,-11 22,-21 35,-30 14,-8 28,-15 42,-21 15,-6 30,-10 44,-14 15,-3 28,-4 41,-4l0 141 -51 0 0 68 54 0z"/>
  </g>
  <g data-code="Digit1">
   <path class="fil13" d="M719 185c0,-107 78,-184 185,-184l971 0c107,0 184,77 184,184l0 971c0,107 -77,185 -184,185l-971 0c-107,0 -185,-78 -185,-185l0 -971z"/>
   <path class="fil16" d="M797 213l0 915c0,79 56,135 135,135l915 0c79,0 135,-56 135,-135l0 -915c0,-79 -56,-135 -135,-135l-915 0c-79,0 -135,56 -135,135z"/>
   <path class="fil18" d="M1324 769l0 314 -108 0 0 -321 -81 81 -76 -81 73 -68c13,-11 27,-20 41,-26 14,-5 29,-8 45,-8 15,0 29,2 42,7 13,5 25,12 34,21 9,9 17,20 22,34 5,13 8,29 8,47z"/>
   <path class="fil18" d="M1927 214l-18 195c-1,11 -4,18 -10,24 -6,6 -13,8 -22,8 -9,0 -17,-2 -22,-8 -6,-6 -10,-13 -10,-24l-19 -195c-1,-10 -1,-16 -1,-20 0,-16 5,-29 15,-39 10,-10 22,-15 37,-15 14,0 26,5 36,15 10,10 15,23 15,38 0,3 0,10 -1,21zm-11 322c0,9 -3,17 -10,23 -7,7 -17,10 -29,10 -12,0 -21,-3 -28,-10 -7,-6 -11,-14 -11,-23 0,-9 4,-17 11,-24 6,-6 16,-9 28,-9 13,0 22,3 29,9 7,7 10,15 10,24z"/>
  </g>
  <g data-code="Digit2">
   <path class="fil14" d="M2158 185c0,-107 78,-184 184,-184l971 0c107,0 185,77 185,184l0 971c0,107 -78,185 -185,185l-971 0c-106,0 -184,-78 -184,-185l0 -971z"/>
   <path class="fil16" d="M2235 213l0 915c0,79 56,135 136,135l914 0c79,0 135,-56 135,-135l0 -915c0,-79 -56,-135 -135,-135l-914 0c-80,0 -136,56 -136,135z"/>
   <path class="fil18" d="M2491 975l374 0 0 110 -458 0 0 -151c0,-15 3,-30 9,-44 5,-14 13,-26 22,-37 10,-10 21,-19 34,-26 13,-6 27,-9 42,-9l281 0 0 -54 -391 0 0 -104 378 0c11,0 21,3 32,9 11,6 21,13 30,22 9,9 16,20 22,31 6,11 9,23 9,34l0 62c0,7 -2,14 -4,22 -2,8 -5,16 -9,23 -4,8 -9,16 -15,23 -5,7 -11,13 -18,18 -7,6 -14,10 -22,14 -7,3 -15,4 -23,4l-293 0 0 53z"/>
   <path class="fil18" d="M3266 243l0 -15c0,-17 -5,-30 -14,-39 -9,-10 -21,-15 -36,-15 -12,0 -23,4 -33,11 -11,8 -18,18 -24,31 -9,21 -14,43 -14,65l0 75c0,38 9,68 26,90 11,15 26,22 46,22 11,0 21,-2 30,-4 9,-3 16,-7 20,-12 5,-4 10,-7 14,-7 5,0 10,2 13,6 4,3 6,8 6,13 0,8 -6,16 -17,24 -16,11 -39,17 -67,17 -22,0 -40,-5 -54,-15 -18,-13 -31,-32 -40,-57 -9,-25 -14,-49 -14,-74l0 -81c0,-39 10,-73 29,-100 20,-28 46,-41 78,-41 15,0 28,3 41,9 13,6 24,16 34,31 9,15 13,32 13,50l0 135c7,3 11,8 11,16 0,6 -2,11 -6,14 -4,4 -10,6 -20,6l-22 0 0 -2c-8,1 -13,2 -17,2 -19,0 -36,-7 -51,-22 -15,-15 -22,-32 -22,-51 0,-21 8,-40 24,-55 16,-16 38,-25 66,-27zm0 39c-17,1 -30,6 -40,15 -9,8 -13,17 -13,28 0,9 4,18 11,24 8,7 18,11 30,11 3,0 7,-1 12,-1l0 -77z"/>
  </g>
  <g data-code="Digit3">
   <path class="fil10" d="M3596 185c0,-107 78,-184 185,-184l971 0c106,0 184,77 184,184l0 971c0,107 -78,185 -184,185l-971 0c-107,0 -185,-78 -185,-185l0 -971z"/>
   <path class="fil16" d="M3674 213l0 915c0,79 56,135 135,135l914 0c80,0 136,-56 136,-135l0 -915c0,-79 -56,-135 -136,-135l-914 0c-79,0 -135,56 -135,135z"/>
   <path class="fil18" d="M3887 660l446 0c18,0 37,3 54,9 17,6 33,14 46,25 13,11 24,25 32,40 7,16 11,34 11,53 0,14 -2,28 -6,43 -5,14 -11,27 -19,40 19,21 28,46 28,74 0,20 -3,38 -10,55 -7,17 -16,32 -28,44 -12,13 -26,22 -43,29 -17,7 -35,11 -55,11l-454 0 0 -108 480 0 0 -47 -482 0 0 -110 482 0 0 -50 -482 0 0 -108z"/>
   <path class="fil18" d="M4708 255l12 0c12,0 21,3 26,7 5,5 8,11 8,18 0,8 -2,14 -8,19 -5,4 -13,7 -25,7l-16 0 -4 54 9 0c12,0 21,3 26,7 5,5 8,11 8,19 0,7 -3,13 -8,18 -5,4 -14,7 -26,7l-13 0 -6 86c0,2 -1,8 -4,18 -1,4 -4,7 -8,10 -5,3 -9,4 -14,4 -6,0 -12,-2 -17,-7 -5,-5 -7,-12 -7,-19 0,-2 0,-5 0,-10l6 -82 -37 0 -6 86c-1,9 -2,14 -2,16 -2,5 -5,9 -10,12 -4,3 -9,4 -14,4 -7,0 -13,-2 -18,-7 -4,-5 -7,-12 -7,-19 0,-2 0,-5 1,-9l6 -83 -13 0c-12,0 -21,-3 -26,-7 -5,-5 -8,-11 -8,-19 0,-7 3,-13 8,-18 5,-4 14,-7 26,-7l16 0 4 -54 -10 0c-12,0 -20,-3 -26,-7 -5,-5 -7,-11 -7,-19 0,-7 2,-13 7,-18 5,-4 14,-7 26,-7l13 0 6 -86c1,-9 1,-14 2,-16 2,-5 5,-9 9,-12 5,-3 9,-4 15,-4 7,0 12,2 17,7 5,5 8,12 8,20 0,2 0,5 -1,8l-6 83 38 0 6 -86c1,-12 3,-20 8,-25 5,-5 11,-7 18,-7 7,0 13,2 18,7 5,5 7,11 7,19 0,1 0,3 0,4l-1 5 -6 83zm-54 51l-37 0 -4 54 38 0 3 -54z"/>
   </g>
  <g data-code="Digit4">
   <path class="fil10" d="M5035 185c0,-107 78,-184 184,-184l971 0c107,0 185,77 185,184l0 971c0,107 -78,185 -185,185l-971 0c-106,0 -184,-78 -184,-185l0 -971z"/>
   <path class="fil16" d="M5112 213l0 915c0,79 56,135 136,135l914 0c79,0 135,-56 135,-135l0 -915c0,-79 -56,-135 -135,-135l-914 0c-80,0 -136,56 -136,135z"/>
   <path class="fil18" d="M5785 860l0 -200 111 0 0 200 46 0 0 110 -46 0 0 116 -111 0 0 -116 -346 0c-27,0 -50,-3 -70,-7 -20,-5 -37,-14 -52,-25 -14,-12 -24,-27 -32,-46 -7,-19 -11,-43 -11,-71l0 -160 117 0 0 199 394 0z"/>
   <path class="fil18" d="M6078 174c12,1 23,5 34,10 3,-2 5,-3 8,-3 2,-1 4,-2 7,-2 7,0 13,3 18,8 5,5 7,14 7,26l0 16c0,12 -2,21 -7,26 -5,5 -11,8 -18,8 -7,0 -13,-2 -17,-7 -5,-4 -8,-11 -8,-19 -12,-10 -27,-14 -45,-14 -18,0 -32,3 -40,10 -9,6 -13,14 -13,22 0,6 2,11 8,16 5,5 16,9 33,13l33 7c28,6 48,14 60,26 17,14 24,34 24,58 0,21 -7,39 -22,56 -14,16 -35,27 -62,32l0 43c0,12 -2,21 -7,26 -5,5 -11,7 -18,7 -8,0 -14,-2 -18,-7 -5,-5 -7,-14 -7,-26l0 -43c-14,-3 -27,-7 -40,-13 -7,6 -13,9 -19,9 -9,0 -15,-3 -19,-8 -5,-5 -8,-13 -8,-26l0 -31c0,-12 3,-21 7,-26 5,-5 11,-8 19,-8 6,0 11,2 15,5 4,3 7,8 9,15 2,7 4,12 7,15 5,5 13,10 23,13 10,4 20,6 31,6 19,0 34,-5 47,-15 8,-6 12,-15 12,-25 0,-8 -3,-15 -8,-20 -6,-6 -17,-10 -35,-14l-38 -7c-27,-5 -46,-15 -59,-29 -12,-14 -18,-31 -18,-50 0,-19 6,-37 20,-52 13,-15 31,-24 54,-28l0 -14c0,-12 2,-20 7,-26 4,-5 10,-7 18,-7 7,0 13,2 18,7 5,6 7,14 7,26l0 14z"/>
   </g>
  <g data-code="Digit5">
   <path class="fil10" d="M6473 185c0,-107 78,-184 185,-184l971 0c106,0 184,77 184,184l0 971c0,107 -78,185 -184,185l-971 0c-107,0 -185,-78 -185,-185l0 -971z"/>
   <path class="fil16" d="M6551 213l0 915c0,79 56,135 135,135l914 0c80,0 136,-56 136,-135l0 -915c0,-79 -56,-135 -136,-135l-914 0c-79,0 -135,56 -135,135z"/>
   <path class="fil18" d="M6746 925l0 -265 585 0 0 106 -474 0 0 47 364 0c18,0 35,3 51,10 17,7 31,16 44,28 12,12 22,25 30,41 7,16 11,34 11,52 0,24 -5,45 -15,63 -9,17 -22,32 -38,43 -16,11 -34,20 -55,25 -21,6 -42,8 -65,8l-437 0 0 -111 499 0 0 -47 -500 0z"/>
   <path class="fil18" d="M7429 243c0,19 -6,36 -20,50 -14,14 -31,21 -51,21 -19,0 -36,-7 -50,-21 -14,-14 -21,-31 -21,-50 0,-20 7,-37 21,-51 14,-14 31,-21 50,-21 20,0 37,7 51,21 14,14 20,31 20,51zm-31 0c0,-12 -4,-21 -11,-29 -8,-8 -18,-11 -29,-11 -11,0 -20,3 -28,11 -8,8 -12,17 -12,29 0,11 4,20 12,28 8,8 17,12 28,12 11,0 21,-4 29,-12 7,-8 11,-17 11,-28zm91 75l-186 60c-5,1 -8,2 -10,2 -4,0 -7,-2 -10,-5 -3,-3 -5,-7 -5,-12 0,-3 2,-6 4,-9 2,-2 5,-4 11,-6l187 -60c4,-2 8,-2 10,-2 4,0 7,1 10,4 3,4 4,7 4,12 0,3 -1,7 -3,9 -2,3 -5,5 -12,7zm5 105c0,20 -7,37 -21,51 -14,14 -31,21 -50,21 -20,0 -37,-7 -51,-21 -14,-14 -21,-31 -21,-51 0,-19 7,-36 21,-50 14,-14 31,-21 51,-21 19,0 36,7 50,21 14,14 21,31 21,50zm-31 0c0,-11 -4,-20 -12,-28 -8,-8 -17,-12 -28,-12 -11,0 -21,4 -29,12 -7,8 -11,17 -11,28 0,12 4,21 11,29 8,8 18,11 29,11 11,0 20,-3 28,-11 8,-8 12,-17 12,-29z"/>
  </g>
  <g data-code="Digit6">
   <path class="fil14" d="M7912 185c0,-107 78,-184 184,-184l971 0c107,0 185,77 185,184l0 971c0,107 -78,185 -185,185l-971 0c-106,0 -184,-78 -184,-185l0 -971z"/>
   <path class="fil16" d="M7989 213l0 915c0,79 56,135 136,135l914 0c79,0 135,-56 135,-135l0 -915c0,-79 -56,-135 -135,-135l-914 0c-80,0 -136,56 -136,135z"/>
   <path class="fil18" d="M8757 660l0 108 -477 0 0 48 370 0c18,0 35,3 51,10 15,8 29,17 40,29 12,12 21,26 28,42 7,16 10,33 10,51 0,18 -4,36 -11,52 -7,16 -17,31 -29,43 -13,12 -28,22 -44,29 -17,7 -34,11 -53,11l-345 0c-19,0 -36,-4 -52,-12 -16,-8 -30,-19 -42,-32 -11,-14 -20,-29 -27,-46 -6,-18 -9,-36 -9,-55l0 -141c0,-17 2,-32 6,-45 4,-13 10,-25 18,-35 8,-10 17,-19 27,-26 11,-7 22,-13 35,-18 12,-4 26,-8 40,-10 14,-2 28,-3 43,-3l421 0zm-477 266l0 45 389 0 0 -45 -389 0z"/>
   <path class="fil18" d="M8913 327l-77 93c-7,8 -12,14 -17,16 -4,3 -9,4 -14,4 -9,0 -17,-3 -23,-9 -7,-7 -10,-15 -10,-24 0,-7 5,-17 14,-28l127 -153 127 153c6,7 10,12 12,16 2,4 3,8 3,12 0,9 -3,17 -10,24 -6,6 -14,9 -23,9 -5,0 -11,-1 -15,-4 -4,-2 -9,-8 -16,-16l-78 -93z"/>
  </g>
  <g data-code="Digit7">
   <path class="fil10" d="M9350 185c0,-107 78,-184 185,-184l971 0c106,0 184,77 184,184l0 971c0,107 -78,185 -184,185l-971 0c-107,0 -185,-78 -185,-185l0 -971z"/>
   <path class="fil16" d="M9428 213l0 915c0,79 56,135 135,135l914 0c80,0 136,-56 136,-135l0 -915c0,-79 -56,-135 -136,-135l-914 0c-79,0 -135,56 -135,135z"/>
   <path class="fil18" d="M9636 660l480 0c15,0 30,3 44,8 14,6 26,14 37,24 11,10 19,21 26,35 6,13 10,27 10,43 0,19 -5,36 -13,50 -8,14 -21,27 -39,38l-341 227 -191 0 477 -315 -490 0 0 -110z"/>
   <path class="fil18" d="M10317 424l10 -36 22 0c9,0 15,1 19,3 7,5 10,11 10,19 0,6 -2,11 -5,15 -4,4 -9,6 -14,6 -3,15 -8,27 -13,36 12,0 19,1 22,3 7,4 10,11 10,19 0,6 -2,11 -6,15 -5,4 -12,6 -22,6l-26 0 -5 -7c-6,5 -12,8 -18,10 -8,2 -19,4 -31,4 -25,0 -45,-7 -59,-20 -14,-13 -21,-29 -21,-49 0,-14 3,-27 10,-39 7,-13 18,-23 32,-31 -6,-11 -10,-19 -12,-24 -2,-6 -3,-12 -3,-19 0,-17 7,-33 20,-46 13,-13 28,-20 46,-20 5,0 10,1 15,2 5,1 10,3 16,6 5,-3 9,-4 11,-4 6,0 11,2 15,6 4,5 7,10 7,16 0,5 -2,9 -4,12 -2,3 -7,7 -14,11l-18 9c-7,-6 -13,-10 -17,-12 -3,-2 -7,-2 -11,-2 -6,0 -12,2 -16,6 -5,5 -7,10 -7,16 0,5 4,13 13,25l44 64zm-60 -10c-16,7 -24,18 -24,34 0,8 3,14 8,19 6,4 15,7 29,7 9,0 17,-3 24,-7l-37 -53z"/>
  </g>
  <g data-code="Digit8">
   <path class="fil9" d="M10789 185c0,-107 77,-184 184,-184l971 0c107,0 185,77 185,184l0 971c0,107 -78,185 -185,185l-971 0c-107,0 -184,-78 -184,-185l0 -971z"/>
   <path class="fil16" d="M10866 213l0 915c0,79 56,135 135,135l915 0c79,0 135,-56 135,-135l0 -915c0,-79 -56,-135 -135,-135l-915 0c-79,0 -135,56 -135,135z"/>
   <path class="fil18" d="M11213 1083c-22,0 -43,-3 -62,-9 -20,-6 -36,-15 -51,-26 -14,-11 -25,-25 -33,-41 -8,-16 -12,-33 -12,-53 0,-14 2,-27 7,-41 5,-13 12,-26 21,-38 -4,-7 -8,-15 -12,-22 -3,-8 -6,-15 -8,-23 -3,-8 -5,-15 -6,-23 -1,-8 -2,-15 -2,-22 0,-18 4,-35 12,-51 8,-15 18,-28 32,-39 13,-11 28,-20 45,-26 17,-6 35,-9 53,-9l335 0c18,0 35,3 51,10 16,7 30,16 42,27 13,11 22,25 29,40 7,15 11,32 11,49 0,10 -1,19 -2,26 -2,8 -3,16 -6,22 -3,7 -5,13 -9,19 -3,6 -7,11 -11,17 19,24 28,50 28,80 0,21 -4,40 -12,56 -8,17 -19,31 -33,42 -14,11 -30,20 -49,26 -19,6 -39,9 -61,9l-297 0zm339 -319l-384 0 0 50 384 0 0 -50zm1 164l-385 0 0 44 385 0 0 -44z"/>
   <path class="fil18" d="M11759 430l-56 -18c-13,-4 -21,-9 -25,-14 -5,-6 -8,-13 -8,-20 0,-9 4,-17 10,-23 6,-6 13,-10 21,-10 5,0 12,2 22,5l56 18 0 -58c0,-16 3,-27 9,-34 6,-6 14,-10 24,-10 9,0 17,4 23,10 6,7 9,18 9,34l0 58 56 -18c10,-3 17,-5 22,-5 8,0 15,3 21,10 7,6 10,14 10,22 0,8 -2,15 -7,20 -4,6 -13,10 -26,15l-56 18 35 48c8,11 12,20 12,27 0,9 -3,17 -9,23 -7,6 -14,10 -23,10 -6,0 -12,-2 -16,-5 -5,-2 -10,-8 -17,-18l-34 -47 -35 48c-7,9 -12,15 -16,18 -5,3 -10,4 -17,4 -8,0 -16,-3 -23,-10 -6,-6 -9,-14 -9,-23 0,-7 4,-16 12,-27l35 -48z"/>
  </g>
  <g data-code="Digit9">
   <path class="fil14" d="M12227 185c0,-107 78,-184 185,-184l971 0c106,0 184,77 184,184l0 971c0,107 -78,185 -184,185l-971 0c-107,0 -185,-78 -185,-185l0 -971z"/>
   <path class="fil16" d="M12304 213l0 915c0,79 57,135 136,135l914 0c80,0 136,-56 136,-135l0 -915c0,-79 -56,-135 -136,-135l-914 0c-79,0 -136,56 -136,135z"/>
   <path class="fil18" d="M12966 660c23,0 44,4 63,11 19,7 35,17 48,30 13,12 23,27 31,44 7,17 10,34 10,53l0 150c0,18 -4,35 -11,52 -8,16 -18,30 -31,43 -13,12 -27,22 -44,29 -17,7 -34,11 -52,11l-456 0 0 -110 483 0 0 -49 -367 0c-18,0 -36,-3 -53,-10 -17,-6 -31,-16 -44,-27 -13,-12 -24,-25 -31,-41 -8,-16 -12,-34 -12,-53 0,-19 4,-37 12,-53 9,-17 19,-31 33,-42 14,-12 29,-22 47,-28 17,-7 36,-10 55,-10l319 0zm-359 108l0 50 400 0 0 -50 -400 0z"/>
   <path class="fil18" d="M13195 359c0,-29 4,-58 14,-87 7,-22 18,-46 33,-73 10,-19 18,-30 23,-35 5,-4 11,-6 17,-6 8,0 14,2 19,7 4,5 7,11 7,18 0,5 -2,10 -6,17 -18,29 -31,56 -39,81 -8,26 -12,52 -12,78 0,26 4,52 12,77 8,25 21,53 39,82 4,6 6,12 6,16 0,7 -3,13 -7,18 -5,5 -11,8 -19,8 -6,0 -11,-2 -16,-6 -6,-6 -15,-19 -26,-39 -15,-29 -26,-53 -32,-72 -9,-29 -13,-57 -13,-84z"/>
  </g>
  <g data-code="Digit0">
   <path class="fil14" d="M13665 185c0,-107 78,-184 185,-184l971 0c107,0 185,77 185,184l0 971c0,107 -78,185 -185,185l-971 0c-107,0 -185,-78 -185,-185l0 -971z"/>
   <path class="fil16" d="M13743 213l0 915c0,79 56,135 135,135l915 0c79,0 135,-56 135,-135l0 -915c0,-79 -56,-135 -135,-135l-915 0c-79,0 -135,56 -135,135z"/>
   <path class="fil18" d="M14355 660c23,0 43,4 60,11 18,8 33,18 45,31 13,13 22,27 28,44 7,17 10,35 10,54l0 144c0,19 -3,36 -10,53 -7,17 -17,31 -29,44 -12,12 -26,22 -43,29 -16,8 -34,11 -53,11l-308 0c-18,0 -37,-3 -54,-10 -18,-8 -33,-17 -47,-30 -13,-12 -24,-27 -32,-44 -8,-16 -12,-34 -12,-53l0 -161c0,-19 4,-36 12,-51 9,-15 20,-28 33,-38 14,-11 30,-19 47,-25 17,-6 34,-9 52,-9l301 0zm-339 109l0 201 379 0 0 -201 -379 0z"/>
   <path class="fil18" d="M14690 359c0,28 -5,57 -14,87 -7,21 -18,45 -33,72 -10,19 -18,30 -23,35 -5,4 -11,7 -17,7 -8,0 -14,-3 -19,-8 -5,-5 -7,-11 -7,-18 0,-4 2,-10 6,-16 18,-29 31,-57 39,-82 8,-25 12,-51 12,-77 0,-26 -4,-52 -12,-78 -8,-25 -21,-52 -39,-81 -4,-7 -6,-12 -6,-17 0,-7 2,-13 7,-18 5,-5 11,-7 19,-7 6,0 11,2 16,6 6,5 15,18 26,38 15,29 26,53 32,72 9,29 13,57 13,85z"/>
  </g>
  <g data-code="Minus">
   <path class="fil10" d="M15104 185c0,-107 78,-184 185,-184l971 0c106,0 184,77 184,184l0 971c0,107 -78,185 -184,185l-971 0c-107,0 -185,-78 -185,-185l0 -971z"/>
   <path class="fil16" d="M15181 213l0 915c0,79 57,135 136,135l914 0c79,0 136,-56 136,-135l0 -915c0,-79 -57,-135 -136,-135l-914 0c-79,0 -136,56 -136,135z"/>
   <polygon class="fil18" points="15912,793 15551,793 15551,715 15912,715 "/>
   <path class="fil18" d="M16281 586l-356 0c-15,0 -26,-3 -33,-9 -7,-6 -10,-13 -10,-23 0,-10 3,-18 10,-24 7,-6 18,-9 33,-9l356 0c15,0 26,3 33,9 7,6 10,14 10,24 0,9 -3,17 -10,23 -6,6 -17,9 -33,9z"/>
  </g>
  <g data-code="Equal">
   <path class="fil12" d="M16542 185c0,-107 78,-184 185,-184l971 0c107,0 185,77 185,184l0 971c0,107 -78,185 -185,185l-971 0c-107,0 -185,-78 -185,-185l0 -971z"/>
   <path class="fil16" d="M16620 213l0 915c0,79 56,135 135,135l915 0c79,0 135,-56 135,-135l0 -915c0,-79 -56,-135 -135,-135l-915 0c-79,0 -135,56 -135,135z"/>
   <path class="fil18" d="M17267 731l-368 0c-21,0 -36,-4 -45,-11 -9,-9 -13,-19 -13,-32 0,-13 4,-23 13,-31 9,-8 24,-12 45,-12l368 0c21,0 36,4 45,12 9,8 13,19 13,31 0,13 -4,23 -13,32 -9,7 -24,11 -45,11zm0 163l-368 0c-21,0 -36,-4 -45,-12 -9,-8 -13,-18 -13,-31 0,-13 4,-24 13,-32 9,-8 24,-12 45,-12l368 0c21,0 36,4 45,12 9,8 13,19 13,32 0,13 -4,23 -13,31 -9,8 -24,12 -45,12z"/>
   <path class="fil18" d="M17486 372l0 109c0,15 -3,26 -9,33 -5,7 -13,10 -23,10 -9,0 -17,-3 -23,-10 -6,-7 -9,-18 -9,-33l0 -109 -93 0c-15,0 -26,-3 -33,-8 -7,-7 -10,-14 -10,-24 0,-10 3,-18 10,-24 7,-6 18,-8 33,-8l93 0 0 -108c0,-16 3,-27 9,-34 6,-6 14,-10 23,-10 10,0 18,4 24,10 6,7 9,18 9,34l-1 108 93 0c15,0 26,3 33,9 7,6 10,13 10,23 0,10 -3,17 -10,24 -7,5 -18,8 -33,8l-93 0z"/>
  </g>
  <g data-code="Backspace">
   <path class="fil6" d="M17945 185c0,-107 78,-184 185,-184l1690 0c106,0 184,77 184,184l0 971c0,107 -78,185 -184,185l-1690 0c-107,0 -185,-78 -185,-185l0 -971z"/>
   <path class="fil16" d="M18043 213l0 915c0,79 57,135 136,135l1591 0c80,0 136,-56 136,-135l0 -915c0,-79 -56,-135 -136,-135l-1591 0c-79,0 -136,56 -136,135z"/>
   <path class="fil26" d="M18488 670l325 -281 0 258 -97 0 0 46 97 0 0 258 -325 -281zm368 91l0 -182 605 0 0 182 -605 0z"/>
  </g>
  <g data-code="Semicolon">
   <path class="fil14" d="M36 1588c0,-107 78,-185 185,-185l971 0c106,0 184,78 184,185l0 971c0,106 -78,184 -184,184l-971 0c-107,0 -185,-78 -185,-184l0 -971z"/>
   <path class="fil16" d="M113 1616l0 914c0,80 57,136 136,136l914 0c79,0 136,-56 136,-136l0 -914c0,-79 -57,-135 -136,-135l-914 0c-79,0 -136,56 -136,135z"/>
   <path class="fil19" d="M302 2366l0 -107 163 0 0 151c0,21 -4,39 -12,54 -9,16 -20,29 -35,39 -14,10 -31,18 -50,23 -20,5 -40,7 -62,7l0 -112 46 0 0 -55 -50 0zm1 -163l0 -109 162 0 0 109 -162 0z"/>
   <path class="fil19" d="M948 1763l0 -149 155 0 0 149 -155 0zm0 206l0 -147 155 0 0 147 -155 0z"/>
  </g>
  <g data-code="KeyQ">
   <path class="fil14" d="M1434 1588c0,-107 78,-185 184,-185l971 0c107,0 185,78 185,185l0 971c0,106 -78,184 -185,184l-971 0c-106,0 -184,-78 -184,-184l0 -971z"/>
   <path class="fil16" d="M1511 1616l0 914c0,80 56,136 136,136l914 0c79,0 135,-56 135,-136l0 -914c0,-79 -56,-135 -135,-135l-914 0c-80,0 -136,56 -136,135z"/>
   <path class="fil19 en" d="M2487 2198l0 132 -592 0c-11,0 -22,-1 -33,-4 -12,-3 -24,-6 -36,-12 -12,-5 -24,-11 -35,-19 -11,-8 -21,-17 -29,-27 -9,-11 -16,-23 -21,-35 -5,-13 -8,-27 -8,-43l0 -208c0,-22 5,-43 14,-62 9,-19 21,-35 36,-48 15,-14 32,-24 52,-32 20,-8 41,-11 63,-11l368 0c21,0 42,3 62,11 21,7 39,17 54,31 16,13 28,29 38,47 9,19 14,40 14,62l0 218 53 0zm-179 0l0 -240 -455 0 0 240 455 0z"/>
   <path class="fil19 ru" d="M2456 1922l0 393 -128 0 0 -377 -344 335c-6,8 -14,15 -22,21 -9,6 -17,11 -27,15 -9,5 -19,8 -28,10 -10,3 -20,4 -29,4 -20,0 -38,-4 -53,-12 -16,-7 -29,-17 -40,-30 -11,-13 -19,-28 -25,-45 -5,-17 -8,-35 -8,-55l0 -368 128 0 0 376 344 -339c33,-32 69,-49 105,-49 17,0 32,3 47,8 16,5 29,12 41,22 11,10 21,23 28,38 7,15 11,33 11,53zm-531 -199l0 -115 381 0 0 115 -381 0z"/>
  </g>
  <g data-code="KeyW">
   <path class="fil15" d="M2872 1588c0,-107 78,-185 185,-185l971 0c106,0 184,78 184,185l0 971c0,106 -78,184 -184,184l-971 0c-107,0 -185,-78 -185,-184l0 -971z"/>
   <path class="fil16" d="M2950 1616l0 914c0,80 56,136 135,136l914 0c80,0 136,-56 136,-136l0 -914c0,-79 -56,-135 -136,-135l-914 0c-79,0 -135,56 -135,135z"/>
   <path class="fil19 en" d="M3277 1831l68 374 85 -286c5,-16 11,-30 19,-43 9,-12 18,-23 30,-31 11,-9 23,-16 37,-20 15,-5 30,-7 46,-7 15,0 28,2 40,7 12,4 23,10 33,19 10,8 19,18 26,29 7,12 13,25 17,39l85 285 72 -366 129 0 -76 400c-4,16 -10,30 -18,44 -7,13 -16,25 -27,35 -10,10 -22,17 -36,23 -13,5 -28,8 -44,8 -32,0 -58,-9 -79,-27 -21,-19 -38,-44 -50,-77l-77 -277 -84 275c-5,16 -11,30 -20,43 -8,13 -18,23 -29,32 -12,10 -25,17 -39,21 -14,5 -30,8 -46,8 -16,0 -31,-3 -44,-9 -14,-5 -26,-13 -37,-23 -10,-10 -19,-21 -26,-35 -7,-13 -12,-28 -14,-43l-76 -398 135 0z"/>
   <path class="fil19 ru" d="M3918 2189l0 134 -590 0c-20,0 -40,-3 -59,-9 -19,-6 -36,-15 -51,-27 -16,-11 -28,-26 -37,-43 -10,-18 -14,-38 -14,-61l0 -360 130 0 0 366 439 0 0 -366 129 0 0 366 53 0z"/>
  </g>
  <g data-code="KeyE">
   <path class="fil14" d="M4311 1588c0,-107 78,-185 184,-185l971 0c107,0 185,78 185,185l0 971c0,106 -78,184 -185,184l-971 0c-106,0 -184,-78 -184,-184l0 -971z"/>
   <path class="fil16" d="M4388 1616l0 914c0,80 56,136 136,136l914 0c79,0 135,-56 135,-136l0 -914c0,-79 -56,-135 -135,-135l-914 0c-80,0 -136,56 -136,135z"/>
   <path class="fil19 en" d="M4820 1825l531 0 0 130 -581 0 0 59 581 0 0 131 -581 0 0 55 581 0 0 134 -532 0c-23,0 -46,-4 -67,-12 -22,-8 -41,-19 -57,-34 -17,-14 -30,-31 -40,-51 -9,-20 -14,-42 -14,-66l0 -184c0,-25 4,-48 14,-68 9,-20 22,-37 38,-51 16,-14 35,-25 57,-32 22,-8 45,-11 70,-11z"/>
   <path class="fil19 ru" d="M4734 2010l480 0 0 -188 134 0 0 341c0,22 -5,43 -14,62 -9,19 -21,36 -36,51 -16,15 -33,26 -53,35 -20,8 -40,13 -62,13l-541 0 0 -131 572 0 0 -58 -434 0c-22,0 -43,-4 -63,-12 -20,-7 -38,-18 -53,-32 -15,-14 -27,-30 -37,-49 -9,-19 -13,-40 -13,-62l0 -158 120 0 0 188z"/>
   </g>
  <g data-code="KeyR">
   <path class="fil14" d="M5749 1588c0,-107 78,-185 185,-185l971 0c106,0 184,78 184,185l0 971c0,106 -78,184 -184,184l-971 0c-107,0 -185,-78 -185,-184l0 -971z"/>
   <path class="fil16" d="M5827 1616l0 914c0,80 56,136 135,136l914 0c80,0 136,-56 136,-136l0 -914c0,-79 -56,-135 -136,-135l-914 0c-79,0 -135,56 -135,135z"/>
   <path class="fil19 en" d="M6083 1827l553 1c20,0 39,4 58,13 18,8 35,20 49,34 14,15 26,32 34,51 9,19 13,38 13,60 0,15 -3,30 -7,45 -5,15 -13,30 -22,43 11,12 19,26 25,41 6,16 9,31 9,45l0 172 -131 0 0 -190 -448 0 0 190 -133 0 0 -505zm133 189l448 0 0 -61 -448 0 0 61z"/>
   <path class="fil19 ru" d="M6513 1821l261 0 -434 252 438 252 -265 0 -228 -131c-11,-6 -20,-12 -29,-17 -9,-6 -16,-12 -23,-19 -7,-6 -12,-13 -18,-21 -5,-8 -10,-16 -14,-26l0 214 -140 0 0 -505 140 0 0 218c5,-10 10,-19 15,-27 6,-7 13,-15 20,-22 8,-6 16,-13 26,-19 9,-6 19,-13 31,-20l220 -129z"/>
  </g>
  <g data-code="KeyT">
   <path class="fil9" d="M7188 1588c0,-107 77,-185 184,-185l971 0c107,0 185,78 185,185l0 971c0,106 -78,184 -185,184l-971 0c-107,0 -184,-78 -184,-184l0 -971z"/>
   <path class="fil16" d="M7265 1616l0 914c0,80 56,136 135,136l915 0c79,0 135,-56 135,-136l0 -914c0,-79 -56,-135 -135,-135l-915 0c-79,0 -135,56 -135,135z"/>
   <polygon class="fil19 en" points="7522,1827 8241,1827 8241,1955 7946,1955 7946,2332 7819,2332 7819,1955 7522,1955 "/>
   <path class="fil19 ru" d="M7683 1819l529 0 0 130 -580 0 0 58 580 0 0 131 -580 0 0 55 580 0 0 133 -530 0c-24,0 -46,-4 -68,-12 -21,-8 -40,-19 -56,-33 -17,-14 -30,-32 -40,-51 -9,-20 -14,-42 -14,-66l0 -183c0,-25 4,-48 14,-68 9,-20 22,-38 38,-51 16,-14 35,-25 57,-32 21,-8 45,-11 70,-11z"/>
  </g>
  <g data-code="KeyY">
   <path class="fil9" d="M8626 1588c0,-107 78,-185 185,-185l971 0c106,0 184,78 184,185l0 971c0,106 -78,184 -184,184l-971 0c-107,0 -185,-78 -185,-184l0 -971z"/>
   <path class="fil16" d="M8703 1616l0 914c0,80 57,136 136,136l914 0c80,0 136,-56 136,-136l0 -914c0,-79 -56,-135 -136,-135l-914 0c-79,0 -136,56 -136,135z"/>
   <polygon class="fil19 en" points="9265,2183 8977,1827 9139,1827 9325,2057 9512,1827 9672,1827 9391,2183 9391,2332 9265,2332 "/>
   <polygon class="fil19 ru" points="9063,1820 9063,2006 9529,2006 9529,1820 9657,1820 9657,2325 9529,2325 9529,2134 9063,2134 9063,2325 8936,2325 8936,1820 "/>
  </g>
  <g data-code="KeyU">
   <path class="fil15" d="M10064 1588c0,-107 78,-185 185,-185l971 0c107,0 185,78 185,185l0 971c0,106 -78,184 -185,184l-971 0c-107,0 -185,-78 -185,-184l0 -971z"/>
   <path class="fil16" d="M10142 1616l0 914c0,80 56,136 135,136l915 0c79,0 135,-56 135,-136l0 -914c0,-79 -56,-135 -135,-135l-915 0c-79,0 -135,56 -135,135z"/>
   <path class="fil19 en" d="M10536 1827l0 379 460 0 0 -379 134 0 0 358c0,12 -2,24 -6,36 -4,12 -10,24 -17,35 -7,11 -15,21 -25,30 -9,10 -20,18 -31,24 -11,7 -23,13 -35,16 -12,4 -25,6 -37,6l-418 0c-13,0 -26,-2 -39,-6 -13,-5 -25,-11 -37,-18 -11,-8 -22,-17 -32,-27 -10,-11 -19,-22 -26,-34 -7,-12 -13,-25 -17,-38 -4,-13 -6,-26 -6,-40l0 -342 132 0z"/>
   <path class="fil19 ru" d="M11087 1952l-573 0 0 373 -132 0 0 -350c0,-21 4,-40 13,-59 9,-19 21,-35 35,-49 15,-15 31,-26 50,-35 19,-8 38,-12 58,-12l549 0 0 132z"/>
  </g>
  <g data-code="KeyI">
   <path class="fil14" d="M11503 1588c0,-107 78,-185 185,-185l971 0c106,0 184,78 184,185l0 971c0,106 -78,184 -184,184l-971 0c-107,0 -185,-78 -185,-184l0 -971z"/>
   <path class="fil16" d="M11580 1616l0 914c0,80 57,136 136,136l914 0c79,0 136,-56 136,-136l0 -914c0,-79 -57,-135 -136,-135l-914 0c-79,0 -136,56 -136,135z"/>
   <polygon class="fil19 en" points="12281,1824 12281,2334 12139,2334 12139,1824 "/>
   <polygon class="fil19 ru" points="11950,1777 11950,2155 12101,2155 12101,1777 12238,1777 12238,2155 12394,2155 12394,1777 12528,1777 12528,2284 11818,2284 11818,1777 "/>
  </g>
  <g data-code="KeyO">
   <path class="fil14" d="M12941 1588c0,-107 78,-185 185,-185l971 0c107,0 185,78 185,185l0 971c0,106 -78,184 -185,184l-971 0c-107,0 -185,-78 -185,-184l0 -971z"/>
   <path class="fil16" d="M13019 1616l0 914c0,80 56,136 135,136l915 0c79,0 135,-56 135,-136l0 -914c0,-79 -56,-135 -135,-135l-915 0c-79,0 -135,56 -135,135z"/>
   <path class="fil19 en" d="M13476 1829l374 0c21,0 41,4 60,13 20,9 36,20 51,35 14,15 26,32 35,52 8,19 13,39 13,61l0 187c0,14 -2,27 -6,40 -4,13 -10,25 -17,37 -7,11 -16,21 -26,31 -10,9 -21,17 -33,24 -12,7 -25,12 -38,16 -13,3 -27,5 -41,5l-390 0c-23,0 -44,-4 -64,-12 -19,-8 -37,-19 -51,-33 -14,-15 -26,-32 -34,-51 -8,-20 -12,-42 -12,-65l0 -191c0,-22 5,-42 15,-60 10,-19 24,-34 40,-48 17,-13 36,-23 58,-30 22,-8 44,-11 66,-11zm400 130l-448 0 0 244 448 0 0 -244z"/>
   <polygon class="fil19 ru" points="13352,1777 13352,2155 13504,2155 13504,1777 13640,1777 13640,2155 13796,2155 13796,1777 13930,1777 13930,2155 14003,2155 14003,2284 13220,2284 13220,1777 "/>
  </g>
  <g data-code="KeyP">
   <path class="fil14" d="M14380 1588c0,-107 78,-185 185,-185l970 0c107,0 185,78 185,185l0 971c0,106 -78,184 -185,184l-970 0c-107,0 -185,-78 -185,-184l0 -971z"/>
   <path class="fil16" d="M14457 1616l0 914c0,80 57,136 136,136l914 0c79,0 136,-56 136,-136l0 -914c0,-79 -57,-135 -136,-135l-914 0c-79,0 -136,56 -136,135z"/>
   <path class="fil19 en" d="M15286 1827c22,0 45,3 66,11 22,8 41,19 58,32 16,15 30,31 40,50 11,20 16,41 16,64 0,23 -5,43 -14,63 -9,19 -21,37 -36,51 -15,15 -32,26 -52,35 -20,8 -41,12 -63,12l-440 0 0 187 -136 0 0 -505 561 0zm-425 128l0 65 470 0 0 -65 -470 0z"/>
   <path class="fil19 ru" d="M14698 1779l529 0c23,0 44,3 65,10 21,7 39,17 55,30 15,13 28,29 37,48 10,19 14,39 14,63 0,17 -2,33 -8,50 -5,17 -12,33 -22,48 23,25 34,55 34,88 0,24 -4,45 -12,65 -8,21 -20,38 -34,53 -14,15 -31,26 -51,34 -20,9 -41,13 -65,13l-539 0 0 -128 569 0 0 -56 -572 0 0 -131 572 0 0 -59 -572 0 0 -128z"/>
  </g>
  <g data-code="BracketLeftSquare">
   <path class="fil15" d="M15818 1588c0,-107 78,-185 185,-185l971 0c107,0 185,78 185,185l0 971c0,106 -78,184 -185,184l-971 0c-107,0 -185,-78 -185,-184l0 -971z"/>
   <path class="fil16" d="M15896 1616l0 914c0,80 56,136 135,136l915 0c79,0 135,-56 135,-136l0 -914c0,-79 -56,-135 -135,-135l-915 0c-79,0 -135,56 -135,135z"/>
   <polygon class="fil19 en" points="16568,1966 16568,2192 16653,2192 16653,2336 16424,2336 16424,1822 16653,1822 16653,1966 "/>
   <path class="fil19 ru" d="M16839 1778l-215 253 218 251 -156 0 -142 -149c-10,-11 -19,-20 -26,-28 -7,-7 -12,-14 -16,-19 -4,-5 -7,-10 -9,-14 -2,-4 -4,-7 -6,-11 -1,5 -4,10 -7,16 -4,6 -8,12 -12,18 -5,6 -9,11 -13,16 -5,5 -8,9 -11,13l-132 158 -168 0 217 -253 -227 -251 171 0 143 168c7,8 12,15 16,19 4,5 7,9 10,12 2,3 4,7 6,10 2,4 4,8 7,14 1,-6 4,-12 9,-19 5,-7 10,-14 15,-20 6,-7 11,-13 17,-19 5,-6 9,-11 12,-14l133 -151 166 0z"/>
  </g>
  <g data-code="BracketRightSquare">  
   <path class="fil9" d="M17262 1588c0,-107 78,-185 184,-185l971 0c107,0 185,78 185,185l0 971c0,106 -78,184 -185,184l-971 0c-106,0 -184,-78 -184,-184l0 -971z"/>
   <path class="fil16" d="M17339 1616l0 914c0,80 56,136 136,136l914 0c79,0 135,-56 135,-136l0 -914c0,-79 -56,-135 -135,-135l-914 0c-80,0 -136,56 -136,135z"/>
   <polygon class="fil19 en" points="17956,1966 17872,1966 17872,1822 18100,1822 18100,2336 17872,2336 17872,2192 17956,2192 "/>
   <path class="fil19 ru" d="M18152 2284l-557 0 0 -410 -63 0 0 -97 197 0 0 189 438 0c22,0 43,4 63,13 20,8 37,20 52,34 15,15 27,32 36,51 9,19 14,40 14,63 0,15 -3,29 -7,43 -5,14 -12,27 -20,38 -8,12 -18,22 -29,32 -12,9 -24,17 -38,23 -13,7 -27,12 -42,15 -15,4 -29,6 -44,6zm-423 -129l469 0 0 -64 -469 0 0 64z"/>
  </g>
  <g data-code="QuestionMark">
   <path class="fil14" d="M18664 1588c0,-107 78,-185 185,-185l971 0c106,0 184,78 184,185l0 971c0,106 -78,184 -184,184l-971 0c-107,0 -185,-78 -185,-184l0 -971z"/>
   <path class="fil16" d="M18742 1616l0 914c0,80 56,136 135,136l914 0c80,0 136,-56 136,-136l0 -914c0,-79 -56,-135 -136,-135l-914 0c-79,0 -135,56 -135,135z"/>
   <path class="fil19" d="M19530 1778c26,0 49,4 71,11 21,7 39,18 55,31 16,13 28,29 37,48 9,18 13,39 13,61 0,23 -4,44 -13,64 -9,19 -21,36 -36,51 -15,14 -33,25 -53,34 -21,8 -43,12 -66,12l-268 0 0 -127 304 0 0 -58 -611 0 0 -127 567 0zm-260 505l0 -131 132 0 0 131 -132 0z"/>
  </g>
  <g data-code="CapsLock">
   <path class="fil5" d="M0 2990c0,-107 78,-184 185,-184l1690 0c107,0 184,77 184,184l0 971c0,107 -77,185 -184,185l-1690 0c-107,0 -185,-78 -185,-185l0 -971z"/>
   <path class="fil16" d="M98 3018l0 915c0,79 57,135 136,135l1592 0c79,0 135,-56 135,-135l0 -915c0,-79 -56,-135 -135,-135l-1592 0c-79,0 -136,56 -136,135z"/>
   <g>
   <path class="fil24" d="M627 3278c-3,31 -14,55 -33,73 -19,17 -45,26 -77,26 -39,0 -70,-14 -92,-42 -22,-29 -34,-69 -34,-120 0,-51 11,-91 33,-118 22,-28 53,-41 92,-41 30,0 55,7 74,22 19,16 30,36 34,63l32 0c-2,-35 -16,-63 -41,-84 -25,-21 -58,-31 -99,-31 -49,0 -87,16 -116,49 -28,34 -43,81 -43,140 0,60 14,107 43,141 28,34 66,51 115,51 43,0 77,-11 102,-34 25,-23 39,-55 42,-95l-32 0z"/>
   <path id="1" class="fil24" d="M899 3360l0 4c0,12 3,21 9,27 7,6 16,9 28,9 3,0 6,0 9,0 4,-1 8,-2 13,-2l0 -23 -11 0c-8,0 -14,-2 -17,-6 -1,-3 -2,-8 -2,-18l0 -142c0,-26 -8,-46 -25,-60 -16,-13 -39,-19 -70,-19 -32,0 -57,8 -76,23 -18,15 -28,35 -28,61l30 0c1,-19 7,-33 20,-43 12,-10 30,-14 54,-14 23,0 39,4 50,13 9,9 14,23 14,43 0,12 -4,21 -13,26 -6,4 -17,6 -32,8l-14 1c-19,1 -33,2 -42,4 -15,2 -27,6 -38,11 -14,6 -24,15 -31,26 -7,11 -11,24 -11,40 0,23 8,41 23,55 16,14 37,21 63,21 19,0 36,-4 52,-12 16,-7 31,-18 45,-33zm-2 -100l0 37c0,24 -8,44 -25,59 -17,14 -39,22 -66,22 -18,0 -32,-5 -43,-14 -11,-9 -16,-21 -16,-36 0,-14 5,-26 15,-35 11,-10 26,-16 45,-19l31 -4c15,-1 26,-2 32,-4 11,-1 20,-3 27,-6z"/>
   <path id="2" class="fil24" d="M1020 3468l30 0 0 -115c10,17 23,30 39,38 15,9 32,14 52,14 35,0 63,-15 84,-44 19,-25 28,-57 28,-94 0,-37 -9,-69 -28,-95 -21,-28 -49,-43 -84,-43 -20,0 -37,5 -53,13 -15,9 -27,21 -38,37l0 -44 -30 0 0 333zm115 -312c27,0 49,12 65,34 15,21 22,46 22,77 0,29 -7,55 -22,76 -16,23 -38,35 -65,35 -28,0 -50,-12 -66,-35 -14,-21 -21,-47 -21,-76 0,-31 7,-56 21,-77 16,-22 38,-34 66,-34z"/>
   <path id="3" class="fil24" d="M1312 3316c1,27 10,48 28,64 19,17 43,25 74,25 30,0 54,-7 72,-22 18,-14 27,-32 27,-54 0,-21 -6,-37 -19,-48 -12,-10 -32,-18 -60,-25l-12 -3c-28,-7 -46,-12 -54,-17 -13,-7 -19,-19 -19,-35 0,-14 5,-24 15,-32 11,-9 25,-13 43,-13 20,0 36,5 48,15 12,10 19,24 20,41l31 0c-2,-26 -11,-46 -29,-61 -17,-14 -40,-22 -70,-22 -27,0 -48,7 -65,21 -16,15 -25,33 -25,55 0,21 8,37 24,48 13,10 36,18 71,27l1 0c27,6 44,12 51,17 12,6 18,17 18,32 0,14 -6,26 -18,35 -13,9 -30,14 -51,14 -21,0 -37,-6 -50,-18 -13,-12 -19,-26 -19,-44l-32 0z"/>
   <polygon class="fil24" points="404,3880 623,3880 623,3850 437,3850 437,3517 404,3517 "/>
   <path id="1" class="fil24" d="M781 3612c-38,0 -68,14 -90,43 -20,26 -30,58 -30,95 0,37 10,68 30,94 22,29 52,43 90,43 38,0 68,-14 90,-43 20,-26 30,-57 30,-94 0,-37 -10,-69 -30,-95 -22,-29 -52,-43 -90,-43zm0 27c28,0 50,11 66,34 15,21 23,47 23,76 0,30 -8,55 -23,76 -16,23 -38,35 -66,35 -28,0 -50,-12 -66,-35 -15,-21 -22,-46 -22,-76 0,-30 7,-55 22,-76 16,-23 38,-34 66,-34z"/>
   <path id="2" class="fil24" d="M1154 3789c-4,22 -12,40 -25,52 -14,13 -31,19 -51,19 -26,0 -47,-10 -62,-29 -16,-20 -24,-47 -24,-82 0,-35 8,-62 24,-82 15,-19 36,-28 62,-28 19,0 36,5 49,17 14,11 22,26 25,45l29 0c-2,-26 -12,-48 -31,-64 -19,-17 -43,-25 -72,-25 -36,0 -65,12 -85,37 -21,25 -32,59 -32,102 0,42 11,75 31,100 21,24 49,36 84,36 31,0 56,-9 75,-27 19,-17 30,-41 33,-71l-30 0z"/>
   <polygon id="3" class="fil24" points="1253,3880 1283,3880 1282,3783 1330,3735 1425,3880 1460,3880 1351,3715 1448,3618 1409,3618 1283,3746 1283,3517 1253,3517 "/>
   </g>
   <circle id="caps-pipka" class="fil21" cx="1780" cy="3089" r="149"/>
  </g>
  <g data-code="KeyA">
   <path class="fil7" d="M2158 2990c0,-107 78,-184 184,-184l971 0c107,0 185,77 185,184l0 971c0,107 -78,185 -185,185l-971 0c-106,0 -184,-78 -184,-185l0 -971z"/>
   <path class="fil16" d="M2235 3018l0 915c0,79 56,135 136,135l914 0c79,0 135,-56 135,-135l0 -915c0,-79 -56,-135 -135,-135l-914 0c-80,0 -136,56 -136,135z"/>
   <path class="fil19 en" d="M2641 3739l-145 0 197 -381c9,-19 19,-36 29,-52 9,-15 19,-28 30,-39 11,-11 23,-19 37,-25 14,-6 30,-9 49,-9 19,0 35,3 48,9 13,6 25,15 35,26 11,11 21,24 30,40 9,16 19,34 29,54l197 377 -140 0 -76 -132 -251 0 -69 132zm135 -262l120 0 -60 -107 -60 107z"/>
   <path class="fil19 ru" d="M2754 3222l136 0 0 80 162 0c27,0 51,3 72,8 20,4 37,12 51,21 13,9 24,21 30,34 7,14 10,29 10,46l0 130c0,13 -3,26 -10,39 -8,13 -18,24 -33,34 -14,10 -32,18 -54,24 -22,6 -48,9 -78,9l-150 0 0 82 -136 0 0 -82 -138 0c-13,0 -26,-1 -39,-3 -13,-2 -27,-4 -40,-8 -13,-4 -25,-8 -37,-14 -11,-6 -22,-13 -31,-21 -8,-8 -16,-18 -21,-29 -5,-11 -8,-23 -8,-37l0 -132c0,-15 4,-28 10,-41 6,-12 15,-23 27,-31 12,-9 26,-16 42,-21 17,-5 35,-8 55,-8l180 0 0 -80zm347 182l-211 0 0 135 211 0 0 -135zm-347 0l-206 0 0 135 206 0 0 -135z"/>
  </g>
  <g data-code="KeyS">
   <path class="fil7" d="M3596 2990c0,-107 78,-184 185,-184l971 0c106,0 184,77 184,184l0 971c0,107 -78,185 -184,185l-971 0c-107,0 -185,-78 -185,-185l0 -971z"/>
   <path class="fil16" d="M3674 3018l0 915c0,79 56,135 135,135l914 0c80,0 136,-56 136,-135l0 -915c0,-79 -56,-135 -136,-135l-914 0c-79,0 -135,56 -135,135z"/>
   <path class="fil19 en" d="M4496 3421c24,0 46,4 67,13 21,8 39,19 55,34 15,15 28,32 36,51 9,19 14,40 14,62 0,23 -5,44 -15,63 -9,19 -22,35 -38,49 -16,14 -34,25 -55,32 -20,8 -41,12 -63,12l-574 0 0 -127 614 0 0 -60 -474 0c-22,0 -44,-4 -64,-12 -21,-8 -40,-18 -56,-32 -16,-14 -28,-31 -38,-50 -9,-20 -14,-41 -14,-64 0,-16 2,-32 7,-46 6,-14 13,-27 22,-38 9,-12 19,-22 31,-31 12,-9 26,-17 40,-23 14,-6 28,-11 44,-14 15,-3 30,-5 46,-5l552 0 0 124 -604 0 0 62 467 0z"/>
   <path class="fil19 ru" d="M4283 3728l-395 0 0 -507 136 0 0 189 274 0c22,0 43,4 62,13 20,8 38,19 53,34 15,14 27,31 36,51 9,19 13,40 13,62 0,23 -5,44 -15,64 -10,19 -23,36 -40,49 -16,14 -36,25 -57,33 -22,8 -44,12 -67,12zm361 -507l0 508 -124 0 0 -508 124 0zm-620 378l304 0 0 -64 -304 0 0 64z"/>
  </g>
  <g data-code="KeyD">
   <path class="fil7" d="M5035 2990c0,-107 78,-184 184,-184l971 0c107,0 185,77 185,184l0 971c0,107 -78,185 -185,185l-971 0c-106,0 -184,-78 -184,-185l0 -971z"/>
   <path class="fil16" d="M5112 3018l0 915c0,79 56,135 136,135l914 0c79,0 135,-56 135,-135l0 -915c0,-79 -56,-135 -135,-135l-914 0c-80,0 -136,56 -136,135z"/>
   <path class="fil19 en" d="M5365 3739l0 -506 542 0c22,0 44,4 65,12 21,8 39,18 55,32 16,14 28,31 38,50 9,20 14,42 14,65l0 188c0,23 -5,45 -15,64 -9,20 -22,36 -38,50 -16,15 -35,26 -56,33 -21,8 -42,12 -65,12l-540 0zm581 -125l0 -253 -450 0 0 253 450 0z"/>
   <path class="fil19 ru" d="M5877 3223c26,0 51,3 73,9 22,6 41,16 57,28 17,13 29,29 38,49 9,19 14,42 14,69 0,33 -10,65 -29,94 5,7 10,14 14,22 5,7 9,15 13,22 4,8 7,16 9,24 3,8 4,16 4,23 0,15 -2,30 -6,44 -5,14 -11,27 -19,39 -7,12 -17,23 -27,33 -11,10 -23,19 -35,26 -13,7 -26,13 -40,16 -14,4 -29,6 -43,6l-561 0 0 -504 538 0zm47 374l0 -58 -451 0 0 58 451 0zm0 -189l0 -57 -451 0 0 57 451 0z"/>
  </g>
  <g data-code="KeyF">
   <path class="fil7" d="M6473 2990c0,-107 78,-184 185,-184l971 0c106,0 184,77 184,184l0 971c0,107 -78,185 -184,185l-971 0c-107,0 -185,-78 -185,-185l0 -971z"/>
   <path class="fil16" d="M6551 3018l0 915c0,79 56,135 135,135l914 0c80,0 136,-56 136,-135l0 -915c0,-79 -56,-135 -136,-135l-914 0c-79,0 -135,56 -135,135z"/>
   <path class="fil19 en" d="M6818 3737l0 -341c0,-28 5,-52 15,-73 10,-20 24,-37 42,-50 17,-13 37,-22 60,-28 24,-7 48,-10 74,-10l503 0 0 129 -568 0 0 55 567 0 0 127 -567 0 0 191 -126 0z"/>
   <path class="fil19 ru" d="M6948 3727l-144 0 196 -379c10,-20 19,-37 29,-52 9,-16 19,-29 30,-39 11,-11 23,-20 37,-25 14,-6 30,-9 49,-9 19,0 35,3 48,9 13,5 24,13 35,24 10,11 19,25 29,41 9,16 19,34 30,54l196 376 -140 0 -75 -132 -251 0 -69 132zm135 -261l120 0 -60 -107 -60 107z"/>
  </g>
  <g data-code="KeyG">
   <path class="fil7" d="M7912 2990c0,-107 78,-184 184,-184l971 0c107,0 185,77 185,184l0 971c0,107 -78,185 -185,185l-971 0c-106,0 -184,-78 -184,-185l0 -971z"/>
   <path class="fil16" d="M7989 3018l0 915c0,79 56,135 136,135l914 0c79,0 135,-56 135,-135l0 -915c0,-79 -56,-135 -135,-135l-914 0c-80,0 -136,56 -136,135z"/>
   <path class="fil19 en" d="M8609 3420l358 0 0 161c0,18 -2,34 -7,49 -5,15 -12,28 -21,39 -10,12 -20,22 -32,31 -12,8 -26,15 -40,21 -14,6 -30,10 -45,13 -16,3 -32,4 -48,4l-341 0c-16,0 -31,-2 -47,-5 -15,-3 -30,-7 -44,-14 -14,-6 -26,-13 -38,-22 -12,-10 -22,-20 -31,-32 -8,-12 -15,-25 -20,-40 -4,-15 -7,-31 -7,-48l0 -202c0,-23 4,-42 13,-60 8,-17 20,-32 36,-44 16,-12 36,-21 58,-27 23,-7 49,-10 78,-10l538 0 0 128 -595 0 0 246 463 0 0 -57 -228 0 0 -131z"/>
   <polygon class="fil20 ru" points="8351,3728 8220,3728 8220,3222 8944,3222 8944,3728 8810,3728 8810,3350 8351,3350 "/>
  </g>
  <g data-code="KeyH">
   <path class="fil7" d="M9350 2990c0,-107 78,-184 185,-184l971 0c106,0 184,77 184,184l0 971c0,107 -78,185 -184,185l-971 0c-107,0 -185,-78 -185,-185l0 -971z"/>
   <path class="fil16" d="M9428 3018l0 915c0,79 56,135 135,135l914 0c80,0 136,-56 136,-135l0 -915c0,-79 -56,-135 -136,-135l-914 0c-79,0 -135,56 -135,135z"/>
   <polygon class="fil19 en" points="9817,3233 9817,3419 10284,3419 10284,3233 10412,3233 10412,3739 10284,3739 10284,3548 9817,3548 9817,3739 9689,3739 9689,3233 "/>
   <path class="fil19 ru" d="M10210 3223c23,0 46,4 68,11 21,8 40,19 57,33 16,14 30,30 39,50 10,19 15,40 15,63 0,22 -4,43 -13,63 -9,19 -21,36 -36,51 -15,14 -33,26 -52,34 -20,8 -41,13 -63,13l-439 0 0 186 -135 0 0 -504 559 0zm-424 128l0 65 469 0 0 -65 -469 0z"/>
  </g>
  <g data-code="KeyJ">
   <path class="fil8" d="M10789 2990c0,-107 77,-184 184,-184l971 0c107,0 185,77 185,184l0 971c0,107 -78,185 -185,185l-971 0c-107,0 -184,-78 -184,-185l0 -971z"/>
   <path class="fil16" d="M10866 3018l0 915c0,79 56,135 135,135l915 0c79,0 135,-56 135,-135l0 -915c0,-79 -56,-135 -135,-135l-915 0c-79,0 -135,56 -135,135z"/>
   <path class="fil19 en" d="M11848 3596c0,20 -4,39 -13,56 -8,17 -19,32 -32,45 -14,13 -29,23 -46,30 -18,7 -35,11 -53,11l-409 0c-22,0 -43,-5 -62,-14 -19,-10 -35,-23 -49,-39 -14,-16 -25,-35 -33,-56 -8,-22 -12,-44 -12,-67l135 0 0 45 444 0 0 -373 130 0 0 362z"/>
   <path class="fil19 ru" d="M11283 3225l372 0c21,0 41,4 60,13 20,9 36,21 51,36 14,14 26,31 35,51 8,19 13,39 13,60l0 187c0,14 -2,27 -6,40 -4,13 -10,25 -17,37 -7,11 -16,21 -26,31 -10,9 -21,17 -33,24 -12,7 -25,12 -38,16 -13,3 -27,5 -41,5l-389 0c-22,0 -43,-4 -63,-12 -20,-8 -37,-19 -51,-33 -14,-14 -26,-31 -34,-51 -8,-20 -12,-41 -12,-64l0 -191c0,-22 5,-42 15,-60 10,-18 24,-34 41,-47 17,-13 36,-24 57,-31 21,-7 43,-11 66,-11zm398 131l-447 0 0 243 447 0 0 -243z"/>
  </g>
  <g data-code="KeyK">
   <path class="fil7" d="M12227 2990c0,-107 78,-184 185,-184l971 0c106,0 184,77 184,184l0 971c0,107 -78,185 -184,185l-971 0c-107,0 -185,-78 -185,-185l0 -971z"/>
   <path class="fil16" d="M12304 3018l0 915c0,79 57,135 136,135l914 0c80,0 136,-56 136,-135l0 -915c0,-79 -56,-135 -136,-135l-914 0c-79,0 -136,56 -136,135z"/>
   <path class="fil19 en" d="M13030 3233l262 0 -435 254 439 252 -266 0 -228 -131c-11,-6 -21,-12 -30,-18 -8,-5 -16,-12 -22,-18 -7,-6 -13,-14 -18,-21 -6,-8 -10,-17 -14,-26l0 214 -141 0 0 -506 141 0 0 218c4,-9 10,-18 15,-26 6,-8 13,-15 20,-22 7,-7 15,-13 25,-20 9,-6 20,-13 32,-20l220 -130z"/>
   <path class="fil19 ru" d="M12667 3728l-132 0 0 -341c0,-14 2,-27 6,-40 4,-14 10,-26 17,-39 7,-12 16,-23 26,-34 10,-10 20,-19 32,-27 12,-8 24,-14 37,-18 12,-5 25,-7 38,-7l568 0 0 506 -134 0 0 -378 -458 0 0 378z"/>
  </g>
  <g data-code="KeyL">
   <path class="fil7" d="M13665 2990c0,-107 78,-184 185,-184l971 0c107,0 185,77 185,184l0 971c0,107 -78,185 -185,185l-971 0c-107,0 -185,-78 -185,-185l0 -971z"/>
   <path class="fil16" d="M13743 3018l0 915c0,79 56,135 135,135l915 0c79,0 135,-56 135,-135l0 -915c0,-79 -56,-135 -135,-135l-915 0c-79,0 -135,56 -135,135z"/>
   <path class="fil19 en" d="M14733 3607l0 133 -551 0c-20,0 -39,-4 -58,-13 -19,-8 -36,-20 -50,-34 -15,-14 -27,-31 -36,-50 -8,-19 -13,-38 -13,-59l0 -351 132 0 0 374 576 0z"/>
   <path class="fil19 ru" d="M13943 3725l0 -134 35 0 0 -213c0,-22 4,-43 13,-62 9,-19 21,-35 36,-48 15,-14 32,-24 52,-32 20,-7 41,-11 62,-11l367 0c21,0 42,4 62,11 21,7 39,18 54,31 16,13 29,29 38,48 9,18 14,39 14,61l0 215 53 0 0 134 -786 0zm608 -134l0 -237 -455 0 0 237 455 0z"/>
  </g>
  <g data-code="BracketLeft">
   <path class="fil7" d="M15104 2990c0,-107 78,-184 185,-184l971 0c106,0 184,77 184,184l0 971c0,107 -78,185 -184,185l-971 0c-107,0 -185,-78 -185,-185l0 -971z"/>
   <path class="fil16" d="M15181 3018l0 915c0,79 57,135 136,135l914 0c79,0 136,-56 136,-135l0 -915c0,-79 -57,-135 -136,-135l-914 0c-79,0 -136,56 -136,135z"/>
   <polygon class="fil19 en" points="15874,3373 15874,3599 15958,3599 15958,3743 15729,3743 15729,3529 15686,3486 15729,3443 15729,3229 15958,3229 15958,3373 "/>
   <path class="fil19 ru" d="M15521 3223l135 151c2,2 6,6 10,11 5,5 9,10 14,16 5,6 10,12 14,18 4,6 8,11 10,16l0 -212 141 0 0 215c2,-5 5,-10 9,-16 5,-7 9,-13 14,-19 6,-6 11,-11 15,-17 5,-5 9,-9 12,-12l132 -151 166 0 -215 253 219 251 -157 0 -141 -149c-9,-9 -17,-17 -22,-24 -6,-6 -10,-12 -14,-16 -4,-5 -7,-9 -9,-13 -3,-4 -6,-8 -9,-12l0 214 -141 0 0 -211c-4,6 -7,10 -9,14 -2,4 -5,7 -9,11 -3,4 -8,8 -13,14 -6,6 -13,13 -22,23l-143 149 -157 0 220 -251 -216 -253 166 0z"/>
  </g>
  <g data-code="BracketRight">
   <path class="fil11" d="M16542 2990c0,-107 78,-184 185,-184l971 0c107,0 185,77 185,184l0 971c0,107 -78,185 -185,185l-971 0c-107,0 -185,-78 -185,-185l0 -971z"/>
   <path class="fil16" d="M16620 3018l0 915c0,79 56,135 135,135l915 0c79,0 135,-56 135,-135l0 -915c0,-79 -56,-135 -135,-135l-915 0c-79,0 -135,56 -135,135z"/>
   <polygon class="fil19 en" points="17213,3373 17129,3373 17129,3229 17357,3229 17357,3443 17400,3486 17357,3529 17357,3743 17129,3743 17129,3599 17213,3599 "/>
   <path class="fil19 ru" d="M17388 3221c25,0 48,4 70,11 22,8 41,18 57,32 16,14 28,31 38,51 9,20 13,43 13,68l0 184c0,23 -4,45 -14,65 -10,20 -23,37 -39,51 -17,15 -36,26 -57,34 -22,8 -44,12 -67,12l-530 0 0 -134 579 0 0 -53 -579 0 0 -132 579 0 0 -59 -579 0 0 -130 529 0z"/>
  </g>
  <g data-code="Enter">
   <path class="fil5" d="M17945 2990c0,-107 78,-184 185,-184l1690 0c106,0 184,77 184,184l0 971c0,107 -78,185 -184,185l-1690 0c-107,0 -185,-78 -185,-185l0 -971z"/>
   <path class="fil16" d="M18043 3018l0 915c0,79 57,135 136,135l1591 0c80,0 136,-56 136,-135l0 -915c0,-79 -56,-135 -136,-135l-1591 0c-79,0 -136,56 -136,135z"/>
   <polygon class="fil25" points="18189,3640 18432,3640 18432,3610 18222,3610 18222,3469 18409,3469 18409,3439 18222,3439 18222,3307 18426,3307 18426,3277 18189,3277 "/>
   <polygon id="1" class="fil25" points="18514,3640 18538,3640 18538,3333 18726,3640 18762,3640 18762,3277 18730,3277 18730,3582 18542,3277 18506,3277 18506,3640 "/>
   <polygon id="2" class="fil25" points="18934,3640 18967,3640 18967,3307 19080,3307 19080,3277 18822,3277 18822,3307 18934,3307 "/>
   <polygon id="3" class="fil25" points="19150,3640 19393,3640 19393,3610 19183,3610 19183,3469 19370,3469 19370,3439 19183,3439 19183,3307 19387,3307 19387,3277 19150,3277 "/>
   <path id="4" class="fil25" d="M19467 3640l32 0 0 -162 106 0c30,0 49,5 58,15 9,10 14,30 17,62l4 48c0,8 1,16 3,22 1,6 2,11 4,15l37 0 0 -5c-3,-3 -6,-7 -7,-12 -3,-6 -4,-13 -5,-22l-4 -54c-2,-27 -6,-45 -10,-55 -6,-14 -18,-23 -35,-29 18,-7 33,-18 43,-33 10,-15 15,-34 15,-56 0,-19 -4,-35 -12,-49 -7,-14 -18,-25 -32,-33 -12,-7 -26,-11 -42,-13 -12,-1 -29,-2 -52,-2l-120 0 0 363zm32 -192l0 -141 95 0c18,0 31,1 39,2 12,2 23,5 31,11 8,6 15,13 19,23 5,9 8,20 8,32 0,26 -8,45 -23,56 -15,12 -39,17 -73,17l-96 0z"/>
  </g>
  <g data-code="ShiftLeft">
   <path class="fil3" d="M0 4393c0,-107 78,-185 185,-185l2409 0c107,0 185,78 185,185l0 971c0,106 -78,184 -185,184l-2409 0c-107,0 -185,-78 -185,-184l0 -971z"/>
   <path class="fil16" d="M86 4421l0 914c0,80 57,136 139,136l2329 0c81,0 139,-56 139,-136l0 -914c0,-79 -58,-135 -139,-135l-2329 0c-82,0 -139,56 -139,135z"/>
   <path class="fil24" d="M696 4932l0 3c0,37 11,66 35,87 23,20 56,31 100,31 38,0 69,-10 91,-29 22,-19 34,-44 34,-76 0,-29 -10,-52 -28,-68 -17,-16 -46,-28 -86,-38l-42 -10c-22,-6 -38,-14 -47,-23 -10,-10 -14,-23 -14,-40 0,-21 7,-38 21,-50 14,-12 35,-18 62,-18 28,0 49,7 65,21 15,14 23,34 24,60l34 0c-1,-35 -12,-62 -33,-82 -21,-19 -51,-29 -89,-29 -37,0 -66,9 -87,27 -21,18 -32,41 -32,70 0,28 8,50 24,65 15,13 40,24 75,33l34 9c32,7 53,16 65,26 13,11 20,28 20,51 0,21 -8,38 -24,51 -16,13 -39,20 -67,20 -32,0 -57,-8 -75,-24 -17,-16 -26,-38 -26,-67l-34 0z"/>
   <polygon id="1" class="fil24" points="1033,5043 1066,5043 1066,4867 1273,4867 1273,5043 1305,5043 1305,4680 1273,4680 1273,4837 1066,4837 1066,4680 1033,4680 "/>
   <polygon id="2" class="fil24" points="1401,5043 1434,5043 1434,4680 1401,4680 "/>
   <polygon id="3" class="fil24" points="1527,5043 1559,5043 1559,4871 1738,4871 1738,4841 1559,4841 1559,4710 1755,4710 1755,4680 1527,4680 "/>
   <polygon id="4" class="fil24" points="1906,5043 1939,5043 1939,4710 2052,4710 2052,4680 1793,4680 1793,4710 1906,4710 "/>
  </g>
  <g data-code="KeyZ">
   <path class="fil15" d="M2877 4393c0,-107 78,-185 185,-185l971 0c106,0 184,78 184,185l0 971c0,106 -78,184 -184,184l-971 0c-107,0 -185,-78 -185,-184l0 -971z"/>
   <path class="fil16" d="M2954 4421l0 914c0,80 57,136 136,136l914 0c79,0 136,-56 136,-136l0 -914c0,-79 -57,-135 -136,-135l-914 0c-79,0 -136,56 -136,135z"/>
   <path class="fil19 en" d="M3817 4640c20,0 38,4 55,11 17,8 31,18 43,30 12,13 22,27 28,44 7,16 11,33 11,52 0,15 -3,30 -8,44 -5,13 -13,26 -22,37 -10,10 -21,19 -34,27 -13,8 -28,13 -44,16l-513 112 596 0 0 132 -609 0c-20,0 -39,-3 -58,-9 -19,-7 -36,-16 -50,-28 -15,-12 -27,-26 -36,-43 -9,-17 -14,-36 -14,-56 0,-15 2,-29 7,-43 5,-13 12,-25 21,-36 8,-11 19,-20 31,-27 13,-8 27,-13 42,-17l541 -117 -621 0 0 -129 634 0z"/>
   <path class="fil19 ru" d="M3902 4627l0 502 -133 0 0 -189 -447 0 0 189 -130 0 0 -172c0,-14 3,-28 9,-44 6,-15 14,-29 25,-41 -10,-14 -17,-28 -22,-43 -5,-15 -7,-30 -7,-45 0,-14 2,-28 6,-41 4,-13 9,-26 16,-37 7,-12 15,-23 25,-32 9,-10 20,-18 31,-25 11,-7 23,-13 36,-17 13,-4 26,-5 40,-5l551 0zm-133 187l0 -61 -447 0 0 61 447 0z"/>
  </g>
  <g data-code="KeyX">
   <path class="fil14" d="M4311 4393c0,-107 78,-185 184,-185l971 0c107,0 185,78 185,185l0 971c0,106 -78,184 -185,184l-971 0c-106,0 -184,-78 -184,-184l0 -971z"/>
   <path class="fil16" d="M4388 4421l0 914c0,80 56,136 136,136l914 0c79,0 135,-56 135,-136l0 -914c0,-79 -56,-135 -135,-135l-914 0c-80,0 -136,56 -136,135z"/>
   <path class="fil19 en" d="M5347 4640l-215 254 219 252 -157 0 -142 -149c-13,-15 -25,-27 -34,-39 -9,-11 -17,-22 -24,-34 -1,5 -4,10 -7,17 -4,6 -9,12 -13,18 -5,6 -9,12 -13,17 -5,5 -8,8 -10,11l-132 159 -169 0 218 -254 -227 -252 170 0 144 168c7,9 13,15 17,20 3,4 7,8 9,12 3,3 5,7 7,10 1,3 4,8 6,14 2,-6 5,-12 9,-19 5,-7 10,-14 16,-21 5,-6 11,-13 16,-18 6,-6 10,-11 13,-15l133 -151 166 0z"/>
   <path class="fil19 ru" d="M5221 4863l0 -238 129 0 0 505 -129 0 0 -138 -415 0c-27,0 -52,-3 -76,-11 -24,-8 -44,-19 -62,-34 -18,-15 -31,-34 -41,-56 -10,-22 -15,-47 -15,-75l0 -191 138 0 0 238 471 0z"/>
  </g>
  <g data-code="KeyC">
   <path class="fil14" d="M5749 4393c0,-107 78,-185 185,-185l971 0c106,0 184,78 184,185l0 971c0,106 -78,184 -184,184l-971 0c-107,0 -185,-78 -185,-184l0 -971z"/>
   <path class="fil16" d="M5827 4421l0 914c0,80 56,136 135,136l914 0c80,0 136,-56 136,-136l0 -914c0,-79 -56,-135 -136,-135l-914 0c-79,0 -135,56 -135,135z"/>
   <path class="fil19 en" d="M6799 4640l0 127 -589 0 0 252 589 0 0 126 -554 0c-21,0 -42,-3 -61,-11 -20,-7 -38,-17 -54,-30 -15,-13 -28,-29 -37,-47 -10,-18 -14,-38 -14,-60l0 -170c0,-32 4,-59 12,-83 9,-23 21,-43 37,-58 17,-15 37,-27 61,-34 23,-8 51,-12 81,-12l529 0z"/>
   <path class="fil19 ru" d="M6778 4626l0 126 -587 0 0 252 587 0 0 125 -552 0c-21,0 -41,-3 -61,-11 -20,-7 -38,-17 -53,-30 -16,-13 -28,-29 -38,-47 -9,-18 -14,-38 -14,-60l0 -169c0,-63 16,-110 48,-140 33,-31 80,-46 143,-46l527 0z"/>
  </g>
  <g data-code="KeyV">
   <path class="fil9" d="M7198 4393c0,-107 78,-185 184,-185l971 0c107,0 185,78 185,185l0 971c0,106 -78,184 -185,184l-971 0c-106,0 -184,-78 -184,-184l0 -971z"/>
   <path class="fil16" d="M7275 4421l0 914c0,80 56,136 136,136l914 0c79,0 135,-56 135,-136l0 -914c0,-79 -56,-135 -135,-135l-914 0c-80,0 -136,56 -136,135z"/>
   <path class="fil19 en" d="M7690 4640l201 377 205 -379 145 0 -216 409c-8,15 -16,28 -24,41 -9,12 -18,23 -29,32 -10,8 -22,15 -35,20 -13,5 -28,8 -44,8 -18,0 -34,-3 -49,-9 -14,-6 -27,-15 -39,-26 -11,-10 -22,-23 -31,-37 -10,-14 -19,-30 -27,-46l-205 -390 148 0z"/>
   <path class="fil19 ru" d="M7616 5123l-122 0 0 -379c0,-17 3,-33 10,-48 6,-15 15,-28 26,-40 11,-11 24,-20 39,-27 15,-6 31,-9 48,-9 17,0 32,3 46,8 14,6 26,14 38,23 11,10 21,22 29,35 9,13 17,27 23,42l114 281 124 -296c6,-14 12,-27 20,-39 8,-11 18,-21 28,-29 11,-8 22,-14 35,-19 13,-4 27,-6 42,-6 19,0 36,4 52,11 15,8 28,18 39,31 11,13 20,28 26,45 6,17 9,34 9,53l0 363 -123 0 0 -370 -121 264c-9,20 -17,37 -25,52 -8,15 -16,27 -26,37 -9,10 -20,17 -32,22 -12,5 -28,8 -46,8 -17,0 -31,-4 -45,-10 -13,-7 -25,-16 -36,-27 -11,-11 -21,-23 -29,-37 -9,-15 -17,-30 -24,-45l-119 -260 0 366z"/>
  </g>
  <g data-code="KeyB">
   <path class="fil9" d="M8626 4393c0,-107 78,-185 185,-185l971 0c106,0 184,78 184,185l0 971c0,106 -78,184 -184,184l-971 0c-107,0 -185,-78 -185,-184l0 -971z"/>
   <path class="fil16" d="M8703 4421l0 914c0,80 57,136 136,136l914 0c80,0 136,-56 136,-136l0 -914c0,-79 -56,-135 -136,-135l-914 0c-79,0 -136,56 -136,135z"/>
   <path class="fil19 en" d="M9497 4640c27,0 51,3 73,10 23,6 42,15 58,28 16,13 29,29 38,49 9,19 14,42 14,68 0,34 -10,65 -29,95 4,7 9,14 14,20 5,7 9,14 13,21 3,7 6,15 9,23 2,8 4,17 4,27 0,16 -3,30 -7,44 -4,15 -10,28 -18,40 -8,12 -17,23 -28,33 -11,10 -22,19 -35,26 -13,7 -26,12 -40,16 -14,4 -28,6 -43,6l-562 0 0 -506 539 0zm48 375l0 -58 -453 0 0 58 453 0zm0 -189l0 -57 -453 0 0 57 453 0z"/>
   <path class="fil19 ru" d="M9648 4738l0 393 -128 0 0 -377 -343 335c-17,18 -34,30 -51,38 -18,7 -37,11 -56,11 -20,0 -38,-3 -53,-11 -16,-8 -29,-18 -40,-31 -10,-12 -19,-27 -24,-44 -6,-18 -9,-36 -9,-55l0 -368 129 0 0 375 344 -338c33,-33 68,-49 105,-49 16,0 32,2 47,7 15,5 28,12 40,22 12,10 21,22 28,37 7,16 11,34 11,55z"/>
  </g>
  <g data-code="KeyN">
   <path class="fil10" d="M10080 4393c0,-107 78,-185 185,-185l971 0c106,0 184,78 184,185l0 971c0,106 -78,184 -184,184l-971 0c-107,0 -185,-78 -185,-184l0 -971z"/>
   <path class="fil16" d="M10158 4421l0 914c0,80 56,136 135,136l914 0c80,0 136,-56 136,-136l0 -914c0,-79 -56,-135 -136,-135l-914 0c-79,0 -135,56 -135,135z"/>
   <path class="fil19 en" d="M10430 4753c0,-17 3,-32 11,-47 7,-14 16,-27 28,-38 12,-11 25,-20 40,-27 16,-6 31,-10 48,-10 36,0 71,17 105,50l345 339 0 -377 129 0 0 370c0,19 -3,37 -9,54 -5,18 -14,33 -25,45 -10,13 -24,23 -39,31 -16,8 -34,11 -53,11 -10,0 -19,-1 -27,-2 -8,-2 -17,-5 -25,-9 -8,-4 -16,-10 -25,-16 -9,-6 -19,-13 -30,-22l-345 -336 0 378 -128 0 0 -394z"/>
   <polygon class="fil19 ru" points="10392,4626 11109,4626 11109,4754 10815,4754 10815,5129 10685,5129 10685,4754 10392,4754 "/>
  </g>
  <g data-code="KeyM">
   <path class="fil14" d="M11508 4393c0,-107 78,-185 185,-185l971 0c107,0 185,78 185,185l0 971c0,106 -78,184 -185,184l-971 0c-107,0 -185,-78 -185,-184l0 -971z"/>
   <path class="fil16" d="M11586 4421l0 914c0,80 56,136 135,136l915 0c79,0 135,-56 135,-136l0 -914c0,-79 -56,-135 -135,-135l-915 0c-79,0 -135,56 -135,135z"/>
   <path class="fil19 en" d="M11963 5142l-123 -3 0 -380c0,-17 4,-33 10,-48 6,-15 15,-29 26,-40 11,-11 24,-20 39,-27 15,-7 31,-10 49,-10 16,0 32,3 46,9 13,5 26,13 38,23 11,10 21,21 30,35 8,13 16,27 22,42l114 282 125 -297c11,-31 27,-54 48,-70 21,-16 47,-24 77,-24 19,0 37,4 52,12 16,7 29,18 40,31 11,13 19,28 25,45 6,16 9,34 9,52l0 365 -122 0 0 -371 -122 265c-8,18 -16,34 -23,48 -8,15 -17,28 -27,38 -10,10 -21,18 -34,24 -12,6 -28,9 -46,9 -16,0 -31,-4 -45,-11 -13,-6 -25,-15 -36,-26 -11,-11 -21,-24 -29,-38 -9,-15 -17,-29 -24,-45l-119 -260 0 370z"/>
   <path class="fil19 ru" d="M12367 5131l-557 0 0 -507 134 0 0 189 438 0c22,0 43,4 63,13 20,8 37,20 53,34 15,15 27,32 35,51 9,19 14,40 14,63 0,23 -5,44 -16,63 -10,19 -23,36 -40,50 -17,13 -36,24 -58,32 -21,8 -43,12 -66,12zm-423 -129l469 0 0 -64 -469 0 0 64z"/>
  </g>
  <g data-code="LessThan">
   <path class="fil14" d="M12952 4393c0,-107 78,-185 184,-185l971 0c107,0 185,78 185,185l0 971c0,106 -78,184 -185,184l-971 0c-106,0 -184,-78 -184,-184l0 -971z"/>
   <path class="fil16" d="M13029 4421l0 914c0,80 56,136 136,136l914 0c79,0 135,-56 135,-136l0 -914c0,-79 -56,-135 -135,-135l-914 0c-80,0 -136,56 -136,135z"/>
   <polygon class="fil19 en" points="13444,4893 13882,4708 13882,4831 13737,4893 13882,4954 13882,5078 "/>
   <path class="fil19 ru" d="M13436 5130l-181 -1 0 -341c0,-22 5,-42 14,-62 9,-20 21,-37 36,-52 15,-15 33,-27 52,-35 20,-9 40,-14 61,-14l542 0 0 133 -574 0 0 58 436 0c15,0 29,2 43,5 13,4 26,9 39,16 12,6 23,14 34,23 10,10 19,20 26,31 8,12 14,24 18,38 4,13 6,27 6,42 0,23 -4,45 -14,64 -10,19 -23,36 -39,50 -16,14 -35,25 -55,33 -21,8 -43,12 -65,12l-379 0zm431 -137l0 -59 -481 0 0 59 481 0z"/>
  </g>
  <g data-code="GreaterThan">
   <path class="fil14" d="M14390 4393c0,-107 78,-185 185,-185l971 0c106,0 184,78 184,185l0 971c0,106 -78,184 -184,184l-971 0c-107,0 -185,-78 -185,-184l0 -971z"/>
   <path class="fil16" d="M14468 4421l0 914c0,80 56,136 135,136l914 0c80,0 136,-56 136,-136l0 -914c0,-79 -56,-135 -136,-135l-914 0c-79,0 -135,56 -135,135z"/>
   <polygon class="fil19 en" points="15314,4893 14898,5078 14898,4954 15035,4893 14898,4831 14898,4708 "/>
   <path class="fil19 ru" d="M15088 4627l181 0c21,0 41,5 60,13 19,9 36,21 51,36 14,15 26,32 34,51 9,19 13,40 13,61l0 186c0,14 -2,28 -6,41 -4,12 -9,25 -16,36 -8,11 -16,22 -26,31 -10,9 -21,17 -33,24 -12,7 -25,12 -38,16 -13,4 -27,5 -41,5l-197 0c-9,0 -19,-1 -30,-5 -11,-4 -21,-9 -32,-15 -10,-6 -20,-14 -30,-23 -9,-9 -18,-18 -25,-29 -7,-10 -13,-22 -17,-34 -5,-11 -7,-24 -7,-36l0 -37 -104 0 0 180 -132 0 0 -496 132 0 0 175 104 0 0 -47c0,-11 3,-22 8,-32 5,-11 11,-21 20,-31 8,-10 18,-19 29,-27 11,-9 22,-16 34,-23 11,-6 23,-11 35,-14 12,-4 23,-6 33,-6zm207 131l-235 0 0 243 235 0 0 -243z"/>
  </g>
  <g data-code="Slash">
   <path class="fil15" d="M15829 4393c0,-107 77,-185 184,-185l971 0c107,0 185,78 185,185l0 971c0,106 -78,184 -185,184l-971 0c-107,0 -184,-78 -184,-184l0 -971z"/>
   <path class="fil16" d="M15906 4421l0 914c0,80 56,136 135,136l915 0c79,0 135,-56 135,-136l0 -914c0,-79 -56,-135 -135,-135l-915 0c-79,0 -135,56 -135,135z"/>
     <polygon class="fil19 en" points="16889,4646 16386,5150 16208,5150 16712,4646 "/>
   <path class="fil19 ru" d="M16324 4624l529 0 0 130 -580 0 0 58 580 0 0 131 -580 0 0 55 580 0 0 133 -530 0c-24,0 -46,-4 -68,-11 -21,-9 -40,-20 -56,-34 -17,-14 -30,-32 -40,-51 -9,-20 -14,-42 -14,-66l0 -183c0,-25 4,-48 14,-68 9,-20 22,-37 38,-51 16,-14 35,-25 57,-32 22,-8 45,-11 70,-11z"/>
   <path class="fil19 ru" d="M16504 4552l-142 0 0 -147 142 0 0 147zm195 0l-140 0 0 -147 140 0 0 147z"/>
  </g>
  <g data-code="ShiftRight">
   <path class="fil4" d="M17262 4393c0,-107 78,-185 184,-185l2374 0c106,0 184,78 184,185l0 971c0,106 -78,184 -184,184l-2374 0c-106,0 -184,-78 -184,-184l0 -971z"/>
   <path class="fil16" d="M17373 4421l0 914c0,80 56,136 136,136l2248 0c80,0 136,-56 136,-136l0 -914c0,-79 -56,-135 -136,-135l-2248 0c-80,0 -136,56 -136,135z"/>
   <path class="fil24" d="M17939 4932l0 3c0,37 12,66 35,87 24,20 57,31 101,31 38,0 68,-10 91,-29 22,-19 33,-44 33,-76 0,-29 -9,-52 -27,-68 -18,-16 -46,-28 -86,-38l-43 -10c-21,-6 -37,-14 -46,-23 -10,-10 -15,-23 -15,-40 0,-21 7,-38 21,-50 15,-12 35,-18 62,-18 28,0 50,7 65,21 16,14 24,34 24,60l35 0c-1,-35 -12,-62 -33,-82 -22,-19 -51,-29 -89,-29 -37,0 -66,9 -88,27 -21,18 -31,41 -31,70 0,28 8,50 24,65 15,13 39,24 75,33l34 9c31,7 53,16 64,26 14,11 21,28 21,51 0,21 -9,38 -25,51 -16,13 -38,20 -66,20 -32,0 -57,-8 -75,-24 -18,-16 -26,-38 -26,-67l-35 0z"/>
   <polygon id="1" class="fil24" points="18277,5043 18309,5043 18309,4867 18516,4867 18516,5043 18549,5043 18549,4680 18516,4680 18516,4837 18309,4837 18309,4680 18277,4680 "/>
   <polygon id="2" class="fil24" points="18645,5043 18678,5043 18678,4680 18645,4680 "/>
   <polygon id="3" class="fil24" points="18770,5043 18803,5043 18803,4871 18981,4871 18981,4841 18803,4841 18803,4710 18999,4710 18999,4680 18770,4680 "/>
   <polygon id="4" class="fil24" points="19150,5043 19182,5043 19182,4710 19296,4710 19296,4680 19037,4680 19037,4710 19150,4710 "/>
  </g>
  <g data-code="ControlLeft">
   <path class="fil1" d="M0 5795c0,-107 78,-184 185,-184l3128 0c107,0 185,77 185,184l0 971c0,107 -78,185 -185,185l-3128 0c-107,0 -185,-78 -185,-185l0 -971z"/>
   <path class="fil16" d="M98 5823l0 915c0,79 57,135 139,135l3024 0c81,0 139,-56 139,-135l0 -915c0,-79 -58,-135 -139,-135l-3024 0c-82,0 -139,56 -139,135z"/>
   <path class="fil24" d="M983 6122l0 0c-3,30 -14,53 -33,69 -20,17 -46,26 -78,26 -38,0 -69,-14 -91,-41 -22,-27 -34,-65 -34,-113 0,-48 11,-86 33,-112 22,-27 53,-40 92,-40 30,0 55,8 74,22 19,15 30,35 33,60l33 0c-2,-33 -16,-60 -41,-80 -25,-21 -58,-31 -99,-31 -49,0 -88,16 -116,48 -28,32 -43,77 -43,133 0,57 14,101 43,134 28,33 66,49 115,49 42,0 76,-11 102,-33 25,-22 39,-53 42,-91l-32 0z"/>
   <polygon id="1" class="fil24" points="1187,6236 1187,6236 1219,6236 1219,6005 1329,6005 1329,5974 1077,5974 1077,6005 1187,6005 "/>
   <path id="2" class="fil24" d="M1418 6087l0 0c2,-29 10,-51 25,-68 15,-16 34,-24 57,-24 22,0 41,8 55,24 14,16 22,39 23,68l-160 0zm0 24l0 0 192 0 0 -10c0,-42 -10,-75 -30,-98 -19,-23 -46,-35 -79,-35 -36,0 -64,12 -84,36 -20,25 -30,59 -30,103 0,43 10,77 30,101 20,24 47,36 82,36 29,0 53,-9 72,-25 20,-16 31,-37 35,-63l-30 0c-3,18 -12,33 -25,44 -14,11 -30,17 -49,17 -25,0 -46,-10 -61,-29 -15,-19 -23,-44 -23,-77z"/>
   <path id="3" class="fil24" d="M1691 6307l0 0 30 0 0 -113c10,16 23,29 38,37 16,9 33,14 52,14 35,0 63,-15 84,-44 19,-26 29,-57 29,-94 0,-38 -10,-70 -29,-96 -21,-28 -49,-43 -84,-43 -19,0 -36,5 -52,14 -15,8 -27,20 -38,36l0 -43 -30 0 0 332zm115 -312l0 0c27,0 49,11 65,34 14,21 22,47 22,77 0,30 -8,56 -22,77 -16,23 -38,35 -65,35 -28,0 -50,-12 -66,-35 -14,-21 -21,-47 -21,-77 0,-30 7,-56 21,-77 16,-23 38,-34 66,-34z"/>
   <path id="4" class="fil24" d="M2026 6087l0 0c2,-29 10,-51 25,-68 15,-16 34,-24 57,-24 22,0 41,8 55,24 14,16 22,39 23,68l-160 0zm0 24l0 0 192 0 0 -10c0,-42 -10,-75 -30,-98 -19,-23 -46,-35 -79,-35 -36,0 -63,12 -83,36 -21,25 -31,59 -31,103 0,43 10,77 30,101 20,24 48,36 82,36 29,0 53,-9 73,-25 19,-16 31,-37 34,-63l-30 0c-3,18 -11,33 -25,44 -14,11 -30,17 -49,17 -25,0 -45,-10 -61,-29 -15,-19 -23,-44 -23,-77z"/>
   <polygon id="5" class="fil24" points="2388,6236 2388,6236 2421,6236 2421,6005 2531,6005 2531,5974 2279,5974 2279,6005 2388,6005 "/>
   <path id="6" class="fil24" d="M2643 6084l0 0 39 0c22,0 39,6 52,17 13,12 19,26 19,44 0,19 -6,33 -19,44 -13,12 -30,18 -52,18l-39 0 0 -123zm-31 152l0 0 74 0c30,0 55,-9 73,-27 17,-17 26,-38 26,-63 0,-26 -9,-47 -26,-64 -18,-17 -42,-26 -73,-26l-43 0 0 -81 -31 0 0 261z"/>
   <path class="fil24" d="M1321 6654l0 0 103 0c29,0 51,0 65,-1 18,-1 31,-4 39,-6 18,-8 32,-19 42,-34 10,-16 15,-33 15,-52 0,-22 -6,-41 -19,-58 -13,-16 -30,-27 -51,-31 17,-7 30,-17 40,-31 9,-13 14,-27 14,-43 0,-17 -4,-31 -12,-44 -8,-13 -18,-23 -32,-31 -10,-6 -22,-10 -35,-12 -12,-2 -27,-2 -46,-2l-117 0 -6 0 0 30 0 315zm117 -315l0 0c34,0 58,4 73,12 16,9 24,26 24,49 0,23 -8,40 -25,49 -15,8 -40,12 -75,12l-81 0 0 -122 84 0zm-84 285l0 0 0 -133 104 0c30,0 53,6 69,17 16,12 24,29 24,52 0,24 -8,41 -24,50 -14,10 -38,14 -72,14l-101 0z"/>
   <path id="1" class="fil24" d="M1854 6566l0 0c-4,22 -12,39 -26,51 -13,13 -30,19 -50,19 -27,0 -47,-10 -63,-30 -16,-20 -23,-47 -23,-82 0,-35 7,-63 23,-82 16,-19 36,-29 62,-29 20,0 36,6 50,17 14,11 22,27 24,46l29 0c-1,-27 -12,-48 -31,-65 -19,-16 -43,-24 -72,-24 -36,0 -64,12 -85,36 -21,25 -32,59 -32,104 0,42 11,75 32,100 20,24 48,36 83,36 31,0 56,-9 75,-26 19,-18 31,-41 34,-71l-30 0z"/>
   <path id="2" class="fil24" d="M1985 6505l0 0c2,-29 10,-51 25,-68 15,-16 34,-24 57,-24 22,0 41,8 55,24 14,17 22,39 23,68l-160 0zm0 24l0 0 192 0 0 -10c0,-42 -10,-74 -30,-98 -19,-23 -46,-34 -79,-34 -36,0 -63,12 -83,35 -21,25 -31,59 -31,103 0,43 10,77 30,101 20,24 48,36 82,36 29,0 53,-8 73,-25 19,-16 31,-37 34,-63l-30 0c-3,18 -11,33 -25,45 -14,10 -30,16 -49,16 -25,0 -45,-10 -61,-28 -15,-19 -23,-45 -23,-78z"/>
  </g>
  <g data-code="LangSwitch">
   <path class="fil3" d="M3596 5795c0,-107 78,-184 185,-184l2409 0c107,0 185,77 185,184l0 971c0,107 -78,185 -185,185l-2409 0c-107,0 -185,-78 -185,-185l0 -971z"/>
   <path class="fil16" d="M3682 5823l0 915c0,79 58,135 139,135l2329 0c81,0 139,-56 139,-135l0 -915c0,-79 -58,-135 -139,-135l-2329 0c-81,0 -139,56 -139,135z"/>
   <path class="fil18" d="M3732 6143l400 1c15,0 29,3 42,10 14,7 25,16 36,28 10,11 18,25 24,40 7,15 10,31 10,47 0,13 -2,25 -6,37 -3,12 -8,23 -15,34 7,10 13,21 18,33 4,12 6,24 6,35l0 137 -94 0 0 -151 -324 0 0 151 -97 0 0 -402zm97 150l324 0 0 -48 -324 0 0 48z"/>
   <path id="1" class="fil18" d="M4392 6142l0 302 333 0 0 -302 97 0 0 286c0,9 -2,19 -5,29 -3,9 -7,18 -12,27 -5,8 -11,16 -18,24 -7,7 -15,14 -23,19 -8,6 -16,10 -25,13 -9,3 -18,5 -27,5l-302 0c-9,0 -19,-2 -28,-5 -9,-4 -18,-9 -27,-15 -8,-6 -16,-13 -23,-21 -7,-8 -13,-17 -18,-27 -6,-10 -10,-20 -13,-30 -3,-11 -4,-21 -4,-32l0 -273 95 0z"/>
   <polygon id="2" class="fil18" points="4871,6361 4871,6270 5104,6270 5104,6361 "/>
   <path id="3" class="fil18" d="M5283 6141l384 0 0 104 -420 0 0 47 420 0 0 104 -420 0 0 43 420 0 0 107 -385 0c-17,0 -33,-3 -48,-9 -16,-7 -29,-16 -41,-27 -12,-11 -22,-25 -29,-41 -7,-16 -11,-33 -11,-52l0 -147c0,-20 4,-38 11,-54 6,-16 16,-30 27,-41 12,-11 26,-19 42,-25 15,-6 32,-9 50,-9z"/>
   <path id="4" class="fil18" d="M5716 6231c0,-13 3,-25 8,-37 5,-12 12,-22 20,-31 9,-8 19,-15 30,-21 11,-5 22,-8 34,-8 26,0 52,14 76,40l249 270 0 -300 93 0 0 294c0,15 -2,30 -6,44 -4,13 -10,25 -18,35 -8,11 -17,19 -28,25 -12,6 -24,9 -39,9 -7,0 -13,-1 -19,-2 -6,-2 -12,-4 -18,-8 -6,-3 -12,-7 -18,-12 -7,-5 -14,-11 -22,-18l-249 -267 0 301 -93 0 0 -314z"/>
   <circle class="fil23 act-ru" cx="4532" cy="5888" r="149"/>
   <circle class="fil23 act-en" cx="5398" cy="5888" r="149"/>
  </g>
  <g data-code="Space">
   <path class="fil0" d="M6437 5795c0,-107 78,-184 185,-184l6761 0c106,0 184,77 184,184l0 971c0,107 -78,185 -184,185l-6761 0c-107,0 -185,-78 -185,-185l0 -971z"/>
   <path class="fil16" d="M6550 5823l0 915c0,79 59,135 141,135l6622 0c83,0 141,-56 141,-135l0 -915c0,-79 -58,-135 -141,-135l-6622 0c-82,0 -141,56 -141,135z"/>
  </g>
  <g data-code="Period">
   <path class="fil10" d="M13665 5795c0,-107 78,-184 185,-184l971 0c107,0 185,77 185,184l0 971c0,107 -78,185 -185,185l-971 0c-107,0 -185,-78 -185,-185l0 -971z"/>
   <path class="fil16" d="M13743 5823l0 915c0,79 56,135 135,135l915 0c79,0 135,-56 135,-135l0 -915c0,-79 -56,-135 -135,-135l-915 0c-79,0 -135,56 -135,135z"/>
   <polygon class="fil19" points="14219,6387 14219,6173 14452,6173 14452,6387 "/>
  </g>
  <g data-code="Comma">
   <path class="fil10" d="M15104 5795c0,-107 78,-184 185,-184l971 0c106,0 184,77 184,184l0 971c0,107 -78,185 -184,185l-971 0c-107,0 -185,-78 -185,-185l0 -971z"/>
   <path class="fil16" d="M15181 5823l0 915c0,79 57,135 136,135l914 0c79,0 136,-56 136,-135l0 -915c0,-79 -57,-135 -136,-135l-914 0c-79,0 -136,56 -136,135z"/>
   <path class="fil19" d="M15676 6318l0 -145 196 0 0 208c0,20 -6,40 -17,58 -12,18 -27,34 -46,48 -19,13 -39,24 -62,32 -23,8 -45,12 -67,12l0 -144 49 0 0 -69 -53 0z"/>
  </g>
  <g data-code="ControlRight">
   <path class="fil2" d="M16542 5795c0,-107 78,-184 185,-184l3093 0c106,0 184,77 184,184l0 971c0,107 -78,185 -184,185l-3093 0c-107,0 -185,-78 -185,-185l0 -971z"/>
   <path class="fil16" d="M16670 5823l0 915c0,79 57,135 137,135l2933 0c80,0 137,-56 137,-135l0 -915c0,-79 -57,-135 -137,-135l-2933 0c-80,0 -137,56 -137,135z"/>
   <path class="fil24" d="M17021 6209l0 0 103 0c29,0 50,-1 65,-2 18,-1 31,-3 39,-6 18,-7 32,-19 42,-34 10,-15 15,-32 15,-51 0,-22 -6,-42 -19,-58 -13,-17 -30,-27 -51,-32 17,-6 30,-16 39,-30 10,-13 15,-28 15,-44 0,-16 -4,-31 -12,-44 -8,-13 -18,-23 -32,-30 -10,-6 -22,-10 -35,-13 -12,-1 -27,-2 -46,-2l-117 0 -6 0 0 30 0 316zm117 -316l0 0c34,0 58,4 73,12 16,10 24,26 24,50 0,23 -8,39 -25,48 -15,8 -40,13 -75,13l-81 0 0 -123 84 0zm-84 286l0 0 0 -134 104 0c30,0 53,6 69,18 16,12 24,29 24,52 0,23 -8,40 -24,50 -14,9 -38,14 -72,14l-101 0z"/>
   <path id="1" class="fil24" d="M17384 6208l0 0 74 0c30,0 55,-8 73,-26 17,-16 26,-35 26,-58 0,-23 -9,-43 -26,-59 -18,-17 -43,-26 -72,-26l-44 0 0 -92 -31 0 0 261zm31 -142l0 0 39 0c22,0 39,6 53,18 13,10 19,24 19,40 0,15 -6,28 -19,39 -14,12 -31,18 -53,18l-39 0 0 -115zm220 -119l0 0 0 261 31 0 0 -261 -31 0z"/>
   <path id="2" class="fil24" d="M17818 5947l0 0 0 21c0,46 -6,88 -19,126 -14,48 -37,86 -69,115l-3 66 21 0c2,-21 6,-37 12,-47 8,-13 21,-19 39,-19l153 0c16,0 30,5 41,16 12,11 21,28 29,50l17 0 -6 -66c-13,0 -24,-4 -33,-11 -10,-7 -14,-16 -14,-25l0 -226 -168 0zm31 30l0 0 106 0 0 202 -164 0c18,-22 32,-55 44,-98 9,-37 14,-72 14,-104z"/>
   <path id="3" class="fil24" d="M18113 6059l0 0c2,-28 10,-51 25,-67 15,-16 33,-24 56,-24 23,0 41,8 56,24 14,16 22,39 23,67l-160 0zm0 25l0 0 192 0 0 -10c0,-42 -10,-75 -30,-99 -20,-22 -46,-34 -80,-34 -35,0 -63,12 -83,36 -20,25 -30,59 -30,103 0,43 10,76 30,101 20,23 47,35 82,35 29,0 53,-8 72,-24 20,-16 31,-37 35,-64l-30 0c-3,19 -12,34 -25,45 -14,11 -30,16 -50,16 -25,0 -45,-9 -60,-28 -15,-19 -23,-45 -23,-77z"/>
   <path id="4" class="fil24" d="M18616 5947l0 0 -184 0 0 141c0,33 -7,57 -21,71 -13,13 -35,20 -65,21l12 29c29,-1 53,-10 72,-29 21,-20 32,-48 32,-84l0 -119 122 0 0 232 32 0 0 -262z"/>
   <polygon id="5" class="fil24" points="18910,5947 18910,5947 18910,5971 18752,6143 18752,5947 18721,5947 18721,6209 18752,6209 18752,6184 18910,6013 18910,6209 18941,6209 18941,5947 "/>
   <polygon id="6" class="fil24" points="19129,6209 19129,6209 19162,6209 19162,5977 19272,5977 19272,5947 19020,5947 19020,5977 19129,5977 "/>
   <path id="7" class="fil24" d="M19384 6057l0 0 39 0c22,0 39,6 52,17 13,11 19,26 19,44 0,18 -6,33 -19,44 -12,12 -30,18 -52,18l-39 0 0 -123zm-31 152l0 0 74 0c31,0 55,-9 73,-27 17,-17 26,-38 26,-63 0,-26 -9,-47 -26,-64 -18,-18 -42,-26 -72,-26l-44 0 0 -81 -31 0 0 261z"/>
   <path class="fil24" d="M17845 6675l0 0 104 0c28,0 50,0 64,-1 18,-2 31,-4 40,-7 18,-7 31,-18 42,-34 10,-15 15,-32 15,-51 0,-22 -7,-42 -19,-58 -13,-16 -30,-27 -51,-31 16,-7 29,-17 39,-31 9,-13 14,-28 14,-44 0,-16 -4,-31 -12,-44 -7,-12 -18,-22 -32,-30 -9,-6 -21,-10 -35,-12 -12,-2 -27,-3 -46,-3l-117 0 -6 0 0 30 0 316zm117 -316l0 0c35,0 59,5 73,13 16,9 24,25 24,49 0,23 -8,39 -25,49 -14,8 -39,12 -75,12l-81 0 0 -123 84 0zm-84 286l0 0 0 -134 104 0c31,0 54,6 70,18 16,12 24,29 24,52 0,24 -8,40 -24,50 -15,9 -39,14 -72,14l-102 0z"/>
   <path id="1" class="fil24" d="M18378 6587l0 0c-3,22 -12,39 -25,51 -14,12 -31,18 -51,18 -26,0 -47,-9 -62,-29 -16,-20 -24,-47 -24,-83 0,-35 8,-62 24,-82 15,-19 36,-28 62,-28 19,0 36,5 49,17 14,11 22,26 25,46l29 0c-2,-27 -12,-49 -31,-65 -19,-17 -43,-25 -72,-25 -36,0 -65,12 -85,37 -22,25 -32,59 -32,103 0,43 10,76 31,100 21,24 49,37 84,37 30,0 55,-9 75,-27 19,-17 30,-41 33,-70l-30 0z"/>
   <path id="2" class="fil24" d="M18510 6526l0 0c1,-29 10,-51 25,-68 14,-16 33,-24 56,-24 23,0 41,8 55,24 15,16 23,39 24,68l-160 0zm0 24l0 0 191 0 0 -10c0,-42 -10,-75 -29,-98 -20,-23 -46,-35 -80,-35 -35,0 -63,12 -83,36 -20,25 -31,59 -31,103 0,43 10,76 31,101 20,24 47,36 82,36 29,0 53,-9 72,-25 20,-16 31,-37 34,-64l-30 0c-3,19 -11,34 -25,45 -13,11 -29,16 -49,16 -25,0 -45,-9 -60,-28 -16,-19 -23,-44 -23,-77z"/>
  </g>
 </g>
</svg>