<?xml version="1.0" encoding="UTF-8"?>
<!DOCTYPE svg PUBLIC "-//W3C//DTD SVG 1.1//EN" "http://www.w3.org/Graphics/SVG/1.1/DTD/svg11.dtd">
<!-- Creator: CorelDRAW X6 -->
<svg xmlns="http://www.w3.org/2000/svg" xml:space="preserve" width="195.968mm" height="67.9096mm" version="1.1" style="shape-rendering:geometricPrecision; text-rendering:geometricPrecision; image-rendering:optimizeQuality; fill-rule:evenodd; clip-rule:evenodd"
viewBox="0 0 19954 6915"
 xmlns:xlink="http://www.w3.org/1999/xlink">
 <defs>
  <style type="text/css">
   <![CDATA[
    .str0 {stroke:#355E73;stroke-width:53.8752;stroke-linejoin:round}
    .fil0 {fill:#182633}
    .fil2 {fill:#FEFEFE}
    .fil3 {fill:#FF0033}
    .fil4 {fill:#FEFEFE;fill-rule:nonzero}
    .fil1 {fill:#FEFEFE;fill-rule:nonzero}
   ]]>
  </style>
 </defs>
 <g id="Layer_x0020_1">
  <metadata id="CorelCorpID_0Corel-Layer"/>
  <path class="fil0 str0" d="M6457 5774l0 970c0,84 59,144 144,144l6753 0c84,0 143,-60 143,-144l0 -970c0,-84 -59,-143 -143,-143l-6753 0c-85,0 -144,59 -144,143z"/>
  <path class="fil0 str0" d="M27 5774l0 970c0,84 60,144 144,144l3125 0c84,0 143,-60 143,-144l0 -970c0,-84 -59,-143 -143,-143l-3125 0c-84,0 -144,59 -144,143z"/>
  <path class="fil0 str0" d="M16551 5774l0 970c0,84 59,144 143,144l3090 0c84,0 143,-60 143,-144l0 -970c0,-84 -59,-143 -143,-143l-3090 0c-84,0 -143,59 -143,143z"/>
  <path class="fil0 str0" d="M3619 5774l0 970c0,84 60,144 144,144l2406 0c85,0 144,-60 144,-144l0 -970c0,-84 -59,-143 -144,-143l-2406 0c-84,0 -144,59 -144,143z"/>
  <path class="fil0 str0" d="M27 4373l0 970c0,84 60,144 144,144l2406 0c84,0 144,-60 144,-144l0 -970c0,-84 -60,-143 -144,-143l-2406 0c-84,0 -144,59 -144,143z"/>
  <path class="fil0 str0" d="M17269 4373l0 970c0,84 60,144 144,144l2371 0c84,0 143,-60 143,-144l0 -970c0,-84 -59,-143 -143,-143l-2371 0c-84,0 -144,59 -144,143z"/>
  <path class="fil0 str0" d="M17952 2972l0 970c0,84 59,144 143,144l1689 0c84,0 143,-60 143,-144l0 -970c0,-84 -59,-143 -143,-143l-1689 0c-84,0 -143,59 -143,143z"/>
  <path class="fil0 str0" d="M27 2972l0 970c0,84 60,144 144,144l1688 0c84,0 144,-60 144,-144l0 -970c0,-84 -60,-143 -144,-143l-1688 0c-84,0 -144,59 -144,143z"/>
  <path class="fil0 str0" d="M17952 171l0 970c0,84 59,143 143,143l1689 0c84,0 143,-59 143,-143l0 -970c0,-84 -59,-144 -143,-144l-1689 0c-84,0 -143,60 -143,144z"/>
  <path class="fil0 str0" d="M9366 2972l0 970c0,84 60,144 144,144l970 0c84,0 144,-60 144,-144l0 -970c0,-84 -60,-143 -144,-143l-970 0c-84,0 -144,59 -144,143z"/>
  <path class="fil0 str0" d="M10803 2972l0 970c0,84 60,144 144,144l970 0c84,0 144,-60 144,-144l0 -970c0,-84 -60,-143 -144,-143l-970 0c-84,0 -144,59 -144,143z"/>
  <path class="fil0 str0" d="M10803 171l0 970c0,84 60,143 144,143l970 0c84,0 144,-59 144,-143l0 -970c0,-84 -60,-144 -144,-144l-970 0c-84,0 -144,60 -144,144z"/>
  <path class="fil0 str0" d="M9366 171l0 970c0,84 60,143 144,143l970 0c84,0 144,-59 144,-143l0 -970c0,-84 -60,-144 -144,-144l-970 0c-84,0 -144,60 -144,144z"/>
  <path class="fil0 str0" d="M16551 2972l0 970c0,84 59,144 143,144l970 0c84,0 144,-60 144,-144l0 -970c0,-84 -60,-143 -144,-143l-970 0c-84,0 -143,59 -143,143z"/>
  <path class="fil0 str0" d="M15114 2972l0 970c0,84 59,144 144,144l969 0c85,0 144,-60 144,-144l0 -970c0,-84 -59,-143 -144,-143l-969 0c-85,0 -144,59 -144,143z"/>
  <path class="fil0 str0" d="M3619 2972l0 970c0,84 60,144 144,144l970 0c84,0 143,-60 143,-144l0 -970c0,-84 -59,-143 -143,-143l-970 0c-84,0 -144,59 -144,143z"/>
  <path class="fil0 str0" d="M5056 2972l0 970c0,84 60,144 144,144l969 0c85,0 144,-60 144,-144l0 -970c0,-84 -59,-143 -144,-143l-969 0c-84,0 -144,59 -144,143z"/>
  <path class="fil0 str0" d="M6493 2972l0 970c0,84 59,144 143,144l970 0c84,0 144,-60 144,-144l0 -970c0,-84 -60,-143 -144,-143l-970 0c-84,0 -143,59 -143,143z"/>
  <path class="fil0 str0" d="M7206 1572l0 969c0,85 60,144 144,144l970 0c84,0 144,-59 144,-144l0 -969c0,-85 -60,-144 -144,-144l-970 0c-84,0 -144,59 -144,144z"/>
  <path class="fil0 str0" d="M8643 1572l0 969c0,85 60,144 144,144l970 0c84,0 143,-59 143,-144l0 -969c0,-85 -59,-144 -143,-144l-970 0c-84,0 -144,59 -144,144z"/>
  <path class="fil0 str0" d="M17269 1572l0 969c0,85 60,144 144,144l970 0c84,0 143,-59 143,-144l0 -969c0,-85 -59,-144 -143,-144l-970 0c-84,0 -144,59 -144,144z"/>
  <path class="fil0 str0" d="M10096 4373l0 970c0,84 59,144 143,144l970 0c84,0 144,-60 144,-144l0 -970c0,-84 -60,-143 -144,-143l-970 0c-84,0 -143,59 -143,143z"/>
  <path class="fil0 str0" d="M8643 4373l0 970c0,84 60,144 144,144l970 0c84,0 143,-60 143,-144l0 -970c0,-84 -59,-143 -143,-143l-970 0c-84,0 -144,59 -144,143z"/>
  <path class="fil0 str0" d="M7217 4373l0 970c0,84 59,144 143,144l970 0c84,0 144,-60 144,-144l0 -970c0,-84 -60,-143 -144,-143l-970 0c-84,0 -143,59 -143,143z"/>
  <path class="fil0 str0" d="M7930 2972l0 970c0,84 59,144 143,144l970 0c84,0 144,-60 144,-144l0 -970c0,-84 -60,-143 -144,-143l-970 0c-84,0 -143,59 -143,143z"/>
  <path class="fil0 str0" d="M12240 2972l0 970c0,84 60,144 144,144l970 0c84,0 143,-60 143,-144l0 -970c0,-84 -59,-143 -143,-143l-970 0c-84,0 -144,59 -144,143z"/>
  <path class="fil0 str0" d="M13677 2972l0 970c0,84 60,144 144,144l970 0c84,0 143,-60 143,-144l0 -970c0,-84 -59,-143 -143,-143l-970 0c-84,0 -144,59 -144,143z"/>
  <path class="fil0 str0" d="M2182 2972l0 970c0,84 60,144 144,144l970 0c84,0 143,-60 143,-144l0 -970c0,-84 -59,-143 -143,-143l-970 0c-84,0 -144,59 -144,143z"/>
  <path class="fil0 str0" d="M3619 171l0 970c0,84 60,143 144,143l970 0c84,0 143,-59 143,-143l0 -970c0,-84 -59,-144 -143,-144l-970 0c-84,0 -144,60 -144,144z"/>
  <path class="fil0 str0" d="M5056 171l0 970c0,84 60,143 144,143l969 0c85,0 144,-59 144,-143l0 -970c0,-84 -59,-144 -144,-144l-969 0c-84,0 -144,60 -144,144z"/>
  <path class="fil0 str0" d="M6493 171l0 970c0,84 59,143 143,143l970 0c84,0 144,-59 144,-143l0 -970c0,-84 -60,-144 -144,-144l-970 0c-84,0 -143,60 -143,144z"/>
  <path class="fil0 str0" d="M15114 171l0 970c0,84 59,143 144,143l969 0c85,0 144,-59 144,-143l0 -970c0,-84 -59,-144 -144,-144l-969 0c-85,0 -144,60 -144,144z"/>
  <path class="fil0 str0" d="M16551 171l0 970c0,84 59,143 143,143l970 0c84,0 144,-59 144,-143l0 -970c0,-84 -60,-144 -144,-144l-970 0c-84,0 -143,60 -143,144z"/>
  <path class="fil0 str0" d="M15114 5774l0 970c0,84 59,144 144,144l969 0c85,0 144,-60 144,-144l0 -970c0,-84 -59,-143 -144,-143l-969 0c-85,0 -144,59 -144,143z"/>
  <path class="fil0 str0" d="M13677 5774l0 970c0,84 60,144 144,144l970 0c84,0 143,-60 143,-144l0 -970c0,-84 -59,-143 -143,-143l-970 0c-84,0 -144,59 -144,143z"/>
  <path class="fil0 str0" d="M745 171l0 970c0,84 60,143 144,143l970 0c84,0 144,-59 144,-143l0 -970c0,-84 -60,-144 -144,-144l-970 0c-84,0 -144,60 -144,144z"/>
  <path class="fil0 str0" d="M2182 171l0 970c0,84 60,143 144,143l970 0c84,0 143,-59 143,-143l0 -970c0,-84 -59,-144 -143,-144l-970 0c-84,0 -144,60 -144,144z"/>
  <path class="fil0 str0" d="M7930 171l0 970c0,84 59,143 143,143l970 0c84,0 144,-59 144,-143l0 -970c0,-84 -60,-144 -144,-144l-970 0c-84,0 -143,60 -143,144z"/>
  <path class="fil0 str0" d="M12240 171l0 970c0,84 60,143 144,143l970 0c84,0 143,-59 143,-143l0 -970c0,-84 -59,-144 -143,-144l-970 0c-84,0 -144,60 -144,144z"/>
  <path class="fil0 str0" d="M13677 171l0 970c0,84 60,143 144,143l970 0c84,0 143,-59 143,-143l0 -970c0,-84 -59,-144 -143,-144l-970 0c-84,0 -144,60 -144,144z"/>
  <path class="fil0 str0" d="M2896 1572l0 969c0,85 59,144 144,144l969 0c84,0 144,-59 144,-144l0 -969c0,-85 -60,-144 -144,-144l-969 0c-85,0 -144,59 -144,144z"/>
  <path class="fil0 str0" d="M11517 1572l0 969c0,85 60,144 144,144l969 0c85,0 144,-59 144,-144l0 -969c0,-85 -59,-144 -144,-144l-969 0c-84,0 -144,59 -144,144z"/>
  <path class="fil0 str0" d="M63 1572l0 969c0,85 59,144 144,144l969 0c85,0 144,-59 144,-144l0 -969c0,-85 -59,-144 -144,-144l-969 0c-85,0 -144,59 -144,144z"/>
  <path class="fil0 str0" d="M1459 1572l0 969c0,85 60,144 144,144l970 0c84,0 143,-59 143,-144l0 -969c0,-85 -59,-144 -143,-144l-970 0c-84,0 -144,59 -144,144z"/>
  <path class="fil0 str0" d="M18670 1572l0 969c0,85 60,144 144,144l970 0c84,0 143,-59 143,-144l0 -969c0,-85 -59,-144 -143,-144l-970 0c-84,0 -144,59 -144,144z"/>
  <path class="fil0 str0" d="M14401 1572l0 969c0,85 59,144 144,144l969 0c84,0 144,-59 144,-144l0 -969c0,-85 -60,-144 -144,-144l-969 0c-85,0 -144,59 -144,144z"/>
  <path class="fil0 str0" d="M12964 1572l0 969c0,85 60,144 144,144l970 0c84,0 143,-59 143,-144l0 -969c0,-85 -59,-144 -143,-144l-970 0c-84,0 -144,59 -144,144z"/>
  <path class="fil0 str0" d="M12964 4373l0 970c0,84 60,144 144,144l970 0c84,0 143,-60 143,-144l0 -970c0,-84 -59,-143 -143,-143l-970 0c-84,0 -144,59 -144,143z"/>
  <path class="fil0 str0" d="M14401 4373l0 970c0,84 59,144 144,144l969 0c84,0 144,-60 144,-144l0 -970c0,-84 -60,-143 -144,-143l-969 0c-85,0 -144,59 -144,143z"/>
  <path class="fil0 str0" d="M4333 1572l0 969c0,85 59,144 143,144l970 0c84,0 144,-59 144,-144l0 -969c0,-85 -60,-144 -144,-144l-970 0c-84,0 -143,59 -143,144z"/>
  <path class="fil0 str0" d="M5770 1572l0 969c0,85 59,144 143,144l970 0c84,0 144,-59 144,-144l0 -969c0,-85 -60,-144 -144,-144l-970 0c-84,0 -143,59 -143,144z"/>
  <path class="fil0 str0" d="M15838 1572l0 969c0,85 59,144 143,144l970 0c84,0 144,-59 144,-144l0 -969c0,-85 -60,-144 -144,-144l-970 0c-84,0 -143,59 -143,144z"/>
  <path class="fil0 str0" d="M10080 1572l0 969c0,85 60,144 144,144l970 0c84,0 143,-59 143,-144l0 -969c0,-85 -59,-144 -143,-144l-970 0c-84,0 -144,59 -144,144z"/>
  <path class="fil0 str0" d="M11522 4373l0 970c0,84 60,144 144,144l970 0c84,0 144,-60 144,-144l0 -970c0,-84 -60,-143 -144,-143l-970 0c-84,0 -144,59 -144,143z"/>
  <path class="fil0 str0" d="M15838 4373l0 970c0,84 59,144 143,144l970 0c84,0 144,-60 144,-144l0 -970c0,-84 -60,-143 -144,-143l-970 0c-84,0 -143,59 -143,143z"/>
  <path class="fil0 str0" d="M2901 4373l0 970c0,84 59,144 143,144l970 0c84,0 144,-60 144,-144l0 -970c0,-84 -60,-143 -144,-143l-970 0c-84,0 -143,59 -143,143z"/>
  <path class="fil0 str0" d="M4333 4373l0 970c0,84 59,144 143,144l970 0c84,0 144,-60 144,-144l0 -970c0,-84 -60,-143 -144,-143l-970 0c-84,0 -143,59 -143,143z"/>
  <path class="fil0 str0" d="M5770 4373l0 970c0,84 59,144 143,144l970 0c84,0 144,-60 144,-144l0 -970c0,-84 -60,-143 -144,-143l-970 0c-84,0 -143,59 -143,143z"/>
  <path class="fil0 str0" d="M63 171l0 970c0,210 539,210 539,0l0 -970c0,-74 -67,-122 -153,-144l-233 0c-87,22 -153,70 -153,144z"/>
  <path class="fil1" d="M309 665c18,-7 34,-11 48,-11 29,0 52,10 70,29 17,19 26,43 26,72 0,31 -11,57 -33,76 -21,20 -48,30 -80,30 -40,0 -72,-16 -96,-48 -21,-29 -32,-64 -32,-106 0,-46 11,-90 34,-132 23,-41 54,-72 94,-93 23,-12 46,-18 67,-18 27,0 40,12 40,36 0,16 -7,27 -20,34 -41,21 -68,37 -81,48 -24,21 -36,49 -37,83z"/>
  <path class="fil1" d="M1396 911l74 0c42,0 63,22 63,66 0,44 -21,66 -63,66l-299 0c-42,0 -63,-22 -63,-66 0,-44 21,-66 63,-66l80 0 0 -370c-36,0 -58,-2 -68,-4 -23,-7 -34,-23 -34,-50 0,-14 6,-26 19,-37 34,-29 90,-44 168,-44 14,0 25,1 31,3 14,4 23,19 27,46 1,7 2,27 2,61l0 395z"/>
  <path class="fil1" d="M1705 505c0,-14 5,-26 15,-36 10,-10 22,-15 36,-15 14,0 26,5 36,15 10,10 15,22 15,36 0,14 -5,27 -15,37 -10,10 -22,15 -36,15 -14,0 -26,-5 -36,-15 -10,-10 -15,-23 -15,-37zm96 -151c0,45 -15,68 -45,68 -31,0 -46,-23 -46,-68l0 -173c0,-45 15,-68 46,-68 30,0 45,23 45,68l0 173z"/>
  <path class="fil1" d="M2979 980c0,44 -34,66 -101,66l-255 0c-57,0 -86,-22 -86,-66 0,-18 10,-39 31,-62 35,-38 69,-76 103,-114 41,-46 74,-85 99,-118 27,-37 41,-68 41,-93 0,-18 -4,-32 -14,-43 -9,-11 -23,-17 -40,-17 -18,0 -33,8 -46,23 -7,9 -16,26 -26,49 -9,23 -17,39 -24,47 -9,12 -24,18 -42,18 -21,0 -38,-7 -51,-21 -13,-14 -20,-32 -20,-53 0,-17 4,-35 12,-57 14,-42 40,-76 78,-101 37,-26 78,-39 123,-39 58,0 106,16 143,49 39,34 59,81 59,138 0,52 -26,112 -78,180 -27,33 -73,83 -139,148l132 0c67,0 101,22 101,66z"/>
  <path class="fil1" d="M3175 218c20,0 36,5 48,14 5,-9 13,-14 22,-14 7,0 12,2 16,6 5,4 7,9 7,15l0 104c0,21 8,32 25,32 18,0 30,-8 37,-24 6,-14 9,-38 9,-69 0,-44 -16,-77 -48,-99 -28,-18 -65,-27 -111,-27 -51,0 -92,13 -120,40 -30,27 -45,67 -45,118 0,51 15,90 44,117 29,26 68,39 120,39 24,0 47,-3 71,-10 6,-3 13,-5 19,-7 8,-3 15,-4 20,-4 11,0 16,6 16,19 0,9 -12,17 -38,25 -17,5 -33,9 -50,11 -14,2 -26,3 -37,3 -60,0 -109,-17 -146,-51 -39,-35 -59,-83 -59,-142 0,-60 19,-108 58,-143 38,-35 87,-52 147,-52 31,0 59,3 83,11 36,11 64,29 84,55 22,26 32,58 32,95 0,86 -31,129 -95,129 -9,0 -19,-2 -30,-7 -10,-5 -17,-12 -21,-20 -18,18 -40,27 -67,27 -24,0 -44,-10 -60,-30 -14,-18 -21,-40 -21,-65 0,-26 8,-48 26,-67 17,-19 39,-29 64,-29zm-40 96c0,15 3,27 9,37 7,13 18,19 31,19 30,0 45,-20 45,-58 0,-37 -14,-55 -42,-55 -15,0 -26,6 -34,18 -6,10 -9,23 -9,39z"/>
  <path class="fil1" d="M4290 697c70,36 105,89 105,160 0,61 -23,110 -68,150 -43,36 -96,55 -157,55 -54,0 -103,-16 -147,-46 -48,-34 -72,-77 -72,-129 0,-17 6,-33 19,-47 12,-14 27,-21 44,-21 18,0 35,9 51,28 13,17 26,35 40,53 18,19 41,28 66,28 23,0 41,-8 55,-24 14,-15 21,-35 21,-57 0,-26 -9,-45 -28,-56 -12,-7 -33,-13 -63,-18 -40,-7 -60,-28 -60,-64 0,-19 6,-34 16,-44 9,-8 23,-14 44,-19 44,-10 66,-32 66,-65 0,-36 -17,-54 -51,-54 -25,0 -46,7 -64,21 -1,0 -14,13 -37,38 -13,14 -27,20 -41,20 -16,0 -31,-5 -42,-17 -12,-12 -17,-26 -17,-43 0,-17 5,-35 16,-53 17,-30 44,-54 81,-72 35,-17 70,-26 106,-26 51,0 96,16 133,49 37,32 56,73 56,124 0,51 -24,94 -72,129z"/>
  <path class="fil1" d="M4761 269l-11 49c21,0 34,0 39,1 14,4 20,13 20,28 0,20 -13,29 -38,29l-35 0 -12 56c-6,27 -18,41 -37,41 -24,0 -36,-12 -36,-36 0,-9 4,-29 12,-61l-65 0 -12 56c-6,27 -19,41 -38,41 -23,0 -35,-12 -35,-36 0,-9 3,-29 11,-61 -21,0 -34,0 -39,-2 -14,-3 -21,-12 -21,-27 0,-20 13,-29 40,-29l33 0 11 -49 -31 0c-26,0 -39,-10 -39,-30 0,-19 14,-29 40,-29l43 0 16 -71c6,-27 18,-41 36,-41 9,0 18,2 25,6 9,5 13,12 13,21 0,7 -1,16 -3,28l-13 57 65 0 16 -71c6,-27 18,-41 35,-41 10,0 18,2 25,6 9,5 13,12 13,21 0,9 -1,18 -3,28l-12 57c22,0 35,1 39,2 14,4 21,13 21,27 0,20 -13,30 -39,30l-34 0zm-74 0l-65 0 -11 49 65 0 11 -49z"/>
  <path class="fil1" d="M5766 900l0 72c0,51 -24,76 -70,76 -41,0 -61,-27 -61,-80l0 -68 -187 0c-26,0 -47,-7 -64,-20 -17,-14 -26,-33 -26,-58 0,-33 14,-73 43,-119l146 -231c28,-46 64,-69 107,-69 39,0 68,16 88,46 16,25 24,58 24,99l0 230c46,0 69,21 69,62 0,40 -23,60 -69,60zm-280 -122l149 0 0 -239 -149 239z"/>
  <path class="fil1" d="M6042 468c-29,-3 -52,-9 -68,-19 -15,-10 -23,-20 -23,-32 0,-10 3,-18 10,-23 7,-6 15,-9 25,-9 7,0 18,3 34,8 17,5 31,8 43,8 10,0 18,-3 25,-9 7,-6 11,-13 11,-23 0,-13 -5,-22 -15,-28 -9,-5 -22,-10 -40,-15 -29,-9 -49,-19 -63,-29 -17,-15 -26,-35 -26,-61 0,-25 8,-47 25,-65 15,-16 36,-27 62,-33l0 -22c0,-16 6,-24 18,-24 7,0 12,3 14,7 2,3 3,9 3,17l0 21c20,1 36,5 49,10 19,9 29,21 29,36 0,20 -11,30 -32,30 -7,0 -16,-1 -29,-5 -12,-4 -21,-5 -28,-5 -9,0 -17,2 -23,6 -8,5 -12,12 -12,21 0,5 2,10 4,14 4,4 12,9 25,14 10,3 19,6 29,9 57,19 86,51 86,95 0,28 -9,52 -27,71 -19,19 -42,30 -71,34l0 29c0,16 -5,24 -17,24 -12,0 -18,-8 -18,-24l0 -28z"/>
  <path class="fil1" d="M6974 618c22,-5 42,-8 61,-8 57,0 103,21 139,63 34,40 51,88 51,146 0,69 -23,126 -68,171 -45,46 -102,68 -171,68 -27,0 -53,-3 -79,-11 -31,-9 -57,-23 -80,-40 -28,-22 -42,-47 -42,-75 0,-17 5,-33 17,-45 11,-12 25,-18 42,-18 14,0 35,8 64,26 29,18 54,27 76,27 26,0 47,-9 64,-28 17,-19 26,-41 26,-67 0,-26 -7,-48 -21,-64 -13,-16 -33,-25 -59,-25 -13,0 -31,4 -53,12 -23,7 -40,11 -53,11 -36,0 -55,-21 -55,-62 0,-10 2,-26 4,-49l21 -164c4,-31 13,-52 27,-62 12,-9 34,-14 66,-14l175 0c61,0 92,22 92,66 0,44 -29,66 -87,66l-148 0 -9 76z"/>
  <path class="fil1" d="M7223 183c0,-22 8,-41 23,-58 15,-16 34,-24 56,-24 23,0 41,8 57,24 15,16 22,35 22,58 0,23 -7,42 -22,58 -16,16 -34,24 -57,24 -22,0 -41,-8 -56,-24 -15,-16 -23,-35 -23,-58zm53 0c0,7 3,13 8,19 5,5 11,8 18,8 8,0 14,-2 19,-8 6,-5 8,-12 8,-19 0,-8 -2,-14 -7,-19 -6,-5 -12,-8 -20,-8 -7,0 -13,3 -18,8 -5,5 -8,12 -8,19zm140 212c0,-22 8,-41 23,-57 15,-17 34,-25 56,-25 22,0 41,8 56,24 15,16 23,35 23,58 0,22 -8,42 -23,58 -15,16 -34,24 -56,24 -22,0 -41,-8 -56,-24 -15,-16 -23,-36 -23,-58zm53 0c0,7 2,13 7,19 6,5 12,8 19,8 8,0 14,-3 19,-8 5,-5 7,-11 7,-19 0,-8 -2,-14 -7,-19 -5,-5 -11,-8 -19,-8 -8,0 -14,3 -19,8 -5,5 -7,12 -7,19zm-163 86c-9,0 -16,-3 -21,-8 -6,-6 -9,-13 -9,-21 0,-8 4,-20 13,-35l166 -290c11,-19 23,-28 36,-28 20,0 30,8 30,25 0,9 -3,19 -10,31l-170 297c-11,20 -23,29 -35,29z"/>
  <path class="fil1" d="M8431 641c25,-3 42,-4 50,-4 53,0 96,21 131,63 33,39 49,85 49,139 0,64 -23,117 -69,159 -46,43 -101,64 -166,64 -65,0 -118,-22 -160,-65 -41,-43 -62,-97 -62,-163 0,-90 49,-197 147,-320 65,-80 112,-120 142,-120 18,0 34,6 48,19 14,13 21,29 21,47 0,15 -11,36 -33,63 -17,18 -33,37 -49,55 -17,18 -33,39 -49,63zm-80 200c0,24 7,44 23,62 15,18 35,27 58,27 23,0 42,-9 57,-27 16,-18 24,-38 24,-62 0,-23 -8,-44 -23,-61 -15,-17 -35,-25 -58,-25 -24,0 -43,8 -59,25 -15,17 -22,38 -22,61z"/>
  <path class="fil1" d="M8895 271l-69 42c-14,8 -26,12 -37,12 -11,0 -20,-4 -27,-12 -7,-8 -10,-18 -10,-29 0,-16 8,-31 23,-43l88 -68c10,-8 20,-12 32,-12 12,0 22,4 32,12l88 68c16,12 24,27 24,43 0,12 -4,22 -11,29 -7,8 -16,12 -27,12 -11,0 -23,-4 -37,-12l-69 -42z"/>
  <path class="fil1" d="M9907 544l-195 0c-57,0 -86,-22 -86,-66 0,-44 29,-65 87,-65l256 0c70,0 105,26 105,78 0,14 -5,32 -15,53l-208 450c-20,44 -45,67 -75,67 -20,0 -37,-7 -52,-20 -14,-14 -22,-31 -22,-51 0,-15 6,-36 19,-62l186 -384z"/>
  <path class="fil1" d="M10435 426c-27,23 -60,35 -100,35 -29,0 -54,-9 -74,-26 -21,-19 -31,-42 -31,-71 0,-41 24,-74 72,-97 -20,-22 -30,-43 -30,-65 0,-23 10,-42 29,-55 17,-13 38,-19 62,-19 25,0 46,7 63,20 19,14 28,33 28,57 0,32 -17,59 -53,81l43 51c11,-14 21,-25 28,-32 8,-7 16,-11 23,-11 8,0 15,3 20,9 5,6 7,13 7,21 0,13 -13,32 -40,58 10,11 16,18 18,21 6,10 10,18 10,26 0,8 -3,15 -9,21 -6,5 -13,8 -21,8 -11,0 -26,-11 -45,-32zm-37 -46l-58 -67c-26,12 -39,29 -39,50 0,12 4,22 11,29 8,8 18,12 31,12 18,0 37,-8 55,-24zm-35 -137c23,-9 35,-22 35,-38 0,-7 -4,-14 -10,-19 -7,-5 -14,-8 -21,-8 -8,0 -15,3 -21,8 -5,5 -8,11 -8,18 0,11 8,24 25,39z"/>
  <path class="fil1" d="M11136 700c-38,-34 -57,-76 -57,-126 0,-53 20,-97 62,-130 39,-32 85,-48 139,-48 55,0 102,16 140,47 41,34 62,77 62,131 0,50 -19,92 -58,126 57,36 85,88 85,157 0,61 -23,111 -69,150 -44,37 -97,56 -160,56 -62,0 -115,-19 -159,-56 -46,-39 -69,-89 -69,-150 0,-69 28,-122 84,-157zm59 144c0,23 8,44 25,63 17,18 37,27 60,27 25,0 46,-9 62,-27 16,-17 24,-39 24,-63 0,-26 -8,-47 -24,-65 -16,-18 -37,-27 -62,-27 -24,0 -44,9 -60,27 -17,18 -25,40 -25,65zm21 -257c0,17 6,32 19,46 13,13 28,20 45,20 18,0 34,-6 46,-19 13,-13 19,-29 19,-47 0,-19 -6,-35 -19,-48 -12,-13 -28,-20 -46,-20 -18,0 -33,7 -46,20 -12,13 -18,29 -18,48z"/>
  <path class="fil1" d="M11764 347c-9,7 -17,14 -26,22 -11,8 -22,13 -31,13 -8,0 -16,-4 -22,-11 -6,-7 -9,-15 -9,-23 0,-19 21,-35 63,-45 -42,-13 -63,-28 -63,-46 0,-8 3,-16 9,-23 6,-7 14,-11 22,-11 10,0 20,4 31,12 9,8 17,15 26,22 0,-3 -1,-11 -3,-23 -2,-9 -3,-17 -3,-23 0,-24 11,-36 32,-36 22,0 33,12 33,36 0,6 -1,14 -3,23 -2,11 -3,19 -4,23 9,-7 18,-14 27,-22 11,-8 21,-12 31,-12 8,0 16,4 22,10 6,7 9,15 9,24 0,18 -21,33 -64,46 43,11 64,26 64,45 0,9 -3,16 -9,23 -6,7 -14,11 -22,11 -9,0 -19,-5 -31,-13 -9,-8 -18,-15 -27,-22 1,4 2,12 4,23 2,9 3,17 3,23 0,24 -11,36 -33,36 -21,0 -32,-12 -32,-36 0,-5 1,-13 3,-23 2,-12 3,-20 3,-23z"/>
  <path class="fil1" d="M12791 610c0,-24 -8,-45 -23,-62 -16,-17 -35,-26 -58,-26 -23,0 -42,9 -58,26 -15,17 -23,38 -23,62 0,23 8,44 23,61 16,17 35,26 58,26 23,0 42,-9 58,-26 15,-17 23,-38 23,-61zm-80 200c-28,3 -43,4 -46,4 -53,0 -98,-20 -133,-60 -34,-39 -51,-85 -51,-139 0,-65 23,-119 68,-161 46,-43 102,-64 167,-64 66,0 119,21 160,64 40,42 61,97 61,163 0,91 -49,198 -148,321 -64,80 -111,120 -140,120 -18,0 -34,-7 -48,-20 -14,-14 -21,-29 -21,-47 0,-17 14,-41 41,-72 21,-23 51,-59 90,-109z"/>
  <path class="fil1" d="M13140 299c0,42 6,85 18,129 4,12 8,23 11,35 5,16 8,27 8,33 0,21 -11,32 -32,32 -16,0 -29,-12 -39,-37 -25,-57 -37,-122 -37,-192 0,-33 3,-65 9,-96 11,-60 25,-101 43,-122 6,-8 14,-12 24,-12 21,0 32,11 32,33 0,6 -3,17 -8,33 -3,11 -7,23 -11,34 -12,45 -18,88 -18,130z"/>
  <path class="fil1" d="M13877 729c0,-93 17,-169 52,-227 42,-71 107,-107 195,-107 88,0 153,36 195,106 35,58 53,134 53,228 0,94 -18,169 -53,227 -42,70 -107,106 -195,106 -87,0 -152,-36 -194,-106 -35,-58 -53,-134 -53,-227zm247 -202c-40,0 -70,25 -87,74 -13,35 -19,76 -19,127 0,50 6,93 19,127 17,50 46,75 87,75 42,0 71,-25 88,-75 12,-34 19,-77 19,-127 0,-134 -36,-201 -107,-201z"/>
  <path class="fil1" d="M14549 299c0,-44 -6,-87 -19,-130 -3,-11 -7,-23 -11,-35 -5,-17 -7,-28 -7,-32 0,-22 10,-33 32,-33 15,0 28,13 39,37 10,25 19,54 26,88 7,33 10,69 10,105 0,32 -3,64 -8,95 -12,61 -26,102 -43,122 -7,8 -15,12 -24,12 -22,0 -32,-11 -32,-32 0,-5 2,-16 7,-33 4,-12 8,-23 11,-35 13,-43 19,-86 19,-129z"/>
  <path class="fil1" d="M15540 798c-46,0 -69,-20 -69,-60 0,-40 23,-60 70,-60l179 0c46,0 70,20 70,61 0,39 -24,59 -71,59l-179 0z"/>
  <polygon class="fil1" points="15876,468 16216,468 16216,534 15876,534 "/>
  <path class="fil1" d="M16900 644c0,-12 4,-22 12,-31 8,-8 17,-13 29,-13l438 0c11,0 21,5 28,13 8,9 11,19 11,31 0,11 -3,21 -11,30 -7,8 -17,13 -28,13l-438 0c-12,0 -21,-5 -29,-13 -8,-9 -12,-19 -12,-30zm0 186c0,-12 4,-22 12,-31 8,-8 17,-12 29,-12l438 0c12,0 22,4 29,12 7,9 10,19 10,31 0,12 -3,22 -10,30 -7,8 -17,12 -29,12l-438 0c-12,0 -21,-4 -29,-12 -8,-9 -12,-19 -12,-30z"/>
  <path class="fil1" d="M17471 279l0 -137c0,-19 11,-28 32,-28 22,0 33,9 33,28l0 137 133 0c19,0 29,11 29,33 0,21 -10,31 -29,31l-133 0 0 138c0,19 -11,29 -33,29 -21,0 -32,-10 -32,-29l0 -138 -133 0c-19,0 -29,-10 -29,-31 0,-22 10,-33 29,-33l133 0z"/>
  <path class="fil1" d="M246 2050c0,-22 8,-41 24,-57 16,-15 34,-23 56,-23 23,0 42,7 57,23 16,16 23,34 23,57 0,22 -7,41 -23,57 -15,15 -34,23 -57,23 -22,0 -41,-8 -57,-23 -15,-16 -23,-35 -23,-57zm5 475c-15,0 -29,-6 -41,-16 -12,-11 -17,-25 -17,-40 0,-13 4,-28 13,-44l71 -128c18,-32 38,-48 61,-48 17,0 31,5 42,15 11,10 17,23 17,39 0,14 -5,29 -14,46l-70 128c-18,32 -38,48 -62,48z"/>
  <path class="fil1" d="M944 1922c0,-23 7,-42 23,-58 15,-15 34,-23 57,-23 23,0 42,7 57,23 15,15 23,35 23,58 0,22 -8,41 -23,57 -16,15 -35,23 -57,23 -23,0 -42,-8 -57,-23 -16,-16 -23,-35 -23,-57zm0 -269c0,-22 8,-41 23,-57 16,-16 35,-24 57,-24 22,0 41,8 57,24 15,15 23,34 23,57 0,22 -8,41 -23,57 -16,15 -35,23 -57,23 -23,0 -42,-8 -57,-23 -16,-16 -23,-35 -23,-57z"/>
  <path class="fil1" d="M2231 1959l-259 343c-24,32 -52,48 -83,48 -43,0 -65,-29 -65,-86l0 -457c0,-67 24,-101 72,-101 48,0 71,34 71,101l0 295 265 -350c24,-31 49,-46 76,-46 44,0 66,32 66,96l0 446c0,68 -24,102 -71,102 -48,0 -72,-34 -72,-102l0 -289zm-132 -284c-43,0 -78,-11 -105,-32 -27,-22 -40,-45 -40,-71 0,-33 15,-49 45,-49 18,0 32,10 45,29 13,19 31,29 55,29 24,0 43,-10 55,-29 13,-19 28,-29 44,-29 31,0 47,16 47,49 0,33 -17,59 -51,79 -28,16 -60,24 -95,24z"/>
  <path class="fil1" d="M3393 2213l250 0 0 -415c0,-68 24,-102 72,-102 47,0 71,34 71,102l0 415c50,0 74,21 74,62l0 114c0,43 -21,64 -63,64 -20,0 -35,-6 -47,-17 -11,-12 -17,-27 -17,-47l0 -56 -385 0c-65,0 -98,-34 -98,-102l0 -433c0,-68 24,-102 72,-102 47,0 71,34 71,102l0 415z"/>
  <path class="fil1" d="M4920 2458c-43,0 -64,-23 -64,-68 0,-15 3,-29 8,-42l40 -100 -177 -440c-5,-13 -8,-26 -8,-41 0,-21 6,-38 18,-52 12,-13 29,-19 50,-19 27,0 49,20 66,62l123 305 3 0 113 -300c9,-23 17,-38 25,-47 11,-13 27,-20 46,-20 44,0 66,22 66,66 0,17 -3,33 -9,49l-229 588c-9,20 -17,35 -26,43 -10,11 -26,16 -45,16z"/>
  <path class="fil1" d="M6175 2247l0 -441c0,-68 24,-102 72,-102 47,0 71,34 71,102l0 137 183 -188c33,-34 59,-51 78,-51 19,0 35,7 49,20 15,13 22,29 22,47 0,14 -7,28 -21,45 0,0 -12,12 -36,36l-144 143 192 217c24,27 36,50 36,70 0,17 -7,33 -20,46 -14,13 -29,20 -47,20 -23,0 -48,-17 -77,-50l-190 -220 -25 21 0 148c0,67 -24,101 -71,101 -48,0 -72,-34 -72,-101z"/>
  <path class="fil1" d="M7937 1709c68,0 102,22 102,67 0,44 -34,66 -102,66l-117 0 0 113 101 0c68,0 102,22 102,65 0,44 -34,66 -102,66l-101 0 0 120 122 0c68,0 102,22 102,66 0,44 -34,66 -102,66l-167 0c-37,0 -62,-6 -76,-18 -15,-13 -22,-37 -22,-72l0 -438c0,-38 7,-64 22,-79 14,-15 40,-22 77,-22l161 0z"/>
  <path class="fil1" d="M9152 2083l0 160c0,68 -24,102 -72,102 -48,0 -72,-34 -72,-102l0 -440c0,-68 24,-102 72,-102 48,0 72,34 72,102l0 148 263 0 0 -148c0,-68 24,-102 72,-102 48,0 72,34 72,102l0 440c0,68 -24,102 -72,102 -48,0 -72,-34 -72,-102l0 -160 -263 0z"/>
  <path class="fil1" d="M10554 2243l0 -433c0,-38 7,-64 22,-79 14,-15 40,-22 77,-22l162 0c67,0 101,22 101,67 0,44 -34,66 -101,66l-118 0 0 401c0,68 -23,102 -71,102 -48,0 -72,-34 -72,-102z"/>
  <path class="fil1" d="M12388 2218l0 -415c0,-68 24,-102 72,-102 48,0 71,34 71,102l0 433c0,68 -32,102 -98,102l-552 0c-65,0 -98,-34 -98,-102l0 -433c0,-68 24,-102 72,-102 47,0 71,34 71,102l0 415 167 0 0 -415c0,-31 4,-54 10,-68 10,-23 28,-34 54,-34 27,0 45,11 55,34 6,14 9,37 9,68l0 415 167 0z"/>
  <path class="fil1" d="M13813 2212l0 -416c0,-68 24,-102 72,-102 48,0 71,34 71,102l0 416 12 0c42,0 63,20 63,61l0 114c0,20 -5,35 -17,47 -11,11 -27,17 -46,17 -20,0 -35,-6 -47,-17 -11,-12 -17,-27 -17,-47l0 -56 -598 0c-65,0 -98,-34 -98,-101l0 -434c0,-68 24,-102 72,-102 47,0 71,34 71,102l0 416 167 0 0 -416c0,-31 4,-54 10,-68 10,-22 28,-34 54,-34 27,0 45,12 55,34 6,14 9,37 9,68l0 416 167 0z"/>
  <path class="fil1" d="M15165 2002l0 2c67,27 101,75 101,144 0,132 -82,197 -247,197 -53,0 -97,-6 -133,-18 -54,-18 -80,-47 -80,-88 0,-36 19,-54 59,-54 17,0 33,3 50,10 25,10 40,16 47,18 13,3 33,5 59,5 64,0 96,-25 96,-74 0,-21 -8,-39 -23,-54 -11,-12 -28,-19 -50,-21 -5,-1 -23,-1 -55,-1 -60,0 -89,-20 -89,-60 0,-18 8,-32 25,-44 12,-8 29,-14 50,-15 4,-1 21,-1 53,-1 22,0 40,-4 54,-13 18,-11 27,-26 27,-46 0,-45 -29,-68 -86,-68 -18,0 -41,4 -70,12 -28,8 -49,11 -64,11 -39,0 -59,-18 -59,-54 0,-12 5,-24 16,-35 34,-36 94,-54 180,-54 150,0 224,58 224,173 0,61 -28,103 -85,128z"/>
  <path class="fil1" d="M16274 2345c-16,0 -31,-6 -44,-19 -14,-12 -20,-27 -20,-43 0,-19 10,-43 32,-72l152 -207 -114 -167c-22,-31 -32,-54 -32,-71 0,-19 6,-35 19,-47 14,-12 30,-18 50,-18 25,0 50,18 74,55l87 132 91 -133c24,-36 50,-54 77,-54 17,0 31,6 44,19 12,12 19,26 19,43 0,18 -11,43 -33,74l-115 168 153 207c22,29 33,53 33,72 0,17 -7,31 -20,43 -13,12 -29,18 -46,18 -27,0 -53,-17 -78,-52l-127 -180 -127 179c-25,36 -50,53 -75,53z"/>
  <path class="fil1" d="M17891 2041l0 165 62 0c65,0 98,-27 98,-82 0,-55 -33,-83 -98,-83l-62 0zm-144 -205l-81 0c-43,0 -64,-21 -64,-63 0,-43 21,-64 64,-64l164 0c26,0 43,7 50,20 7,14 11,38 11,74l0 108 96 0c69,0 122,18 161,56 38,37 57,90 57,157 0,68 -21,121 -63,158 -42,38 -98,56 -166,56l-129 0c-38,0 -64,-7 -78,-22 -14,-15 -22,-41 -22,-79l0 -401z"/>
  <path class="fil1" d="M19208 2282c0,-21 8,-40 23,-55 15,-14 34,-22 55,-22 21,0 39,8 54,22 15,15 23,34 23,55 0,21 -8,39 -23,55 -15,15 -33,23 -54,23 -21,0 -40,-8 -55,-23 -15,-16 -23,-34 -23,-55zm10 -193l0 -56c0,-16 2,-28 7,-37 6,-11 20,-20 45,-27 31,-8 50,-16 59,-21 20,-13 29,-33 29,-61 0,-17 -5,-31 -17,-42 -12,-10 -27,-16 -45,-16 -27,0 -55,15 -83,45 -28,31 -51,46 -69,46 -17,0 -31,-7 -42,-20 -11,-13 -16,-28 -16,-45 0,-32 14,-62 41,-89 23,-23 51,-41 85,-54 26,-10 54,-15 84,-15 60,0 110,18 150,54 42,37 63,85 63,144 0,48 -14,89 -42,122 -27,33 -65,54 -113,63 0,60 -23,90 -69,90 -45,0 -67,-27 -67,-81z"/>
  <path class="fil1" d="M2822 3751c-32,0 -52,-12 -61,-36 -6,-14 -9,-39 -9,-76 -65,0 -111,-6 -140,-16 -43,-16 -77,-42 -102,-77 -24,-36 -36,-77 -36,-123 0,-47 11,-88 35,-123 24,-35 58,-61 102,-77 27,-11 74,-16 141,-16 0,-32 3,-56 10,-69 11,-21 31,-31 60,-31 30,0 50,10 60,31 7,13 11,37 11,69 66,0 113,5 141,16 44,16 77,42 101,77 24,35 36,76 36,123 0,46 -12,87 -37,123 -24,35 -58,61 -102,77 -28,10 -74,16 -139,16 0,37 -3,62 -9,76 -10,24 -31,36 -62,36zm68 -428l0 198 40 0c63,0 95,-33 95,-98 0,-67 -32,-100 -95,-100l-40 0zm-135 198l0 -198 -40 0c-64,0 -96,33 -96,100 0,65 32,98 96,98l40 0z"/>
  <path class="fil1" d="M4074 3435l0 166 46 0c66,0 98,-27 98,-82 0,-56 -32,-84 -98,-84l-46 0zm0 -130l75 0c69,0 122,19 161,56 39,37 58,90 58,158 0,68 -21,121 -64,160 -42,36 -97,54 -166,54l-107 0c-38,0 -64,-8 -78,-22 -14,-15 -22,-42 -22,-79l0 -434c0,-68 24,-102 72,-102 48,0 71,34 71,102l0 107zm518 333c0,68 -24,102 -73,102 -47,0 -71,-34 -71,-102l0 -441c0,-67 24,-101 71,-101 49,0 73,34 73,101l0 441z"/>
  <path class="fil1" d="M5576 3733c-36,0 -62,-6 -76,-19 -14,-12 -22,-36 -22,-72l0 -438c0,-37 8,-63 22,-78 14,-15 40,-22 78,-22l117 0c57,0 105,11 145,35 48,28 72,69 72,121 0,69 -25,115 -74,139l0 3c37,11 63,28 79,50 16,22 24,53 24,91 0,64 -22,113 -66,146 -39,29 -92,44 -158,44l-141 0zm46 -272l0 149 71 0c31,0 53,-4 68,-12 20,-11 30,-31 30,-59 0,-33 -10,-55 -29,-66 -14,-8 -38,-12 -71,-12l-69 0zm0 -235l0 123 62 0c28,0 48,-3 59,-10 16,-9 24,-27 24,-52 0,-41 -28,-61 -83,-61l-62 0z"/>
  <path class="fil1" d="M7142 3098c51,0 86,27 106,82l159 452c6,20 10,35 10,45 0,20 -7,35 -21,47 -14,13 -30,19 -50,19 -36,0 -61,-23 -76,-68l-23 -74 -222 0 -26 79c-14,42 -37,63 -69,63 -20,0 -37,-7 -49,-19 -13,-12 -19,-29 -19,-49 0,-14 2,-28 7,-41l163 -443c23,-62 60,-93 110,-93zm-4 156l-72 220 142 0 -69 -220 -1 0z"/>
  <path class="fil1" d="M8438 3230l0 408c0,68 -24,102 -72,102 -47,0 -71,-34 -71,-102l0 -433c0,-68 33,-101 98,-101l354 0c65,0 98,33 98,101l0 433c0,68 -24,102 -72,102 -47,0 -71,-34 -71,-102l0 -408 -264 0z"/>
  <path class="fil1" d="M9934 3401l62 0c65,0 98,-28 98,-84 0,-54 -33,-82 -98,-82l-62 0 0 166zm-72 339c-48,0 -72,-34 -72,-102l0 -434c0,-37 8,-63 22,-78 14,-15 40,-22 78,-22l129 0c69,0 125,18 165,54 44,38 65,91 65,159 0,68 -19,121 -59,158 -39,37 -92,56 -160,56l-96 0 0 108c0,67 -24,101 -72,101z"/>
  <path class="fil1" d="M11142 3425c0,-94 27,-171 79,-230 55,-62 129,-93 222,-93 94,0 168,31 222,92 53,59 80,136 80,231 0,94 -27,171 -80,230 -55,61 -129,91 -222,91 -93,0 -167,-31 -222,-92 -52,-59 -79,-135 -79,-229zm152 2c0,51 12,94 35,128 27,39 65,59 114,59 49,0 88,-19 115,-58 23,-35 35,-78 35,-129 0,-54 -11,-98 -34,-132 -27,-41 -65,-61 -116,-61 -51,0 -89,20 -116,61 -22,34 -33,78 -33,132z"/>
  <path class="fil1" d="M13027 3223l-153 0c-21,0 -32,12 -32,38l0 351c0,85 -42,128 -127,128 -76,0 -114,-22 -114,-66 0,-27 8,-44 22,-53 9,-5 24,-8 46,-9 19,0 32,-3 38,-9 5,-6 8,-19 8,-38l0 -304c0,-61 11,-104 34,-129 22,-24 64,-36 125,-36l225 0c47,0 71,34 71,101l0 441c0,68 -24,102 -71,102 -30,0 -50,-10 -61,-30 -7,-15 -11,-38 -11,-72l0 -415z"/>
  <path class="fil1" d="M14505 3733l-365 0 0 56c0,19 -6,35 -18,47 -11,11 -27,17 -47,17 -20,0 -35,-6 -46,-17 -11,-12 -17,-28 -17,-47l0 -115c0,-41 19,-61 56,-61 11,0 19,-9 25,-27 7,-17 10,-48 10,-92l0 -231c0,-49 13,-88 41,-116 28,-29 66,-43 115,-43l219 0c31,0 52,9 65,29 10,15 15,40 15,72l0 408c50,0 75,20 75,61l0 115c0,42 -22,64 -64,64 -20,0 -35,-6 -47,-17 -11,-12 -17,-28 -17,-47l0 -56zm-294 -120l203 0 0 -383 -152 0c-21,0 -32,12 -32,35l0 229c0,44 -6,83 -19,119z"/>
  <path class="fil1" d="M15687 3482l-12 -9 -186 224c-28,33 -53,49 -77,49 -17,0 -32,-7 -46,-20 -14,-14 -20,-29 -20,-46 0,-19 12,-42 36,-70l189 -221 -142 -140c-23,-22 -35,-34 -36,-36 -14,-16 -21,-31 -21,-44 0,-18 8,-33 22,-47 15,-13 31,-20 49,-20 19,0 45,17 79,51l165 169 0 -118c0,-68 22,-102 67,-102 27,0 45,11 56,33 6,15 10,37 10,68l0 119 165 -169c34,-34 60,-51 80,-51 18,0 35,7 49,20 14,13 21,29 21,47 0,13 -6,28 -20,44 -1,2 -13,14 -36,36l-142 140 189 221c24,28 36,51 36,70 0,17 -7,32 -20,46 -14,13 -29,20 -47,20 -24,0 -50,-16 -78,-48l-185 -225 -12 10 0 162c0,67 -22,101 -66,101 -45,0 -67,-34 -67,-101l0 -163z"/>
  <path class="fil1" d="M17056 3413c0,-38 23,-57 68,-57l165 0c-5,-37 -21,-66 -49,-88 -28,-21 -61,-32 -100,-32 -24,0 -47,5 -69,13 -21,8 -39,12 -54,12 -17,0 -31,-6 -42,-18 -12,-12 -17,-27 -17,-44 0,-12 4,-24 13,-36 32,-41 88,-61 170,-61 92,0 166,31 222,94 54,60 81,136 81,229 0,94 -26,170 -79,229 -55,61 -129,92 -222,92 -29,0 -55,-3 -78,-9 -29,-6 -54,-17 -75,-31 -27,-18 -40,-39 -40,-63 0,-16 5,-30 16,-43 11,-12 24,-19 40,-19 10,0 28,5 56,15 28,10 52,16 74,16 42,0 77,-13 104,-38 28,-25 44,-59 49,-100l-166 0c-45,0 -67,-21 -67,-61z"/>
  <path class="fil1" d="M3657 4809l0 -154 -68 0c-60,0 -90,25 -90,75 0,53 30,79 91,79l67 0zm143 -185l0 434c0,68 -24,102 -72,102 -48,0 -71,-34 -71,-102l0 -154 -168 209c-24,31 -50,47 -75,47 -19,0 -36,-6 -49,-18 -14,-12 -20,-27 -20,-45 0,-23 14,-50 42,-82l113 -126c-46,-7 -83,-26 -110,-56 -27,-30 -40,-67 -40,-113 0,-58 20,-105 61,-142 41,-36 101,-55 178,-55l112 0c38,0 64,8 78,22 14,15 21,41 21,79z"/>
  <path class="fil1" d="M4939 4813l73 0 0 -196c0,-68 24,-101 71,-101 48,0 72,33 72,100l0 442c0,68 -24,102 -72,102 -47,0 -71,-34 -71,-102l0 -117 -97 0c-67,0 -118,-19 -154,-55 -35,-37 -53,-89 -53,-157l0 -112c0,-68 24,-101 72,-101 48,0 71,33 71,101l0 112c0,34 7,56 19,67 12,12 35,17 69,17z"/>
  <path class="fil1" d="M6436 5162c-95,0 -170,-31 -227,-95 -54,-60 -81,-138 -81,-234 0,-94 28,-172 84,-235 57,-65 133,-97 226,-97 33,0 65,4 95,14 37,11 64,28 80,49 9,12 13,24 13,37 0,17 -6,31 -18,44 -12,13 -26,20 -43,20 -15,0 -34,-5 -56,-13 -22,-9 -45,-13 -70,-13 -52,0 -92,21 -119,62 -25,36 -37,81 -37,135 0,54 13,97 39,131 28,38 69,57 121,57 23,0 48,-5 77,-15 28,-11 47,-16 56,-16 17,0 30,7 41,20 12,12 17,27 17,43 0,14 -4,27 -14,40 -32,44 -93,66 -184,66z"/>
  <path class="fil1" d="M7832 4954l4 0 83 -354c5,-25 18,-45 36,-61 19,-15 41,-23 66,-23 29,0 53,9 74,27 21,19 33,42 38,71l69 429c3,21 5,37 5,48 0,46 -21,69 -64,69 -25,0 -44,-10 -55,-29 -8,-13 -14,-34 -19,-63l-54 -344 -3 0 -81 318c-8,33 -18,56 -29,71 -16,20 -39,29 -68,29 -29,0 -52,-9 -68,-29 -11,-14 -21,-38 -29,-71l-82 -318 -2 0 -53 344c-5,30 -11,51 -19,64 -12,18 -31,28 -56,28 -44,0 -65,-23 -65,-69 0,-7 2,-23 6,-48l69 -429c4,-29 17,-52 37,-71 21,-18 45,-27 74,-27 26,0 48,7 66,23 18,15 30,36 36,61l84 354z"/>
  <path class="fil1" d="M9396 4769l-260 343c-24,32 -52,48 -83,48 -43,0 -64,-29 -64,-86l0 -457c0,-67 23,-101 71,-101 48,0 72,34 72,101l0 295 264 -350c24,-31 49,-46 76,-46 44,0 67,32 67,96l0 446c0,68 -24,102 -72,102 -48,0 -71,-34 -71,-102l0 -289z"/>
  <path class="fil1" d="M10612 4657c-52,0 -84,-1 -97,-4 -38,-8 -57,-29 -57,-62 0,-45 33,-68 101,-68l249 0c68,0 102,23 102,68 0,33 -19,54 -58,62 -12,3 -44,4 -96,4l0 401c0,68 -24,102 -72,102 -48,0 -72,-34 -72,-102l0 -401z"/>
  <path class="fil1" d="M12041 4855l0 166 62 0c65,0 98,-27 98,-82 0,-56 -33,-84 -98,-84l-62 0zm0 -130l96 0c68,0 122,19 161,56 39,37 58,90 58,158 0,68 -22,121 -65,159 -41,37 -96,55 -165,55l-129 0c-38,0 -64,-8 -78,-23 -14,-15 -22,-41 -22,-78l0 -435c0,-67 24,-101 72,-101 48,0 72,34 72,101l0 108z"/>
  <path class="fil1" d="M13523 4855l0 166 62 0c66,0 98,-27 98,-82 0,-56 -32,-84 -98,-84l-62 0zm0 -130l97 0c68,0 122,19 160,56 39,37 59,90 59,158 0,68 -22,121 -65,159 -42,37 -97,55 -166,55l-129 0c-37,0 -63,-8 -78,-23 -14,-15 -21,-41 -21,-78l0 -428c0,-37 7,-63 21,-78 15,-15 41,-23 78,-23l224 0c69,0 103,23 103,68 0,44 -34,66 -103,66l-180 0 0 68z"/>
  <path class="fil1" d="M14819 4762l94 0c10,-76 36,-137 78,-181 45,-48 105,-72 180,-72 89,0 157,34 203,100 40,56 60,131 60,223 0,155 -52,255 -156,300 -33,14 -68,21 -107,21 -79,0 -141,-26 -187,-79 -42,-47 -66,-111 -73,-192l-92 0 0 170c0,68 -23,101 -71,101 -48,0 -72,-33 -72,-101l0 -441c0,-68 24,-102 72,-102 48,0 71,34 71,102l0 151zm353 -131c-31,0 -56,14 -76,43 -16,22 -27,51 -33,85 -3,21 -5,45 -5,72 0,49 7,91 22,127 19,49 50,74 92,74 42,0 73,-25 92,-74 14,-35 21,-78 21,-127 0,-66 -10,-115 -31,-149 -21,-34 -49,-51 -82,-51z"/>
  <path class="fil1" d="M16569 4523c68,0 101,23 101,68 0,44 -33,66 -101,66l-117 0 0 113 100 0c68,0 102,22 102,66 0,44 -34,66 -102,66l-100 0 0 119 121 0c68,0 102,22 102,66 0,44 -34,66 -102,66l-167 0c-36,0 -62,-6 -76,-19 -14,-12 -22,-36 -22,-72l0 -438c0,-37 8,-63 22,-78 14,-15 40,-23 78,-23l161 0zm45 -125c0,47 -20,70 -62,70 -20,0 -35,-6 -46,-20 -10,-13 -16,-30 -16,-50 0,-21 6,-38 16,-52 11,-13 26,-20 46,-20 42,0 62,24 62,72zm-152 0c0,47 -21,70 -62,70 -41,0 -61,-23 -61,-70 0,-48 20,-72 61,-72 41,0 62,24 62,72z"/>
  <path class="fil1" d="M14205 6260c0,-28 10,-52 30,-72 19,-20 43,-30 71,-30 28,0 52,10 71,29 19,20 29,44 29,73 0,28 -10,52 -29,71 -20,20 -43,30 -71,30 -28,0 -52,-10 -71,-30 -20,-19 -30,-43 -30,-71z"/>
  <path class="fil1" d="M15688 6503c-19,0 -36,-7 -51,-21 -15,-13 -22,-30 -22,-49 0,-16 5,-35 17,-55l88 -160c22,-40 48,-60 77,-60 21,0 38,6 52,19 14,12 21,29 21,49 0,17 -6,36 -17,57l-87 159c-23,41 -48,61 -78,61z"/>
  <path class="fil1" d="M4067 6511l0 -486 227 0c42,0 75,4 97,12 22,8 40,23 54,44 13,22 20,48 20,79 0,27 -5,51 -16,70 -10,20 -24,36 -43,48 -11,8 -27,14 -48,19 17,6 28,12 36,18 5,4 12,13 22,26 9,13 15,23 19,30l66 140 -154 0 -73 -148c-9,-19 -18,-32 -25,-38 -10,-7 -21,-11 -33,-11l-12 0 0 197 -137 0zm137 -288l57 0c7,0 19,-3 37,-7 9,-2 16,-7 22,-15 5,-9 8,-18 8,-29 0,-15 -4,-27 -13,-36 -9,-8 -26,-12 -51,-12l-60 0 0 99z"/>
  <path id="1" class="fil1" d="M4862 6511l-114 0 0 -57c-17,24 -34,40 -52,50 -17,10 -38,15 -64,15 -33,0 -60,-11 -79,-33 -19,-22 -28,-57 -28,-103l0 -224 123 0 0 194c0,22 4,38 11,47 7,9 18,14 31,14 15,0 26,-6 36,-18 9,-13 14,-35 14,-67l0 -170 122 0 0 352z"/>
  <polygon id="2" class="fil1" points="4913,6282 5092,6282 5092,6386 4913,6386 "/>
  <polygon id="3" class="fil1" points="5150,6025 5515,6025 5515,6129 5287,6129 5287,6206 5498,6206 5498,6305 5287,6305 5287,6401 5522,6401 5522,6511 5150,6511 "/>
  <path id="4" class="fil1" d="M5587 6159l114 0 0 57c17,-23 34,-40 52,-50 17,-10 39,-15 64,-15 33,0 60,11 79,33 19,22 29,57 29,103l0 224 -124 0 0 -194c0,-22 -3,-37 -11,-47 -7,-9 -17,-13 -31,-13 -14,0 -26,6 -36,18 -9,13 -13,35 -13,67l0 169 -123 0 0 -352z"/>
  <circle class="fil2" cx="1723" cy="3082" r="149"/>
  <circle class="fil3" cx="3836" cy="5860" r="149"/>
  <circle class="fil2" cx="6077" cy="5860" r="149"/>
  <g id="_653781624">
   <path class="fil1" d="M517 3300c-2,31 -13,55 -33,72 -19,18 -45,27 -77,27 -39,0 -69,-15 -92,-43 -22,-28 -33,-68 -33,-120 0,-51 11,-90 33,-118 22,-27 52,-40 91,-40 30,0 55,7 74,22 19,15 30,36 34,63l32 0c-2,-35 -16,-63 -41,-84 -25,-21 -58,-31 -99,-31 -49,0 -87,16 -115,49 -29,34 -43,80 -43,140 0,60 14,107 42,141 28,34 67,51 115,51 43,0 77,-12 102,-35 25,-23 39,-54 42,-94l-32 0z"/>
   <path id="1" class="fil1" d="M581 3419l35 0 41 -110 163 0 40 110 35 0 -137 -363 -40 0 -137 363zm87 -141l69 -187 71 187 -140 0z"/>
   <path id="2" class="fil1" d="M958 3419l33 0 0 -157 77 0c45,0 79,-8 101,-26 23,-17 34,-43 34,-77 0,-35 -10,-60 -30,-77 -20,-17 -49,-26 -89,-26l-126 0 0 363zm33 -187l0 -146 92 0c29,0 51,6 65,18 14,11 21,29 21,54 0,26 -8,46 -25,57 -16,11 -41,17 -75,17l-78 0z"/>
   <path id="3" class="fil1" d="M1266 3308l0 3c0,37 12,66 35,87 23,20 57,31 100,31 39,0 69,-10 91,-29 22,-19 33,-44 33,-76 0,-29 -9,-52 -27,-68 -17,-16 -46,-28 -86,-38l-42 -10c-22,-6 -38,-13 -47,-23 -9,-10 -14,-23 -14,-40 0,-21 7,-38 21,-50 14,-11 35,-17 62,-17 28,0 49,7 65,20 15,14 23,34 24,60l34 0c-1,-35 -12,-62 -33,-81 -21,-20 -51,-29 -89,-29 -36,0 -66,8 -87,27 -21,17 -31,41 -31,70 0,27 8,49 24,64 14,13 39,24 74,33l34 9c32,7 53,16 65,26 13,11 20,28 20,51 0,21 -8,38 -24,51 -16,13 -39,20 -67,20 -32,0 -57,-8 -75,-25 -17,-15 -26,-37 -26,-66l-34 0z"/>
   <polygon class="fil1" points="234,3826 453,3826 453,3796 267,3796 267,3463 234,3463 "/>
   <path id="1" class="fil1" d="M490 3645c0,59 14,105 43,140 29,34 66,51 113,51 48,0 86,-17 115,-51 29,-35 44,-81 44,-140 0,-59 -15,-105 -44,-140 -29,-33 -67,-50 -115,-50 -47,0 -85,17 -113,50 -29,35 -43,82 -43,140zm33 0c0,-49 11,-89 34,-118 23,-28 52,-42 89,-42 38,0 68,14 91,42 24,29 35,68 35,118 0,50 -11,90 -35,119 -23,28 -53,42 -91,42 -37,0 -67,-14 -89,-42 -23,-30 -34,-69 -34,-119z"/>
   <path id="2" class="fil1" d="M1140 3707c-3,31 -13,55 -33,72 -19,18 -45,27 -77,27 -39,0 -69,-14 -92,-42 -22,-29 -33,-69 -33,-120 0,-51 11,-90 33,-118 22,-27 52,-41 91,-41 30,0 55,8 74,23 19,15 30,36 34,62l32 0c-2,-35 -16,-62 -41,-83 -25,-22 -58,-32 -99,-32 -49,0 -87,16 -115,49 -29,34 -43,81 -43,140 0,60 14,107 42,141 28,34 66,51 115,51 43,0 77,-11 102,-34 25,-23 39,-55 42,-95l-32 0z"/>
   <polygon id="3" class="fil1" points="1246,3826 1278,3826 1278,3698 1339,3636 1483,3826 1525,3826 1361,3614 1507,3463 1465,3463 1278,3655 1278,3463 1246,3463 "/>
  </g>
  <polygon class="fil1" points="18171,3639 18414,3639 18414,3609 18203,3609 18203,3468 18390,3468 18390,3438 18203,3438 18203,3306 18408,3306 18408,3276 18171,3276 "/>
  <polygon id="1" class="fil1" points="18496,3639 18520,3639 18520,3332 18708,3639 18743,3639 18743,3276 18711,3276 18711,3581 18524,3276 18487,3276 18487,3639 "/>
  <polygon id="2" class="fil1" points="18915,3639 18948,3639 18948,3306 19061,3306 19061,3276 18803,3276 18803,3306 18915,3306 "/>
  <polygon id="3" class="fil1" points="19131,3639 19374,3639 19374,3609 19164,3609 19164,3468 19350,3468 19350,3438 19164,3438 19164,3306 19368,3306 19368,3276 19131,3276 "/>
  <path id="4" class="fil1" d="M19447 3639l33 0 0 -162 106 0c29,0 48,5 57,15 9,10 15,30 17,62l4 47c0,9 1,17 3,22 1,7 3,12 5,16l36 0 0 -5c-3,-3 -6,-7 -7,-13 -2,-5 -4,-12 -5,-21l-4 -54c-2,-27 -6,-45 -10,-55 -6,-14 -18,-23 -35,-29 18,-7 33,-18 43,-33 10,-15 15,-34 15,-56 0,-19 -4,-35 -12,-49 -7,-14 -18,-25 -32,-33 -12,-7 -26,-11 -42,-13 -11,-1 -29,-2 -52,-2l-120 0 0 363zm33 -192l0 -141 94 0c18,0 31,1 39,2 13,2 23,6 31,11 8,6 15,13 19,23 5,9 8,20 8,32 0,26 -8,45 -23,56 -15,11 -39,17 -72,17l-96 0z"/>
  <path class="fil1" d="M17921 4928l0 3c0,37 12,66 35,87 23,21 57,31 100,31 38,0 69,-10 91,-28 22,-19 33,-45 33,-77 0,-29 -9,-52 -27,-68 -17,-15 -46,-28 -86,-38l-42 -10c-22,-6 -38,-13 -47,-23 -10,-9 -14,-23 -14,-39 0,-22 7,-39 21,-50 14,-12 35,-18 62,-18 28,0 49,7 65,21 15,13 23,33 24,59l34 0c-1,-35 -12,-62 -33,-81 -21,-20 -51,-29 -89,-29 -37,0 -66,9 -87,27 -21,17 -31,41 -31,70 0,28 8,49 24,64 14,13 39,24 74,34l34 8c32,8 53,17 65,26 13,11 20,28 20,51 0,21 -8,38 -24,51 -16,13 -39,20 -67,20 -32,0 -57,-8 -75,-24 -17,-16 -26,-38 -26,-67l-34 0z"/>
  <polygon id="1" class="fil1" points="18258,5039 18290,5039 18290,4863 18497,4863 18497,5039 18530,5039 18530,4676 18497,4676 18497,4834 18290,4834 18290,4676 18258,4676 "/>
  <polygon id="2" class="fil1" points="18626,5039 18658,5039 18658,4676 18626,4676 "/>
  <polygon id="3" class="fil1" points="18751,5039 18784,5039 18784,4867 18962,4867 18962,4837 18784,4837 18784,4706 18979,4706 18979,4676 18751,4676 "/>
  <polygon id="4" class="fil1" points="19130,5039 19163,5039 19163,4706 19275,4706 19275,4676 19017,4676 19017,4706 19130,4706 "/>
  <path class="fil1" d="M697 4928l0 3c0,37 11,66 35,87 23,21 56,31 100,31 38,0 68,-10 91,-28 22,-19 33,-45 33,-77 0,-29 -9,-52 -27,-68 -18,-15 -46,-28 -86,-38l-43 -10c-21,-6 -37,-13 -46,-23 -10,-9 -15,-23 -15,-39 0,-22 7,-39 22,-50 14,-12 35,-18 61,-18 28,0 50,7 65,21 16,13 24,33 24,59l35 0c-1,-35 -12,-62 -33,-81 -21,-20 -51,-29 -89,-29 -37,0 -66,9 -87,27 -21,17 -32,41 -32,70 0,28 8,49 24,64 15,13 40,24 75,34l34 8c31,8 53,17 64,26 14,11 21,28 21,51 0,21 -9,38 -25,51 -16,13 -38,20 -66,20 -32,0 -57,-8 -75,-24 -17,-16 -26,-38 -26,-67l-34 0z"/>
  <polygon id="1" class="fil1" points="1033,5039 1066,5039 1066,4863 1273,4863 1273,5039 1306,5039 1306,4676 1273,4676 1273,4834 1066,4834 1066,4676 1033,4676 "/>
  <polygon id="2" class="fil1" points="1401,5039 1434,5039 1434,4676 1401,4676 "/>
  <polygon id="3" class="fil1" points="1527,5039 1559,5039 1559,4867 1738,4867 1738,4837 1559,4837 1559,4706 1755,4706 1755,4676 1527,4676 "/>
  <polygon id="4" class="fil1" points="1906,5039 1938,5039 1938,4706 2051,4706 2051,4676 1793,4676 1793,4706 1906,4706 "/>
  <g id="_653783952">
   <path class="fil1" d="M889 6108l0 0c-3,30 -14,53 -33,69 -20,17 -45,26 -78,26 -38,0 -69,-14 -91,-41 -22,-27 -33,-65 -33,-113 0,-48 11,-85 33,-112 22,-26 52,-39 91,-39 30,0 55,7 74,21 19,15 30,35 33,60l33 0c-2,-33 -16,-60 -41,-80 -25,-20 -58,-30 -99,-30 -49,0 -87,16 -115,47 -29,33 -43,77 -43,133 0,57 14,101 42,134 28,33 67,49 115,49 42,0 76,-11 102,-33 25,-22 39,-52 42,-91l-32 0z"/>
   <polygon id="1" class="fil1" points="1120,6222 1120,6222 1120,5907 1233,5907 1233,5877 975,5877 975,5907 1087,5907 1087,6222 "/>
   <polygon id="2" class="fil1" points="1303,6222 1303,6222 1546,6222 1546,6192 1336,6192 1336,6061 1522,6061 1522,6032 1336,6032 1336,5907 1540,5907 1540,5877 1303,5877 "/>
   <path id="3" class="fil1" d="M1638 6222l0 0 33 0 0 -150 77 0c45,0 79,-8 101,-24 23,-17 34,-41 34,-74 0,-32 -10,-56 -30,-73 -20,-16 -50,-24 -89,-24l-126 0 0 345zm33 -178l0 0 0 -138 92 0c29,0 51,5 65,16 14,11 21,28 21,52 0,25 -8,42 -25,53 -16,11 -41,17 -75,17l-78 0z"/>
   <polygon id="4" class="fil1" points="1974,6222 1974,6222 2217,6222 2217,6192 2007,6192 2007,6061 2193,6061 2193,6032 2007,6032 2007,5907 2211,5907 2211,5877 1974,5877 "/>
   <polygon id="5" class="fil1" points="2419,6222 2419,6222 2419,5907 2532,5907 2532,5877 2274,5877 2274,5907 2387,5907 2387,6222 "/>
   <path id="6" class="fil1" d="M2634 6193l0 0 0 -140 89 0c29,0 52,6 67,18 15,12 23,28 23,50 0,25 -8,43 -23,55 -15,11 -37,17 -67,17l-89 0zm-32 29l0 0 123 0c40,0 70,-9 91,-27 21,-17 31,-42 31,-74 0,-29 -10,-52 -31,-70 -22,-19 -52,-28 -91,-28l-90 0 0 -146 -33 0 0 345z"/>
   <path class="fil1" d="M1246 6640l0 0 103 0c29,0 51,-1 65,-2 18,-1 31,-3 39,-6 18,-7 32,-19 42,-34 10,-15 15,-32 15,-51 0,-22 -6,-42 -19,-58 -12,-16 -29,-27 -51,-31 17,-7 30,-17 40,-31 9,-13 14,-28 14,-44 0,-16 -4,-31 -12,-43 -7,-13 -18,-23 -32,-31 -10,-6 -22,-10 -35,-12 -12,-2 -27,-3 -46,-3l-117 0 -6 0 0 31 0 315zm117 -315l0 0c34,0 59,4 73,12 16,9 24,25 24,49 0,23 -8,39 -25,49 -15,8 -40,12 -75,12l-81 0 0 -122 84 0zm-84 285l0 0 0 -134 104 0c30,0 54,6 70,18 15,12 23,29 23,52 0,24 -8,40 -23,50 -15,9 -39,14 -73,14l-101 0z"/>
   <path id="1" class="fil1" d="M1858 6526l0 0c-2,30 -13,53 -33,69 -19,17 -45,26 -77,26 -38,0 -69,-14 -91,-41 -22,-27 -33,-65 -33,-113 0,-48 11,-86 32,-112 22,-26 53,-39 92,-39 30,0 54,7 73,21 19,15 31,35 34,60l33 0c-3,-33 -16,-60 -41,-80 -26,-20 -59,-31 -99,-31 -49,0 -88,16 -116,48 -28,32 -43,77 -43,133 0,56 14,101 43,134 28,33 66,49 115,49 42,0 76,-11 101,-34 26,-22 40,-52 43,-90l-33 0z"/>
   <polygon id="2" class="fil1" points="1980,6640 1980,6640 2222,6640 2222,6610 2012,6610 2012,6479 2199,6479 2199,6449 2012,6449 2012,6325 2217,6325 2217,6294 1980,6294 "/>
  </g>
  <g id="_653784960">
   <path class="fil1" d="M16844 6194l0 0 103 0c29,0 51,0 65,-1 18,-2 31,-4 40,-7 17,-7 31,-18 41,-34 10,-15 15,-32 15,-51 0,-22 -6,-41 -19,-58 -12,-16 -29,-27 -51,-31 17,-7 30,-17 40,-31 9,-13 14,-27 14,-43 0,-17 -4,-31 -12,-44 -7,-13 -18,-23 -32,-31 -10,-5 -21,-10 -35,-12 -12,-1 -27,-2 -46,-2l-117 0 -6 0 0 30 0 315zm117 -315l0 0c34,0 59,4 73,12 16,9 24,26 24,49 0,23 -8,40 -25,49 -15,8 -40,12 -75,12l-81 0 0 -122 84 0zm-84 285l0 0 0 -133 104 0c30,0 54,6 70,17 15,12 23,29 23,52 0,24 -8,40 -23,50 -15,9 -39,14 -73,14l-101 0z"/>
   <path id="1" class="fil1" d="M17230 6165l0 0 0 -140 90 0c29,0 51,6 67,18 15,12 22,28 22,50 0,25 -7,43 -22,55 -15,11 -38,17 -67,17l-90 0zm-32 29l0 0 123 0c40,0 70,-9 91,-27 21,-17 31,-42 31,-74 0,-29 -10,-52 -31,-70 -22,-19 -52,-28 -91,-28l-90 0 0 -146 -33 0 0 345zm292 0l0 0 33 0 0 -345 -33 0 0 345z"/>
   <path id="2" class="fil1" d="M17704 5849l0 0 0 20c0,53 -5,103 -17,150 -18,72 -48,130 -91,175l-3 71 22 0c1,-22 5,-38 11,-49 9,-15 21,-22 39,-22l202 0c16,0 29,6 41,17 12,12 21,30 29,54l18 0 -6 -71c-14,0 -25,-3 -35,-11 -9,-7 -13,-15 -13,-25l0 -309 -197 0zm34 29l0 0 129 0 0 286 -209 0c28,-40 49,-93 64,-158 10,-46 15,-89 16,-128z"/>
   <polygon id="3" class="fil1" points="18024,6194 18024,6194 18267,6194 18267,6164 18057,6164 18057,6033 18243,6033 18243,6004 18057,6004 18057,5879 18261,5879 18261,5849 18024,5849 "/>
   <path id="4" class="fil1" d="M18443 5849l0 0 0 137c0,55 -9,96 -27,123 -20,29 -54,48 -102,56l16 30c49,-13 85,-36 108,-68 25,-32 37,-77 37,-133l0 -114 122 0 0 314 34 0 0 -314 0 0 0 -31 -188 0z"/>
   <polygon id="5" class="fil1" points="18950,5849 18950,5849 18950,5870 18760,6123 18760,5849 18726,5849 18726,6194 18760,6194 18760,6172 18950,5918 18950,6194 18983,6194 18983,5849 "/>
   <polygon id="6" class="fil1" points="19206,6194 19206,6194 19206,5879 19319,5879 19319,5849 19061,5849 19061,5879 19174,5879 19174,6194 "/>
   <path id="7" class="fil1" d="M19421 6165l0 0 0 -140 89 0c29,0 51,6 67,18 15,12 22,28 22,50 0,25 -7,43 -22,55 -15,11 -37,17 -67,17l-89 0zm-32 29l0 0 122 0c40,0 71,-9 92,-27 20,-17 31,-42 31,-74 0,-29 -11,-52 -31,-70 -22,-19 -52,-28 -92,-28l-89 0 0 -146 -33 0 0 345z"/>
   <path class="fil1" d="M17799 6660l0 0 103 0c29,0 51,-1 65,-2 18,-1 31,-3 39,-6 18,-7 32,-19 42,-34 10,-15 15,-32 15,-51 0,-22 -6,-42 -19,-58 -13,-16 -30,-27 -51,-31 17,-7 30,-17 39,-31 10,-13 15,-28 15,-44 0,-16 -4,-31 -12,-43 -8,-13 -18,-23 -32,-31 -10,-6 -22,-10 -35,-12 -12,-2 -27,-3 -46,-3l-117 0 -6 0 0 31 0 315zm117 -315l0 0c34,0 58,4 73,12 16,9 24,25 24,49 0,23 -8,39 -25,48 -15,9 -40,13 -75,13l-81 0 0 -122 84 0zm-84 285l0 0 0 -134 104 0c30,0 53,6 69,18 16,12 24,29 24,52 0,23 -8,40 -24,50 -14,9 -38,14 -72,14l-101 0z"/>
   <path id="1" class="fil1" d="M18411 6546l0 0c-2,30 -13,53 -33,69 -19,17 -45,26 -77,26 -38,0 -69,-14 -91,-41 -22,-28 -34,-65 -34,-113 0,-48 11,-86 33,-112 22,-26 53,-40 92,-40 30,0 54,8 73,22 19,15 30,35 34,60l33 0c-3,-33 -16,-60 -41,-80 -26,-20 -59,-31 -99,-31 -49,0 -88,16 -116,48 -28,32 -43,77 -43,133 0,56 14,101 43,134 28,33 66,49 115,49 42,0 76,-11 101,-34 26,-22 40,-52 43,-90l-33 0z"/>
   <polygon id="2" class="fil1" points="18532,6660 18532,6660 18775,6660 18775,6630 18565,6630 18565,6499 18752,6499 18752,6469 18565,6469 18565,6345 18770,6345 18770,6314 18532,6314 "/>
  </g>
  <path class="fil4" d="M19710 705l-1045 0 20 90c-157,-66 -328,-114 -516,-139 182,-22 355,-67 516,-140l-20 90 1045 0 0 99z"/>
 </g>
</svg>
