<?xml version="1.0" encoding="UTF-8"?>
<!DOCTYPE svg PUBLIC "-//W3C//DTD SVG 1.1//EN" "http://www.w3.org/Graphics/SVG/1.1/DTD/svg11.dtd">
<!-- Creator: CorelDRAW X6 -->
<svg xmlns="http://www.w3.org/2000/svg" xml:space="preserve" width="196.353mm" height="68.5834mm" version="1.1" style="shape-rendering:geometricPrecision; text-rendering:geometricPrecision; image-rendering:optimizeQuality; fill-rule:evenodd; clip-rule:evenodd"
viewBox="0 0 19942 6966"
 xmlns:xlink="http://www.w3.org/1999/xlink">
 <defs>
  <style type="text/css">
   <![CDATA[
    .fil22 {fill:#FEFEFE}
    .fil23 {fill:#FF0033}
    .fil24 {fill:#F4F4F4;fill-rule:nonzero}
    .fil21 {fill:#FEFEFE;fill-rule:nonzero}
    .fil19 {fill:#FCB600;fill-rule:nonzero}
    .fil12 {fill:url(#id0)}
    .fil15 {fill:url(#id1)}
    .fil14 {fill:url(#id2)}
    .fil16 {fill:url(#id3)}
    .fil17 {fill:url(#id4)}
    .fil13 {fill:url(#id5)}
    .fil18 {fill:url(#id6)}
    .fil8 {fill:url(#id7)}
    .fil3 {fill:url(#id8)}
    .fil6 {fill:url(#id9)}
    .fil7 {fill:url(#id10)}
    .fil4 {fill:url(#id11)}
    .fil2 {fill:url(#id12)}
    .fil0 {fill:url(#id13)}
    .fil9 {fill:url(#id14)}
    .fil5 {fill:url(#id15)}
    .fil10 {fill:url(#id16)}
    .fil20 {fill:url(#id17)}
    .fil11 {fill:url(#id18)}
    .fil1 {fill:url(#id19)}
   ]]>
  </style>
  <linearGradient id="id0" gradientUnits="objectBoundingBox" x1="49.9997%" y1="0%" x2="49.9997%" y2="100%">
   <stop offset="0" style="stop-color:black"/>
   <stop offset="0.478431" style="stop-color:#777777"/>
   <stop offset="1" style="stop-color:black"/>
  </linearGradient>
  <linearGradient id="id1" gradientUnits="userSpaceOnUse" xlink:href="#id0" x1="18572.3" y1="4318.85" x2="18572.3" y2="5446.95">
  </linearGradient>
  <linearGradient id="id2" gradientUnits="userSpaceOnUse" xlink:href="#id0" x1="1382.91" y1="4318.85" x2="1382.91" y2="5446.95">
  </linearGradient>
  <linearGradient id="id3" gradientUnits="userSpaceOnUse" xlink:href="#id0" x1="4975.13" y1="5713.9" x2="4975.13" y2="6842">
  </linearGradient>
  <linearGradient id="id4" gradientUnits="userSpaceOnUse" xlink:href="#id0" x1="18207" y1="5713.9" x2="18207" y2="6842">
  </linearGradient>
  <linearGradient id="id5" gradientUnits="userSpaceOnUse" xlink:href="#id0" x1="1756.35" y1="5713.9" x2="1756.35" y2="6842">
  </linearGradient>
  <linearGradient id="id6" gradientUnits="userSpaceOnUse" xlink:href="#id0" x1="9975.19" y1="5713.9" x2="9975.19" y2="6842">
  </linearGradient>
  <linearGradient id="id7" gradientUnits="userSpaceOnUse" x1="4246.92" y1="6994.29" x2="5684.31" y2="5561.61">
   <stop offset="0" style="stop-color:#F4F4F4"/>
   <stop offset="0.65098" style="stop-color:#CACACA"/>
   <stop offset="1" style="stop-color:#F4F4F4"/>
  </linearGradient>
  <linearGradient id="id8" gradientUnits="userSpaceOnUse" xlink:href="#id7" x1="432.76" y1="4079.4" x2="1616.58" y2="2936.92">
  </linearGradient>
  <linearGradient id="id9" gradientUnits="userSpaceOnUse" xlink:href="#id7" x1="661.439" y1="5582.51" x2="2104.39" y2="4183.3">
  </linearGradient>
  <linearGradient id="id10" gradientUnits="userSpaceOnUse" xlink:href="#id7" x1="17875.5" y1="5579.61" x2="19269" y2="4186.19">
  </linearGradient>
  <linearGradient id="id11" gradientUnits="objectBoundingBox" xlink:href="#id7" x1="20.5456%" y1="96.2867%" x2="79.4544%" y2="3.71327%">
  </linearGradient>
  <linearGradient id="id12" gradientUnits="userSpaceOnUse" xlink:href="#id7" x1="29.4634" y1="1001.23" x2="663.703" y2="364.905">
  </linearGradient>
  <linearGradient id="id13" gradientUnits="objectBoundingBox" xlink:href="#id7" x1="13.9993%" y1="86.0007%" x2="86.0007%" y2="13.9993%">
  </linearGradient>
  <linearGradient id="id14" gradientUnits="userSpaceOnUse" xlink:href="#id7" x1="17405.4" y1="7079.6" x2="19008.7" y2="5476.3">
  </linearGradient>
  <linearGradient id="id15" gradientUnits="userSpaceOnUse" xlink:href="#id7" x1="729.78" y1="6859.41" x2="2794.35" y2="5696.49">
  </linearGradient>
  <linearGradient id="id16" gradientUnits="userSpaceOnUse" xlink:href="#id7" x1="8387.79" y1="7498.69" x2="11561.3" y2="5057.2">
  </linearGradient>
  <linearGradient id="id17" gradientUnits="userSpaceOnUse" xlink:href="#id7" x1="1042.74" y1="1045.1" x2="1757.8" y2="330.029">
  </linearGradient>
  <linearGradient id="id18" gradientUnits="userSpaceOnUse" xlink:href="#id0" x1="346.594" y1="468.723" x2="346.594" y2="897.41">
  </linearGradient>
  <radialGradient id="id19" gradientUnits="objectBoundingBox" cx="35.9999%" cy="52.0001%" r="50%" fx="35.9999%" fy="52.0001%">
   <stop offset="0" style="stop-color:#7B7B7B"/>
   <stop offset="0.988235" style="stop-color:black"/>
   <stop offset="1" style="stop-color:black"/>
  </radialGradient>
 </defs>
 <g id="Layer_x0020_1">
  <metadata id="CorelCorpID_0Corel-Layer"/>
  <circle class="fil0" cx="14270" cy="6278" r="688"/>
  <circle class="fil0" cx="15729" cy="6278" r="688"/>
  <circle class="fil1" cx="14270" cy="6278" r="623"/>
  <circle class="fil1" cx="15729" cy="6278" r="623"/>
  <rect class="fil2" x="85" y="62" width="523" height="1243" rx="201" ry="202"/>
  <path class="fil3" d="M389 2887l1271 0c197,0 359,158 359,352l0 538c0,194 -162,353 -359,353l-1271 0c-197,0 -358,-159 -358,-353l0 -538c0,-194 161,-352 358,-352z"/>
  <path class="fil4" d="M18275 66l1249 0c193,0 352,159 352,352l0 539c0,193 -159,352 -352,352l-1249 0c-194,0 -352,-159 -352,-352l0 -539c0,-193 158,-352 352,-352z"/>
  <path class="fil4" d="M18285 2856l1249 0c194,0 352,159 352,353l0 538c0,194 -158,352 -352,352l-1249 0c-193,0 -352,-158 -352,-352l0 -538c0,-194 159,-353 352,-353z"/>
  <path class="fil5" d="M405 5657l2714 0c196,0 357,158 357,352l0 538c0,194 -161,352 -357,352l-2714 0c-196,0 -357,-158 -357,-352l0 -538c0,-194 161,-352 357,-352z"/>
  <path class="fil6" d="M388 4261l1989 0c197,0 358,159 358,353l0 538c0,194 -161,352 -358,352l-1989 0c-196,0 -357,-158 -357,-352l0 -538c0,-194 161,-353 357,-353z"/>
  <path class="fil7" d="M17611 4261l1923 0c194,0 352,159 352,353l0 538c0,194 -158,352 -352,352l-1923 0c-194,0 -353,-158 -353,-352l0 -538c0,-194 159,-353 353,-353z"/>
  <path class="fil8" d="M3957 5657l2017 0c189,0 344,158 344,352l0 538c0,194 -155,352 -344,352l-2017 0c-189,0 -343,-158 -343,-352l0 -538c0,-194 154,-352 343,-352z"/>
  <path class="fil9" d="M16890 5657l2634 0c193,0 352,158 352,352l0 538c0,194 -159,352 -352,352l-2634 0c-193,0 -352,-158 -352,-352l0 -538c0,-194 159,-352 352,-352z"/>
  <path class="fil10" d="M6826 5657l6297 0c198,0 360,158 360,352l0 538c0,194 -162,352 -360,352l-6297 0c-198,0 -359,-158 -359,-352l0 -538c0,-194 161,-352 359,-352z"/>
  <rect class="fil11" x="142" y="119" width="408" height="1128" rx="145" ry="145"/>
  <path class="fil12" d="M392 2944l1265 0c167,0 303,134 303,298l0 533c0,163 -136,297 -303,297l-1265 0c-167,0 -303,-134 -303,-297l0 -533c0,-164 136,-298 303,-298z"/>
  <path class="fil12" d="M18278 124l1243 0c164,0 298,133 298,297l0 533c0,164 -134,298 -298,298l-1243 0c-164,0 -298,-134 -298,-298l0 -533c0,-164 134,-297 298,-297z"/>
  <path class="fil12" d="M18288 2914l1243 0c164,0 298,134 298,297l0 533c0,164 -134,298 -298,298l-1243 0c-164,0 -298,-134 -298,-298l0 -533c0,-163 134,-297 298,-297z"/>
  <path class="fil13" d="M407 5714l2698 0c166,0 301,134 301,297l0 533c0,164 -135,298 -301,298l-2698 0c-165,0 -301,-134 -301,-298l0 -533c0,-163 136,-297 301,-297z"/>
  <path class="fil14" d="M391 4319l1984 0c166,0 302,134 302,297l0 533c0,164 -136,298 -302,298l-1984 0c-166,0 -302,-134 -302,-298l0 -533c0,-163 136,-297 302,-297z"/>
  <path class="fil15" d="M17613 4319l1918 0c164,0 298,134 298,297l0 533c0,164 -134,298 -298,298l-1918 0c-163,0 -297,-134 -297,-298l0 -533c0,-163 134,-297 297,-297z"/>
  <path class="fil16" d="M3981 5714l1988 0c159,0 290,134 290,297l0 533c0,164 -131,298 -290,298l-1988 0c-159,0 -290,-134 -290,-298l0 -533c0,-163 131,-297 290,-297z"/>
  <path class="fil17" d="M16893 5714l2628 0c164,0 298,134 298,297l0 533c0,164 -134,298 -298,298l-2628 0c-164,0 -298,-134 -298,-298l0 -533c0,-163 134,-297 298,-297z"/>
  <path class="fil18" d="M6836 5714l6279 0c167,0 303,134 303,297l0 533c0,164 -136,298 -303,298l-6279 0c-167,0 -304,-134 -304,-298l0 -533c0,-163 137,-297 304,-297z"/>
  <path class="fil19" d="M364 714l0 79c0,12 -1,21 -4,27 -2,7 -6,12 -11,16 -5,3 -11,6 -19,7 -7,1 -16,2 -27,2 -10,0 -19,-1 -27,-2 -8,-1 -14,-4 -19,-7 -4,-4 -8,-9 -10,-16 -2,-6 -4,-15 -4,-27 0,-12 1,-24 2,-35 2,-11 4,-21 6,-31 3,-9 7,-19 12,-28 5,-10 11,-20 18,-30l86 -130c2,-3 5,-6 7,-8 3,-2 6,-4 10,-5 4,-2 9,-3 14,-4 5,0 12,-1 19,-1 8,0 14,0 19,1 5,1 8,2 10,3 3,2 4,4 4,6 0,3 -1,6 -3,9l-83 174z"/>
  <circle class="fil20" cx="1400" cy="688" r="688"/>
  <circle class="fil1" cx="1400" cy="688" r="623"/>
  <path class="fil19" d="M1206 545l-115 0 0 -50c86,-7 157,-23 214,-49l29 13 0 497c11,7 28,12 51,17 24,5 42,8 56,9l-2 41 -351 0 2 -41c51,-6 90,-14 116,-26l0 -411z"/>
  <path class="fil19" d="M1652 371c0,-67 -6,-121 -18,-161 3,-6 8,-11 16,-15 8,-5 17,-8 28,-8 22,0 37,5 46,15 9,9 13,22 13,38 0,17 -5,55 -16,116 -10,61 -17,105 -19,133l-55 11c3,-77 5,-120 5,-129zm21 267c-35,0 -52,-15 -52,-45 0,-30 17,-45 52,-45 34,0 51,15 51,45 0,30 -17,45 -51,45z"/>
  <circle class="fil0" cx="2833" cy="688" r="688"/>
  <circle class="fil1" cx="2833" cy="688" r="623"/>
  <path class="fil19" d="M2887 952l0 84 -390 0 0 -50c94,-91 159,-164 195,-221 37,-56 55,-114 55,-174 0,-59 -21,-89 -62,-89 -19,0 -34,8 -45,25 -11,17 -17,36 -17,57 0,21 6,39 18,55 -21,19 -43,29 -66,29 -23,0 -42,-7 -55,-20 -14,-12 -21,-31 -21,-56 0,-41 17,-74 51,-100 34,-26 80,-39 137,-39 43,0 79,7 109,22 56,29 85,76 85,143 0,46 -18,95 -53,147 -35,51 -92,114 -173,187l232 0z"/>
  <path class="fil19" d="M3155 399l0 84c0,8 2,14 4,19 3,5 7,7 11,7 5,0 10,-2 14,-8 5,-5 8,-12 10,-21 5,-15 7,-36 7,-62 0,-40 -11,-70 -33,-92 -22,-22 -52,-33 -90,-33 -39,0 -70,13 -94,40 -23,27 -35,62 -35,106 0,43 11,78 34,105 23,27 52,41 89,41 27,0 50,-5 68,-16l14 20c-24,15 -51,22 -82,22 -54,0 -96,-15 -128,-47 -31,-31 -47,-72 -47,-124 0,-51 17,-92 50,-124 34,-32 77,-47 130,-47 53,0 95,13 128,40 32,28 48,64 48,109 0,34 -8,62 -25,84 -16,21 -39,32 -68,32 -29,0 -48,-10 -56,-31 -17,19 -37,29 -59,29 -18,0 -31,-4 -40,-12 -9,-9 -14,-21 -14,-37 0,-34 26,-53 77,-57l33 -2 0 -23c0,-18 -3,-30 -7,-37 -4,-8 -12,-11 -23,-11 -6,0 -12,2 -16,6 -5,3 -7,8 -7,14 0,6 3,12 9,16 -1,6 -5,12 -10,16 -5,3 -11,5 -19,5 -7,0 -14,-2 -20,-8 -6,-5 -8,-12 -8,-20 0,-14 6,-25 19,-32 13,-8 30,-12 52,-12 56,0 84,20 84,61zm-113 80c0,19 8,28 22,28 12,0 24,-7 37,-22l0 -42 -20 1c-14,2 -23,5 -29,10 -6,6 -10,14 -10,25z"/>
  <circle class="fil0" cx="4265" cy="688" r="688"/>
  <circle class="fil1" cx="4265" cy="688" r="623"/>
  <path class="fil19" d="M4044 758l0 -53c84,-7 126,-43 126,-109 0,-65 -19,-98 -57,-98 -22,0 -37,8 -48,23 -11,15 -16,32 -16,52 0,20 4,38 12,53 -16,17 -36,25 -60,25 -24,0 -43,-6 -55,-20 -13,-14 -19,-33 -19,-59 0,-25 11,-48 33,-68 38,-36 88,-55 150,-55 61,0 110,14 145,41 35,27 53,62 53,106 0,65 -38,110 -113,135 47,10 80,27 99,50 19,24 29,56 29,96 0,51 -22,91 -66,120 -43,28 -92,42 -146,42 -55,0 -100,-10 -135,-32 -36,-21 -54,-50 -54,-86 0,-22 6,-38 19,-50 12,-12 28,-17 47,-17 20,0 39,7 59,23 -5,11 -7,25 -7,41 0,17 5,32 16,43 12,11 28,17 51,17 49,0 74,-34 74,-102 0,-37 -12,-66 -36,-87 -24,-21 -58,-31 -101,-31z"/>
  <path class="fil19" d="M4425 392l6 -41 50 0 18 -81 39 9 -16 72 55 0 17 -81 40 9 -16 72 58 0 -6 41 -61 0 -12 54 53 0 -6 40 -56 0 -19 88 -39 -9 17 -79 -54 0 -19 88 -40 -9 17 -79 -52 0 6 -40 55 0 12 -54 -47 0zm88 0l-12 54 55 0 12 -54 -55 0z"/>
  <circle class="fil0" cx="5697" cy="688" r="688"/>
  <circle class="fil1" cx="5697" cy="688" r="623"/>
  <path class="fil19" d="M5582 875l-247 0 -6 -29 242 -388 123 0 0 354 82 0 0 62 -82 0 0 102c18,11 43,19 75,23l-4 32 -267 0 5 -32c34,-4 60,-11 79,-23l0 -101zm0 -61l0 -236 -142 236 142 0z"/>
  <path class="fil19" d="M5848 528c0,-12 4,-21 11,-29 8,-7 18,-11 31,-11 12,0 22,6 28,17 -3,8 -5,16 -5,25 0,9 4,17 12,24 8,7 18,11 30,13l0 -118c-37,-14 -63,-28 -78,-44 -15,-15 -23,-35 -23,-60 0,-26 10,-47 28,-64 19,-17 43,-27 73,-30l0 -58 8 -5 27 4 0 59c26,3 49,10 67,22 18,12 27,27 27,43 0,11 -3,20 -9,27 -6,7 -15,10 -26,10 -12,0 -24,-5 -36,-15 8,-10 12,-19 12,-28 0,-17 -12,-27 -35,-32l0 105c35,17 60,33 75,50 15,17 23,39 23,65 0,27 -9,48 -27,66 -17,17 -41,27 -71,30l0 56 -6 6 -29 -5 0 -56c-71,-3 -107,-25 -107,-67zm74 -210c0,11 3,20 7,28 5,8 14,15 26,22l0 -89c-22,7 -33,19 -33,39zm68 245c17,-8 26,-22 26,-43 0,-20 -9,-38 -26,-51l0 94z"/>
  <circle class="fil0" cx="7130" cy="688" r="688"/>
  <circle class="fil1" cx="7130" cy="688" r="623"/>
  <path class="fil19" d="M6831 453c76,2 123,2 141,2 17,0 69,0 155,-1l25 18 -8 65 -237 0 0 144c28,-8 56,-11 84,-11 52,0 97,15 134,46 37,30 55,74 55,131 0,56 -19,102 -57,137 -37,34 -86,52 -144,52 -59,0 -106,-11 -141,-32 -36,-22 -53,-49 -53,-83 0,-22 6,-40 19,-52 12,-13 28,-19 49,-19 20,0 39,8 57,23 -5,12 -8,26 -8,42 0,16 6,31 17,43 11,12 28,18 51,18 52,0 78,-41 78,-123 0,-82 -30,-123 -89,-123 -33,0 -69,12 -109,36l-47 -46 0 -244 28 -23z"/>
  <path class="fil19" d="M7244 419c5,12 13,19 23,19 11,0 19,-7 24,-20 5,-12 7,-34 7,-64 0,-29 -2,-51 -7,-64 -5,-13 -13,-19 -24,-19 -10,0 -18,6 -23,19 -4,13 -7,34 -7,64 0,31 3,52 7,65zm85 13c-14,18 -35,27 -62,27 -26,0 -47,-9 -61,-27 -14,-18 -21,-44 -21,-77 0,-34 7,-60 21,-78 14,-17 35,-26 61,-26 27,0 48,9 62,26 14,18 21,44 21,78 0,33 -7,59 -21,77zm177 119c5,12 12,19 23,19 11,0 19,-7 24,-20 4,-13 7,-34 7,-64 0,-29 -3,-51 -7,-64 -5,-13 -13,-19 -24,-19 -11,0 -18,6 -23,19 -5,13 -7,34 -7,64 0,30 2,52 7,65zm85 13c-15,18 -35,27 -62,27 -27,0 -47,-9 -61,-27 -14,-18 -22,-44 -22,-77 0,-34 8,-60 22,-78 14,-18 34,-26 61,-26 27,0 47,8 62,26 14,18 21,44 21,78 0,33 -7,59 -21,77zm-257 37l-33 -16 161 -342 33 16 -161 342z"/>
  <circle class="fil0" cx="8562" cy="688" r="688"/>
  <circle class="fil1" cx="8562" cy="688" r="623"/>
  <path class="fil19" d="M8437 700c57,0 102,16 135,47 33,31 49,72 49,123 0,52 -19,93 -57,125 -39,31 -90,47 -154,47 -65,0 -115,-19 -152,-57 -36,-38 -54,-92 -54,-164 0,-90 29,-169 88,-235 59,-67 139,-113 238,-139l21 43c-64,27 -111,58 -142,91 -31,33 -53,81 -66,144 32,-17 63,-25 94,-25zm60 173c0,-35 -8,-63 -22,-83 -15,-19 -35,-29 -60,-29 -25,0 -52,9 -81,29l0 11c0,63 7,108 21,138 14,29 34,43 62,43 53,0 80,-36 80,-109z"/>
  <polygon class="fil19" points="8795,304 8863,304 8983,508 8928,540 8828,367 8730,540 8674,508 "/>
  <circle class="fil0" cx="9995" cy="688" r="688"/>
  <circle class="fil1" cx="9995" cy="688" r="623"/>
  <path class="fil19" d="M9831 458l196 -1 26 45 -213 530 -125 0 205 -498 -186 0c-6,23 -10,51 -12,84 -10,2 -21,2 -32,2 -12,0 -23,0 -33,-2 -3,-20 -8,-49 -15,-86 -6,-37 -10,-58 -10,-62l14 -13 185 1z"/>
  <path class="fil19" d="M10083 509c0,-42 19,-69 57,-82 -24,-11 -36,-30 -36,-57 0,-23 9,-41 28,-53 18,-13 40,-19 67,-19 29,0 53,7 70,21 11,8 16,17 16,28 0,11 -3,21 -10,28 -7,8 -15,12 -25,12 -10,0 -18,-4 -25,-11 4,-8 6,-16 6,-24 0,-8 -2,-14 -8,-19 -5,-5 -13,-8 -23,-8 -10,0 -18,4 -24,11 -6,8 -9,18 -9,30 0,12 3,22 9,31 5,8 14,12 27,12l0 36c-17,3 -31,9 -41,21 -11,11 -16,26 -16,45 0,19 6,34 18,45 12,11 27,17 45,17 27,0 48,-9 62,-26 14,-18 22,-40 22,-66 0,-17 -3,-34 -9,-51 -11,1 -16,8 -16,20 0,8 2,14 6,19 -7,6 -16,8 -25,8 -10,0 -17,-2 -23,-8 -5,-6 -8,-13 -8,-22 0,-30 25,-44 75,-44 14,0 24,-2 30,-5 6,-3 9,-8 9,-15 0,-7 -3,-13 -8,-18 7,-5 16,-8 25,-8 10,0 18,2 24,7 5,5 8,11 8,19 0,23 -18,37 -53,42 5,17 8,33 8,50 0,34 -12,63 -34,86 -22,23 -55,35 -97,35 -34,0 -63,-8 -87,-24 -23,-15 -35,-36 -35,-63z"/>
  <circle class="fil0" cx="11427" cy="688" r="688"/>
  <circle class="fil1" cx="11427" cy="688" r="623"/>
  <path class="fil19" d="M11467 592c0,24 -8,47 -26,71 -17,23 -39,42 -68,57 36,17 64,37 84,60 21,23 31,53 31,89 0,52 -19,94 -57,124 -38,31 -90,46 -158,46 -67,0 -120,-14 -158,-42 -38,-28 -57,-68 -57,-120 0,-27 8,-54 26,-81 17,-26 41,-50 72,-71 -55,-30 -82,-72 -82,-126 0,-46 18,-82 53,-109 36,-27 84,-41 144,-41 60,0 107,13 143,39 35,26 53,61 53,104zm-156 202c-23,-12 -48,-23 -76,-33 -33,25 -50,62 -50,111 0,33 8,60 25,79 17,19 39,29 68,29 28,0 50,-10 66,-28 16,-19 23,-45 23,-78 0,-33 -19,-60 -56,-80zm-42 -284c-22,0 -40,8 -53,22 -13,15 -20,34 -20,57 0,23 9,42 26,56 17,14 41,28 74,42 14,-10 26,-24 34,-41 9,-17 13,-37 13,-59 0,-22 -6,-40 -20,-55 -13,-14 -31,-22 -54,-22z"/>
  <path class="fil19" d="M11675 494c-6,9 -12,13 -19,13 -8,0 -14,-3 -18,-7 -5,-5 -8,-10 -8,-17 0,-6 3,-11 7,-15 4,-4 11,-10 20,-16 8,-7 16,-15 22,-25 -12,2 -24,5 -36,10 -12,6 -21,8 -26,8 -6,0 -11,-2 -15,-6 -4,-5 -6,-11 -6,-17 0,-7 2,-13 6,-17 4,-5 9,-7 15,-7 5,0 14,3 26,9 12,5 25,9 37,10 -6,-9 -14,-17 -23,-24 -9,-6 -15,-12 -20,-16 -4,-5 -7,-10 -7,-16 0,-7 3,-12 8,-17 4,-4 11,-6 19,-6 8,0 13,2 16,8 3,5 5,15 6,28 2,14 5,26 10,37 7,-15 11,-33 13,-53 1,-14 8,-20 22,-20 7,0 13,2 17,6 5,5 7,11 7,19 0,7 -7,16 -20,25 -12,9 -22,19 -29,28 11,-1 23,-4 36,-10 12,-5 21,-8 27,-8 5,0 10,2 15,7 4,4 6,10 6,17 0,6 -2,12 -6,17 -5,4 -10,6 -16,6 -5,0 -14,-2 -27,-8 -13,-5 -25,-8 -36,-10 7,10 15,18 24,24 9,7 15,12 19,16 5,4 7,9 7,16 0,7 -3,12 -7,17 -5,4 -12,7 -20,7 -8,0 -14,-3 -16,-7 -2,-5 -4,-14 -5,-28 -1,-14 -5,-27 -11,-39 -5,11 -8,24 -10,37 -1,13 -2,21 -4,24z"/>
  <circle class="fil0" cx="12859" cy="688" r="688"/>
  <circle class="fil1" cx="12859" cy="688" r="623"/>
  <path class="fil19" d="M12679 788c-57,0 -103,-15 -136,-46 -33,-31 -49,-72 -49,-124 0,-51 19,-92 58,-124 38,-31 89,-47 154,-47 64,0 115,19 151,57 37,37 55,92 55,164 0,90 -30,168 -89,235 -59,67 -138,113 -238,139l-21 -43c64,-28 111,-58 142,-91 31,-34 53,-81 67,-144 -33,16 -64,24 -94,24zm-60 -173c0,36 7,64 22,83 14,20 34,30 59,30 26,0 53,-10 81,-29l0 -11c0,-63 -7,-109 -20,-138 -14,-29 -35,-44 -62,-44 -53,0 -80,37 -80,109z"/>
  <path class="fil19" d="M13062 503c-9,-25 -14,-52 -14,-81 0,-28 5,-55 14,-80 9,-26 20,-47 33,-64 27,-35 50,-59 70,-72l14 -8 13 12c-57,54 -85,125 -85,212 0,87 28,157 85,212l-13 13c-11,-6 -25,-17 -42,-33 -18,-16 -32,-32 -43,-48 -12,-16 -22,-37 -32,-63z"/>
  <circle class="fil0" cx="14292" cy="688" r="688"/>
  <circle class="fil1" cx="14292" cy="688" r="623"/>
  <path class="fil19" d="M14070 934c13,38 34,57 63,57 30,0 51,-19 64,-57 13,-38 19,-102 19,-191 0,-88 -6,-152 -19,-191 -13,-39 -34,-58 -64,-58 -29,0 -50,19 -63,58 -13,38 -19,102 -19,191 0,89 6,153 19,191zm218 28c-36,51 -87,76 -155,76 -67,0 -118,-25 -154,-76 -36,-50 -54,-123 -54,-218 0,-95 18,-168 54,-218 36,-51 87,-76 154,-76 68,0 119,25 155,75 36,51 54,123 54,218 0,96 -18,169 -54,219z"/>
  <path class="fil19" d="M14479 634c56,-55 84,-125 84,-212 0,-87 -28,-158 -84,-212l12 -12c29,17 56,42 79,73 35,46 52,96 52,151 0,41 -9,78 -26,111 -16,30 -34,54 -54,73 -19,18 -33,30 -44,36l-7 5 -12 -13z"/>
  <circle class="fil0" cx="15724" cy="688" r="688"/>
  <circle class="fil1" cx="15724" cy="688" r="623"/>
  <polygon class="fil19" points="15514,765 15514,683 15713,683 15713,765 "/>
  <polygon class="fil19" points="16100,554 15861,554 15861,506 16100,506 "/>
  <circle class="fil0" cx="17157" cy="688" r="688"/>
  <circle class="fil1" cx="17157" cy="688" r="623"/>
  <path class="fil19" d="M16880 884l0 -82 403 0 0 82 -403 0zm0 -161l0 -82 403 0 0 82 -403 0z"/>
  <polygon class="fil19" points="17279,453 17279,392 17378,392 17378,291 17442,291 17442,392 17543,392 17543,453 17442,453 17442,554 17378,554 17378,453 "/>
  <circle class="fil0" cx="688" cy="2093" r="688"/>
  <circle class="fil1" cx="688" cy="2093" r="623"/>
  <path class="fil19" d="M374 2084c0,-44 20,-66 60,-66 40,0 60,22 60,66 0,43 -20,65 -60,65 -20,0 -35,-6 -45,-17 -10,-12 -15,-28 -15,-48zm5 310c-12,-12 -19,-26 -19,-42 0,-16 6,-30 17,-41 11,-12 27,-17 47,-17 21,0 37,7 49,20 12,13 18,32 18,55 0,69 -36,124 -107,166l-25 -31c18,-13 33,-27 43,-44 11,-16 17,-32 17,-47 0,-15 -8,-23 -23,-23 -4,0 -10,2 -17,4z"/>
  <path class="fil19" d="M872 2058c0,-44 20,-66 60,-66 40,0 60,22 60,66 0,44 -20,66 -60,66 -20,0 -35,-6 -45,-18 -10,-12 -15,-28 -15,-48zm0 -271c0,-44 20,-66 60,-66 40,0 60,22 60,66 0,44 -20,66 -60,66 -20,0 -35,-6 -45,-18 -10,-12 -15,-28 -15,-48z"/>
  <circle class="fil0" cx="2116" cy="2093" r="688"/>
  <circle class="fil1" cx="2116" cy="2093" r="623"/>
  <circle class="fil0" cx="3544" cy="2093" r="688"/>
  <circle class="fil1" cx="3544" cy="2093" r="623"/>
  <circle class="fil0" cx="4972" cy="2093" r="688"/>
  <circle class="fil1" cx="4972" cy="2093" r="623"/>
  <circle class="fil0" cx="6400" cy="2093" r="688"/>
  <circle class="fil1" cx="6400" cy="2093" r="623"/>
  <circle class="fil0" cx="7829" cy="2093" r="688"/>
  <circle class="fil1" cx="7829" cy="2093" r="623"/>
  <circle class="fil0" cx="9257" cy="2093" r="688"/>
  <circle class="fil1" cx="9257" cy="2093" r="623"/>
  <circle class="fil0" cx="10685" cy="2093" r="688"/>
  <circle class="fil1" cx="10685" cy="2093" r="623"/>
  <circle class="fil0" cx="12113" cy="2093" r="688"/>
  <circle class="fil1" cx="12113" cy="2093" r="623"/>
  <circle class="fil0" cx="13542" cy="2093" r="688"/>
  <circle class="fil1" cx="13542" cy="2093" r="623"/>
  <circle class="fil0" cx="14970" cy="2093" r="688"/>
  <circle class="fil1" cx="14970" cy="2093" r="623"/>
  <circle class="fil0" cx="16398" cy="2093" r="688"/>
  <circle class="fil1" cx="16398" cy="2093" r="623"/>
  <circle class="fil0" cx="17826" cy="2093" r="688"/>
  <circle class="fil1" cx="17826" cy="2093" r="623"/>
  <circle class="fil0" cx="19255" cy="2093" r="688"/>
  <circle class="fil1" cx="19255" cy="2093" r="623"/>
  <path class="fil19" d="M19194 2187l0 -4c0,-12 2,-22 4,-31 3,-9 8,-19 15,-31 7,-12 17,-29 31,-49 17,-24 28,-46 36,-66 7,-20 10,-40 10,-60 0,-20 -2,-37 -7,-48 -5,-12 -11,-20 -19,-24 -7,-5 -16,-7 -26,-7 -17,0 -30,6 -40,18 -9,12 -16,30 -19,52l-72 0 0 -72c34,-15 61,-25 83,-30 21,-5 43,-8 66,-8 34,0 62,5 84,14 22,9 38,22 47,38 10,16 15,34 15,54 0,13 -2,26 -5,37 -3,11 -8,23 -15,34 -7,11 -15,23 -26,36 -10,12 -25,29 -45,50 -13,13 -23,25 -29,35 -7,10 -11,19 -14,28 -3,9 -4,19 -4,30l0 4 -70 0zm88 55l0 117 -104 0 0 -117 104 0z"/>
  <circle class="fil0" cx="2824" cy="3480" r="688"/>
  <circle class="fil1" cx="2824" cy="3480" r="623"/>
  <circle class="fil0" cx="4258" cy="3480" r="688"/>
  <circle class="fil1" cx="4258" cy="3480" r="623"/>
  <circle class="fil0" cx="5691" cy="3480" r="688"/>
  <circle class="fil1" cx="5691" cy="3480" r="623"/>
  <circle class="fil0" cx="7125" cy="3480" r="688"/>
  <circle class="fil1" cx="7125" cy="3480" r="623"/>
  <circle class="fil0" cx="8558" cy="3480" r="688"/>
  <circle class="fil1" cx="8558" cy="3480" r="623"/>
  <circle class="fil0" cx="9991" cy="3480" r="688"/>
  <circle class="fil1" cx="9991" cy="3480" r="623"/>
  <circle class="fil0" cx="11425" cy="3480" r="688"/>
  <circle class="fil1" cx="11425" cy="3480" r="623"/>
  <circle class="fil0" cx="12858" cy="3480" r="688"/>
  <circle class="fil1" cx="12858" cy="3480" r="623"/>
  <circle class="fil0" cx="14292" cy="3480" r="688"/>
  <circle class="fil1" cx="14292" cy="3480" r="623"/>
  <circle class="fil0" cx="15725" cy="3480" r="688"/>
  <circle class="fil1" cx="15725" cy="3480" r="623"/>
  <circle class="fil0" cx="17158" cy="3480" r="688"/>
  <circle class="fil1" cx="17158" cy="3480" r="623"/>
  <circle class="fil0" cx="3523" cy="4883" r="688"/>
  <circle class="fil1" cx="3523" cy="4883" r="623"/>
  <circle class="fil0" cx="4959" cy="4883" r="688"/>
  <circle class="fil1" cx="4959" cy="4883" r="623"/>
  <circle class="fil0" cx="6395" cy="4883" r="688"/>
  <circle class="fil1" cx="6395" cy="4883" r="623"/>
  <circle class="fil0" cx="7830" cy="4883" r="688"/>
  <circle class="fil1" cx="7830" cy="4883" r="623"/>
  <circle class="fil0" cx="9266" cy="4883" r="688"/>
  <circle class="fil1" cx="9266" cy="4883" r="623"/>
  <circle class="fil0" cx="10702" cy="4883" r="688"/>
  <circle class="fil1" cx="10702" cy="4883" r="623"/>
  <circle class="fil0" cx="12137" cy="4883" r="688"/>
  <circle class="fil1" cx="12137" cy="4883" r="623"/>
  <circle class="fil0" cx="13573" cy="4883" r="688"/>
  <circle class="fil1" cx="13573" cy="4883" r="623"/>
  <circle class="fil0" cx="15008" cy="4883" r="688"/>
  <circle class="fil1" cx="15008" cy="4883" r="623"/>
  <circle class="fil0" cx="16444" cy="4883" r="688"/>
  <circle class="fil1" cx="16444" cy="4883" r="623"/>
  <path class="fil19" d="M14195 6278c0,-55 25,-82 75,-82 51,0 76,27 76,82 0,55 -25,82 -76,82 -25,0 -43,-7 -56,-22 -12,-15 -19,-34 -19,-60z"/>
  <path class="fil19" d="M15671 6321c-15,-15 -23,-32 -23,-53 0,-20 7,-37 21,-51 14,-14 33,-21 59,-21 25,0 46,8 61,25 15,17 22,40 22,68 0,87 -45,156 -134,208l-30 -38c22,-16 40,-35 53,-55 14,-21 21,-40 21,-59 0,-19 -9,-29 -28,-29 -6,0 -13,2 -22,5z"/>
  <path class="fil21" d="M4104 6535l0 -485 227 0c42,0 74,4 96,12 22,8 40,23 54,44 13,22 20,48 20,79 0,27 -5,50 -16,70 -10,19 -24,35 -43,47 -11,8 -27,14 -47,20 16,6 28,11 35,17 5,4 12,13 22,26 9,13 15,23 19,30l66 140 -154 0 -73 -148c-9,-19 -17,-31 -24,-37 -10,-8 -21,-11 -34,-11l-12 0 0 196 -136 0zm136 -288l58 0c6,0 18,-2 36,-6 9,-2 16,-7 22,-16 6,-8 9,-17 9,-28 0,-15 -5,-28 -14,-36 -9,-8 -26,-13 -51,-13l-60 0 0 99z"/>
  <path id="1" class="fil21" d="M4897 6535l-114 0 0 -57c-17,24 -34,40 -51,50 -18,10 -39,15 -64,15 -34,0 -60,-11 -79,-33 -19,-22 -29,-56 -29,-103l0 -223 123 0 0 193c0,22 4,38 11,47 8,10 18,14 31,14 15,0 27,-6 36,-18 9,-13 14,-35 14,-67l0 -169 122 0 0 351z"/>
  <polygon id="2" class="fil21" points="4948,6306 5126,6306 5126,6410 4948,6410 "/>
  <polygon id="3" class="fil21" points="5184,6050 5548,6050 5548,6154 5321,6154 5321,6231 5532,6231 5532,6330 5321,6330 5321,6425 5555,6425 5555,6535 5184,6535 "/>
  <path id="4" class="fil21" d="M5620 6184l114 0 0 57c17,-24 34,-40 52,-50 17,-10 38,-15 63,-15 34,0 60,11 79,33 19,22 29,56 29,103l0 223 -123 0 0 -193c0,-22 -4,-38 -11,-47 -7,-9 -18,-14 -31,-14 -15,0 -27,6 -36,19 -9,12 -14,34 -14,66l0 169 -122 0 0 -351z"/>
  <circle class="fil22" cx="1674" cy="3182" r="148"/>
  <circle class="fil23" cx="3920" cy="5940" r="148"/>
  <circle class="fil22" cx="6032" cy="5940" r="148"/>
  <path class="fil24" d="M603 3317l55 17c-8,31 -22,54 -42,69 -20,15 -45,22 -75,22 -38,0 -68,-12 -93,-38 -24,-26 -36,-61 -36,-105 0,-47 12,-84 37,-110 24,-26 56,-39 95,-39 35,0 63,11 84,31 13,12 23,29 29,52l-56 14c-3,-15 -10,-27 -21,-35 -11,-9 -23,-13 -38,-13 -21,0 -38,8 -51,23 -14,15 -20,39 -20,73 0,35 6,61 19,76 13,15 30,23 50,23 15,0 29,-5 39,-15 11,-10 19,-25 24,-45z"/>
  <path id="1" class="fil24" d="M961 3421l-61 0 -25 -65 -113 0 -23 65 -61 0 110 -283 60 0 113 283zm-104 -112l-39 -105 -38 105 77 0z"/>
  <path id="2" class="fil24" d="M992 3421l0 -283 91 0c35,0 57,2 68,5 16,4 29,13 40,27 11,15 17,33 17,55 0,18 -3,32 -10,44 -6,12 -14,21 -24,28 -9,7 -19,11 -29,13 -14,3 -33,4 -59,4l-37 0 0 107 -57 0zm57 -235l0 81 31 0c22,0 37,-2 45,-5 7,-3 13,-7 18,-14 4,-6 6,-13 6,-22 0,-10 -3,-19 -9,-25 -6,-7 -14,-11 -23,-13 -7,-1 -20,-2 -41,-2l-27 0z"/>
  <path id="3" class="fil24" d="M1240 3329l55 -5c4,18 10,32 20,41 11,8 24,13 42,13 18,0 32,-4 41,-12 9,-8 14,-17 14,-27 0,-7 -2,-12 -6,-17 -4,-5 -11,-9 -20,-12 -7,-3 -22,-7 -46,-13 -30,-7 -52,-17 -64,-28 -17,-15 -26,-34 -26,-57 0,-14 4,-28 12,-40 9,-13 20,-22 36,-29 15,-6 33,-10 55,-10 35,0 62,8 80,24 17,16 27,36 28,63l-57 2c-3,-15 -8,-25 -16,-32 -8,-6 -20,-9 -36,-9 -16,0 -29,3 -38,10 -6,4 -9,10 -9,18 0,6 2,12 8,17 7,6 25,12 52,19 28,6 48,13 62,20 13,7 23,16 31,29 7,12 11,27 11,45 0,16 -4,31 -13,45 -9,14 -22,25 -39,31 -16,7 -36,11 -61,11 -36,0 -63,-8 -82,-25 -19,-16 -31,-40 -34,-72z"/>
  <polygon class="fil21" points="412,3827 412,3547 469,3547 469,3779 611,3779 611,3827 "/>
  <path id="1" class="fil21" d="M640 3688c0,-29 4,-53 13,-73 6,-14 15,-27 26,-39 11,-11 23,-20 36,-25 18,-8 38,-11 61,-11 42,0 75,13 100,38 25,26 37,62 37,108 0,46 -12,82 -37,107 -24,26 -58,39 -99,39 -42,0 -75,-13 -100,-38 -25,-26 -37,-61 -37,-106zm58 -2c0,32 8,56 23,73 14,16 33,24 56,24 23,0 41,-8 56,-24 14,-17 22,-41 22,-74 0,-32 -7,-57 -22,-72 -14,-16 -33,-24 -56,-24 -24,0 -43,8 -57,24 -14,16 -22,40 -22,73z"/>
  <path id="2" class="fil21" d="M1138 3723l56 17c-9,31 -23,54 -43,69 -19,15 -44,23 -75,23 -37,0 -68,-13 -92,-39 -24,-25 -36,-60 -36,-105 0,-47 12,-83 36,-109 24,-26 56,-39 96,-39 34,0 62,10 84,30 13,12 22,30 29,52l-57 14c-3,-15 -10,-26 -20,-35 -11,-8 -24,-12 -39,-12 -21,0 -38,7 -51,22 -13,15 -20,39 -20,73 0,36 7,61 20,76 13,15 29,23 50,23 15,0 28,-5 39,-15 11,-9 19,-24 23,-45z"/>
  <polygon id="3" class="fil21" points="1243,3827 1243,3545 1301,3545 1301,3670 1416,3545 1492,3545 1386,3655 1498,3827 1424,3827 1346,3695 1301,3742 1301,3827 "/>
  <path class="fil21" d="M18358 3308l113 0c22,0 39,1 50,3 11,2 21,6 29,12 9,6 16,14 22,23 6,10 9,21 9,33 0,13 -4,26 -11,37 -7,11 -17,19 -29,24 17,5 30,14 40,26 9,12 13,26 13,43 0,12 -2,25 -8,37 -6,12 -15,22 -25,29 -10,8 -23,12 -38,14 -10,1 -33,1 -69,2l-96 0 0 -283zm57 47l0 65 37 0c23,0 36,0 42,-1 9,-1 17,-4 23,-10 5,-5 8,-13 8,-22 0,-8 -2,-15 -7,-21 -5,-5 -12,-9 -22,-10 -5,0 -21,-1 -48,-1l-33 0zm0 112l0 76 53 0c20,0 34,-1 39,-2 9,-1 15,-5 21,-11 5,-6 8,-14 8,-24 0,-9 -2,-16 -6,-22 -5,-6 -10,-10 -18,-13 -8,-2 -25,-4 -51,-4l-46 0z"/>
  <path id="1" class="fil21" d="M18643 3308l112 0c23,0 39,1 50,3 11,2 21,6 30,12 9,6 16,14 22,23 5,10 8,21 8,33 0,13 -3,26 -10,37 -7,11 -17,19 -29,24 17,5 30,14 39,26 9,12 14,26 14,43 0,12 -3,25 -9,37 -6,12 -14,22 -24,29 -11,8 -23,12 -39,14 -9,1 -32,1 -68,2l-96 0 0 -283zm57 47l0 65 37 0c22,0 36,0 41,-1 10,-1 18,-4 23,-10 6,-5 9,-13 9,-22 0,-8 -3,-15 -8,-21 -4,-5 -11,-9 -21,-10 -6,0 -22,-1 -49,-1l-32 0zm0 112l0 76 53 0c20,0 33,-1 39,-2 8,-1 15,-5 20,-11 6,-6 8,-14 8,-24 0,-9 -2,-16 -6,-22 -4,-6 -10,-10 -18,-13 -7,-2 -24,-4 -50,-4l-46 0z"/>
  <path id="2" class="fil21" d="M18906 3451c0,-29 4,-53 13,-72 6,-15 15,-28 26,-39 11,-11 23,-20 36,-26 18,-7 38,-11 61,-11 42,0 75,13 100,39 25,26 38,62 38,108 0,46 -13,81 -38,107 -24,26 -58,39 -99,39 -42,0 -75,-13 -100,-39 -25,-25 -37,-61 -37,-106zm58 -2c0,32 8,57 23,73 14,17 33,25 56,25 23,0 41,-8 56,-25 15,-16 22,-41 22,-73 0,-33 -7,-57 -22,-73 -14,-16 -33,-24 -56,-24 -24,0 -43,8 -57,24 -14,16 -22,41 -22,73z"/>
  <path id="3" class="fil21" d="M19242 3308l194 0 0 235 25 0 0 109 -48 0 0 -61 -176 0 0 61 -48 0 0 -109 24 0c12,-24 19,-52 23,-84 4,-32 6,-72 6,-121l0 -30zm54 48c0,85 -8,148 -24,187l107 0 0 -187 -83 0z"/>
  <path class="fil21" d="M18014 4933l56 -6c3,19 10,32 20,41 10,9 24,13 41,13 18,0 32,-4 41,-12 10,-7 14,-16 14,-27 0,-6 -2,-12 -6,-17 -3,-5 -10,-9 -20,-12 -7,-2 -22,-6 -45,-12 -31,-8 -52,-17 -64,-28 -18,-16 -26,-35 -26,-57 0,-15 4,-28 12,-41 8,-12 20,-22 35,-28 15,-7 34,-10 55,-10 36,0 62,8 80,23 18,16 27,37 28,63l-57 2c-2,-15 -8,-25 -16,-31 -8,-7 -19,-10 -35,-10 -17,0 -30,3 -39,10 -6,5 -9,10 -9,18 0,7 3,12 9,17 7,6 24,12 52,19 27,6 48,13 61,20 13,7 24,17 31,29 8,12 11,27 11,45 0,16 -4,31 -13,45 -9,14 -22,25 -38,32 -17,7 -37,10 -62,10 -35,0 -63,-8 -82,-25 -19,-16 -30,-40 -34,-71z"/>
  <polygon id="1" class="fil21" points="18292,5024 18292,4742 18349,4742 18349,4853 18460,4853 18460,4742 18517,4742 18517,5024 18460,5024 18460,4901 18349,4901 18349,5024 "/>
  <polygon id="2" class="fil21" points="18575,5024 18575,4742 18632,4742 18632,5024 "/>
  <polygon id="3" class="fil21" points="18686,5024 18686,4742 18880,4742 18880,4789 18743,4789 18743,4856 18861,4856 18861,4904 18743,4904 18743,5024 "/>
  <polygon id="4" class="fil21" points="18990,5024 18990,4789 18907,4789 18907,4742 19130,4742 19130,4789 19047,4789 19047,5024 "/>
  <path class="fil24" d="M825 4933l55 -6c4,19 10,32 20,41 11,9 24,13 42,13 18,0 32,-4 41,-12 9,-7 14,-16 14,-27 0,-6 -2,-12 -6,-17 -4,-5 -11,-9 -20,-12 -7,-2 -22,-6 -46,-12 -30,-8 -51,-17 -64,-28 -17,-16 -26,-35 -26,-57 0,-15 4,-28 12,-41 9,-12 20,-22 36,-28 15,-7 33,-10 55,-10 35,0 62,8 80,23 18,16 27,37 28,63l-57 2c-3,-15 -8,-25 -16,-31 -8,-7 -20,-10 -36,-10 -16,0 -29,3 -38,10 -6,5 -9,10 -9,18 0,7 3,12 8,17 7,6 25,12 52,19 28,6 48,13 62,20 13,7 23,17 31,29 7,12 11,27 11,45 0,16 -4,31 -13,45 -9,14 -22,25 -38,32 -17,7 -37,10 -62,10 -36,0 -63,-8 -82,-25 -19,-16 -31,-40 -34,-71z"/>
  <polygon id="1" class="fil24" points="1103,5024 1103,4742 1160,4742 1160,4853 1271,4853 1271,4742 1328,4742 1328,5024 1271,5024 1271,4901 1160,4901 1160,5024 "/>
  <polygon id="2" class="fil24" points="1385,5024 1385,4742 1442,4742 1442,5024 "/>
  <polygon id="3" class="fil24" points="1497,5024 1497,4742 1691,4742 1691,4789 1554,4789 1554,4856 1672,4856 1672,4904 1554,4904 1554,5024 "/>
  <polygon id="4" class="fil24" points="1801,5024 1801,4789 1717,4789 1717,4742 1941,4742 1941,4789 1858,4789 1858,5024 "/>
  <path class="fil21" d="M19668 737l-1043 0 21 90c-157,-67 -328,-114 -515,-140 181,-21 354,-66 515,-139l-21 90 1043 0 0 99z"/>
  <path class="fil19" d="M2320 2250c0,26 3,43 7,52 5,8 16,15 34,19l0 25 -201 0 0 -25c19,-4 30,-10 35,-18 4,-7 6,-25 6,-53l0 -151c0,-45 1,-80 4,-103l-3 0 -183 254c0,25 3,42 8,51 4,9 16,16 34,20l0 25 -202 0 0 -25c18,-4 29,-11 34,-19 5,-9 7,-26 7,-52l0 -332c0,-26 -2,-44 -7,-52 -4,-8 -16,-15 -34,-20l0 -25 202 0 0 25c-18,6 -30,12 -34,21 -5,8 -8,26 -8,51l0 170c0,32 0,57 -2,76l2 0 182 -255c0,-21 -2,-36 -7,-44 -4,-8 -16,-14 -34,-19l0 -25 201 0 0 25c-18,5 -29,12 -34,20 -4,9 -7,26 -7,52l0 332zm-73 -570c0,29 -12,51 -38,67 -25,16 -59,24 -102,24 -91,0 -136,-30 -136,-91l0 -24 79 0 0 20c0,39 19,58 58,58 22,0 38,-5 47,-14 9,-10 13,-24 13,-44l0 -20 79 0 0 24z"/>
  <path class="fil19" d="M3727 2304l69 0 0 187 -52 0c-9,-58 -19,-96 -31,-113 -11,-17 -28,-26 -51,-26l-380 0 0 -25c18,-5 30,-12 35,-20 4,-9 7,-26 7,-52l0 -331c0,-27 -3,-44 -7,-52 -5,-9 -17,-15 -35,-20l0 -25 206 0 0 25c-18,5 -30,11 -34,18 -5,8 -7,26 -7,54l0 379 159 0 0 -379c0,-26 -2,-43 -7,-52 -5,-9 -16,-15 -34,-20l0 -25 203 0 0 25c-18,5 -29,11 -34,20 -5,8 -7,26 -7,52l0 380z"/>
  <path class="fil19" d="M4994 2213c-23,49 -46,86 -69,111 -23,24 -52,36 -88,36 -21,0 -45,-4 -73,-11l0 -108 57 0c1,33 13,49 36,49 28,0 53,-23 76,-70l-134 -291c-14,-30 -25,-50 -33,-61 -8,-11 -18,-16 -31,-17l0 -25 206 0 0 25c-20,2 -30,12 -30,29 0,10 7,30 20,61l66 153 63 -150c12,-26 17,-47 17,-63 0,-19 -10,-29 -30,-30l0 -25 153 0 0 25c-15,3 -28,12 -39,26 -11,15 -24,36 -38,64l-129 272z"/>
  <path class="fil19" d="M6472 2359l0 -20c-4,-8 -13,-33 -28,-76 -18,-50 -31,-84 -40,-102 -8,-18 -18,-31 -31,-39 -12,-9 -30,-13 -53,-13l-8 0 0 153c0,25 3,42 8,51 4,9 16,16 34,20l0 26 -202 0 0 -26c18,-4 29,-11 34,-19 5,-9 7,-26 7,-52l0 -332c0,-26 -2,-44 -7,-52 -4,-8 -16,-15 -34,-19l0 -26 202 0 0 26c-18,4 -29,11 -34,20 -5,8 -8,25 -8,51l0 137 9 0c31,0 54,-9 71,-27 16,-18 30,-43 41,-76 13,-41 25,-69 36,-86 11,-16 26,-29 42,-38 17,-9 39,-13 67,-13 21,0 39,3 55,9l0 95 -54 0c-3,-23 -13,-35 -31,-35 -13,0 -25,7 -34,21 -9,14 -19,34 -29,61 -17,43 -40,73 -69,89l0 4c27,3 48,10 64,20 16,11 28,24 37,38 9,15 22,44 40,87 21,51 36,83 44,95 8,12 21,20 39,22l0 26 -168 0z"/>
  <path class="fil19" d="M8014 1830l0 123 -53 0c-8,-25 -16,-41 -21,-50 -6,-9 -13,-15 -22,-20 -8,-5 -22,-8 -42,-8l-83 0 0 185 50 0c12,0 20,-2 27,-5 6,-3 12,-9 16,-16 4,-7 8,-19 12,-35l44 0 0 157 -44 0c-4,-15 -8,-26 -12,-34 -4,-8 -10,-14 -16,-17 -6,-3 -15,-5 -27,-5l-50 0 0 205 83 0c9,0 17,0 23,-1 6,-1 11,-3 16,-6 5,-3 10,-7 14,-12 5,-5 9,-10 12,-16 4,-5 7,-13 11,-22 4,-9 8,-22 13,-38l53 0 -8 140 -378 0 0 -25c10,-3 17,-5 23,-8 5,-3 9,-7 12,-12 3,-6 4,-12 5,-20 1,-9 1,-19 1,-31l0 -332c0,-12 0,-22 -1,-30 0,-9 -2,-15 -5,-20 -2,-6 -6,-10 -12,-13 -6,-3 -13,-6 -23,-9l0 -25 382 0z"/>
  <path class="fil19" d="M9460 2259c0,20 1,33 3,41 1,7 5,13 10,18 5,5 14,9 28,12l0 25 -201 0 0 -25c15,-4 24,-8 29,-11 4,-4 7,-10 9,-17 2,-7 3,-21 3,-43l0 -154 -174 0 0 154c0,9 0,17 1,25 0,8 1,14 3,19 1,5 3,9 6,12 3,3 7,6 13,9 5,2 11,4 18,6l0 25 -202 0 0 -25c10,-3 17,-5 23,-8 5,-3 9,-7 12,-12 3,-6 5,-12 5,-20 1,-9 2,-19 2,-31l0 -332c0,-12 -1,-22 -2,-30 0,-9 -2,-15 -5,-20 -2,-6 -6,-10 -12,-13 -5,-3 -13,-6 -23,-9l0 -25 202 0 0 25c-13,4 -23,9 -28,13 -5,5 -8,11 -10,18 -2,8 -3,22 -3,41l0 129 174 0 0 -129c0,-19 -1,-33 -3,-40 -1,-8 -5,-14 -10,-19 -5,-4 -14,-9 -28,-13l0 -25 201 0 0 25c-11,4 -20,7 -25,10 -5,4 -9,8 -11,14 -2,5 -3,11 -4,18 -1,6 -1,17 -1,30l0 332z"/>
  <path class="fil19" d="M10703 2355l-207 0 0 -25c18,-4 29,-11 34,-19 5,-9 7,-26 7,-52l0 -332c0,-26 -2,-44 -7,-52 -4,-8 -16,-15 -34,-20l0 -25 372 0 0 146 -52 0c-14,-46 -27,-74 -38,-84 -11,-11 -27,-16 -47,-16l-74 0 0 383c0,27 2,44 8,53 5,9 18,15 38,18l0 25z"/>
  <path class="fil19" d="M11748 2355l0 -25c18,-5 29,-11 34,-20 4,-8 7,-25 7,-52l0 -331c0,-26 -3,-44 -7,-52 -5,-9 -16,-15 -34,-20l0 -25 201 0 0 25c-19,5 -30,11 -34,18 -5,8 -7,26 -7,54l0 380 143 0 0 -380c0,-26 -2,-43 -7,-52 -5,-8 -16,-15 -34,-20l0 -25 202 0 0 25c-18,5 -30,11 -34,20 -5,8 -8,26 -8,52l0 380 144 0 0 -380c0,-26 -3,-43 -7,-52 -5,-8 -17,-15 -35,-20l0 -25 202 0 0 25c-18,5 -29,11 -34,20 -5,9 -7,26 -7,52l0 332c0,26 2,43 7,51 4,9 16,15 34,20l0 25 -726 0z"/>
  <path class="fil19" d="M13867 2494c-9,-59 -20,-96 -31,-113 -12,-17 -29,-26 -50,-26l-624 0 0 -25c18,-5 29,-12 34,-20 4,-9 7,-26 7,-52l0 -331c0,-26 -3,-43 -7,-52 -5,-8 -16,-15 -34,-19l0 -25 201 0 0 25c-18,4 -29,10 -33,18 -5,7 -7,25 -7,53l0 380 144 0 0 -380c0,-26 -2,-43 -7,-52 -5,-8 -17,-15 -35,-20l0 -25 203 0 0 25c-18,5 -30,11 -34,20 -5,8 -7,26 -7,52l0 379 141 0 0 -379c0,-26 -2,-43 -7,-52 -5,-8 -16,-15 -34,-20l0 -25 203 0 0 25c-18,5 -29,11 -34,20 -5,9 -7,26 -7,52l0 380 68 0 0 187 -50 0z"/>
  <path class="fil19" d="M15024 2081c82,24 123,67 123,129 0,49 -18,86 -53,112 -35,27 -88,40 -157,40 -44,0 -93,-8 -147,-23l0 -115 53 0c12,39 25,64 39,76 15,12 35,18 61,18 26,0 46,-9 61,-27 14,-18 22,-45 22,-79 0,-37 -8,-63 -24,-78 -16,-14 -42,-21 -78,-21l-64 0 0 -61 62 0c31,0 55,-6 71,-20 16,-13 24,-40 24,-80 0,-27 -6,-47 -20,-62 -13,-15 -30,-22 -51,-22 -26,0 -46,6 -60,19 -14,12 -27,35 -39,69l-54 0 0 -109c63,-16 118,-23 165,-23 120,0 180,41 180,123 0,57 -38,100 -114,129l0 5z"/>
  <path class="fil19" d="M16386 1830l0 25c-12,2 -21,5 -26,9 -5,4 -7,11 -7,19 0,5 1,10 2,15 2,6 5,12 9,20 4,8 11,20 21,36l36 60 46 -69c11,-15 18,-27 21,-35 3,-8 5,-16 5,-26 0,-8 -3,-14 -8,-19 -6,-5 -14,-8 -24,-10l0 -25 159 0 0 26c-7,2 -14,5 -21,10 -7,4 -14,12 -23,22 -9,10 -23,29 -42,57l-83 118 125 207c5,7 9,14 14,21 4,7 8,13 13,18 4,5 8,9 11,12 3,2 6,4 9,6 3,1 7,2 10,3l0 25 -214 0 0 -25c11,-1 20,-4 25,-8 5,-4 8,-11 8,-20 0,-3 0,-6 -1,-10 -1,-3 -3,-8 -5,-13 -2,-5 -4,-9 -7,-13 -2,-4 -6,-12 -13,-23l-53 -88 -63 92c-5,8 -9,15 -12,21 -4,6 -6,12 -7,17 -2,5 -2,11 -2,18 0,7 3,13 8,18 6,5 13,8 24,9l0 25 -160 0 0 -25c9,-3 17,-6 24,-12 7,-5 14,-13 23,-23 8,-10 20,-25 34,-46l101 -144 -97 -161c-11,-18 -20,-32 -27,-44 -8,-11 -14,-20 -19,-26 -6,-6 -10,-11 -14,-13 -4,-3 -9,-4 -14,-6l0 -25 214 0z"/>
  <path class="fil19" d="M17662 2355l0 -25c21,-3 34,-9 39,-18 5,-9 8,-26 8,-53l0 -384 -31 0c-29,0 -48,8 -58,23 -10,15 -18,38 -25,67l-53 0 0 -135 333 0 0 25c-19,4 -32,10 -38,19 -6,9 -9,26 -9,53l0 126c35,-3 65,-5 89,-5 65,0 113,13 145,37 32,25 48,64 48,118 0,102 -69,152 -205,152l-243 0zm166 -255l0 209c67,5 111,-2 132,-20 20,-18 31,-46 31,-85 0,-71 -35,-106 -105,-106l-14 0c-18,0 -32,0 -44,2z"/>
  <path class="fil19" d="M2724 3237l0 -25 202 0 0 25c-17,4 -29,11 -34,18 -5,8 -7,23 -7,46 146,1 219,58 219,173 0,119 -73,179 -219,182 0,24 2,40 7,48 5,8 17,15 34,19l0 25 -202 0 0 -25c17,-4 28,-10 33,-17 6,-8 9,-25 9,-50 -71,0 -126,-15 -164,-44 -38,-29 -58,-73 -58,-131 0,-57 19,-101 58,-132 38,-31 92,-47 164,-48 0,-24 -4,-40 -10,-47 -6,-8 -16,-13 -32,-17zm42 378l0 -273c-67,6 -101,49 -101,131 0,43 9,76 27,101 17,24 42,38 74,41zm119 -273l0 273c31,-3 55,-16 73,-39 17,-23 26,-54 26,-91 0,-88 -33,-136 -99,-143z"/>
  <path class="fil19" d="M4132 3217l0 26c-20,3 -33,9 -39,18 -5,9 -8,27 -8,53l0 127c34,-4 62,-5 85,-5 64,0 112,12 142,37 31,25 46,64 46,117 0,102 -67,153 -200,153l-234 0 0 -26c18,-4 29,-11 34,-19 5,-9 7,-26 7,-52l0 -332c0,-26 -2,-43 -7,-52 -4,-8 -16,-14 -34,-19l0 -26 208 0zm-47 270l0 209c62,5 103,-2 124,-20 20,-19 30,-47 30,-85 0,-33 -7,-59 -23,-78 -16,-19 -45,-28 -86,-28 -14,0 -29,1 -45,2zm465 -173l0 332c0,26 2,43 7,52 5,8 16,15 34,19l0 26 -202 0 0 -26c18,-4 30,-11 34,-19 5,-9 7,-26 7,-52l0 -332c0,-26 -2,-43 -7,-52 -4,-8 -16,-14 -34,-19l0 -26 202 0 0 26c-18,5 -30,12 -34,20 -5,8 -7,25 -7,51z"/>
  <path class="fil19" d="M5802 3467c35,12 63,28 82,50 19,21 28,47 28,77 0,25 -4,48 -13,67 -8,19 -22,34 -39,46 -18,13 -38,22 -62,27 -24,6 -54,9 -91,9l-237 0 0 -26c10,-2 17,-5 23,-8 5,-3 9,-7 12,-12 3,-6 4,-12 5,-20 1,-8 1,-19 1,-31l0 -332c0,-12 0,-22 -1,-30 0,-8 -2,-15 -5,-20 -2,-5 -6,-9 -12,-13 -5,-3 -13,-6 -23,-8l0 -26 252 0c29,0 53,2 71,5 24,3 45,10 62,20 16,8 29,20 38,36 9,15 13,34 13,56 0,58 -35,101 -104,130l0 3zm-120 -19c26,0 46,-4 60,-12 15,-7 26,-18 34,-31 7,-14 11,-33 11,-57 0,-21 -4,-38 -12,-51 -9,-12 -20,-21 -35,-27 -16,-5 -34,-8 -57,-8 -18,0 -35,1 -52,2l0 184 51 0zm-51 248c15,1 32,2 52,2 24,0 44,-3 60,-9 16,-6 28,-17 37,-32 9,-15 13,-36 13,-62 0,-18 -2,-34 -7,-47 -5,-14 -11,-24 -21,-32 -9,-8 -20,-14 -33,-18 -13,-4 -29,-5 -48,-5l-53 0 0 203z"/>
  <path class="fil19" d="M7184 3581l-165 0 -12 37c-4,10 -7,20 -9,30 -2,9 -4,19 -4,30 0,25 14,39 40,41l0 25 -164 0 0 -25c10,-1 18,-5 25,-10 7,-6 14,-14 20,-23 6,-10 12,-24 19,-42l160 -428 103 0 127 431c6,19 10,33 14,41 4,8 9,15 15,20 6,5 15,8 26,11l0 25 -213 0 0 -25c14,-2 24,-6 30,-11 6,-6 10,-15 10,-26 0,-7 -1,-16 -3,-26 -2,-10 -5,-22 -9,-37l-10 -38zm-150 -45l139 0 -62 -216 -77 216z"/>
  <path class="fil19" d="M8799 3243c-18,5 -29,11 -33,20 -5,8 -7,25 -7,52l0 331c0,26 2,43 6,52 5,8 16,15 34,19l0 26 -200 0 0 -26c18,-4 29,-10 34,-18 4,-7 6,-25 6,-53l0 -380 -162 0 0 380c0,25 2,43 7,52 5,8 16,15 34,19l0 26 -202 0 0 -26c18,-4 29,-11 34,-19 5,-9 8,-26 8,-52l0 -332c0,-26 -3,-43 -7,-52 -5,-8 -16,-14 -35,-19l0 -26 483 0 0 26z"/>
  <path class="fil19" d="M9943 3647c0,16 1,28 2,36 1,6 3,12 6,16 3,5 7,8 13,11 5,3 14,5 25,7l0 26 -207 0 0 -26c10,-2 17,-5 23,-8 5,-3 10,-7 12,-12 3,-6 5,-12 5,-20 1,-8 2,-19 2,-31l0 -332c0,-12 -1,-22 -1,-30 -1,-8 -3,-15 -5,-20 -3,-5 -7,-9 -13,-13 -5,-3 -13,-6 -23,-8l0 -26 224 0c65,0 114,12 146,35 32,23 48,59 48,107 0,35 -7,64 -22,89 -15,25 -37,44 -66,57 -29,13 -65,20 -108,20 -25,0 -45,-1 -61,-2l0 124zm0 -167l33 0c26,0 46,-4 61,-11 15,-7 26,-19 34,-35 7,-16 11,-37 11,-64 0,-27 -4,-48 -11,-64 -8,-16 -18,-27 -32,-34 -14,-6 -33,-10 -55,-10 -17,0 -31,1 -41,1l0 217z"/>
  <path class="fil19" d="M11418 3749c-75,0 -132,-22 -170,-66 -38,-44 -56,-111 -56,-199 0,-57 9,-107 27,-148 18,-40 45,-72 81,-93 36,-21 78,-32 127,-32 77,0 135,22 173,66 39,44 58,110 58,196 0,49 -6,90 -17,125 -12,35 -28,64 -49,86 -21,22 -46,39 -75,49 -30,11 -63,16 -99,16zm-104 -275c0,78 9,135 28,173 18,38 47,57 85,57 20,0 37,-5 50,-16 14,-11 26,-26 34,-45 9,-19 15,-42 19,-68 3,-26 5,-55 5,-86 0,-51 -4,-94 -12,-128 -8,-35 -20,-61 -36,-78 -17,-18 -38,-27 -63,-27 -37,0 -65,18 -83,54 -18,35 -27,90 -27,164z"/>
  <path class="fil19" d="M13118 3740l-210 0 0 -26c22,-5 35,-12 39,-22 5,-10 7,-29 7,-55l0 -377 -85 0c-5,60 -15,124 -29,192 -15,69 -30,126 -48,173 -17,47 -36,79 -55,96 -20,16 -45,25 -75,25 -23,0 -45,-3 -64,-9l0 -94 49 0c4,23 14,34 30,34 12,0 24,-5 35,-16 12,-12 24,-39 38,-81 15,-43 28,-95 40,-156 12,-61 19,-106 19,-134 0,-18 -3,-31 -9,-38 -6,-6 -16,-11 -30,-12l0 -26 348 0 0 26c-18,4 -30,10 -36,17 -5,8 -8,27 -8,60l0 320c0,30 2,50 8,58 5,8 17,15 36,19l0 26z"/>
  <path class="fil19" d="M14175 3737c-26,0 -43,8 -52,26 -10,18 -19,55 -29,112l-50 0 0 -188 41 0c39,-55 71,-122 94,-201 24,-79 36,-145 36,-198 0,-20 -3,-33 -10,-40 -7,-6 -17,-10 -29,-11l0 -26 347 0 0 26c-18,4 -30,10 -36,17 -6,7 -9,27 -9,60l0 373 62 0 0 188 -51 0c-9,-53 -18,-89 -27,-109 -10,-19 -28,-29 -54,-29l-233 0zm184 -50l0 -430 -83 0c-16,183 -56,327 -122,430l205 0z"/>
  <path class="fil19" d="M15565 3454c-21,-11 -40,-41 -57,-89 -13,-34 -22,-56 -30,-66 -8,-11 -18,-16 -30,-16 -17,0 -26,12 -29,35l-52 0 0 -95c16,-6 34,-9 56,-9 27,0 49,4 65,13 17,8 30,21 40,37 11,15 23,45 37,87 13,40 28,68 43,82 16,14 34,21 55,21l3 0 0 -137c0,-27 -2,-44 -7,-52 -4,-8 -16,-14 -34,-19l0 -26 201 0 0 26c-16,4 -27,10 -33,18 -6,7 -9,25 -9,53l0 137 4 0c21,0 39,-7 54,-21 16,-14 30,-42 44,-82 14,-41 26,-70 36,-86 10,-16 23,-29 40,-38 16,-8 38,-13 66,-13 22,0 40,3 56,9l0 95 -52 0c-3,-23 -12,-35 -29,-35 -12,0 -22,5 -30,16 -7,10 -17,32 -30,66 -17,48 -36,78 -57,89l0 4c48,5 84,36 106,95 28,72 47,118 55,136 9,18 23,29 43,31l0 26 -159 0 0 -20c-6,-14 -15,-39 -27,-75 -22,-67 -39,-109 -51,-127 -13,-18 -34,-28 -65,-28l-4 0 0 153c0,28 3,46 9,54 5,7 16,13 33,17l0 26 -201 0 0 -26c17,-4 28,-10 34,-18 5,-8 7,-26 7,-53l0 -153 -3 0c-32,0 -53,10 -66,28 -12,19 -29,61 -50,127 -14,42 -23,67 -27,75l0 20 -160 0 0 -26c20,-2 35,-13 44,-32 9,-19 27,-64 55,-135 23,-59 58,-90 106,-95l0 -4z"/>
  <path class="fil19" d="M16967 3727l0 -114 53 0c13,61 45,91 94,91 73,0 111,-68 113,-205l-191 0 0 -60 190 0c-4,-64 -14,-111 -30,-140 -16,-28 -42,-43 -77,-43 -48,0 -79,28 -93,85l-52 0 0 -108c58,-14 111,-22 161,-22 143,0 215,88 215,264 0,183 -81,274 -243,274 -41,0 -87,-8 -140,-22z"/>
  <path class="fil19" d="M3564 5120c18,-4 30,-11 35,-19 4,-9 7,-26 7,-52l0 -124 -19 0c-26,0 -47,6 -61,18 -15,11 -30,38 -46,80 -19,52 -33,86 -42,103l0 20 -157 0 0 -26c25,-4 48,-29 66,-74l19 -45c18,-44 47,-74 90,-92l0 -4c-73,-28 -110,-76 -110,-143 0,-95 65,-142 196,-142l224 0 0 26c-18,4 -30,11 -34,19 -5,9 -7,26 -7,52l0 332c0,26 2,43 7,52 5,8 16,15 34,19l0 26 -202 0 0 -26zm42 -240l0 -214 -20 -1c-49,-2 -82,7 -98,26 -16,20 -24,46 -24,79 0,39 9,67 26,84 17,17 43,26 78,26l38 0z"/>
  <path class="fil19" d="M5149 5043c0,32 3,52 9,59 6,8 18,14 36,18l0 26 -209 0 0 -26c19,-4 31,-11 37,-18 5,-8 8,-28 8,-59l0 -128c-41,9 -80,14 -117,14 -43,0 -78,-9 -105,-28 -27,-19 -40,-56 -40,-111l0 -67c0,-34 -3,-54 -9,-61 -6,-6 -18,-12 -35,-17l0 -25 207 0 0 25c-18,5 -30,10 -36,17 -6,7 -9,27 -9,61l0 54c0,44 6,72 19,84 12,12 32,18 58,18 19,0 41,-4 67,-10l0 -146c0,-32 -3,-52 -9,-60 -6,-7 -18,-13 -36,-18l0 -25 209 0 0 25c-18,5 -30,10 -36,17 -6,7 -9,27 -9,61l0 320z"/>
  <path class="fil19" d="M6584 4632l0 112 -52 0c-6,-29 -16,-51 -29,-64 -14,-14 -31,-21 -53,-21 -40,0 -71,20 -91,58 -21,39 -32,97 -32,173 0,72 10,125 29,162 19,36 47,55 83,55 19,0 34,-3 46,-10 12,-6 21,-15 28,-28 7,-13 14,-30 19,-53l52 0 0 116c-28,7 -54,12 -77,15 -23,3 -48,5 -73,5 -53,0 -97,-10 -130,-29 -34,-19 -59,-48 -75,-87 -16,-39 -24,-88 -24,-148 0,-56 9,-104 28,-145 19,-41 47,-73 83,-95 37,-23 81,-34 132,-34 26,0 49,1 71,4 21,3 43,8 65,14z"/>
  <path class="fil19" d="M8127 4646c-13,4 -23,8 -27,12 -5,5 -9,11 -11,18 -2,8 -3,21 -3,40l0 333c0,16 1,28 3,37 1,10 4,16 9,21 5,5 15,9 29,13l0 26 -197 0 0 -26c11,-3 19,-6 23,-8 5,-2 8,-5 10,-9 3,-4 5,-9 6,-17 1,-7 2,-20 2,-37l0 -189c0,-21 0,-45 1,-73 0,-29 1,-49 2,-60l-8 0c-3,10 -6,20 -10,30 -3,10 -10,27 -19,53l-103 278 -68 0 -109 -313c-6,-17 -12,-35 -17,-52l-7 0c3,42 4,92 4,150l0 177c0,19 1,32 3,39 2,8 5,14 11,19 5,5 14,9 28,12l0 26 -146 0 0 -26c10,-2 17,-5 23,-8 5,-3 10,-8 12,-13 3,-5 5,-11 6,-19 0,-8 1,-18 1,-31l0 -333c0,-19 -1,-32 -3,-40 -2,-7 -5,-13 -10,-17 -5,-5 -14,-9 -29,-13l0 -26 192 0 106 316 116 -316 180 0 0 26z"/>
  <path class="fil19" d="M9476 5049c0,26 3,43 7,52 4,8 16,15 34,19l0 26 -201 0 0 -26c19,-4 30,-10 34,-18 5,-7 7,-25 7,-53l0 -151c0,-45 1,-79 3,-103l-2 0 -183 254c0,25 3,42 7,51 5,9 17,16 35,20l0 26 -202 0 0 -26c18,-4 29,-11 34,-19 5,-9 7,-26 7,-52l0 -332c0,-26 -2,-44 -7,-52 -5,-8 -16,-15 -34,-19l0 -26 202 0 0 26c-18,5 -30,12 -35,20 -4,8 -7,26 -7,52l0 169c0,32 -1,57 -2,76l2 0 182 -255c0,-21 -2,-36 -7,-44 -5,-8 -16,-14 -34,-18l0 -26 201 0 0 26c-18,4 -29,11 -34,19 -4,9 -7,26 -7,53l0 331z"/>
  <path class="fil19" d="M10595 5146l0 -26c11,-2 20,-4 26,-7 6,-3 11,-7 14,-12 3,-6 5,-13 6,-21 1,-8 1,-19 1,-31l0 -384 -31 0c-16,0 -27,2 -35,6 -9,3 -16,9 -22,17 -6,7 -11,18 -15,30 -5,13 -8,26 -11,37l-53 0 0 -135 453 0 0 135 -53 0c-5,-17 -8,-30 -11,-38 -3,-8 -6,-15 -10,-21 -3,-6 -7,-11 -11,-15 -3,-3 -8,-7 -12,-9 -4,-2 -10,-4 -16,-5 -7,-1 -15,-2 -26,-2l-28 0 0 384c0,14 1,24 2,31 0,7 2,13 4,17 2,4 4,8 7,11 3,2 7,5 13,7 5,2 12,4 21,5l0 26 -213 0z"/>
  <path class="fil19" d="M12124 4620l0 26c-20,3 -33,9 -39,18 -5,9 -8,27 -8,53l0 126c35,-3 64,-5 89,-5 64,0 112,13 144,37 32,25 48,64 48,118 0,102 -68,153 -205,153l-237 0 0 -26c18,-4 29,-11 34,-19 5,-9 7,-26 7,-52l0 -332c0,-26 -2,-44 -6,-52 -5,-8 -17,-15 -35,-19l0 -26 208 0zm-47 270l0 209c67,5 110,-2 131,-20 21,-18 31,-46 31,-85 0,-71 -35,-106 -105,-106l-13 0c-18,0 -33,0 -44,2z"/>
  <path class="fil19" d="M13352 5146l0 -26c18,-4 29,-11 34,-19 5,-9 7,-26 7,-52l0 -332c0,-26 -2,-44 -7,-52 -4,-8 -16,-15 -34,-19l0 -26 405 0 0 130 -53 0c-11,-36 -22,-59 -33,-69 -11,-10 -28,-15 -51,-15l-108 0 0 177c35,-3 65,-5 89,-5 65,0 113,13 145,37 32,25 48,64 48,118 0,102 -69,153 -205,153l-237 0zm160 -47c67,5 111,-2 132,-20 20,-18 31,-46 31,-85 0,-71 -35,-106 -105,-106l-14 0c-18,0 -32,0 -44,2l0 209z"/>
  <path class="fil19" d="M14898 4895l-74 0 0 154c0,25 3,42 7,51 5,9 17,16 35,20l0 26 -202 0 0 -26c17,-4 29,-11 34,-19 4,-9 7,-26 7,-52l0 -332c0,-26 -2,-44 -7,-52 -5,-8 -16,-15 -34,-19l0 -26 202 0 0 26c-18,5 -30,12 -35,20 -4,8 -7,26 -7,52l0 128 76 0c6,-75 29,-133 68,-172 40,-40 93,-60 161,-60 149,0 224,87 224,262 0,184 -78,276 -234,276 -145,0 -219,-86 -221,-257zm123 -18c0,77 8,135 25,173 16,38 44,57 82,57 68,0 103,-72 103,-215 0,-79 -9,-138 -26,-176 -17,-38 -43,-57 -80,-57 -36,0 -62,17 -79,51 -17,33 -25,89 -25,167z"/>
  <path class="fil19" d="M16633 4626l0 123 -53 0c-8,-25 -15,-41 -21,-50 -6,-8 -13,-15 -21,-20 -9,-5 -23,-8 -42,-8l-84 0 0 185 51 0c11,0 20,-1 26,-5 7,-3 12,-8 16,-16 4,-7 8,-19 12,-34l44 0 0 156 -44 0c-3,-15 -7,-26 -12,-34 -4,-8 -9,-13 -15,-17 -6,-3 -15,-5 -27,-5l-51 0 0 206 83 0c9,0 17,-1 23,-2 6,-1 12,-3 17,-6 5,-3 9,-7 14,-11 4,-5 8,-11 12,-16 3,-6 7,-13 11,-23 3,-9 8,-22 12,-38l53 0 -7 141 -379 0 0 -26c10,-2 17,-5 23,-8 5,-3 9,-7 12,-12 3,-5 5,-12 5,-20 1,-8 2,-19 2,-31l0 -332c0,-12 -1,-22 -2,-30 0,-8 -2,-15 -5,-20 -2,-5 -6,-9 -12,-13 -5,-3 -13,-6 -23,-8l0 -26 382 0zm-222 -137l0 85 -81 0 0 -85 81 0zm148 0l0 85 -80 0 0 -85 80 0z"/>
  <path class="fil21" d="M1051 6085l55 17c-8,31 -22,54 -42,69 -20,15 -45,23 -75,23 -37,0 -68,-13 -92,-39 -24,-25 -36,-60 -36,-105 0,-47 12,-83 36,-109 24,-26 56,-39 96,-39 34,0 62,10 84,30 13,12 22,30 29,52l-57 14c-3,-15 -10,-26 -21,-35 -10,-8 -23,-12 -38,-12 -21,0 -38,7 -51,22 -13,15 -20,39 -20,73 0,36 7,61 20,76 12,15 29,23 50,23 15,0 28,-5 39,-15 11,-9 19,-24 23,-45z"/>
  <polygon id="1" class="fil21" points="1209,6189 1209,5954 1126,5954 1126,5907 1349,5907 1349,5954 1266,5954 1266,6189 "/>
  <polygon id="2" class="fil21" points="1386,6189 1386,5907 1595,5907 1595,5954 1443,5954 1443,6017 1585,6017 1585,6065 1443,6065 1443,6141 1601,6141 1601,6189 "/>
  <path id="3" class="fil21" d="M1649 6189l0 -282 92 0c34,0 57,1 67,4 16,4 30,13 41,28 11,14 16,32 16,55 0,17 -3,31 -9,43 -7,12 -14,21 -24,28 -10,7 -20,11 -30,13 -13,3 -33,5 -59,5l-37 0 0 106 -57 0zm57 -235l0 81 31 0c23,0 38,-2 45,-5 8,-3 14,-7 18,-14 4,-6 6,-13 6,-22 0,-10 -3,-18 -9,-25 -6,-7 -13,-11 -22,-13 -7,-1 -21,-2 -41,-2l-28 0z"/>
  <polygon id="4" class="fil21" points="1912,6189 1912,5907 2121,5907 2121,5954 1969,5954 1969,6017 2110,6017 2110,6065 1969,6065 1969,6141 2126,6141 2126,6189 "/>
  <polygon id="5" class="fil21" points="2238,6189 2238,5954 2155,5954 2155,5907 2379,5907 2379,5954 2296,5954 2296,6189 "/>
  <path id="6" class="fil21" d="M2417 5907l57 0 0 112 76 0c36,0 62,9 78,26 16,17 24,37 24,60 0,19 -5,36 -14,49 -10,14 -21,23 -34,28 -12,5 -30,7 -54,7l-133 0 0 -282zm57 234l55 0c18,0 31,-1 38,-2 7,-2 13,-6 18,-12 6,-6 8,-14 8,-23 0,-12 -4,-22 -13,-28 -10,-6 -26,-9 -48,-9l-58 0 0 74z"/>
  <path class="fil21" d="M1372 6323l113 0c22,0 39,1 50,3 11,2 21,6 29,12 9,6 16,14 22,23 6,10 9,21 9,33 0,13 -4,26 -11,37 -7,11 -17,19 -29,24 17,5 30,14 40,26 9,12 14,26 14,43 0,13 -3,25 -9,37 -6,12 -15,22 -25,29 -10,8 -23,12 -38,14 -10,1 -33,1 -69,2l-96 0 0 -283zm57 47l0 65 38 0c22,0 35,0 41,-1 10,-1 17,-4 23,-10 5,-5 8,-13 8,-22 0,-8 -2,-15 -7,-21 -5,-5 -12,-9 -21,-10 -6,0 -22,-1 -49,-1l-33 0zm0 112l0 76 53 0c21,0 34,-1 39,-2 9,-1 15,-5 21,-11 5,-6 8,-14 8,-24 0,-9 -2,-16 -6,-22 -4,-6 -10,-10 -18,-13 -8,-2 -25,-4 -51,-4l-46 0z"/>
  <path id="1" class="fil21" d="M1822 6502l55 17c-8,31 -22,54 -42,69 -20,15 -45,22 -75,22 -37,0 -68,-12 -92,-38 -25,-26 -37,-61 -37,-105 0,-47 13,-84 37,-110 24,-26 56,-39 95,-39 35,0 63,11 85,31 12,12 22,29 29,52l-57 14c-3,-15 -10,-27 -21,-35 -10,-9 -23,-13 -38,-13 -21,0 -38,8 -51,23 -13,15 -20,39 -20,73 0,35 7,61 19,76 13,15 30,23 50,23 16,0 29,-5 40,-15 11,-10 18,-25 23,-45z"/>
  <polygon id="2" class="fil21" points="1926,6606 1926,6323 2135,6323 2135,6371 1983,6371 1983,6434 2124,6434 2124,6481 1983,6481 1983,6558 2141,6558 2141,6606 "/>
  <path class="fil21" d="M17081 5902l113 0c23,0 39,1 50,2 11,2 21,6 30,12 8,6 16,14 21,24 6,9 9,20 9,32 0,14 -3,26 -11,37 -7,11 -16,19 -28,25 17,5 30,13 39,25 9,12 14,26 14,43 0,13 -3,25 -9,37 -6,12 -14,22 -25,30 -10,7 -23,11 -38,13 -9,1 -32,2 -68,2l-97 0 0 -282zm58 47l0 65 37 0c22,0 36,-1 41,-1 10,-2 18,-5 23,-10 6,-6 9,-13 9,-22 0,-9 -3,-16 -8,-22 -4,-5 -12,-8 -21,-9 -6,-1 -22,-1 -49,-1l-32 0zm0 111l0 76 52 0c21,0 34,0 39,-2 9,-1 16,-5 21,-11 6,-6 8,-14 8,-24 0,-8 -2,-16 -6,-22 -4,-5 -10,-10 -18,-12 -8,-3 -24,-5 -50,-5l-46 0z"/>
  <path id="1" class="fil21" d="M17368 5902l57 0 0 112 76 0c20,0 37,3 51,9 15,5 27,15 37,29 9,14 14,30 14,48 0,19 -5,36 -15,50 -10,13 -21,23 -33,27 -13,5 -31,7 -54,7l-133 0 0 -282zm57 234l55 0c18,0 30,-1 37,-2 7,-2 14,-6 19,-12 6,-6 8,-14 8,-23 0,-12 -4,-21 -13,-28 -9,-6 -25,-9 -48,-9l-58 0 0 74zm211 -234l57 0 0 282 -57 0 0 -282z"/>
  <path id="2" class="fil21" d="M17775 5902l194 0 0 234 25 0 0 109 -47 0 0 -61 -177 0 0 61 -48 0 0 -109 24 0c12,-24 19,-52 23,-84 4,-32 6,-72 6,-121l0 -29zm54 47c0,86 -8,148 -23,187l106 0 0 -187 -83 0z"/>
  <polygon id="3" class="fil21" points="18033,6184 18033,5902 18242,5902 18242,5949 18090,5949 18090,6012 18231,6012 18231,6060 18090,6060 18090,6136 18247,6136 18247,6184 "/>
  <path id="4" class="fil21" d="M18316 5902l197 0 0 282 -57 0 0 -235 -84 0 0 121c0,34 -2,58 -4,72 -2,14 -8,24 -17,32 -9,8 -23,11 -42,11 -6,0 -18,0 -36,-2l0 -44 13 0c12,0 20,-1 24,-4 4,-4 6,-11 6,-24l0 -48 0 -161z"/>
  <polygon id="5" class="fil21" points="18573,5902 18626,5902 18626,6089 18740,5902 18797,5902 18797,6184 18744,6184 18744,5999 18630,6184 18573,6184 "/>
  <polygon id="6" class="fil21" points="18919,6184 18919,5949 18835,5949 18835,5902 19059,5902 19059,5949 18976,5949 18976,6184 "/>
  <path id="7" class="fil21" d="M19097 5902l57 0 0 112 77 0c35,0 61,9 77,26 17,16 25,37 25,60 0,19 -5,36 -15,49 -10,14 -21,23 -33,28 -13,4 -31,7 -55,7l-133 0 0 -282zm57 234l56 0c18,0 30,-1 37,-2 7,-2 13,-6 19,-12 5,-6 8,-14 8,-23 0,-13 -5,-22 -14,-28 -9,-6 -25,-9 -48,-9l-58 0 0 74z"/>
  <path class="fil21" d="M17823 6323l113 0c22,0 39,1 50,3 11,2 20,6 29,12 9,6 16,14 22,23 5,10 8,21 8,33 0,13 -3,26 -10,37 -7,11 -17,19 -29,24 17,5 30,14 39,26 10,12 14,26 14,43 0,13 -3,25 -9,37 -6,12 -14,22 -24,29 -11,8 -23,12 -38,14 -10,1 -33,1 -69,2l-96 0 0 -283zm57 47l0 65 37 0c22,0 36,0 41,-1 10,-1 18,-4 23,-10 6,-5 9,-13 9,-22 0,-8 -3,-15 -7,-21 -5,-5 -12,-9 -22,-10 -5,0 -22,-1 -48,-1l-33 0zm0 112l0 76 53 0c20,0 33,-1 39,-2 8,-1 15,-5 20,-11 6,-6 8,-14 8,-24 0,-9 -2,-16 -6,-22 -4,-6 -10,-10 -18,-13 -7,-2 -24,-4 -50,-4l-46 0z"/>
  <path id="1" class="fil21" d="M18273 6502l55 17c-9,31 -23,54 -42,69 -20,15 -45,22 -75,22 -38,0 -69,-12 -93,-38 -24,-26 -36,-61 -36,-105 0,-47 12,-84 36,-110 25,-26 57,-39 96,-39 35,0 63,11 84,31 13,12 23,29 29,52l-56 14c-4,-15 -10,-27 -21,-35 -11,-9 -24,-13 -39,-13 -21,0 -38,8 -51,23 -13,15 -19,39 -19,73 0,35 6,61 19,76 13,15 30,23 50,23 15,0 28,-5 39,-15 11,-10 19,-25 24,-45z"/>
  <polygon id="2" class="fil21" points="18377,6606 18377,6323 18586,6323 18586,6371 18434,6371 18434,6434 18575,6434 18575,6481 18434,6481 18434,6558 18591,6558 18591,6606 "/>
 </g>
</svg>
