<?xml version="1.0" encoding="UTF-8"?>
<!DOCTYPE svg PUBLIC "-//W3C//DTD SVG 1.1//EN" "http://www.w3.org/Graphics/SVG/1.1/DTD/svg11.dtd">
<!-- Creator: CorelDRAW X6 -->
<svg xmlns="http://www.w3.org/2000/svg" xml:space="preserve" width="197.52mm" height="70.1mm" version="1.1" style="shape-rendering:geometricPrecision; text-rendering:geometricPrecision; image-rendering:optimizeQuality; fill-rule:evenodd; clip-rule:evenodd"
viewBox="0 0 20132 7145"
 xmlns:xlink="http://www.w3.org/1999/xlink">
 <defs>
  <style type="text/css">
   <![CDATA[
    .str0 {stroke:black;stroke-width:20.3852}
    .fil0 {fill:none}
    .fil24 {fill:#FEFEFE}
    .fil16 {fill:black}
    .fil17 {fill:#344E65}
    .fil26 {fill:#8FCC56}
    .fil25 {fill:#B6D7F5}
    .fil22 {fill:#FEFEFE}
    .fil23 {fill:#FF0033}
    .fil21 {fill:#8FCC56;fill-rule:nonzero}
    .fil20 {fill:#B5AC4B;fill-rule:nonzero}
    .fil19 {fill:#B6D7F5;fill-rule:nonzero}
    .fil27 {fill:#E5E5E5;fill-rule:nonzero}
    .fil15 {fill:url(#id0)}
    .fil6 {fill:url(#id1)}
    .fil4 {fill:url(#id2)}
    .fil5 {fill:url(#id3)}
    .fil3 {fill:url(#id4)}
    .fil2 {fill:url(#id5)}
    .fil1 {fill:url(#id6)}
    .fil7 {fill:url(#id7)}
    .fil13 {fill:url(#id8)}
    .fil11 {fill:url(#id9)}
    .fil8 {fill:url(#id10)}
    .fil10 {fill:url(#id11)}
    .fil9 {fill:url(#id12)}
    .fil14 {fill:url(#id13)}
    .fil12 {fill:url(#id14)}
    .fil18 {fill:url(#id15)}
   ]]>
  </style>
  <linearGradient id="id0" gradientUnits="userSpaceOnUse" x1="13714.3" y1="6262.81" x2="15083.8" y2="6492.04">
   <stop offset="0" style="stop-color:#8FCC56"/>
   <stop offset="0.301961" style="stop-color:#303924"/>
   <stop offset="0.380392" style="stop-color:#596937"/>
   <stop offset="0.470588" style="stop-color:#B6D7F5"/>
   <stop offset="0.768627" style="stop-color:#344E65"/>
   <stop offset="0.909804" style="stop-color:#63602B"/>
   <stop offset="1" style="stop-color:#B5AC4B"/>
  </linearGradient>
  <linearGradient id="id1" gradientUnits="objectBoundingBox" xlink:href="#id0" x1="3.61584%" y1="38.0697%" x2="96.3842%" y2="61.9303%">
  </linearGradient>
  <linearGradient id="id2" gradientUnits="objectBoundingBox" xlink:href="#id0" x1="6.89735%" y1="35.0417%" x2="93.1023%" y2="64.9583%">
  </linearGradient>
  <linearGradient id="id3" gradientUnits="userSpaceOnUse" xlink:href="#id0" x1="17512.8" y1="4777.06" x2="19879.1" y2="5173.13">
  </linearGradient>
  <linearGradient id="id4" gradientUnits="userSpaceOnUse" xlink:href="#id0" x1="16902.2" y1="6137.37" x2="19770.5" y2="6617.48">
  </linearGradient>
  <linearGradient id="id5" gradientUnits="userSpaceOnUse" xlink:href="#id0" x1="365.905" y1="6135.04" x2="3262.18" y2="6619.82">
  </linearGradient>
  <linearGradient id="id6" gradientUnits="userSpaceOnUse" xlink:href="#id0" x1="7276.54" y1="5910.48" x2="12855.9" y2="6844.37">
  </linearGradient>
  <linearGradient id="id7" gradientUnits="userSpaceOnUse" xlink:href="#id0" x1="18622.6" y1="86.892" x2="19452.5" y2="1449.32">
  </linearGradient>
  <linearGradient id="id8" gradientUnits="objectBoundingBox" xlink:href="#id0" x1="26.4069%" y1="11.2693%" x2="73.5923%" y2="88.7307%">
  </linearGradient>
  <linearGradient id="id9" gradientUnits="objectBoundingBox" xlink:href="#id0" x1="26.4071%" y1="11.2693%" x2="73.5929%" y2="88.7307%">
  </linearGradient>
  <linearGradient id="id10" gradientUnits="objectBoundingBox" xlink:href="#id0" x1="26.4071%" y1="11.2693%" x2="73.5929%" y2="88.7307%">
  </linearGradient>
  <linearGradient id="id11" gradientUnits="objectBoundingBox" xlink:href="#id0" x1="26.4069%" y1="11.2701%" x2="73.5923%" y2="88.7299%">
  </linearGradient>
  <linearGradient id="id12" gradientUnits="userSpaceOnUse" xlink:href="#id0" x1="11206.3" y1="3053.77" x2="11838.6" y2="4091.76">
  </linearGradient>
  <linearGradient id="id13" gradientUnits="objectBoundingBox" xlink:href="#id0" x1="26.4066%" y1="11.2701%" x2="73.5927%" y2="88.7299%">
  </linearGradient>
  <linearGradient id="id14" gradientUnits="userSpaceOnUse" xlink:href="#id0" x1="16959.5" y1="3053.77" x2="17591.8" y2="4091.76">
  </linearGradient>
  <linearGradient id="id15" gradientUnits="userSpaceOnUse" xlink:href="#id0" x1="162.317" y1="354.815" x2="665.527" y2="1180.89">
  </linearGradient>
 </defs>
 <g id="Layer_x0020_1">
  <metadata id="CorelCorpID_0Corel-Layer"/>
  <rect class="fil0" width="20132" height="7145" rx="205" ry="214"/>
  <g id="_594951240">
   <path class="fil1" d="M6502 5892c0,-107 78,-185 184,-185l6760 0c107,0 185,78 185,185l0 971c0,107 -78,184 -185,184l-6760 0c-106,0 -184,-77 -184,-184l0 -971z"/>
   <path class="fil2" d="M65 5892c0,-107 78,-185 185,-185l3128 0c107,0 185,78 185,185l0 971c0,107 -78,184 -185,184l-3128 0c-107,0 -185,-77 -185,-184l0 -971z"/>
   <path class="fil3" d="M16606 5892c0,-107 78,-185 184,-185l3093 0c106,0 184,78 184,185l0 971c0,107 -78,184 -184,184l-3093 0c-106,0 -184,-77 -184,-184l0 -971z"/>
   <path class="fil4" d="M3661 5892c0,-107 78,-185 185,-185l2409 0c106,0 184,78 184,185l0 971c0,107 -78,184 -184,184l-2409 0c-107,0 -185,-77 -185,-184l0 -971z"/>
   <path class="fil4" d="M65 4490c0,-107 78,-185 185,-185l2409 0c107,0 185,78 185,185l0 971c0,106 -78,184 -185,184l-2409 0c-107,0 -185,-78 -185,-184l0 -971z"/>
   <path class="fil5" d="M17325 4490c0,-107 78,-185 184,-185l2374 0c106,0 184,78 184,185l0 971c0,106 -78,184 -184,184l-2374 0c-106,0 -184,-78 -184,-184l0 -971z"/>
   <path class="fil6" d="M18008 3087c0,-106 78,-184 185,-184l1690 0c106,0 184,78 184,184l0 971c0,107 -78,185 -184,185l-1690 0c-107,0 -185,-78 -185,-185l0 -971z"/>
   <path class="fil6" d="M65 3087c0,-106 78,-184 185,-184l1690 0c107,0 184,78 184,184l0 971c0,107 -77,185 -184,185l-1690 0c-107,0 -185,-78 -185,-185l0 -971z"/>
   <path class="fil7" d="M18008 283c0,-107 78,-185 185,-185l1690 0c106,0 184,78 184,185l0 971c0,106 -78,184 -184,184l-1690 0c-107,0 -185,-78 -185,-184l0 -971z"/>
   <path class="fil8" d="M9414 3087c0,-106 78,-184 185,-184l971 0c106,0 184,78 184,184l0 971c0,107 -78,185 -184,185l-971 0c-107,0 -185,-78 -185,-185l0 -971z"/>
   <path class="fil9" d="M10852 3087c0,-106 78,-184 185,-184l971 0c107,0 185,78 185,184l0 971c0,107 -78,185 -185,185l-971 0c-107,0 -185,-78 -185,-185l0 -971z"/>
   <path class="fil10" d="M10852 283c0,-107 78,-185 185,-185l971 0c107,0 185,78 185,185l0 971c0,106 -78,184 -185,184l-971 0c-107,0 -185,-78 -185,-184l0 -971z"/>
   <path class="fil11" d="M9414 283c0,-107 78,-185 185,-185l971 0c106,0 184,78 184,185l0 971c0,106 -78,184 -184,184l-971 0c-107,0 -185,-78 -185,-184l0 -971z"/>
   <path class="fil12" d="M16606 3087c0,-106 78,-184 184,-184l971 0c107,0 185,78 185,184l0 971c0,107 -78,185 -185,185l-971 0c-106,0 -184,-78 -184,-185l0 -971z"/>
   <path class="fil8" d="M15167 3087c0,-106 78,-184 185,-184l971 0c106,0 184,78 184,184l0 971c0,107 -78,185 -184,185l-971 0c-107,0 -185,-78 -185,-185l0 -971z"/>
   <path class="fil8" d="M3661 3087c0,-106 78,-184 185,-184l970 0c107,0 185,78 185,184l0 971c0,107 -78,185 -185,185l-970 0c-107,0 -185,-78 -185,-185l0 -971z"/>
   <path class="fil8" d="M5099 3087c0,-106 78,-184 185,-184l971 0c106,0 184,78 184,184l0 971c0,107 -78,185 -184,185l-971 0c-107,0 -185,-78 -185,-185l0 -971z"/>
   <path class="fil8" d="M6538 3087c0,-106 78,-184 184,-184l971 0c107,0 185,78 185,184l0 971c0,107 -78,185 -185,185l-971 0c-106,0 -184,-78 -184,-185l0 -971z"/>
   <path class="fil10" d="M7252 1685c0,-107 78,-185 185,-185l970 0c107,0 185,78 185,185l0 971c0,107 -78,184 -185,184l-970 0c-107,0 -185,-77 -185,-184l0 -971z"/>
   <path class="fil13" d="M8690 1685c0,-107 78,-185 185,-185l971 0c106,0 184,78 184,185l0 971c0,107 -78,184 -184,184l-971 0c-107,0 -185,-77 -185,-184l0 -971z"/>
   <path class="fil10" d="M17325 1685c0,-107 78,-185 184,-185l971 0c107,0 185,78 185,185l0 971c0,107 -78,184 -185,184l-971 0c-106,0 -184,-77 -184,-184l0 -971z"/>
   <path class="fil11" d="M10144 4490c0,-107 78,-185 185,-185l971 0c106,0 184,78 184,185l0 971c0,106 -78,184 -184,184l-971 0c-107,0 -185,-78 -185,-184l0 -971z"/>
   <path class="fil13" d="M8690 4490c0,-107 78,-185 185,-185l971 0c106,0 184,78 184,185l0 971c0,106 -78,184 -184,184l-971 0c-107,0 -185,-78 -185,-184l0 -971z"/>
   <path class="fil10" d="M7262 4490c0,-107 78,-185 185,-185l971 0c106,0 184,78 184,185l0 971c0,106 -78,184 -184,184l-971 0c-107,0 -185,-78 -185,-184l0 -971z"/>
   <path class="fil8" d="M7976 3087c0,-106 78,-184 184,-184l971 0c107,0 185,78 185,184l0 971c0,107 -78,185 -185,185l-971 0c-106,0 -184,-78 -184,-185l0 -971z"/>
   <path class="fil8" d="M12291 3087c0,-106 78,-184 184,-184l971 0c107,0 185,78 185,184l0 971c0,107 -78,185 -185,185l-971 0c-106,0 -184,-78 -184,-185l0 -971z"/>
   <path class="fil8" d="M13729 3087c0,-106 78,-184 185,-184l970 0c107,0 185,78 185,184l0 971c0,107 -78,185 -185,185l-970 0c-107,0 -185,-78 -185,-185l0 -971z"/>
   <path class="fil8" d="M2223 3087c0,-106 78,-184 184,-184l971 0c107,0 185,78 185,184l0 971c0,107 -78,185 -185,185l-971 0c-106,0 -184,-78 -184,-185l0 -971z"/>
   <path class="fil11" d="M3661 283c0,-107 78,-185 185,-185l970 0c107,0 185,78 185,185l0 971c0,106 -78,184 -185,184l-970 0c-107,0 -185,-78 -185,-184l0 -971z"/>
   <path class="fil11" d="M5099 283c0,-107 78,-185 185,-185l971 0c106,0 184,78 184,185l0 971c0,106 -78,184 -184,184l-971 0c-107,0 -185,-78 -185,-184l0 -971z"/>
   <path class="fil11" d="M6538 283c0,-107 78,-185 184,-185l971 0c107,0 185,78 185,185l0 971c0,106 -78,184 -185,184l-971 0c-106,0 -184,-78 -184,-184l0 -971z"/>
   <path class="fil11" d="M15167 283c0,-107 78,-185 185,-185l971 0c106,0 184,78 184,185l0 971c0,106 -78,184 -184,184l-971 0c-107,0 -185,-78 -185,-184l0 -971z"/>
   <path class="fil14" d="M16606 283c0,-107 78,-185 184,-185l971 0c107,0 185,78 185,185l0 971c0,106 -78,184 -185,184l-971 0c-106,0 -184,-78 -184,-184l0 -971z"/>
   <path class="fil11" d="M15167 5892c0,-107 78,-185 185,-185l971 0c106,0 184,78 184,185l0 971c0,107 -78,184 -184,184l-971 0c-107,0 -185,-77 -185,-184l0 -971z"/>
   <path class="fil15" d="M13729 5892c0,-107 78,-185 185,-185l970 0c107,0 185,78 185,185l0 971c0,107 -78,184 -185,184l-970 0c-107,0 -185,-77 -185,-184l0 -971z"/>
   <path class="fil11" d="M784 283c0,-107 78,-185 185,-185l971 0c107,0 184,78 184,185l0 971c0,106 -77,184 -184,184l-971 0c-107,0 -185,-78 -185,-184l0 -971z"/>
   <path class="fil11" d="M2223 283c0,-107 78,-185 184,-185l971 0c107,0 185,78 185,185l0 971c0,106 -78,184 -185,184l-971 0c-106,0 -184,-78 -184,-184l0 -971z"/>
   <path class="fil11" d="M7976 283c0,-107 78,-185 184,-185l971 0c107,0 185,78 185,185l0 971c0,106 -78,184 -185,184l-971 0c-106,0 -184,-78 -184,-184l0 -971z"/>
   <path class="fil11" d="M12291 283c0,-107 78,-185 184,-185l971 0c107,0 185,78 185,185l0 971c0,106 -78,184 -185,184l-971 0c-106,0 -184,-78 -184,-184l0 -971z"/>
   <path class="fil11" d="M13729 283c0,-107 78,-185 185,-185l970 0c107,0 185,78 185,185l0 971c0,106 -78,184 -185,184l-970 0c-107,0 -185,-78 -185,-184l0 -971z"/>
   <path class="fil14" d="M2937 1685c0,-107 78,-185 185,-185l971 0c106,0 184,78 184,185l0 971c0,107 -78,184 -184,184l-971 0c-107,0 -185,-77 -185,-184l0 -971z"/>
   <path class="fil11" d="M11567 1685c0,-107 78,-185 184,-185l971 0c107,0 185,78 185,185l0 971c0,107 -78,184 -185,184l-971 0c-106,0 -184,-77 -184,-184l0 -971z"/>
   <path class="fil11" d="M101 1685c0,-107 78,-185 185,-185l971 0c106,0 184,78 184,185l0 971c0,107 -78,184 -184,184l-971 0c-107,0 -185,-77 -185,-184l0 -971z"/>
   <path class="fil11" d="M1499 1685c0,-107 78,-185 184,-185l971 0c107,0 185,78 185,185l0 971c0,107 -78,184 -185,184l-971 0c-106,0 -184,-77 -184,-184l0 -971z"/>
   <path class="fil11" d="M18727 1685c0,-107 78,-185 185,-185l971 0c106,0 184,78 184,185l0 971c0,107 -78,184 -184,184l-971 0c-107,0 -185,-77 -185,-184l0 -971z"/>
   <path class="fil11" d="M14443 1685c0,-107 78,-185 185,-185l971 0c107,0 184,78 184,185l0 971c0,107 -77,184 -184,184l-971 0c-107,0 -185,-77 -185,-184l0 -971z"/>
   <path class="fil11" d="M13005 1685c0,-107 78,-185 185,-185l971 0c106,0 184,78 184,185l0 971c0,107 -78,184 -184,184l-971 0c-107,0 -185,-77 -185,-184l0 -971z"/>
   <path class="fil11" d="M13015 4490c0,-107 78,-185 185,-185l971 0c106,0 184,78 184,185l0 971c0,106 -78,184 -184,184l-971 0c-107,0 -185,-78 -185,-184l0 -971z"/>
   <path class="fil11" d="M14454 4490c0,-107 77,-185 184,-185l971 0c107,0 185,78 185,185l0 971c0,106 -78,184 -185,184l-971 0c-107,0 -184,-78 -184,-184l0 -971z"/>
   <path class="fil11" d="M4375 1685c0,-107 78,-185 185,-185l971 0c106,0 184,78 184,185l0 971c0,107 -78,184 -184,184l-971 0c-107,0 -185,-77 -185,-184l0 -971z"/>
   <path class="fil11" d="M5814 1685c0,-107 78,-185 184,-185l971 0c107,0 185,78 185,185l0 971c0,107 -78,184 -185,184l-971 0c-106,0 -184,-77 -184,-184l0 -971z"/>
   <path class="fil14" d="M15882 1685c0,-107 78,-185 184,-185l971 0c107,0 185,78 185,185l0 971c0,107 -78,184 -185,184l-971 0c-106,0 -184,-77 -184,-184l0 -971z"/>
   <path class="fil14" d="M10129 1685c0,-107 77,-185 184,-185l971 0c107,0 185,78 185,185l0 971c0,107 -78,184 -185,184l-971 0c-107,0 -184,-77 -184,-184l0 -971z"/>
   <path class="fil11" d="M11572 4490c0,-107 78,-185 185,-185l971 0c106,0 184,78 184,185l0 971c0,106 -78,184 -184,184l-971 0c-107,0 -185,-78 -185,-184l0 -971z"/>
   <path class="fil14" d="M15892 4490c0,-107 78,-185 184,-185l971 0c107,0 185,78 185,185l0 971c0,106 -78,184 -185,184l-971 0c-106,0 -184,-78 -184,-184l0 -971z"/>
   <path class="fil14" d="M2942 4490c0,-107 78,-185 184,-185l971 0c107,0 185,78 185,185l0 971c0,106 -78,184 -185,184l-971 0c-106,0 -184,-78 -184,-184l0 -971z"/>
   <path class="fil11" d="M4375 4490c0,-107 78,-185 185,-185l971 0c106,0 184,78 184,185l0 971c0,106 -78,184 -184,184l-971 0c-107,0 -185,-78 -185,-184l0 -971z"/>
   <path class="fil11" d="M5814 4490c0,-107 78,-185 184,-185l971 0c107,0 185,78 185,185l0 971c0,106 -78,184 -185,184l-971 0c-106,0 -184,-78 -184,-184l0 -971z"/>
  </g>
  <path class="fil16" d="M8017 3087l0 971c0,84 59,144 143,144l971 0c85,0 144,-60 144,-144l0 -971c0,-84 -59,-143 -144,-143l-971 0c-84,0 -143,59 -143,143z"/>
  <path class="fil16" d="M6542 5892l0 971c0,84 60,144 144,144l6760 0c84,0 144,-60 144,-144l0 -971c0,-84 -60,-144 -144,-144l-6760 0c-84,0 -144,60 -144,144z"/>
  <path class="fil16" d="M106 5892l0 971c0,84 60,144 144,144l3128 0c84,0 144,-60 144,-144l0 -971c0,-84 -60,-144 -144,-144l-3128 0c-84,0 -144,60 -144,144z"/>
  <path class="fil16" d="M16646 5892l0 971c0,84 60,144 144,144l3093 0c84,0 143,-60 143,-144l0 -971c0,-84 -59,-144 -143,-144l-3093 0c-84,0 -144,60 -144,144z"/>
  <path class="fil16" d="M3702 5892l0 971c0,84 59,144 144,144l2409 0c84,0 144,-60 144,-144l0 -971c0,-84 -60,-144 -144,-144l-2409 0c-85,0 -144,60 -144,144z"/>
  <path class="fil16" d="M106 4490l0 971c0,84 60,143 144,143l2409 0c84,0 144,-59 144,-143l0 -971c0,-84 -60,-144 -144,-144l-2409 0c-84,0 -144,60 -144,144z"/>
  <path class="fil16" d="M17366 4490l0 971c0,84 59,143 143,143l2374 0c84,0 143,-59 143,-143l0 -971c0,-84 -59,-144 -143,-144l-2374 0c-84,0 -143,60 -143,144z"/>
  <path class="fil17" d="M18049 3087l0 971c0,84 59,144 144,144l1690 0c84,0 143,-60 143,-144l0 -971c0,-84 -59,-143 -143,-143l-1690 0c-85,0 -144,59 -144,143z"/>
  <path class="fil16" d="M106 3087l0 971c0,84 60,144 144,144l1690 0c84,0 144,-60 144,-144l0 -971c0,-84 -60,-143 -144,-143l-1690 0c-84,0 -144,59 -144,143z"/>
  <path class="fil16" d="M18049 283l0 971c0,84 59,143 144,143l1690 0c84,0 143,-59 143,-143l0 -971c0,-84 -59,-144 -143,-144l-1690 0c-85,0 -144,60 -144,144z"/>
  <path class="fil16" d="M9455 3087l0 971c0,84 60,144 144,144l971 0c84,0 143,-60 143,-144l0 -971c0,-84 -59,-143 -143,-143l-971 0c-84,0 -144,59 -144,143z"/>
  <path class="fil16" d="M10893 3087l0 971c0,84 60,144 144,144l971 0c84,0 144,-60 144,-144l0 -971c0,-84 -60,-143 -144,-143l-971 0c-84,0 -144,59 -144,143z"/>
  <path class="fil16" d="M10893 283l0 971c0,84 60,143 144,143l971 0c84,0 144,-59 144,-143l0 -971c0,-84 -60,-144 -144,-144l-971 0c-84,0 -144,60 -144,144z"/>
  <path class="fil16" d="M9455 283l0 971c0,84 60,143 144,143l971 0c84,0 143,-59 143,-143l0 -971c0,-84 -59,-144 -143,-144l-971 0c-84,0 -144,60 -144,144z"/>
  <path class="fil16" d="M16646 3087l0 971c0,84 60,144 144,144l971 0c84,0 144,-60 144,-144l0 -971c0,-84 -60,-143 -144,-143l-971 0c-84,0 -144,59 -144,143z"/>
  <path class="fil16" d="M15208 3087l0 971c0,84 60,144 144,144l971 0c84,0 144,-60 144,-144l0 -971c0,-84 -60,-143 -144,-143l-971 0c-84,0 -144,59 -144,143z"/>
  <path class="fil16" d="M3702 3087l0 971c0,84 59,144 144,144l970 0c85,0 144,-60 144,-144l0 -971c0,-84 -59,-143 -144,-143l-970 0c-85,0 -144,59 -144,143z"/>
  <path class="fil16" d="M5140 3087l0 971c0,84 60,144 144,144l971 0c84,0 144,-60 144,-144l0 -971c0,-84 -60,-143 -144,-143l-971 0c-84,0 -144,59 -144,143z"/>
  <path class="fil16" d="M6578 3087l0 971c0,84 60,144 144,144l971 0c84,0 144,-60 144,-144l0 -971c0,-84 -60,-143 -144,-143l-971 0c-84,0 -144,59 -144,143z"/>
  <path class="fil16" d="M7293 1685l0 971c0,84 59,144 144,144l970 0c85,0 144,-60 144,-144l0 -971c0,-84 -59,-144 -144,-144l-970 0c-85,0 -144,60 -144,144z"/>
  <path class="fil16" d="M8731 1685l0 971c0,84 60,144 144,144l971 0c84,0 144,-60 144,-144l0 -971c0,-84 -60,-144 -144,-144l-971 0c-84,0 -144,60 -144,144z"/>
  <path class="fil16" d="M17366 1685l0 971c0,84 59,144 143,144l971 0c84,0 144,-60 144,-144l0 -971c0,-84 -60,-144 -144,-144l-971 0c-84,0 -143,60 -143,144z"/>
  <path class="fil16" d="M10185 4490l0 971c0,84 60,143 144,143l971 0c84,0 143,-59 143,-143l0 -971c0,-84 -59,-144 -143,-144l-971 0c-84,0 -144,60 -144,144z"/>
  <path class="fil16" d="M8731 4490l0 971c0,84 60,143 144,143l971 0c84,0 144,-59 144,-143l0 -971c0,-84 -60,-144 -144,-144l-971 0c-84,0 -144,60 -144,144z"/>
  <path class="fil16" d="M7303 4490l0 971c0,84 60,143 144,143l971 0c84,0 143,-59 143,-143l0 -971c0,-84 -59,-144 -143,-144l-971 0c-84,0 -144,60 -144,144z"/>
  <path class="fil16" d="M12332 3087l0 971c0,84 59,144 143,144l971 0c84,0 144,-60 144,-144l0 -971c0,-84 -60,-143 -144,-143l-971 0c-84,0 -143,59 -143,143z"/>
  <path class="fil16" d="M13770 3087l0 971c0,84 59,144 144,144l970 0c85,0 144,-60 144,-144l0 -971c0,-84 -59,-143 -144,-143l-970 0c-85,0 -144,59 -144,143z"/>
  <path class="fil16" d="M2264 3087l0 971c0,84 59,144 143,144l971 0c84,0 144,-60 144,-144l0 -971c0,-84 -60,-143 -144,-143l-971 0c-84,0 -143,59 -143,143z"/>
  <path class="fil16" d="M3702 283l0 971c0,84 59,143 144,143l970 0c85,0 144,-59 144,-143l0 -971c0,-84 -59,-144 -144,-144l-970 0c-85,0 -144,60 -144,144z"/>
  <path class="fil16" d="M5140 283l0 971c0,84 60,143 144,143l971 0c84,0 144,-59 144,-143l0 -971c0,-84 -60,-144 -144,-144l-971 0c-84,0 -144,60 -144,144z"/>
  <path class="fil16" d="M6578 283l0 971c0,84 60,143 144,143l971 0c84,0 144,-59 144,-143l0 -971c0,-84 -60,-144 -144,-144l-971 0c-84,0 -144,60 -144,144z"/>
  <path class="fil16" d="M15208 283l0 971c0,84 60,143 144,143l971 0c84,0 144,-59 144,-143l0 -971c0,-84 -60,-144 -144,-144l-971 0c-84,0 -144,60 -144,144z"/>
  <path class="fil16" d="M16646 283l0 971c0,84 60,143 144,143l971 0c84,0 144,-59 144,-143l0 -971c0,-84 -60,-144 -144,-144l-971 0c-84,0 -144,60 -144,144z"/>
  <path class="fil16" d="M15208 5892l0 971c0,84 60,144 144,144l971 0c84,0 144,-60 144,-144l0 -971c0,-84 -60,-144 -144,-144l-971 0c-84,0 -144,60 -144,144z"/>
  <path class="fil16" d="M13770 5892l0 971c0,84 59,144 144,144l970 0c85,0 144,-60 144,-144l0 -971c0,-84 -59,-144 -144,-144l-970 0c-85,0 -144,60 -144,144z"/>
  <path class="fil16" d="M825 283l0 971c0,84 60,143 144,143l971 0c84,0 144,-59 144,-143l0 -971c0,-84 -60,-144 -144,-144l-971 0c-84,0 -144,60 -144,144z"/>
  <path class="fil16" d="M2264 283l0 971c0,84 59,143 143,143l971 0c84,0 144,-59 144,-143l0 -971c0,-84 -60,-144 -144,-144l-971 0c-84,0 -143,60 -143,144z"/>
  <path class="fil16" d="M8017 283l0 971c0,84 59,143 143,143l971 0c85,0 144,-59 144,-143l0 -971c0,-84 -59,-144 -144,-144l-971 0c-84,0 -143,60 -143,144z"/>
  <path class="fil16" d="M12332 283l0 971c0,84 59,143 143,143l971 0c84,0 144,-59 144,-143l0 -971c0,-84 -60,-144 -144,-144l-971 0c-84,0 -143,60 -143,144z"/>
  <path class="fil16" d="M13770 283l0 971c0,84 59,143 144,143l970 0c85,0 144,-59 144,-143l0 -971c0,-84 -59,-144 -144,-144l-970 0c-85,0 -144,60 -144,144z"/>
  <path class="fil16" d="M2978 1685l0 971c0,84 60,144 144,144l971 0c84,0 143,-60 143,-144l0 -971c0,-84 -59,-144 -143,-144l-971 0c-84,0 -144,60 -144,144z"/>
  <path class="fil16" d="M11608 1685l0 971c0,84 59,144 143,144l971 0c84,0 144,-60 144,-144l0 -971c0,-84 -60,-144 -144,-144l-971 0c-84,0 -143,60 -143,144z"/>
  <path class="fil16" d="M142 1685l0 971c0,84 60,144 144,144l971 0c84,0 144,-60 144,-144l0 -971c0,-84 -60,-144 -144,-144l-971 0c-84,0 -144,60 -144,144z"/>
  <path class="fil16" d="M1540 1685l0 971c0,84 59,144 143,144l971 0c84,0 144,-60 144,-144l0 -971c0,-84 -60,-144 -144,-144l-971 0c-84,0 -143,60 -143,144z"/>
  <path class="fil16" d="M18768 1685l0 971c0,84 60,144 144,144l971 0c84,0 143,-60 143,-144l0 -971c0,-84 -59,-144 -143,-144l-971 0c-84,0 -144,60 -144,144z"/>
  <path class="fil16" d="M14484 1685l0 971c0,84 60,144 144,144l971 0c84,0 144,-60 144,-144l0 -971c0,-84 -60,-144 -144,-144l-971 0c-84,0 -144,60 -144,144z"/>
  <path class="fil16" d="M13046 1685l0 971c0,84 60,144 144,144l971 0c84,0 143,-60 143,-144l0 -971c0,-84 -59,-144 -143,-144l-971 0c-84,0 -144,60 -144,144z"/>
  <path class="fil16" d="M13056 4490l0 971c0,84 60,143 144,143l971 0c84,0 144,-59 144,-143l0 -971c0,-84 -60,-144 -144,-144l-971 0c-84,0 -144,60 -144,144z"/>
  <path class="fil16" d="M14494 4490l0 971c0,84 60,143 144,143l971 0c84,0 144,-59 144,-143l0 -971c0,-84 -60,-144 -144,-144l-971 0c-84,0 -144,60 -144,144z"/>
  <path class="fil16" d="M4416 1685l0 971c0,84 60,144 144,144l971 0c84,0 144,-60 144,-144l0 -971c0,-84 -60,-144 -144,-144l-971 0c-84,0 -144,60 -144,144z"/>
  <path class="fil16" d="M5854 1685l0 971c0,84 60,144 144,144l971 0c84,0 144,-60 144,-144l0 -971c0,-84 -60,-144 -144,-144l-971 0c-84,0 -144,60 -144,144z"/>
  <path class="fil16" d="M15922 1685l0 971c0,84 60,144 144,144l971 0c84,0 144,-60 144,-144l0 -971c0,-84 -60,-144 -144,-144l-971 0c-84,0 -144,60 -144,144z"/>
  <path class="fil16" d="M10169 1685l0 971c0,84 60,144 144,144l971 0c84,0 144,-60 144,-144l0 -971c0,-84 -60,-144 -144,-144l-971 0c-84,0 -144,60 -144,144z"/>
  <path class="fil16" d="M11613 4490l0 971c0,84 60,143 144,143l971 0c84,0 143,-59 143,-143l0 -971c0,-84 -59,-144 -143,-144l-971 0c-84,0 -144,60 -144,144z"/>
  <path class="fil16" d="M15933 4490l0 971c0,84 59,143 143,143l971 0c84,0 144,-59 144,-143l0 -971c0,-84 -60,-144 -144,-144l-971 0c-84,0 -143,60 -143,144z"/>
  <path class="fil16" d="M2983 4490l0 971c0,84 59,143 143,143l971 0c84,0 144,-59 144,-143l0 -971c0,-84 -60,-144 -144,-144l-971 0c-84,0 -143,60 -143,144z"/>
  <path class="fil16" d="M4416 4490l0 971c0,84 60,143 144,143l971 0c84,0 144,-59 144,-143l0 -971c0,-84 -60,-144 -144,-144l-971 0c-84,0 -144,60 -144,144z"/>
  <path class="fil16" d="M5854 4490l0 971c0,84 60,143 144,143l971 0c84,0 144,-59 144,-143l0 -971c0,-84 -60,-144 -144,-144l-971 0c-84,0 -144,60 -144,144z"/>
  <rect class="fil18" x="106" y="98" width="616" height="1341" rx="212" ry="212"/>
  <rect class="fil16" x="146" y="138" width="535" height="1259" rx="171" ry="306"/>
  <path class="fil19" d="M511 906l-103 0 -83 -162c-1,-1 -1,-1 -1,-2 -4,-10 -7,-21 -7,-34 0,-23 7,-42 22,-56 14,-15 33,-22 56,-22 22,0 40,8 55,22 15,15 22,34 22,56 0,27 -10,47 -31,61l70 137z"/>
  <polygon class="fil19" points="1233,1181 1187,1181 1187,822 1164,866 1118,866 1187,733 1233,733 "/>
  <path class="fil19" d="M1761 519l-40 0 0 -279 40 0 0 279zm0 93c0,6 -2,10 -6,14 -4,4 -9,6 -14,6 -6,0 -11,-2 -15,-6 -3,-4 -5,-8 -5,-14 0,-5 2,-10 5,-14 4,-4 9,-6 15,-6 5,0 10,2 14,6 4,4 6,9 6,14z"/>
  <path class="fil19" d="M2723 1183l-259 0 154 -275c5,-9 10,-18 15,-27 4,-9 7,-19 7,-29 0,-24 -8,-44 -24,-60 -16,-16 -36,-24 -60,-24 -24,0 -44,9 -60,25l-32 -33c24,-25 55,-38 92,-38 36,0 67,13 92,38 25,25 38,56 38,92 0,14 -4,29 -12,46 -8,14 -16,28 -24,42l-111 197 184 0 0 46z"/>
  <path class="fil19" d="M3363 436c0,49 -18,90 -52,125 -35,35 -76,52 -125,52 -49,0 -91,-17 -125,-52 -35,-35 -52,-76 -52,-125 0,-49 17,-91 52,-125 34,-35 76,-52 125,-52 49,0 90,17 125,52 34,34 52,76 52,125zm-35 0c0,-29 -7,-55 -21,-76 -13,-21 -31,-37 -52,-49 -22,-12 -45,-17 -69,-17 -30,0 -55,7 -77,21 -20,13 -36,30 -48,52 -12,22 -18,45 -18,69 0,29 7,55 21,76 14,21 31,37 53,49 21,11 44,17 69,17 41,0 75,-14 102,-42l-34 0 0 -20c-21,19 -45,28 -73,28 -30,0 -56,-10 -77,-31 -21,-21 -31,-47 -31,-77 0,-30 10,-55 31,-76 21,-21 47,-31 77,-31 28,0 52,9 73,29l0 -9 34 0 0 167 16 0c16,-24 24,-51 24,-80zm-74 0c0,-20 -7,-37 -22,-52 -14,-14 -31,-21 -51,-21 -21,0 -38,7 -52,22 -15,14 -22,31 -22,51 0,21 7,38 22,52 14,15 31,22 52,22 20,0 37,-7 51,-22 15,-14 22,-31 22,-52z"/>
  <path class="fil19" d="M4090 1042c0,39 -14,72 -43,97 -26,23 -59,37 -101,44l0 -44c27,0 51,-9 70,-28 19,-19 28,-42 28,-69 0,-35 -14,-62 -42,-81 28,-20 42,-47 42,-81 0,-27 -9,-50 -28,-69 -19,-19 -43,-29 -70,-29l0 -43c42,6 75,20 101,43 29,26 43,58 43,98 0,29 -8,56 -25,81 17,25 25,51 25,81z"/>
  <path class="fil19" d="M4749 365l-6 34 -35 0 -12 73 34 0 -6 35 -35 0 -17 97 -34 0 17 -97 -73 0 -17 97 -35 0 17 -97 -34 0 6 -35 35 0 13 -73 -36 0 7 -34 35 0 17 -97 34 0 -17 97 73 0 17 -97 35 0 -17 97 34 0zm-75 34l-73 0 -13 73 73 0 13 -73z"/>
  <path class="fil19" d="M5587 1059l-86 0 0 125 -46 0 0 -125 -122 0 168 -335 0 289 86 0 0 46zm-132 -46l0 -94 -47 94 47 0z"/>
  <path class="fil19" d="M6173 516c0,24 -8,45 -22,62 -15,18 -34,29 -58,33l0 23 -34 0 0 -22c-20,-4 -37,-13 -52,-28l24 -24c9,9 18,14 28,16l0 -124c-23,-4 -42,-15 -58,-33 -15,-18 -22,-39 -22,-63 0,-24 7,-45 22,-63 15,-18 34,-29 58,-33l0 -23 34 0 0 24c21,3 38,12 52,27l-24 24c-7,-8 -17,-13 -28,-16l0 125c24,3 43,14 58,32 14,18 22,39 22,63zm-114 -99l0 -121c-31,9 -46,29 -46,60 0,14 4,27 13,38 8,12 19,20 33,23zm79 99c0,-15 -4,-27 -12,-38 -8,-11 -19,-19 -33,-23l0 121c14,-4 25,-11 33,-23 8,-11 12,-23 12,-37z"/>
  <path class="fil19" d="M7019 1063c0,36 -13,67 -38,92 -25,25 -56,38 -91,38 -36,0 -67,-13 -92,-38l32 -32c16,16 36,24 60,24 23,0 43,-8 59,-24 16,-16 24,-36 24,-60 0,-13 -3,-27 -10,-39 -14,-29 -39,-44 -73,-44l-85 0 0 -247 192 0 0 46 -146 0 0 155 38 0c36,0 67,13 92,38 25,25 38,56 38,91z"/>
  <path class="fil19" d="M7524 328c0,17 -6,32 -17,43 -11,12 -26,18 -43,18 -17,0 -31,-6 -43,-18 -12,-11 -18,-26 -18,-43 0,-17 6,-31 18,-43 12,-11 26,-17 43,-17 17,0 32,5 43,17 11,11 17,26 17,43zm114 -60l-195 336 -40 0 195 -336 40 0zm0 276c0,17 -6,32 -17,43 -11,12 -26,17 -43,17 -17,0 -32,-6 -43,-17 -12,-12 -18,-26 -18,-43 0,-17 6,-32 18,-43 11,-12 25,-18 43,-18 17,0 31,6 43,17 11,12 17,26 17,44zm-148 -216c0,-7 -3,-13 -8,-18 -5,-5 -11,-8 -18,-8 -8,0 -14,3 -19,8 -5,5 -7,11 -7,18 0,7 2,14 7,19 5,4 11,7 19,7 7,0 13,-2 18,-7 5,-5 8,-11 8,-19zm114 216c0,-8 -3,-14 -8,-19 -5,-5 -11,-7 -18,-7 -7,0 -13,3 -19,8 -5,5 -7,11 -7,18 0,7 2,13 7,18 5,5 11,8 19,8 7,0 13,-3 18,-8 5,-4 8,-11 8,-18z"/>
  <path class="fil19" d="M8553 1025c0,45 -16,84 -48,116 -32,32 -70,48 -115,48 -46,0 -85,-16 -117,-48 -32,-32 -48,-70 -48,-116 0,-45 16,-83 47,-114l179 -179 64 0 -130 129c47,0 87,16 119,47 33,32 49,71 49,117zm-46 0c0,-18 -4,-36 -13,-54 -20,-42 -55,-64 -104,-64 -35,0 -63,12 -85,34 -22,22 -34,51 -34,84 0,33 12,61 35,84 23,23 51,34 84,34 33,0 60,-11 83,-34 23,-23 34,-51 34,-84z"/>
  <polygon class="fil19" points="9045,488 8993,488 8965,436 8938,488 8887,488 8940,384 8990,384 "/>
  <polygon class="fil19" points="9972,732 9741,1181 9694,1181 9902,777 9695,777 9695,731 "/>
  <path class="fil19" d="M10579 594l-64 -65 -67 67c-22,21 -49,32 -82,32 -35,0 -63,-12 -88,-36 -24,-24 -36,-53 -36,-87 0,-24 7,-45 20,-66 13,-20 30,-35 51,-45 -21,-17 -32,-39 -32,-66 0,-23 8,-43 25,-59 16,-17 36,-25 60,-25 23,0 43,8 59,24 16,17 25,37 25,60 0,27 -11,49 -32,66 12,6 26,16 41,31l55 56 65 -65 0 49 -40 40 40 41 0 48zm-164 -266c0,-14 -5,-26 -14,-35 -10,-10 -21,-15 -35,-15 -15,0 -26,5 -36,15 -9,9 -14,21 -14,35 0,14 5,26 14,35 10,10 21,15 36,15 13,0 25,-5 35,-15 9,-9 14,-21 14,-35zm75 177l-57 -57c-21,-21 -43,-31 -67,-31 -25,0 -46,9 -63,26 -17,17 -26,37 -26,62 0,25 9,45 26,63 17,17 38,25 63,25 24,0 44,-7 59,-22l65 -66z"/>
  <path class="fil19" d="M11355 1062c0,33 -12,62 -35,85 -24,24 -52,36 -86,36 -34,0 -62,-12 -85,-36 -24,-23 -36,-52 -36,-85 0,-24 6,-45 19,-65 13,-20 30,-34 51,-44 -21,-10 -38,-25 -51,-45 -13,-19 -19,-41 -19,-65 0,-33 12,-62 36,-85 23,-24 51,-36 85,-36 34,0 62,12 86,36 23,23 35,52 35,85 0,24 -6,46 -19,65 -12,19 -29,34 -50,45 21,10 38,25 50,44 13,20 19,41 19,65zm-46 -219c0,-21 -7,-39 -22,-53 -14,-14 -32,-22 -53,-22 -21,0 -38,8 -53,22 -14,15 -22,33 -22,53 0,21 8,38 22,53 15,15 33,22 53,22 21,0 39,-7 53,-22 15,-14 22,-32 22,-53zm0 219c0,-22 -7,-40 -22,-54 -14,-14 -32,-21 -53,-21 -21,0 -38,7 -53,22 -14,14 -22,32 -22,53 0,21 8,38 22,53 15,14 32,22 53,22 21,0 39,-8 53,-22 15,-15 22,-32 22,-53z"/>
  <polygon class="fil19" points="11971,456 11905,456 11952,503 11923,532 11876,485 11876,552 11836,552 11836,485 11788,532 11760,503 11807,456 11740,456 11740,416 11807,416 11760,369 11788,340 11836,387 11836,320 11876,320 11876,387 11923,340 11952,369 11905,416 11971,416 "/>
  <path class="fil19" d="M12886 887c0,46 -15,84 -47,115l-179 179 -64 0 130 -130c-47,0 -86,-15 -119,-46 -33,-32 -49,-71 -49,-117 0,-46 16,-84 48,-117 32,-32 71,-48 116,-48 45,0 84,16 116,49 32,32 48,70 48,115zm-46 0c0,-32 -11,-60 -34,-83 -23,-23 -51,-35 -84,-35 -33,0 -60,12 -83,35 -23,23 -35,51 -35,83 0,18 5,36 14,55 20,42 55,63 104,63 23,0 44,-6 63,-17 20,-12 34,-28 44,-48 7,-15 11,-32 11,-53z"/>
  <path class="fil19" d="M13360 626l-28 29c-61,-62 -91,-135 -91,-219 0,-86 30,-159 91,-219l28 29c-52,52 -79,116 -79,190 0,74 27,138 79,190z"/>
  <path class="fil19" d="M14255 1050c0,40 -14,74 -42,102 -28,28 -62,42 -102,42 -40,0 -73,-14 -101,-42 -28,-28 -42,-62 -42,-102l0 -183c0,-40 14,-74 42,-102 28,-28 61,-42 101,-42 40,0 74,14 102,42 28,28 42,62 42,102l0 183zm-46 0l0 -183c0,-27 -9,-50 -28,-70 -19,-19 -43,-28 -70,-28 -27,0 -50,9 -69,28 -19,20 -28,43 -28,70l0 183c0,27 9,50 28,69 19,19 42,29 69,29 27,0 50,-10 69,-29 20,-19 29,-42 29,-69z"/>
  <path class="fil19" d="M14805 436c0,86 -30,159 -90,219l-29 -29c25,-25 44,-54 58,-87 14,-33 21,-67 21,-103 0,-74 -26,-138 -79,-190l29 -29c60,61 90,134 90,219z"/>
  <polygon class="fil19" points="16019,987 15656,987 15656,918 16019,918 "/>
  <polygon class="fil19" points="16295,582 15971,582 15971,531 16295,531 "/>
  <path class="fil19" d="M17378 924l-363 0 0 -69 363 0 0 69zm0 127l-363 0 0 -69 363 0 0 69z"/>
  <polygon class="fil19" points="17622,472 17511,472 17511,582 17459,582 17459,472 17349,472 17349,421 17459,421 17459,310 17511,310 17511,421 17622,421 "/>
  <path class="fil20" d="M470 2243c0,12 -4,22 -12,30 -7,7 -17,11 -29,11 -12,0 -21,-4 -29,-12 -8,-7 -12,-17 -12,-29 0,-11 4,-21 12,-29 7,-8 17,-12 29,-12 12,0 22,4 29,12 8,7 12,17 12,29zm0 232c0,7 -1,13 -4,19l-44 85 -54 0 37 -72c-12,-7 -17,-18 -17,-32 0,-12 4,-22 12,-30 7,-7 17,-11 29,-11 12,0 22,4 29,11 8,8 12,18 12,30z"/>
  <path class="fil20" d="M1175 1801c0,11 -4,21 -12,29 -8,8 -17,12 -29,12 -12,0 -21,-4 -29,-12 -8,-8 -12,-18 -12,-29 0,-12 4,-22 11,-30 8,-8 18,-11 30,-11 12,0 22,3 29,11 8,8 12,18 12,30zm0 232c0,12 -4,21 -12,29 -8,8 -17,12 -29,12 -12,0 -21,-4 -29,-12 -8,-8 -12,-18 -12,-29 0,-12 4,-22 11,-30 8,-7 18,-11 30,-11 12,0 22,4 29,11 8,8 12,18 12,30z"/>
  <path class="fil20" d="M2264 1760c0,27 -9,49 -28,68 -18,18 -41,27 -68,27 -27,0 -50,-9 -68,-27 -19,-18 -28,-41 -28,-68l55 0c0,12 4,22 12,29 7,8 17,12 29,12 12,0 21,-4 29,-12 8,-8 12,-18 12,-29l55 0zm19 663l-55 0 0 -322 -173 336 0 -547 54 0 0 333 174 -346 0 546z"/>
  <polygon class="fil20" points="3785,2492 3730,2492 3730,2438 3429,2438 3429,1904 3484,1904 3484,2383 3675,2383 3675,1904 3730,1904 3730,2383 3785,2383 "/>
  <polygon class="fil20" points="5329,1889 4979,2560 4924,2560 5016,2382 4760,1889 4817,1889 5044,2329 5272,1889 "/>
  <polygon class="fil20" points="6596,2437 6541,2437 6426,2215 6426,2437 6371,2437 6371,1904 6426,1904 6426,2126 6541,1904 6596,1904 6458,2170 "/>
  <polygon class="fil20" points="8089,2437 7748,2437 7748,1904 8089,1904 8089,1959 7802,1959 7802,2157 8048,2157 8048,2211 7802,2211 7802,2382 8089,2382 "/>
  <polygon class="fil20" points="9524,2437 9469,2437 9469,2211 9237,2211 9237,2437 9183,2437 9183,1904 9237,1904 9237,2157 9469,2157 9469,1904 9524,1904 "/>
  <polygon class="fil20" points="10938,1959 10692,1959 10692,2438 10638,2438 10638,1904 10938,1904 "/>
  <path class="fil20" d="M12496 2438l-546 0 0 -534 55 0 0 479 191 0 0 -479 55 0c0,18 0,60 0,125l0 354 190 0 0 -479 55 0 0 534z"/>
  <polygon class="fil20" points="13958,2492 13903,2492 13903,2438 13358,2438 13358,1904 13412,1904 13412,2383 13603,2383 13603,1904 13658,1904 13658,2383 13849,2383 13849,1904 13903,1904 13903,2383 13958,2383 "/>
  <path class="fil20" d="M15236 2293c0,66 -28,115 -85,148 -27,15 -56,23 -86,23 -44,0 -83,-15 -116,-45l39 -39c21,20 47,30 77,30 33,0 60,-12 83,-34 22,-23 33,-50 33,-82 0,-33 -11,-60 -33,-83 -23,-22 -50,-34 -83,-34l0 -54c23,0 43,-8 58,-24 15,-16 23,-35 23,-58 0,-23 -8,-43 -24,-59 -16,-15 -35,-23 -58,-23 -27,0 -51,14 -73,42l-42 -34c28,-42 67,-63 115,-63 39,0 72,13 98,38 26,26 39,59 39,98 0,45 -17,81 -50,106 57,32 85,81 85,147z"/>
  <polygon class="fil20" points="16697,2437 16642,2437 16527,2215 16413,2437 16358,2437 16495,2170 16358,1904 16413,1904 16527,2126 16642,1904 16697,1904 16558,2170 "/>
  <polygon class="fil21" points="19274,667 19274,700 19142,769 19274,837 19274,869 19115,788 18956,869 18956,837 19089,769 18956,700 18956,667 19115,750 "/>
  <path class="fil20" d="M18136 2267c0,66 -28,115 -85,148 -26,15 -55,23 -85,23l-54 0 0 -479 -123 0 0 -55 177 0 0 193c30,0 58,7 84,23 57,34 86,83 86,147zm-55 0c0,-44 -19,-78 -58,-100 -18,-10 -37,-16 -57,-16l0 232c20,0 39,-5 57,-15 39,-23 58,-56 58,-101z"/>
  <path class="fil20" d="M19529 2057c0,28 -7,53 -21,77 -13,24 -32,43 -56,57 -23,13 -49,20 -77,20 -13,0 -24,5 -33,13 -8,8 -13,18 -13,30 0,13 5,23 13,32 9,9 20,13 32,13 13,0 24,-4 32,-13l38 39c-20,19 -43,29 -70,29 -27,0 -50,-10 -70,-30 -19,-19 -29,-42 -29,-70 0,-27 10,-50 29,-69 20,-19 43,-28 71,-28 15,0 29,-3 42,-9 17,-8 31,-20 42,-37 10,-16 15,-34 15,-53 0,-28 -9,-52 -28,-71 -19,-19 -42,-28 -71,-28 -29,0 -53,9 -71,28l-39 -38c30,-30 66,-45 110,-45 43,0 79,15 109,45 30,30 45,66 45,108zm-117 353c0,11 -4,21 -11,29 -8,8 -18,12 -30,12 -11,0 -21,-4 -29,-12 -7,-8 -11,-18 -11,-29 0,-12 4,-22 11,-30 8,-7 18,-11 29,-11 12,0 22,3 30,11 7,7 11,17 11,30z"/>
  <path class="fil20" d="M3173 3573c0,71 -25,134 -73,188 -49,54 -109,84 -181,91l0 54 -54 0 0 -54c-71,-7 -131,-38 -180,-91 -48,-54 -72,-117 -72,-188 0,-72 24,-135 72,-189 49,-54 108,-84 180,-90l0 -55 54 0 0 55c72,7 132,37 181,90 49,54 73,117 73,189zm-55 0c0,-59 -18,-109 -55,-151 -38,-42 -85,-66 -144,-73l0 448c57,-6 104,-30 143,-74 37,-44 56,-94 56,-150zm-253 223l0 -447c-56,5 -103,29 -141,73 -38,44 -57,94 -57,151 0,58 19,108 56,149 37,42 84,67 142,74z"/>
  <path class="fil20" d="M4485 3825l-55 0 0 -533 55 0 0 533zm-84 -170c0,48 -16,88 -49,121 -32,34 -72,50 -120,50l-55 0 0 -534 55 0 0 193c47,0 87,16 120,50 33,33 49,73 49,120zm-54 0c0,-32 -11,-60 -33,-82 -22,-22 -49,-34 -82,-34l0 232c32,0 59,-11 82,-33 22,-23 33,-50 33,-83z"/>
  <path class="fil20" d="M5881 3655c0,58 -24,102 -71,132 -40,25 -91,38 -153,39l0 -534c72,0 128,17 168,50 37,32 56,72 56,121 0,35 -9,67 -29,96 20,29 29,61 29,96zm-54 0c0,-41 -17,-73 -51,-96 34,-25 51,-57 51,-96 0,-33 -11,-61 -34,-83 -22,-22 -49,-33 -82,-33l0 424c32,0 59,-11 82,-34 22,-23 34,-50 34,-82z"/>
  <path class="fil20" d="M7492 3839l-58 0 -83 -163 -287 0 -84 163 -57 0c78,-146 172,-328 283,-547l286 547zm-169 -218l-116 -222 -115 222 231 0z"/>
  <path class="fil20" d="M10196 3463c0,48 -16,88 -49,121 -33,33 -74,50 -122,50l2 192 -55 0 0 -534 55 0c47,0 87,17 120,50 33,33 49,73 49,121zm-54 0c0,-33 -11,-61 -34,-83 -22,-22 -49,-33 -83,-33l0 232c33,0 61,-11 83,-33 22,-23 34,-50 34,-83z"/>
  <polygon class="fil20" points="8817,3825 8762,3825 8762,3347 8530,3347 8530,3825 8475,3825 8475,3292 8817,3292 "/>
  <path class="fil20" d="M11803 3572c0,77 -29,144 -86,201 -53,53 -118,79 -194,79 -77,0 -143,-27 -198,-82 -55,-55 -83,-121 -83,-198 0,-77 28,-144 82,-198 55,-55 121,-82 199,-82 78,0 145,27 199,81 54,54 81,120 81,199zm-55 0c0,-42 -10,-80 -29,-114 -20,-35 -48,-63 -85,-82 -35,-20 -72,-29 -111,-29 -44,0 -83,10 -118,31 -35,21 -62,50 -81,88 -18,35 -27,71 -27,106 0,63 22,117 66,160 43,44 97,66 160,66 63,0 116,-22 160,-66 43,-43 65,-97 65,-160z"/>
  <polygon class="fil20" points="13245,3839 13189,3839 12961,3398 12734,3839 12677,3839 12962,3292 "/>
  <path class="fil20" d="M14683 3893l-56 0 0 -54 -457 0 0 54 -55 0 0 -109 29 0 254 -492 257 492 28 0 0 109zm-85 -109l-199 -386 -199 386 398 0z"/>
  <polygon class="fil20" points="16035,3825 15980,3825 15865,3603 15865,3825 15810,3825 15810,3603 15695,3825 15640,3825 15779,3558 15640,3292 15695,3292 15810,3513 15810,3292 15865,3292 15865,3514 15980,3292 16035,3292 15896,3558 "/>
  <path class="fil20" d="M17513 3572c0,51 -12,98 -36,140 -24,42 -59,77 -103,102 -44,27 -91,40 -141,40 -75,0 -140,-27 -195,-80l39 -37c43,41 95,62 156,62 59,0 109,-18 151,-55 41,-37 65,-84 72,-143l-222 0 0 -55 222 0c-6,-59 -30,-107 -71,-144 -42,-37 -93,-55 -152,-55 -61,0 -113,20 -156,62l-39 -38c59,-53 124,-79 195,-79 51,0 98,12 140,36 42,24 76,59 101,103 26,44 39,91 39,141z"/>
  <path class="fil20" d="M3724 5242l-55 0 0 -192 -97 192 -55 0 103 -200c-36,-11 -64,-32 -87,-62 -22,-31 -33,-64 -33,-101 0,-65 28,-115 85,-148 26,-15 54,-23 84,-23l55 0 0 534zm-53 -247l0 -232c-33,0 -60,11 -83,34 -22,22 -33,50 -33,82 0,32 11,60 33,82 23,23 50,34 83,34z"/>
  <path class="fil20" d="M5222 5242l-55 0 0 -251c-32,31 -71,46 -116,46 -47,0 -87,-17 -120,-50 -34,-34 -51,-74 -51,-121l0 -157 55 0 0 157c0,33 11,60 34,83 22,22 50,34 82,34 32,0 59,-12 82,-34 23,-23 34,-50 34,-83l0 -157 55 0 0 533z"/>
  <path class="fil20" d="M6727 5162c-54,53 -119,80 -194,80 -78,0 -144,-28 -199,-83 -54,-55 -82,-122 -82,-199 0,-77 28,-144 82,-198 55,-55 121,-82 199,-82 69,0 134,26 194,79l-39 38c-43,-42 -95,-62 -155,-62 -44,0 -83,10 -118,30 -35,21 -62,50 -81,89 -18,35 -27,71 -27,106 0,65 21,119 64,162 43,43 97,65 162,65 60,0 112,-21 155,-62l39 37z"/>
  <polygon class="fil20" points="8158,5228 8104,5228 8104,4901 7926,5242 7753,4906 7753,5228 7699,5228 7699,4682 7927,5135 8158,4681 "/>
  <polygon class="fil20" points="9474,5228 9420,5228 9420,4906 9246,5242 9246,4695 9301,4695 9301,5027 9474,4681 "/>
  <polygon class="fil20" points="10957,4763 10834,4763 10834,5242 10779,5242 10779,4763 10656,4763 10656,4708 10957,4708 "/>
  <path class="fil20" d="M12357 5071c0,47 -16,88 -49,121 -32,33 -73,50 -120,50l-55 0 0 -535 55 0 -2 193c66,0 115,28 148,85 16,26 23,55 23,86zm-54 0c0,-33 -12,-61 -34,-83 -22,-22 -50,-33 -83,-33l0 232c33,0 60,-11 83,-34 22,-23 34,-50 34,-82z"/>
  <path class="fil20" d="M13796 5071c0,47 -16,88 -49,121 -32,33 -73,50 -120,50l-55 0 0 -534 206 0 0 55 -153 0 0 136c48,0 89,17 122,50 33,33 49,74 49,122zm-55 0c0,-33 -11,-61 -33,-83 -22,-22 -50,-33 -83,-33l0 232c33,0 60,-11 83,-34 22,-23 33,-50 33,-82z"/>
  <path class="fil20" d="M15458 4961c0,79 -27,145 -81,199 -55,54 -121,82 -199,82 -72,0 -135,-25 -189,-73 -53,-49 -83,-109 -90,-180l-56 0 0 239 -55 0 0 -533 55 0 0 239 56 0c3,-43 18,-84 44,-124 26,-41 60,-73 101,-95 40,-23 85,-34 134,-34 78,0 145,27 199,81 54,54 81,120 81,199zm-55 0c0,-42 -10,-81 -31,-117 -21,-36 -50,-64 -88,-82 -35,-17 -70,-26 -106,-26 -44,0 -82,10 -117,31 -35,21 -63,51 -82,89 -18,34 -27,70 -27,105 0,44 11,83 31,117 21,35 50,62 89,82 35,18 70,27 106,27 43,0 82,-10 117,-31 35,-21 62,-50 81,-88 18,-34 27,-70 27,-107z"/>
  <polygon class="fil20" points="16733,5242 16391,5242 16391,4709 16733,4709 16733,4763 16446,4763 16446,4961 16692,4961 16692,5016 16446,5016 16446,5187 16733,5187 "/>
  <path class="fil20" d="M16446 4574c11,0 21,4 29,12 8,8 12,17 12,29 0,12 -4,21 -12,29 -8,8 -18,12 -29,12 -12,0 -22,-4 -30,-11 -7,-8 -11,-18 -11,-30 0,-12 4,-22 11,-29 8,-8 18,-12 30,-12zm232 0c12,0 22,4 29,12 8,8 12,17 12,29 0,12 -4,21 -12,29 -8,8 -17,12 -29,12 -12,0 -21,-4 -29,-11 -8,-8 -12,-18 -12,-30 0,-12 4,-22 12,-29 7,-8 17,-12 29,-12z"/>
  <path class="fil20" d="M14464 6420c0,19 -6,34 -19,46 -12,13 -27,19 -46,19 -18,0 -34,-7 -46,-19 -12,-12 -19,-28 -19,-46 0,-18 6,-34 19,-46 12,-13 28,-19 46,-19 19,0 35,6 47,18 12,13 18,28 18,47z"/>
  <path class="fil20" d="M15918 6351c0,11 -2,21 -6,30l-69 135 -86 0 58 -114c-18,-12 -26,-29 -26,-51 0,-19 6,-34 18,-46 12,-13 28,-19 46,-19 19,0 35,6 47,18 12,13 18,28 18,47z"/>
  <path class="fil21" d="M4338 6271l106 0c39,0 66,3 80,10 29,17 43,43 43,78 0,27 -7,48 -21,65 -14,16 -32,28 -56,34l25 46 33 57 29 50 20 34 -45 -3c-7,1 -15,1 -23,2 -9,0 -16,1 -22,1l-59 -115 -16 -31 -16 -29 -4 0 0 175 -37 -3c-5,1 -11,1 -18,2 -8,0 -14,1 -19,1l0 -374zm74 175l13 1c43,0 65,-26 65,-79 0,-4 0,-8 -1,-13 0,-5 -1,-10 -1,-14 -3,-17 -10,-28 -20,-33 -10,-5 -24,-8 -41,-8l-15 0 0 146z"/>
  <path id="1" class="fil21" d="M4648 6271c7,0 13,0 19,0 6,1 12,2 18,2 5,-1 12,-1 19,-2 7,0 13,0 18,0l0 155c0,51 1,85 4,101 2,17 5,29 8,38 4,9 10,17 18,26 15,16 33,24 56,24 16,0 29,-2 40,-7 11,-4 20,-11 28,-21 8,-9 14,-22 20,-38 6,-16 9,-54 9,-113l0 -166c7,2 13,2 20,2 7,0 13,0 20,-1l0 194c0,12 0,23 -1,33 0,9 -1,22 -3,36 -1,15 -6,30 -13,46 -8,17 -19,31 -36,43 -24,19 -55,29 -93,29 -23,0 -43,-3 -62,-9 -19,-6 -36,-15 -51,-29 -14,-13 -25,-31 -30,-54 -6,-21 -8,-43 -8,-67l0 -222z"/>
  <polygon id="2" class="fil21" points="5010,6492 5134,6492 5134,6550 5010,6550 "/>
  <path id="3" class="fil21" d="M5381 6271l-2 23c0,3 1,11 2,23 -34,-5 -72,-7 -114,-7l0 117 51 0c20,0 40,-2 61,-5 -1,11 -2,19 -2,23 0,5 1,13 2,24 -10,-1 -21,-3 -31,-4 -10,0 -20,-1 -30,-1l-51 0 0 139c23,0 43,-1 61,-2 17,-1 35,-3 53,-6l-2 24c0,3 1,11 2,23l-188 0 0 -371 188 0z"/>
  <path id="4" class="fil21" d="M5443 6271l49 0 49 58 55 64 58 69c5,5 10,12 17,21 10,12 16,19 18,21 7,9 13,16 17,22l0 -256c6,2 13,2 20,2 6,0 13,0 20,-1l0 374 -42 -1 -61 -75 -55 -66c-7,-9 -16,-19 -25,-31 -7,-8 -16,-18 -26,-30l-54 -62 0 264 -10 -1 -10 -1 -10 1 -10 1 0 -373z"/>
  <circle class="fil22" cx="1845" cy="3187" r="149"/>
  <circle class="fil23" cx="4597" cy="5986" r="149"/>
  <circle class="fil24" cx="5463" cy="5986" r="149"/>
  <path class="fil21" d="M792 3208c0,4 -1,8 -2,13 -1,5 -3,9 -4,12 -2,3 -4,5 -6,5 -3,0 -5,-2 -8,-5 -4,-3 -8,-6 -13,-10 -5,-3 -12,-7 -20,-10 -9,-3 -19,-4 -31,-4 -14,0 -27,3 -38,8 -11,5 -22,12 -31,21 -9,8 -17,19 -24,30 -7,12 -12,24 -17,36 -4,13 -8,25 -10,38 -2,13 -4,25 -4,37 0,13 2,24 5,35 4,10 8,19 15,26 6,7 14,12 23,16 9,3 19,5 30,5 13,0 24,-1 33,-4 10,-3 18,-6 24,-10 7,-3 12,-6 17,-9 4,-3 8,-5 11,-5 2,0 3,1 4,2 1,2 1,4 1,6 0,1 0,2 0,4 -1,1 -1,3 -1,5 -1,2 -1,4 -1,6 -1,2 -1,4 -2,6 -1,2 -1,3 -2,5 -1,1 -2,3 -4,5 -1,1 -5,4 -11,7 -5,3 -12,6 -20,9 -8,3 -17,5 -26,7 -10,2 -21,3 -32,3 -17,0 -32,-2 -45,-7 -14,-5 -25,-13 -35,-22 -9,-10 -16,-22 -22,-37 -5,-14 -7,-31 -7,-50 0,-15 1,-31 5,-48 3,-16 8,-32 14,-48 6,-16 14,-30 24,-44 10,-14 21,-26 33,-36 13,-11 28,-19 43,-25 16,-6 34,-9 53,-9 12,0 23,2 33,4 11,3 20,6 27,10 7,4 13,8 16,11 3,3 5,7 5,11z"/>
  <path id="1" class="fil21" d="M973 3488c0,3 -2,5 -5,6 -3,1 -8,2 -15,2 -3,0 -6,0 -8,-1 -2,0 -4,0 -5,-1 -2,-1 -2,-1 -3,-2 0,-1 0,-2 0,-4l8 -42c-2,6 -6,11 -11,18 -6,6 -13,11 -20,17 -8,5 -16,9 -26,13 -9,3 -19,5 -28,5 -13,0 -24,-2 -33,-7 -8,-5 -15,-11 -20,-18 -5,-8 -9,-16 -11,-26 -1,-9 -2,-19 -2,-29 0,-9 0,-20 2,-31 2,-12 5,-24 9,-36 3,-12 8,-24 15,-35 6,-12 13,-22 22,-31 8,-9 18,-17 30,-22 11,-6 24,-8 39,-8 15,0 27,3 38,9 10,5 19,14 28,24l4 -22c1,-3 3,-5 6,-6 3,-1 8,-2 14,-2 3,0 6,0 8,1 3,0 5,0 6,1 1,1 2,1 2,2 1,1 1,2 1,4l-45 221zm-7 -163c-8,-12 -16,-20 -25,-26 -9,-6 -19,-9 -31,-9 -8,0 -16,3 -24,7 -7,4 -13,9 -18,16 -6,7 -11,15 -15,24 -4,9 -7,18 -10,27 -2,9 -4,19 -5,28 -2,9 -2,17 -2,24 0,6 0,11 1,17 1,6 3,11 5,16 3,4 6,8 11,11 4,3 10,4 17,4 9,0 18,-2 27,-7 9,-5 18,-12 26,-21 8,-9 15,-19 21,-31 6,-12 10,-25 13,-40l9 -40z"/>
  <path id="2" class="fil21" d="M1272 3336c0,9 0,20 -2,32 -2,12 -5,24 -9,36 -4,12 -9,24 -15,35 -6,12 -14,22 -22,31 -9,8 -19,16 -30,21 -12,5 -25,8 -39,8 -8,0 -14,-1 -20,-2 -6,-2 -12,-4 -17,-6 -5,-3 -10,-6 -14,-10 -4,-3 -8,-7 -12,-11l-21 106c0,1 -1,2 -1,3 -1,2 -2,2 -4,3 -2,1 -4,1 -6,1 -3,1 -7,1 -11,1 -4,0 -7,0 -9,-1 -3,0 -5,0 -6,-1 -2,-1 -2,-1 -3,-3 0,-1 0,-2 0,-3l62 -309c0,-3 2,-5 5,-6 3,-1 8,-2 14,-2 4,0 7,0 9,1 2,0 4,0 5,1 1,0 2,1 2,2 1,1 1,2 1,4l-9 42c3,-6 7,-12 12,-18 6,-6 12,-12 20,-17 7,-5 16,-10 25,-13 9,-4 19,-5 29,-5 12,0 23,2 31,6 8,4 15,10 21,17 5,7 9,16 11,26 2,9 3,20 3,31zm-42 2c0,-7 0,-13 -2,-19 -1,-6 -3,-11 -6,-15 -2,-4 -6,-8 -10,-10 -5,-2 -10,-4 -17,-4 -8,0 -18,3 -27,8 -9,5 -17,12 -25,21 -8,8 -15,19 -21,31 -7,12 -11,25 -14,39l-8 41c8,11 16,20 25,26 9,5 19,8 30,8 9,0 17,-2 24,-6 7,-4 13,-10 19,-17 5,-6 10,-14 14,-23 4,-9 8,-18 10,-27 3,-9 5,-19 6,-28 2,-9 2,-17 2,-25z"/>
  <path id="3" class="fil21" d="M1472 3279c0,2 0,4 -1,7 0,2 -1,5 -2,8 -1,2 -2,5 -3,6 -1,2 -2,3 -4,3 -2,0 -4,-1 -7,-2 -3,-2 -6,-4 -10,-6 -4,-2 -8,-3 -14,-5 -5,-2 -12,-3 -19,-3 -8,0 -14,1 -20,3 -5,3 -10,5 -14,9 -3,3 -6,7 -8,12 -2,4 -3,9 -3,14 0,6 2,12 6,16 5,4 10,8 16,12 7,3 14,7 22,10 7,3 14,7 21,12 6,5 11,11 16,18 4,7 6,15 6,25 0,12 -2,23 -6,33 -5,9 -11,18 -20,25 -8,7 -18,13 -30,17 -12,4 -25,6 -40,6 -8,0 -15,-1 -22,-2 -7,-1 -13,-3 -18,-4 -6,-2 -10,-4 -14,-6 -4,-3 -7,-5 -9,-7 -2,-1 -3,-2 -3,-4 -1,-1 -1,-3 -1,-5 0,-1 0,-3 0,-4 0,-2 0,-4 1,-6 0,-2 1,-4 2,-6 0,-2 1,-3 2,-5 1,-1 1,-2 2,-3 1,-1 2,-1 3,-1 2,0 5,1 7,3 3,2 7,4 11,7 5,3 10,5 17,7 7,3 15,4 25,4 9,0 17,-1 23,-4 7,-2 12,-5 16,-9 4,-3 8,-8 10,-13 2,-5 3,-10 3,-15 0,-7 -3,-13 -7,-17 -4,-4 -9,-8 -16,-12 -6,-3 -13,-7 -21,-10 -7,-4 -14,-8 -21,-12 -6,-5 -12,-11 -16,-18 -4,-6 -7,-15 -7,-26 0,-10 3,-20 7,-30 4,-9 10,-17 18,-24 8,-7 17,-12 28,-16 11,-3 23,-5 37,-5 6,0 12,0 18,1 5,1 11,2 16,4 5,1 9,3 13,5 3,2 6,3 8,5 1,2 2,5 2,8z"/>
  <path class="fil21" d="M713 3949c0,1 0,2 -1,4 0,2 0,4 -1,6 0,2 -1,4 -1,6 -1,2 -1,4 -2,6 -1,2 -3,3 -4,4 -1,2 -3,2 -4,2l-141 0c-2,0 -4,0 -6,-1 -1,0 -3,-1 -4,-3 -1,-1 -2,-3 -3,-5 0,-2 0,-5 1,-8l58 -295c1,-1 1,-2 2,-3 1,-1 3,-2 4,-2 2,-1 5,-2 7,-2 3,0 6,-1 10,-1 4,0 8,1 10,1 3,0 5,1 7,2 1,0 2,1 3,2 0,1 0,2 0,3l-55 275 114 0c2,0 3,1 4,3 1,1 2,3 2,6z"/>
  <path id="1" class="fil21" d="M976 3823c0,12 -2,24 -4,37 -2,13 -6,25 -10,37 -5,11 -11,22 -18,33 -7,10 -16,19 -25,27 -10,7 -21,13 -34,18 -12,4 -26,7 -41,7 -16,0 -29,-2 -40,-6 -12,-4 -21,-9 -28,-16 -7,-8 -13,-16 -16,-27 -4,-10 -5,-22 -5,-36 0,-12 1,-24 3,-37 2,-12 6,-25 10,-36 5,-12 11,-23 18,-33 7,-11 16,-20 26,-27 9,-8 20,-14 33,-19 12,-4 26,-6 41,-6 16,0 29,1 41,5 11,4 20,10 27,17 8,7 13,16 17,26 3,11 5,23 5,36zm-43 2c0,-8 -1,-15 -3,-22 -1,-7 -4,-12 -8,-17 -4,-4 -10,-8 -16,-10 -6,-2 -14,-4 -23,-4 -10,0 -19,2 -27,6 -8,3 -16,8 -22,14 -6,6 -12,13 -16,21 -5,8 -9,16 -12,26 -3,9 -5,18 -7,28 -1,9 -2,19 -2,28 0,8 1,15 3,22 1,7 4,12 8,17 4,4 10,8 16,10 7,3 14,4 24,4 10,0 19,-2 27,-5 8,-4 15,-9 21,-15 6,-6 12,-13 16,-21 5,-8 9,-17 12,-26 3,-9 5,-18 7,-28 1,-9 2,-19 2,-28z"/>
  <path id="2" class="fil21" d="M1204 3769c0,3 0,6 -1,9 -1,3 -1,6 -3,9 -1,3 -2,5 -4,7 -1,2 -3,2 -5,2 -2,0 -5,-1 -7,-3 -3,-2 -6,-5 -10,-8 -4,-3 -9,-6 -15,-8 -6,-2 -14,-4 -24,-4 -10,0 -19,2 -28,7 -8,4 -15,10 -21,17 -6,7 -11,15 -15,23 -4,9 -7,18 -9,27 -3,9 -5,18 -6,26 -1,9 -1,16 -1,22 0,17 3,30 11,38 7,9 18,13 33,13 11,0 20,-1 28,-4 7,-2 14,-5 19,-8 5,-4 10,-7 13,-9 4,-3 7,-4 9,-4 1,0 2,0 3,2 1,1 1,3 1,5 0,2 0,4 0,7 -1,3 -1,5 -2,8 -1,3 -2,6 -3,8 -1,3 -2,5 -4,7 -2,2 -5,5 -10,7 -5,3 -11,6 -17,8 -7,3 -14,5 -21,6 -8,2 -16,3 -24,3 -26,0 -46,-7 -59,-20 -13,-14 -20,-34 -20,-60 0,-10 1,-21 3,-33 2,-12 5,-24 9,-36 4,-12 9,-24 16,-35 6,-11 14,-21 23,-30 9,-9 20,-16 33,-21 12,-5 26,-8 42,-8 6,0 13,1 19,2 6,1 12,2 17,4 5,2 10,4 14,7 5,2 8,5 11,7 2,2 3,4 4,5 1,2 1,3 1,5z"/>
  <path id="3" class="fil21" d="M1436 3749c0,2 -1,4 -2,6 -1,2 -4,5 -8,9l-96 82 66 112c1,3 2,5 3,7 1,2 1,4 1,5 0,2 0,3 -1,4 -1,1 -2,2 -3,2 -2,1 -5,2 -7,2 -3,0 -7,1 -11,1 -5,0 -8,0 -11,-1 -2,0 -5,0 -6,-1 -2,-1 -3,-2 -4,-3 -1,-1 -2,-2 -2,-3l-71 -123 -24 123c-1,1 -1,2 -2,3 -1,1 -2,2 -4,3 -2,0 -4,1 -6,1 -3,0 -6,1 -10,1 -4,0 -8,-1 -10,-1 -3,0 -5,-1 -6,-1 -1,-1 -2,-2 -3,-3 0,-1 0,-2 0,-3l65 -328c1,-2 1,-3 2,-4 1,-1 2,-2 4,-2 1,-1 4,-1 6,-2 3,0 7,0 11,0 4,0 7,0 9,0 3,1 5,1 6,2 1,0 2,1 3,2 0,1 0,2 0,4l-40 200 103 -93c1,-1 2,-3 4,-4 2,-1 4,-2 6,-2 2,-1 4,-1 7,-2 3,0 7,0 10,0 4,0 8,0 10,0 3,1 5,1 7,2 1,0 2,1 3,2 1,1 1,2 1,3z"/>
  <path class="fil21" d="M1026 6047c0,3 -1,8 -2,13 -1,5 -3,9 -5,12 -1,3 -3,4 -6,4 -2,0 -5,-1 -8,-4 -3,-3 -7,-7 -12,-10 -5,-4 -12,-7 -20,-10 -9,-3 -19,-4 -32,-4 -13,0 -26,2 -37,7 -12,5 -22,12 -31,21 -9,9 -17,19 -24,31 -7,11 -13,23 -17,36 -5,12 -8,25 -10,38 -3,13 -4,25 -4,36 0,13 2,25 5,35 3,11 8,19 14,26 7,7 14,13 23,16 9,4 20,6 31,6 13,0 24,-2 33,-5 10,-2 17,-6 24,-9 7,-4 12,-7 17,-10 4,-3 8,-4 10,-4 2,0 4,1 5,2 0,1 1,3 1,6 0,1 0,2 -1,3 0,2 0,4 0,5 -1,2 -1,4 -2,6 0,2 0,4 -1,6 -1,2 -1,4 -2,5 -1,2 -2,4 -4,5 -2,2 -5,4 -11,7 -5,4 -12,7 -20,10 -8,2 -17,5 -27,7 -10,2 -20,3 -31,3 -17,0 -32,-3 -46,-7 -13,-6 -24,-13 -34,-23 -9,-9 -17,-22 -22,-36 -5,-15 -8,-31 -8,-50 0,-16 2,-32 5,-48 4,-17 8,-33 15,-48 6,-16 14,-31 24,-44 9,-14 21,-26 33,-37 13,-10 27,-18 43,-24 16,-6 34,-9 53,-9 12,0 23,1 33,4 11,2 19,6 27,10 7,4 12,8 16,11 3,3 5,7 5,11z"/>
  <path id="1" class="fil21" d="M1347 6327c0,1 0,2 -1,3 -1,1 -2,2 -4,3 -2,0 -4,1 -7,1 -2,0 -6,0 -10,0 -4,0 -7,0 -9,0 -3,0 -5,-1 -6,-1 -2,-1 -2,-2 -3,-3 0,-1 -1,-2 0,-3l27 -137c1,-5 1,-9 2,-14 1,-4 1,-8 1,-12 0,-11 -2,-19 -6,-26 -4,-6 -11,-9 -21,-9 -8,0 -17,3 -26,8 -8,5 -17,12 -25,20 -7,9 -14,20 -21,32 -6,12 -10,25 -13,39l-19 99c-1,1 -1,2 -2,3 -1,1 -2,2 -4,3 -2,0 -4,1 -7,1 -2,0 -6,0 -10,0 -3,0 -7,0 -9,0 -3,0 -5,-1 -6,-1 -1,-1 -2,-2 -3,-3 0,-1 0,-2 0,-3l27 -137c1,-5 2,-10 2,-14 1,-5 1,-10 1,-14 0,-10 -2,-18 -6,-24 -4,-6 -11,-9 -21,-9 -8,0 -17,3 -25,8 -9,5 -18,12 -25,20 -8,9 -15,20 -21,32 -6,12 -11,25 -14,39l-19 99c0,1 -1,2 -2,3 -1,1 -2,2 -3,3 -2,0 -4,1 -7,1 -3,0 -6,0 -10,0 -4,0 -7,0 -10,0 -3,0 -4,-1 -6,-1 -1,-1 -2,-2 -3,-3 0,-1 0,-2 0,-3l45 -222c0,-1 0,-2 1,-3 1,-1 2,-2 3,-2 2,-1 4,-2 6,-2 3,0 6,0 9,0 3,0 6,0 8,0 3,0 4,1 5,2 2,0 2,1 3,2 0,1 0,2 0,3l-8 43c2,-6 6,-12 12,-18 6,-6 12,-12 20,-17 7,-6 16,-10 24,-13 9,-4 19,-6 28,-6 10,0 18,2 25,4 7,3 13,7 17,12 5,4 8,10 10,16 3,7 4,14 4,22 4,-6 8,-12 14,-18 6,-7 12,-12 20,-18 7,-5 16,-9 24,-12 9,-4 18,-6 27,-6 11,0 21,2 28,5 7,3 13,7 18,13 5,5 8,12 10,19 2,7 3,15 3,23 0,6 -1,12 -1,17 -1,6 -2,12 -3,18l-28 138z"/>
  <path id="2" class="fil21" d="M1633 6151c0,11 -3,21 -8,30 -5,9 -13,17 -24,23 -12,7 -26,12 -43,15 -18,3 -38,5 -63,5l-26 0c-1,6 -2,11 -2,16 0,5 -1,10 -1,14 0,17 4,29 13,38 8,8 21,13 39,13 11,0 20,-1 28,-3 9,-1 16,-3 22,-5 6,-1 11,-3 15,-5 4,-1 7,-2 8,-2 2,0 3,1 4,2 0,1 1,2 1,4 0,2 0,4 -1,6 0,2 -1,5 -1,7 -1,3 -2,5 -3,7 -1,2 -2,4 -3,5 -2,2 -6,4 -11,6 -5,2 -11,4 -18,5 -7,2 -14,3 -22,4 -8,1 -17,1 -25,1 -14,0 -27,-1 -38,-4 -11,-4 -20,-9 -28,-16 -7,-6 -12,-15 -16,-25 -4,-10 -5,-22 -5,-36 0,-11 1,-22 3,-34 2,-12 5,-24 9,-36 5,-12 10,-24 18,-35 7,-11 15,-21 25,-29 10,-8 21,-15 34,-20 12,-5 27,-8 43,-8 14,0 25,2 35,6 9,3 17,7 23,13 7,5 11,11 14,18 3,7 4,13 4,20zm-42 3c0,-8 -3,-15 -10,-20 -6,-5 -15,-8 -27,-8 -11,0 -20,2 -29,6 -8,3 -15,8 -21,15 -7,6 -12,13 -17,21 -4,9 -8,17 -11,26l25 0c18,0 32,-1 43,-3 12,-2 21,-5 28,-8 7,-4 12,-8 15,-13 3,-5 4,-10 4,-16z"/>
  <path id="3" class="fil21" d="M1886 6174c0,10 -1,21 -3,33 -2,11 -4,23 -8,36 -4,12 -9,23 -15,35 -7,11 -14,21 -23,30 -9,9 -19,16 -30,22 -11,5 -24,7 -39,7 -7,0 -14,0 -20,-2 -6,-1 -11,-3 -16,-6 -5,-3 -10,-6 -14,-9 -5,-4 -8,-7 -12,-12l-21 107c0,1 -1,2 -2,3 -1,1 -2,2 -3,3 -2,0 -4,1 -7,1 -3,0 -6,1 -10,1 -4,0 -7,-1 -10,-1 -2,0 -4,-1 -5,-1 -2,-1 -3,-2 -3,-3 -1,-1 -1,-2 -1,-3l62 -310c1,-2 2,-4 5,-5 3,-2 8,-2 15,-2 3,0 6,0 8,0 2,0 4,1 5,1 2,1 3,2 3,3 0,1 0,2 0,3l-8 42c2,-5 6,-11 12,-17 5,-6 12,-12 19,-17 8,-6 16,-10 26,-13 9,-4 19,-6 28,-6 13,0 23,2 32,7 8,4 15,10 20,17 5,7 9,15 12,25 2,10 3,20 3,31zm-42 3c0,-7 -1,-14 -2,-19 -1,-6 -3,-11 -6,-16 -3,-4 -6,-7 -11,-10 -4,-2 -10,-3 -16,-3 -9,0 -18,2 -27,7 -9,5 -18,12 -26,21 -8,9 -15,19 -21,32 -6,12 -10,25 -13,39l-8 41c7,11 16,20 25,25 8,6 18,9 29,9 9,0 17,-2 24,-6 8,-5 14,-10 19,-17 6,-7 11,-15 15,-23 4,-9 7,-18 10,-27 3,-10 5,-19 6,-28 1,-9 2,-18 2,-25z"/>
  <path id="4" class="fil21" d="M2132 6151c0,11 -2,21 -8,30 -5,9 -13,17 -24,23 -11,7 -26,12 -43,15 -17,3 -38,5 -62,5l-26 0c-2,6 -2,11 -3,16 0,5 0,10 0,14 0,17 4,29 12,38 8,8 21,13 39,13 11,0 20,-1 29,-3 8,-1 15,-3 21,-5 6,-1 12,-3 15,-5 4,-1 7,-2 9,-2 1,0 2,1 3,2 1,1 1,2 1,4 0,2 0,4 -1,6 0,2 0,5 -1,7 -1,3 -2,5 -3,7 -1,2 -2,4 -3,5 -2,2 -6,4 -11,6 -5,2 -11,4 -17,5 -7,2 -15,3 -23,4 -8,1 -16,1 -25,1 -14,0 -27,-1 -38,-4 -11,-4 -20,-9 -27,-16 -8,-6 -13,-15 -17,-25 -3,-10 -5,-22 -5,-36 0,-11 1,-22 3,-34 2,-12 5,-24 10,-36 4,-12 10,-24 17,-35 7,-11 15,-21 25,-29 10,-8 21,-15 34,-20 13,-5 27,-8 43,-8 14,0 25,2 35,6 10,3 17,7 24,13 6,5 10,11 13,18 3,7 4,13 4,20zm-42 3c0,-8 -3,-15 -9,-20 -7,-5 -16,-8 -28,-8 -11,0 -20,2 -28,6 -9,3 -16,8 -22,15 -6,6 -12,13 -16,21 -5,9 -9,17 -11,26l25 0c17,0 31,-1 43,-3 11,-2 20,-5 27,-8 7,-4 12,-8 15,-13 3,-5 4,-10 4,-16z"/>
  <path id="5" class="fil21" d="M2485 6327c0,1 -1,2 -1,3 -1,1 -2,2 -4,3 -2,0 -4,1 -7,1 -3,0 -6,0 -10,0 -4,0 -7,0 -10,0 -2,0 -4,-1 -5,-1 -2,-1 -3,-2 -3,-3 -1,-1 -1,-2 0,-3l27 -137c1,-5 1,-9 2,-14 0,-4 1,-8 1,-12 0,-11 -2,-19 -6,-26 -4,-6 -11,-9 -21,-9 -8,0 -17,3 -26,8 -9,5 -17,12 -25,20 -8,9 -15,20 -21,32 -6,12 -10,25 -13,39l-20 99c0,1 0,2 -1,3 -1,1 -2,2 -4,3 -2,0 -4,1 -7,1 -2,0 -6,0 -10,0 -4,0 -7,0 -9,0 -3,0 -5,-1 -6,-1 -2,-1 -2,-2 -3,-3 0,-1 -1,-2 0,-3l27 -137c1,-5 2,-10 2,-14 1,-5 1,-10 1,-14 0,-10 -2,-18 -6,-24 -4,-6 -11,-9 -21,-9 -9,0 -17,3 -26,8 -8,5 -17,12 -25,20 -7,9 -14,20 -21,32 -6,12 -10,25 -13,39l-19 99c-1,1 -1,2 -2,3 -1,1 -2,2 -4,3 -1,0 -4,1 -6,1 -3,0 -6,0 -10,0 -4,0 -8,0 -10,0 -3,0 -5,-1 -6,-1 -1,-1 -2,-2 -3,-3 0,-1 0,-2 0,-3l44 -222c1,-1 1,-2 2,-3 1,-1 2,-2 3,-2 2,-1 4,-2 6,-2 3,0 5,0 9,0 3,0 6,0 8,0 2,0 4,1 5,2 2,0 2,1 3,2 0,1 0,2 0,3l-8 43c2,-6 6,-12 12,-18 5,-6 12,-12 20,-17 7,-6 15,-10 24,-13 9,-4 18,-6 28,-6 9,0 18,2 25,4 7,3 13,7 17,12 5,4 8,10 10,16 2,7 4,14 4,22 3,-6 8,-12 14,-18 5,-7 12,-12 20,-18 7,-5 15,-9 24,-12 9,-4 18,-6 27,-6 11,0 20,2 28,5 7,3 13,7 18,13 4,5 8,12 10,19 2,7 2,15 2,23 0,6 0,12 0,17 -1,6 -2,12 -3,18l-28 138z"/>
  <path id="6" class="fil21" d="M2756 6241c0,16 -3,30 -9,42 -6,12 -14,22 -24,30 -10,8 -21,14 -34,18 -14,4 -28,6 -43,6 -15,0 -28,-2 -39,-6 -11,-4 -19,-10 -25,-18 -6,-7 -10,-16 -11,-27 -2,-11 -2,-22 1,-35l29 -146c0,-1 1,-2 2,-3 0,-1 2,-2 3,-2 2,-1 4,-2 7,-2 3,0 6,0 10,0 4,0 7,0 10,0 2,0 4,1 6,2 1,0 2,1 3,2 0,1 0,2 0,3l-16 78c7,-2 14,-4 22,-5 9,-1 17,-1 25,-1 13,0 25,1 35,4 10,3 19,8 26,13 7,6 12,13 16,21 4,8 6,16 6,26zm-43 4c0,-6 -1,-11 -3,-15 -2,-5 -5,-8 -9,-11 -4,-3 -9,-6 -15,-7 -6,-2 -12,-3 -20,-3 -8,0 -16,1 -24,2 -8,1 -16,3 -22,5l-7 35c-4,18 -2,32 5,41 7,8 17,13 32,13 9,0 18,-2 26,-4 7,-3 14,-7 20,-12 5,-6 9,-12 13,-19 3,-7 4,-16 4,-25z"/>
  <path class="fil21" d="M1597 6495c0,10 -2,19 -4,28 -3,9 -7,18 -12,25 -5,8 -11,14 -18,20 -7,6 -15,10 -24,14 7,1 13,4 19,7 6,4 11,8 16,13 4,5 7,12 10,19 2,7 3,14 3,23 0,9 -1,17 -3,26 -3,9 -6,17 -11,25 -4,8 -10,16 -17,22 -7,7 -15,13 -25,18 -9,5 -19,9 -31,12 -11,3 -25,4 -40,4l-84 0c-6,0 -10,-1 -13,-4 -2,-3 -3,-7 -1,-13l56 -284c1,-6 4,-11 8,-13 4,-3 8,-4 13,-4l68 0c16,0 30,1 41,4 11,3 20,7 27,12 7,5 13,12 16,19 4,8 6,17 6,27zm-45 8c0,-6 -1,-11 -3,-15 -2,-4 -5,-8 -9,-11 -4,-3 -9,-5 -15,-7 -6,-2 -14,-3 -24,-3l-45 0 -20 103 48 0c13,0 24,-2 32,-6 8,-4 15,-10 20,-16 6,-7 10,-14 12,-22 3,-8 4,-16 4,-23zm-10 144c0,-14 -5,-24 -14,-32 -10,-7 -25,-11 -45,-11l-54 0 -22 112 59 0c13,0 25,-2 34,-5 9,-4 17,-9 23,-16 6,-6 11,-13 14,-22 4,-8 5,-17 5,-26z"/>
  <path id="1" class="fil21" d="M1823 6543c0,3 -1,6 -1,9 -1,3 -2,6 -3,9 -1,3 -2,5 -4,7 -1,1 -3,2 -5,2 -2,0 -5,-1 -7,-3 -3,-2 -6,-5 -10,-8 -4,-3 -9,-6 -15,-8 -6,-2 -14,-4 -24,-4 -10,0 -20,2 -28,7 -8,4 -15,10 -21,17 -6,7 -11,15 -15,23 -4,9 -7,18 -9,27 -3,9 -5,18 -6,26 -1,9 -1,16 -1,22 0,17 3,30 11,38 7,9 18,13 33,13 11,0 20,-1 27,-4 8,-2 14,-5 20,-8 5,-4 9,-7 13,-9 3,-3 6,-4 9,-4 1,0 2,0 3,2 1,1 1,3 1,5 0,2 0,4 -1,7 0,3 0,5 -1,8 -1,3 -2,6 -3,8 -1,3 -2,5 -4,7 -2,2 -6,5 -10,7 -5,3 -11,6 -18,8 -6,3 -13,5 -21,6 -7,2 -15,3 -23,3 -26,0 -46,-7 -59,-20 -13,-14 -20,-34 -20,-60 0,-10 1,-21 3,-33 2,-12 5,-24 9,-36 4,-12 9,-24 15,-35 7,-11 15,-21 24,-30 9,-9 20,-16 33,-21 12,-5 26,-8 42,-8 6,0 13,1 19,2 6,1 11,2 17,4 5,2 10,4 14,7 5,2 8,5 10,7 3,2 4,4 5,5 0,2 1,3 1,5z"/>
  <path id="2" class="fil21" d="M2050 6569c0,11 -3,21 -8,30 -5,9 -14,17 -25,24 -11,6 -25,11 -42,14 -18,4 -39,5 -63,5l-26 0c-1,6 -2,11 -2,16 -1,5 -1,10 -1,14 0,17 4,29 12,38 8,9 22,13 40,13 10,0 20,-1 28,-2 8,-2 16,-4 22,-5 6,-2 11,-4 15,-5 4,-2 7,-3 8,-3 2,0 3,1 3,2 1,1 1,3 1,4 0,2 0,4 0,6 0,3 -1,5 -1,7 -1,3 -2,5 -3,7 -1,2 -2,4 -4,5 -2,2 -5,4 -10,6 -5,2 -11,4 -18,5 -7,2 -14,3 -23,4 -8,1 -16,2 -24,2 -15,0 -28,-2 -39,-5 -11,-4 -20,-9 -27,-15 -7,-7 -13,-16 -16,-26 -4,-10 -6,-22 -6,-36 0,-10 1,-22 3,-34 2,-12 6,-24 10,-36 4,-12 10,-24 17,-35 7,-11 16,-20 25,-29 10,-8 21,-15 34,-20 13,-5 27,-7 44,-7 13,0 25,1 34,5 10,3 18,8 24,13 6,5 11,11 13,18 3,7 5,13 5,20zm-42 3c0,-8 -3,-15 -10,-20 -6,-5 -16,-8 -28,-8 -10,0 -20,2 -28,6 -8,3 -15,8 -22,15 -6,6 -11,13 -16,21 -4,9 -8,17 -11,27l25 0c17,0 32,-1 43,-3 12,-3 21,-6 28,-9 7,-4 12,-8 15,-13 2,-5 4,-10 4,-16z"/>
  <path class="fil21" d="M17288 6048c0,10 -2,20 -4,29 -3,9 -7,17 -12,25 -5,8 -11,15 -18,21 -7,6 -15,11 -24,15 7,1 13,3 19,7 6,3 11,8 15,13 5,5 8,11 10,18 3,7 4,15 4,23 0,10 -1,19 -4,28 -2,9 -6,17 -10,25 -5,8 -11,15 -18,22 -6,6 -14,12 -23,17 -8,4 -18,8 -29,11 -10,2 -22,4 -36,4l-82 0c-5,0 -8,-2 -11,-4 -2,-2 -3,-6 -1,-12l57 -287c1,-6 3,-10 7,-12 4,-2 8,-3 11,-3l64 0c16,0 29,1 39,4 11,3 19,7 26,12 7,5 12,11 15,19 3,7 5,16 5,25zm-33 5c0,-6 -1,-11 -3,-16 -2,-5 -5,-9 -10,-12 -4,-3 -10,-6 -16,-8 -7,-2 -16,-3 -27,-3l-50 0 -23 114 54 0c15,0 26,-2 35,-7 9,-4 17,-10 23,-18 6,-7 10,-15 13,-24 2,-9 4,-18 4,-26zm-9 149c0,-15 -6,-27 -16,-35 -11,-8 -27,-12 -49,-12l-60 0 -25 124 67 0c14,0 26,-2 36,-6 10,-4 18,-10 25,-17 7,-7 13,-15 16,-24 4,-10 6,-19 6,-30z"/>
  <path id="1" class="fil21" d="M17566 6301c0,1 -1,2 -1,2 -1,1 -2,2 -3,2 -1,1 -3,1 -5,2 -2,0 -4,0 -7,0 -3,0 -5,0 -7,0 -2,-1 -3,-1 -4,-2 -1,0 -2,-1 -2,-2 -1,0 -1,-1 0,-2l44 -223c0,-1 1,-1 1,-2 1,-1 2,-2 3,-2 1,-1 3,-1 5,-2 2,0 4,0 7,0 3,0 5,0 7,0 2,1 3,1 4,2 1,0 2,1 2,2 0,1 0,1 0,2l-44 223zm-61 -85c0,16 -3,30 -8,41 -6,12 -13,22 -22,29 -9,8 -20,14 -32,18 -12,3 -25,5 -38,5 -14,0 -26,-2 -35,-6 -10,-4 -18,-10 -23,-17 -6,-7 -9,-16 -10,-26 -2,-10 -1,-21 1,-33l30 -149c0,-1 0,-1 1,-2 0,-1 1,-2 3,-2 1,-1 2,-1 4,-2 2,0 5,0 8,0 3,0 5,0 7,0 1,1 3,1 4,2 1,0 2,1 2,2 0,1 0,1 0,2l-17 85c7,-2 14,-4 23,-5 8,-1 17,-2 25,-2 12,0 23,2 33,4 9,3 17,7 24,13 6,5 11,11 15,19 3,7 5,15 5,24zm-30 4c0,-6 -1,-12 -3,-17 -2,-5 -6,-9 -10,-12 -4,-3 -10,-6 -16,-8 -6,-1 -13,-2 -21,-2 -9,0 -18,1 -27,2 -8,2 -16,3 -23,6l-8 37c-3,20 -2,34 5,44 8,10 20,15 36,15 9,0 18,-2 27,-5 8,-3 15,-7 21,-13 6,-5 11,-12 14,-20 4,-8 5,-17 5,-27z"/>
  <path id="2" class="fil21" d="M17868 6095c0,5 -1,11 -1,20 -1,9 -2,19 -3,30 -2,11 -4,23 -7,35 -3,12 -7,25 -12,37 -5,12 -11,24 -18,35 -7,11 -15,21 -24,30 -10,8 -21,15 -34,20 -13,5 -27,8 -43,8 -14,0 -26,-2 -36,-7 -9,-4 -17,-9 -23,-17 -6,-7 -10,-16 -12,-25 -3,-10 -4,-21 -4,-32 0,-10 1,-22 3,-34 2,-12 5,-23 9,-35 4,-12 10,-24 16,-35 6,-10 14,-20 23,-28 9,-9 19,-15 31,-20 12,-5 25,-8 39,-8 9,0 17,1 25,4 7,2 14,5 19,9 6,4 10,8 14,14 3,5 6,11 8,18 0,-2 0,-5 0,-7 0,-2 0,-5 0,-10 0,-14 -1,-28 -4,-41 -3,-13 -8,-25 -14,-34 -7,-10 -16,-18 -28,-23 -11,-6 -25,-9 -42,-9 -5,0 -7,0 -9,-1 -1,-1 -2,-3 -2,-5 0,-1 0,-2 0,-3 0,-1 1,-2 1,-3 0,-1 0,-2 1,-3 0,-2 0,-3 1,-4 0,-1 1,-2 1,-3 1,-1 1,-1 2,-2 0,-1 2,-2 4,-2 1,0 4,-1 7,-1 17,0 32,3 46,8 14,5 25,12 35,23 10,11 18,24 23,41 5,16 8,36 8,60zm-44 76c0,-24 -5,-43 -14,-57 -9,-13 -23,-20 -40,-20 -11,0 -22,3 -31,7 -8,5 -16,11 -23,19 -6,8 -12,17 -16,26 -4,10 -8,20 -10,30 -3,9 -5,19 -6,28 -1,9 -2,16 -2,23 0,18 4,32 12,42 8,11 20,16 36,16 11,0 21,-2 30,-6 8,-4 16,-9 23,-15 7,-6 14,-13 19,-20 5,-8 9,-16 12,-25 3,-8 6,-17 7,-25 2,-8 3,-16 3,-23z"/>
  <path id="3" class="fil21" d="M18112 6122c0,11 -3,21 -8,30 -5,8 -13,16 -24,22 -11,6 -25,11 -43,14 -17,4 -38,5 -62,5l-28 0c-2,7 -2,13 -3,19 0,6 -1,11 -1,16 0,18 5,32 13,42 9,10 23,15 43,15 10,0 20,-1 28,-3 8,-1 15,-3 21,-5 6,-2 11,-3 15,-5 3,-1 6,-2 7,-2 1,0 2,0 3,2 0,1 1,2 1,4 0,1 0,2 -1,3 0,2 0,4 -1,5 0,2 -1,4 -2,5 -1,2 -1,4 -3,5 -2,2 -5,4 -10,6 -5,1 -10,3 -17,5 -6,1 -14,2 -21,3 -8,1 -16,2 -23,2 -14,0 -26,-2 -37,-5 -10,-4 -19,-9 -26,-15 -7,-7 -12,-16 -16,-26 -3,-10 -5,-21 -5,-35 0,-10 1,-22 3,-34 2,-12 5,-24 10,-36 4,-11 10,-23 17,-34 6,-11 15,-20 24,-28 10,-9 21,-15 33,-20 12,-5 26,-8 42,-8 13,0 24,2 33,5 9,3 16,8 22,13 6,5 10,11 12,17 3,6 4,12 4,18zm-31 3c0,-9 -4,-17 -11,-22 -8,-6 -18,-9 -31,-9 -12,0 -22,2 -32,6 -9,4 -17,10 -24,17 -7,7 -13,15 -18,24 -5,9 -9,18 -12,28l27 0c20,0 36,-1 49,-3 13,-3 23,-6 31,-10 7,-4 13,-9 16,-14 3,-5 5,-11 5,-17z"/>
  <path id="4" class="fil21" d="M18309 6301c0,1 -1,2 -1,3 -1,0 -2,1 -3,2 -2,0 -3,0 -5,1 -2,0 -4,0 -7,0 -3,0 -5,0 -7,0 -2,-1 -4,-1 -5,-1 -1,-1 -1,-2 -2,-2 0,-1 0,-2 0,-3l41 -202 -7 0c-18,0 -33,2 -46,6 -13,5 -24,11 -33,20 -9,9 -16,21 -22,35 -6,14 -12,31 -16,50 -4,15 -7,28 -11,39 -3,11 -6,20 -10,28 -4,7 -7,13 -12,17 -4,5 -8,8 -14,11 -5,2 -11,3 -17,4 -7,1 -14,1 -22,1 -3,0 -5,0 -6,-1 -2,-1 -2,-3 -2,-6 0,0 0,-1 0,-3 0,-1 0,-2 1,-4 0,-2 0,-3 1,-5 0,-2 1,-3 2,-4 1,-2 2,-3 3,-4 1,-1 3,-1 4,-1 8,0 15,-1 20,-2 5,-2 10,-5 14,-11 4,-5 7,-13 11,-24 3,-11 7,-25 11,-43 4,-19 10,-36 16,-52 7,-16 16,-30 28,-41 11,-12 25,-20 42,-27 17,-6 38,-9 63,-9 3,0 7,0 12,0 5,0 9,0 14,0 3,1 5,2 7,3 1,2 2,5 1,9l-43 216z"/>
  <path id="5" class="fil21" d="M18564 6301c0,1 -1,2 -1,2 -1,1 -2,2 -3,2 -1,1 -3,1 -4,2 -2,0 -4,0 -7,0 -2,0 -4,0 -6,0 -2,-1 -3,-1 -4,-2 -1,0 -1,-1 -1,-2 -1,0 -1,-1 0,-2l8 -45c-2,5 -6,11 -11,18 -6,6 -13,12 -20,17 -8,5 -17,10 -26,13 -9,4 -19,6 -28,6 -11,0 -21,-2 -28,-5 -8,-3 -14,-7 -18,-12 -5,-5 -8,-11 -10,-18 -2,-7 -3,-15 -3,-24 0,-5 1,-10 1,-16 1,-5 2,-11 3,-17l28 -140c0,-1 0,-1 1,-2 1,-1 2,-2 3,-2 1,-1 3,-1 5,-2 1,0 4,0 7,0 2,0 5,0 7,0 1,1 3,1 4,2 1,0 1,1 2,2 0,1 0,1 0,2l-28 140c-1,5 -2,10 -2,15 -1,5 -1,10 -1,15 0,5 0,10 1,15 2,4 3,8 6,12 2,3 6,6 10,7 4,2 9,3 15,3 9,0 19,-3 29,-8 10,-5 20,-13 28,-22 9,-10 16,-21 23,-34 7,-13 12,-28 15,-43l20 -100c0,-1 0,-1 1,-2 1,-1 1,-2 3,-2 1,-1 3,-1 5,-2 1,0 4,0 7,0 3,0 5,0 7,0 2,1 3,1 4,2 1,0 2,1 2,2 0,1 0,1 0,2l-44 223z"/>
  <path id="6" class="fil21" d="M18959 6301c0,1 0,2 -1,3 -1,0 -1,1 -3,2 -1,0 -3,0 -5,1 -2,0 -4,0 -7,0 -3,0 -5,0 -7,0 -2,-1 -3,-1 -4,-1 -1,-1 -2,-2 -2,-2 0,-1 0,-2 0,-3l28 -140c1,-5 2,-10 2,-14 1,-5 1,-10 1,-14 0,-12 -2,-22 -7,-29 -4,-7 -12,-10 -24,-10 -9,0 -19,2 -28,8 -10,5 -19,13 -28,22 -9,10 -16,21 -23,35 -7,13 -12,28 -15,43l-19 99c-1,1 -1,2 -2,3 0,0 -1,1 -2,2 -2,0 -3,0 -5,1 -2,0 -4,0 -7,0 -3,0 -5,0 -7,0 -2,-1 -3,-1 -4,-1 -1,-1 -2,-2 -2,-2 -1,-1 -1,-2 0,-3l27 -140c1,-5 2,-10 2,-16 1,-5 1,-9 1,-14 0,-11 -2,-20 -7,-27 -5,-7 -13,-10 -24,-10 -9,0 -18,2 -28,8 -10,5 -19,13 -27,22 -9,10 -16,21 -23,35 -7,13 -11,28 -15,43l-19 99c-1,1 -1,2 -2,3 0,0 -1,1 -2,2 -2,0 -3,0 -5,1 -2,0 -4,0 -7,0 -3,0 -6,0 -7,0 -2,-1 -3,-1 -4,-1 -2,-1 -2,-2 -2,-2 -1,-1 -1,-2 0,-3l44 -223c0,-1 0,-1 1,-2 1,-1 1,-2 3,-2 1,-1 2,-1 4,-2 2,0 4,0 7,0 2,0 5,0 6,0 2,1 3,1 4,2 1,0 1,1 2,2 0,1 0,1 0,2l-9 46c2,-5 6,-11 11,-18 6,-6 12,-12 20,-18 8,-5 16,-10 25,-13 9,-4 18,-6 28,-6 10,0 19,1 25,4 8,3 13,7 18,12 4,4 8,10 10,17 2,7 3,14 3,22 3,-6 7,-12 13,-18 6,-7 13,-12 20,-18 8,-5 16,-10 25,-13 9,-4 19,-6 28,-6 11,0 20,2 27,5 7,3 13,7 17,12 5,5 8,12 10,19 2,7 3,14 3,23 0,5 -1,11 -1,16 -1,6 -2,12 -3,17l-28 140z"/>
  <path id="7" class="fil21" d="M19224 6215c0,16 -3,30 -9,42 -6,11 -13,21 -22,29 -10,8 -21,14 -33,17 -12,4 -25,6 -38,6 -14,0 -26,-2 -36,-6 -10,-4 -17,-10 -23,-17 -6,-7 -9,-16 -11,-26 -2,-10 -1,-21 1,-33l30 -149c0,-1 0,-1 1,-2 0,-1 1,-2 3,-2 1,-1 2,-1 4,-2 2,0 5,0 8,0 2,0 5,0 7,0 1,1 3,1 4,2 1,0 1,1 2,2 0,1 0,1 0,2l-17 83c7,-2 15,-4 24,-5 9,-1 18,-2 27,-2 12,0 22,2 32,5 9,3 18,7 24,12 7,5 13,12 16,19 4,8 6,16 6,25zm-31 4c0,-6 -1,-12 -3,-17 -3,-5 -6,-9 -11,-12 -4,-4 -9,-6 -16,-8 -6,-2 -13,-3 -21,-3 -9,0 -19,1 -28,3 -8,1 -17,3 -24,6l-8 38c-4,19 -1,34 6,44 8,9 20,14 37,14 9,0 18,-1 27,-4 8,-4 15,-8 22,-13 6,-6 11,-13 14,-21 4,-8 5,-17 5,-27z"/>
  <path class="fil21" d="M18112 6514c0,10 -1,20 -4,29 -3,9 -6,18 -11,25 -5,8 -11,15 -18,21 -7,6 -15,11 -25,15 7,1 14,3 20,7 6,3 11,8 15,13 4,5 7,11 10,19 2,7 3,14 3,23 0,9 -1,18 -3,27 -3,9 -6,17 -11,25 -5,8 -10,15 -17,22 -7,6 -15,12 -23,17 -9,5 -19,8 -29,11 -11,2 -23,4 -36,4l-83 0c-4,0 -8,-1 -10,-4 -3,-2 -3,-6 -2,-12l57 -287c1,-6 4,-10 8,-12 3,-2 7,-3 11,-3l63 0c16,0 29,1 40,4 10,3 19,7 25,12 7,5 12,12 15,19 3,7 5,16 5,25zm-33 5c0,-6 -1,-11 -3,-16 -2,-5 -5,-9 -9,-12 -4,-3 -10,-6 -17,-8 -7,-2 -16,-3 -27,-3l-50 0 -23 115 55 0c14,0 26,-3 35,-8 9,-4 16,-10 22,-18 6,-7 10,-15 13,-24 3,-9 4,-17 4,-26zm-9 149c0,-15 -5,-27 -16,-35 -10,-8 -27,-12 -49,-12l-60 0 -25 124 67 0c14,0 26,-2 36,-6 10,-4 19,-10 26,-17 7,-7 12,-15 16,-24 3,-9 5,-19 5,-30z"/>
  <path id="1" class="fil21" d="M18340 6567c0,2 0,4 -1,7 0,2 -1,4 -1,6 -1,2 -2,3 -4,4 -1,1 -2,2 -4,2 -2,0 -4,-1 -7,-4 -3,-2 -6,-5 -10,-9 -5,-3 -10,-6 -17,-8 -7,-3 -15,-4 -26,-4 -11,0 -21,2 -30,7 -9,5 -17,11 -23,18 -7,8 -12,16 -16,25 -5,10 -8,20 -11,29 -2,10 -4,19 -5,29 -1,9 -2,16 -2,23 0,19 4,34 12,43 8,10 21,15 36,15 12,0 21,-2 30,-5 8,-2 15,-6 20,-9 6,-4 11,-7 14,-10 4,-3 7,-4 9,-4 2,0 2,0 3,2 1,1 1,2 1,4 0,2 0,4 0,6 0,2 -1,4 -1,6 -1,2 -1,4 -2,5 -1,2 -2,4 -4,6 -2,2 -6,5 -11,8 -5,3 -11,6 -17,8 -7,3 -14,5 -22,6 -7,2 -15,3 -23,3 -26,0 -45,-7 -57,-20 -13,-13 -19,-32 -19,-58 0,-10 1,-21 2,-33 2,-12 5,-24 9,-36 4,-12 9,-23 15,-35 6,-11 14,-21 23,-30 9,-9 19,-16 31,-21 12,-5 26,-8 41,-8 7,0 13,1 19,2 6,1 12,2 17,4 6,2 10,5 15,7 4,3 8,6 11,8 2,3 4,5 4,6 1,1 1,3 1,5z"/>
  <path id="2" class="fil21" d="M18560 6588c0,11 -3,21 -8,30 -5,8 -13,16 -24,22 -11,6 -26,11 -43,15 -17,3 -38,5 -62,5l-29 0c-1,6 -2,12 -2,18 -1,6 -1,11 -1,16 0,18 4,32 13,42 9,10 23,15 43,15 10,0 19,-1 28,-3 8,-1 15,-3 21,-5 6,-1 11,-3 14,-5 4,-1 7,-2 8,-2 1,0 2,1 3,2 0,1 1,2 1,4 0,1 -1,2 -1,4 0,1 0,3 -1,4 0,2 -1,4 -2,6 -1,1 -2,3 -3,4 -2,2 -5,4 -10,6 -5,2 -11,3 -17,5 -7,1 -14,2 -22,3 -7,1 -15,2 -22,2 -14,0 -27,-2 -37,-5 -11,-4 -19,-9 -26,-15 -7,-7 -13,-15 -16,-26 -3,-10 -5,-21 -5,-35 0,-10 1,-22 3,-34 2,-12 5,-24 10,-35 4,-12 10,-24 16,-35 7,-11 15,-20 25,-28 9,-9 20,-15 33,-20 12,-5 26,-8 42,-8 13,0 24,2 33,5 9,4 16,8 22,13 5,5 9,11 12,17 3,6 4,12 4,18zm-31 3c0,-9 -4,-17 -11,-22 -8,-6 -18,-9 -31,-9 -12,0 -23,2 -32,7 -9,4 -17,9 -24,16 -7,7 -13,15 -18,24 -5,9 -9,18 -12,28l27 0c19,0 36,-1 48,-3 13,-3 24,-6 31,-10 8,-4 14,-9 17,-14 3,-5 5,-11 5,-17z"/>
  <polygon class="fil25" points="19481,3311 19482,3711 18723,3711 18807,3788 18807,3873 18593,3673 18807,3475 18807,3561 18722,3638 19408,3638 19408,3311 "/>
  <polygon class="fil26 str0" points="18457,5108 18697,4842 18935,5108 18839,5108 18695,4946 18552,5108 "/>
  <polygon class="fil26 str0" points="1216,5108 1456,4842 1693,5108 1598,5108 1454,4946 1310,5108 "/>
  <polygon class="fil21" points="9513,6404 9513,6650 10141,6650 10155,6650 10620,6650 10620,6404 10674,6404 10674,6704 10155,6704 10141,6704 9458,6704 9458,6404 "/>
  <path class="fil26" d="M18919 602l-157 164 157 168 407 0 0 -332 -407 0zm-15 -34l456 0 0 400 -456 0 -189 -202 189 -198z"/>
  <path class="fil27" d="M17798 69l-6 0 0 -9 8 0 3 -14 -11 0 0 -9 13 0 3 -18 10 0 -3 18 9 0 4 -18 10 0 -3 18 6 0 0 9 -8 0 -3 14 11 0 0 9 -13 0 -3 18 -10 0 3 -18 -10 0 -3 18 -11 0 4 -18zm15 -23l-3 14 10 0 3 -14 -10 0z"/>
  <path id="1" class="fil27" d="M17874 86l0 -66 21 0c8,0 14,1 16,1 4,1 7,3 9,7 3,3 4,7 4,12 0,4 -1,8 -2,11 -1,2 -3,4 -5,6 -3,2 -5,3 -7,3 -4,1 -8,1 -14,1l-9 0 0 25 -13 0zm13 -55l0 19 8 0c5,0 8,0 10,-1 2,-1 3,-2 4,-3 1,-2 2,-3 2,-5 0,-3 -1,-5 -2,-6 -2,-2 -4,-3 -6,-3 -1,-1 -5,-1 -9,-1l-7 0z"/>
  <path id="2" class="fil27" d="M17944 53l-11 -2c1,-5 4,-8 7,-10 3,-3 7,-4 14,-4 5,0 9,1 12,2 3,2 5,3 6,5 1,2 2,6 2,12l-1 14c0,4 1,7 1,9 0,2 1,4 2,7l-12 0c-1,-1 -1,-2 -1,-4 -1,-1 -1,-1 -1,-1 -2,2 -4,3 -7,4 -2,1 -5,2 -8,2 -4,0 -8,-1 -11,-4 -3,-3 -4,-6 -4,-10 0,-3 0,-5 2,-7 1,-2 3,-4 5,-5 2,-1 6,-2 10,-3 6,-1 10,-2 12,-3l0 -1c0,-3 0,-5 -2,-6 -1,-1 -3,-1 -6,-1 -3,0 -4,0 -6,1 -1,1 -2,3 -3,5zm17 10c-1,1 -4,1 -7,2 -4,1 -6,1 -7,2 -2,1 -3,3 -3,5 0,1 1,3 2,4 2,1 3,2 5,2 2,0 5,-1 7,-2 1,-1 2,-3 3,-4 0,-1 0,-3 0,-6l0 -3z"/>
  <path id="3" class="fil27" d="M18027 52l-12 3c-1,-3 -1,-5 -3,-6 -1,-1 -3,-2 -6,-2 -3,0 -5,1 -7,3 -2,3 -3,6 -3,11 0,6 1,10 3,12 2,3 4,4 7,4 3,0 5,-1 6,-2 2,-2 3,-4 4,-7l12 2c-1,5 -4,10 -7,13 -4,2 -9,4 -15,4 -7,0 -13,-2 -17,-7 -4,-4 -6,-10 -6,-18 0,-8 2,-14 6,-18 4,-5 10,-7 17,-7 6,0 11,2 14,4 3,2 6,6 7,11z"/>
  <path id="4" class="fil27" d="M18037 32l0 -12 12 0 0 12 -12 0zm0 54l0 -48 12 0 0 48 -12 0z"/>
  <path id="5" class="fil27" d="M18057 38l7 0 0 -3c0,-4 0,-7 1,-9 1,-2 3,-4 5,-5 2,-1 5,-2 9,-2 3,0 7,1 10,2l-1 8c-2,0 -4,0 -6,0 -2,0 -3,0 -4,1 -1,1 -2,2 -2,5l0 3 10 0 0 10 -10 0 0 38 -12 0 0 -38 -7 0 0 -10zm35 -6l0 -12 13 0 0 12 -13 0zm0 54l0 -48 13 0 0 48 -13 0z"/>
  <path id="6" class="fil27" d="M18114 72l12 -2c1,3 2,5 3,6 2,1 4,2 7,2 4,0 6,-1 8,-2 1,-1 1,-2 1,-3 0,-1 0,-2 -1,-3 0,0 -2,-1 -4,-1 -10,-3 -16,-5 -19,-6 -4,-3 -6,-7 -6,-11 0,-4 2,-8 5,-11 3,-2 9,-4 15,-4 7,0 12,1 15,3 3,3 5,6 6,10l-11 2c-1,-2 -2,-3 -3,-4 -2,-1 -4,-2 -6,-2 -4,0 -6,1 -8,2 -1,0 -1,1 -1,2 0,1 0,2 1,3 1,0 5,2 12,3 7,2 11,3 14,6 3,2 4,5 4,9 0,4 -2,8 -5,11 -4,3 -9,5 -17,5 -6,0 -11,-1 -15,-4 -4,-3 -6,-6 -7,-11z"/>
  <path id="7" class="fil27" d="M18191 38l0 10 -9 0 0 19c0,4 0,7 0,7 0,1 1,1 1,2 1,0 2,1 3,1 1,0 2,-1 5,-2l1 10c-3,1 -7,2 -10,2 -2,0 -5,0 -6,-1 -2,-1 -3,-2 -4,-3 -1,-1 -2,-3 -2,-5 0,-2 0,-5 0,-9l0 -21 -6 0 0 -10 6 0 0 -9 12 -8 0 17 9 0z"/>
 </g>
</svg>
