<?xml version="1.0" encoding="UTF-8"?>
<!DOCTYPE svg PUBLIC "-//W3C//DTD SVG 1.1//EN" "http://www.w3.org/Graphics/SVG/1.1/DTD/svg11.dtd">
<!-- Creator: CorelDRAW 2020 (64-Bit) -->
<svg xmlns="http://www.w3.org/2000/svg" xml:space="preserve" width="197.52mm" height="70.1mm" version="1.1" style="shape-rendering:geometricPrecision; text-rendering:geometricPrecision; image-rendering:optimizeQuality; fill-rule:evenodd; clip-rule:evenodd"
viewBox="0 0 201324.5 71450.2"
 xmlns:xlink="http://www.w3.org/1999/xlink"
 xmlns:xodm="http://www.corel.com/coreldraw/odm/2003">
 <defs>
  <style type="text/css">
   <![CDATA[
    .fil1 {fill:none}
    .fil4 {fill:black}
    .fil9 {fill:#18191B}
    .fil7 {fill:#6DE769}
    .fil5 {fill:#FF0033}
    .fil6 {fill:white}
    .fil2 {fill:black;fill-rule:nonzero}
    .fil14 {fill:#273F6F;fill-rule:nonzero}
    .fil11 {fill:#273F6F;fill-rule:nonzero}
    .fil10 {fill:#406679;fill-rule:nonzero}
    .fil12 {fill:#6DE769;fill-rule:nonzero}
    .fil8 {fill:#6DE769;fill-rule:nonzero}
    .fil3 {fill:#B6D7F5;fill-rule:nonzero}
    .fil15 {fill:#CFEFFF;fill-rule:nonzero}
    .fil13 {fill:#E5E5E5;fill-rule:nonzero}
    .fil0 {fill:url(#id0)}
   ]]>
  </style>
  <radialGradient id="id0" gradientUnits="userSpaceOnUse" gradientTransform="matrix(1.5839 0.721472 -0.75181 1.51998 -24048 -28678)" cx="40264.8" cy="-714.6" r="99229.7" fx="40264.8" fy="-714.6">
   <stop offset="0" style="stop-opacity:1; stop-color:#7DA1FF"/>
   <stop offset="0.25098" style="stop-opacity:1; stop-color:#5DA174"/>
   <stop offset="0.470588" style="stop-opacity:1; stop-color:#FED56B"/>
   <stop offset="0.6" style="stop-opacity:1; stop-color:#FFCFCC"/>
   <stop offset="0.780392" style="stop-opacity:1; stop-color:#C90E6F"/>
   <stop offset="0.870588" style="stop-opacity:1; stop-color:#C95C96"/>
   <stop offset="1" style="stop-opacity:1; stop-color:#DD66FE"/>
  </radialGradient>
 </defs>
 <g id="Layer_x0020_1">
  <metadata id="CorelCorpID_0Corel-Layer"/>
  <rect class="fil0" x="-0" y="-0.1" width="201324.5" height="71450.2" rx="2054.1" ry="2140.5"/>
  <path class="fil1" d="M80166.6 30873.5l0 9708.3c0,841.7 596.7,1438.4 1438.3,1438.4l9708.5 0c841.7,0 1438.3,-596.7 1438.3,-1438.4l0 -9708.3c0,-841.7 -596.6,-1438.4 -1438.3,-1438.4l-9708.5 0c-841.6,0 -1438.3,596.7 -1438.3,1438.4z"/>
  <path class="fil1" d="M65424.1 58920l0 9708.5c0,841.7 596.7,1438.3 1438.3,1438.3l67599.7 0c841.6,0 1438.3,-596.6 1438.3,-1438.3l0 -9708.5c0,-841.7 -596.7,-1438.3 -1438.3,-1438.3l-67599.7 0c-841.6,0 -1438.3,596.6 -1438.3,1438.3z"/>
  <path class="fil1" d="M1060.7 58920l0 9708.5c0,841.7 596.6,1438.3 1438.3,1438.3l31282.9 0c841.6,0 1438.3,-596.6 1438.3,-1438.3l0 -9708.5c0,-841.7 -596.7,-1438.3 -1438.3,-1438.3l-31282.9 0c-841.7,0 -1438.3,596.6 -1438.3,1438.3z"/>
  <path class="fil1" d="M166464 58920l0 9708.5c0,841.7 596.6,1438.3 1438.3,1438.3l30923.2 0c841.7,0 1438.3,-596.6 1438.3,-1438.3l0 -9708.5c0,-841.7 -596.6,-1438.3 -1438.3,-1438.3l-30923.2 0c-841.7,0 -1438.3,596.6 -1438.3,1438.3z"/>
  <path class="fil1" d="M37017.9 58920l0 9708.5c0,841.7 596.6,1438.3 1438.3,1438.3l24091.4 0c841.7,0 1438.3,-596.6 1438.3,-1438.3l0 -9708.5c0,-841.7 -596.6,-1438.3 -1438.3,-1438.3l-24091.4 0c-841.7,0 -1438.3,596.6 -1438.3,1438.3z"/>
  <g id="_1429421888">
   <path class="fil2" d="M44760.7 64202.8l-253 -278.8 253 -278.8 1343.8 0 253.1 278.8 -253.1 278.8 -1343.8 0zm-551 -607.1l0 -1945.1 506 557.5 0 1387.5 -252.9 278.8 -253.1 -278.8zm0 656.6l253.1 -278.8 252.9 278.8 0 1715.8 -252.9 278.8 -253.1 -278.8 0 -1715.8zm1939.9 -656.6l0 -1387.5 253 -278.8 253.1 278.8 0 1387.5 -253.1 278.8 -253 -278.8zm-1028.9 681.4l1450.6 1598.2 0 371.6 -337.4 0 -1450.6 -1598.1 0 -371.7 337.4 0zm-866 -2676l1849.9 0 253.1 278.8 -253.1 278.8 -1343.8 0 -506.1 -557.5z"/>
   <path id="1" class="fil2" d="M47712.7 65689.4l1343.8 0 253.1 278.8 -253.1 278.8 -1349.5 0 -247.4 -278.8 253.1 -278.8zm1388.7 -1486.6l253.1 -278.8 -253.1 -266.3 0 -1777.8 253.1 -278.8 253 278.8 0 1765.4 -253 278.8 253 278.8 0 1437.1 -253 278.8 -253.1 -278.8 0 -1437.1zm-1939.9 0l253.1 -278.8 -253.1 -278.8 0 -1765.4 253.1 -278.8 253 278.8 0 1765.4 -253 278.8 253 278.8 0 1437.1 -253 278.8 -253.1 -278.8 0 -1437.1z"/>
   <path id="2" class="fil2" d="M52143.6 61601.1l1894.8 0 253.1 278.8 -253.1 278.8 -1388.7 0 -506.1 -557.5zm506.1 2044.1l1388.7 0 253.1 278.8 -253.1 278.8 -1388.7 0 -253.1 -278.8 253.1 -278.8zm-551 607.1l253 -278.8 253 278.8 0 1387.5 -506 557.5 0 -1945.1zm0 -2601.7l506 557.5 0 1387.5 -253 278.8 -253 -278.8 0 -1945.1zm44.9 4596.3l506.1 -557.5 1388.7 0 253.1 278.8 -253.1 278.8 -1894.8 0z"/>
   <path id="3" class="fil2" d="M56551.9 61879.9l253.1 -278.8 253 278.8 0 1765.4 -253 278.8 253 278.8 0 1765.4 -253 278.8 -253.1 -278.8 0 -1765.4 253.1 -278.8 -253.1 -278.8 0 -1765.4zm-1433.8 1765.4l-253 278.8 253 278.8 0 1765.4 -253 278.8 -253.1 -278.8 0 -1765.4 253.1 -278.8 -253.1 -278.8 0 -1765.4 253.1 -278.8 253 278.8 0 1765.4zm1366.3 0l-337.3 0 -961.6 -1393.7 0 -371.6 337.4 0 961.5 1393.7 0 371.6z"/>
   <polygon id="4" class="fil2" points="50181.1,63645.2 51525,63645.2 51778.1,63924 51525,64202.8 50181.1,64202.8 49928.1,63924 "/>
   <path class="fil3" d="M44497 63903.2l-253 -278.8 253 -278.8 1343.8 0 253.1 278.8 -253.1 278.8 -1343.8 0zm-551 -607.1l0 -1945.1 506 557.5 0 1387.5 -252.9 278.8 -253.1 -278.8zm0 656.6l253.1 -278.8 252.9 278.8 0 1715.8 -252.9 278.8 -253.1 -278.8 0 -1715.8zm1939.9 -656.6l0 -1387.5 253 -278.8 253.1 278.8 0 1387.5 -253.1 278.8 -253 -278.8zm-1028.9 681.4l1450.6 1598.2 0 371.6 -337.4 0 -1450.6 -1598.1 0 -371.7 337.4 0zm-866 -2676l1849.9 0 253.1 278.8 -253.1 278.8 -1343.8 0 -506.1 -557.5z"/>
   <path id="1" class="fil3" d="M47449.1 65389.8l1343.8 0 253.1 278.8 -253.1 278.8 -1349.5 0 -247.4 -278.8 253.1 -278.8zm1388.7 -1486.6l253.1 -278.8 -253.1 -266.3 0 -1777.8 253.1 -278.8 253 278.8 0 1765.4 -253 278.8 253 278.8 0 1437.1 -253 278.8 -253.1 -278.8 0 -1437.1zm-1939.9 0l253.1 -278.8 -253.1 -278.8 0 -1765.4 253.1 -278.8 253 278.8 0 1765.4 -253 278.8 253 278.8 0 1437.1 -253 278.8 -253.1 -278.8 0 -1437.1z"/>
   <path id="2" class="fil3" d="M51879.9 61301.5l1894.8 0 253.1 278.8 -253.1 278.8 -1388.7 0 -506.1 -557.5zm506.1 2044.1l1388.7 0 253.1 278.8 -253.1 278.8 -1388.7 0 -253.1 -278.8 253.1 -278.8zm-551 607.1l253 -278.8 253 278.8 0 1387.5 -506 557.5 0 -1945.1zm0 -2601.7l506 557.5 0 1387.5 -253 278.8 -253 -278.8 0 -1945.1zm44.9 4596.3l506.1 -557.5 1388.7 0 253.1 278.8 -253.1 278.8 -1894.8 0z"/>
   <path id="3" class="fil3" d="M56288.2 61580.3l253.1 -278.8 253 278.8 0 1765.4 -253 278.8 253 278.8 0 1765.4 -253 278.8 -253.1 -278.8 0 -1765.4 253.1 -278.8 -253.1 -278.8 0 -1765.4zm-1433.8 1765.4l-253 278.8 253 278.8 0 1765.4 -253 278.8 -253.1 -278.8 0 -1765.4 253.1 -278.8 -253.1 -278.8 0 -1765.4 253.1 -278.8 253 278.8 0 1765.4zm1366.3 0l-337.3 0 -961.6 -1393.7 0 -371.6 337.4 0 961.5 1393.7 0 371.6z"/>
   <polygon id="4" class="fil3" points="49917.4,63345.7 51261.3,63345.7 51514.4,63624.4 51261.3,63903.2 49917.4,63903.2 49664.4,63624.4 "/>
  </g>
  <g id="_1429410368">
   <path class="fil4" d="M41139 61909.4l2297.6 2297.7 -1543.9 0 -1519.6 -1519.6 0 -778.1 765.9 0zm753.7 2431.4l1543.9 0 -2297.6 2297.7 -765.9 0 0 -778.1 1519.6 -1519.6z"/>
   <path class="fil4" d="M60842.1 66638.6l-2297.6 -2297.7 1543.9 0 1519.6 1519.6 0 778.1 -765.9 0zm-753.7 -2431.4l-1543.9 0 2297.6 -2297.7 765.9 0 0 778.1 -1519.6 1519.6z"/>
  </g>
  <g id="_1429454144">
   <path class="fil5" d="M40650.4 61409.7l2297.6 2297.7 -1543.9 0 -1519.6 -1519.6 0 -778.1 765.9 0zm753.7 2431.4l1543.9 0 -2297.6 2297.7 -765.9 0 0 -778.1 1519.6 -1519.6z"/>
   <path class="fil6" d="M60353.4 66138.8l-2297.6 -2297.7 1543.9 0 1519.6 1519.6 0 778.1 -765.9 0zm-753.7 -2431.4l-1543.9 0 2297.6 -2297.7 765.9 0 0 778.1 -1519.6 1519.6z"/>
  </g>
  <path class="fil1" d="M1060.7 44896.7l0 9708.5c0,841.6 596.6,1438.3 1438.3,1438.3l24091.4 0c841.7,0 1438.3,-596.7 1438.3,-1438.3l0 -9708.5c0,-841.7 -596.6,-1438.3 -1438.3,-1438.3l-24091.4 0c-841.7,0 -1438.3,596.6 -1438.3,1438.3z"/>
  <g id="_1429434992">
   <path class="fil7" d="M16311.6 47905.9l-1716.9 -1716.8 0 1153.6 1135.6 1135.6 581.4 0 0 -572.3zm-1816.8 -563.2l0 -1153.6 -1716.9 1716.8 0 572.3 581.4 0 1135.6 -1135.6z"/>
   <polygon class="fil7" points="14135.9,49979 14135.9,47871.4 14544.8,47462.6 14953.6,47871.4 14953.6,49979 14544.8,50387.8 14953.6,50796.5 14953.6,52904.1 14544.8,53312.9 14135.9,52904.1 14135.9,50796.5 14544.8,50387.8 "/>
  </g>
  <path class="fil1" d="M173655.3 44896.7l0 9708.5c0,841.6 596.7,1438.3 1438.4,1438.3l23731.8 0c841.7,0 1438.3,-596.7 1438.3,-1438.3l0 -9708.5c0,-841.7 -596.6,-1438.3 -1438.3,-1438.3l-23731.8 0c-841.7,0 -1438.4,596.6 -1438.4,1438.3z"/>
  <g id="_1429417472">
   <path class="fil7" d="M188726.4 47905.9l-1716.9 -1716.8 0 1153.6 1135.6 1135.6 581.4 0 0 -572.3zm-1816.8 -563.2l0 -1153.6 -1716.9 1716.8 0 572.3 581.4 0 1135.6 -1135.6z"/>
   <polygon class="fil7" points="186550.7,49979 186550.7,47871.4 186959.5,47462.6 187368.4,47871.4 187368.4,49979 186959.5,50387.8 187368.4,50796.5 187368.4,52904.1 186959.5,53312.9 186550.7,52904.1 186550.7,50796.5 186959.5,50387.8 "/>
  </g>
  <path class="fil1" d="M180487.2 30873.5l0 9708.3c0,841.7 596.7,1438.4 1438.3,1438.4l16900 0c841.7,0 1438.3,-596.7 1438.3,-1438.4l0 -9708.3c0,-841.7 -596.6,-1438.4 -1438.3,-1438.4l-16900 0c-841.6,0 -1438.3,596.7 -1438.3,1438.4z"/>
  <path class="fil1" d="M1060.7 30873.5l0 9708.3c0,841.7 596.6,1438.4 1438.3,1438.4l16900 0c841.6,0 1438.3,-596.7 1438.3,-1438.4l0 -9708.3c0,-841.7 -596.7,-1438.4 -1438.3,-1438.4l-16900 0c-841.7,0 -1438.3,596.7 -1438.3,1438.4z"/>
  <path class="fil8" d="M5389.3 31167.8l1203.1 0 226.5 226.6 -226.5 226.5 -1203.1 0 -226.6 -226.5 226.6 -226.6zm-493.3 493.3l226.5 -226.5 226.6 226.5 0 1168 -226.6 226.5 226.6 226.6 0 1167.9 -226.6 226.5 -226.5 -226.5 0 -1167.9 226.5 -226.6 -226.5 -226.5 0 -1168zm493.3 2829.2l1203.1 0 226.5 226.5 -226.5 226.6 -1203.1 0 -226.6 -226.6 226.6 -226.5zm1469.9 -719.9l226.6 226.6 0 453.1 -226.6 226.5 -226.5 -226.5 0 -453.1 226.5 -226.6zm226.6 -2109.3l0 453.1 -226.6 226.6 -226.5 -226.6 0 -453.1 226.5 -226.5 226.6 226.5z"/>
  <path id="1" class="fil8" d="M8032.2 31167.8l1656.2 0 -453.1 453.1 -1203.1 0 -226.6 -226.5 226.6 -226.6zm0 1661.3l1203.1 0 226.5 226.5 -226.5 226.6 -1203.1 0 -226.6 -226.6 226.6 -226.5zm-493.3 493.3l226.5 -226.6 226.6 226.6 0 1394.3 -226.6 226.6 -226.5 -226.6 0 -1394.3zm1736.7 -1661.3l453.1 -453.1 0 1580.8 -226.6 226.5 -226.5 -226.5 0 -1127.7zm-1736.7 0l226.5 -226.5 226.6 226.5 0 1127.7 -226.6 226.5 -226.5 -226.5 0 -1127.7zm1736.7 1661.3l226.5 -226.6 226.6 226.6 0 1394.3 -226.6 226.6 -226.5 -226.6 0 -1394.3z"/>
  <path id="2" class="fil8" d="M10222 31167.8l1696.5 0 226.5 226.6 -226.5 226.5 -1243.4 0 -453.1 -453.1zm453.1 1661.3l1243.4 0 226.5 226.5 -226.5 226.6 -1243.4 0 -226.6 -226.6 226.6 -226.5zm-493.3 493.3l226.5 -226.6 226.6 226.6 0 1394.3 -226.6 226.6 -226.5 -226.6 0 -1394.3zm0 -2114.4l453.1 453.1 0 1127.7 -226.6 226.5 -226.5 -226.5 0 -1580.8zm2230 1580.8l-226.6 226.5 -226.5 -226.5 0 -1127.7 226.5 -226.5 226.6 226.5 0 1127.7z"/>
  <path id="3" class="fil8" d="M13358.1 31167.8l1203.1 0 226.5 226.6 -226.5 226.5 -1203.1 0 -226.6 -226.5 226.6 -226.6zm0 1661.3l1203.1 0 226.5 226.5 -226.5 226.6 -1203.1 0 -226.6 -226.6 226.6 -226.5zm0 1661.2l1203.1 0 226.5 226.5 -226.5 226.6 -1203.1 0 -226.6 -226.6 226.6 -226.5zm-493.3 -2829.2l226.5 -226.5 226.6 226.5 0 1127.7 -226.6 226.5 -226.5 -226.5 0 -1127.7zm1736.7 1661.3l226.5 -226.6 226.6 226.6 0 1127.6 -226.6 226.5 -226.5 -226.5 0 -1127.6zm-1736.7 1127.6l0 -357.5 226.5 -226.5 226.6 226.5 0 357.5 -226.6 226.5 -226.5 -226.5zm1736.7 -2431.4l0 -357.5 226.5 -226.5 226.6 226.5 0 357.5 -226.6 226.5 -226.5 -226.5z"/>
  <path class="fil8" d="M4995.8 39771.5l453.1 -453.1 1228.3 0 226.5 226.5 -226.5 226.6 -1681.4 0zm-40.3 -40.3l0 -1620.9 226.5 -226.6 -226.5 -226.5 0 -1434.7 226.5 -226.6 226.6 226.6 0 1434.7 -226.6 226.5 226.6 226.6 0 1167.9 -453.1 453.1z"/>
  <path id="1" class="fil8" d="M7623.6 35995.9l1203.1 0 226.5 226.6 -226.5 226.5 -1203.1 0 -226.6 -226.5 226.6 -226.6zm0 3322.5l1203.1 0 226.5 226.5 -226.5 226.6 -1208.2 0 -221.5 -226.6 226.6 -226.5zm1243.4 -1208.1l226.5 -226.6 -226.5 -216.5 0 -1178 226.5 -226.5 226.6 226.5 0 1168 -226.6 226.5 226.6 226.6 0 1167.9 -226.6 226.5 -226.5 -226.5 0 -1167.9zm-1736.7 0l226.5 -226.6 -226.5 -226.5 0 -1168 226.5 -226.5 226.6 226.5 0 1168 -226.6 226.5 226.6 226.6 0 1167.9 -226.6 226.5 -226.5 -226.5 0 -1167.9z"/>
  <path id="2" class="fil8" d="M10266.4 35995.9l1203.1 0 226.5 226.6 -226.5 226.5 -1203.1 0 -226.6 -226.5 226.6 -226.6zm-493.3 493.3l226.5 -226.5 226.6 226.5 0 1168 -226.6 226.5 226.6 226.6 0 1167.9 -226.6 226.5 -226.5 -226.5 0 -1167.9 226.5 -226.6 -226.5 -226.5 0 -1168zm493.3 2829.2l1203.1 0 226.5 226.5 -226.5 226.6 -1203.1 0 -226.6 -226.6 226.6 -226.5zm1469.9 -719.9l226.6 226.6 0 453.1 -226.6 226.5 -226.5 -226.5 0 -453.1 226.5 -226.6zm226.6 -2109.3l0 453.1 -226.6 226.6 -226.5 -226.6 0 -453.1 226.5 -226.5 226.6 226.5z"/>
  <path id="3" class="fil8" d="M12909.3 37657.2l1203.1 0 226.5 226.5 -226.5 226.6 -1203.1 0 -226.6 -226.6 226.6 -226.5zm-493.3 493.3l226.5 -226.6 226.6 226.6 0 1394.3 -226.6 226.6 -226.5 -226.6 0 -1394.3zm0 -533.6l0 -1394.5 226.5 -226.6 226.6 226.6 0 1394.5 -226.6 226.5 -226.5 -226.5zm1736.7 533.6l226.5 -226.6 226.6 226.6 0 1394.3 -226.6 226.6 -226.5 -226.6 0 -1394.3zm-75.5 -2154.6l302 0 0 302.1 -1147.7 1298.7 -302.1 0 0 -302 1147.8 -1298.8z"/>
  <g id="_1429442864">
   <path class="fil9" d="M19793 36963l-1553 -1553 0 1043.6 1027.2 1027.1 525.8 0 0 -517.7zm-1643.4 -509.4l0 -1043.6 -1553 1553 0 517.7 525.8 0 1027.2 -1027.1z"/>
   <path class="fil9" d="M19793 34785.4l-1553 -1553 0 1043.6 1027.2 1027.1 525.8 0 0 -517.7zm-1643.4 -509.4l0 -1043.6 -1553 1553 0 517.7 525.8 0 1027.2 -1027.1z"/>
  </g>
  <g id="_1429470464">
   <path class="fil6" d="M19472.4 36641.4l-1553 -1553 0 1043.6 1027.2 1027.1 525.8 0 0 -517.7zm-1643.4 -509.4l0 -1043.6 -1553 1553 0 517.7 525.8 0 1027.2 -1027.1z"/>
   <path class="fil6" d="M19472.4 34463.8l-1553 -1553 0 1043.6 1027.2 1027.1 525.8 0 0 -517.7zm-1643.4 -509.4l0 -1043.6 -1553 1553 0 517.7 525.8 0 1027.2 -1027.1z"/>
  </g>
  <path class="fil1" d="M180487.2 2826.8l0 9708.5c0,841.7 596.7,1438.3 1438.3,1438.3l16900 0c841.7,0 1438.3,-596.6 1438.3,-1438.3l0 -9708.5c0,-841.7 -596.6,-1438.3 -1438.3,-1438.3l-16900 0c-841.6,0 -1438.3,596.6 -1438.3,1438.3z"/>
  <path class="fil1" d="M94549.5 30873.5l0 9708.3c0,841.7 596.7,1438.4 1438.3,1438.4l9708.4 0c841.7,0 1438.4,-596.7 1438.4,-1438.4l0 -9708.3c0,-841.7 -596.7,-1438.4 -1438.4,-1438.4l-9708.4 0c-841.6,0 -1438.3,596.7 -1438.3,1438.4z"/>
  <path class="fil1" d="M108932.3 30873.5l0 9708.3c0,841.7 596.7,1438.4 1438.4,1438.4l9708.5 0c841.6,0 1438.3,-596.7 1438.3,-1438.4l0 -9708.3c0,-841.7 -596.7,-1438.4 -1438.3,-1438.4l-9708.5 0c-841.7,0 -1438.4,596.7 -1438.4,1438.4z"/>
  <path class="fil1" d="M108932.3 2826.8l0 9708.5c0,841.7 596.7,1438.3 1438.4,1438.3l9708.5 0c841.6,0 1438.3,-596.6 1438.3,-1438.3l0 -9708.5c0,-841.7 -596.7,-1438.3 -1438.3,-1438.3l-9708.5 0c-841.7,0 -1438.4,596.6 -1438.4,1438.3z"/>
  <path class="fil1" d="M94549.5 2826.8l0 9708.5c0,841.7 596.7,1438.3 1438.3,1438.3l9708.4 0c841.7,0 1438.4,-596.6 1438.4,-1438.3l0 -9708.5c0,-841.7 -596.7,-1438.3 -1438.4,-1438.3l-9708.4 0c-841.6,0 -1438.3,596.6 -1438.3,1438.3z"/>
  <path class="fil1" d="M166464 30873.5l0 9708.3c0,841.7 596.6,1438.4 1438.3,1438.4l9708.4 0c841.7,0 1438.3,-596.7 1438.3,-1438.4l0 -9708.3c0,-841.7 -596.6,-1438.4 -1438.3,-1438.4l-9708.4 0c-841.7,0 -1438.3,596.7 -1438.3,1438.4z"/>
  <path class="fil1" d="M152081.1 30873.5l0 9708.3c0,841.7 596.6,1438.4 1438.3,1438.4l9708.5 0c841.7,0 1438.3,-596.7 1438.3,-1438.4l0 -9708.3c0,-841.7 -596.6,-1438.4 -1438.3,-1438.4l-9708.5 0c-841.7,0 -1438.3,596.7 -1438.3,1438.4z"/>
  <path class="fil1" d="M37017.9 30873.5l0 9708.3c0,841.7 596.6,1438.4 1438.3,1438.4l9708.5 0c841.7,0 1438.3,-596.7 1438.3,-1438.4l0 -9708.3c0,-841.7 -596.6,-1438.4 -1438.3,-1438.4l-9708.5 0c-841.7,0 -1438.3,596.7 -1438.3,1438.4z"/>
  <path class="fil1" d="M51400.8 30873.5l0 9708.3c0,841.7 596.6,1438.4 1438.3,1438.4l9708.5 0c841.7,0 1438.3,-596.7 1438.3,-1438.4l0 -9708.3c0,-841.7 -596.6,-1438.4 -1438.3,-1438.4l-9708.5 0c-841.7,0 -1438.3,596.7 -1438.3,1438.4z"/>
  <path class="fil1" d="M65783.7 30873.5l0 9708.3c0,841.7 596.6,1438.4 1438.3,1438.4l9708.5 0c841.7,0 1438.3,-596.7 1438.3,-1438.4l0 -9708.3c0,-841.7 -596.6,-1438.4 -1438.3,-1438.4l-9708.5 0c-841.7,0 -1438.3,596.7 -1438.3,1438.4z"/>
  <path class="fil1" d="M72927 16850.1l0 9708.5c0,841.7 596.7,1438.3 1438.3,1438.3l9708.5 0c841.7,0 1438.4,-596.6 1438.4,-1438.3l0 -9708.5c0,-841.6 -596.7,-1438.3 -1438.4,-1438.3l-9708.5 0c-841.6,0 -1438.3,596.7 -1438.3,1438.3z"/>
  <path class="fil1" d="M87309.9 16850.1l0 9708.5c0,841.7 596.7,1438.3 1438.4,1438.3l9708.5 0c841.6,0 1438.3,-596.6 1438.3,-1438.3l0 -9708.5c0,-841.6 -596.7,-1438.3 -1438.3,-1438.3l-9708.5 0c-841.7,0 -1438.4,596.7 -1438.4,1438.3z"/>
  <path class="fil1" d="M173655.3 16850.1l0 9708.5c0,841.7 596.7,1438.3 1438.4,1438.3l9708.5 0c841.6,0 1438.3,-596.6 1438.3,-1438.3l0 -9708.5c0,-841.6 -596.7,-1438.3 -1438.3,-1438.3l-9708.5 0c-841.7,0 -1438.4,596.7 -1438.4,1438.3z"/>
  <path class="fil1" d="M101848.6 44896.7l0 9708.5c0,841.6 596.7,1438.3 1438.3,1438.3l9708.5 0c841.6,0 1438.3,-596.7 1438.3,-1438.3l0 -9708.5c0,-841.7 -596.7,-1438.3 -1438.3,-1438.3l-9708.5 0c-841.6,0 -1438.3,596.6 -1438.3,1438.3z"/>
  <path class="fil1" d="M87309.9 44896.7l0 9708.5c0,841.6 596.7,1438.3 1438.4,1438.3l9708.5 0c841.6,0 1438.3,-596.7 1438.3,-1438.3l0 -9708.5c0,-841.7 -596.7,-1438.3 -1438.3,-1438.3l-9708.5 0c-841.7,0 -1438.4,596.6 -1438.4,1438.3z"/>
  <path class="fil1" d="M73029 44896.7l0 9708.5c0,841.6 596.7,1438.3 1438.3,1438.3l9708.5 0c841.7,0 1438.4,-596.7 1438.4,-1438.3l0 -9708.5c0,-841.7 -596.7,-1438.3 -1438.4,-1438.3l-9708.5 0c-841.6,0 -1438.3,596.6 -1438.3,1438.3z"/>
  <path class="fil1" d="M123315.3 30873.5l0 9708.3c0,841.7 596.6,1438.4 1438.3,1438.4l9708.5 0c841.6,0 1438.3,-596.7 1438.3,-1438.4l0 -9708.3c0,-841.7 -596.7,-1438.4 -1438.3,-1438.4l-9708.5 0c-841.7,0 -1438.3,596.7 -1438.3,1438.4z"/>
  <path class="fil1" d="M137698.2 30873.5l0 9708.3c0,841.7 596.6,1438.4 1438.3,1438.4l9708.5 0c841.6,0 1438.3,-596.7 1438.3,-1438.4l0 -9708.3c0,-841.7 -596.7,-1438.4 -1438.3,-1438.4l-9708.5 0c-841.7,0 -1438.3,596.7 -1438.3,1438.4z"/>
  <path class="fil1" d="M22635.1 30873.5l0 9708.3c0,841.7 596.6,1438.4 1438.3,1438.4l9708.5 0c841.6,0 1438.3,-596.7 1438.3,-1438.4l0 -9708.3c0,-841.7 -596.7,-1438.4 -1438.3,-1438.4l-9708.5 0c-841.7,0 -1438.3,596.7 -1438.3,1438.4z"/>
  <path class="fil1" d="M37017.9 2826.8l0 9708.5c0,841.7 596.6,1438.3 1438.3,1438.3l9708.5 0c841.7,0 1438.3,-596.6 1438.3,-1438.3l0 -9708.5c0,-841.7 -596.6,-1438.3 -1438.3,-1438.3l-9708.5 0c-841.7,0 -1438.3,596.6 -1438.3,1438.3z"/>
  <path class="fil1" d="M51400.8 2826.8l0 9708.5c0,841.7 596.6,1438.3 1438.3,1438.3l9708.5 0c841.7,0 1438.3,-596.6 1438.3,-1438.3l0 -9708.5c0,-841.7 -596.6,-1438.3 -1438.3,-1438.3l-9708.5 0c-841.7,0 -1438.3,596.6 -1438.3,1438.3z"/>
  <path class="fil1" d="M65783.7 2826.8l0 9708.5c0,841.7 596.6,1438.3 1438.3,1438.3l9708.5 0c841.7,0 1438.3,-596.6 1438.3,-1438.3l0 -9708.5c0,-841.7 -596.6,-1438.3 -1438.3,-1438.3l-9708.5 0c-841.7,0 -1438.3,596.6 -1438.3,1438.3z"/>
  <path class="fil1" d="M152081.1 2826.8l0 9708.5c0,841.7 596.6,1438.3 1438.3,1438.3l9708.5 0c841.7,0 1438.3,-596.6 1438.3,-1438.3l0 -9708.5c0,-841.7 -596.6,-1438.3 -1438.3,-1438.3l-9708.5 0c-841.7,0 -1438.3,596.6 -1438.3,1438.3z"/>
  <path class="fil1" d="M166464 2826.8l0 9708.5c0,841.7 596.6,1438.3 1438.3,1438.3l9708.4 0c841.7,0 1438.3,-596.6 1438.3,-1438.3l0 -9708.5c0,-841.7 -596.6,-1438.3 -1438.3,-1438.3l-9708.4 0c-841.7,0 -1438.3,596.6 -1438.3,1438.3z"/>
  <path class="fil1" d="M152081.1 58920l0 9708.5c0,841.7 596.6,1438.3 1438.3,1438.3l9708.5 0c841.7,0 1438.3,-596.6 1438.3,-1438.3l0 -9708.5c0,-841.7 -596.6,-1438.3 -1438.3,-1438.3l-9708.5 0c-841.7,0 -1438.3,596.6 -1438.3,1438.3z"/>
  <path class="fil1" d="M137698.2 58920l0 9708.5c0,841.7 596.6,1438.3 1438.3,1438.3l9708.5 0c841.6,0 1438.3,-596.6 1438.3,-1438.3l0 -9708.5c0,-841.7 -596.7,-1438.3 -1438.3,-1438.3l-9708.5 0c-841.7,0 -1438.3,596.6 -1438.3,1438.3z"/>
  <path class="fil1" d="M8252.2 2826.8l0 9708.5c0,841.7 596.6,1438.3 1438.3,1438.3l9708.5 0c841.6,0 1438.3,-596.6 1438.3,-1438.3l0 -9708.5c0,-841.7 -596.7,-1438.3 -1438.3,-1438.3l-9708.5 0c-841.7,0 -1438.3,596.6 -1438.3,1438.3z"/>
  <path class="fil1" d="M22635.1 2826.8l0 9708.5c0,841.7 596.6,1438.3 1438.3,1438.3l9708.5 0c841.6,0 1438.3,-596.6 1438.3,-1438.3l0 -9708.5c0,-841.7 -596.7,-1438.3 -1438.3,-1438.3l-9708.5 0c-841.7,0 -1438.3,596.6 -1438.3,1438.3z"/>
  <path class="fil1" d="M80166.6 2826.8l0 9708.5c0,841.7 596.7,1438.3 1438.3,1438.3l9708.5 0c841.7,0 1438.3,-596.6 1438.3,-1438.3l0 -9708.5c0,-841.7 -596.6,-1438.3 -1438.3,-1438.3l-9708.5 0c-841.6,0 -1438.3,596.6 -1438.3,1438.3z"/>
  <path class="fil1" d="M123315.3 2826.8l0 9708.5c0,841.7 596.6,1438.3 1438.3,1438.3l9708.5 0c841.6,0 1438.3,-596.6 1438.3,-1438.3l0 -9708.5c0,-841.7 -596.7,-1438.3 -1438.3,-1438.3l-9708.5 0c-841.7,0 -1438.3,596.6 -1438.3,1438.3z"/>
  <path class="fil1" d="M137698.2 2826.8l0 9708.5c0,841.7 596.6,1438.3 1438.3,1438.3l9708.5 0c841.6,0 1438.3,-596.6 1438.3,-1438.3l0 -9708.5c0,-841.7 -596.7,-1438.3 -1438.3,-1438.3l-9708.5 0c-841.7,0 -1438.3,596.6 -1438.3,1438.3z"/>
  <path class="fil1" d="M29778.4 16850.1l0 9708.5c0,841.7 596.6,1438.3 1438.3,1438.3l9708.4 0c841.7,0 1438.3,-596.6 1438.3,-1438.3l0 -9708.5c0,-841.6 -596.6,-1438.3 -1438.3,-1438.3l-9708.4 0c-841.7,0 -1438.3,596.7 -1438.3,1438.3z"/>
  <path class="fil1" d="M116075.7 16850.1l0 9708.5c0,841.7 596.6,1438.3 1438.3,1438.3l9708.5 0c841.7,0 1438.3,-596.6 1438.3,-1438.3l0 -9708.5c0,-841.6 -596.6,-1438.3 -1438.3,-1438.3l-9708.5 0c-841.7,0 -1438.3,596.7 -1438.3,1438.3z"/>
  <path class="fil1" d="M1420.3 16850.1l0 9708.5c0,841.7 596.6,1438.3 1438.3,1438.3l9708.5 0c841.7,0 1438.3,-596.6 1438.3,-1438.3l0 -9708.5c0,-841.6 -596.6,-1438.3 -1438.3,-1438.3l-9708.5 0c-841.7,0 -1438.3,596.7 -1438.3,1438.3z"/>
  <path class="fil1" d="M15395.5 16850.1l0 9708.5c0,841.7 596.6,1438.3 1438.3,1438.3l9708.5 0c841.7,0 1438.3,-596.6 1438.3,-1438.3l0 -9708.5c0,-841.6 -596.6,-1438.3 -1438.3,-1438.3l-9708.5 0c-841.7,0 -1438.3,596.7 -1438.3,1438.3z"/>
  <path class="fil1" d="M187678.7 16850.1l0 9708.5c0,841.7 596.6,1438.3 1438.3,1438.3l9708.5 0c841.7,0 1438.3,-596.6 1438.3,-1438.3l0 -9708.5c0,-841.6 -596.6,-1438.3 -1438.3,-1438.3l-9708.5 0c-841.7,0 -1438.3,596.7 -1438.3,1438.3z"/>
  <path class="fil1" d="M144841.5 16850.1l0 9708.5c0,841.7 596.6,1438.3 1438.3,1438.3l9708.5 0c841.7,0 1438.3,-596.6 1438.3,-1438.3l0 -9708.5c0,-841.6 -596.6,-1438.3 -1438.3,-1438.3l-9708.5 0c-841.7,0 -1438.3,596.7 -1438.3,1438.3z"/>
  <path class="fil1" d="M130458.6 16850.1l0 9708.5c0,841.7 596.6,1438.3 1438.3,1438.3l9708.5 0c841.7,0 1438.3,-596.6 1438.3,-1438.3l0 -9708.5c0,-841.6 -596.6,-1438.3 -1438.3,-1438.3l-9708.5 0c-841.7,0 -1438.3,596.7 -1438.3,1438.3z"/>
  <path class="fil1" d="M130560.5 44896.7l0 9708.5c0,841.6 596.6,1438.3 1438.3,1438.3l9708.5 0c841.7,0 1438.3,-596.7 1438.3,-1438.3l0 -9708.5c0,-841.7 -596.6,-1438.3 -1438.3,-1438.3l-9708.5 0c-841.7,0 -1438.3,596.6 -1438.3,1438.3z"/>
  <path class="fil1" d="M144943.4 44896.7l0 9708.5c0,841.6 596.6,1438.3 1438.3,1438.3l9708.5 0c841.7,0 1438.3,-596.7 1438.3,-1438.3l0 -9708.5c0,-841.7 -596.6,-1438.3 -1438.3,-1438.3l-9708.5 0c-841.7,0 -1438.3,596.6 -1438.3,1438.3z"/>
  <path class="fil1" d="M44161.2 16850.1l0 9708.5c0,841.7 596.7,1438.3 1438.3,1438.3l9708.5 0c841.7,0 1438.3,-596.6 1438.3,-1438.3l0 -9708.5c0,-841.6 -596.6,-1438.3 -1438.3,-1438.3l-9708.5 0c-841.6,0 -1438.3,596.7 -1438.3,1438.3z"/>
  <path class="fil1" d="M58544.1 16850.1l0 9708.5c0,841.7 596.7,1438.3 1438.3,1438.3l9708.5 0c841.7,0 1438.3,-596.6 1438.3,-1438.3l0 -9708.5c0,-841.6 -596.6,-1438.3 -1438.3,-1438.3l-9708.5 0c-841.6,0 -1438.3,596.7 -1438.3,1438.3z"/>
  <path class="fil1" d="M159224.4 16850.1l0 9708.5c0,841.7 596.7,1438.3 1438.3,1438.3l9708.5 0c841.7,0 1438.2,-596.6 1438.2,-1438.3l0 -9708.5c0,-841.6 -596.5,-1438.3 -1438.2,-1438.3l-9708.5 0c-841.6,0 -1438.3,596.7 -1438.3,1438.3z"/>
  <path class="fil1" d="M101692.9 16850.1l0 9708.5c0,841.7 596.6,1438.3 1438.3,1438.3l9708.4 0c841.6,0 1438.3,-596.6 1438.3,-1438.3l0 -9708.5c0,-841.6 -596.7,-1438.3 -1438.3,-1438.3l-9708.4 0c-841.7,0 -1438.3,596.7 -1438.3,1438.3z"/>
  <path class="fil1" d="M116129.5 44896.7l0 9708.5c0,841.6 596.6,1438.3 1438.3,1438.3l9708.5 0c841.6,0 1438.3,-596.7 1438.3,-1438.3l0 -9708.5c0,-841.7 -596.7,-1438.3 -1438.3,-1438.3l-9708.5 0c-841.7,0 -1438.3,596.6 -1438.3,1438.3z"/>
  <path class="fil1" d="M159326.3 44896.7l0 9708.5c0,841.6 596.7,1438.3 1438.3,1438.3l9708.5 0c841.7,0 1438.2,-596.7 1438.2,-1438.3l0 -9708.5c0,-841.7 -596.5,-1438.3 -1438.2,-1438.3l-9708.5 0c-841.6,0 -1438.3,596.6 -1438.3,1438.3z"/>
  <path class="fil1" d="M29826.5 44896.7l0 9708.5c0,841.6 596.7,1438.3 1438.3,1438.3l9708.4 0c841.7,0 1438.3,-596.7 1438.3,-1438.3l0 -9708.5c0,-841.7 -596.6,-1438.3 -1438.3,-1438.3l-9708.4 0c-841.6,0 -1438.3,596.6 -1438.3,1438.3z"/>
  <path class="fil1" d="M44161.2 44896.7l0 9708.5c0,841.6 596.7,1438.3 1438.3,1438.3l9708.5 0c841.7,0 1438.3,-596.7 1438.3,-1438.3l0 -9708.5c0,-841.7 -596.6,-1438.3 -1438.3,-1438.3l-9708.5 0c-841.6,0 -1438.3,596.6 -1438.3,1438.3z"/>
  <path class="fil1" d="M58544.1 44896.7l0 9708.5c0,841.6 596.7,1438.3 1438.3,1438.3l9708.5 0c841.7,0 1438.3,-596.7 1438.3,-1438.3l0 -9708.5c0,-841.7 -596.6,-1438.3 -1438.3,-1438.3l-9708.5 0c-841.6,0 -1438.3,596.6 -1438.3,1438.3z"/>
  <rect class="fil1" x="1464.5" y="1383.4" width="5349.4" height="12590.1" rx="1712.2" ry="3059.1"/>
  <path class="fil10" d="M3983.9 7665.6c120.8,46 227.2,69 319.2,69 195.6,0 351,-63.3 466,-189.8 115.1,-126.6 172.7,-287.7 172.7,-483.3 0,-207.1 -72,-376.8 -215.8,-509.1 -143.8,-132.3 -322.2,-198.6 -535,-198.6 -264.7,0 -477.5,106.5 -638.7,319.3 -143.8,195.6 -215.7,431.6 -215.7,707.7 0,310.7 76.2,604.1 228.6,880.2 152.5,276.1 361,483.2 625.7,621.3 155.3,80.5 304.9,120.8 448.7,120.8 178.4,0 267.6,-80.5 267.6,-241.6 0,-103.6 -46,-178.4 -138.1,-224.4 -270.4,-138 -448.7,-244.5 -535,-319.2 -161,-143.9 -244.5,-328 -250.2,-552.3z"/>
  <path class="fil10" d="M13247.4 10933.7l494.7 0c283.9,0 425.7,146.7 425.7,440.1 0,293.4 -141.9,440.1 -425.7,440.1l-1990.5 0c-283.9,0 -425.7,-146.7 -425.7,-440.1 0,-293.4 141.9,-440.1 425.7,-440.1l529.3 0 0 -2471.9c-237.8,0 -387.4,-9.6 -448.8,-28.7 -153.4,-43.2 -230.1,-152.5 -230.1,-328.9 0,-92 42.2,-174.5 126.6,-247.4 230.1,-196.6 604.1,-294.4 1121.9,-294.4 95.8,0 164.9,5.7 207.1,17.2 95.8,26.9 155.2,130.5 178.3,311.7 7.7,46 11.5,180.2 11.5,402.7l0 2639.7z"/>
  <path class="fil10" d="M17321.5 5975.5c0,-124.1 43.6,-229.8 130.9,-317.1 87.2,-87.2 192.9,-130.9 317.1,-130.9 124.1,0 229.9,43.6 317.2,130.9 87.2,87.2 130.9,192.9 130.9,317.1 0,124.1 -43.6,231.6 -130.9,322.2 -87.2,90.6 -193,136 -317.2,136 -124.1,0 -229.8,-45.4 -317.1,-136 -87.2,-90.6 -130.9,-198 -130.9,-322.2zm845.7 -1323.9c0,396 -133.4,594 -400.3,594 -266.7,0 -400.2,-198 -400.2,-594l0 -1515.2c0,-396.1 133.4,-594 400.2,-594 266.8,0 400.3,197.9 400.3,594l0 1515.2z"/>
  <path class="fil10" d="M27959.4 11402.6c0,293.4 -226.3,440.1 -678.8,440.1l-1697.2 0c-383.5,0 -575.3,-147.7 -575.3,-443 0,-118.9 69,-257 207.1,-414.2 230,-253.2 458.3,-506.3 684.5,-759.5 276.2,-306.8 496.7,-569.6 661.7,-788.2 184.1,-245.4 276.1,-452.6 276.1,-621.3 0,-115 -31.7,-210 -94.9,-284.8 -63.3,-74.7 -152.5,-112.1 -267.6,-112.1 -118.9,0 -220.6,49.8 -305,149.5 -49.8,65.2 -107.3,175.5 -172.6,330.9 -65.2,155.3 -118.8,259.8 -161,313.5 -65.2,80.5 -159.2,120.8 -281.9,120.8 -141.9,0 -256,-47 -342.4,-140.9 -86.2,-94 -129.4,-211.9 -129.4,-353.9 0,-111.2 25,-237.8 74.8,-379.7 95.9,-280 269.5,-506.3 520.6,-678.8 251.2,-172.7 526.4,-258.9 825.6,-258.9 387.4,0 705.7,109.3 955,328.8 260.8,230.1 391.2,538 391.2,921.5 0,346.1 -174.5,745 -523.5,1198.5 -176.4,223.4 -485.3,553.3 -926.3,991.4l880.2 0c452.6,0 678.8,146.7 678.8,440.1z"/>
  <path class="fil10" d="M32317.1 3603.8c192.7,0 352.4,47.4 479,142.4 48.9,-95 122.2,-142.4 220.1,-142.4 63.3,0 116.5,19.4 159.6,58.2 43.1,38.8 64.7,89.9 64.7,153.2l0 1035.6c0,215.8 83.5,323.6 250.2,323.6 181.2,0 305,-79.1 371.1,-237.3 60.4,-146.8 90.6,-379.8 90.6,-699 0,-437.3 -161,-765.2 -483.2,-983.8 -276.2,-184.1 -644.4,-276.1 -1104.7,-276.1 -517.7,0 -920.5,133.7 -1208.1,401.3 -296.3,276.1 -444.4,670.2 -444.4,1182.2 0,509.1 146.7,898.9 440.1,1169.3 284.8,264.6 684.6,397 1199.5,397 238.8,0 474.7,-36 707.7,-107.9 66.2,-22.9 130.9,-46 194.2,-69 80.5,-25.9 148.2,-38.8 202.8,-38.8 106.4,0 159.6,64.7 159.6,194.2 0,86.3 -126.6,169.7 -379.7,250.2 -169.7,51.8 -338,89.2 -504.8,112.2 -141,20.2 -263.3,30.2 -366.8,30.2 -601.2,0 -1090.2,-171.1 -1467,-513.4 -391.2,-353.9 -586.8,-828.5 -586.8,-1423.9 0,-598.3 194.2,-1075.8 582.5,-1432.6 376.8,-348.1 867.3,-522.1 1471.3,-522.1 310.7,0 586.9,37.4 828.5,112.2 362.4,112.1 644.4,294.8 845.8,548 212.8,264.6 319.2,582.5 319.2,953.5 0,863 -317.8,1294.5 -953.5,1294.5 -95,0 -194.2,-25.2 -297.7,-75.4 -103.6,-50.4 -174.1,-114.4 -211.5,-192 -178.3,178.3 -401.3,267.5 -668.7,267.5 -247.4,0 -448.8,-99.2 -604.1,-297.7 -143.8,-184.1 -215.7,-402.7 -215.7,-655.8 0,-258.9 86.9,-483.3 261,-673.1 174,-189.9 390.5,-284.8 649.4,-284.8zm-401.3 957.9c0,149.5 28.7,274.7 86.3,375.4 71.9,123.6 176.8,185.5 315,185.5 296.3,0 444.4,-194.2 444.4,-582.5 0,-362.4 -139.5,-543.7 -418.5,-543.7 -149.6,0 -261.7,59 -336.6,176.9 -60.4,100.7 -90.6,230.1 -90.6,388.3z"/>
  <path class="fil10" d="M41802.8 9483.9c467.9,237.8 702,594.5 702,1070.1 0,402.7 -151.6,734.5 -454.6,995.2 -287.6,245.5 -636.6,368.3 -1047,368.3 -360.6,0 -686.6,-101.6 -978.1,-305 -322.2,-226.3 -483.2,-513.9 -483.2,-862.9 0,-111.3 42.2,-214.9 126.6,-310.7 84.3,-95.9 182.1,-143.8 293.3,-143.8 122.7,0 235.9,63.2 339.4,189.8 88.3,115.1 178.4,232.1 270.4,350.9 122.7,126.6 270.4,189.9 443.1,189.9 149.5,0 271.3,-52.7 365.3,-158.2 94,-105.5 141,-233 141,-382.6 0,-172.6 -63.3,-297.2 -189.9,-374 -76.8,-46 -216.7,-86.2 -419.9,-120.8 -264.7,-46.1 -397,-188 -397,-425.7 0,-130.4 34.6,-228.2 103.6,-293.3 57.5,-53.7 155.3,-95.9 293.4,-126.6 295.3,-69.1 443,-212.9 443,-431.6 0,-241.6 -115.1,-362.4 -345.2,-362.4 -164.9,0 -306.8,46.1 -425.7,138.1 -7.6,3.9 -90.1,88.3 -247.4,253.2 -88.2,92 -178.4,138 -270.4,138 -111.2,0 -205.2,-39.2 -281.8,-117.9 -76.8,-78.6 -115.1,-173.5 -115.1,-284.8 0,-115.1 36.4,-233.9 109.3,-356.6 115.1,-199.5 295.4,-358.7 540.8,-477.5 230.1,-115.1 466,-172.6 707.6,-172.6 341.4,0 636.7,107.3 886,322.1 249.3,214.9 374,491 374,828.5 0,341.4 -161.1,629.1 -483.3,863z"/>
  <path class="fil10" d="M47447.9 4348.1l-94.2 418.5c186.9,0 299.2,4.4 335.8,12.9 117.9,31.7 176.8,112.2 176.8,241.7 0,166.9 -110.7,250.2 -332.2,250.2l-293.4 0 -107.8 479c-51.8,233 -156.8,349.5 -315,349.5 -204.3,0 -306.4,-103.6 -306.4,-310.7 0,-71.9 31.6,-244.5 94.9,-517.8l-552.2 0 -107.9 479c-51.8,233 -158.2,349.5 -319.2,349.5 -204.3,0 -306.4,-103.6 -306.4,-310.7 0,-71.9 31.6,-244.5 94.9,-517.8 -178.3,0 -289.1,-5.7 -332.2,-17.2 -117.9,-28.7 -176.9,-106.4 -176.9,-233 0,-169.7 112.2,-254.6 336.6,-254.6l284.8 0 99.3 -418.5 -267.6 0c-221.5,0 -332.3,-84.8 -332.3,-254.6 0,-163.9 112.2,-245.8 336.6,-245.8l375.4 0 133.8 -617.1c48.8,-230.1 151,-345.2 306.3,-345.2 83.5,0 155.3,17.3 215.8,51.8 77.7,43.2 116.5,102.1 116.5,176.9 0,57.5 -10.8,138.1 -33.1,241.7l-107.1 491.9 556.6 0 138.8 -617.1c51.8,-230.1 152.4,-345.2 302.7,-345.2 80.5,0 151.1,17.3 212.1,51.8 74.8,43.2 112.2,102.1 112.2,176.9 0,77.7 -8.7,158.2 -25.9,241.7l-103.6 491.9c184.1,0 294.9,4.3 332.3,12.9 120.8,31.6 181.2,109.3 181.2,232.9 0,169.8 -110.8,254.6 -332.3,254.6l-297.7 0zm-632.1 0l-558.8 0 -90.6 418.5 555.2 0 94.2 -418.5z"/>
  <path class="fil10" d="M56768 10890.6l0 480.4c0,339.4 -155.3,509.2 -466,509.2 -272.3,0 -408.5,-179.4 -408.5,-538l0 -451.6 -1248.4 0c-168.8,0 -310.7,-45.1 -425.7,-135.2 -115.1,-90.2 -172.6,-217.7 -172.6,-382.6 0,-222.4 95.8,-487.1 287.6,-793.9l972.3 -1547.5c191.7,-303 429.5,-454.6 713.4,-454.6 260.8,0 456.4,101.7 586.8,305 107.4,168.8 161.1,389.3 161.1,661.6l0 1536.1c306.8,0 460.2,136.1 460.2,408.4 0,268.5 -153.4,402.7 -460.2,402.7zm-1865 -811.1l990.5 0 0 -1597.5 -990.5 1597.5z"/>
  <path class="fil10" d="M60835.4 6110.7c-296.3,-28.8 -522.1,-92 -677.4,-189.9 -155.3,-97.8 -233,-204.3 -233,-319.3 0,-103.6 33.1,-182.7 99.3,-237.3 66.2,-54.6 151,-81.9 254.5,-81.9 60.4,0 172.7,25.9 336.6,77.7 164,51.8 307.8,77.7 431.6,77.7 94.9,0 177.6,-29.6 248.1,-88.5 70.4,-59 105.7,-136 105.7,-230.9 0,-126.6 -48.9,-218.6 -146.7,-276.1 -86.3,-51.8 -220.1,-105 -401.3,-159.7 -284.8,-86.2 -493.3,-182.7 -625.7,-289.1 -178.3,-149.5 -267.5,-350.9 -267.5,-604 0,-256 83.4,-473.2 250.2,-651.6 158.2,-166.9 366.7,-276.1 625.6,-327.9l0 -224.3c0,-158.3 59,-237.4 176.9,-237.4 74.8,0 123.6,23 146.7,69.1 20.2,31.6 30.3,87.7 30.3,168.3l0 207.1c192.6,14.4 355.2,50.2 487.5,107.8 192.7,83.4 289.1,201.3 289.1,353.8 0,204.3 -107.8,306.4 -323.5,306.4 -66.3,0 -160.4,-18 -282.6,-53.9 -122.3,-36 -216.5,-53.9 -282.6,-53.9 -92,0 -171.1,21.5 -237.3,64.7 -74.8,48.8 -112.2,117.9 -112.2,207.1 0,56.8 12.9,102.7 38.8,137.3 34.6,48.9 116.5,96.4 245.9,142.4 97.7,28.7 194.2,59 289.1,90.6 578.2,194.9 867.3,514.2 867.3,956.5 0,281.2 -92,517.1 -276.1,706.9 -184.1,189.2 -418.5,301.4 -703.3,335.8l0 292.7c0,164 -59,245.9 -176.9,245.9 -117.9,0 -176.9,-81.9 -176.9,-245.9l0 -276.1z"/>
  <path class="fil10" d="M69991.9 8943.2c149.5,-34.6 285.7,-51.8 409.4,-51.8 379.7,0 688.4,139.9 926.2,419.9 226.3,264.7 339.5,588.7 339.5,972.3 0,460.3 -150.5,841.9 -451.6,1144.9 -301.1,302.9 -681.8,454.5 -1142,454.5 -180.3,0 -354.8,-25 -523.6,-74.8 -207.1,-61.4 -385.5,-151.5 -535,-270.4 -188,-145.8 -281.9,-310.7 -281.9,-494.7 0,-118.9 37.4,-219.5 112.2,-302 74.8,-82.5 169.7,-123.7 284.8,-123.7 88.2,0 229.1,59.4 422.8,178.4 193.8,118.8 363.5,178.4 509.2,178.4 172.6,0 315.5,-62.4 428.6,-187 113.1,-124.7 169.7,-273.3 169.7,-445.8 0,-176.4 -45.1,-319.3 -135.3,-428.6 -90.1,-109.4 -221.5,-164 -394,-164 -88.2,0 -207.1,25 -356.7,74.8 -149.5,49.8 -266.5,74.8 -350.9,74.8 -245.4,0 -368.2,-138.1 -368.2,-414.2 0,-65.2 9.6,-174.6 28.7,-328l138.1 -1093.1c26.8,-207.1 86.2,-345.2 178.4,-414.2 80.5,-61.4 228.2,-92 443,-92l1167.9 0c406.6,0 609.8,147.7 609.8,443 0,291.5 -191.7,437.3 -575.3,437.3l-989.6 0 -64.2 506.3z"/>
  <path class="fil10" d="M73754.9 3564.9c0,-189.8 65.4,-354.5 196.3,-494 131,-139.5 291.3,-209.3 481.2,-209.3 192.6,0 353.8,68.3 483.2,205 129.4,136.6 194.2,302.7 194.2,498.3 0,192.7 -64.7,358.2 -194.2,496.2 -129.4,138.1 -290.6,207.1 -483.2,207.1 -189.9,0 -350.2,-69 -481.2,-207.1 -130.9,-138 -196.3,-303.4 -196.3,-496.2zm453.1 0c0,60.4 22.3,114.4 66.9,161.9 44.6,47.4 97.1,71.1 157.6,71.1 63.2,0 117.9,-23 163.9,-69 46.1,-46.1 69.1,-100.7 69.1,-164 0,-66.2 -22.3,-121.5 -67,-166.1 -44.5,-44.5 -99.9,-66.9 -166,-66.9 -63.3,0 -116.5,23 -159.7,69.1 -43.1,46 -64.7,100.6 -64.7,163.9zm1199.6 1818.8c0,-189.2 65.4,-353.2 196.3,-492.6 130.9,-138.8 291.2,-208.6 481.1,-208.6 192.7,0 353.8,68.4 483.2,204.3 129.4,136.7 194.2,302.1 194.2,497 0,191.9 -64.7,356.6 -194.2,494.7 -129.4,137.3 -290.5,206.4 -483.2,206.4 -189.9,0 -350.2,-69.1 -481.1,-206.4 -130.9,-138.1 -196.3,-302.8 -196.3,-494.7zm453.1 0c0,59.6 22.3,113.5 66.9,160.3 44.5,46.8 97,70.4 157.5,70.4 66.2,0 120.8,-22.2 164,-66.2 43.1,-44.5 64.7,-99.2 64.7,-164.6 0,-68.4 -20.9,-123.7 -62.6,-166.9 -41.7,-42.5 -97.1,-64 -166.1,-64 -63.3,0 -116.5,23 -159.6,68.3 -43.2,46.1 -64.7,100 -64.7,162.6zm-1398.7 740c-72,0 -131.6,-24.5 -180.5,-73.4 -48.9,-48.9 -73.4,-109.3 -73.4,-181.2 0,-69 36,-166.9 107.9,-293.4l1423.9 -2489.6c94.9,-163.9 198.5,-245.9 310.6,-245.9 175.5,0 263.3,73.4 263.3,220.1 0,74.1 -29.5,161.9 -87.8,262.5l-1458.5 2550.1c-94.9,167.6 -196.3,251 -305.6,251z"/>
  <path class="fil10" d="M84837.2 9167.5c168.8,-19.2 280,-28.7 333.7,-28.7 352.9,0 644.3,139.9 874.4,419.9 218.6,260.8 327.9,571.5 327.9,932 0,425.7 -153.4,779.5 -460.2,1061.5 -306.8,281.9 -677,422.9 -1110.4,422.9 -433.4,0 -788.2,-143.8 -1064.3,-431.6 -276.1,-287.6 -414.2,-650.1 -414.2,-1087.2 0,-602.2 327.9,-1313.6 983.8,-2134.4 429.6,-536.9 744.1,-805.4 943.5,-805.4 122.7,0 230.1,43.1 322.2,129.4 92,86.2 138,190.8 138,313.5 0,103.6 -72.9,243.5 -218.6,419.9 -111.2,122.7 -221.5,245.5 -330.8,368.3 -109.3,122.7 -217.7,262.7 -325,419.9zm-535 1337.6c0,154.4 51.8,290.6 155.3,410.5 103.6,119.9 232,179.3 385.4,179.3 153.4,0 281.9,-59.4 385.5,-179.3 103.6,-119.9 155.3,-256 155.3,-410.5 0,-158.2 -50.9,-294.4 -152.5,-407.5 -101.6,-114.1 -231.1,-170.6 -388.3,-170.6 -157.2,0 -286.6,56.6 -388.3,170.6 -101.6,113.1 -152.4,249.3 -152.4,407.5z"/>
  <path class="fil10" d="M89488.7 4269.4l-692.5 414.2c-138.1,81.9 -261.1,122.9 -369,122.9 -107.8,0 -197.4,-39.9 -268.6,-119.7 -71.2,-79.8 -106.8,-175.8 -106.8,-288 0,-164 79.8,-308.5 239.5,-433.7l873.7 -679.5c99.3,-77.7 207.1,-116.5 323.6,-116.5 116.5,0 224.3,38.8 323.6,116.5l873.8 679.5c159.6,125.2 239.4,269.7 239.4,433.7 0,116.5 -34.6,213.5 -103.6,291.2 -69,77.7 -159.6,116.5 -271.8,116.5 -107.8,0 -230.9,-41 -368.9,-122.9l-692.6 -414.2z"/>
  <path class="fil10" d="M99803.3 8416.8l-1299.3 0c-382.5,0 -574.4,-147.7 -574.4,-443 0,-291.5 191.8,-437.3 575.4,-437.3l1714.4 0c464.1,0 696.2,174.5 696.2,523.5 0,95.9 -32.6,214.9 -97.8,356.7l-1386.5 2997.3c-138.1,299.2 -304.9,448.8 -500.6,448.8 -134.2,0 -250.2,-45.1 -348,-135.3 -97.8,-90.1 -146.8,-202.3 -146.8,-336.6 0,-103.6 42.2,-241.6 126.6,-414.2l1240.7 -2560.1z"/>
  <path class="fil10" d="M104771.7 5774.1c-261.7,238.7 -594,358.1 -996.7,358.1 -290.5,0 -536.4,-89.2 -737.8,-267.5 -210,-184.2 -315,-420 -315,-707.7 0,-411.4 241.7,-735 724.9,-970.8 -201.4,-215.8 -302,-431.5 -302,-647.2 0,-235.9 96.3,-421.4 289.1,-556.6 172.6,-123.6 381.1,-185.5 625.6,-185.5 247.4,0 457.4,64.7 630,194.2 186.9,143.1 280.4,335.8 280.4,576.7 0,322.2 -177.6,590.5 -532.2,806.2l422.9 512c115.8,-138.1 211.4,-243.8 287.6,-317.8 76.2,-73.4 153.2,-110.1 230.9,-110.1 78.4,0 142.4,29.5 192.7,88.5 50.4,58.9 75.5,128.7 75.5,209.3 0,132.3 -132.3,325 -397,578.2 94.9,112.1 153.9,184.1 176.9,215.7 63.3,95 94.9,179.8 94.9,254.6 0,83.4 -28.7,153.9 -86.3,211.4 -57.5,57.6 -127.9,86.3 -211.4,86.3 -112.2,0 -263.2,-109.3 -453.1,-327.9zm-371 -457.4l-578.2 -664.5c-261.7,117.9 -392.6,281.9 -392.6,491.9 0,123.7 39.5,222.9 118.6,297.7 79.1,74.8 180.5,112.2 304.1,112.2 187,0 369.7,-79.1 548.1,-237.4zm-349.5 -1367.7c233,-94.9 349.5,-221.5 349.5,-379.7 0,-74.8 -32.4,-138.8 -97.1,-192 -64.7,-53.2 -135.9,-79.8 -213.5,-79.8 -74.8,0 -141.7,25.1 -200.7,75.4 -58.9,50.4 -88.5,111.5 -88.5,183.5 0,112.1 83.5,243 250.3,392.6z"/>
  <path class="fil10" d="M112941 9498.4c-257.1,-226.3 -385.5,-506.3 -385.5,-840 0,-352.9 138.1,-642.4 414.2,-868.7 260.8,-211 571.5,-316.4 932,-316.4 364.4,0 675.1,103.6 932,310.7 276.1,226.3 414.2,517.7 414.2,874.4 0,337.5 -128.5,617.5 -385.5,840 375.9,241.6 563.8,590.7 563.8,1047.1 0,410.4 -153.4,746 -460.2,1006.7 -291.5,245.5 -646.3,368.3 -1064.3,368.3 -418.1,0 -772.9,-122.7 -1064.3,-368.3 -306.9,-260.7 -460.3,-596.4 -460.3,-1006.7 0,-460.3 188,-809.3 563.9,-1047.1zm391.2 960.8c0,157.3 55.5,297.2 166.9,419.9 111.2,122.8 245.4,184.2 402.7,184.2 164.9,0 301.1,-59.5 408.4,-178.4 107.4,-118.9 161.1,-260.8 161.1,-425.7 0,-168.8 -53.7,-312.6 -161.1,-431.5 -107.3,-118.9 -243.5,-178.4 -408.4,-178.4 -161.1,0 -296.3,60.4 -405.7,181.2 -109.3,120.8 -163.9,263.7 -163.9,428.6zm138 -1714.4c0,115.1 43.2,217.6 128.5,307.7 86.3,90.2 186,135.3 300.2,135.3 121.7,0 224.3,-43.1 308.7,-129.4 83.4,-86.3 125.6,-190.8 125.6,-313.5 0,-122.7 -42.2,-228.2 -125.6,-316.5 -84.4,-88.2 -187,-132.3 -308.7,-132.3 -121.8,0 -223.4,44.1 -305.9,132.3 -81.5,88.3 -122.8,193.8 -122.8,316.5z"/>
  <path class="fil10" d="M118782 4671.7c-70.4,57.1 -139.2,115.8 -206.4,176.2 -87.2,63.7 -167.8,95.6 -241.6,95.6 -63.8,0 -120,-27.7 -168.7,-83.1 -48.6,-55.3 -73,-115 -73,-178.7 0,-151.1 164.4,-268.5 493.3,-352.5 -328.9,-97.2 -493.3,-216.4 -493.3,-357.4 0,-63.8 24.4,-123.3 73,-178.7 48.7,-55.4 104.9,-83.1 168.7,-83.1 77.2,0 157.7,31.8 241.6,95.6 67.2,57.1 136,114.2 206.4,171.1 -3.4,-30.2 -13.4,-90.6 -30.2,-181.2 -13.5,-73.8 -20.2,-132.5 -20.2,-176.1 0,-188 84,-281.9 251.8,-281.9 171.1,0 256.8,92.2 256.8,276.8 0,47 -8.5,107.4 -25.2,181.2 -16.8,87.2 -26.9,147.7 -30.3,181.2 70.5,-57 139.3,-114.1 206.4,-171.1 87.2,-63.8 167.9,-95.6 241.7,-95.6 67.2,0 124.1,26.8 171.1,80.5 47,53.7 70.5,114.1 70.5,181.2 0,141 -164.5,260.1 -493.3,357.4 328.8,87.4 493.3,204.8 493.3,352.5 0,67.1 -23.5,127.5 -70.5,181.2 -47,53.7 -104,80.5 -171.1,80.5 -67.2,0 -146,-33.5 -236.6,-100.7 -70.5,-57.1 -141,-114.1 -211.5,-171.1 3.4,33.5 13.5,94 30.3,181.2 16.7,73.8 25.2,134.2 25.2,181.2 0,188 -85.6,281.9 -256.8,281.9 -167.8,0 -251.8,-94 -251.8,-281.9 0,-43.6 6.7,-104.1 20.2,-181.2 16.8,-90.6 26.8,-151.1 30.2,-181.2z"/>
  <path class="fil10" d="M129082.6 8874.1c0,-158.2 -51.8,-295.3 -155.3,-410.4 -103.6,-116.1 -232.1,-173.6 -385.5,-173.6 -153.4,0 -281.9,57.5 -385.5,173.6 -103.6,115.1 -155.3,252.2 -155.3,410.4 0,158.2 51.8,295.4 155.3,410.4 103.6,116.1 232.1,173.6 385.5,173.6 153.4,0 281.9,-57.5 385.5,-173.6 103.6,-115 155.3,-252.2 155.3,-410.4zm-535 1337.6c-184.2,19.2 -285.8,28.8 -305,28.8 -356.6,0 -652,-134.2 -885.9,-402.8 -230.1,-257 -345.2,-565.7 -345.2,-926.2 0,-433.4 152.5,-792 457.3,-1075.8 305,-283.9 676.1,-425.7 1113.2,-425.7 437.3,0 792.1,141.9 1064.3,425.7 272.3,283.9 408.5,646.3 408.5,1087.3 0,606 -327.9,1319.3 -983.8,2140.1 -429.5,536.9 -742.1,805.4 -937.7,805.4 -118.9,0 -225.4,-45.1 -319.3,-135.2 -94,-90.2 -141,-194.7 -141,-313.5 0,-111.3 92,-270.4 276.1,-477.5 142,-153.4 341.4,-397 598.4,-730.7z"/>
  <path class="fil10" d="M132937 4208.5c0,419.5 62.1,852.4 186.3,1298.8 36.9,114.1 72.2,229.8 105.7,347.3 50.4,161.1 75.5,271.8 75.5,332.3 0,211.4 -105.8,317.1 -317.2,317.1 -157.7,0 -288.6,-122.4 -392.6,-367.4 -241.7,-577.2 -362.4,-1219.9 -362.4,-1928 0,-325.5 28.5,-644.3 85.6,-956.4 110.7,-604.1 253.3,-1010.2 427.9,-1218.2 67.1,-80.5 147.6,-120.9 241.6,-120.9 211.4,0 317.2,107.4 317.2,322.2 0,60.4 -25.2,171.2 -75.5,332.3 -33.5,114.1 -68.8,228.2 -105.7,342.3 -124.2,446.3 -186.3,879.3 -186.3,1298.7z"/>
  <path class="fil10" d="M141343.8 9699.7c0,-621.3 115.1,-1125.7 345.2,-1513 283.9,-475.6 717.3,-713.4 1300.2,-713.4 586.9,0 1022.2,235.9 1306,707.6 233.9,387.4 350.9,893.7 350.9,1518.8 0,625.2 -117,1129.5 -350.9,1513.1 -283.8,471.8 -719.1,707.7 -1306,707.7 -579.1,0 -1010.6,-235.9 -1294.5,-707.7 -233.9,-387.3 -350.9,-891.8 -350.9,-1513.1zm1651.2 -1346.2c-272.3,0 -467.9,165 -586.9,495.8 -80.5,227.3 -120.8,507.3 -120.8,841.9 0,338.5 40.3,620.3 120.8,847.6 115.1,334.6 310.7,501.5 586.9,501.5 276.1,0 471.7,-166.9 586.8,-501.5 80.5,-227.3 120.8,-509.1 120.8,-847.6 0,-891.8 -235.9,-1337.7 -707.6,-1337.7z"/>
  <path class="fil10" d="M147268.1 4211c0,-432.9 -62.1,-865.8 -186.2,-1298.7 -36.9,-114.1 -73.8,-229.8 -110.8,-347.3 -50.2,-171.2 -75.4,-280.3 -75.4,-327.3 0,-214.8 107.3,-322.2 322.1,-322.2 154.4,0 284.5,122.5 390.2,367.5 105.7,244.9 192.9,536.9 261.7,875.9 68.8,339 103.3,689.6 103.3,1052.1 0,325.6 -28.5,642.7 -85.6,951.5 -114.1,610.7 -256.8,1018.5 -427.9,1223.2 -67.1,80.5 -147.7,120.8 -241.7,120.8 -214.8,0 -322.1,-105.7 -322.1,-317.1 0,-53.7 25.2,-164.4 75.4,-332.3 37,-117.4 73.9,-234.8 110.8,-352.4 124.1,-432.9 186.2,-864.1 186.2,-1293.7z"/>
  <path class="fil10" d="M157274.2 9835c-460.3,0 -690.4,-201.4 -690.4,-604.1 0,-402.7 233,-604.1 699,-604.1l1795 0c466,0 699,204.3 699,612.8 0,396.9 -235.9,595.5 -707.7,595.5l-1794.9 0z"/>
  <polygon class="fil10" points="159710.8,4925 163115.2,4925 163115.2,5585.1 159710.8,5585.1 "/>
  <path class="fil10" d="M170903.1 8691.4c0,-115.1 38.8,-215.8 116.5,-302 77.7,-86.3 174,-129.4 289.1,-129.4l4383.9 0c115.1,0 210,43.1 284.8,129.4 74.8,86.2 112.2,186.9 112.2,302 0,115.1 -37.4,215.8 -112.2,302 -74.8,86.3 -169.7,129.4 -284.8,129.4l-4383.9 0c-115.1,0 -211.4,-43.1 -289.1,-129.4 -77.7,-86.2 -116.5,-186.9 -116.5,-302zm0 1864c0,-120.8 38.8,-222.9 116.5,-306.4 77.7,-83.4 174,-125.1 289.1,-125.1l4383.9 0c120.8,0 217.2,41.7 289.1,125.1 72,83.5 107.9,185.6 107.9,306.4 0,120.8 -36,221.5 -107.9,302 -71.9,80.6 -168.3,120.9 -289.1,120.9l-4383.9 0c-115.1,0 -211.4,-41.8 -289.1,-125.2 -77.7,-83.5 -116.5,-182.7 -116.5,-297.7z"/>
  <path class="fil10" d="M175673.8 3915.4l0 -1372.1c0,-189.9 107.8,-284.8 323.6,-284.8 220.1,0 330,94.9 330,284.8l0 1372.1 1333.3 0c189.9,0 284.8,107.8 284.8,323.6 0,211.4 -94.9,317.1 -284.8,317.1l-1333.3 0 0 1378.7c0,189.9 -110,284.8 -330,284.8 -215.8,0 -323.6,-94.9 -323.6,-284.8l0 -1378.7 -1333.3 0c-189.9,0 -284.8,-105.7 -284.8,-317.1 0,-215.8 94.9,-323.6 284.8,-323.6l1333.3 0z"/>
  <path class="fil11" d="M5402 21336.4c0,-173.1 62.6,-322.3 187.8,-447.5 125.3,-125.3 274.4,-188 447.5,-188 177.7,0 328,61.6 450.9,184.5 123,123 184.5,273.3 184.5,450.9 0,177.7 -61.5,327.9 -184.5,450.9 -122.9,122.9 -273.3,184.4 -450.9,184.4 -177.6,0 -327.9,-61.5 -450.8,-184.4 -123,-123 -184.5,-273.3 -184.5,-450.9zm41 3764.3c-123,0 -231.2,-43.2 -324.5,-129.8 -93.4,-86.5 -140,-191.3 -140,-315.5 0,-100.2 35.3,-216.3 107,-348.4l560.2 -1011.1c142.4,-253.9 304,-381.5 486.3,-381.5 132,0 243.6,39.9 332.5,119.6 88.8,79.7 133.2,183.4 133.2,310.9 0,109.4 -36.5,230 -109.4,362.1l-553.4 1011.1c-141.2,255 -305.2,382.5 -491.9,382.5z"/>
  <path class="fil11" d="M8714.5 21433.8c0,-177.7 61.5,-329.1 184.4,-454.4 123,-125.3 273.4,-187.8 450.9,-187.8 182.2,0 333.7,61.5 454.4,184.5 120.7,122.9 181,275.5 181,457.8 0,177.6 -61.5,327.9 -184.5,450.8 -122.9,123 -273.3,184.5 -450.9,184.5 -177.6,0 -327.9,-61.5 -450.9,-184.5 -122.9,-122.9 -184.4,-273.3 -184.4,-450.8zm0 -2131.6c0,-173.1 62.6,-322.3 187.8,-447.5 125.3,-125.3 274.4,-188 447.5,-188 177.7,0 328,61.6 450.9,184.5 123,123 184.5,273.3 184.5,450.9 0,177.7 -61.5,327.9 -184.5,450.9 -122.9,122.9 -273.3,184.4 -450.9,184.4 -177.6,0 -327.9,-61.5 -450.9,-184.4 -122.9,-123 -184.4,-273.3 -184.4,-450.9z"/>
  <path class="fil11" d="M22654.8 20720.7l-2056.4 2719.1c-191.3,250.4 -409.9,375.7 -655.9,375.7 -341.6,0 -512.4,-225.5 -512.4,-675.2l0 -3623.3c0,-536.2 189,-805 567,-805 378,0 567,268.8 567,806.2l0 2335.3 2097.4 -2772.6c186.7,-245.9 387.1,-369 601.3,-369 350.6,0 526,255.1 526,764l0 3534.4c0,536.3 -189.1,805 -567.1,805 -378,0 -567,-267.6 -567,-803.9l0 -2290.9zm-1045.3 -2254.6c-341.7,0 -619.4,-84.2 -833.6,-252.8 -214,-168.5 -321.1,-355.2 -321.1,-560.2 0,-259.6 120.7,-389.5 362.1,-389.5 136.6,0 255,76.3 355.2,228.9 100.2,152.6 245.9,228.8 437.3,228.8 191.3,0 337,-76.2 437.3,-228.8 100.2,-152.6 216.3,-228.9 348.4,-228.9 245.9,0 368.9,129.9 368.9,389.5 0,259.6 -134.3,466.8 -403,621.7 -223.2,127.5 -473.7,191.2 -751.5,191.2z"/>
  <path class="fil11" d="M34786.6 22811.2l1981.2 0 0 -3292.9c0,-537.5 189,-806.2 567,-806.2 378,0 567,268.8 567,806.2l0 3292.9c391.7,0 587.6,161.7 587.6,485.1l0 908.7c0,337.1 -168.6,505.6 -505.6,505.6 -154.9,0 -277.9,-45.6 -369,-136.7 -91,-91 -136.6,-214 -136.6,-368.9l0 -444.1 -3047.1 0c-519.2,0 -778.8,-268.7 -778.8,-806.1l0 -3436.4c0,-537.5 189,-806.2 567,-806.2 378,0 567.1,268.8 567.1,806.2l0 3292.9z"/>
  <path class="fil11" d="M50023.3 24724c-337.1,0 -505.6,-179.9 -505.6,-538.6 0,-118.4 21.6,-227.7 63.7,-327.9l318.8 -799.4 -1407.4 -3485.4c-41,-100.2 -61.5,-207.2 -61.5,-321.1 0,-168.6 47.8,-305.2 143.5,-409.9 95.6,-104.8 227.7,-157.2 396.2,-157.2 214.1,0 387.2,164 519.2,491.9l975.8 2418.5 27.3 0 897.3 -2377.5c68.4,-177.6 132.1,-300.6 191.3,-368.9 91.1,-109.3 214,-164 369,-164 349.5,0 524.9,175.4 524.9,526 0,132.1 -25.1,262 -75.2,389.5l-1817.2 4659.3c-63.8,159.4 -129.9,273.3 -198.1,341.7 -86.5,81.9 -207.2,122.9 -362,122.9z"/>
  <path class="fil11" d="M62848.6 23451.1l0 -3493.4c0,-536.2 189,-805 567,-805 378,0 567,268.8 567,806.2l0 1086.2 1448.4 -1489.3c259.6,-268.7 466.9,-403.1 621.7,-403.1 145.8,0 275.5,52.4 389.5,157.2 113.9,104.8 170.7,230 170.7,375.7 0,104.8 -54.6,222.1 -163.9,349.6 -4.6,4.6 -100.3,100.2 -285.8,286.9l-1143.2 1136.4 1520 1715.9c190.2,214.1 284.7,399.8 284.7,557.9 0,136.7 -53.5,257.4 -160.5,364.4 -107,105.9 -228.8,159.4 -365.5,159.4 -182.1,0 -387.1,-132.1 -614.9,-395.1l-1503 -1743.3 -198.1 164 0 1170.5c0,536.3 -189,803.9 -567,803.9 -378,0 -567,-268.7 -567,-805z"/>
  <path class="fil11" d="M79831 19210.7c537.5,0 806.2,177.6 806.2,532.9 0,350.7 -268.8,526 -806.2,526l-929.2 0 0 888.2 799.4 0c537.5,0 806.1,174.2 806.1,522.6 0,348.5 -268.7,522.7 -806.1,522.7l-799.4 0 0 949.6 963.3 0c537.5,0 806.2,174.2 806.2,522.6 0,348.5 -268.8,522.7 -806.2,522.7l-1325.3 0c-286.9,0 -487.3,-48.9 -601.2,-146.9 -114,-98 -170.8,-288 -170.8,-570.5l0 -3470.6c0,-296.1 56.9,-503.3 170.8,-621.7 113.9,-118.4 318.7,-177.6 614.8,-177.6l1277.5 0z"/>
  <path class="fil11" d="M92557.2 22179.2l0 1270.7c0,537.5 -189,806.1 -567,806.1 -378,0 -567,-268.7 -567,-805l0 -3493.4c0,-536.2 189,-805 567,-805 378,0 567,268.8 567,806.2l0 1175 2090.6 0 0 -1175c0,-537.5 189,-806.2 567,-806.2 378,0 567.1,268.8 567.1,805l0 3493.4c0,536.3 -189.1,805 -567.1,805 -378,0 -567,-268.7 -567,-806.1l0 -1270.7 -2090.6 0z"/>
  <path class="fil11" d="M106550.6 23420.3l0 -3438.7c0,-296.1 56.9,-502.2 170.8,-620.6 113.9,-118.4 318.7,-177.6 614.8,-177.6l1277.5 0c537.5,0 806.2,177.6 806.2,532.9 0,350.7 -268.8,526 -806.2,526l-929.2 0 0 3178c0,536.3 -189,805 -567,805 -378,0 -567,-268.7 -567,-805z"/>
  <path class="fil11" d="M124199.1 23279.1l0 -3292.9c0,-537.5 189.1,-806.2 567.1,-806.2 378,0 567,268.8 567,806.2l0 3436.4c0,537.5 -259.6,806.1 -778.8,806.1l-4372.4 0c-519.2,0 -778.8,-268.7 -778.8,-806.1l0 -3436.4c0,-537.5 189,-806.2 567,-806.2 378,0 567,268.8 567,806.2l0 3292.9 1325.4 0 0 -3292.9c0,-245.9 25.1,-425.8 75.1,-539.8 77.5,-177.6 220.9,-266.4 430.4,-266.4 209.5,0 353,88.9 430.4,266.4 50,114 75.1,293.9 75.1,539.8l0 3292.9 1325.3 0z"/>
  <path class="fil11" d="M138284.8 23279.1l0 -3292.9c0,-537.5 189.1,-806.2 567.1,-806.2 378,0 567,268.8 567,806.2l0 3292.9 88.8 0c337.1,0 505.7,161.7 505.7,485.1l0 908.7c0,154.8 -45.6,277.9 -136.7,368.9 -91.1,91.1 -214,136.7 -369,136.7 -154.8,0 -277.7,-45.6 -368.9,-136.7 -91.1,-91 -136.7,-214 -136.7,-368.9l0 -444.1 -4734.5 0c-519.2,0 -778.8,-268.7 -778.8,-806.1l0 -3436.4c0,-537.5 189,-806.2 567,-806.2 378,0 567,268.8 567,806.2l0 3292.9 1325.4 0 0 -3292.9c0,-245.9 25.1,-425.8 75.1,-539.8 77.5,-177.6 220.9,-266.4 430.4,-266.4 209.5,0 353,88.9 430.4,266.4 50,114 75.1,293.9 75.1,539.8l0 3292.9 1325.3 0z"/>
  <path class="fil11" d="M152158.9 21533.6l0 20.5c532.9,214 799.3,593.2 799.3,1139.7 0,1041.9 -653.6,1562.2 -1960.8,1562.2 -414.4,0 -765.2,-47.8 -1052.1,-142.3 -423.6,-141.2 -635.4,-374.7 -635.4,-700.3 0,-285.8 157.2,-428.1 471.4,-428.1 132.1,0 264.2,26.2 396.3,79.7 195.8,79.7 318.8,126.4 369,140 104.7,26.2 261.8,39.9 471.3,39.9 505.7,0 758.4,-194.7 758.4,-584.1 0,-167.4 -59.2,-310.9 -177.7,-428.1 -91.1,-94.5 -223.2,-151.5 -396.3,-169.7 -41,-4.5 -186.7,-6.8 -437.3,-6.8 -473.7,0 -710.4,-157.1 -710.4,-471.4 0,-141.2 65.9,-257.3 198,-348.4 100.2,-68.3 232.3,-109.4 396.3,-123 31.9,-4.5 173.1,-6.8 423.6,-6.8 173.1,0 316.5,-34.1 430.3,-101.3 141.3,-86.5 211.8,-208.3 211.8,-366.6 0,-357.6 -227.7,-536.3 -683.1,-536.3 -141.3,0 -324.5,30.8 -550,92.2 -225.5,61.5 -395.2,92.2 -509,92.2 -314.2,0 -471.4,-143.5 -471.4,-430.4 0,-95.6 43.3,-189 129.9,-280.1 268.7,-282.3 744.7,-423.6 1427.9,-423.6 1184.2,0 1776.3,456.6 1776.3,1371 0,478.2 -225.5,814.1 -676.4,1010z"/>
  <path class="fil11" d="M163900 24256.1c-127.6,0 -243.7,-50 -350.7,-149.1 -107,-100.2 -160.5,-212.9 -160.5,-339.3 0,-153.7 84.2,-343.9 252.8,-570.5l1210.4 -1641.9 -907.6 -1324.2c-169.6,-245.9 -255,-432.8 -255,-560.3 0,-153.7 52.4,-279 157.1,-374.6 104.8,-95.6 234.6,-143.5 389.5,-143.5 200.4,0 396.3,145.8 587.5,437.3l690 1045.3 724.2 -1058.9c191.3,-282.3 394,-423.6 608.1,-423.6 132.1,0 248.2,49 348.4,146.9 100.2,98 150.3,212.9 150.3,346.1 0,141.3 -85.4,337.1 -257.4,587.6l-915.5 1327.7 1213.8 1643c173.1,231.2 259.6,421.3 259.6,570.5 0,130.9 -52.4,243.6 -157.2,339.3 -104.7,94.5 -225.5,142.3 -362,142.3 -215.2,0 -420.1,-136.6 -616,-408.7l-1012.2 -1429 -1004.3 1419.8c-200.4,279 -397.4,417.9 -593.2,417.9z"/>
  <path class="fil11" d="M179845.4 21840.9l0 1311.8 491.9 0c519.2,0 778.8,-216.4 778.8,-649.1 0,-441.7 -259.6,-662.7 -778.8,-662.7l-491.9 0zm-1134.1 -1619.1l-649.1 0c-337,0 -505.6,-168.6 -505.6,-505.6 0,-337.1 168.6,-505.6 505.6,-505.6l1305 0c205,0 335.8,53.5 392.8,160.5 56.9,107 85.4,301.7 85.4,584.1l0 853.9 765.2 0c541.9,0 965.5,148 1270.7,444.1 305.2,296 457.8,712.8 457.8,1250.2 0,537.5 -167.4,954.2 -502.2,1250.2 -334.7,296.1 -773.1,444.1 -1315.2,444.1l-1024.8 0c-296,0 -501,-59.2 -614.8,-177.7 -113.9,-118.4 -170.8,-325.7 -170.8,-621.6l0 -3176.8z"/>
  <path class="fil11" d="M193264.2 23709.4c0,-168.5 60.3,-312 181,-430.4 120.8,-118.4 265.3,-177.6 433.9,-177.6 168.5,0 312,59.1 430.3,177.6 118.4,118.4 177.7,262 177.7,430.4 0,168.5 -59.2,314.2 -177.7,437.3 -118.3,122.9 -261.8,184.5 -430.3,184.5 -168.6,0 -313.1,-61.6 -433.9,-184.5 -120.7,-123 -181,-268.8 -181,-437.3zm75.1 -1531.4l0 -438.4c0,-128.7 18.2,-226.6 54.7,-295 45.6,-86.5 163.9,-157.1 355.2,-212.9 245.9,-68.3 403.1,-125.3 471.4,-170.7 154.8,-100.3 232.3,-259.7 232.3,-479.5 0,-136.6 -46.7,-248.2 -140,-332.5 -93.4,-84.2 -210.7,-126.4 -351.8,-126.4 -218.6,0 -439.5,119.6 -662.7,358.7 -223.1,239.1 -405.4,358.7 -546.5,358.7 -136.7,0 -247.1,-51.2 -331.4,-153.7 -84.2,-102.4 -126.4,-222 -126.4,-358.7 0,-255 107,-489.6 321.1,-703.7 182.2,-182.1 407.7,-325.7 676.4,-430.3 205,-77.5 428.2,-116.2 669.6,-116.2 469.2,0 865.4,141.2 1188.8,423.6 332.5,296 498.7,676.4 498.7,1140.9 0,382.6 -110.5,706 -331.4,970.1 -220.9,264.2 -520.3,430.4 -898.4,498.8 0,473.7 -182.2,710.4 -546.5,710.4 -355.3,0 -533,-214 -533,-643.3z"/>
  <path class="fil11" d="M28927.7 37954.8c-250.5,0 -412.2,-95.6 -485.1,-286.9 -45.6,-109.3 -68.3,-310.9 -68.3,-606.9 -514.7,0 -883.6,-41 -1106.8,-123 -346.1,-127.5 -615.9,-331.4 -809.6,-613.7 -193.6,-282.4 -290.3,-606.9 -290.3,-975.8 0,-367.7 94.5,-692.3 283.5,-972.4 189.1,-279 456.6,-482.8 802.8,-610.3 218.6,-81.9 592.1,-123 1120.5,-123 0,-259.6 27.3,-442.9 81.9,-552.2 81.9,-159.4 239.1,-239.1 471.4,-239.1 236.9,0 396.3,79.7 478.2,239.1 54.6,109.4 81.9,292.6 81.9,552.2 523.8,0 897.3,41.1 1120.5,123 346.1,127.5 613.7,331.4 802.8,610.3 189,280.1 283.5,604.6 283.5,972.4 0,369 -96.7,693.4 -290.3,975.8 -193.6,282.3 -463.5,486.2 -809.6,613.7 -223.2,82.1 -592.1,123 -1106.8,123 0,296 -22.7,497.6 -68.3,606.9 -77.5,191.3 -241.4,286.9 -491.9,286.9zm539.7 -3395.5l0 1571.4 314.3 0c505.6,0 758.3,-260.7 758.3,-782.3 0,-526 -252.8,-789.1 -758.3,-789.1l-314.3 0zm-1072.6 1571.4l0 -1571.4 -314.2 0c-505.7,0 -758.4,263.1 -758.4,789.1 0,521.6 252.8,782.3 758.4,782.3l314.2 0z"/>
  <path class="fil11" d="M41831 35543.2l0 1311.8 362.1 0c519.2,0 778.8,-216.4 778.8,-649.1 0,-441.7 -259.6,-662.7 -778.8,-662.7l-362.1 0zm0 -1031.6l594.4 0c541.9,0 966.7,146.9 1274.2,440.6 307.4,293.9 461.1,711.8 461.1,1253.7 0,537.5 -170.8,958.7 -512.4,1263.9 -327.9,286.9 -765.2,430.4 -1311.7,430.4l-854 0c-296.1,0 -501,-59.2 -614.8,-177.7 -114,-118.4 -170.8,-325.7 -170.8,-621.6l0 -3443.3c0,-537.5 189,-806.2 567,-806.2 378,0 567,268.8 567,806.2l0 853.9zm4099.2 2638.3c0,536.3 -191.3,805 -573.8,805 -378,0 -567,-268.7 -567,-805l0 -3493.4c0,-536.2 189,-805 567,-805 382.5,0 573.8,268.8 573.8,805l0 3493.4z"/>
  <path class="fil11" d="M56633.8 37896.7c-286.9,0 -487.3,-48.9 -601.2,-146.9 -114,-98 -170.8,-288 -170.8,-570.5l0 -3470.6c0,-296.1 56.9,-503.3 170.8,-621.7 113.9,-118.4 318.7,-177.6 614.8,-177.6l929.2 0c450.9,0 833.4,93.4 1147.8,280.1 382.5,223.1 573.8,544.3 573.8,963.3 0,541.9 -195.9,908.6 -587.6,1099.9l0 20.5c291.5,91.1 501.1,224.3 628.6,399.7 127.5,175.4 191.3,415.7 191.3,720.8 0,505.6 -175.4,890.4 -526,1154.6 -309.8,232.3 -726.5,348.4 -1250.2,348.4l-1120.5 0zm362 -2152.1l0 1175.1 567.1 0c241.4,0 421.3,-31.9 539.7,-95.6 154.8,-86.5 232.3,-241.5 232.3,-464.6 0,-259.6 -75.1,-432.7 -225.5,-519.2 -109.3,-63.8 -298.3,-95.7 -567,-95.7l-546.6 0zm0 -1865l0 977 491.9 0c223.2,0 380.4,-27.4 471.4,-82.1 127.6,-72.9 191.3,-209.5 191.3,-409.8 0,-323.4 -220.9,-485.1 -662.7,-485.1l-491.9 0z"/>
  <path class="fil11" d="M72099.2 32847.9c405.4,0 685.5,218.6 840.4,654.8l1257.1 3582.2c54.6,154.8 81.9,273.3 81.9,355.2 0,153.7 -54.6,279 -164,374.7 -109.3,95.6 -241.4,143.4 -396.2,143.4 -286.9,0 -487.4,-178.8 -601.3,-536.2l-184.4 -584.1 -1762.7 0 -205 625.1c-109.3,330.1 -291.4,495.3 -546.5,495.3 -159.4,0 -289.2,-48.9 -389.4,-146.9 -100.2,-98 -150.3,-226.6 -150.3,-384.9 0,-118.4 18.2,-227.7 54.6,-327.9l1298.1 -3513.9c182.1,-490.8 471.3,-736.7 867.6,-736.7zm-34.1 1236.6l-567 1749.1 1127.2 0 -546.5 -1749.1 -13.7 0z"/>
  <path class="fil11" d="M100160.6 35239.1l491.9 0c519.3,0 778.9,-220.9 778.9,-662.6 0,-432.8 -259.6,-649.1 -778.9,-649.1l-491.9 0 0 1311.7zm-567 2684.9c-378,0 -567,-268.7 -567,-805l0 -3438.7c0,-296.1 56.9,-502.2 170.8,-620.6 113.9,-118.4 318.7,-177.6 614.8,-177.6l1024.8 0c551.1,0 988.4,143.4 1311.8,430.3 341.6,300.7 512.4,721.9 512.4,1264 0,537.4 -154.9,954.1 -464.6,1250.2 -309.8,296 -733.4,444 -1270.7,444l-765.3 0 0 850.6c0,535.2 -189,802.8 -567,802.8z"/>
  <path class="fil11" d="M85415.9 33886.5l0 3232.6c0,536.3 -189,805 -567,805 -378,0 -567,-268.7 -567,-805l0 -3431.9c0,-536.3 259.6,-805 778.8,-805l2801 0c519.3,0 778.9,268.7 778.9,805l0 3431.9c0,536.3 -189.1,805 -567.1,805 -378,0 -567,-268.7 -567,-805l0 -3232.6 -2090.6 0z"/>
  <path class="fil11" d="M112838.5 35410c0,-745.8 209.5,-1352.7 628.5,-1821.8 432.8,-490.8 1018,-736.7 1755.9,-736.7 742.3,0 1329.9,243.7 1762.6,729.9 419,469.2 628.5,1078.3 628.5,1828.7 0,745.9 -209.5,1352.8 -628.5,1821.8 -437.3,481.7 -1024.8,723.1 -1762.6,723.1 -737.8,0 -1323.1,-243.6 -1755.9,-729.9 -419,-464.6 -628.5,-1069.1 -628.5,-1815zm1202.4 13.7c0,408.8 93.4,747 280.1,1015.7 209.5,313.1 510.1,470.3 901.8,470.3 391.7,0 694.5,-154.8 908.6,-463.5 186.7,-273.3 280.1,-613.7 280.1,-1022.5 0,-422.4 -88.8,-770.9 -266.4,-1043 -214,-322.2 -521.5,-483.8 -922.2,-483.8 -400.9,0 -706,161.7 -915.5,483.8 -177.7,272.1 -266.4,620.6 -266.4,1043z"/>
  <path class="fil11" d="M130729.3 33855.7l-1216.1 0c-168.5,0 -252.8,102.5 -252.8,307.5l0 2781.7c0,673 -334.7,1010 -1004.3,1010 -601.3,0 -901.8,-175.3 -901.8,-524.9 0,-209.5 57,-348.4 170.8,-416.7 68.3,-41.1 189,-63.8 362,-68.4 154.9,-4.5 255.1,-29.6 300.6,-75.1 45.6,-45.6 68.4,-145.8 68.4,-299.5l0 -2409.4c0,-486.2 88.8,-826.6 266.4,-1019.1 177.7,-193.6 507.8,-290.4 990.6,-290.4l1783.1 0c378,0 567.1,268.8 567.1,805l0 3493.4c0,536.3 -189.1,805 -567.1,805 -236.8,0 -396.2,-79.7 -478.2,-239.1 -59.2,-113.9 -88.8,-301.7 -88.8,-565.9l0 -3294.2z"/>
  <path class="fil11" d="M145439.7 37421.9l-2896.7 0 0 444.1c0,154.8 -45.5,277.9 -136.6,368.9 -91.1,91.1 -216.4,136.7 -375.8,136.7 -154.8,0 -276.6,-45.6 -365.5,-136.7 -88.8,-91 -133.2,-214 -133.2,-368.9l0 -908.7c0,-323.4 148.1,-485.1 444.1,-485.1 86.5,0 153.7,-70.6 201.5,-211.8 47.9,-141.2 71.8,-384.9 71.8,-731l0 -1830.9c0,-387.2 109.4,-694.6 328,-922.3 218.5,-227.7 521.5,-341.6 908.6,-341.6l1742.1 0c241.5,0 412.2,77.4 512.5,232.3 77.4,122.9 116.1,314.2 116.1,573.8l0 3231.5c396.3,0 594.3,161.7 594.3,485.1l0 908.7c0,337.1 -168.5,505.6 -505.6,505.6 -154.8,0 -277.7,-45.6 -368.9,-136.7 -91.1,-91 -136.7,-214 -136.7,-368.9l0 -444.1zm-2329.6 -949.6l1605.4 0 0 -3033.3 -1202.4 0c-168.5,0 -252.8,91 -252.8,273.3l0 1817.2c0,346.1 -50,660.5 -150.2,942.8z"/>
  <path class="fil11" d="M157844.4 35864.3l-95.6 -75.2 -1474.6 1776.4c-219.8,259.6 -422.5,389.4 -609.2,389.4 -136.6,0 -258.5,-53.5 -365.5,-159.4 -107,-107 -160.5,-227.7 -160.5,-363.2 0,-149.2 95.6,-334.8 286.9,-556.8l1496.2 -1749 -1120.4 -1106.8c-182.2,-177.7 -277.9,-273.3 -286.9,-286.9 -109.4,-127.5 -164,-243.7 -164,-348.5 0,-141.2 58.1,-265.2 174.2,-372.3 116.2,-107 244.8,-160.5 386,-160.5 150.3,0 357.6,134.4 621.7,403.1l1311.7 1342.5 0 -940.6c0,-536.2 175.3,-805 526,-805 214,0 362.1,86.5 444.1,258.5 54.6,118.4 81.9,299.5 81.9,544.3l0 940.6 1309.4 -1342.5c265.3,-267.7 474.9,-400.9 629.7,-400.9 145.8,0 276.7,52.4 390.6,157.2 113.9,104.8 170.8,230 170.8,375.7 0,104.8 -54.7,221 -164,348.5 -9.1,13.7 -104.8,109.3 -286.9,286.9l-1120.5 1106.8 1496.2 1749c191.3,222 287,407.6 287,556.8 0,135.5 -53.6,256.1 -161.8,363.2 -107,105.9 -229.9,159.4 -367.7,159.4 -192.4,0 -398.5,-127.5 -618.3,-383.8l-1466.6 -1777.4 -98 74 0 1285.6c0,534 -175.3,801.5 -526,801.5 -350.7,0 -526,-267.6 -526,-803.9l0 -1286.6z"/>
  <path class="fil11" d="M171639.4 35317.7c0,-300.6 179.9,-450.8 539.7,-450.8l1305 0c-36.5,-296.1 -165.1,-528.4 -386,-696.9 -221,-168.6 -483.9,-252.8 -789.1,-252.8 -195.9,0 -378,33 -546.5,99.1 -168.6,66 -312,99 -430.4,99 -132.1,0 -243.7,-48.9 -334.8,-146.9 -91,-97.8 -136.6,-212.9 -136.6,-345 0,-95.6 36.4,-191.2 109.3,-286.9 245.9,-323.3 694.6,-485.1 1345.9,-485.1 728.7,0 1314,248.3 1755.8,743.6 428.1,478.2 642.2,1082.9 642.2,1815 0,745.9 -207.3,1350.4 -621.7,1815 -437.3,486.3 -1024.8,729.9 -1762.6,729.9 -227.7,0 -435,-22.7 -621.7,-68.3 -227.7,-53.5 -423.5,-135.5 -587.5,-244.8 -214,-144.6 -321.1,-312 -321.1,-502.1 0,-127.6 43.2,-240.3 129.8,-340.5 86.5,-99.1 191.3,-149.1 314.2,-149.1 77.5,0 225.5,39.9 444.1,119.6 218.6,79.7 414.5,119.6 587.6,119.6 332.5,0 608,-99.1 826.6,-298.3 218.6,-199.3 346.1,-464.6 382.6,-794.8l-1311.8 0c-355.2,0 -532.9,-159.4 -532.9,-478.2z"/>
  <path class="fil11" d="M36788.5 49464l0 -1216.1 -539.7 0c-473.8,0 -710.5,198.1 -710.5,594.3 0,414.5 241.4,621.7 724.2,621.7l526 0zm1134.1 -1463.1l0 3438.7c0,536.3 -189.1,805 -567.1,805 -378,0 -567,-267.6 -567,-803.9l0 -1225.2 -1325.4 1661.3c-195.8,244.8 -396.2,367.7 -601.2,367.7 -150.3,0 -279,-46.7 -386,-140 -107,-93.4 -160.5,-212.9 -160.5,-357.6 0,-182.1 111.6,-398.5 334.7,-649l895 -995.2c-364.4,-59.2 -653.7,-207.2 -867.7,-444.1 -214,-236.9 -321.1,-536.3 -321.1,-900.6 0,-458.9 162.8,-833.6 488.4,-1122.7 325.7,-288.1 795.9,-432.7 1410.9,-432.7l881.3 0c300.7,0 506.8,58 618.3,174.2 111.6,116.1 167.5,323.3 167.5,624z"/>
  <path class="fil11" d="M50569.3 49498.2l573.9 0 0 -1557.6c0,-533 189,-799.4 567,-799.4 378,0 567,266.4 567,798.2l0 3500.2c0,536.3 -189,805 -567,805 -378,0 -567,-267.6 -567,-802.8l0 -932.5 -765.2 0c-532.9,0 -939.5,-144.6 -1219.5,-433.8 -280.1,-289.3 -420.1,-702.6 -420.1,-1240l0 -894.9c0,-533 189,-799.4 567,-799.4 378,0 567.1,266.4 567.1,799.4l0 894.9c0,264.2 48.9,440.7 146.9,529.5 97.8,88.8 281.2,133.2 549.9,133.2z"/>
  <path class="fil11" d="M65330.6 52244.6c-751.5,0 -1350.4,-250.5 -1796.9,-751.6 -428.1,-478.2 -642.1,-1097.6 -642.1,-1858.2 0,-742.4 220.9,-1361.8 662.7,-1858.3 455.4,-514.6 1052.1,-772 1789.9,-772 264.2,0 514.6,36.5 751.5,109.3 296,91.1 507.8,221 635.4,389.5 72.8,95.6 109.3,193.6 109.3,293.8 0,132.1 -47.8,249.4 -143.5,351.8 -95.6,102.5 -209.5,153.7 -341.6,153.7 -123,0 -271,-34.1 -444.1,-102.4 -173.1,-68.3 -359.8,-102.4 -560.2,-102.4 -409.9,0 -724.2,163.9 -942.8,491.9 -191.3,282.3 -286.9,639.9 -286.9,1072.6 0,423.6 102.4,769.7 307.4,1038.4 223.2,300.6 542,450.9 956.5,450.9 182.1,0 384.9,-41 608,-122.9 223.2,-82.1 373.6,-123 450.9,-123 127.6,0 235.8,51.3 324.5,153.7 88.9,102.5 133.2,217.5 133.2,345 0,109.4 -36.4,214 -109.3,314.2 -255.1,350.7 -742.4,526.1 -1462,526.1z"/>
  <path class="fil11" d="M79274.2 50611.8l28.5 0 656.9 -2801.1c45.6,-195.8 142.4,-356.4 290.4,-481.6 148,-125.3 322.3,-188 522.7,-188 226.6,0 422.4,72.9 586.4,218.6 164,145.8 264.2,332.5 300.6,560.2l546.6 3402.3c27.3,167.5 41,293.9 41,380.4 0,360.9 -169.7,541.9 -510.1,541.9 -200.4,0 -345,-76.2 -436.1,-229.9 -62.6,-100.2 -112.7,-264.2 -149.1,-495.4l-431.6 -2725.9 -17.1 1.1 -642.1 2520.9c-68.4,257.4 -145.8,443 -232.3,555.7 -127.5,158.3 -307.4,236.9 -539.7,236.9 -232.3,0 -412.2,-78.6 -539.8,-236.9 -86.5,-108.1 -163.9,-293.8 -232.3,-555.7l-649 -2520.9 -10.3 0 -424.7 2725.9c-36.4,234.6 -86.5,402 -150.2,501.1 -95.7,149.1 -244.8,223.1 -445.2,223.1 -342.8,0 -513.6,-181 -513.6,-541.9 0,-54.7 16,-181.1 47.9,-380.4l546.5 -3402.3c36.4,-227.7 135.5,-414.4 297.2,-560.2 160.5,-145.8 355.2,-218.6 582.9,-218.6 203.9,0 378,61.6 521.6,184.5 142.3,123 239.1,284.7 289.2,486.2l665 2800z"/>
  <path class="fil11" d="M94719.8 49149.8l-2056.4 2719.1c-191.3,250.4 -409.9,375.7 -655.9,375.7 -341.6,0 -512.4,-225.5 -512.4,-675.2l0 -3623.3c0,-536.2 189,-805 567,-805 378,0 567,268.8 567,806.2l0 2335.3 2097.4 -2772.6c186.7,-245.9 387.1,-369 601.3,-369 350.6,0 526,255.1 526,764l0 3534.4c0,536.3 -189.1,805 -567.1,805 -378,0 -567,-267.6 -567,-803.9l0 -2290.9z"/>
  <path class="fil11" d="M107492.9 48261.6c-409.9,0 -665,-11.4 -765.2,-34.1 -305.2,-63.8 -457.8,-227.8 -457.8,-491.9 0,-355.3 268.7,-532.9 806.1,-532.9l1974.4 0c537.5,0 806.1,177.6 806.1,532.9 0,264.1 -152.6,428.1 -457.8,491.9 -100.2,22.7 -355.2,34.1 -765.2,34.1l0 3178c0,536.3 -189,805 -567,805 -382.6,0 -573.8,-268.7 -573.8,-805l0 -3178z"/>
  <path class="fil11" d="M121769 49887.5l0 1311.8 491.9 0c519.3,0 778.9,-216.4 778.9,-649.1 0,-441.7 -259.6,-662.7 -778.9,-662.7l-491.9 0zm0 -1031.6l765.3 0c541.9,0 966.7,146.9 1274.1,440.6 307.5,293.9 461.2,711.8 461.2,1253.7 0,537.5 -170.8,958.7 -512.4,1263.9 -328,286.9 -765.3,430.4 -1311.8,430.4l-1024.8 0c-296.1,0 -501,-59.2 -614.8,-177.7 -114,-118.4 -170.8,-325.7 -170.8,-621.6l0 -3443.3c0,-537.5 189,-806.2 567,-806.2 378,0 567,268.8 567,806.2l0 853.9z"/>
  <path class="fil11" d="M136157.8 49887.5l0 1311.8 491.9 0c519.3,0 778.9,-216.4 778.9,-649.1 0,-441.7 -259.6,-662.7 -778.9,-662.7l-491.9 0zm0 -1031.6l765.3 0c541.9,0 966.7,146.9 1274.1,440.6 307.5,293.9 461.2,711.8 461.2,1253.7 0,537.5 -170.8,958.7 -512.4,1263.9 -328,286.9 -765.3,430.4 -1311.8,430.4l-1024.8 0c-296.1,0 -501,-59.2 -614.8,-177.7 -114,-118.4 -170.8,-325.7 -170.8,-621.6l0 -3388.6c0,-296.1 56.9,-503.3 170.8,-621.7 113.9,-118.4 318.7,-177.6 614.8,-177.6l1776.3 0c542,0 813.1,177.6 813.1,532.9 0,350.7 -271,526 -813.1,526l-1427.9 0 0 539.7z"/>
  <path class="fil11" d="M149361.4 49143l744.8 0c77.4,-605.8 282.3,-1084.1 614.8,-1434.7 359.8,-378 835.8,-567.1 1427.9,-567.1 705.9,0 1241.2,262 1605.4,784.5 318.8,450.9 478.2,1041.9 478.2,1774 0,1224 -412.2,2015.5 -1236.6,2374.2 -259.6,113.9 -541.9,170.7 -847.1,170.7 -624,0 -1118.1,-208.3 -1482.5,-626.2 -332.5,-376.9 -526,-885.8 -580.8,-1525.8l-724.2 0 0 1348.2c0,536.3 -189,803.9 -567,803.9 -378,0 -567,-268.7 -567,-805l0 -3493.4c0,-536.2 189,-805 567,-805 378,0 567,268.8 567,806.2l0 1195.6zm2794.3 -1038.5c-245.9,0 -446.3,113.9 -601.3,340.4 -127.5,177.7 -214,403.1 -259.6,675.3 -27.3,168.5 -41,356.4 -41,565.9 0,390.6 57,727.7 170.8,1008.9 154.8,390.6 398.5,586.4 731,586.4 332.5,0 576.2,-195.8 731,-586.4 109.3,-276.7 164,-613.7 164,-1008.9 0,-518.1 -83.2,-910.9 -249.4,-1179.6 -166.2,-267.7 -381.4,-402 -645.6,-402z"/>
  <path class="fil11" d="M166230.2 47257.3c537.5,0 806.2,177.6 806.2,532.9 0,350.7 -268.8,526 -806.2,526l-929.2 0 0 888.2 799.4 0c537.5,0 806.1,174.2 806.1,522.6 0,348.5 -268.7,522.7 -806.1,522.7l-799.4 0 0 949.6 963.3 0c537.5,0 806.2,174.2 806.2,522.6 0,348.5 -268.8,522.7 -806.2,522.7l-1325.3 0c-286.9,0 -487.3,-48.9 -601.2,-146.9 -114,-98 -170.8,-288 -170.8,-570.5l0 -3470.6c0,-296.1 56.9,-503.3 170.8,-621.7 113.9,-118.4 318.7,-177.6 614.8,-177.6l1277.5 0z"/>
  <path class="fil11" d="M166709.9 46560.8c-177.7,0 -329.1,-61.5 -454.4,-184.4 -125.3,-123 -187.8,-273.4 -187.8,-450.9 0,-182.2 61.5,-333.7 184.5,-454.4 122.9,-120.7 275.5,-181 457.8,-181 177.6,0 327.9,61.5 450.8,184.5 123,122.9 184.5,273.3 184.5,450.9 0,177.6 -61.5,327.9 -184.5,450.9 -122.9,122.9 -273.3,184.4 -450.8,184.4zm-2131.6 0c-173.1,0 -322.3,-62.6 -447.5,-187.8 -125.3,-125.3 -188,-274.4 -188,-447.5 0,-177.7 61.6,-328 184.5,-450.9 123,-123 273.3,-184.5 450.9,-184.5 177.7,0 327.9,61.5 450.9,184.5 122.9,122.9 184.4,273.3 184.4,450.9 0,177.6 -61.5,327.9 -184.4,450.9 -123,122.9 -273.3,184.4 -450.9,184.4z"/>
  <path class="fil11" d="M143355.4 63521.5c0,-178.8 61.5,-331.4 184.4,-456.6 123,-126.4 273.4,-189 450.9,-189 182.2,0 333.7,61.5 454.4,185.6 120.7,122.9 181,276.7 181,460 0,178.8 -61.5,330.2 -184.5,453.2 -122.9,124.1 -273.3,185.6 -450.9,185.6 -177.6,0 -327.9,-61.5 -450.9,-185.6 -122.9,-122.9 -184.4,-274.4 -184.4,-453.2z"/>
  <path class="fil11" d="M157741.8 65226c-123,0 -231.2,-43.2 -324.5,-129.8 -93.4,-86.5 -140,-191.3 -140,-315.5 0,-100.2 35.3,-216.3 107,-348.4l560.2 -1011.1c142.4,-253.9 304,-381.5 486.3,-381.5 132,0 243.6,39.9 332.5,119.6 88.8,79.7 133.2,183.4 133.2,310.9 0,109.4 -36.5,230 -109.4,362.1l-553.4 1011.1c-141.2,255 -305.2,382.5 -491.9,382.5z"/>
  <path class="fil12" d="M5311.4 61886.5l1203.1 0 226.5 226.6 -226.5 226.5 -1203.1 0 -226.6 -226.5 226.6 -226.6zm-493.3 493.3l226.5 -226.5 226.6 226.5 0 1168 -226.6 226.5 226.6 226.6 0 1167.9 -226.6 226.5 -226.5 -226.5 0 -1167.9 226.5 -226.6 -226.5 -226.5 0 -1168zm493.3 2829.2l1203.1 0 226.5 226.5 -226.5 226.6 -1203.1 0 -226.6 -226.6 226.6 -226.5zm1469.9 -719.9l226.6 226.6 0 453.1 -226.6 226.5 -226.5 -226.5 0 -453.1 226.5 -226.6zm226.6 -2109.3l0 453.1 -226.6 226.6 -226.5 -226.6 0 -453.1 226.5 -226.5 226.6 226.5z"/>
  <path id="1" class="fil12" d="M8407.3 62379.8l226.5 -226.5 226.6 221.5 0 1173 -226.6 226.5 226.6 226.6 0 1434.6 -226.6 226.6 -226.5 -226.6 0 -1434.6 226.5 -226.6 -226.5 -226.5 0 -1168zm266.7 -266.7l226.6 -226.6 906.1 0 226.5 226.6 -226.5 226.5 -906.1 0 -226.6 -226.5zm-307 226.5l-906.1 0 -226.6 -226.5 226.6 -226.6 906.1 0 226.5 226.6 -226.5 226.5z"/>
  <path id="2" class="fil12" d="M10300 61886.5l1696.5 0 226.5 226.6 -226.5 226.5 -1243.4 0 -453.1 -453.1zm453.1 1661.3l1243.4 0 226.5 226.5 -226.5 226.6 -1243.4 0 -226.6 -226.6 226.6 -226.5zm-493.3 493.3l226.5 -226.6 226.6 226.6 0 1127.6 -453.1 453.1 0 -1580.7zm0 -2114.4l453.1 453.1 0 1127.7 -226.6 226.5 -226.5 -226.5 0 -1580.8zm40.3 3735.3l453.1 -453.1 1243.4 0 226.5 226.5 -226.5 226.6 -1696.5 0z"/>
  <path id="3" class="fil12" d="M12550.3 61886.5l1696.5 0 226.5 226.6 -226.5 226.5 -1243.4 0 -453.1 -453.1zm453.1 1661.3l1243.4 0 226.5 226.5 -226.5 226.6 -1243.4 0 -226.6 -226.6 226.6 -226.5zm-493.3 493.3l226.5 -226.6 226.6 226.6 0 1394.3 -226.6 226.6 -226.5 -226.6 0 -1394.3zm0 -2114.4l453.1 453.1 0 1127.7 -226.6 226.5 -226.5 -226.5 0 -1580.8zm2230 1580.8l-226.6 226.5 -226.5 -226.5 0 -1127.7 226.5 -226.5 226.6 226.5 0 1127.7z"/>
  <path id="4" class="fil12" d="M15233.4 61886.5l1696.5 0 226.5 226.6 -226.5 226.5 -1243.4 0 -453.1 -453.1zm453.1 1661.3l1243.4 0 226.5 226.5 -226.5 226.6 -1243.4 0 -226.6 -226.6 226.6 -226.5zm-493.3 493.3l226.5 -226.6 226.6 226.6 0 1127.6 -453.1 453.1 0 -1580.7zm0 -2114.4l453.1 453.1 0 1127.7 -226.6 226.5 -226.5 -226.5 0 -1580.8zm40.3 3735.3l453.1 -453.1 1243.4 0 226.5 226.5 -226.5 226.6 -1696.5 0z"/>
  <path id="5" class="fil12" d="M18389.7 62379.8l226.5 -226.5 226.6 221.5 0 1173 -226.6 226.5 226.6 226.6 0 1434.6 -226.6 226.6 -226.5 -226.6 0 -1434.6 226.5 -226.6 -226.5 -226.5 0 -1168zm266.7 -266.7l226.6 -226.6 906.1 0 226.5 226.6 -226.5 226.5 -906.1 0 -226.6 -226.5zm-307 226.5l-906.1 0 -226.6 -226.5 226.6 -226.6 906.1 0 226.5 226.6 -226.5 226.5z"/>
  <path id="6" class="fil12" d="M20282.5 65662l453.1 -453.1 1243.4 0 226.5 226.5 -226.5 226.6 -1696.5 0zm453.1 -1661.2l-226.6 -226.6 226.6 -226.5 1243.4 0 226.5 226.5 -226.5 226.6 -1243.4 0zm-493.3 -493.3l0 -1394.5 226.5 -226.6 226.6 226.6 0 1394.5 -226.6 226.5 -226.5 -226.5zm0 2114.3l0 -1580.7 226.5 -226.6 226.6 226.6 0 1127.6 -453.1 453.1zm2230 -1580.7l0 1127.6 -226.6 226.5 -226.5 -226.5 0 -1127.6 226.5 -226.6 226.6 226.6z"/>
  <path id="7" class="fil12" d="M24254.3 61886.5l1656.2 0 226.5 226.6 -226.5 226.5 -1203.1 0 -453.1 -453.1zm453.1 1661.3l1203.1 0 226.5 226.5 -226.5 226.6 -1203.1 0 -226.6 -226.6 226.6 -226.5zm-493.3 493.3l226.5 -226.6 226.6 226.6 0 1127.6 -453.1 453.1 0 -1580.7zm493.3 1167.9l1203.1 0 226.5 226.5 -226.5 226.6 -1656.2 0 453.1 -453.1zm1243.4 -2829.2l226.5 -226.5 226.6 226.5 0 1127.7 -226.6 226.5 -226.5 -226.5 0 -1127.7zm-1736.7 -453.1l453.1 453.1 0 1127.7 -226.6 226.5 -226.5 -226.5 0 -1580.8zm1736.7 2114.4l226.5 -226.6 226.6 226.6 0 1127.6 -226.6 226.5 -226.5 -226.5 0 -1127.6z"/>
  <path id="8" class="fil12" d="M27350.2 61886.5l1203.1 0 226.5 226.6 -226.5 226.5 -1203.1 0 -226.6 -226.5 226.6 -226.6zm-493.3 493.3l226.5 -226.5 226.6 226.5 0 1168 -226.6 226.5 226.6 226.6 0 1167.9 -226.6 226.5 -226.5 -226.5 0 -1167.9 226.5 -226.6 -226.5 -226.5 0 -1168zm493.3 2829.2l1203.1 0 226.5 226.5 -226.5 226.6 -1203.1 0 -226.6 -226.6 226.6 -226.5zm1469.9 -719.9l226.6 226.6 0 453.1 -226.6 226.5 -226.5 -226.5 0 -453.1 226.5 -226.6zm226.6 -2109.3l0 453.1 -226.6 226.6 -226.5 -226.6 0 -453.1 226.5 -226.5 226.6 226.5z"/>
  <path id="9" class="fil12" d="M29540 61886.5l1696.5 0 226.5 226.6 -226.5 226.5 -1243.4 0 -453.1 -453.1zm453.1 1661.3l1243.4 0 226.5 226.5 -226.5 226.6 -1243.4 0 -226.6 -226.6 226.6 -226.5zm-493.3 493.3l226.5 -226.6 226.6 226.6 0 1127.6 -453.1 453.1 0 -1580.7zm0 -2114.4l453.1 453.1 0 1127.7 -226.6 226.5 -226.5 -226.5 0 -1580.8zm40.3 3735.3l453.1 -453.1 1243.4 0 226.5 226.5 -226.5 226.6 -1696.5 0z"/>
  <path class="fil12" d="M167403.9 61886.5l1656.1 0 226.6 226.5 -226.6 226.6 -1203.1 0 -453 -453.1zm453 1661.2l1203.1 0 226.6 226.5 -226.6 226.6 -1203.1 0 -226.5 -226.6 226.5 -226.5zm-493.3 493.3l226.6 -226.5 226.5 226.5 0 1127.6 -453.1 453.1 0 -1580.7zm493.3 1167.9l1203.1 0 226.6 226.6 -226.6 226.5 -1656.1 0 453 -453.1zm1243.4 -2829.1l226.6 -226.5 226.5 226.5 0 1127.6 -226.5 226.5 -226.6 -226.5 0 -1127.6zm-1736.7 -453.1l453.1 453.1 0 1127.6 -226.5 226.5 -226.6 -226.5 0 -1580.7zm1736.7 2114.3l226.6 -226.5 226.5 226.5 0 1127.6 -226.5 226.5 -226.6 -226.5 0 -1127.6z"/>
  <path id="1" class="fil12" d="M170046.7 65661.9l453 -453.1 1016.9 0 226.5 226.6 -226.5 226.5 -1469.9 0zm453 -1661.2l-226.5 -226.6 226.5 -226.5 1016.9 0 226.5 226.5 -226.5 226.6 -1016.9 0zm-493.3 -493.3l0 -1394.5 226.6 -226.5 226.5 226.5 0 1394.5 -226.5 226.5 -226.6 -226.5zm0 2114.3l0 -1580.7 226.6 -226.5 226.5 226.5 0 1127.6 -453.1 453.1zm2003.6 -1580.7l0 1127.6 -226.6 226.5 -226.5 -226.5 0 -1127.6 226.5 -226.5 226.6 226.5zm453.1 -40.3l226.5 -226.6 -226.5 -226.5 0 -1434.7 226.5 -226.5 226.6 226.5 0 1434.7 -226.6 226.5 226.6 226.6 0 1434.7 -226.6 226.5 -226.5 -226.5 0 -1434.7z"/>
  <path id="2" class="fil12" d="M174461.5 62339.6l-226.6 -226.6 221.5 -226.5 1661.2 0 -453.1 453.1 -1203 0zm1243.3 1208.1l0 -1167.9 453.1 -453.1 0 1620.9 -226.5 226.5 226.5 226.6 0 1167.9 -226.5 226.5 -226.6 -226.5 0 -1178 226.6 -216.5 -226.6 -226.5zm-1736.6 0l0 -1167.9 226.5 -226.5 226.6 226.5 0 1167.9 -226.6 226.5 226.6 226.6 0 1167.9 -226.6 226.5 -226.5 -226.5 0 -1167.9 226.5 -226.6 -226.5 -226.5zm493.3 1661.2l1203 0 226.6 226.6 -226.6 226.5 -1208.1 0 -221.5 -226.5 226.6 -226.6zm-1092.4 226.6l226.6 -226.6 332.3 0 226.5 226.6 -226.5 226.5 -332.3 0 -226.6 -226.5zm2602.6 0l226.6 -226.6 332.2 0 226.6 226.6 -226.6 226.5 -332.2 0 -226.6 -226.5z"/>
  <path id="3" class="fil12" d="M177250.3 61886.5l1696.4 0 226.6 226.5 -226.6 226.6 -1243.4 0 -453 -453.1zm453 1661.2l1243.4 0 226.6 226.5 -226.6 226.6 -1243.4 0 -226.5 -226.6 226.5 -226.5zm-493.3 493.3l226.6 -226.5 226.5 226.5 0 1127.6 -453.1 453.1 0 -1580.7zm0 -2114.3l453.1 453.1 0 1127.6 -226.5 226.5 -226.6 -226.5 0 -1580.7zm40.4 3735.2l453 -453.1 1243.4 0 226.6 226.6 -226.6 226.5 -1696.4 0z"/>
  <path id="4" class="fil12" d="M180547.4 61886.5l1661.2 0 -453.1 453.1 -1203 0 -226.6 -226.6 221.5 -226.5zm1701.5 2114.3l0 1434.7 -226.5 226.5 -226.6 -226.5 0 -1444.8 226.6 -216.5 -226.6 -226.5 0 -1167.9 453.1 -453.1 0 1620.9 -226.5 226.5 226.5 226.6zm-2189.7 1167.9l0 -1167.9 226.5 -226.6 -226.5 -226.5 0 -1167.9 226.5 -226.5 226.6 226.5 0 1167.9 -226.6 226.5 226.6 226.6 0 1167.9 -226.6 226.5 -226.5 -226.5zm-599.1 266.8l226.6 -226.6 332.3 0 226.5 226.6 -226.5 226.5 -332.3 0 -226.6 -226.5z"/>
  <path id="5" class="fil12" d="M184438.6 65435.5l0 -1434.7 226.6 -226.6 -226.6 -226.5 0 -1434.7 226.6 -226.5 226.5 226.5 0 1434.7 -226.5 226.5 226.5 226.6 0 1434.7 -226.5 226.5 -226.6 -226.5zm-1283.7 -1434.7l0 1434.7 -226.5 226.5 -226.6 -226.5 0 -1434.7 226.6 -226.6 -226.6 -226.5 0 -1434.7 226.6 -226.5 226.5 226.5 0 1434.7 -226.5 226.5 226.5 226.6zm1223.3 0l0 302 -860.9 1132.7 -302 0 0 -302.1 860.8 -1132.6 302.1 0z"/>
  <path id="6" class="fil12" d="M186291.1 62379.8l226.6 -226.5 226.5 221.5 0 1172.9 -226.5 226.5 226.5 226.6 0 1434.7 -226.5 226.5 -226.6 -226.5 0 -1434.7 226.6 -226.6 -226.6 -226.5 0 -1167.9zm266.8 -266.8l226.5 -226.5 906.1 0 226.6 226.5 -226.6 226.6 -906.1 0 -226.5 -226.6zm-307.1 226.6l-906.1 0 -226.5 -226.6 226.5 -226.5 906.1 0 226.6 226.5 -226.6 226.6z"/>
  <path id="7" class="fil12" d="M188184 65661.9l453 -453.1 1243.4 0 226.6 226.6 -226.6 226.5 -1696.4 0zm453 -1661.2l-226.5 -226.6 226.5 -226.5 1243.4 0 226.6 226.5 -226.6 226.6 -1243.4 0zm-493.3 -493.3l0 -1394.5 226.6 -226.5 226.5 226.5 0 1394.5 -226.5 226.5 -226.6 -226.5zm0 2114.3l0 -1580.7 226.6 -226.5 226.5 226.5 0 1127.6 -453.1 453.1zm2230 -1580.7l0 1127.6 -226.5 226.5 -226.6 -226.5 0 -1127.6 226.6 -226.5 226.5 226.5z"/>
  <path id="8" class="fil12" d="M192155.7 61886.5l1656.1 0 226.6 226.5 -226.6 226.6 -1203.1 0 -453 -453.1zm453 1661.2l1203.1 0 226.6 226.5 -226.6 226.6 -1203.1 0 -226.5 -226.6 226.5 -226.5zm-493.3 493.3l226.6 -226.5 226.5 226.5 0 1127.6 -453.1 453.1 0 -1580.7zm493.3 1167.9l1203.1 0 226.6 226.6 -226.6 226.5 -1656.1 0 453 -453.1zm1243.4 -2829.1l226.6 -226.5 226.5 226.5 0 1127.6 -226.5 226.5 -226.6 -226.5 0 -1127.6zm-1736.7 -453.1l453.1 453.1 0 1127.6 -226.5 226.5 -226.6 -226.5 0 -1580.7zm1736.7 2114.3l226.6 -226.5 226.5 226.5 0 1127.6 -226.5 226.5 -226.6 -226.5 0 -1127.6z"/>
  <path id="9" class="fil12" d="M195251.5 61886.5l1203.1 0 226.6 226.5 -226.6 226.6 -1203.1 0 -226.5 -226.6 226.5 -226.5zm-493.3 493.3l226.6 -226.5 226.5 226.5 0 1167.9 -226.5 226.5 226.5 226.6 0 1167.9 -226.5 226.5 -226.6 -226.5 0 -1167.9 226.6 -226.6 -226.6 -226.5 0 -1167.9zm493.3 2829.1l1203.1 0 226.6 226.6 -226.6 226.5 -1203.1 0 -226.5 -226.5 226.5 -226.6zm1470 -719.8l226.5 226.5 0 453.1 -226.5 226.5 -226.6 -226.5 0 -453.1 226.6 -226.5zm226.5 -2109.3l0 453.1 -226.5 226.5 -226.6 -226.5 0 -453.1 226.6 -226.5 226.5 226.5z"/>
  <path id="10" class="fil12" d="M197441.4 61886.5l1696.4 0 226.6 226.5 -226.6 226.6 -1243.4 0 -453 -453.1zm453 1661.2l1243.4 0 226.6 226.5 -226.6 226.6 -1243.4 0 -226.5 -226.6 226.5 -226.5zm-493.3 493.3l226.6 -226.5 226.5 226.5 0 1127.6 -453.1 453.1 0 -1580.7zm0 -2114.3l453.1 453.1 0 1127.6 -226.5 226.5 -226.6 -226.5 0 -1580.7zm40.4 3735.2l453 -453.1 1243.4 0 226.6 226.6 -226.6 226.5 -1696.4 0z"/>
  <path class="fil13" d="M177980.6 694.6l-61.2 0 0 -98.8 81.2 0 26.8 -131.8 -108 0 0 -98.8 128.2 0 35.5 -173.9 100.8 0 -35.4 173.9 96.1 0 34.2 -173.9 104.5 0 -35.4 173.9 60.8 0 0 98.8 -80.8 0 -26.7 131.8 107.5 0 0 98.8 -127.6 0 -35.3 173.9 -100.6 0 34.2 -173.9 -98.3 0 -35.6 173.9 -100.8 0 35.6 -173.9zm147.7 -230.6l-26.8 131.8 97.7 0 25.9 -131.8 -96.8 0z"/>
  <path id="1" class="fil13" d="M178740.9 857.5l0 -655.1 212.1 0c80.4,0 132.7,3.3 157.1,9.8 37.5,9.9 68.9,31.3 94.3,64.2 25.3,32.9 37.9,75.4 37.9,127.6 0,40.3 -7.3,73.9 -21.8,101.4 -14.6,27.4 -33,48.9 -55.4,64.6 -22.4,15.6 -45.4,25.9 -68.5,31 -31.6,6.2 -77.2,9.4 -136.9,9.4l-86 0 0 247.1 -132.7 0zm132.7 -544.4l0 186.6 72.1 0c52.1,0 86.6,-3.5 104.2,-10.3 17.5,-6.9 31.3,-17.5 41.2,-32.3 9.9,-14.7 15,-31.6 15,-51.2 0,-24 -7,-43.6 -20.9,-59.1 -14.1,-15.6 -31.6,-25.3 -53.1,-29.3 -15.7,-3 -47.3,-4.5 -94.8,-4.5l-63.6 0z"/>
  <path id="2" class="fil13" d="M179443.6 529.1l-113.4 -20.2c12.7,-46.4 34.9,-80.6 66.2,-102.9 31.3,-22.2 77.8,-33.3 139.3,-33.3 56,0 97.7,6.5 125.3,19.8 27.2,13.3 46.6,30.1 57.8,50.5 11.1,20.5 16.7,57.8 16.7,112.4l-1.8 146.4c0,41.6 2,72.5 6,92.2 3.9,19.9 11.4,41.1 22.3,63.6l-124.3 0c-3.3,-8.3 -7.3,-20.4 -12,-36.6 -2,-7.4 -3.6,-12.3 -4.5,-14.7 -21.3,21.1 -44.2,36.8 -68.6,47.3 -24.4,10.5 -50.4,15.9 -77.9,15.9 -48.7,0 -87.1,-13.3 -115.2,-39.9 -28,-26.4 -42.1,-59.9 -42.1,-100.5 0,-26.6 6.4,-50.6 19.3,-71.7 12.7,-20.9 30.6,-37 53.8,-48.1 23,-11.2 56.3,-20.9 99.7,-29.4 58.6,-10.9 99.3,-21.3 121.8,-30.8l0 -12.6c0,-24.4 -5.9,-41.8 -17.8,-52.3 -12,-10.4 -34.6,-15.6 -67.7,-15.6 -22.4,0 -39.8,4.5 -52.3,13.5 -12.6,8.9 -22.7,24.6 -30.5,47zm168.3 101.5c-16,5.3 -41.5,11.7 -76.3,19.2 -34.8,7.5 -57.7,14.9 -68.3,21.8 -16.3,11.8 -24.6,26.4 -24.6,44.2 0,17.7 6.5,32.8 19.7,45.7 13,12.7 29.8,19.2 50,19.2 22.5,0 44.1,-7.4 64.7,-22.2 15.1,-11.5 25.2,-25.2 30,-41.7 3.2,-10.7 4.8,-31.1 4.8,-61.2l0 -25z"/>
  <path id="3" class="fil13" d="M180272.6 523.6l-123.4 21.9c-4.2,-24.6 -13.6,-43 -28.4,-55.4 -14.8,-12.4 -33.8,-18.7 -57.3,-18.7 -31.3,0 -56.3,10.8 -74.9,32.5 -18.6,21.6 -27.8,57.8 -27.8,108.6 0,56.4 9.4,96.2 28.3,119.6 18.9,23.3 44.2,34.9 75.9,34.9 23.7,0 43.3,-6.8 58.4,-20.4 15.2,-13.6 25.9,-36.9 32.1,-70.1l123.5 21c-12.7,56.8 -37.3,99.6 -73.6,128.5 -36.3,29 -85,43.5 -146.1,43.5 -69.3,0 -124.7,-22 -165.8,-65.7 -41.3,-43.9 -61.9,-104.6 -61.9,-182.2 0,-78.5 20.7,-139.5 62.1,-183.3 41.3,-43.7 97.2,-65.5 167.9,-65.5 57.6,0 103.6,12.4 137.7,37.3 33.9,24.9 58.4,62.7 73.3,113.6z"/>
  <path id="4" class="fil13" d="M180367.9 318.6l0 -116.2 125.4 0 0 116.2 -125.4 0zm0 538.9l0 -474.9 125.4 0 0 474.9 -125.4 0z"/>
  <path id="5" class="fil13" d="M180570 382.6l69.5 0 0 -35.8c0,-40 4.3,-69.8 12.7,-89.5 8.6,-19.9 24.3,-35.9 47.2,-48.2 23,-12.3 52,-18.7 87,-18.7 35.9,0 71,5.5 105.5,16.5l-16 87.9c-20.4,-5.5 -40.1,-8.3 -59,-8.3 -18.6,0 -31.9,4.3 -40,12.8 -8.1,8.5 -12.1,25 -12.1,49.3l0 33.8 94.2 0 0 98.9 -94.2 0 0 376 -125.4 0 0 -376 -69.5 0 0 -98.9zm354.9 -64l0 -116.2 125.4 0 0 116.2 -125.4 0zm0 538.9l0 -474.9 125.4 0 0 474.9 -125.4 0z"/>
  <path id="6" class="fil13" d="M181136.1 724l126.3 -19.3c5.3,24.3 16.2,42.7 32.6,55.2 16.3,12.6 39.3,18.9 68.8,18.9 32.5,0 56.9,-5.9 73.4,-17.8 10.9,-8.4 16.4,-19.7 16.4,-33.7 0,-9.4 -3.1,-17.3 -9,-23.5 -6.2,-6 -20.3,-11.6 -42,-16.7 -101.3,-22.3 -165.5,-42.8 -192.6,-61.3 -37.7,-25.8 -56.5,-61.5 -56.5,-107 0,-41.4 16.3,-75.9 48.8,-104 32.4,-28.1 82.8,-42.1 151,-42.1 64.9,0 113.2,10.6 144.8,31.8 31.6,21.4 53.4,52.8 65.2,94.4l-118 22c-5,-18.7 -14.8,-32.9 -28.9,-42.9 -14.2,-9.9 -34.5,-14.8 -60.8,-14.8 -33.2,0 -57,4.6 -71.5,13.9 -9.7,6.6 -14.4,15.2 -14.4,25.5 0,9.1 4.1,16.6 12.5,22.9 11.4,8.4 50.6,20.1 117.7,35.4 67.1,15.2 113.9,33.8 140.4,56 26.4,22.2 39.5,53.5 39.5,93.5 0,43.4 -18.1,80.9 -54.6,112.2 -36.3,31.3 -90.1,47 -161.5,47 -64.6,0 -115.9,-13.1 -153.7,-39.2 -37.7,-26.1 -62.4,-61.5 -74,-106.2z"/>
  <path id="7" class="fil13" d="M181906.6 382.6l0 99.8 -86 0 0 192.2c0,39 0.7,61.8 2.4,68.2 1.6,6.4 5.3,11.7 11.2,16 5.8,4.1 12.8,6.2 21.2,6.2 11.8,0 28.5,-3.9 50.7,-12l10.5 97.6c-29,12.4 -62.1,18.8 -99,18.8 -22.5,0 -42.8,-3.9 -61,-11.5 -18.1,-7.5 -31.4,-17.5 -39.8,-29.6 -8.6,-12.1 -14.4,-28.4 -17.7,-49.2 -2.5,-14.7 -4,-44.2 -4,-88.9l0 -207.8 -57.6 0 0 -99.8 57.6 0 0 -94.2 125.4 -74.1 0 168.3 86 0z"/>
  <path class="fil14" d="M182260.4 33265.6l2310 0 308.5 308.4 -308.5 308.4 -1693 0 -617 -616.9zm617 2261.9l1693 0 308.5 308.4 -308.5 308.5 -1693 0 -308.5 -308.5 308.5 -308.4zm-671.8 671.8l308.4 -308.5 308.5 308.5 0 1535.4 -617 616.9 0 -2152.3zm0 -2878.9l617 616.9 0 1535.4 -308.5 308.4 -308.4 -308.4 0 -2152.3zm54.8 5086l617 -616.9 1693 0 308.5 308.4 -308.5 308.4 -2310 0z"/>
  <path id="1" class="fil14" d="M187634.4 33574.1l308.5 -308.4 308.4 308.4 0 1953.5 -308.4 308.4 308.4 308.5 0 1953.5 -308.4 308.4 -308.5 -308.4 0 -1953.5 308.5 -308.5 -308.5 -308.4 0 -1953.5zm-1747.8 1953.5l-308.5 308.4 308.5 308.5 0 1953.5 -308.5 308.4 -308.4 -308.4 0 -1953.5 308.4 -308.5 -308.4 -308.4 0 -1953.5 308.4 -308.4 308.5 308.4 0 1953.5zm1665.6 0l-411.3 0 -1172 -1542.2 0 -411.3 411.3 0 1172 1542.2 0 411.3z"/>
  <path id="2" class="fil14" d="M190156.9 33937.3l308.4 -308.4 308.5 301.6 0 1597.1 -308.5 308.4 308.5 308.5 0 1953.5 -308.5 308.4 -308.4 -308.4 0 -1953.5 308.4 -308.5 -308.4 -308.4 0 -1590.3zm363.3 -363.3l308.5 -308.4 1233.8 0 308.4 308.4 -308.4 308.4 -1233.8 0 -308.5 -308.4zm-418.1 308.4l-1233.8 0 -308.4 -308.4 308.4 -308.4 1233.8 0 308.4 308.4 -308.4 308.4z"/>
  <path id="3" class="fil14" d="M192734.2 33265.6l2310 0 308.5 308.4 -308.5 308.4 -1693 0 -617 -616.9zm617 2261.9l1693 0 308.5 308.4 -308.5 308.5 -1693 0 -308.5 -308.5 308.5 -308.4zm-671.8 671.8l308.4 -308.5 308.5 308.5 0 1535.4 -617 616.9 0 -2152.3zm0 -2878.9l617 616.9 0 1535.4 -308.5 308.4 -308.4 -308.4 0 -2152.3zm54.8 5086l617 -616.9 1693 0 308.5 308.4 -308.5 308.4 -2310 0z"/>
  <path id="4" class="fil14" d="M196415.1 36144.5l-308.5 -308.5 308.5 -308.4 1638.2 0 308.5 308.4 -308.5 308.5 -1638.2 0zm-671.8 -671.8l0 -2152.3 617 616.9 0 1535.4 -308.5 308.4 -308.4 -308.4zm0 726.6l308.4 -308.5 308.5 308.5 0 1898.7 -308.5 308.4 -308.4 -308.4 0 -1898.7zm2364.8 -726.6l0 -1535.4 308.5 -308.4 308.4 308.4 0 1535.4 -308.4 308.4 -308.5 -308.4zm-1254.3 754l1768.4 1768.4 0 411.3 -411.3 0 -1768.4 -1768.4 0 -411.3 411.3 0zm-1055.6 -2961.2l2255.1 0 308.5 308.4 -308.5 308.4 -1638.2 0 -617 -616.9z"/>
  <g id="_1235043104">
   <path class="fil7" d="M188742.9 6117.6l-1519.2 1519.2 1020.8 0 1004.8 -1004.8 0 -514.4 -506.4 0zm-498.4 1607.7l-1020.8 0 1519.2 1519.2 506.4 0 0 -514.4 -1004.8 -1004.8z"/>
   <polygon class="fil7" points="190577.2,8042.8 188712.4,8042.8 188350.6,7681.1 188712.4,7319.3 190577.2,7319.3 190938.9,7681.1 191300.7,7319.3 193165.5,7319.3 193527.2,7681.1 193165.5,8042.8 191300.7,8042.8 190938.9,7681.1 "/>
  </g>
  <path class="fil7" d="M108491.7 66845.4l-939.5 -939.6 0 -2547 469.8 -469.8 469.7 469.8 0 3486.6zm-15658.9 0.3l939.5 -939.6 0 -2547 -469.8 -469.8 -469.7 469.8 0 3486.6zm83.5 83.5l3361.3 0 469.7 -469.7 469.5 469.7 0.3 0 2974.8 0 0.3 0 469.5 -469.7 469.7 469.7 2884.4 0 -0.1 -0.3 91.8 0 0.3 0 469.5 -469.7 469.7 469.7 3361.3 0 -939.6 -939.5 -2421.8 0 -469.7 469.5 -469.5 -469.5 -0.3 0 -2974.8 0 -0.3 0 0 0.3 -1 0 -469.7 469.5 -469.5 -469.5 -0.3 0 -2974.8 0 -0.3 0 -469.5 469.5 -469.7 -469.5 -2421.8 0 -939.6 939.5z"/>
  <path class="fil15" d="M181844.5 32850.3l2310 0 308.5 308.4 -308.5 308.4 -1693 0 -617 -616.9zm617 2261.9l1693 0 308.5 308.4 -308.5 308.5 -1693 0 -308.5 -308.5 308.5 -308.4zm-671.8 671.8l308.4 -308.5 308.5 308.5 0 1535.4 -617 616.9 0 -2152.3zm0 -2878.9l617 616.9 0 1535.4 -308.5 308.4 -308.4 -308.4 0 -2152.3zm54.8 5086l617 -616.9 1693 0 308.5 308.4 -308.5 308.4 -2310 0z"/>
  <path id="1" class="fil15" d="M187218.4 33158.7l308.5 -308.4 308.4 308.4 0 1953.5 -308.4 308.4 308.4 308.5 0 1953.5 -308.4 308.4 -308.5 -308.4 0 -1953.5 308.5 -308.5 -308.5 -308.4 0 -1953.5zm-1747.8 1953.5l-308.5 308.4 308.5 308.5 0 1953.5 -308.5 308.4 -308.4 -308.4 0 -1953.5 308.4 -308.5 -308.4 -308.4 0 -1953.5 308.4 -308.4 308.5 308.4 0 1953.5zm1665.6 0l-411.3 0 -1172 -1542.2 0 -411.3 411.3 0 1172 1542.2 0 411.3z"/>
  <path id="2" class="fil15" d="M189740.9 33522l308.4 -308.4 308.5 301.6 0 1597.1 -308.5 308.4 308.5 308.5 0 1953.5 -308.5 308.4 -308.4 -308.4 0 -1953.5 308.4 -308.5 -308.4 -308.4 0 -1590.3zm363.3 -363.3l308.5 -308.4 1233.8 0 308.4 308.4 -308.4 308.4 -1233.8 0 -308.5 -308.4zm-418.1 308.4l-1233.8 0 -308.4 -308.4 308.4 -308.4 1233.8 0 308.4 308.4 -308.4 308.4z"/>
  <path id="3" class="fil15" d="M192318.2 32850.3l2310 0 308.5 308.4 -308.5 308.4 -1693 0 -617 -616.9zm617 2261.9l1693 0 308.5 308.4 -308.5 308.5 -1693 0 -308.5 -308.5 308.5 -308.4zm-671.8 671.8l308.4 -308.5 308.5 308.5 0 1535.4 -617 616.9 0 -2152.3zm0 -2878.9l617 616.9 0 1535.4 -308.5 308.4 -308.4 -308.4 0 -2152.3zm54.8 5086l617 -616.9 1693 0 308.5 308.4 -308.5 308.4 -2310 0z"/>
  <path id="4" class="fil15" d="M195999.2 35729.2l-308.5 -308.5 308.5 -308.4 1638.2 0 308.5 308.4 -308.5 308.5 -1638.2 0zm-671.8 -671.8l0 -2152.3 617 616.9 0 1535.4 -308.5 308.4 -308.4 -308.4zm0 726.6l308.4 -308.5 308.5 308.5 0 1898.7 -308.5 308.4 -308.4 -308.4 0 -1898.7zm2364.8 -726.6l0 -1535.4 308.5 -308.4 308.4 308.4 0 1535.4 -308.4 308.4 -308.5 -308.4zm-1254.3 754l1768.4 1768.4 0 411.3 -411.3 0 -1768.4 -1768.4 0 -411.3 411.3 0zm-1055.6 -2961.2l2255.1 0 308.5 308.4 -308.5 308.4 -1638.2 0 -617 -616.9z"/>
 </g>
</svg>
