<?xml version="1.0" encoding="UTF-8"?>
<!DOCTYPE svg PUBLIC "-//W3C//DTD SVG 1.1//EN" "http://www.w3.org/Graphics/SVG/1.1/DTD/svg11.dtd">
<!-- Creator: CorelDRAW X6 -->
<svg xmlns="http://www.w3.org/2000/svg" xml:space="preserve" width="12.5601mm" height="12.5566mm" version="1.1" style="shape-rendering:geometricPrecision; text-rendering:geometricPrecision; image-rendering:optimizeQuality; fill-rule:evenodd; clip-rule:evenodd"
viewBox="0 0 988 988"
 xmlns:xlink="http://www.w3.org/1999/xlink">
 <defs>
  <style type="text/css">
   <![CDATA[
    .fil0 {fill:#E5E5E5}
   ]]>
  </style>
 </defs>
 <g id="Layer_x0020_1">
  <metadata id="CorelCorpID_0Corel-Layer"/>
  <g id="_607650824">
   <path class="fil0" d="M67 345c0,-23 2,-42 7,-62 3,-15 10,-38 17,-52 11,-22 9,-20 25,-44 23,-35 54,-62 90,-83 16,-9 11,-6 24,-12 42,-22 100,-29 148,-24 44,4 89,23 125,47 36,23 62,54 84,89l11 23c8,16 14,33 19,51 15,66 9,137 -23,195 -14,25 -17,29 -34,52 -3,3 -5,5 -9,9 -7,10 -33,31 -45,40 -3,2 -6,4 -10,6 -4,3 -6,4 -10,7l-17 9c-2,1 -4,2 -6,3 -4,1 -7,3 -11,5 -8,3 -31,11 -39,12 -33,7 -37,9 -73,9 -39,0 -85,-13 -112,-26 -4,-3 -7,-3 -11,-6 -4,-3 -7,-4 -11,-6 -8,-5 -15,-8 -22,-14 -14,-11 -23,-18 -37,-32 -22,-22 -30,-34 -44,-59 -5,-7 -8,-14 -12,-23 -11,-20 -20,-57 -23,-81l-1 -33zm-67 0c0,53 17,127 45,171l17 27c14,21 42,52 62,67 4,4 8,6 12,10 35,28 88,53 132,62 40,9 78,11 118,7 34,-5 40,-8 71,-16 5,-2 10,-4 15,-6 42,-17 61,-30 95,-57 14,-10 33,-30 44,-43 3,-4 6,-7 9,-11 19,-24 36,-56 47,-83 6,-16 12,-33 16,-50 11,-55 11,-100 0,-155 -2,-5 -3,-12 -5,-17 -2,-5 -3,-12 -5,-17 -3,-10 -8,-21 -12,-31 -4,-10 -10,-19 -15,-28 -9,-19 -26,-40 -40,-56 -2,-3 -2,-4 -5,-7 -94,-101 -234,-138 -366,-94l-31 12c-52,21 -112,74 -142,118 -3,5 -5,8 -8,13 -4,5 -6,9 -9,14 -17,28 -28,61 -36,93 -5,24 -9,48 -9,77z"/>
   <path class="fil0" d="M624 689c0,23 11,41 28,54 4,4 1,3 9,10 3,2 3,2 5,5l27 28c7,8 6,4 10,9l28 27c2,3 2,3 3,5l135 134c16,20 33,27 57,27 11,0 17,-2 24,-6 7,-3 13,-6 18,-11 8,-7 20,-27 20,-40 0,-28 0,-32 -18,-53 -11,-14 -30,-30 -41,-42l-86 -86c0,0 -1,-1 -1,-1 -3,-3 -5,-6 -9,-9 -4,-4 -6,-6 -9,-9l-88 -88c-6,-5 -2,-4 -16,-12 -15,-9 -42,-10 -59,-2 -21,11 -37,32 -37,60z"/>
   <path class="fil0" d="M566 634c3,6 32,33 39,41 5,4 7,9 8,-2 0,-34 28,-61 59,-61 12,0 9,-2 3,-7 -7,-7 -35,-36 -40,-40 -4,3 -5,6 -8,10l-16 18c-4,4 -5,5 -9,9 -3,4 -5,5 -9,8l-18 16c-4,3 -7,5 -9,8z"/>
   <path class="fil0" d="M240 551c0,1 3,6 6,3 0,-1 3,2 0,-2 -2,-3 -3,-2 -5,-3l1 3 -2 -1z"/>
  </g>
 </g>
</svg>
