<?xml version="1.0" encoding="UTF-8"?>
<!DOCTYPE svg PUBLIC "-//W3C//DTD SVG 1.1//EN" "http://www.w3.org/Graphics/SVG/1.1/DTD/svg11.dtd">
<svg xmlns="http://www.w3.org/2000/svg" xml:space="preserve" width="196.529mm" height="68.6596mm" version="1.1" style="shape-rendering:geometricPrecision; text-rendering:geometricPrecision; image-rendering:optimizeQuality; fill-rule:evenodd; clip-rule:evenodd" viewBox="0 0 20138 7035"  xmlns:xlink="http://www.w3.org/1999/xlink">
 <defs>
  <style type="text/css"> 
    .str2 {stroke:silver;stroke-width:7.23427;stroke-linejoin:round}
    .str1 {stroke:#6DE769;stroke-width:7.8081;stroke-linejoin:round}
    .str3 {stroke:silver;stroke-width:7.8081}
    .str0 {stroke:#CACACA;stroke-width:7.8081}
    .fil6 {fill:none;fill-rule:nonzero}
    .fil0 {fill:silver}
    .fil2 {fill:#FEFEFE}
    .fil11 {fill:#FF0033}
    .fil3 {fill:#F4F4F4;fill-rule:nonzero}
    .fil4 {fill:#FEFEFE;fill-rule:nonzero}
    .fil5 {fill:#6DE769;fill-rule:nonzero}
    .fil15 {fill:silver;fill-rule:nonzero}
    .fil1 {fill:url(#id0)}
    .fil9 {fill:url(#id1)}
    .fil8 {fill:url(#id2)}
    .fil10 {fill:url(#id3)}
    .fil12 {fill:url(#id4)}
    .fil7 {fill:url(#id5)}
    .fil13 {fill:url(#id6)}
    .fil16 {fill:url(#id7)}
    .fil14 {fill:url(#id8)}
    .lang-en .ru, .lang-ru .en {display: none}
    .lang-en .act-en, .lang-ru .act-ru {fill:#FF0033}
    .caps #caps-pipka {fill:#FF0033}
  </style>
  <linearGradient id="id0" gradientUnits="objectBoundingBox" x1="49.9997%" y1="0%" x2="49.9997%" y2="100%">
   <stop offset="0" style="stop-color:black"/>
   <stop offset="0.478431" style="stop-color:#777777"/>
   <stop offset="1" style="stop-color:black"/>
  </linearGradient>
  <linearGradient id="id1" gradientUnits="userSpaceOnUse" xlink:href="#id0" x1="18743.3" y1="4358.16" x2="18743.3" y2="5496.32">
  </linearGradient>
  <linearGradient id="id2" gradientUnits="userSpaceOnUse" xlink:href="#id0" x1="1400.69" y1="4358.16" x2="1400.69" y2="5496.32">
  </linearGradient>
  <linearGradient id="id3" gradientUnits="userSpaceOnUse" xlink:href="#id0" x1="5024.94" y1="5765.65" x2="5024.94" y2="6903.8">
  </linearGradient>
  <linearGradient id="id4" gradientUnits="userSpaceOnUse" xlink:href="#id0" x1="18374.8" y1="5765.65" x2="18374.8" y2="6903.8">
  </linearGradient>
  <linearGradient id="id5" gradientUnits="userSpaceOnUse" xlink:href="#id0" x1="1777.46" y1="5765.65" x2="1777.46" y2="6903.8">
  </linearGradient>
  <linearGradient id="id6" gradientUnits="userSpaceOnUse" xlink:href="#id0" x1="10069.6" y1="5765.65" x2="10069.6" y2="6903.8">
  </linearGradient>
  <linearGradient id="id7" gradientUnits="userSpaceOnUse" xlink:href="#id0" x1="355.135" y1="473.702" x2="355.135" y2="906.211">
  </linearGradient>
  <radialGradient id="id8" gradientUnits="objectBoundingBox" cx="35.9999%" cy="52.0001%" r="50%" fx="35.9999%" fy="52.0001%">
   <stop offset="0" style="stop-color:#7B7B7B"/>
   <stop offset="0.988235" style="stop-color:black"/>
   <stop offset="1" style="stop-color:black"/>
  </radialGradient>
 </defs>

 <g id="wrapper" class="lang-en">
  <g data-code="Backquote">
   <rect class="fil0 str0" x="90" y="66" width="528" height="1254" rx="203" ry="204"/>
   <rect class="fil16" x="149" y="121" width="412" height="1138" rx="147" ry="147"/>
   <path class="fil15" d="M373 721l0 80c0,12 -1,21 -4,28 -2,6 -6,11 -11,15 -5,4 -12,6 -19,7 -8,2 -17,2 -28,2 -10,0 -19,0 -27,-2 -8,-1 -14,-3 -19,-7 -5,-4 -8,-9 -11,-15 -2,-7 -3,-16 -3,-28 0,-12 1,-24 2,-35 1,-11 3,-22 6,-31 3,-10 7,-20 12,-29 5,-10 11,-20 18,-30l87 -131c2,-3 5,-6 7,-8 3,-2 6,-4 10,-6 4,-1 9,-2 14,-3 5,-1 12,-1 19,-1 8,0 14,0 19,1 5,0 8,1 11,3 2,1 3,3 3,6 0,2 -1,5 -2,9l-84 175z"/>
  </g>
  <g data-code="Digit1">
   <circle class="fil0 str0" cx="1417" cy="698" r="694"/>
   <circle class="fil14" cx="1418" cy="694" r="629"/>
   <path class="fil15" d="M1203 545c-29,30 -66,58 -111,85l0 -64c56,-39 102,-84 138,-136l41 0 0 583 -68 0 0 -468z"/>
   <path id="1" class="fil6 str2" d="M1203 545c-29,30 -66,58 -111,85l0 -64c56,-39 102,-84 138,-136l41 0 0 583 -68 0 0 -468z"/>
   <path class="fil15" d="M1604 214l63 0 -15 300 -32 0 -16 -300zm0 350l63 0 0 65 -63 0 0 -65z"/>
   <path id="1" class="fil6 str3" d="M1604 214l63 0 -15 300 -32 0 -16 -300zm0 350l63 0 0 65 -63 0 0 -65z"/> 
  </g>
  <g data-code="Digit2">
   <circle class="fil0 str0" cx="2862" cy="698" r="694"/>
   <circle class="fil14" cx="2863" cy="694" r="629"/>
   <path class="fil15" d="M2514 1012c3,-34 18,-64 48,-92 29,-27 66,-69 112,-127 45,-57 74,-102 88,-134 13,-31 18,-58 15,-81 -3,-22 -14,-41 -32,-56 -18,-14 -39,-21 -63,-18 -24,2 -46,11 -68,27 -21,16 -37,39 -49,71l-64 -10c18,-52 41,-90 69,-114 29,-24 62,-37 100,-39 23,-2 43,-1 61,2 18,3 37,11 56,24 19,12 35,31 48,56 12,24 17,54 13,89 -3,35 -21,77 -52,126 -32,48 -93,125 -183,228l244 0 0 61 -343 0 0 -13z"/>
   <path id="1" class="fil6 str2" d="M2514 1012c3,-34 18,-64 48,-92 29,-27 66,-69 112,-127 45,-57 74,-102 88,-134 13,-31 18,-58 15,-81 -3,-22 -14,-41 -32,-56 -18,-14 -39,-21 -63,-18 -24,2 -46,11 -68,27 -21,16 -37,39 -49,71l-64 -10c18,-52 41,-90 69,-114 29,-24 62,-37 100,-39 23,-2 43,-1 61,2 18,3 37,11 56,24 19,12 35,31 48,56 12,24 17,54 13,89 -3,35 -21,77 -52,126 -32,48 -93,125 -183,228l244 0 0 61 -343 0 0 -13z"/>
   <path class="fil15" d="M3185 391c0,49 -8,82 -24,101 -16,18 -33,27 -51,27 -8,0 -14,-1 -21,-5 -6,-4 -10,-10 -13,-18 -8,8 -15,14 -23,18 -8,4 -15,5 -23,5 -15,0 -28,-5 -39,-16 -10,-12 -15,-28 -15,-49 0,-35 10,-67 31,-95 22,-27 42,-41 62,-41 8,0 13,0 16,2 3,1 7,6 11,14l12 -16 25 0 -32 150c-2,8 -1,14 2,18 3,4 8,6 14,6 17,0 28,-9 35,-27 7,-18 10,-42 10,-74 0,-40 -8,-71 -26,-93 -17,-22 -40,-34 -69,-34 -32,0 -60,14 -85,41 -24,27 -36,68 -36,124 0,55 11,94 34,116 23,23 50,34 82,34 12,0 25,-3 39,-9 14,-6 24,-15 32,-27l11 14c-9,11 -21,19 -35,27 -15,7 -30,11 -47,11 -38,0 -71,-13 -98,-39 -27,-26 -41,-68 -41,-127 0,-60 15,-105 44,-135 28,-30 62,-45 100,-45 36,0 65,13 86,39 22,26 32,61 32,103zm-96 -26c2,-8 1,-14 -2,-19 -3,-4 -8,-6 -16,-6 -12,0 -25,12 -38,36 -14,25 -21,50 -21,76 0,15 3,25 8,32 5,6 12,10 19,10 9,0 16,-4 21,-10 4,-7 8,-14 9,-22l20 -97z"/>
   <path id="1" class="fil6 str3" d="M3185 391c0,49 -8,82 -24,101 -16,18 -33,27 -51,27 -8,0 -14,-1 -21,-5 -6,-4 -10,-10 -13,-18 -8,8 -15,14 -23,18 -8,4 -15,5 -23,5 -15,0 -28,-5 -39,-16 -10,-12 -15,-28 -15,-49 0,-35 10,-67 31,-95 22,-27 42,-41 62,-41 8,0 13,0 16,2 3,1 7,6 11,14l12 -16 25 0 -32 150c-2,8 -1,14 2,18 3,4 8,6 14,6 17,0 28,-9 35,-27 7,-18 10,-42 10,-74 0,-40 -8,-71 -26,-93 -17,-22 -40,-34 -69,-34 -32,0 -60,14 -85,41 -24,27 -36,68 -36,124 0,55 11,94 34,116 23,23 50,34 82,34 12,0 25,-3 39,-9 14,-6 24,-15 32,-27l11 14c-9,11 -21,19 -35,27 -15,7 -30,11 -47,11 -38,0 -71,-13 -98,-39 -27,-26 -41,-68 -41,-127 0,-60 15,-105 44,-135 28,-30 62,-45 100,-45 36,0 65,13 86,39 22,26 32,61 32,103zm-96 -26c2,-8 1,-14 -2,-19 -3,-4 -8,-6 -16,-6 -12,0 -25,12 -38,36 -14,25 -21,50 -21,76 0,15 3,25 8,32 5,6 12,10 19,10 9,0 16,-4 21,-10 4,-7 8,-14 9,-22l20 -97z"/>
  </g>
  <g data-code="Digit3">
   <circle class="fil0 str0" cx="4307" cy="698" r="694"/>
   <circle class="fil14" cx="4309" cy="694" r="629"/>
   <path class="fil15" d="M3946 876l61 -10c9,29 23,54 44,73 20,19 46,28 76,27 31,-1 55,-13 73,-37 18,-24 26,-51 24,-82 -3,-30 -14,-54 -36,-71 -21,-17 -56,-28 -103,-35l0 -44c47,-5 82,-17 103,-38 22,-20 31,-46 29,-79 -2,-33 -17,-57 -44,-71 -27,-15 -56,-17 -87,-6 -30,12 -54,43 -72,95l-61 -10c13,-40 32,-74 55,-101 24,-27 56,-43 97,-48 41,-4 76,1 107,15 30,15 52,38 64,68 13,31 14,64 5,100 -9,36 -35,68 -78,95 32,14 56,34 73,61 17,27 23,63 17,107 -5,44 -25,79 -59,106 -34,28 -72,41 -115,40 -43,-2 -81,-15 -112,-41 -32,-26 -52,-64 -61,-114z"/>
   <path id="1" class="fil6 str2" d="M3946 876l61 -10c9,29 23,54 44,73 20,19 46,28 76,27 31,-1 55,-13 73,-37 18,-24 26,-51 24,-82 -3,-30 -14,-54 -36,-71 -21,-17 -56,-28 -103,-35l0 -44c47,-5 82,-17 103,-38 22,-20 31,-46 29,-79 -2,-33 -17,-57 -44,-71 -27,-15 -56,-17 -87,-6 -30,12 -54,43 -72,95l-61 -10c13,-40 32,-74 55,-101 24,-27 56,-43 97,-48 41,-4 76,1 107,15 30,15 52,38 64,68 13,31 14,64 5,100 -9,36 -35,68 -78,95 32,14 56,34 73,61 17,27 23,63 17,107 -5,44 -25,79 -59,106 -34,28 -72,41 -115,40 -43,-2 -81,-15 -112,-41 -32,-26 -52,-64 -61,-114z"/>
   <path class="fil15" d="M4665 500l-60 0 -12 91 -31 0 12 -91 -66 0 -12 91 -31 0 12 -91 -40 0 0 -38 44 0 11 -83 -55 0 0 -37 59 0 12 -89 32 0 -12 89 65 0 12 -89 32 0 -12 89 40 0 0 37 -44 0 -12 83 56 0 0 38zm-76 -121l-65 0 -12 83 66 0 11 -83z"/>
   <path id="1" class="fil6 str3" d="M4665 500l-60 0 -12 91 -31 0 12 -91 -66 0 -12 91 -31 0 12 -91 -40 0 0 -38 44 0 11 -83 -55 0 0 -37 59 0 12 -89 32 0 -12 89 65 0 12 -89 32 0 -12 89 40 0 0 37 -44 0 -12 83 56 0 0 38zm-76 -121l-65 0 -12 83 66 0 11 -83z"/>
  </g>
  <g data-code="Digit4">
   <circle class="fil0 str0" cx="5752" cy="698" r="694"/>
   <circle class="fil14" cx="5754" cy="694" r="629"/>
   <path class="fil15" d="M5631 892l-261 0 0 -58 275 -396 50 0 0 396 82 0 0 58 -82 0 0 129 -64 0 0 -129zm0 -58l0 -267 -190 267 190 0z"/>
   <path id="1" class="fil6 str2" d="M5631 892l-261 0 0 -58 275 -396 50 0 0 396 82 0 0 58 -82 0 0 129 -64 0 0 -129zm0 -58l0 -267 -190 267 190 0z"/>
   <path class="fil15" d="M6081 490c0,34 -9,59 -26,75 -17,16 -35,24 -53,24l0 49 -28 0 0 -49c-23,0 -42,-10 -58,-28 -17,-18 -25,-47 -25,-85l45 0c0,33 5,54 14,62 9,9 17,13 24,13l0 -128c-32,-18 -52,-33 -61,-47 -10,-14 -14,-30 -14,-48 0,-24 7,-43 21,-59 13,-15 31,-24 54,-26l0 -38 28 0 0 38c22,0 40,9 54,26 14,18 21,40 21,67l-44 0c0,-20 -3,-34 -11,-43 -7,-8 -14,-13 -20,-13l0 111c21,11 39,24 55,40 16,15 24,35 24,59zm-107 -115l0 -95c-8,0 -16,4 -23,11 -7,7 -11,18 -11,33 0,9 2,18 6,26 4,9 13,17 28,25zm63 125c0,-15 -3,-27 -10,-36 -6,-9 -15,-18 -25,-26l0 113c8,-1 15,-5 23,-12 8,-6 12,-20 12,-39z"/>
   <path id="1" class="fil6 str3" d="M6081 490c0,34 -9,59 -26,75 -17,16 -35,24 -53,24l0 49 -28 0 0 -49c-23,0 -42,-10 -58,-28 -17,-18 -25,-47 -25,-85l45 0c0,33 5,54 14,62 9,9 17,13 24,13l0 -128c-32,-18 -52,-33 -61,-47 -10,-14 -14,-30 -14,-48 0,-24 7,-43 21,-59 13,-15 31,-24 54,-26l0 -38 28 0 0 38c22,0 40,9 54,26 14,18 21,40 21,67l-44 0c0,-20 -3,-34 -11,-43 -7,-8 -14,-13 -20,-13l0 111c21,11 39,24 55,40 16,15 24,35 24,59zm-107 -115l0 -95c-8,0 -16,4 -23,11 -7,7 -11,18 -11,33 0,9 2,18 6,26 4,9 13,17 28,25zm63 125c0,-15 -3,-27 -10,-36 -6,-9 -15,-18 -25,-26l0 113c8,-1 15,-5 23,-12 8,-6 12,-20 12,-39z"/>
  </g>
  <g data-code="Digit5">
   <circle class="fil0 str0" cx="7197" cy="698" r="694"/>
   <circle class="fil14" cx="7199" cy="694" r="629"/>
   <path class="fil15" d="M6858 859c16,61 43,95 82,102 38,7 69,3 93,-12 24,-15 41,-34 51,-58 10,-23 14,-50 13,-79 -1,-29 -9,-54 -23,-75 -15,-20 -34,-34 -56,-40 -23,-7 -48,-7 -77,0 -28,6 -51,22 -69,47l-58 -7c5,-13 26,-110 65,-291l267 0 0 61 -216 0c-12,61 -23,109 -34,146 34,-16 65,-24 95,-22 29,1 57,7 84,20 27,12 47,29 60,51 12,21 21,43 27,64 5,22 8,45 6,70 -1,24 -6,50 -15,76 -9,26 -22,47 -41,64 -18,17 -40,31 -66,41 -26,10 -55,14 -89,12 -34,-3 -67,-15 -97,-38 -31,-22 -51,-61 -63,-115l61 -17z"/>
   <path id="1" class="fil6 str2" d="M6858 859c16,61 43,95 82,102 38,7 69,3 93,-12 24,-15 41,-34 51,-58 10,-23 14,-50 13,-79 -1,-29 -9,-54 -23,-75 -15,-20 -34,-34 -56,-40 -23,-7 -48,-7 -77,0 -28,6 -51,22 -69,47l-58 -7c5,-13 26,-110 65,-291l267 0 0 61 -216 0c-12,61 -23,109 -34,146 34,-16 65,-24 95,-22 29,1 57,7 84,20 27,12 47,29 60,51 12,21 21,43 27,64 5,22 8,45 6,70 -1,24 -6,50 -15,76 -9,26 -22,47 -41,64 -18,17 -40,31 -66,41 -26,10 -55,14 -89,12 -34,-3 -67,-15 -97,-38 -31,-22 -51,-61 -63,-115l61 -17z"/>
   <path class="fil15" d="M7333 338c0,38 -5,62 -16,73 -12,10 -22,16 -33,16 -11,0 -21,-6 -33,-16 -11,-11 -16,-35 -16,-73 0,-39 5,-63 16,-74 12,-10 22,-15 33,-15 11,0 21,5 33,15 11,11 16,35 16,74zm97 -83l-152 340 -16 -6 152 -340 16 6zm28 251c0,38 -6,62 -17,73 -11,10 -22,16 -32,16 -11,0 -22,-6 -33,-16 -11,-11 -17,-35 -17,-73 0,-39 6,-63 17,-74 11,-10 22,-15 33,-15 10,0 21,5 32,15 11,11 17,35 17,74zm-156 -168c0,-24 -2,-40 -4,-48 -3,-8 -7,-12 -14,-12 -7,0 -11,4 -14,12 -2,8 -4,24 -4,48 0,23 2,39 4,47 3,8 7,12 14,12 7,0 11,-4 14,-12 2,-8 4,-24 4,-47zm124 168c0,-24 -1,-40 -4,-48 -2,-8 -7,-12 -13,-12 -7,0 -12,4 -14,12 -3,8 -4,24 -4,48 0,23 1,39 4,47 2,8 7,12 14,12 6,0 11,-4 13,-12 3,-8 4,-24 4,-47z"/>
   <path id="1" class="fil6 str3" d="M7333 338c0,38 -5,62 -16,73 -12,10 -22,16 -33,16 -11,0 -21,-6 -33,-16 -11,-11 -16,-35 -16,-73 0,-39 5,-63 16,-74 12,-10 22,-15 33,-15 11,0 21,5 33,15 11,11 16,35 16,74zm97 -83l-152 340 -16 -6 152 -340 16 6zm28 251c0,38 -6,62 -17,73 -11,10 -22,16 -32,16 -11,0 -22,-6 -33,-16 -11,-11 -17,-35 -17,-73 0,-39 6,-63 17,-74 11,-10 22,-15 33,-15 10,0 21,5 32,15 11,11 17,35 17,74zm-156 -168c0,-24 -2,-40 -4,-48 -3,-8 -7,-12 -14,-12 -7,0 -11,4 -14,12 -2,8 -4,24 -4,48 0,23 2,39 4,47 3,8 7,12 14,12 7,0 11,-4 14,-12 2,-8 4,-24 4,-47zm124 168c0,-24 -1,-40 -4,-48 -2,-8 -7,-12 -13,-12 -7,0 -12,4 -14,12 -3,8 -4,24 -4,48 0,23 1,39 4,47 2,8 7,12 14,12 6,0 11,-4 13,-12 3,-8 4,-24 4,-47z"/>
  </g>
  <g data-code="Digit6">
   <circle class="fil0 str0" cx="8642" cy="698" r="694"/>
   <circle class="fil14" cx="8644" cy="694" r="629"/>
   <path class="fil15" d="M8266 824c2,-33 8,-61 18,-83 11,-23 26,-51 46,-85l139 -217 78 0 -142 224c61,-16 109,-14 145,7 37,20 61,43 73,69 13,26 20,54 21,85 1,30 -4,60 -14,90 -10,29 -28,56 -54,79 -26,24 -62,37 -109,39 -46,2 -85,-6 -118,-25 -33,-19 -56,-46 -68,-82 -12,-35 -17,-68 -15,-101zm105 112c20,21 47,33 81,35 34,2 62,-9 85,-34 23,-24 34,-61 34,-108 0,-48 -14,-80 -43,-98 -28,-18 -59,-25 -94,-21 -36,5 -61,22 -77,51 -16,29 -22,61 -20,93 2,33 13,60 34,82z"/>
   <path id="1" class="fil6 str2" d="M8266 824c2,-33 8,-61 18,-83 11,-23 26,-51 46,-85l139 -217 78 0 -142 224c61,-16 109,-14 145,7 37,20 61,43 73,69 13,26 20,54 21,85 1,30 -4,60 -14,90 -10,29 -28,56 -54,79 -26,24 -62,37 -109,39 -46,2 -85,-6 -118,-25 -33,-19 -56,-46 -68,-82 -12,-35 -17,-68 -15,-101zm105 112c20,21 47,33 81,35 34,2 62,-9 85,-34 23,-24 34,-61 34,-108 0,-48 -14,-80 -43,-98 -28,-18 -59,-25 -94,-21 -36,5 -61,22 -77,51 -16,29 -22,61 -20,93 2,33 13,60 34,82z"/>
   <polygon class="fil15" points="9001,322 8956,322 8879,259 8803,322 8757,322 8849,218 8910,218 "/>
   <polygon id="1" class="fil6 str3" points="9001,322 8956,322 8879,259 8803,322 8757,322 8849,218 8910,218 "/>
  </g>
  <g data-code="Digit7">
   <circle class="fil0 str0" cx="10088" cy="698" r="694"/>
   <circle class="fil14" cx="10089" cy="694" r="629"/>
   <path class="fil15" d="M9784 1021c41,-172 112,-342 214,-512l-292 0 0 -61 363 0 0 58c-106,172 -176,343 -210,515l-75 0z"/>
   <path id="1" class="fil6 str2" d="M9784 1021c41,-172 112,-342 214,-512l-292 0 0 -61 363 0 0 58c-106,172 -176,343 -210,515l-75 0z"/>
   <path class="fil15" d="M10371 533l-15 34c-7,-5 -13,-9 -18,-12 -5,-4 -11,-8 -16,-14 -9,9 -19,16 -29,21 -10,5 -22,8 -36,8 -22,0 -42,-7 -58,-20 -16,-14 -25,-35 -25,-63 0,-18 5,-33 15,-45 9,-12 21,-23 34,-33 -5,-13 -10,-25 -13,-37 -3,-13 -5,-24 -5,-34 0,-21 6,-36 18,-48 12,-11 26,-17 43,-17 15,0 27,5 37,15 10,9 15,23 15,41 0,22 -6,39 -17,52 -12,13 -26,24 -40,33 8,14 16,26 24,38 9,12 19,24 30,37 3,-8 6,-16 7,-23 1,-8 1,-17 1,-28l34 0c0,14 -1,28 -4,40 -3,11 -7,22 -13,33 4,3 9,7 15,11 6,5 11,8 16,11zm-85 -204c0,-8 -2,-14 -6,-18 -4,-5 -9,-7 -16,-7 -7,0 -13,3 -18,8 -6,6 -9,14 -9,24 0,8 1,16 3,25 1,8 4,17 9,28 9,-5 17,-12 25,-22 8,-9 12,-22 12,-38zm12 190c-15,-16 -27,-30 -37,-44 -10,-14 -19,-27 -26,-41 -9,7 -15,15 -19,23 -4,9 -6,19 -6,32 0,16 5,29 15,38 10,8 22,12 36,12 8,0 14,-1 20,-5 6,-3 11,-8 17,-15z"/>
   <path id="1" class="fil6 str3" d="M10371 533l-15 34c-7,-5 -13,-9 -18,-12 -5,-4 -11,-8 -16,-14 -9,9 -19,16 -29,21 -10,5 -22,8 -36,8 -22,0 -42,-7 -58,-20 -16,-14 -25,-35 -25,-63 0,-18 5,-33 15,-45 9,-12 21,-23 34,-33 -5,-13 -10,-25 -13,-37 -3,-13 -5,-24 -5,-34 0,-21 6,-36 18,-48 12,-11 26,-17 43,-17 15,0 27,5 37,15 10,9 15,23 15,41 0,22 -6,39 -17,52 -12,13 -26,24 -40,33 8,14 16,26 24,38 9,12 19,24 30,37 3,-8 6,-16 7,-23 1,-8 1,-17 1,-28l34 0c0,14 -1,28 -4,40 -3,11 -7,22 -13,33 4,3 9,7 15,11 6,5 11,8 16,11zm-85 -204c0,-8 -2,-14 -6,-18 -4,-5 -9,-7 -16,-7 -7,0 -13,3 -18,8 -6,6 -9,14 -9,24 0,8 1,16 3,25 1,8 4,17 9,28 9,-5 17,-12 25,-22 8,-9 12,-22 12,-38zm12 190c-15,-16 -27,-30 -37,-44 -10,-14 -19,-27 -26,-41 -9,7 -15,15 -19,23 -4,9 -6,19 -6,32 0,16 5,29 15,38 10,8 22,12 36,12 8,0 14,-1 20,-5 6,-3 11,-8 17,-15z"/>
  </g>
  <g data-code="Digit8">
   <circle class="fil0 str0" cx="11533" cy="698" r="694"/>
   <circle class="fil14" cx="11534" cy="694" r="629"/>
   <path class="fil15" d="M11146 857c0,-27 6,-54 20,-80 14,-26 36,-47 68,-62 -27,-16 -45,-34 -54,-53 -9,-19 -15,-41 -16,-66 -1,-25 3,-46 10,-64 8,-19 20,-35 36,-51 16,-16 33,-27 53,-32 19,-6 40,-9 62,-9 23,0 43,2 61,7 18,4 38,14 58,29 20,14 35,35 44,62 9,27 8,59 -2,95 -10,36 -36,65 -79,85 38,11 65,29 81,52 16,24 24,53 24,87 0,34 -5,61 -16,81 -10,21 -21,37 -34,51 -12,14 -29,24 -50,32 -22,8 -49,12 -82,12 -32,0 -61,-4 -84,-12 -24,-8 -44,-20 -60,-35 -15,-16 -26,-35 -32,-56 -5,-22 -8,-46 -8,-73zm69 -4c-1,28 4,51 14,72 10,20 29,33 56,39 27,5 55,5 84,-2 30,-7 50,-23 61,-48 12,-24 16,-49 12,-74 -3,-25 -17,-46 -42,-63 -25,-17 -52,-24 -82,-22 -29,2 -53,13 -72,31 -19,18 -30,40 -31,67zm12 -264c0,23 8,44 24,65 16,20 40,30 74,30 34,0 60,-10 77,-30 17,-21 24,-45 23,-73 -1,-29 -11,-49 -30,-63 -19,-14 -45,-19 -78,-17 -33,2 -56,12 -70,29 -13,17 -20,37 -20,59z"/>
   <path id="1" class="fil6 str2" d="M11146 857c0,-27 6,-54 20,-80 14,-26 36,-47 68,-62 -27,-16 -45,-34 -54,-53 -9,-19 -15,-41 -16,-66 -1,-25 3,-46 10,-64 8,-19 20,-35 36,-51 16,-16 33,-27 53,-32 19,-6 40,-9 62,-9 23,0 43,2 61,7 18,4 38,14 58,29 20,14 35,35 44,62 9,27 8,59 -2,95 -10,36 -36,65 -79,85 38,11 65,29 81,52 16,24 24,53 24,87 0,34 -5,61 -16,81 -10,21 -21,37 -34,51 -12,14 -29,24 -50,32 -22,8 -49,12 -82,12 -32,0 -61,-4 -84,-12 -24,-8 -44,-20 -60,-35 -15,-16 -26,-35 -32,-56 -5,-22 -8,-46 -8,-73zm69 -4c-1,28 4,51 14,72 10,20 29,33 56,39 27,5 55,5 84,-2 30,-7 50,-23 61,-48 12,-24 16,-49 12,-74 -3,-25 -17,-46 -42,-63 -25,-17 -52,-24 -82,-22 -29,2 -53,13 -72,31 -19,18 -30,40 -31,67zm12 -264c0,23 8,44 24,65 16,20 40,30 74,30 34,0 60,-10 77,-30 17,-21 24,-45 23,-73 -1,-29 -11,-49 -30,-63 -19,-14 -45,-19 -78,-17 -33,2 -56,12 -70,29 -13,17 -20,37 -20,59z"/>
   <polygon class="fil15" points="11937,468 11915,509 11822,450 11827,565 11782,565 11786,450 11694,509 11671,468 11768,418 11671,369 11694,328 11786,387 11782,278 11827,278 11822,387 11915,328 11937,369 11840,418 "/>
   <polygon id="1" class="fil6 str3" points="11937,468 11915,509 11822,450 11827,565 11782,565 11786,450 11694,509 11671,468 11768,418 11671,369 11694,328 11786,387 11782,278 11827,278 11822,387 11915,328 11937,369 11840,418 "/>
  </g>
  <g data-code="Digit9">
   <circle class="fil0 str0" cx="12978" cy="698" r="694"/>
   <circle class="fil14" cx="12980" cy="694" r="629"/>
   <path class="fil15" d="M12680 1028c50,-84 91,-159 122,-227 -56,9 -103,2 -140,-22 -38,-24 -60,-56 -68,-97 -8,-40 -7,-77 1,-110 10,-33 24,-60 43,-81 19,-22 42,-37 69,-46 27,-9 52,-14 73,-14 22,0 44,5 66,14 23,9 43,23 61,41 18,18 31,36 38,56 6,19 10,44 10,74 0,31 -12,70 -34,117 -23,48 -78,146 -166,295l-75 0zm-18 -380c3,30 15,54 37,73 21,19 45,28 69,26 25,-3 45,-9 60,-21 14,-11 28,-30 42,-57 9,-34 11,-63 7,-87 -5,-23 -17,-43 -36,-59 -19,-16 -40,-24 -62,-24 -14,-2 -32,1 -53,10 -21,9 -38,27 -51,55 -12,27 -17,55 -13,84z"/>
   <path id="1" class="fil6 str2" d="M12680 1028c50,-84 91,-159 122,-227 -56,9 -103,2 -140,-22 -38,-24 -60,-56 -68,-97 -8,-40 -7,-77 1,-110 10,-33 24,-60 43,-81 19,-22 42,-37 69,-46 27,-9 52,-14 73,-14 22,0 44,5 66,14 23,9 43,23 61,41 18,18 31,36 38,56 6,19 10,44 10,74 0,31 -12,70 -34,117 -23,48 -78,146 -166,295l-75 0zm-18 -380c3,30 15,54 37,73 21,19 45,28 69,26 25,-3 45,-9 60,-21 14,-11 28,-30 42,-57 9,-34 11,-63 7,-87 -5,-23 -17,-43 -36,-59 -19,-16 -40,-24 -62,-24 -14,-2 -32,1 -53,10 -21,9 -38,27 -51,55 -12,27 -17,55 -13,84z"/>
   <path class="fil15" d="M13280 616l-22 22c-33,-32 -57,-64 -74,-99 -16,-34 -25,-73 -25,-116 0,-44 9,-83 25,-117 17,-34 41,-68 74,-101l22 22c-30,29 -53,59 -68,90 -15,31 -23,66 -23,106 0,39 8,74 23,105 15,31 38,61 68,88z"/>
   <path id="1" class="fil6 str3" d="M13280 616l-22 22c-33,-32 -57,-64 -74,-99 -16,-34 -25,-73 -25,-116 0,-44 9,-83 25,-117 17,-34 41,-68 74,-101l22 22c-30,29 -53,59 -68,90 -15,31 -23,66 -23,106 0,39 8,74 23,105 15,31 38,61 68,88z"/>
  </g>
  <g data-code="Digit0">
   <circle class="fil0 str0" cx="14423" cy="698" r="694"/>
   <circle class="fil14" cx="14425" cy="694" r="629"/>
   <path class="fil15" d="M14039 698c2,-59 10,-107 25,-142 15,-35 36,-64 63,-86 27,-23 60,-34 100,-34 39,0 74,16 103,49 30,33 49,74 58,124 9,49 12,106 8,171 -3,64 -15,117 -34,157 -19,41 -48,69 -86,85 -39,16 -77,14 -115,-5 -39,-19 -66,-45 -82,-76 -15,-32 -27,-65 -34,-100 -6,-35 -9,-83 -6,-143zm71 -20c-7,62 -5,118 7,166 11,49 30,83 56,104 25,20 52,24 79,11 27,-12 47,-37 60,-74 12,-38 18,-78 18,-122 0,-44 -2,-84 -5,-121 -3,-36 -13,-68 -31,-98 -16,-29 -39,-44 -67,-46 -29,-1 -53,13 -75,43 -21,29 -35,75 -42,137z"/>
   <path id="1" class="fil6 str2" d="M14039 698c2,-59 10,-107 25,-142 15,-35 36,-64 63,-86 27,-23 60,-34 100,-34 39,0 74,16 103,49 30,33 49,74 58,124 9,49 12,106 8,171 -3,64 -15,117 -34,157 -19,41 -48,69 -86,85 -39,16 -77,14 -115,-5 -39,-19 -66,-45 -82,-76 -15,-32 -27,-65 -34,-100 -6,-35 -9,-83 -6,-143zm71 -20c-7,62 -5,118 7,166 11,49 30,83 56,104 25,20 52,24 79,11 27,-12 47,-37 60,-74 12,-38 18,-78 18,-122 0,-44 -2,-84 -5,-121 -3,-36 -13,-68 -31,-98 -16,-29 -39,-44 -67,-46 -29,-1 -53,13 -75,43 -21,29 -35,75 -42,137z"/>
   <path class="fil15" d="M14731 423c0,43 -8,82 -25,116 -16,35 -41,67 -74,99l-22 -22c31,-27 53,-57 68,-88 16,-31 23,-66 23,-105 0,-40 -7,-75 -23,-106 -15,-31 -37,-61 -68,-90l22 -22c33,33 58,67 74,101 17,34 25,73 25,117z"/>
   <path id="1" class="fil6 str3" d="M14731 423c0,43 -8,82 -25,116 -16,35 -41,67 -74,99l-22 -22c31,-27 53,-57 68,-88 16,-31 23,-66 23,-105 0,-40 -7,-75 -23,-106 -15,-31 -37,-61 -68,-90l22 -22c33,33 58,67 74,101 17,34 25,73 25,117z"/>
  </g>
  <g data-code="Minus">
   <circle class="fil0 str0" cx="15868" cy="698" r="694"/>
   <circle class="fil14" cx="15870" cy="694" r="629"/>
   <polygon class="fil15" points="15658,772 15658,690 15858,690 15858,772 "/>
   <polygon class="fil15" points="16249,559 16008,559 16008,511 16249,511 "/>
  </g>
  <g data-code="Equal">
   <circle class="fil0 str0" cx="17313" cy="698" r="694"/>
   <circle class="fil14" cx="17315" cy="694" r="629"/>
   <path class="fil15" d="M17036 893l0 -83 407 0 0 83 -407 0zm0 -163l0 -82 407 0 0 82 -407 0z"/>
   <polygon class="fil15" points="17439,458 17439,396 17538,396 17538,294 17603,294 17603,396 17705,396 17705,458 17603,458 17603,559 17538,559 17538,458 "/>
  </g>
  <g data-code="Backspace">
   <path class="fil0 str0" d="M18442 71l1260 0c195,0 355,160 355,355l0 543c0,196 -160,356 -355,356l-1260 0c-195,0 -355,-160 -355,-356l0 -543c0,-195 160,-355 355,-355z"/>
   <path class="fil1" d="M18446 125l1255 0c165,0 300,136 300,301l0 537c0,165 -135,301 -300,301l-1255 0c-165,0 -300,-136 -300,-301l0 -537c0,-165 135,-301 300,-301z"/>
   <polygon class="fil4" points="19675,768 18859,768 18875,901 18471,694 18875,488 18859,621 19675,621 "/>
  </g>
  <g data-code="Semicolon">
   <circle class="fil0 str0" cx="698" cy="2115" r="694"/>
   <circle class="fil14" cx="699" cy="2112" r="629"/>
   <path class="fil15" d="M383 2103c0,-44 20,-66 61,-66 40,0 60,22 60,66 0,44 -20,66 -60,66 -21,0 -36,-6 -46,-17 -10,-12 -15,-28 -15,-49zm5 314c-13,-13 -19,-27 -19,-43 0,-17 6,-31 17,-42 11,-11 27,-17 48,-17 20,0 37,7 49,20 12,14 18,32 18,56 0,70 -36,125 -109,167l-24 -30c18,-14 33,-29 44,-45 10,-17 16,-32 16,-48 0,-15 -8,-23 -23,-23 -4,0 -10,2 -17,5z"/>
   <path class="fil15" d="M885 2077c0,-44 20,-66 61,-66 40,0 60,22 60,66 0,44 -20,66 -60,66 -21,0 -36,-6 -46,-17 -10,-12 -15,-28 -15,-49zm0 -273c0,-44 20,-67 61,-67 40,0 60,22 60,67 0,44 -20,66 -60,66 -21,0 -36,-6 -46,-18 -10,-12 -15,-28 -15,-48z"/>
  </g>
  <g data-code="KeyQ">
   <circle class="fil0 str0" cx="2139" cy="2115" r="694"/>
   <circle class="fil14" cx="2140" cy="2112" r="629"/>
   <path class="fil15 ru" d="M1995 1692l70 0c0,37 14,59 44,66l37 4c36,-10 55,-31 55,-63l0 -7 66 0 0 11c-8,68 -58,104 -151,106 -61,-2 -101,-40 -121,-113l0 -4zm-84 139l77 0 0 441 286 -441 81 0 0 562 -81 0 0 -440 -283 440 -80 0 0 -562z"/>
   <path id="1" class="fil6 str2 ru" d="M1995 1692l70 0c0,37 14,59 44,66l37 4c36,-10 55,-31 55,-63l0 -7 66 0 0 11c-8,68 -58,104 -151,106 -61,-2 -101,-40 -121,-113l0 -4zm-84 139l77 0 0 441 286 -441 81 0 0 562 -81 0 0 -440 -283 440 -80 0 0 -562z"/>
   <path class="fil15 en" d="M2341 2088c0,59 -4,108 -12,148 -9,41 -23,73 -43,98l30 55 -59 62 -33 -62c-10,7 -22,13 -37,16 -14,4 -30,6 -47,6 -64,0 -114,-25 -151,-75 -36,-51 -55,-133 -55,-248 0,-115 19,-197 55,-246 37,-49 87,-73 151,-73 63,0 113,24 148,73 36,49 53,131 53,246zm-88 0c0,-103 -11,-170 -33,-202 -22,-32 -49,-47 -80,-47 -32,0 -60,15 -83,47 -23,32 -35,99 -35,202 0,103 12,171 35,204 23,33 51,49 83,49 12,0 23,-2 33,-5 9,-4 17,-8 22,-13l-59 -114 51 -62 52 99c5,-25 8,-47 11,-66 2,-20 3,-50 3,-92z"/>
   <path id="1" class="fil6 str2 en" d="M2341 2088c0,59 -4,108 -12,148 -9,41 -23,73 -43,98l30 55 -59 62 -33 -62c-10,7 -22,13 -37,16 -14,4 -30,6 -47,6 -64,0 -114,-25 -151,-75 -36,-51 -55,-133 -55,-248 0,-115 19,-197 55,-246 37,-49 87,-73 151,-73 63,0 113,24 148,73 36,49 53,131 53,246zm-88 0c0,-103 -11,-170 -33,-202 -22,-32 -49,-47 -80,-47 -32,0 -60,15 -83,47 -23,32 -35,99 -35,202 0,103 12,171 35,204 23,33 51,49 83,49 12,0 23,-2 33,-5 9,-4 17,-8 22,-13l-59 -114 51 -62 52 99c5,-25 8,-47 11,-66 2,-20 3,-50 3,-92z"/>
  </g>
  <g data-code="KeyW">
   <circle class="fil0 str0" cx="3580" cy="2115" r="694"/>
   <circle class="fil14" cx="3581" cy="2112" r="629"/>
   <polygon class="fil15 ru" points="3330,1828 3407,1828 3407,2309 3697,2309 3697,1828 3774,1828 3774,2309 3822,2309 3822,2522 3741,2522 3741,2389 3330,2389 "/>
   <polygon id="1" class="fil6 str2 ru" points="3330,1828 3407,1828 3407,2309 3697,2309 3697,1828 3774,1828 3774,2309 3822,2309 3822,2522 3741,2522 3741,2389 3330,2389 "/>
   <polygon class="fil15 en" points="3801,1793 3720,2427 3647,2427 3581,1958 3574,1958 3508,2427 3434,2427 3354,1793 3434,1793 3475,2193 3482,2193 3537,1793 3618,1793 3673,2193 3680,2193 3720,1793 "/>
   <polygon id="1" class="fil6 str2 en" points="3801,1793 3720,2427 3647,2427 3581,1958 3574,1958 3508,2427 3434,2427 3354,1793 3434,1793 3475,2193 3482,2193 3537,1793 3618,1793 3673,2193 3680,2193 3720,1793 "/>
  </g>
  <g data-code="KeyE">
   <circle class="fil0 str0" cx="5020" cy="2115" r="694"/>
   <circle class="fil14" cx="5022" cy="2112" r="629"/>
   <path class="fil15 ru" d="M4794 1828l85 0 150 249 129 -249 92 0 -287 536c-7,24 -51,33 -132,25l0 -77 63 0c12,8 39,-34 80,-124l15 -37 -195 -323z"/>
   <path id="1" class="fil6 str2 ru" d="M4794 1828l85 0 150 249 129 -249 92 0 -287 536c-7,24 -51,33 -132,25l0 -77 63 0c12,8 39,-34 80,-124l15 -37 -195 -323z"/>
   <polygon class="fil15 en" points="5204,2424 4830,2424 4830,1796 5186,1796 5186,1866 4914,1866 4914,2060 5163,2060 5163,2130 4914,2130 4914,2354 5204,2354 "/>
   <polygon id="1" class="fil6 str2 en" points="5204,2424 4830,2424 4830,1796 5186,1796 5186,1866 4914,1866 4914,2060 5163,2060 5163,2130 4914,2130 4914,2354 5204,2354 "/>
  </g>
  <g data-code="KeyR">
   <circle class="fil0 str0" cx="6461" cy="2115" r="694"/>
   <circle class="fil14" cx="6463" cy="2112" r="629"/>
   <polygon class="fil15 ru" points="6250,1831 6327,1831 6327,2099 6540,1831 6635,1831 6441,2070 6676,2393 6577,2393 6397,2121 6327,2210 6327,2393 6250,2393 "/>
   <polygon id="1" class="fil6 str2 ru" points="6250,1831 6327,1831 6327,2099 6540,1831 6635,1831 6441,2070 6676,2393 6577,2393 6397,2121 6327,2210 6327,2393 6250,2393 "/>
   <path class="fil15 en" d="M6656 2424l-88 0 -132 -272 -95 0 0 272 -85 0 0 -628 184 0c58,0 106,15 143,43 36,28 55,74 55,137 0,49 -13,87 -37,114 -24,27 -53,44 -84,51l139 283zm-103 -448c0,-34 -10,-61 -31,-81 -21,-19 -54,-29 -101,-29l-80 0 0 216 102 0c30,0 55,-7 77,-23 22,-16 33,-44 33,-83z"/>
   <path id="1" class="fil6 str2 en" d="M6656 2424l-88 0 -132 -272 -95 0 0 272 -85 0 0 -628 184 0c58,0 106,15 143,43 36,28 55,74 55,137 0,49 -13,87 -37,114 -24,27 -53,44 -84,51l139 283zm-103 -448c0,-34 -10,-61 -31,-81 -21,-19 -54,-29 -101,-29l-80 0 0 216 102 0c30,0 55,-7 77,-23 22,-16 33,-44 33,-83z"/>
  </g>
  <g data-code="KeyT">
   <circle class="fil0 str0" cx="7902" cy="2115" r="694"/>
   <circle class="fil14" cx="7904" cy="2112" r="629"/>
   <polygon class="fil15 ru" points="7719,1831 8089,1831 8089,1908 7796,1908 7796,2059 8082,2059 8082,2136 7796,2136 7796,2312 8089,2312 8089,2393 7719,2393 "/>
   <polygon id="1" class="fil6 str2 ru" points="7719,1831 8089,1831 8089,1908 7796,1908 7796,2059 8082,2059 8082,2136 7796,2136 7796,2312 8089,2312 8089,2393 7719,2393 "/>
   <polygon class="fil15 en" points="8085,1866 7938,1866 7938,2424 7853,2424 7853,1866 7707,1866 7707,1796 8085,1796 "/>
   <polygon id="1" class="fil6 str2 en" points="8085,1866 7938,1866 7938,2424 7853,2424 7853,1866 7707,1866 7707,1796 8085,1796 "/>
  </g>
  <g data-code="KeyY">
   <circle class="fil0 str0" cx="9343" cy="2115" r="694"/>
   <circle class="fil14" cx="9345" cy="2112" r="629"/>
   <polygon class="fil15 ru" points="9121,1831 9198,1831 9198,2059 9488,2059 9488,1831 9569,1831 9569,2393 9488,2393 9488,2136 9198,2136 9198,2393 9121,2393 "/>
   <polygon id="1" class="fil6 str2 ru" points="9121,1831 9198,1831 9198,2059 9488,2059 9488,1831 9569,1831 9569,2393 9488,2393 9488,2136 9198,2136 9198,2393 9121,2393 "/>
   <polygon class="fil15 en" points="9550,1796 9377,2141 9377,2424 9293,2424 9293,2141 9121,1796 9205,1796 9333,2064 9337,2064 9465,1796 "/>
   <polygon id="1" class="fil6 str2 en" points="9550,1796 9377,2141 9377,2424 9293,2424 9293,2141 9121,1796 9205,1796 9333,2064 9337,2064 9465,1796 "/>
  </g>
  <g data-code="KeyU">
   <circle class="fil0 str0" cx="10784" cy="2115" r="694"/>
   <circle class="fil14" cx="10786" cy="2112" r="629"/>
   <polygon class="fil15 ru" points="10601,1831 10971,1831 10971,1908 10678,1908 10678,2393 10601,2393 "/>
   <polygon id="1" class="fil6 str2 ru" points="10601,1831 10971,1831 10971,1908 10678,1908 10678,2393 10601,2393 "/>
   <path class="fil15 en" d="M10965 2237c0,58 -15,105 -46,139 -30,34 -79,51 -144,51 -66,0 -115,-17 -145,-51 -31,-34 -46,-81 -46,-139l0 -444 84 0 0 444c0,41 10,72 29,91 20,20 46,29 78,29 31,0 57,-9 77,-29 19,-19 29,-50 29,-91l0 -444 84 0 0 444z"/>
   <path id="1" class="fil6 str2 en" d="M10965 2237c0,58 -15,105 -46,139 -30,34 -79,51 -144,51 -66,0 -115,-17 -145,-51 -31,-34 -46,-81 -46,-139l0 -444 84 0 0 444c0,41 10,72 29,91 20,20 46,29 78,29 31,0 57,-9 77,-29 19,-19 29,-50 29,-91l0 -444 84 0 0 444z"/>
  </g>
  <g data-code="KeyI">
   <circle class="fil0 str0" cx="12225" cy="2115" r="694"/>
   <circle class="fil14" cx="12227" cy="2112" r="629"/>
   <polygon class="fil15 ru" points="11917,1831 11997,1831 11997,2312 12196,2312 12196,1831 12273,1831 12273,2312 12460,2312 12460,1831 12537,1831 12537,2393 11917,2393 "/>
   <polygon id="1" class="fil6 str2 ru" points="11917,1831 11997,1831 11997,2312 12196,2312 12196,1831 12273,1831 12273,2312 12460,2312 12460,1831 12537,1831 12537,2393 11917,2393 "/>
   <polygon class="fil15 en" points="12256,2424 12172,2424 12172,1796 12256,1796 "/>
   <polygon id="1" class="fil6 str2 en" points="12256,2424 12172,2424 12172,1796 12256,1796 "/>
  </g>
  <g data-code="KeyO">
   <circle class="fil0 str0" cx="13666" cy="2115" r="694"/>
   <circle class="fil14" cx="13668" cy="2112" r="629"/>
   <polygon class="fil15 ru" points="13334,1831 13415,1831 13415,2312 13602,2312 13602,1831 13679,1831 13679,2312 13870,2312 13870,1831 13948,1831 13948,2312 13995,2312 13995,2536 13918,2536 13918,2393 13334,2393 "/>
   <polygon id="1" class="fil6 str2 ru" points="13334,1831 13415,1831 13415,2312 13602,2312 13602,1831 13679,1831 13679,2312 13870,2312 13870,1831 13948,1831 13948,2312 13995,2312 13995,2536 13918,2536 13918,2393 13334,2393 "/>
   <path class="fil15 en" d="M13857 2108c0,115 -18,198 -53,248 -36,50 -85,75 -149,75 -63,0 -113,-25 -150,-75 -37,-50 -55,-133 -55,-248 0,-115 18,-197 55,-246 37,-49 87,-73 150,-73 64,0 113,24 149,73 35,49 53,131 53,246zm-88 0c0,-103 -11,-170 -33,-202 -22,-31 -49,-47 -81,-47 -32,0 -59,16 -82,47 -23,32 -35,99 -35,202 0,103 12,171 35,204 23,33 50,49 82,49 32,0 59,-16 81,-49 22,-33 33,-101 33,-204z"/>
   <path id="1" class="fil6 str2 en" d="M13857 2108c0,115 -18,198 -53,248 -36,50 -85,75 -149,75 -63,0 -113,-25 -150,-75 -37,-50 -55,-133 -55,-248 0,-115 18,-197 55,-246 37,-49 87,-73 150,-73 64,0 113,24 149,73 35,49 53,131 53,246zm-88 0c0,-103 -11,-170 -33,-202 -22,-31 -49,-47 -81,-47 -32,0 -59,16 -82,47 -23,32 -35,99 -35,202 0,103 12,171 35,204 23,33 50,49 82,49 32,0 59,-16 81,-49 22,-33 33,-101 33,-204z"/>
  </g>
  <g data-code="KeyP">
   <circle class="fil0 str0" cx="15107" cy="2115" r="694"/>
   <circle class="fil14" cx="15109" cy="2112" r="629"/>
   <path class="fil15 ru" d="M15094 1821c76,-5 135,22 176,81 13,22 17,49 15,80 -2,50 -32,85 -88,107 68,20 106,57 114,114l0 51c-17,106 -97,154 -239,147 -44,0 -98,-15 -161,-44l-4 -4 26 -66c56,30 122,42 198,37 54,-7 87,-34 99,-81l4 -33c-20,-73 -84,-101 -191,-84l-11 3 0 -80c19,9 58,9 117,0 44,-20 64,-48 59,-85l0 -7c-22,-71 -110,-81 -264,-30l-26 -62c54,-29 112,-44 176,-44z"/>
   <path id="1" class="fil6 str2 ru" d="M15094 1821c76,-5 135,22 176,81 13,22 17,49 15,80 -2,50 -32,85 -88,107 68,20 106,57 114,114l0 51c-17,106 -97,154 -239,147 -44,0 -98,-15 -161,-44l-4 -4 26 -66c56,30 122,42 198,37 54,-7 87,-34 99,-81l4 -33c-20,-73 -84,-101 -191,-84l-11 3 0 -80c19,9 58,9 117,0 44,-20 64,-48 59,-85l0 -7c-22,-71 -110,-81 -264,-30l-26 -62c54,-29 112,-44 176,-44z"/>
   <path class="fil15 en" d="M15285 1987c0,59 -17,105 -51,139 -34,35 -82,52 -143,52l-106 0 0 246 -85 0 0 -628 191 0c61,0 109,17 143,52 34,34 51,81 51,139zm-84 0c0,-46 -11,-78 -33,-95 -22,-17 -55,-26 -99,-26l-84 0 0 242 84 0c44,0 77,-8 99,-26 22,-17 33,-48 33,-95z"/>
   <path id="1" class="fil6 str2 en" d="M15285 1987c0,59 -17,105 -51,139 -34,35 -82,52 -143,52l-106 0 0 246 -85 0 0 -628 191 0c61,0 109,17 143,52 34,34 51,81 51,139zm-84 0c0,-46 -11,-78 -33,-95 -22,-17 -55,-26 -99,-26l-84 0 0 242 84 0c44,0 77,-8 99,-26 22,-17 33,-48 33,-95z"/>
  </g>
  <g data-code="BracketLeftSquare">
   <circle class="fil0 str0" cx="16569" cy="2115" r="694"/>
   <circle class="fil14" cx="16550" cy="2112" r="629"/>
   <polygon class="fil15 ru" points="16315,1831 16407,1831 16550,2030 16693,1831 16788,1831 16597,2099 16807,2393 16711,2393 16550,2166 16388,2393 16293,2393 16502,2096 "/>
   <polygon id="1" class="fil6 str2 ru" points="16315,1831 16407,1831 16550,2030 16693,1831 16788,1831 16597,2099 16807,2393 16711,2393 16550,2166 16388,2393 16293,2393 16502,2096 "/>
   <polygon class="fil15 en" points="16648,2519 16417,2519 16417,1701 16648,1701 16648,1760 16479,1760 16479,2460 16648,2460 "/>
   <polygon id="1" class="fil6 str2 en" points="16648,2519 16417,2519 16417,1701 16648,1701 16648,1760 16479,1760 16479,2460 16648,2460 "/>
  </g>
  <g data-code="BracketRightSquare">  
   <circle class="fil0 str0" cx="18010" cy="2115" r="694"/>
   <circle class="fil14" cx="17991" cy="2112" r="629"/>
   <path class="fil15 ru" d="M17734 1826l209 0 0 221 158 0c90,12 139,67 147,165l0 33c-15,105 -94,153 -239,143l-147 0 0 -495 -128 0 0 -67zm209 291l0 201 147 0c56,-12 81,-52 73,-121 3,-61 -67,-88 -209,-80l-11 0z"/>
   <path id="1" class="fil6 str2 ru" d="M17734 1826l209 0 0 221 158 0c90,12 139,67 147,165l0 33c-15,105 -94,153 -239,143l-147 0 0 -495 -128 0 0 -67zm209 291l0 201 147 0c56,-12 81,-52 73,-121 3,-61 -67,-88 -209,-80l-11 0z"/>
   <polygon class="fil15 en" points="18087,2519 17856,2519 17856,2460 18025,2460 18025,1760 17856,1760 17856,1701 18087,1701 "/>
   <polygon id="1" class="fil6 str2 en" points="18087,2519 17856,2519 17856,2460 18025,2460 18025,1760 17856,1760 17856,1701 18087,1701 "/>
  </g>
  <g data-code="QuestionMark">
   <circle class="fil0 str0" cx="19440" cy="2115" r="694"/>
   <circle class="fil14" cx="19432" cy="2112" r="629"/>
   <path class="fil15" d="M19608 1953c0,31 -7,61 -22,88 -15,27 -34,50 -59,69 -24,20 -42,40 -51,59 -10,20 -15,33 -15,41l0 25 -66 0 0 -37c0,-21 5,-43 16,-64 11,-21 30,-43 57,-68 20,-17 33,-34 41,-53 7,-18 11,-36 11,-53 0,-32 -8,-56 -22,-72 -15,-16 -36,-24 -63,-24 -27,0 -49,11 -68,32 -18,20 -27,54 -27,101l-85 0c3,-69 21,-120 55,-153 35,-33 76,-49 125,-49 54,0 96,14 127,44 31,29 46,67 46,114zm-140 477l-80 0 0 -88 80 0 0 88z"/>
   <path id="1" class="fil6 str2" d="M19608 1953c0,31 -7,61 -22,88 -15,27 -34,50 -59,69 -24,20 -42,40 -51,59 -10,20 -15,33 -15,41l0 25 -66 0 0 -37c0,-21 5,-43 16,-64 11,-21 30,-43 57,-68 20,-17 33,-34 41,-53 7,-18 11,-36 11,-53 0,-32 -8,-56 -22,-72 -15,-16 -36,-24 -63,-24 -27,0 -49,11 -68,32 -18,20 -27,54 -27,101l-85 0c3,-69 21,-120 55,-153 35,-33 76,-49 125,-49 54,0 96,14 127,44 31,29 46,67 46,114zm-140 477l-80 0 0 -88 80 0 0 88z"/>
  </g>
  <g data-code="CapsLock">
   <path class="fil0 str0" d="M397 2916l1282 0c199,0 362,160 362,356l0 543c0,195 -163,355 -362,355l-1282 0c-199,0 -362,-160 -362,-355l0 -543c0,-196 163,-356 362,-356z"/>
   <path class="fil1" d="M401 2971l1277 0c168,0 305,135 305,300l0 538c0,165 -137,300 -305,300l-1277 0c-168,0 -306,-135 -306,-300l0 -538c0,-165 138,-300 306,-300z"/>
   <g>
   <path class="fil3" d="M614 3347l55 17c-8,31 -22,55 -42,70 -20,15 -45,23 -76,23 -38,0 -69,-13 -93,-39 -24,-26 -37,-61 -37,-106 0,-47 13,-84 37,-111 25,-26 57,-39 97,-39 35,0 63,10 85,31 13,12 22,30 29,53l-57 13c-4,-15 -11,-26 -21,-35 -11,-8 -24,-13 -39,-13 -21,0 -39,8 -52,23 -13,15 -19,40 -19,74 0,36 6,61 19,77 13,15 30,22 51,22 15,0 28,-4 39,-14 11,-10 19,-25 24,-46z"/>
   <path id="1" class="fil3" d="M975 3452l-62 0 -24 -65 -115 0 -23 65 -61 0 110 -285 61 0 114 285zm-105 -113l-40 -105 -38 105 78 0z"/>
   <path id="2" class="fil3" d="M1006 3452l0 -285 92 0c35,0 58,2 68,5 17,4 30,13 41,27 11,15 17,33 17,56 0,17 -3,32 -10,44 -6,12 -14,21 -24,28 -9,7 -19,11 -29,14 -14,2 -34,4 -60,4l-37 0 0 107 -58 0zm58 -237l0 81 31 0c23,0 38,-1 45,-4 8,-3 14,-8 18,-14 4,-6 7,-14 7,-22 0,-11 -3,-19 -9,-26 -6,-7 -14,-11 -23,-13 -7,-1 -21,-2 -42,-2l-27 0z"/>
   <path id="3" class="fil3" d="M1256 3360l56 -6c4,19 10,33 21,41 10,9 24,14 41,14 19,0 33,-4 42,-12 9,-8 14,-17 14,-28 0,-6 -2,-12 -6,-17 -4,-4 -11,-9 -21,-12 -6,-2 -22,-7 -45,-12 -31,-8 -53,-18 -65,-29 -17,-15 -26,-35 -26,-57 0,-15 4,-28 12,-41 8,-13 20,-22 36,-29 15,-7 34,-10 55,-10 36,0 63,8 81,24 18,16 27,37 28,63l-57 2c-3,-15 -8,-25 -16,-32 -8,-6 -20,-9 -36,-9 -17,0 -30,3 -39,10 -6,5 -9,10 -9,18 0,7 3,12 8,17 8,6 25,13 53,19 28,7 48,14 62,21 13,7 24,17 31,29 8,12 12,27 12,45 0,16 -5,32 -14,46 -9,14 -22,25 -38,32 -17,7 -38,10 -62,10 -36,0 -64,-8 -83,-25 -20,-16 -31,-41 -35,-72z"/>
   <polygon class="fil4" points="421,3862 421,3580 479,3580 479,3814 622,3814 622,3862 "/>
   <path id="1" class="fil4" d="M651 3721c0,-29 4,-53 13,-73 6,-14 15,-27 26,-39 11,-11 24,-20 37,-26 18,-7 38,-11 62,-11 42,0 75,13 100,39 25,26 38,63 38,109 0,46 -12,82 -37,108 -25,26 -59,39 -101,39 -42,0 -76,-13 -101,-39 -25,-26 -37,-61 -37,-107zm59 -2c0,33 7,57 22,74 15,16 34,25 57,25 23,0 42,-8 57,-25 14,-17 22,-41 22,-74 0,-33 -7,-57 -22,-73 -14,-17 -33,-25 -57,-25 -24,0 -43,9 -57,25 -15,16 -22,41 -22,73z"/>
   <path id="2" class="fil4" d="M1154 3757l56 17c-9,31 -23,55 -43,70 -20,15 -45,23 -76,23 -37,0 -68,-13 -93,-39 -24,-26 -36,-61 -36,-106 0,-47 12,-84 36,-111 25,-26 57,-39 97,-39 35,0 63,10 85,31 13,12 22,30 29,53l-57 13c-3,-15 -10,-26 -21,-35 -11,-8 -24,-13 -39,-13 -21,0 -38,8 -51,23 -14,15 -20,40 -20,74 0,36 6,61 19,76 13,16 30,23 51,23 15,0 28,-4 39,-14 11,-10 19,-25 24,-46z"/>
   <polygon id="3" class="fil4" points="1260,3862 1260,3577 1318,3577 1318,3703 1434,3577 1511,3577 1404,3688 1517,3862 1442,3862 1364,3728 1318,3776 1318,3862 "/>
   </g>
   <circle id="caps-pipka" class="fil2" cx="1695" cy="3211" r="150"/>
  </g>
  <g data-code="KeyA">
   <circle class="fil0 str0" cx="2853" cy="3515" r="694"/>
  <circle class="fil14" cx="2855" cy="3512" r="629"/>
  <path class="fil15 ru" d="M2817 3231l77 0 0 66c98,0 170,34 217,103 22,42 30,88 25,139 -12,108 -88,169 -227,184l-15 0 0 70 -77 0 0 -70c-66,0 -127,-20 -184,-59 -44,-37 -65,-92 -62,-165 7,-95 49,-157 125,-184 19,-9 60,-17 121,-22l0 -62zm-7 128c-76,3 -126,33 -151,92 -10,22 -13,44 -11,66 -5,69 40,115 136,140l33 4 0 -302 -7 0zm84 0l0 302c83,-5 137,-36 162,-92 7,-17 9,-42 7,-74 -5,-58 -45,-101 -121,-128l-48 -8z"/>
  <path id="1" class="fil6 str2 ru" d="M2817 3231l77 0 0 66c98,0 170,34 217,103 22,42 30,88 25,139 -12,108 -88,169 -227,184l-15 0 0 70 -77 0 0 -70c-66,0 -127,-20 -184,-59 -44,-37 -65,-92 -62,-165 7,-95 49,-157 125,-184 19,-9 60,-17 121,-22l0 -62zm-7 128c-76,3 -126,33 -151,92 -10,22 -13,44 -11,66 -5,69 40,115 136,140l33 4 0 -302 -7 0zm84 0l0 302c83,-5 137,-36 162,-92 7,-17 9,-42 7,-74 -5,-58 -45,-101 -121,-128l-48 -8z"/>
  <path class="fil15 en" d="M3072 3825l-88 0 -51 -194 -162 0 -51 194 -88 0 183 -634 74 0 183 634zm-158 -264l-58 -223 -8 0 -58 223 124 0z"/>
  <path id="1" class="fil6 str2 en" d="M3072 3825l-88 0 -51 -194 -162 0 -51 194 -88 0 183 -634 74 0 183 634zm-158 -264l-58 -223 -8 0 -58 223 124 0z"/>
  </g>
  <g data-code="KeyS">
   <circle class="fil0 str0" cx="4300" cy="3515" r="694"/>
   <circle class="fil14" cx="4301" cy="3512" r="629"/>
   <path class="fil15 ru" d="M4018 3227l81 0 0 221 147 0c93,7 144,61 154,161l0 37c-7,103 -81,150 -220,143l-162 0 0 -562zm81 290l0 202 147 0c51,-10 77,-38 77,-84l0 -37c-5,-59 -41,-86 -110,-81l-114 0zm404 -290l81 0 0 562 -81 0 0 -562z"/>
   <path id="1" class="fil6 str2 ru" d="M4018 3227l81 0 0 221 147 0c93,7 144,61 154,161l0 37c-7,103 -81,150 -220,143l-162 0 0 -562zm81 290l0 202 147 0c51,-10 77,-38 77,-84l0 -37c-5,-59 -41,-86 -110,-81l-114 0zm404 -290l81 0 0 562 -81 0 0 -562z"/>
   <path class="fil15 en" d="M4493 3646c0,56 -18,100 -53,133 -36,33 -84,50 -145,50 -61,0 -109,-17 -143,-51 -35,-35 -52,-77 -52,-129l0 -25 85 0 0 22c0,36 11,64 33,84 22,20 47,29 77,29 39,0 68,-10 86,-31 18,-21 27,-46 27,-75 0,-25 -11,-47 -33,-68 -22,-21 -53,-40 -95,-57 -59,-22 -101,-46 -126,-73 -26,-27 -39,-59 -39,-95 0,-52 18,-93 53,-125 36,-32 78,-48 127,-48 63,0 109,19 137,57 28,38 42,79 42,123l-84 0c2,-27 -5,-51 -22,-73 -17,-22 -42,-33 -73,-33 -30,0 -53,8 -70,23 -17,16 -26,38 -26,65 0,22 7,41 21,56 13,16 48,35 104,57 54,22 95,49 125,79 29,31 44,66 44,105z"/>
   <path id="1" class="fil6 str2 en" d="M4493 3646c0,56 -18,100 -53,133 -36,33 -84,50 -145,50 -61,0 -109,-17 -143,-51 -35,-35 -52,-77 -52,-129l0 -25 85 0 0 22c0,36 11,64 33,84 22,20 47,29 77,29 39,0 68,-10 86,-31 18,-21 27,-46 27,-75 0,-25 -11,-47 -33,-68 -22,-21 -53,-40 -95,-57 -59,-22 -101,-46 -126,-73 -26,-27 -39,-59 -39,-95 0,-52 18,-93 53,-125 36,-32 78,-48 127,-48 63,0 109,19 137,57 28,38 42,79 42,123l-84 0c2,-27 -5,-51 -22,-73 -17,-22 -42,-33 -73,-33 -30,0 -53,8 -70,23 -17,16 -26,38 -26,65 0,22 7,41 21,56 13,16 48,35 104,57 54,22 95,49 125,79 29,31 44,66 44,105z"/>
  </g>
  <g data-code="KeyD">
   <circle class="fil0 str0" cx="5746" cy="3515" r="694"/>
   <circle class="fil14" cx="5747" cy="3512" r="629"/>
   <path class="fil15 ru" d="M5536 3222l246 0c81,10 127,49 138,118 11,69 -11,120 -64,154 56,12 89,43 99,92l3 51 0 8c-17,110 -100,156 -249,139l-173 0 0 -562zm77 78l0 157 166 -3c34,-5 56,-27 66,-66l0 -30c2,-49 -71,-68 -221,-58l-11 0zm0 234l0 169 187 0c35,-2 59,-24 74,-66l0 -33c0,-56 -71,-79 -213,-70l-48 0z"/>
   <path id="1" class="fil6 str2 ru" d="M5536 3222l246 0c81,10 127,49 138,118 11,69 -11,120 -64,154 56,12 89,43 99,92l3 51 0 8c-17,110 -100,156 -249,139l-173 0 0 -562zm77 78l0 157 166 -3c34,-5 56,-27 66,-66l0 -30c2,-49 -71,-68 -221,-58l-11 0zm0 234l0 169 187 0c35,-2 59,-24 74,-66l0 -33c0,-56 -71,-79 -213,-70l-48 0z"/>
   <path class="fil15 en" d="M5936 3510c0,112 -24,192 -72,240 -48,48 -112,72 -192,72l-125 0 0 -627 125 0c90,0 157,24 199,73 43,49 65,130 65,242zm-88 0c0,-91 -15,-154 -44,-191 -30,-36 -74,-55 -132,-55l-41 0 0 488 41 0c58,0 102,-18 132,-53 29,-36 44,-99 44,-189z"/>
   <path id="1" class="fil6 str2 en" d="M5936 3510c0,112 -24,192 -72,240 -48,48 -112,72 -192,72l-125 0 0 -627 125 0c90,0 157,24 199,73 43,49 65,130 65,242zm-88 0c0,-91 -15,-154 -44,-191 -30,-36 -74,-55 -132,-55l-41 0 0 488 41 0c58,0 102,-18 132,-53 29,-36 44,-99 44,-189z"/>
  </g>
  <g data-code="KeyF">
   <circle class="fil0 str0" cx="7192" cy="3515" r="694"/>
   <circle class="fil14" cx="7193" cy="3512" r="629"/>
   <path class="fil15 ru" d="M7153 3231l88 0 220 562 -91 0 -44 -118 -265 0 -44 118 -92 0 228 -562zm40 84l-102 279 209 0 -107 -279z"/>
   <path id="1" class="fil6 str2 ru" d="M7153 3231l88 0 220 562 -91 0 -44 -118 -265 0 -44 118 -92 0 228 -562zm40 84l-102 279 209 0 -107 -279z"/>
   <polygon class="fil15 en" points="7378,3264 7078,3264 7078,3470 7305,3470 7305,3539 7078,3539 7078,3822 6993,3822 6993,3195 7378,3195 "/>
   <polygon id="1" class="fil6 str2 en" points="7378,3264 7078,3264 7078,3470 7305,3470 7305,3539 7078,3539 7078,3822 6993,3822 6993,3195 7378,3195 "/>
  </g>
  <g data-code="KeyG">
   <circle class="fil0 str0" cx="8638" cy="3515" r="694"/>
   <circle class="fil14" cx="8640" cy="3512" r="629"/>
   <polygon class="fil15 ru" points="8412,3231 8867,3231 8867,3793 8787,3793 8787,3308 8489,3308 8489,3793 8412,3793 "/>
   <polygon id="1" class="fil6 str2 ru" points="8412,3231 8867,3231 8867,3793 8787,3793 8787,3308 8489,3308 8489,3793 8412,3793 "/>
   <path class="fil15 en" d="M8823 3829l-62 0 -11 -51c-10,14 -25,27 -46,36 -21,10 -43,15 -68,15 -51,0 -97,-24 -137,-71 -41,-48 -61,-125 -61,-230 0,-115 18,-200 55,-256 37,-57 87,-85 150,-85 57,0 101,21 132,63 32,41 48,95 48,161l-81 0c0,-51 -8,-90 -25,-116 -17,-25 -42,-38 -74,-38 -39,0 -68,20 -88,60 -19,41 -29,109 -29,204 0,90 12,153 37,187 24,34 52,51 84,51 32,0 57,-11 75,-34 19,-24 28,-60 28,-109l0 -40 -114 0 0 -70 187 0 0 323z"/>
   <path id="1" class="fil6 str2 en" d="M8823 3829l-62 0 -11 -51c-10,14 -25,27 -46,36 -21,10 -43,15 -68,15 -51,0 -97,-24 -137,-71 -41,-48 -61,-125 -61,-230 0,-115 18,-200 55,-256 37,-57 87,-85 150,-85 57,0 101,21 132,63 32,41 48,95 48,161l-81 0c0,-51 -8,-90 -25,-116 -17,-25 -42,-38 -74,-38 -39,0 -68,20 -88,60 -19,41 -29,109 -29,204 0,90 12,153 37,187 24,34 52,51 84,51 32,0 57,-11 75,-34 19,-24 28,-60 28,-109l0 -40 -114 0 0 -70 187 0 0 323z"/>
  </g>
  <g data-code="KeyH">
   <circle class="fil0 str0" cx="10084" cy="3515" r="694"/>
   <circle class="fil14" cx="10086" cy="3512" r="629"/>
   <path class="fil15 ru" d="M9899 3231l217 0c81,10 130,44 147,103 7,10 10,38 7,84 -15,98 -94,141 -239,129l-55 0 0 246 -77 0 0 -562zm77 77l0 162 147 0c37,0 60,-21 70,-63l0 -33c-3,-56 -75,-78 -217,-66z"/>
   <path id="1" class="fil6 str2 ru" d="M9899 3231l217 0c81,10 130,44 147,103 7,10 10,38 7,84 -15,98 -94,141 -239,129l-55 0 0 246 -77 0 0 -562zm77 77l0 162 147 0c37,0 60,-21 70,-63l0 -33c-3,-56 -75,-78 -217,-66z"/>
   <polygon class="fil15 en" points="10264,3822 10180,3822 10180,3528 9971,3528 9971,3822 9886,3822 9886,3195 9971,3195 9971,3459 10180,3459 10180,3195 10264,3195 "/>
   <polygon id="1" class="fil6 str2 en" points="10264,3822 10180,3822 10180,3528 9971,3528 9971,3822 9886,3822 9886,3195 9971,3195 9971,3459 10180,3459 10180,3195 10264,3195 "/>
  </g>
  <g data-code="KeyJ">
   <circle class="fil0 str0" cx="11531" cy="3515" r="694"/>
   <circle class="fil14" cx="11532" cy="3512" r="629"/>
   <path class="fil15 ru" d="M11531 3224c122,4 207,55 253,150 22,39 32,96 29,169 -14,113 -68,190 -161,231 -34,20 -84,29 -151,26 -129,-22 -209,-86 -238,-191 -10,-22 -15,-59 -15,-110 5,-113 52,-192 140,-239 44,-27 91,-39 143,-36zm-7 62c-96,0 -160,58 -191,173 -17,110 12,192 88,246 36,24 84,34 143,29 81,-10 136,-64 165,-162 5,-9 6,-41 4,-95 -3,-83 -50,-144 -143,-184l-66 -7z"/>
   <path id="1" class="fil6 str2 ru" d="M11531 3224c122,4 207,55 253,150 22,39 32,96 29,169 -14,113 -68,190 -161,231 -34,20 -84,29 -151,26 -129,-22 -209,-86 -238,-191 -10,-22 -15,-59 -15,-110 5,-113 52,-192 140,-239 44,-27 91,-39 143,-36zm-7 62c-96,0 -160,58 -191,173 -17,110 12,192 88,246 36,24 84,34 143,29 81,-10 136,-64 165,-162 5,-9 6,-41 4,-95 -3,-83 -50,-144 -143,-184l-66 -7z"/>
   <path class="fil15 en" d="M11701 3609c0,76 -16,131 -49,165 -33,34 -78,51 -134,51 -51,0 -94,-16 -128,-49 -35,-33 -52,-86 -52,-160l0 -40 85 0 0 51c0,44 9,76 27,94 19,18 40,27 64,27 35,0 60,-9 77,-29 17,-20 26,-55 26,-106l0 -422 84 0 0 418z"/>
   <path id="1" class="fil6 str2 en" d="M11701 3609c0,76 -16,131 -49,165 -33,34 -78,51 -134,51 -51,0 -94,-16 -128,-49 -35,-33 -52,-86 -52,-160l0 -40 85 0 0 51c0,44 9,76 27,94 19,18 40,27 64,27 35,0 60,-9 77,-29 17,-20 26,-55 26,-106l0 -422 84 0 0 418z"/>
  </g>
  <g data-code="KeyK">
   <circle class="fil0 str0" cx="12977" cy="3515" r="694"/>
   <circle class="fil14" cx="12978" cy="3512" r="629"/>
   <path class="fil15 ru" d="M12813 3230l408 0 0 561 -81 0 0 -484 -250 0 0 382c0,71 -46,105 -139,102l-15 0 4 -84c53,5 78,-27 73,-95l0 -382z"/>
   <path id="1" class="fil6 str2 ru" d="M12813 3230l408 0 0 561 -81 0 0 -484 -250 0 0 382c0,71 -46,105 -139,102l-15 0 4 -84c53,5 78,-27 73,-95l0 -382z"/>
   <polygon class="fil15 en" points="13168,3822 13073,3822 12904,3510 12845,3587 12845,3822 12761,3822 12761,3195 12845,3195 12845,3466 13054,3195 13154,3195 12959,3440 "/>
   <polygon id="1" class="fil6 str2 en" points="13168,3822 13073,3822 12904,3510 12845,3587 12845,3822 12761,3822 12761,3195 12845,3195 12845,3466 13054,3195 13154,3195 12959,3440 "/>
  </g>
  <g data-code="KeyL">
   <circle class="fil0 str0" cx="14423" cy="3515" r="694"/>
   <circle class="fil14" cx="14424" cy="3512" r="629"/>
   <path class="fil15 ru" d="M14345 3230l301 0 0 484 66 0 0 188 -81 0 0 -111 -404 0 0 111 -81 0 0 -188 63 0c76,-127 121,-288 136,-484zm70 73c-18,142 -57,278 -118,408l0 3 268 0 0 -411 -150 0z"/>
   <path id="1" class="fil6 str2 ru" d="M14345 3230l301 0 0 484 66 0 0 188 -81 0 0 -111 -404 0 0 111 -81 0 0 -188 63 0c76,-127 121,-288 136,-484zm70 73c-18,142 -57,278 -118,408l0 3 268 0 0 -411 -150 0z"/>
   <polygon class="fil15 en" points="14600,3822 14219,3822 14219,3195 14303,3195 14303,3752 14600,3752 "/>
   <polygon id="1" class="fil6 str2 en" points="14600,3822 14219,3822 14219,3195 14303,3195 14303,3752 14600,3752 "/>
  </g>
  <g data-code="BracketLeft">
   <circle class="fil0 str0" cx="15869" cy="3515" r="694"/>
   <circle class="fil14" cx="15871" cy="3512" r="629"/>
   <path class="fil15 ru" d="M15610 3229c46,-7 77,39 92,140 5,22 14,44 29,66 15,24 49,38 103,40l0 -235 77 0 0 235 7 0c66,3 110,-45 133,-143 7,-39 18,-66 33,-81 12,-17 54,-24 124,-22l0 74 -62 0c-15,0 -32,39 -51,117 -17,42 -44,70 -81,85 59,4 110,67 154,187l51 110 -84 0 -73 -176c-22,-54 -73,-81 -151,-81l0 257 -77 0 0 -257 -11 0c-88,-3 -148,51 -180,161l-33 96 -88 0 110 -235c10,-25 42,-45 96,-62 -47,-3 -81,-60 -103,-173 -5,-27 -34,-37 -88,-29l0 -74 73 0z"/>
   <path id="1" class="fil6 str2 ru" d="M15610 3229c46,-7 77,39 92,140 5,22 14,44 29,66 15,24 49,38 103,40l0 -235 77 0 0 235 7 0c66,3 110,-45 133,-143 7,-39 18,-66 33,-81 12,-17 54,-24 124,-22l0 74 -62 0c-15,0 -32,39 -51,117 -17,42 -44,70 -81,85 59,4 110,67 154,187l51 110 -84 0 -73 -176c-22,-54 -73,-81 -151,-81l0 257 -77 0 0 -257 -11 0c-88,-3 -148,51 -180,161l-33 96 -88 0 110 -235c10,-25 42,-45 96,-62 -47,-3 -81,-60 -103,-173 -5,-27 -34,-37 -88,-29l0 -74 73 0z"/>
   <path class="fil15 en" d="M15951 3917l-59 0c-29,0 -51,-8 -66,-24 -14,-16 -22,-41 -22,-75l0 -235c0,-14 -3,-26 -11,-34 -7,-9 -19,-13 -36,-13l0 -52c17,0 29,-3 36,-11 8,-7 11,-19 11,-36l0 -239c0,-32 8,-56 22,-73 15,-17 37,-26 66,-26l59 0 0 44 -29 0c-15,0 -26,4 -33,11 -8,8 -11,19 -11,33l0 224c0,24 -3,45 -7,62 -5,17 -14,30 -26,37 12,10 21,23 26,39 4,15 7,36 7,60l0 220c0,15 3,26 11,33 7,7 18,11 33,11l29 0 0 44z"/>
   <path id="1" class="fil6 str2 en" d="M15951 3917l-59 0c-29,0 -51,-8 -66,-24 -14,-16 -22,-41 -22,-75l0 -235c0,-14 -3,-26 -11,-34 -7,-9 -19,-13 -36,-13l0 -52c17,0 29,-3 36,-11 8,-7 11,-19 11,-36l0 -239c0,-32 8,-56 22,-73 15,-17 37,-26 66,-26l59 0 0 44 -29 0c-15,0 -26,4 -33,11 -8,8 -11,19 -11,33l0 224c0,24 -3,45 -7,62 -5,17 -14,30 -26,37 12,10 21,23 26,39 4,15 7,36 7,60l0 220c0,15 3,26 11,33 7,7 18,11 33,11l29 0 0 44z"/>
  </g>
  <g data-code="BracketRight">
   <circle class="fil0 str0" cx="17315" cy="3515" r="694"/>
   <circle class="fil14" cx="17317" cy="3512" r="629"/>
   <path class="fil15 ru" d="M17281 3218c103,-8 183,45 239,157 20,52 27,109 22,173 -7,105 -52,177 -136,217 -115,48 -221,42 -319,-19l33 -62c32,32 92,46 180,44 93,-15 147,-65 161,-151l0 -33 -213 0 0 -73 213 0 0 -11c-12,-91 -55,-144 -128,-162 -59,-19 -126,-12 -202,22l-26 -55c27,-14 67,-29 121,-44l55 -3z"/>
   <path id="1" class="fil6 str2 ru" d="M17281 3218c103,-8 183,45 239,157 20,52 27,109 22,173 -7,105 -52,177 -136,217 -115,48 -221,42 -319,-19l33 -62c32,32 92,46 180,44 93,-15 147,-65 161,-151l0 -33 -213 0 0 -73 213 0 0 -11c-12,-91 -55,-144 -128,-162 -59,-19 -126,-12 -202,22l-26 -55c27,-14 67,-29 121,-44l55 -3z"/>
   <path class="fil15 en" d="M17396 3536c-15,0 -27,4 -35,13 -9,8 -13,20 -13,34l0 235c0,34 -7,59 -22,75 -15,16 -37,24 -66,24l-59 0 0 -44 30 0c14,0 25,-4 33,-11 7,-7 11,-18 11,-33l0 -220c0,-24 3,-45 9,-60 6,-16 14,-29 24,-39 -10,-7 -18,-20 -24,-37 -6,-17 -9,-38 -9,-62l0 -224c0,-14 -4,-25 -11,-33 -8,-7 -19,-11 -33,-11l-30 0 0 -44 59 0c29,0 51,9 66,26 15,17 22,41 22,73l0 239c0,17 4,29 13,36 8,8 20,11 35,11l0 52z"/>
   <path id="1" class="fil6 str2 en" d="M17396 3536c-15,0 -27,4 -35,13 -9,8 -13,20 -13,34l0 235c0,34 -7,59 -22,75 -15,16 -37,24 -66,24l-59 0 0 -44 30 0c14,0 25,-4 33,-11 7,-7 11,-18 11,-33l0 -220c0,-24 3,-45 9,-60 6,-16 14,-29 24,-39 -10,-7 -18,-20 -24,-37 -6,-17 -9,-38 -9,-62l0 -224c0,-14 -4,-25 -11,-33 -8,-7 -19,-11 -33,-11l-30 0 0 -44 59 0c29,0 51,9 66,26 15,17 22,41 22,73l0 239c0,17 4,29 13,36 8,8 20,11 35,11l0 52z"/>
  </g>
  <g data-code="Enter">
   <path class="fil0 str0" d="M18452 2886l1260 0c195,0 355,160 355,355l0 543c0,196 -160,356 -355,356l-1260 0c-195,0 -355,-160 -355,-356l0 -543c0,-195 160,-355 355,-355z"/>
   <path class="fil1" d="M18457 2940l1254 0c165,0 300,136 300,301l0 537c0,165 -135,301 -300,301l-1254 0c-166,0 -301,-136 -301,-301l0 -537c0,-165 135,-301 301,-301z"/>
   <path class="fil5" d="M18527 3339l114 0c23,0 39,1 50,2 12,2 21,6 30,12 9,6 16,14 22,24 6,10 9,21 9,33 0,13 -4,26 -11,37 -7,11 -17,19 -29,25 17,5 30,13 40,26 9,12 14,26 14,43 0,13 -3,25 -9,38 -6,12 -15,22 -25,29 -10,7 -23,12 -39,13 -9,1 -32,2 -69,2l-97 0 0 -284zm58 47l0 66 37 0c23,0 37,-1 42,-1 10,-1 18,-5 23,-10 6,-6 9,-13 9,-23 0,-8 -3,-16 -8,-21 -4,-6 -12,-9 -21,-10 -6,-1 -22,-1 -49,-1l-33 0zm0 113l0 76 53 0c21,0 34,0 40,-1 8,-2 15,-6 20,-12 6,-6 8,-14 8,-24 0,-9 -2,-16 -6,-22 -4,-6 -10,-10 -18,-13 -8,-3 -25,-4 -51,-4l-46 0z"/>
   <path id="1" class="fil5" d="M18814 3339l114 0c23,0 40,1 51,2 11,2 21,6 29,12 9,6 16,14 22,24 6,10 9,21 9,33 0,13 -4,26 -11,37 -7,11 -17,19 -29,25 17,5 31,13 40,26 9,12 14,26 14,43 0,13 -3,25 -9,38 -6,12 -14,22 -25,29 -10,7 -23,12 -38,13 -10,1 -33,2 -70,2l-97 0 0 -284zm58 47l0 66 38 0c22,0 36,-1 41,-1 10,-1 18,-5 23,-10 6,-6 9,-13 9,-23 0,-8 -3,-16 -7,-21 -5,-6 -12,-9 -22,-10 -6,-1 -22,-1 -49,-1l-33 0zm0 113l0 76 53 0c21,0 34,0 40,-1 8,-2 15,-6 21,-12 5,-6 8,-14 8,-24 0,-9 -2,-16 -7,-22 -4,-6 -10,-10 -18,-13 -7,-3 -24,-4 -51,-4l-46 0z"/>
   <path id="2" class="fil5" d="M19080 3483c0,-29 4,-54 13,-73 6,-15 15,-28 26,-39 11,-12 24,-21 37,-26 18,-8 38,-11 61,-11 42,0 76,13 101,39 25,26 38,62 38,108 0,47 -13,83 -38,109 -25,26 -58,39 -100,39 -42,0 -76,-13 -101,-39 -25,-26 -37,-62 -37,-107zm59 -2c0,32 7,57 22,73 15,17 34,25 57,25 23,0 42,-8 57,-25 14,-16 22,-41 22,-74 0,-33 -7,-57 -22,-73 -14,-16 -33,-24 -57,-24 -24,0 -43,8 -57,24 -15,17 -22,41 -22,74z"/>
   <path id="3" class="fil5" d="M19419 3339l196 0 0 236 25 0 0 110 -48 0 0 -62 -178 0 0 62 -49 0 0 -110 25 0c11,-24 19,-52 23,-84 4,-32 6,-73 6,-122l0 -30zm55 48c0,86 -8,149 -24,188l107 0 0 -188 -83 0z"/>
   <path id="4" class="fil6 str1" d="M18527 3339l114 0c23,0 39,1 50,2 12,2 21,6 30,12 9,6 16,14 22,24 6,10 9,21 9,33 0,13 -4,26 -11,37 -7,11 -17,19 -29,25 17,5 30,13 40,26 9,12 14,26 14,43 0,13 -3,25 -9,38 -6,12 -15,22 -25,29 -10,7 -23,12 -39,13 -9,1 -32,2 -69,2l-97 0 0 -284zm58 47l0 66 37 0c23,0 37,-1 42,-1 10,-1 18,-5 23,-10 6,-6 9,-13 9,-23 0,-8 -3,-16 -8,-21 -4,-6 -12,-9 -21,-10 -6,-1 -22,-1 -49,-1l-33 0zm0 113l0 76 53 0c21,0 34,0 40,-1 8,-2 15,-6 20,-12 6,-6 8,-14 8,-24 0,-9 -2,-16 -6,-22 -4,-6 -10,-10 -18,-13 -8,-3 -25,-4 -51,-4l-46 0z"/>
   <path id="5" class="fil6 str1" d="M18814 3339l114 0c23,0 40,1 51,2 11,2 21,6 29,12 9,6 16,14 22,24 6,10 9,21 9,33 0,13 -4,26 -11,37 -7,11 -17,19 -29,25 17,5 31,13 40,26 9,12 14,26 14,43 0,13 -3,25 -9,38 -6,12 -14,22 -25,29 -10,7 -23,12 -38,13 -10,1 -33,2 -70,2l-97 0 0 -284zm58 47l0 66 38 0c22,0 36,-1 41,-1 10,-1 18,-5 23,-10 6,-6 9,-13 9,-23 0,-8 -3,-16 -7,-21 -5,-6 -12,-9 -22,-10 -6,-1 -22,-1 -49,-1l-33 0zm0 113l0 76 53 0c21,0 34,0 40,-1 8,-2 15,-6 21,-12 5,-6 8,-14 8,-24 0,-9 -2,-16 -7,-22 -4,-6 -10,-10 -18,-13 -7,-3 -24,-4 -51,-4l-46 0z"/>
   <path id="6" class="fil6 str1" d="M19080 3483c0,-29 4,-54 13,-73 6,-15 15,-28 26,-39 11,-12 24,-21 37,-26 18,-8 38,-11 61,-11 42,0 76,13 101,39 25,26 38,62 38,108 0,47 -13,83 -38,109 -25,26 -58,39 -100,39 -42,0 -76,-13 -101,-39 -25,-26 -37,-62 -37,-107zm59 -2c0,32 7,57 22,73 15,17 34,25 57,25 23,0 42,-8 57,-25 14,-16 22,-41 22,-74 0,-33 -7,-57 -22,-73 -14,-16 -33,-24 -57,-24 -24,0 -43,8 -57,24 -15,17 -22,41 -22,74z"/>
   <path id="7" class="fil6 str1" d="M19419 3339l196 0 0 236 25 0 0 110 -48 0 0 -62 -178 0 0 62 -49 0 0 -110 25 0c11,-24 19,-52 23,-84 4,-32 6,-73 6,-122l0 -30zm55 48c0,86 -8,149 -24,188l107 0 0 -188 -83 0z"/>
  </g>
  <g data-code="ShiftLeft">
   <path class="fil0 str0" d="M396 4303l2007 0c198,0 361,160 361,356l0 543c0,195 -163,355 -361,355l-2007 0c-199,0 -361,-160 -361,-355l0 -543c0,-196 162,-356 361,-356z"/>
   <path class="fil8" d="M400 4358l2001 0c168,0 305,135 305,300l0 538c0,165 -137,300 -305,300l-2001 0c-168,0 -305,-135 -305,-300l0 -538c0,-165 137,-300 305,-300z"/>
   <path class="fil3" d="M837 4977l57 -5c3,19 10,32 20,41 10,9 24,13 42,13 18,0 32,-4 41,-11 10,-8 14,-17 14,-28 0,-7 -2,-12 -6,-17 -4,-5 -10,-9 -20,-12 -7,-3 -22,-7 -46,-13 -31,-8 -52,-17 -65,-28 -17,-16 -26,-35 -26,-58 0,-14 4,-28 12,-40 9,-13 21,-23 36,-29 15,-7 34,-10 56,-10 35,0 62,8 80,23 18,16 28,37 29,64l-58 2c-3,-15 -8,-25 -16,-32 -8,-6 -20,-10 -36,-10 -16,0 -29,4 -39,11 -6,4 -9,10 -9,18 0,6 3,12 9,17 7,6 24,12 52,19 28,7 49,13 62,20 14,8 24,17 32,29 7,13 11,28 11,46 0,16 -5,31 -14,46 -9,14 -22,24 -38,31 -17,7 -37,11 -62,11 -36,0 -64,-9 -83,-25 -19,-17 -31,-41 -35,-73z"/>
   <polygon id="1" class="fil3" points="1118,5070 1118,4785 1175,4785 1175,4897 1288,4897 1288,4785 1345,4785 1345,5070 1288,5070 1288,4945 1175,4945 1175,5070 "/>
   <polygon id="2" class="fil3" points="1403,5070 1403,4785 1461,4785 1461,5070 "/>
   <polygon id="3" class="fil3" points="1515,5070 1515,4785 1711,4785 1711,4833 1573,4833 1573,4901 1692,4901 1692,4949 1573,4949 1573,5070 "/>
   <polygon id="4" class="fil3" points="1822,5070 1822,4833 1738,4833 1738,4785 1964,4785 1964,4833 1880,4833 1880,5070 "/>
  </g>
  <g data-code="KeyZ">
   <circle class="fil0 str0" cx="3559" cy="4930" r="694"/>
   <circle class="fil14" cx="3560" cy="4927" r="629"/>
   <path class="fil15 ru" d="M3590 4646l179 0 0 562 -77 0 0 -224 -128 0 -118 224 -95 0 150 -253c-66,-35 -99,-85 -99,-151 8,-73 41,-121 99,-143 13,-10 42,-15 89,-15zm-23 77c-51,3 -79,24 -84,63 -7,54 10,90 52,110 0,10 40,14 121,11l36 0 0 -184 -125 0z"/>
   <path id="1" class="fil6 str2 ru" d="M3590 4646l179 0 0 562 -77 0 0 -224 -128 0 -118 224 -95 0 150 -253c-66,-35 -99,-85 -99,-151 8,-73 41,-121 99,-143 13,-10 42,-15 89,-15zm-23 77c-51,3 -79,24 -84,63 -7,54 10,90 52,110 0,10 40,14 121,11l36 0 0 -184 -125 0z"/>
   <polygon class="fil15 en" points="3753,5236 3360,5236 3360,5166 3657,4678 3382,4678 3382,4608 3742,4608 3742,4678 3445,5166 3753,5166 "/>
   <polygon id="1" class="fil6 str2 en" points="3753,5236 3360,5236 3360,5166 3657,4678 3382,4678 3382,4608 3742,4608 3742,4678 3445,5166 3753,5166 "/>
  </g>
  <g data-code="KeyX">
   <circle class="fil0 str0" cx="5007" cy="4930" r="694"/>
   <circle class="fil14" cx="5009" cy="4927" r="629"/>
   <path class="fil15 ru" d="M4792 4646l77 0 0 246c12,42 45,62 99,59 61,-5 123,-45 184,-121l0 -184 81 0 0 562 -81 0 0 -294c-66,69 -142,102 -228,100l-7 0c-91,-10 -132,-79 -125,-206l0 -162z"/>
   <path id="1" class="fil6 str2 ru" d="M4792 4646l77 0 0 246c12,42 45,62 99,59 61,-5 123,-45 184,-121l0 -184 81 0 0 562 -81 0 0 -294c-66,69 -142,102 -228,100l-7 0c-91,-10 -132,-79 -125,-206l0 -162z"/>
   <polygon class="fil15 en" points="5216,5236 5128,5236 5003,4979 4879,5236 4791,5236 4963,4905 4809,4608 4897,4608 5003,4836 5110,4608 5198,4608 5044,4905 "/>
   <polygon id="1" class="fil6 str2 en" points="5216,5236 5128,5236 5003,4979 4879,5236 4791,5236 4963,4905 4809,4608 4897,4608 5003,4836 5110,4608 5198,4608 5044,4905 "/>
  </g>
  <g data-code="KeyC">
   <circle class="fil0 str0" cx="6456" cy="4930" r="694"/>
   <circle class="fil14" cx="6457" cy="4927" r="629"/>
   <path class="fil15 ru" d="M6504 4640c52,-2 110,12 176,44l-25 74c-47,-35 -97,-52 -151,-52l-7 0c-98,0 -160,62 -187,184 -13,107 18,185 91,231 96,42 179,36 250,-18l7 -8 30 74c-54,29 -118,45 -191,48l-22 0c-123,-20 -200,-79 -231,-177 -13,-29 -18,-67 -15,-113 7,-142 66,-233 176,-272 25,-10 53,-15 85,-15l14 0z"/>
   <path id="1" class="fil6 str2 ru" d="M6504 4640c52,-2 110,12 176,44l-25 74c-47,-35 -97,-52 -151,-52l-7 0c-98,0 -160,62 -187,184 -13,107 18,185 91,231 96,42 179,36 250,-18l7 -8 30 74c-54,29 -118,45 -191,48l-22 0c-123,-20 -200,-79 -231,-177 -13,-29 -18,-67 -15,-113 7,-142 66,-233 176,-272 25,-10 53,-15 85,-15l14 0z"/>
   <path class="fil15 en" d="M6497 4635c52,-2 110,12 176,44l-25 74c-47,-35 -97,-52 -151,-52l-7 0c-98,0 -160,61 -187,184 -12,107 18,184 92,231 95,41 178,35 249,-19l7 -7 30 73c-54,30 -118,46 -191,48l-22 0c-122,-19 -199,-78 -231,-176 -12,-29 -17,-67 -15,-114 8,-141 66,-232 176,-271 25,-10 53,-15 85,-15l14 0z"/>
   <path id="1" class="fil6 str2 en" d="M6497 4635c52,-2 110,12 176,44l-25 74c-47,-35 -97,-52 -151,-52l-7 0c-98,0 -160,61 -187,184 -12,107 18,184 92,231 95,41 178,35 249,-19l7 -7 30 73c-54,30 -118,46 -191,48l-22 0c-122,-19 -199,-78 -231,-176 -12,-29 -17,-67 -15,-114 8,-141 66,-232 176,-271 25,-10 53,-15 85,-15l14 0z"/>
  </g>
  <g data-code="KeyV">
   <circle class="fil0 str0" cx="7904" cy="4930" r="694"/>
   <circle class="fil14" cx="7906" cy="4927" r="629"/>
   <polygon class="fil15 ru" points="7652,4646 7770,4646 7906,5098 8041,4646 8159,4646 8159,5208 8078,5208 8078,4782 8060,4837 7953,5208 7869,5208 7733,4779 7733,5208 7652,5208 "/>
   <polygon id="1" class="fil6 str2 ru" points="7652,4646 7770,4646 7906,5098 8041,4646 8159,4646 8159,5208 8078,5208 8078,4782 8060,4837 7953,5208 7869,5208 7733,4779 7733,5208 7652,5208 "/>
   <polygon class="fil15 en" points="8117,4605 7934,5239 7861,5239 7677,4605 7765,4605 7894,5085 7901,5085 8029,4605 "/>
   <polygon id="1" class="fil6 str2 en" points="8117,4605 7934,5239 7861,5239 7677,4605 7765,4605 7894,5085 7901,5085 8029,4605 "/>
  </g>
  <g data-code="KeyB">
   <circle class="fil0 str0" cx="9352" cy="4930" r="694"/>
   <circle class="fil14" cx="9354" cy="4927" r="629"/>
   <polygon class="fil15 ru" points="9132,4646 9209,4646 9209,5087 9495,4646 9576,4646 9576,5208 9495,5208 9495,4768 9213,5208 9132,5208 "/>
   <polygon id="1" class="fil6 str2 ru" points="9132,4646 9209,4646 9209,5087 9495,4646 9576,4646 9576,5208 9495,5208 9495,4768 9213,5208 9132,5208 "/>
   <path class="fil15 en" d="M9540 5048c0,72 -19,120 -58,147 -39,27 -90,41 -151,41l-183 0 0 -628 191 0c61,0 107,16 137,48 31,32 46,70 46,114 0,44 -10,76 -31,97 -21,21 -42,35 -64,42 29,8 55,23 78,46 24,23 35,54 35,93zm-102 -278c0,-32 -10,-55 -28,-70 -18,-15 -41,-22 -68,-22l-110 0 0 194 107 0c26,0 50,-7 69,-23 20,-16 30,-42 30,-79zm14 278c0,-39 -13,-66 -38,-82 -26,-16 -55,-24 -86,-24l-96 0 0 224 85 0c44,0 77,-9 100,-26 24,-17 35,-47 35,-92z"/>
   <path id="1" class="fil6 str2 en" d="M9540 5048c0,72 -19,120 -58,147 -39,27 -90,41 -151,41l-183 0 0 -628 191 0c61,0 107,16 137,48 31,32 46,70 46,114 0,44 -10,76 -31,97 -21,21 -42,35 -64,42 29,8 55,23 78,46 24,23 35,54 35,93zm-102 -278c0,-32 -10,-55 -28,-70 -18,-15 -41,-22 -68,-22l-110 0 0 194 107 0c26,0 50,-7 69,-23 20,-16 30,-42 30,-79zm14 278c0,-39 -13,-66 -38,-82 -26,-16 -55,-24 -86,-24l-96 0 0 224 85 0c44,0 77,-9 100,-26 24,-17 35,-47 35,-92z"/>
  </g>
  <g data-code="KeyN">
   <circle class="fil0 str0" cx="10801" cy="4930" r="694"/>
   <circle class="fil14" cx="10802" cy="4927" r="629"/>
   <polygon class="fil15 ru" points="10571,4646 11034,4646 11034,4723 10843,4723 10843,5208 10766,5208 10766,4723 10571,4723 "/>
   <polygon id="1" class="fil6 str2 ru" points="10571,4646 11034,4646 11034,4723 10843,4723 10843,5208 10766,5208 10766,4723 10571,4723 "/>
   <polygon class="fil15 en" points="10982,5236 10890,5236 10688,4781 10685,4781 10685,5236 10600,5236 10600,4608 10692,4608 10894,5063 10897,5063 10897,4608 10982,4608 "/>
   <polygon id="1" class="fil6 str2 en" points="10982,5236 10890,5236 10688,4781 10685,4781 10685,5236 10600,5236 10600,4608 10692,4608 10894,5063 10897,5063 10897,4608 10982,4608 "/>
  </g>
  <g data-code="KeyM">
   <circle class="fil0 str0" cx="12249" cy="4930" r="694"/>
   <circle class="fil14" cx="12251" cy="4927" r="629"/>
   <path class="fil15 ru" d="M12060 4643l77 0 0 220 158 0c98,12 147,66 147,162l0 36c-10,103 -74,151 -191,143l-191 0 0 -561zm77 290l0 202 154 0c52,-10 75,-48 70,-114 -2,-64 -42,-93 -117,-88l-107 0z"/>
   <path id="1" class="fil6 str2 ru" d="M12060 4643l77 0 0 220 158 0c98,12 147,66 147,162l0 36c-10,103 -74,151 -191,143l-191 0 0 -561zm77 290l0 202 154 0c52,-10 75,-48 70,-114 -2,-64 -42,-93 -117,-88l-107 0z"/>
   <polygon class="fil15 en" points="12436,5236 12363,5236 12363,4788 12355,4788 12267,5236 12209,5236 12121,4788 12113,4788 12113,5236 12040,5236 12040,4608 12154,4608 12234,5023 12242,5023 12322,4608 12436,4608 "/>
   <polygon id="1" class="fil6 str2 en" points="12436,5236 12363,5236 12363,4788 12355,4788 12267,5236 12209,5236 12121,4788 12113,4788 12113,5236 12040,5236 12040,4608 12154,4608 12234,5023 12242,5023 12322,4608 12436,4608 "/>
  </g>
  <g data-code="LessThan">
   <circle class="fil0 str0" cx="13698" cy="4930" r="694"/>
   <circle class="fil14" cx="13699" cy="4927" r="629"/>
   <path class="fil15 ru" d="M13844 4644l0 77 -279 0 0 151 199 0c70,0 118,39 143,117l3 81c-17,95 -84,141 -201,136l-221 0 0 -562 356 0zm-279 481l191 0c34,-7 58,-26 70,-55l0 -44c-10,-64 -71,-90 -184,-77l-77 0 0 176z"/>
   <path id="1" class="fil6 str2 ru" d="M13844 4644l0 77 -279 0 0 151 199 0c70,0 118,39 143,117l3 81c-17,95 -84,141 -201,136l-221 0 0 -562 356 0zm-279 481l191 0c34,-7 58,-26 70,-55l0 -44c-10,-64 -71,-90 -184,-77l-77 0 0 176z"/>
   <polygon class="fil15 en" points="13870,5217 13837,5258 13467,4924 13833,4586 13870,4623 13540,4924 "/>
   <polygon id="1" class="fil6 str2 en" points="13870,5217 13837,5258 13467,4924 13833,4586 13870,4623 13540,4924 "/>
  </g>
  <g data-code="GreaterThan">
   <circle class="fil0 str0" cx="15146" cy="4930" r="694"/>
   <circle class="fil14" cx="15148" cy="4927" r="629"/>
   <path class="fil15 ru" d="M15256 4630c93,3 163,41 209,114 37,62 52,134 44,217 -12,125 -67,207 -165,246 -24,12 -63,17 -117,15 -103,-8 -175,-76 -217,-206l-11 -55 -154 0 0 246 -66 0 0 -562 66 0 0 239 154 0c15,-127 72,-208 173,-242 22,-8 50,-12 84,-12zm-7 67c-115,12 -174,90 -177,235 0,102 40,172 118,209 24,12 54,16 88,11 103,-20 156,-98 158,-235 2,-98 -34,-167 -110,-206 -20,-10 -45,-14 -77,-14z"/>
   <path id="1" class="fil6 str2 ru" d="M15256 4630c93,3 163,41 209,114 37,62 52,134 44,217 -12,125 -67,207 -165,246 -24,12 -63,17 -117,15 -103,-8 -175,-76 -217,-206l-11 -55 -154 0 0 246 -66 0 0 -562 66 0 0 239 154 0c15,-127 72,-208 173,-242 22,-8 50,-12 84,-12zm-7 67c-115,12 -174,90 -177,235 0,102 40,172 118,209 24,12 54,16 88,11 103,-20 156,-98 158,-235 2,-98 -34,-167 -110,-206 -20,-10 -45,-14 -77,-14z"/>
   <polygon class="fil15 en" points="15333,4924 14963,5258 14930,5217 15260,4924 14930,4623 14967,4586 "/>
   <polygon id="1" class="fil6 str2 en" points="15333,4924 14963,5258 14930,5217 15260,4924 14930,4623 14967,4586 "/>
  </g>
  <g data-code="Slash">
   <circle class="fil0 str0" cx="16595" cy="4930" r="694"/>
   <circle class="fil14" cx="16596" cy="4927" r="629"/>
   <path class="fil15 ru" d="M16410 4662l371 0 0 77 -294 0 0 151 287 0 0 77 -287 0 0 176 294 0 0 81 -371 0 0 -562zm316 -125l0 70 -70 0 0 -70 70 0zm-176 0l0 70 -70 0 0 -70 70 0z"/>
   <path id="1" class="fil6 str2 ru" d="M16410 4662l371 0 0 77 -294 0 0 151 287 0 0 77 -287 0 0 176 294 0 0 81 -371 0 0 -562zm316 -125l0 70 -70 0 0 -70 70 0zm-176 0l0 70 -70 0 0 -70 70 0z"/>
   <polygon class="fil15 en" points="16791,4586 16403,5280 16366,5258 16755,4564 "/>
   <polygon id="1" class="fil6 str2 en" points="16791,4586 16403,5280 16366,5258 16755,4564 "/>
  </g>
  <g data-code="ShiftRight">
   <path class="fil0 str0" d="M17772 4303l1940 0c195,0 355,160 355,356l0 543c0,195 -160,355 -355,355l-1940 0c-196,0 -356,-160 -356,-355l0 -543c0,-196 160,-356 356,-356z"/>
   <path class="fil9" d="M17776 4358l1935 0c165,0 300,135 300,300l0 538c0,165 -135,300 -300,300l-1935 0c-165,0 -300,-135 -300,-300l0 -538c0,-165 135,-300 300,-300z"/>
   <path class="fil4" d="M18180 4977l56 -5c4,19 10,32 21,41 10,9 24,13 41,13 19,0 32,-4 42,-11 9,-8 14,-17 14,-28 0,-7 -2,-12 -6,-17 -4,-5 -11,-9 -21,-12 -6,-3 -22,-7 -45,-13 -31,-8 -53,-17 -65,-28 -17,-16 -26,-35 -26,-58 0,-14 4,-28 12,-40 8,-13 20,-23 36,-29 15,-7 34,-10 55,-10 36,0 63,8 81,23 18,16 27,37 28,64l-57 2c-3,-15 -8,-25 -16,-32 -8,-6 -20,-10 -36,-10 -17,0 -30,4 -39,11 -6,4 -9,10 -9,18 0,6 3,12 8,17 7,6 25,12 53,19 28,7 48,13 62,20 13,8 24,17 31,29 8,13 12,28 12,46 0,16 -5,31 -14,46 -9,14 -22,24 -39,31 -16,7 -37,11 -61,11 -36,0 -64,-9 -83,-25 -20,-17 -31,-41 -35,-73z"/>
   <polygon id="1" class="fil4" points="18460,5070 18460,4785 18518,4785 18518,4897 18630,4897 18630,4785 18688,4785 18688,5070 18630,5070 18630,4945 18518,4945 18518,5070 "/>
   <polygon id="2" class="fil4" points="18746,5070 18746,4785 18803,4785 18803,5070 "/>
   <polygon id="3" class="fil4" points="18858,5070 18858,4785 19054,4785 19054,4833 18916,4833 18916,4901 19035,4901 19035,4949 18916,4949 18916,5070 "/>
   <polygon id="4" class="fil4" points="19165,5070 19165,4833 19081,4833 19081,4785 19307,4785 19307,4833 19223,4833 19223,5070 "/>
  </g>
  <g data-code="ControlLeft">
   <path class="fil0 str0" d="M412 5711l2739 0c198,0 360,160 360,355l0 543c0,196 -162,356 -360,356l-2739 0c-197,0 -359,-160 -359,-356l0 -543c0,-195 162,-355 359,-355z"/>
   <path class="fil7" d="M417 5766l2721 0c167,0 304,135 304,300l0 538c0,165 -137,300 -304,300l-2721 0c-168,0 -304,-135 -304,-300l0 -538c0,-165 136,-300 304,-300z"/>
   <path class="fil4" d="M1066 6140l56 17c-9,31 -23,55 -43,70 -20,15 -45,23 -76,23 -37,0 -68,-13 -93,-39 -24,-26 -36,-61 -36,-106 0,-47 12,-84 36,-111 25,-26 57,-39 97,-39 35,0 63,10 85,31 13,12 22,30 29,53l-57 13c-3,-15 -10,-26 -21,-35 -11,-8 -24,-13 -39,-13 -21,0 -38,8 -51,23 -14,15 -20,40 -20,74 0,36 6,61 19,76 13,16 30,23 51,23 15,0 28,-4 39,-14 11,-10 19,-25 24,-46z"/>
   <polygon id="1" class="fil4" points="1225,6245 1225,6008 1141,6008 1141,5960 1367,5960 1367,6008 1283,6008 1283,6245 "/>
   <polygon id="2" class="fil4" points="1404,6245 1404,5960 1615,5960 1615,6008 1462,6008 1462,6072 1604,6072 1604,6120 1462,6120 1462,6197 1620,6197 1620,6245 "/>
   <path id="3" class="fil4" d="M1669 6245l0 -285 93 0c34,0 57,2 68,4 16,5 30,14 41,28 11,15 16,33 16,56 0,17 -3,32 -9,44 -7,12 -15,21 -24,28 -10,7 -20,11 -30,13 -14,3 -34,5 -60,5l-37 0 0 107 -58 0zm58 -237l0 81 31 0c23,0 38,-1 46,-4 7,-3 13,-8 18,-14 4,-6 6,-14 6,-22 0,-11 -3,-19 -9,-26 -6,-7 -14,-11 -23,-13 -7,-1 -21,-2 -41,-2l-28 0z"/>
   <polygon id="4" class="fil4" points="1935,6245 1935,5960 2145,5960 2145,6008 1992,6008 1992,6072 2135,6072 2135,6120 1992,6120 1992,6197 2151,6197 2151,6245 "/>
   <polygon id="5" class="fil4" points="2264,6245 2264,6008 2180,6008 2180,5960 2405,5960 2405,6008 2321,6008 2321,6245 "/>
   <path id="6" class="fil4" d="M2444 5960l58 0 0 114 76 0c37,0 63,8 79,25 16,17 24,38 24,61 0,20 -5,36 -15,50 -9,14 -21,23 -33,28 -13,4 -31,7 -55,7l-134 0 0 -285zm58 237l55 0c19,0 31,-1 38,-3 7,-2 13,-5 19,-12 5,-6 8,-13 8,-22 0,-13 -5,-23 -14,-29 -9,-6 -25,-9 -48,-9l-58 0 0 75z"/>
   <path class="fil4" d="M1390 6381l114 0c22,0 39,1 50,2 11,2 21,6 30,12 9,6 16,14 22,24 5,10 8,21 8,33 0,13 -3,26 -10,37 -8,11 -17,19 -30,25 18,5 31,13 40,26 10,12 14,26 14,43 0,13 -3,25 -9,37 -6,13 -14,23 -24,30 -11,7 -24,12 -39,13 -10,1 -33,2 -69,2l-97 0 0 -284zm57 47l0 66 38 0c22,0 36,-1 42,-1 10,-2 17,-5 23,-11 6,-5 8,-13 8,-22 0,-9 -2,-16 -7,-21 -5,-6 -12,-9 -22,-10 -5,-1 -22,-1 -49,-1l-33 0zm0 113l0 76 54 0c20,0 34,0 39,-2 9,-1 16,-5 21,-11 5,-6 8,-14 8,-24 0,-9 -2,-16 -6,-22 -4,-6 -10,-10 -18,-13 -8,-3 -25,-4 -51,-4l-47 0z"/>
   <path id="1" class="fil4" d="M1844 6560l55 17c-8,32 -22,55 -42,70 -20,15 -45,23 -76,23 -38,0 -69,-13 -93,-39 -24,-26 -37,-61 -37,-106 0,-47 13,-84 37,-110 25,-26 57,-40 97,-40 35,0 63,11 85,31 13,13 22,30 29,53l-57 13c-4,-14 -11,-26 -21,-34 -11,-9 -24,-13 -39,-13 -21,0 -38,7 -52,23 -13,15 -19,39 -19,73 0,36 6,62 19,77 13,15 30,23 51,23 15,0 28,-5 39,-15 11,-10 19,-25 24,-46z"/>
   <polygon id="2" class="fil4" points="1949,6665 1949,6381 2160,6381 2160,6429 2007,6429 2007,6492 2149,6492 2149,6540 2007,6540 2007,6617 2165,6617 2165,6665 "/>
  </g>
  <g data-code="LangSwitch">
   <path class="fil0 str0" d="M3996 5711l2035 0c191,0 347,160 347,355l0 543c0,196 -156,356 -347,356l-2035 0c-190,0 -346,-160 -346,-356l0 -543c0,-195 156,-355 346,-355z"/>
   <path class="fil10" d="M4022 5766l2006 0c161,0 292,135 292,300l0 538c0,165 -131,300 -292,300l-2006 0c-161,0 -292,-135 -292,-300l0 -538c0,-165 131,-300 292,-300z"/>
   <path class="fil4" d="M4146 6594l0 -489 229 0c42,0 74,4 97,12 22,8 40,23 54,45 14,21 21,48 21,79 0,27 -6,51 -16,70 -11,20 -25,36 -44,48 -11,8 -27,15 -48,20 17,6 28,12 36,18 5,4 12,12 22,25 9,14 16,24 19,31l67 141 -155 0 -74 -149c-9,-19 -17,-32 -25,-38 -9,-7 -21,-11 -33,-11l-12 0 0 198 -138 0zm138 -290l58 0c6,0 18,-2 36,-7 9,-2 17,-7 22,-15 6,-9 9,-18 9,-29 0,-16 -5,-28 -14,-36 -9,-9 -26,-13 -51,-13l-60 0 0 100z"/>
   <path id="1" class="fil4" d="M4946 6594l-115 0 0 -57c-17,24 -34,40 -52,50 -17,10 -39,15 -64,15 -34,0 -60,-11 -80,-33 -19,-23 -28,-57 -28,-104l0 -225 124 0 0 195c0,22 3,38 11,47 7,10 18,14 31,14 15,0 27,-6 36,-18 9,-13 14,-35 14,-68l0 -170 123 0 0 354z"/>
   <polygon id="2" class="fil4" points="4998,6363 5177,6363 5177,6468 4998,6468 "/>
   <polygon id="3" class="fil4" points="5236,6105 5603,6105 5603,6210 5374,6210 5374,6287 5586,6287 5586,6387 5374,6387 5374,6483 5610,6483 5610,6594 5236,6594 "/>
   <path id="4" class="fil4" d="M5676 6240l115 0 0 57c17,-23 34,-40 52,-50 17,-10 38,-16 64,-16 34,0 60,12 80,34 19,22 28,57 28,104l0 225 -124 0 0 -195c0,-22 -3,-38 -11,-47 -7,-9 -18,-14 -31,-14 -15,0 -27,6 -36,19 -9,12 -14,34 -14,67l0 170 -123 0 0 -354z"/>
   <circle class="fil2 act-ru" cx="3960" cy="5994" r="150"/>
   <circle class="fil2 act-en" cx="6091" cy="5994" r="150"/>
  </g>
  <g data-code="Space">
   <path class="fil0 str0" d="M6891 5711l6353 0c200,0 363,160 363,355l0 543c0,196 -163,356 -363,356l-6353 0c-200,0 -363,-160 -363,-356l0 -543c0,-195 163,-355 363,-355z"/>
   <path class="fil13" d="M6902 5766l6335 0c168,0 306,135 306,300l0 538c0,165 -138,300 -306,300l-6335 0c-168,0 -306,-135 -306,-300l0 -538c0,-165 138,-300 306,-300z"/>
  </g>
  <g data-code="Period">
   <circle class="fil0 str0" cx="14402" cy="6338" r="694"/>
   <circle class="fil14" cx="14403" cy="6335" r="629"/>
   <path class="fil15" d="M14327 6335c0,-55 26,-83 76,-83 51,0 76,27 76,83 0,55 -25,83 -76,83 -25,0 -44,-8 -57,-23 -12,-14 -19,-34 -19,-60z"/>
  </g>
  <g data-code="Comma">
   <circle class="fil0 str0" cx="15873" cy="6338" r="694"/>
   <circle class="fil14" cx="15875" cy="6335" r="629"/>
   <path class="fil15" d="M15817 6379c-16,-16 -24,-33 -24,-54 0,-21 7,-38 21,-52 14,-14 34,-21 60,-21 25,0 46,8 61,25 15,17 23,40 23,69 0,88 -46,157 -136,209l-30 -38c22,-16 40,-35 54,-55 14,-21 20,-41 20,-60 0,-19 -9,-29 -28,-29 -6,0 -13,2 -21,6z"/>
  </g>
  <g data-code="ControlRight">
   <path class="fil0 str0" d="M17045 5711l2657 0c195,0 355,160 355,355l0 543c0,196 -160,356 -355,356l-2657 0c-196,0 -356,-160 -356,-356l0 -543c0,-195 160,-355 356,-355z"/>
   <path class="fil12" d="M17049 5766l2652 0c165,0 300,135 300,300l0 538c0,165 -135,300 -300,300l-2652 0c-165,0 -300,-135 -300,-300l0 -538c0,-165 135,-300 300,-300z"/>
   <path class="fil4" d="M17239 5955l114 0c23,0 39,1 50,3 12,2 21,6 30,12 9,6 16,13 22,23 6,10 9,21 9,34 0,13 -4,25 -11,36 -7,11 -17,20 -29,25 17,5 31,14 40,26 9,12 14,27 14,43 0,13 -3,26 -9,38 -6,12 -14,22 -25,29 -10,8 -23,12 -39,14 -9,1 -32,1 -69,2l-97 0 0 -285zm58 47l0 66 37 0c23,0 37,0 42,-1 10,-1 18,-5 23,-10 6,-6 9,-13 9,-22 0,-9 -3,-16 -7,-22 -5,-5 -13,-9 -22,-10 -6,0 -22,-1 -49,-1l-33 0zm0 113l0 77 53 0c21,0 34,-1 40,-2 8,-2 15,-5 20,-11 6,-7 9,-15 9,-25 0,-8 -3,-16 -7,-22 -4,-6 -10,-10 -18,-13 -7,-2 -25,-4 -51,-4l-46 0z"/>
   <path id="1" class="fil4" d="M17528 5955l58 0 0 114 76 0c21,0 38,3 52,8 15,6 27,15 37,30 9,14 14,30 14,48 0,20 -5,36 -15,50 -10,14 -21,23 -34,28 -12,4 -30,7 -54,7l-134 0 0 -285zm58 237l56 0c17,0 30,-1 37,-3 7,-2 13,-6 19,-12 5,-6 8,-13 8,-22 0,-13 -4,-22 -13,-29 -9,-6 -26,-9 -49,-9l-58 0 0 75zm212 -237l58 0 0 285 -58 0 0 -285z"/>
   <path id="2" class="fil4" d="M17939 5955l196 0 0 237 25 0 0 110 -48 0 0 -62 -178 0 0 62 -49 0 0 -110 25 0c11,-25 19,-53 23,-85 4,-32 6,-73 6,-122l0 -30zm55 48c0,86 -8,149 -24,189l107 0 0 -189 -83 0z"/>
   <polygon id="3" class="fil4" points="18199,6240 18199,5955 18410,5955 18410,6003 18257,6003 18257,6066 18399,6066 18399,6114 18257,6114 18257,6192 18415,6192 18415,6240 "/>
   <path id="4" class="fil4" d="M18485 5955l199 0 0 285 -58 0 0 -237 -85 0 0 122c0,34 -1,59 -4,73 -2,13 -8,24 -17,32 -9,7 -23,11 -42,11 -7,0 -19,0 -37,-2l0 -44 13 0c12,0 20,-2 25,-5 4,-3 6,-11 6,-24l0 -49 0 -162z"/>
   <polygon id="5" class="fil4" points="18744,5955 18798,5955 18798,6145 18913,5955 18970,5955 18970,6240 18916,6240 18916,6053 18801,6240 18744,6240 "/>
   <polygon id="6" class="fil4" points="19093,6240 19093,6003 19009,6003 19009,5955 19235,5955 19235,6003 19151,6003 19151,6240 "/>
   <path id="7" class="fil4" d="M19273 5955l58 0 0 114 76 0c37,0 63,8 79,25 16,17 24,38 24,61 0,20 -5,36 -14,50 -10,13 -21,23 -34,27 -13,5 -31,8 -55,8l-134 0 0 -285zm58 237l56 0c18,0 30,-1 37,-3 7,-2 13,-6 19,-12 5,-6 8,-14 8,-23 0,-13 -5,-22 -14,-28 -9,-6 -25,-9 -48,-9l-58 0 0 75z"/>
   <path class="fil4" d="M17987 6381l114 0c23,0 39,1 50,2 11,2 21,6 30,12 9,6 16,14 22,24 6,10 9,21 9,33 0,13 -4,26 -11,37 -7,11 -17,19 -29,25 17,5 30,13 40,26 9,12 14,26 14,43 0,13 -3,25 -9,37 -6,13 -15,23 -25,30 -10,7 -23,12 -39,13 -9,1 -32,2 -69,2l-97 0 0 -284zm58 47l0 66 37 0c23,0 37,-1 42,-1 10,-2 18,-5 23,-11 6,-5 9,-13 9,-22 0,-9 -3,-16 -8,-21 -4,-6 -12,-9 -21,-10 -6,-1 -22,-1 -49,-1l-33 0zm0 113l0 76 53 0c21,0 34,0 39,-2 9,-1 16,-5 21,-11 6,-6 8,-14 8,-24 0,-9 -2,-16 -6,-22 -4,-6 -10,-10 -18,-13 -8,-3 -25,-4 -51,-4l-46 0z"/>
   <path id="1" class="fil4" d="M18441 6560l56 17c-9,32 -23,55 -43,70 -20,15 -45,23 -75,23 -38,0 -69,-13 -94,-39 -24,-26 -36,-61 -36,-106 0,-47 12,-84 36,-110 25,-26 57,-40 97,-40 35,0 63,11 85,31 13,13 23,30 29,53l-57 13c-3,-14 -10,-26 -21,-34 -11,-9 -24,-13 -39,-13 -21,0 -38,7 -51,23 -13,15 -20,39 -20,73 0,36 6,62 19,77 13,15 30,23 51,23 15,0 28,-5 39,-15 11,-10 19,-25 24,-46z"/>
   <polygon id="2" class="fil4" points="18546,6665 18546,6381 18757,6381 18757,6429 18604,6429 18604,6492 18746,6492 18746,6540 18604,6540 18604,6617 18763,6617 18763,6665 "/>
  </g>
 </g>
</svg>
